<svg width="407" height="354" viewBox="0 0 407 354" fill="none" xmlns="http://www.w3.org/2000/svg">
<path d="M748.236 346.583C745.154 346.583 742.197 345.358 740.018 343.178C737.838 340.998 736.614 338.04 736.614 334.957C736.614 331.873 737.838 328.916 740.018 326.736C742.197 324.555 745.154 323.331 748.236 323.331H748.624V318.991H748.236C746.668 319.06 745.102 318.811 743.633 318.259C742.163 317.707 740.821 316.862 739.687 315.777C738.553 314.692 737.65 313.388 737.034 311.944C736.417 310.5 736.099 308.946 736.099 307.376C736.099 305.806 736.417 304.252 737.034 302.808C737.65 301.364 738.553 300.06 739.687 298.975C740.821 297.889 742.163 297.045 743.633 296.493C745.102 295.94 746.668 295.691 748.236 295.761H748.624V291.193H748.236C745.154 291.193 742.197 289.968 740.018 287.787C737.838 285.607 736.614 282.65 736.614 279.566C736.614 276.483 737.838 273.526 740.018 271.345C742.197 269.165 745.154 267.94 748.236 267.94H748.624V263.372H748.236C745.154 263.372 742.197 262.147 740.018 259.966C737.838 257.786 736.614 254.829 736.614 251.745C736.614 248.662 737.838 245.705 740.018 243.524C742.197 241.344 745.154 240.119 748.236 240.119H748.624V234.34C737.68 229.211 728.423 221.069 721.939 210.866C715.454 200.664 712.011 188.824 712.011 176.734C712.011 164.644 715.454 152.804 721.939 142.601C728.423 132.399 737.68 124.256 748.624 119.128V113.943H748.236C745.154 113.943 742.197 112.718 740.018 110.537C737.838 108.357 736.614 105.4 736.614 102.316C736.614 99.2329 737.838 96.2757 740.018 94.0953C742.197 91.915 745.154 90.6901 748.236 90.6901H748.624V86.3274H748.236C745.154 86.3274 742.197 85.1024 740.018 82.9221C737.838 80.7417 736.614 77.7845 736.614 74.7011C736.614 71.6176 737.838 68.6603 740.018 66.48C742.197 64.2996 745.154 63.0747 748.236 63.0747H748.624V58.5064H748.236C745.154 58.5064 742.197 57.2815 740.018 55.1012C737.838 52.9208 736.614 49.9636 736.614 46.8801C736.614 43.7966 737.838 40.8394 740.018 38.6591C742.197 36.4787 745.154 35.2538 748.236 35.2538H748.624V30.6855H748.236C745.154 30.6855 742.197 29.4606 740.018 27.2802C737.838 25.0999 736.614 22.1427 736.614 19.0592C736.614 15.9757 737.838 13.0185 740.018 10.8381C742.197 8.65778 745.154 7.43286 748.236 7.43286H748.624V1.79102H2.33057V7.98107C5.3207 8.11376 8.14442 9.39546 10.2134 11.5591C12.2824 13.7228 13.4372 16.6017 13.4372 19.596C13.4372 22.5903 12.2824 25.4691 10.2134 27.6328C8.14442 29.7965 5.3207 31.0782 2.33057 31.2109V35.7792C5.3207 35.9118 8.14442 37.1935 10.2134 39.3572C12.2824 41.5209 13.4372 44.3998 13.4372 47.3941C13.4372 50.3884 12.2824 53.2672 10.2134 55.4309C8.14442 57.5946 5.3207 58.8762 2.33057 59.0089V63.5772C5.40675 63.5772 8.35694 64.7997 10.5321 66.9758C12.7073 69.1519 13.9294 72.1033 13.9294 75.1807C13.9294 78.2581 12.7073 81.2095 10.5321 83.3856C8.35694 85.5617 5.40675 86.7842 2.33057 86.7842V91.1012C5.3207 91.2339 8.14442 92.5156 10.2134 94.6793C12.2824 96.843 13.4372 99.7218 13.4372 102.716C13.4372 105.71 12.2824 108.589 10.2134 110.753C8.14442 112.917 5.3207 114.198 2.33057 114.331V119.425C13.2923 124.549 22.5657 132.695 29.0627 142.907C35.5596 153.119 39.0105 164.972 39.0105 177.077C39.0105 189.181 35.5596 201.035 29.0627 211.246C22.5657 221.458 13.2923 229.604 2.33057 234.728V240.439C5.3207 240.571 8.14442 241.853 10.2134 244.017C12.2824 246.181 13.4372 249.059 13.4372 252.054C13.4372 255.048 12.2824 257.927 10.2134 260.091C8.14442 262.254 5.3207 263.536 2.33057 263.669V268.237C5.40675 268.237 8.35694 269.459 10.5321 271.635C12.7073 273.812 13.9294 276.763 13.9294 279.84C13.9294 282.918 12.7073 285.869 10.5321 288.045C8.35694 290.221 5.40675 291.444 2.33057 291.444V296.012C5.3207 296.145 8.14442 297.427 10.2134 299.59C12.2824 301.754 13.4372 304.633 13.4372 307.627C13.4372 310.621 12.2824 313.5 10.2134 315.664C8.14442 317.828 5.3207 319.109 2.33057 319.242V323.536C5.3207 323.669 8.14442 324.95 10.2134 327.114C12.2824 329.278 13.4372 332.157 13.4372 335.151C13.4372 338.145 12.2824 341.024 10.2134 343.188C8.14442 345.352 5.3207 346.633 2.33057 346.766V351.791H748.624V346.743L748.236 346.583Z" stroke="#AAAAAA" stroke-width="3"/>
<path d="M684.853 24.9067H67.0597C61.5492 24.9067 57.082 29.3757 57.082 34.8885V318.991C57.082 324.504 61.5492 328.972 67.0597 328.972H684.853C690.364 328.972 694.831 324.504 694.831 318.991V34.8885C694.831 29.3757 690.364 24.9067 684.853 24.9067Z" stroke="#D33A27" stroke-width="1.5" stroke-miterlimit="10"/>
<path d="M57.082 116.455H605.557" stroke="#D33A27" stroke-width="1.5" stroke-miterlimit="10"/>
<path d="M84.4808 88.2907C82.4254 88.3513 80.3842 87.9289 78.5215 87.0573C76.9624 86.2903 75.6084 85.1628 74.5716 83.7681C73.5172 82.343 72.7424 80.7309 72.2884 79.0171C71.3759 75.3731 71.3759 71.5602 72.2884 67.9161C72.7377 66.2076 73.513 64.6021 74.5716 63.1879C75.6076 61.7867 76.9614 60.6516 78.5215 59.8759C80.3787 58.9857 82.4225 58.5548 84.4808 58.6196C85.0745 58.6196 85.7366 58.6196 86.4672 58.6196C87.1978 58.6196 87.9057 58.8024 88.6363 58.9394C89.346 59.0741 90.0473 59.2495 90.7368 59.4648C91.3475 59.6649 91.9305 59.9411 92.4721 60.2871V71.0682H86.9466L92.2665 65.6777C91.1765 64.9453 89.9615 64.4189 88.6819 64.1245C86.8897 63.6825 85.0478 63.4752 83.2022 63.5077C81.41 63.458 79.6214 63.6971 77.9051 64.2158C76.6129 64.6146 75.4321 65.3109 74.4575 66.2487C73.5953 67.1294 72.9537 68.2017 72.5852 69.378C71.8248 71.9808 71.8248 74.7469 72.5852 77.3497C72.9489 78.5214 73.5914 79.5874 74.4575 80.4561C75.4321 81.3939 76.6129 82.0902 77.9051 82.489C79.616 83.0362 81.4067 83.2911 83.2022 83.2428C85.0478 83.2753 86.8897 83.068 88.6819 82.626C89.9698 82.3209 91.1869 81.7703 92.2665 81.0043L86.9466 75.6365H92.4721V86.4406C91.9245 86.7695 91.3426 87.0376 90.7368 87.24C90.0509 87.4736 89.3489 87.6569 88.6363 87.7882C87.9057 87.9253 87.1978 88.0395 86.4672 88.108C85.7366 88.1765 85.143 88.2907 84.4808 88.2907Z" fill="#D33A27"/>
<path d="M112.085 88.2916C110.773 88.3349 109.471 88.0524 108.295 87.4693C107.315 86.9071 106.479 86.1252 105.852 85.1851C105.235 84.2944 104.793 83.2944 104.55 82.2386C104.289 81.2238 104.159 80.1799 104.162 79.1321C104.159 78.0768 104.289 77.0254 104.55 76.0029C104.793 74.947 105.235 73.947 105.852 73.0563C106.484 72.1506 107.321 71.4071 108.295 70.8863C109.481 70.3299 110.775 70.0415 112.085 70.0415C113.395 70.0415 114.689 70.3299 115.875 70.8863C116.868 71.3877 117.717 72.1347 118.341 73.0563C118.974 73.9406 119.424 74.9423 119.665 76.0029C119.926 77.0254 120.057 78.0768 120.053 79.1321C120.057 80.1799 119.926 81.2238 119.665 82.2386C119.424 83.2991 118.974 84.3008 118.341 85.1851C117.721 86.1396 116.874 86.9246 115.875 87.4693C114.7 88.0542 113.397 88.3368 112.085 88.2916V88.2916ZM112.085 83.9745C113.009 83.9827 113.933 83.9216 114.848 83.7918C115.686 83.6946 116.503 83.4632 117.268 83.1066C117.957 82.7795 118.554 82.2847 119.003 81.6675C119.489 80.9482 119.73 80.0908 119.688 79.2235C119.733 78.3558 119.492 77.4973 119.003 76.7795C118.554 76.1623 117.957 75.6676 117.268 75.3405C116.504 74.976 115.687 74.7368 114.848 74.6323C113.022 74.3888 111.171 74.3888 109.345 74.6323C108.498 74.7336 107.672 74.9728 106.902 75.3405C106.213 75.6676 105.616 76.1623 105.167 76.7795C104.678 77.4973 104.437 78.3558 104.482 79.2235C104.44 80.0908 104.681 80.9482 105.167 81.6675C105.616 82.2847 106.213 82.7795 106.902 83.1066C107.674 83.4663 108.499 83.6978 109.345 83.7918C110.252 83.9209 111.168 83.982 112.085 83.9745V83.9745Z" fill="#D33A27"/>
<path d="M130.099 88.0631V83.9516H134.323V88.0631H130.099ZM141.767 70.3838H146.333L134.78 88.0631H130.213L141.767 70.3838ZM130.533 74.4952V70.3838H137.771V74.4952H130.533ZM131.949 70.3838H132.428L139.049 78.4697L138.844 78.9722L131.949 70.3838ZM139.552 79.292L139.712 78.8123L146.972 88.0631H146.493L139.552 79.292ZM139.871 88.0631V83.9516H147.429V88.0631H139.871ZM142.155 70.3838H146.561V74.5181H142.155V70.3838Z" fill="#D33A27"/>
<path d="M156.402 70.3836H160.968V74.4951H156.402V70.3836ZM156.402 93.9789H165.535V98.0903H156.402V93.9789ZM160.694 70.3836H161.128V77.396L160.991 77.7386V80.8907L161.128 81.2333V98.0903H160.694V70.3836ZM168.298 88.2914C167.363 88.3067 166.436 88.1197 165.58 87.7431C164.79 87.3909 164.076 86.8864 163.48 86.2585C162.862 85.5896 162.367 84.8162 162.019 83.9743C161.629 83.1313 161.353 82.2404 161.197 81.3247H160.877V76.8706H161.197C161.356 75.9557 161.632 75.0652 162.019 74.221C162.381 73.3866 162.875 72.6155 163.48 71.9368C164.07 71.3023 164.785 70.7968 165.58 70.4522C166.441 70.0939 167.366 69.9152 168.298 69.9268C169.372 69.9084 170.436 70.1431 171.403 70.612C172.283 71.065 173.06 71.6949 173.686 72.4622C174.373 73.316 174.892 74.2926 175.216 75.3402C175.575 76.5325 175.752 77.7724 175.741 79.0177C175.748 80.2552 175.571 81.4869 175.216 82.6723C174.892 83.7199 174.373 84.6966 173.686 85.5504C173.061 86.3246 172.284 86.9621 171.403 87.4234C170.451 87.9557 169.387 88.2533 168.298 88.2914V88.2914ZM168.298 83.9743C169.061 83.9699 169.823 83.9241 170.581 83.8373C171.372 83.7495 172.143 83.5334 172.864 83.1977C173.582 82.8858 174.204 82.3893 174.668 81.7587C175.185 81.0176 175.442 80.126 175.398 79.2233C175.442 78.3135 175.185 77.4147 174.668 76.6651C174.204 76.0344 173.582 75.5379 172.864 75.226C172.139 74.8998 171.37 74.6842 170.581 74.5865C169.064 74.4092 167.531 74.4092 166.014 74.5865C165.226 74.6842 164.456 74.8998 163.731 75.226C163.013 75.5379 162.391 76.0344 161.927 76.6651C161.417 77.4168 161.168 78.3159 161.219 79.2233C161.168 80.1236 161.417 81.0155 161.927 81.7587C162.391 82.3893 163.013 82.8858 163.731 83.1977C164.453 83.5334 165.224 83.7495 166.014 83.8373C166.772 83.9243 167.535 83.9701 168.298 83.9743V83.9743Z" fill="#D33A27"/>
<path d="M191.312 88.2916C190.531 88.317 189.753 88.1769 189.029 87.8804C188.444 87.634 187.921 87.2594 187.499 86.784C187.108 86.3167 186.82 85.7718 186.655 85.1851C186.493 84.5816 186.408 83.9599 186.403 83.335C186.4 82.5569 186.531 81.784 186.792 81.0508C187.072 80.3148 187.545 79.6678 188.162 79.1778C188.915 78.5763 189.786 78.1404 190.719 77.8987C192.036 77.5483 193.397 77.3868 194.76 77.419H198.253V80.7996H191.997C190.64 80.7143 189.278 80.8768 187.979 81.2792C187.248 81.6219 186.906 82.0559 186.906 82.604C186.913 82.9365 187.032 83.2567 187.243 83.5135C187.455 83.7703 187.746 83.9487 188.07 84.0202C189.194 84.3609 190.368 84.5077 191.541 84.4542C192.35 84.4586 193.159 84.4052 193.961 84.2943C194.686 84.1916 195.388 83.9677 196.039 83.6319C196.713 83.3031 197.272 82.7782 197.643 82.1261C198.013 81.4739 198.178 80.725 198.116 79.9773V77.3505C198.155 76.7345 197.986 76.1234 197.637 75.6146C197.286 75.1906 196.829 74.8674 196.313 74.6781C195.716 74.4377 195.083 74.2987 194.44 74.2669C193.755 74.2669 193.002 74.2669 192.157 74.2669C191.034 74.2307 189.912 74.3537 188.824 74.6324C188.475 74.6922 188.159 74.8747 187.933 75.1469C187.707 75.4192 187.586 75.7632 187.591 76.1171C187.591 76.277 187.591 76.3683 187.385 76.3683C187.18 76.3683 187.18 76.3683 187.18 76.1171C187.079 74.5169 187.612 72.9414 188.664 71.7315C189.245 71.1887 189.933 70.7724 190.684 70.509C191.434 70.2456 192.232 70.1408 193.025 70.2011C193.648 70.2009 194.27 70.2776 194.874 70.4295C195.53 70.5832 196.13 70.9152 196.609 71.3889C197.212 71.9739 197.666 72.6944 197.934 73.4903C198.313 74.6542 198.483 75.876 198.436 77.0992V81.7818C198.401 82.4954 198.534 83.2074 198.824 83.8603C198.963 84.1023 199.167 84.2997 199.414 84.4292C199.661 84.5588 199.939 84.6149 200.217 84.5912C200.433 84.6107 200.65 84.5841 200.855 84.5132C201.059 84.4424 201.247 84.3288 201.404 84.1801C201.633 83.927 201.811 83.6323 201.929 83.3121L205.765 84.34C205.572 85.4064 205.082 86.3964 204.349 87.1952C203.979 87.588 203.529 87.8957 203.028 88.0968C202.527 88.298 201.989 88.3878 201.45 88.3601C200.846 88.3975 200.245 88.2628 199.715 87.9718C199.286 87.7181 198.931 87.3557 198.687 86.9211C198.432 86.436 198.262 85.9106 198.185 85.3679C198.149 84.7669 198.149 84.1644 198.185 83.5634V82.33C197.942 84.0082 197.137 85.5543 195.902 86.7155C194.638 87.8238 192.99 88.39 191.312 88.2916V88.2916Z" fill="#D33A27"/>
<path d="M221.611 74.4952H212.866V70.3838H221.611V74.4952ZM221.611 88.0631H212.866V83.9516H221.611V88.0631ZM217.592 88.0631H217.181V70.3838H217.592V88.0631ZM227.867 80.9365H217.387V77.3961H227.867V80.9365ZM232.433 74.4952H223.711V70.3838H232.433V74.4952ZM232.433 88.0631H223.711V83.9516H232.433V88.0631ZM228.118 88.0631H227.707V70.3838H228.118V88.0631Z" fill="#D33A27"/>
<path d="M251.818 74.4952H242.982V70.3837H251.818V74.4952ZM247.502 88.063H242.936V83.9516H247.502V88.063ZM247.708 88.063H247.251V70.3837H247.662L247.708 88.063ZM257.868 74.3581H257.663L249.466 88.063H247.502V83.9744H247.708L255.882 70.2695H257.868V74.3581ZM262.435 88.063H253.599V83.9516H262.435V88.063ZM258.12 88.063H257.708V70.3837H258.12V88.063ZM262.435 74.4952H257.868V70.3837H262.435V74.4952Z" fill="#D33A27"/>
<path d="M288.509 79.132H283.783L288.349 74.5637H272.937L277.504 79.132H272.755V70.3838H288.395L288.509 79.132ZM285.198 88.0631H276.065V83.9516H285.198V88.0631ZM280.883 88.0631H280.472V70.3838H280.883V88.0631Z" fill="#D33A27"/>
<path d="M307.003 88.2909C305.681 88.3438 304.365 88.0775 303.167 87.5143C302.255 87.0183 301.473 86.3139 300.884 85.4585C300.261 84.5937 299.832 83.604 299.628 82.5576C299.171 80.4041 299.171 78.1786 299.628 76.025C299.852 74.9819 300.254 73.9852 300.816 73.0784C301.421 72.1306 302.265 71.3592 303.263 70.8418C304.261 70.3245 305.378 70.0796 306.501 70.1319C307.717 70.0885 308.927 70.3228 310.04 70.8171C310.988 71.2388 311.784 71.9401 312.323 72.8272C312.915 73.8402 313.31 74.9563 313.487 76.1164C313.715 77.6283 313.822 79.1558 313.807 80.6847H299.628V77.2584H313.328C313.133 76.6884 312.809 76.1712 312.381 75.7472C311.953 75.3232 311.433 75.0039 310.862 74.8144C309.485 74.3209 308.031 74.081 306.569 74.1063C305.805 74.0958 305.041 74.1493 304.286 74.2662C303.605 74.3734 302.939 74.5573 302.3 74.8144C301.714 75.0568 301.174 75.3966 300.702 75.8194C300.249 76.2373 299.911 76.7642 299.72 77.3498V80.5248C299.879 81.185 300.183 81.8015 300.61 82.3293C301.027 82.8112 301.52 83.2203 302.071 83.5398C302.644 83.8597 303.259 84.098 303.898 84.2479C304.559 84.3852 305.232 84.4541 305.907 84.4535C307.017 84.5135 308.123 84.2686 309.104 83.7454C309.835 83.3038 310.471 82.7215 310.976 82.0323L314.173 84.7048C313.99 85.0017 313.716 85.3672 313.396 85.8012C313.021 86.2717 312.574 86.6803 312.072 87.0118C311.451 87.4388 310.764 87.7627 310.04 87.9711C309.053 88.25 308.026 88.3582 307.003 88.2909V88.2909Z" fill="#D33A27"/>
<path d="M355.339 79.0863C355.342 80.2156 355.219 81.3417 354.974 82.444C354.747 83.5007 354.329 84.507 353.741 85.4133C353.156 86.2782 352.373 86.9909 351.458 87.4919C350.369 88.0655 349.148 88.3413 347.919 88.2914C346.964 88.3643 346.004 88.2261 345.109 87.8866C344.213 87.5471 343.403 87.0147 342.736 86.327C341.533 84.9094 340.905 83.0916 340.978 81.2334C340.978 81.0735 340.978 80.9821 341.183 80.9821C341.389 80.9821 341.389 80.9821 341.389 81.2334C341.377 81.5163 341.429 81.7981 341.539 82.0588C341.65 82.3194 341.817 82.5524 342.028 82.7409C342.504 83.1372 343.055 83.4325 343.649 83.6089C344.344 83.8409 345.065 83.9866 345.795 84.0429C346.549 84.0429 347.302 84.0429 348.079 84.0429C348.984 84.048 349.887 83.9561 350.773 83.7687C351.569 83.6184 352.339 83.3489 353.056 82.9693C353.649 82.6329 354.162 82.1734 354.563 81.6217C354.961 81.0648 355.198 80.4088 355.248 79.7258V78.401C355.184 77.6964 354.94 77.0201 354.54 76.4367C354.141 75.8781 353.627 75.4109 353.033 75.0661C352.321 74.6798 351.549 74.4172 350.75 74.2895C349.862 74.1214 348.96 74.0373 348.056 74.0383C345.973 74.0346 343.91 74.4381 341.982 75.2261L345.316 78.7665H341.731V71.4801C343.537 70.5737 345.533 70.1117 347.553 70.1324C348.772 70.0937 349.983 70.336 351.092 70.8405C352.045 71.291 352.881 71.9554 353.536 72.782C354.21 73.6135 354.7 74.579 354.974 75.6144C355.261 76.7483 355.383 77.9175 355.339 79.0863V79.0863ZM355.088 80.8907H347.165V77.3732H355.088V80.8907Z" fill="#D33A27"/>
<path d="M381.642 79.132H376.87L381.436 74.5637H366.025L370.591 79.132H365.979V70.3838H381.642V79.132ZM378.308 88.0631H369.176V83.9516H378.308V88.0631ZM373.993 88.0631H373.582V70.3838H373.993V88.0631Z" fill="#D33A27"/>
<path d="M400.227 88.2916C398.915 88.3349 397.613 88.0524 396.437 87.4693C395.457 86.9071 394.621 86.1252 393.994 85.1851C393.377 84.2944 392.935 83.2944 392.692 82.2386C392.424 81.2247 392.286 80.1809 392.281 79.1321C392.286 78.0759 392.424 77.0245 392.692 76.0029C392.935 74.947 393.377 73.947 393.994 73.0563C394.626 72.1506 395.463 71.4071 396.437 70.8863C397.623 70.3299 398.917 70.0415 400.227 70.0415C401.537 70.0415 402.831 70.3299 404.017 70.8863C405.003 71.3989 405.849 72.1437 406.483 73.0563C407.107 73.9459 407.556 74.9457 407.807 76.0029C408.056 77.0275 408.187 78.0776 408.195 79.1321C408.187 80.1792 408.057 81.2217 407.807 82.2386C407.556 83.2957 407.107 84.2956 406.483 85.1851C405.853 86.1312 405.008 86.9141 404.017 87.4693C402.841 88.0524 401.539 88.3349 400.227 88.2916V88.2916ZM400.227 83.9745C401.143 83.9835 402.059 83.9224 402.967 83.7918C403.812 83.6946 404.637 83.4633 405.41 83.1066C406.099 82.7795 406.696 82.2847 407.145 81.6675C407.631 80.9482 407.871 80.0908 407.83 79.2235C407.875 78.3558 407.634 77.4973 407.145 76.7795C406.696 76.1623 406.099 75.6676 405.41 75.3405C404.638 74.9758 403.813 74.7368 402.967 74.6323C402.058 74.5131 401.143 74.4521 400.227 74.4496C399.311 74.4536 398.396 74.5146 397.487 74.6323C396.64 74.7336 395.814 74.9728 395.044 75.3405C394.354 75.6676 393.758 76.1623 393.309 76.7795C392.819 77.4973 392.579 78.3558 392.624 79.2235C392.582 80.0908 392.822 80.9482 393.309 81.6675C393.758 82.2847 394.354 82.7795 395.044 83.1066C395.816 83.4663 396.641 83.6978 397.487 83.7918C398.395 83.9209 399.31 83.982 400.227 83.9745Z" fill="#D33A27"/>
<path d="M94.778 136.441H119.391V146.857H94.7324L94.778 136.441ZM94.778 190.896H119.391V201.311H94.7324L94.778 190.896ZM106.651 136.441H107.564V201.311H106.651V136.441ZM119.893 172.988H107.016V162.572H116.149L136.972 136.35H150.306L120.624 172.896V172.44L148.936 201.311H147.657L119.893 172.988ZM126.013 190.804H151.493V201.22H126.013V190.804ZM128.844 136.35H151.128V146.766H128.844V136.35Z" fill="#D33A27"/>
<path d="M173.412 201.859C171.677 201.914 169.95 201.603 168.343 200.945C167.049 200.382 165.895 199.539 164.964 198.478C164.076 197.449 163.436 196.23 163.092 194.915C162.728 193.575 162.543 192.192 162.544 190.803C162.539 189.091 162.832 187.39 163.412 185.778C164.021 184.145 165.063 182.708 166.425 181.621C168.119 180.303 170.06 179.34 172.133 178.789C175.052 178.018 178.066 177.664 181.084 177.738H188.847V185.23H174.965C171.939 185.035 168.904 185.407 166.015 186.327C164.439 187.057 163.731 188.04 163.731 189.25C163.754 189.99 164.022 190.701 164.493 191.272C164.964 191.843 165.612 192.24 166.334 192.402C168.836 193.147 171.444 193.471 174.051 193.362C175.839 193.368 177.624 193.246 179.394 192.996C180.989 192.773 182.533 192.279 183.961 191.534C185.305 190.823 186.451 189.786 187.294 188.519C188.214 186.977 188.659 185.197 188.573 183.403V177.555C188.657 176.189 188.27 174.834 187.477 173.718C186.707 172.769 185.698 172.044 184.554 171.617C183.223 171.103 181.822 170.795 180.399 170.703C178.846 170.589 177.225 170.52 175.513 170.52C173.02 170.447 170.53 170.724 168.115 171.343C167.341 171.473 166.639 171.877 166.137 172.48C165.634 173.083 165.364 173.847 165.375 174.632C165.375 174.997 165.215 175.18 164.918 175.18C164.622 175.18 164.462 174.997 164.462 174.632C164.233 171.082 165.415 167.585 167.75 164.901C169.04 163.693 170.566 162.765 172.232 162.175C173.898 161.585 175.668 161.347 177.431 161.475C178.816 161.476 180.196 161.645 181.54 161.978C182.997 162.349 184.333 163.088 185.422 164.125C186.734 165.403 187.734 166.966 188.344 168.693C189.191 171.286 189.577 174.007 189.486 176.733V187.149C189.412 188.719 189.709 190.284 190.353 191.717C190.653 192.253 191.102 192.689 191.645 192.973C192.188 193.257 192.803 193.376 193.413 193.316C193.894 193.362 194.38 193.304 194.837 193.147C195.293 192.989 195.711 192.735 196.062 192.402C196.571 191.841 196.974 191.191 197.249 190.484L205.742 192.768C205.318 195.132 204.243 197.331 202.637 199.118C201.809 199.995 200.801 200.683 199.681 201.132C198.562 201.582 197.358 201.783 196.153 201.722C194.82 201.775 193.497 201.476 192.317 200.854C191.362 200.315 190.572 199.525 190.034 198.57C189.466 197.503 189.095 196.342 188.938 195.143C188.752 193.811 188.66 192.468 188.664 191.123V188.428H188.481C187.98 192.135 186.242 195.563 183.55 198.158C180.789 200.678 177.146 202.008 173.412 201.859Z" fill="#D33A27"/>
<path d="M210.309 162.023H220.355V171.16H210.309V162.023ZM210.309 192.174H232.502V201.311H210.309V192.174ZM219.898 162.023H220.812V177.556H220.994C221.348 175.49 221.821 173.446 222.41 171.434C222.916 169.626 223.685 167.902 224.693 166.318C225.623 164.91 226.836 163.712 228.255 162.8C229.796 161.874 231.572 161.414 233.369 161.475C234.974 161.42 236.561 161.833 237.936 162.663C239.194 163.509 240.203 164.676 240.858 166.043C241.642 167.685 242.151 169.445 242.365 171.251C242.652 173.463 242.789 175.691 242.776 177.921C242.776 178.286 242.639 178.469 242.319 178.469C242 178.469 241.863 178.286 241.863 177.921C241.895 176.971 241.705 176.026 241.309 175.162C240.913 174.297 240.321 173.537 239.58 172.942C237.353 171.48 234.696 170.82 232.045 171.069C230.647 171.072 229.255 171.226 227.89 171.525C226.538 171.819 225.282 172.447 224.236 173.353C223.056 174.444 222.162 175.809 221.634 177.327C220.89 179.532 220.549 181.854 220.629 184.18V201.356H219.715L219.898 162.023Z" fill="#D33A27"/>
<path d="M250.037 136.441H260.083V145.578H250.037V136.441ZM250.037 192.175H270.129V201.311H250.037V192.175ZM259.626 136.441H260.539V201.311H259.626V136.441Z" fill="#D33A27"/>
<path d="M297.984 201.859C295.07 201.963 292.177 201.318 289.582 199.986C287.417 198.819 285.556 197.161 284.148 195.144C282.777 193.167 281.786 190.951 281.226 188.611C280.069 184.054 280.069 179.281 281.226 174.724C281.786 172.384 282.777 170.168 284.148 168.191C285.556 166.174 287.417 164.516 289.582 163.349C292.177 162.017 295.07 161.372 297.984 161.476C300.913 161.374 303.82 162.019 306.432 163.349C308.615 164.508 310.492 166.168 311.912 168.191C313.283 170.168 314.274 172.384 314.834 174.724C315.991 179.281 315.991 184.054 314.834 188.611C314.274 190.951 313.283 193.167 311.912 195.144C310.492 197.167 308.615 198.827 306.432 199.986C303.82 201.316 300.913 201.961 297.984 201.859ZM297.984 192.266C300.031 192.268 302.075 192.13 304.103 191.855C305.969 191.62 307.787 191.096 309.492 190.302C311.032 189.576 312.366 188.477 313.373 187.104C314.359 185.462 314.881 183.583 314.881 181.667C314.881 179.752 314.359 177.873 313.373 176.231C312.366 174.858 311.032 173.759 309.492 173.033C307.787 172.239 305.969 171.715 304.103 171.48C300.058 170.932 295.957 170.932 291.911 171.48C290.03 171.713 288.197 172.237 286.477 173.033C284.937 173.759 283.602 174.858 282.595 176.231C281.609 177.873 281.088 179.752 281.088 181.667C281.088 183.583 281.609 185.462 282.595 187.104C283.602 188.477 284.937 189.576 286.477 190.302C288.197 191.098 290.03 191.622 291.911 191.855C293.924 192.127 295.953 192.265 297.984 192.266Z" fill="#D33A27"/>
<path d="M328.032 162.024H373.514V171.161H328.032V162.024ZM328.032 192.175H348.124V201.311H328.032V192.175ZM337.621 159.649C337.569 156.228 337.89 152.812 338.58 149.461C339.08 147.054 339.959 144.741 341.183 142.609C342.119 140.961 343.474 139.59 345.11 138.634C346.617 137.791 348.316 137.351 350.042 137.355C351.805 137.314 353.535 137.843 354.974 138.863C356.415 139.917 357.627 141.254 358.536 142.792C359.561 144.497 360.33 146.344 360.819 148.274C361.338 150.297 361.69 152.36 361.869 154.441H362.052C362.281 149.559 363.81 144.827 366.481 140.736C367.387 139.331 368.621 138.168 370.077 137.348C371.533 136.528 373.167 136.076 374.838 136.031C376.585 135.948 378.309 136.464 379.724 137.492C380.962 138.455 381.962 139.69 382.646 141.101C383.348 142.543 383.825 144.084 384.062 145.67C384.293 147.059 384.415 148.464 384.427 149.872C384.427 150.238 384.267 150.421 383.971 150.421C383.674 150.421 383.514 150.238 383.514 149.872C383.442 149.229 383.24 148.608 382.92 148.045C382.519 147.368 381.953 146.803 381.276 146.401C380.358 145.855 379.355 145.469 378.308 145.259C376.805 144.957 375.274 144.819 373.742 144.847C372.5 144.851 371.262 144.973 370.043 145.213C368.689 145.486 367.438 146.135 366.435 147.086C365.168 148.366 364.228 149.933 363.696 151.654C362.865 154.328 362.495 157.124 362.6 159.923V201.586H361.686V160.928C361.772 158.322 361.386 155.721 360.545 153.253C359.958 151.576 358.989 150.058 357.714 148.822C356.651 147.852 355.364 147.162 353.969 146.812C352.701 146.486 351.397 146.317 350.088 146.309C348.793 146.316 347.504 146.485 346.252 146.812C344.873 147.168 343.602 147.858 342.553 148.822C341.278 150.058 340.308 151.576 339.722 153.253C338.881 155.721 338.494 158.322 338.58 160.928V201.586H337.667L337.621 159.649ZM352.051 192.175H372.143V201.311H352.051V192.175Z" fill="#D33A27"/>
<path d="M207.523 228.401H198.847V224.747H206.793L211.839 241.832H211.679L216.862 224.747H224.785V228.401H219.51L213.62 247.908H213.3L207.523 228.401ZM198.847 243.819H210.72V247.451H198.756L198.847 243.819ZM203.003 224.747H206.656V247.451H203.003V224.747ZM216.177 243.819H224.807V247.451H216.177V243.819ZM220.332 224.747H220.652V247.451H220.332V224.747Z" fill="#D33A27"/>
<path d="M231.908 255.445C231.349 255.473 230.79 255.388 230.264 255.194C229.89 255.054 229.56 254.817 229.305 254.509C229.079 254.219 228.915 253.884 228.826 253.527C228.792 253.17 228.792 252.81 228.826 252.453V251.859C228.826 251.859 228.826 251.676 228.986 251.676C229.146 251.676 229.145 251.676 229.145 251.859V252.385C229.139 252.913 229.273 253.433 229.534 253.892C229.681 254.121 229.89 254.305 230.136 254.422C230.382 254.539 230.656 254.585 230.926 254.554C231.247 254.562 231.564 254.491 231.851 254.348C232.137 254.204 232.384 253.993 232.57 253.732C233.107 252.965 233.552 252.137 233.895 251.265L236.749 244.71V245.167L231.863 233.746H232.251L236.977 244.847H236.817L241.384 233.746H244.58L236.749 252.019C236.352 253.098 235.655 254.041 234.74 254.737C233.89 255.258 232.902 255.505 231.908 255.445ZM230.904 233.7H235.653V236.898H230.904V233.7ZM237.753 233.7H245.242V236.898H237.753V233.7Z" fill="#D33A27"/>
<path d="M259.307 239.091C260.241 239.116 261.175 239.039 262.092 238.863C262.686 238.711 262.983 238.391 262.983 237.904C262.983 237.401 262.618 237.059 261.864 236.853C260.899 236.626 259.909 236.527 258.919 236.556C257.938 236.56 256.96 236.651 255.996 236.83C255.094 236.987 254.208 237.224 253.348 237.538L255.951 240.302H253.165V234.569C253.9 234.246 254.665 233.993 255.448 233.815C256.3 233.608 257.174 233.509 258.051 233.518C258.826 233.502 259.598 233.618 260.334 233.861C260.94 234.035 261.501 234.339 261.978 234.751C262.413 235.098 262.758 235.545 262.983 236.053C263.212 236.555 263.329 237.101 263.325 237.652C263.335 238.095 263.239 238.533 263.044 238.931C262.849 239.328 262.562 239.673 262.207 239.936C261.205 240.629 259.995 240.952 258.782 240.85V240.142C260.084 240.035 261.388 240.322 262.526 240.964C262.882 241.196 263.174 241.515 263.374 241.891C263.574 242.266 263.675 242.686 263.668 243.111C263.66 243.687 263.56 244.258 263.371 244.802C263.168 245.363 262.84 245.87 262.412 246.286C261.959 246.766 261.394 247.127 260.768 247.337C260.035 247.595 259.263 247.727 258.485 247.725C257.699 247.787 256.908 247.687 256.162 247.432C255.416 247.177 254.73 246.771 254.147 246.241C253.656 245.711 253.275 245.089 253.028 244.41C252.781 243.732 252.672 243.011 252.708 242.289C252.708 242.152 252.708 242.084 252.891 242.084C252.908 242.074 252.928 242.068 252.948 242.068C252.968 242.068 252.988 242.074 253.005 242.084C253.015 242.129 253.015 242.175 253.005 242.221C252.999 242.422 253.037 242.622 253.116 242.808C253.195 242.993 253.313 243.159 253.462 243.294C253.812 243.6 254.225 243.826 254.672 243.957C255.223 244.126 255.788 244.24 256.361 244.299C257.001 244.299 257.64 244.299 258.279 244.299C259.544 244.332 260.808 244.217 262.047 243.957C262.983 243.728 263.439 243.34 263.439 242.769C263.439 242.198 263.142 241.969 262.526 241.832C261.52 241.688 260.505 241.627 259.489 241.65H257.64V239L259.307 239.091Z" fill="#D33A27"/>
<path d="M277.937 247.657C276.905 247.696 275.879 247.484 274.947 247.04C274.207 246.66 273.566 246.112 273.074 245.441C272.599 244.752 272.265 243.976 272.093 243.157C271.727 241.486 271.727 239.756 272.093 238.086C272.267 237.275 272.584 236.502 273.029 235.802C273.471 235.12 274.065 234.549 274.764 234.134C275.587 233.681 276.519 233.46 277.458 233.495C278.399 233.465 279.335 233.645 280.198 234.02C280.922 234.359 281.526 234.908 281.933 235.596C282.403 236.378 282.706 237.249 282.824 238.154C283.01 239.31 283.094 240.479 283.075 241.649H272.047V239H282.71C282.55 238.559 282.295 238.158 281.964 237.827C281.633 237.495 281.232 237.24 280.791 237.081C279.722 236.701 278.593 236.516 277.458 236.533C276.892 236.532 276.327 236.578 275.768 236.67C275.236 236.741 274.714 236.88 274.216 237.081C273.758 237.279 273.334 237.549 272.96 237.88C272.612 238.205 272.352 238.614 272.207 239.068V241.512C272.322 242.031 272.557 242.516 272.892 242.928C273.206 243.313 273.594 243.632 274.033 243.865C274.475 244.118 274.952 244.302 275.449 244.413C275.966 244.53 276.494 244.591 277.024 244.596C277.884 244.642 278.738 244.444 279.49 244.025C280.068 243.695 280.567 243.243 280.951 242.7L283.44 244.779C283.259 245.072 283.061 245.354 282.846 245.624C282.555 245.995 282.209 246.318 281.819 246.583C281.335 246.907 280.803 247.154 280.244 247.314C279.498 247.549 278.719 247.665 277.937 247.657V247.657Z" fill="#D33A27"/>
<path d="M298.464 236.898H291.615V233.7H298.464V236.898ZM295.108 247.451H291.592V244.253H295.199L295.108 247.451ZM299.126 232.079C298.521 232.125 297.914 232.027 297.354 231.792C296.795 231.558 296.299 231.194 295.907 230.731C295.153 229.599 294.791 228.251 294.879 226.894C294.879 226.779 294.88 226.711 294.994 226.711C295.108 226.711 295.131 226.711 295.131 226.894C295.099 227.314 295.185 227.736 295.379 228.111C295.572 228.486 295.866 228.8 296.227 229.018C297.09 229.475 298.059 229.695 299.035 229.657C300.007 229.697 300.97 229.467 301.821 228.995C302.174 228.776 302.46 228.464 302.649 228.094C302.839 227.723 302.923 227.308 302.894 226.894C302.894 226.757 302.939 226.688 303.031 226.688C303.031 226.688 303.031 226.688 303.031 226.894C303.121 228.245 302.777 229.589 302.049 230.731C301.705 231.173 301.261 231.527 300.752 231.761C300.243 231.996 299.686 232.105 299.126 232.079V232.079ZM295.268 247.451H294.948V233.746H295.268V247.451ZM303.145 236.875H302.985L296.638 247.451H295.199V244.299H295.359L301.706 233.7H303.236L303.145 236.875ZM306.661 247.451H299.811V244.253H306.661V247.451ZM303.305 247.451H302.985V233.746H303.305V247.451ZM306.661 236.898H303.145V233.7H306.615L306.661 236.898Z" fill="#D33A27"/>
<path d="M334.014 236.898H327.598V233.701H334.014V236.898ZM348.832 247.451H327.598V244.253H348.832V247.451ZM331.274 247.451H330.954V233.746H331.274V247.451ZM341.114 236.898H335.292V233.701H341.114V236.898ZM338.375 247.451H338.055V233.746H338.375V247.451ZM348.832 236.898H342.393V233.701H348.832V236.898ZM345.475 247.451H345.156V233.746H345.475V247.451Z" fill="#D33A27"/>
<path d="M356.321 233.701H359.837V236.898H356.321V233.701ZM356.321 251.974H363.353V255.172H356.321V251.974ZM359.677 233.701H359.997V239.182L359.882 239.434V241.901L359.997 242.152V255.263H359.677V233.701ZM365.591 247.657C364.853 247.661 364.122 247.513 363.444 247.223C362.838 246.936 362.289 246.541 361.823 246.058C361.348 245.564 360.962 244.993 360.682 244.367C360.384 243.712 360.169 243.021 360.042 242.312H359.791V238.863H360.042C360.172 238.147 360.387 237.449 360.682 236.784C360.968 236.162 361.353 235.591 361.823 235.094C362.277 234.597 362.829 234.2 363.444 233.929C364.124 233.646 364.855 233.506 365.591 233.518C366.419 233.513 367.238 233.693 367.988 234.043C368.699 234.396 369.329 234.894 369.837 235.505C370.369 236.187 370.772 236.962 371.025 237.789C371.573 239.653 371.573 241.635 371.025 243.499C370.769 244.326 370.367 245.1 369.837 245.784C369.323 246.388 368.695 246.885 367.988 247.246C367.229 247.557 366.41 247.697 365.591 247.657ZM365.591 244.299C366.191 244.329 366.794 244.329 367.394 244.299C368.025 244.226 368.642 244.057 369.221 243.796C369.774 243.55 370.254 243.165 370.614 242.677C370.987 242.086 371.185 241.401 371.185 240.701C371.185 240.002 370.987 239.317 370.614 238.726C370.254 238.238 369.774 237.852 369.221 237.606C368.645 237.336 368.027 237.166 367.394 237.104C366.795 237.035 366.193 236.997 365.591 236.99C364.988 236.996 364.386 237.034 363.787 237.104C363.153 237.16 362.534 237.33 361.96 237.606C361.396 237.845 360.907 238.232 360.545 238.726C360.186 239.322 359.997 240.005 359.997 240.701C359.997 241.398 360.186 242.08 360.545 242.677C360.907 243.171 361.396 243.558 361.96 243.796C362.538 244.063 363.155 244.232 363.787 244.299C364.388 244.331 364.99 244.331 365.591 244.299Z" fill="#D33A27"/>
<path d="M386.688 236.898H379.838V233.701H386.688V236.898ZM383.331 247.451H379.815V244.253H383.331V247.451ZM383.491 247.451H383.172V233.746H383.491V247.451ZM391.368 236.876H391.209L384.861 247.451H383.331V244.299H383.491L389.839 233.701H391.368V236.876ZM394.885 247.451H388.035V244.253H394.885V247.451ZM391.528 247.451H391.209V233.746H391.528V247.451ZM394.885 236.898H391.368V233.701H394.885V236.898Z" fill="#D33A27"/>
<path d="M413.104 238.863C413.104 238.292 413.333 237.766 413.47 237.264C413.586 236.779 413.763 236.311 413.995 235.87C414.357 235.197 414.864 234.612 415.479 234.157C416.152 233.705 416.952 233.481 417.762 233.518C418.482 233.507 419.191 233.688 419.817 234.043C420.417 234.409 420.925 234.91 421.301 235.505C421.744 236.203 422.054 236.978 422.214 237.789C422.422 238.719 422.521 239.669 422.511 240.621C422.521 241.566 422.422 242.509 422.214 243.431C422.042 244.235 421.741 245.006 421.324 245.715C420.935 246.314 420.421 246.82 419.817 247.2C419.158 247.579 418.407 247.768 417.648 247.748C416.832 247.781 416.028 247.54 415.365 247.063C414.746 246.602 414.258 245.988 413.949 245.281C413.741 244.843 413.581 244.383 413.47 243.911C413.333 243.408 413.218 242.906 413.104 242.403V255.354H412.785V242.403C412.785 242.906 412.579 243.408 412.465 243.865C412.352 244.33 412.192 244.781 411.985 245.213C411.649 245.922 411.158 246.546 410.547 247.04C409.881 247.513 409.081 247.761 408.264 247.748C407.537 247.759 406.82 247.577 406.186 247.223C405.58 246.865 405.064 246.373 404.679 245.784C404.231 245.085 403.914 244.311 403.743 243.499C403.515 242.573 403.408 241.621 403.423 240.667C403.407 239.698 403.515 238.731 403.743 237.789C403.921 236.976 404.246 236.202 404.702 235.505C405.09 234.905 405.614 234.404 406.232 234.043C406.89 233.686 407.629 233.505 408.378 233.518C409.189 233.471 409.992 233.696 410.661 234.157C411.25 234.608 411.72 235.196 412.031 235.87C412.263 236.311 412.439 236.779 412.556 237.264C412.67 237.766 412.785 238.292 412.899 238.863V224.747H413.218L413.104 238.863ZM403.56 240.644C403.534 241.279 403.676 241.909 403.971 242.472C404.238 242.917 404.605 243.292 405.044 243.568C405.5 243.821 405.993 243.998 406.506 244.093C407.602 244.276 408.72 244.276 409.816 244.093C410.34 244.027 410.844 243.856 411.3 243.591C411.749 243.327 412.12 242.949 412.373 242.494C412.669 241.916 412.81 241.271 412.785 240.621V240.484C412.813 239.847 412.688 239.213 412.419 238.634C412.168 238.186 411.806 237.808 411.369 237.538C410.915 237.286 410.42 237.116 409.908 237.035C409.349 236.943 408.784 236.898 408.218 236.898C407.659 236.907 407.102 236.961 406.551 237.058C406.022 237.156 405.518 237.358 405.067 237.652C404.61 237.923 404.233 238.309 403.971 238.771C403.673 239.349 403.531 239.995 403.56 240.644V240.644ZM412.944 227.944H409.36V224.747H412.876L412.944 227.944ZM416.461 255.354H409.36V252.156H416.392L416.461 255.354ZM422.329 240.667C422.352 240.033 422.21 239.403 421.917 238.84C421.674 238.386 421.321 238.001 420.89 237.721C420.448 237.447 419.961 237.253 419.452 237.149C418.909 237.051 418.359 236.998 417.808 236.99C417.242 236.989 416.676 237.035 416.118 237.127C415.591 237.207 415.081 237.377 414.611 237.629C414.167 237.898 413.798 238.275 413.538 238.726C413.224 239.29 413.074 239.931 413.104 240.576V240.713C413.075 241.365 413.225 242.013 413.538 242.586C413.783 243.039 414.146 243.418 414.588 243.682C415.053 243.947 415.565 244.118 416.095 244.185C416.638 244.276 417.188 244.322 417.739 244.322C418.29 244.323 418.84 244.278 419.383 244.185C419.904 244.082 420.405 243.897 420.867 243.637C421.305 243.357 421.666 242.972 421.917 242.517C422.229 241.92 422.371 241.248 422.329 240.576V240.667Z" fill="#D33A27"/>
<path d="M130.099 303.184H127.154L130.008 300.306H118.797V297.702H130.213L130.099 303.184ZM125.053 304.166C126.59 304.042 128.119 304.489 129.346 305.423C129.829 305.881 130.206 306.439 130.45 307.059C130.695 307.678 130.801 308.344 130.761 309.009C130.772 309.69 130.672 310.369 130.465 311.019C130.26 311.616 129.907 312.15 129.437 312.572C128.897 313.032 128.267 313.374 127.588 313.577C126.657 313.824 125.696 313.94 124.734 313.92H118.797V311.316H125.031C125.807 311.316 126.568 311.316 127.314 311.316C127.909 311.286 128.499 311.186 129.072 311.019C129.51 310.877 129.909 310.634 130.236 310.311C130.526 309.967 130.673 309.526 130.647 309.077C130.671 308.643 130.523 308.217 130.236 307.889C129.938 307.579 129.57 307.344 129.163 307.204C128.671 307.027 128.156 306.919 127.633 306.884C127.07 306.884 126.477 306.884 125.852 306.884C125.236 306.884 124.574 306.884 123.889 306.999C123.204 307.113 122.565 307.136 121.971 307.25V304.669C122.476 304.557 122.987 304.474 123.501 304.418C124.013 304.303 124.531 304.219 125.053 304.166V304.166ZM121.994 313.92H121.766V297.702H121.994V313.92Z" fill="#D33A27"/>
<path d="M141.63 306.381H136.721V304.097H141.63V306.381ZM139.346 313.919H136.835V311.635H139.346V313.919ZM139.346 313.919H139.118V304.097H139.346V313.919ZM144.986 306.358L140.42 313.919H139.324V311.635L143.89 304.074H144.986V306.358ZM147.498 313.919H142.589V311.635H147.498V313.919ZM145.214 313.919H144.986V304.097H145.214V313.919ZM147.498 306.381H144.986V304.097H147.498V306.381Z" fill="#D33A27"/>
<path d="M158.639 304.098C158.639 304.966 158.639 305.811 158.639 306.656C158.639 307.501 158.64 308.346 158.457 309.214C158.404 309.851 158.313 310.484 158.183 311.11C158.066 311.645 157.874 312.16 157.612 312.64C157.386 313.06 157.056 313.414 156.653 313.668C156.206 313.939 155.691 314.074 155.169 314.057C154.812 314.07 154.456 314.016 154.119 313.897C153.873 313.796 153.654 313.64 153.48 313.44C153.317 313.256 153.2 313.037 153.137 312.8C153.102 312.535 153.102 312.266 153.137 312.001V311.772V311.635C153.137 311.635 153.137 311.635 153.137 311.772V311.978C153.125 312.369 153.219 312.756 153.411 313.097C153.505 313.246 153.637 313.367 153.794 313.448C153.95 313.528 154.126 313.565 154.302 313.554C154.468 313.559 154.634 313.525 154.785 313.453C154.936 313.382 155.068 313.275 155.169 313.143C155.407 312.811 155.585 312.44 155.694 312.046C155.835 311.6 155.935 311.141 155.991 310.676C155.991 310.143 156.037 309.618 156.128 309.1C156.128 308.209 156.265 307.341 156.288 306.519C156.311 305.697 156.288 304.874 156.288 304.12L158.639 304.098ZM164.211 306.382H154.233V304.098H164.211V306.382ZM164.211 313.919H159.188V311.635H164.211V313.919ZM161.813 313.919H161.585V304.098H161.813V313.919Z" fill="#D33A27"/>
<path d="M174.554 314.057C173.822 314.085 173.093 313.936 172.43 313.623C171.895 313.357 171.433 312.965 171.083 312.481C170.74 312.005 170.507 311.459 170.398 310.882C170.262 310.275 170.193 309.654 170.193 309.032C170.194 308.432 170.262 307.834 170.398 307.25C170.505 306.663 170.73 306.103 171.061 305.606C171.364 305.112 171.789 304.703 172.294 304.418C172.882 304.101 173.543 303.944 174.211 303.961C174.887 303.944 175.557 304.076 176.175 304.349C176.69 304.588 177.121 304.978 177.408 305.469C177.74 306.029 177.957 306.65 178.047 307.296C178.173 308.12 178.234 308.952 178.23 309.786H170.353V307.89H177.956C177.853 307.571 177.674 307.283 177.436 307.048C177.197 306.813 176.906 306.64 176.586 306.542C175.856 306.269 175.082 306.13 174.303 306.131C173.9 306.096 173.495 306.096 173.093 306.131C172.715 306.189 172.346 306.296 171.997 306.451C171.669 306.578 171.368 306.764 171.106 306.999C170.852 307.228 170.663 307.519 170.558 307.844V309.603C170.655 309.969 170.826 310.311 171.061 310.608C171.291 310.884 171.57 311.116 171.882 311.293C172.2 311.463 172.538 311.594 172.887 311.681C173.256 311.754 173.63 311.793 174.006 311.796C174.623 311.823 175.237 311.689 175.787 311.407C176.191 311.161 176.541 310.835 176.814 310.448L178.595 311.933L178.161 312.549C177.95 312.804 177.705 313.027 177.431 313.212C177.082 313.439 176.706 313.624 176.312 313.76C175.745 313.951 175.152 314.051 174.554 314.057Z" fill="#D33A27"/>
<path d="M192.933 308.963H190.285L192.865 306.382H184.303L186.883 308.963H184.234V304.098H192.933V308.963ZM191.084 313.919H186.061V311.635H191.084V313.919ZM188.687 313.919H188.458V304.098H188.687V313.919Z" fill="#D33A27"/>
<path d="M212.661 306.382H207.797V304.098H212.661V306.382ZM212.661 313.919H207.797V311.635H212.661V313.919ZM210.377 313.919H210.149V304.098H210.377V313.919ZM216.085 309.968H210.263V308.004H216.085V309.968ZM218.597 306.382H213.757V304.098H218.597V306.382ZM218.597 313.919H213.757V311.635H218.597V313.919ZM216.314 313.919H216.085V304.098H216.314V313.919Z" fill="#D33A27"/>
<path d="M227.159 314.057C226.729 314.074 226.3 313.996 225.904 313.829C225.578 313.691 225.289 313.48 225.059 313.212C224.829 312.958 224.664 312.653 224.579 312.321C224.489 311.986 224.443 311.64 224.442 311.293C224.436 310.864 224.514 310.437 224.67 310.037C224.819 309.63 225.08 309.273 225.424 309.009C225.837 308.67 226.321 308.428 226.84 308.301C227.583 308.097 228.352 308.004 229.123 308.027H231.064V309.9H227.593C226.822 309.845 226.047 309.938 225.31 310.174C224.922 310.357 224.716 310.608 224.716 310.905C224.722 311.093 224.79 311.273 224.91 311.418C225.03 311.563 225.195 311.664 225.378 311.704C226.001 311.885 226.649 311.962 227.296 311.933C227.745 311.968 228.195 311.968 228.643 311.933C229.049 311.877 229.443 311.753 229.808 311.567C230.14 311.388 230.422 311.129 230.63 310.813C230.86 310.428 230.971 309.983 230.949 309.534V308.072C230.97 307.731 230.873 307.393 230.675 307.113C230.483 306.876 230.231 306.695 229.945 306.588C229.616 306.459 229.27 306.382 228.917 306.359H227.684C227.061 306.341 226.439 306.41 225.835 306.565C225.641 306.598 225.466 306.699 225.341 306.849C225.215 307 225.147 307.191 225.15 307.387C225.15 307.387 225.15 307.524 225.15 307.524C225.15 307.524 225.15 307.524 225.15 307.387C225.121 306.949 225.179 306.51 225.32 306.095C225.461 305.679 225.683 305.296 225.972 304.966C226.293 304.662 226.675 304.427 227.091 304.278C227.508 304.128 227.951 304.067 228.392 304.098C228.739 304.099 229.084 304.145 229.419 304.235C229.788 304.318 230.128 304.499 230.401 304.76C230.727 305.091 230.976 305.489 231.132 305.925C231.336 306.575 231.429 307.255 231.406 307.935V310.539C231.378 310.941 231.457 311.343 231.634 311.704C231.711 311.833 231.822 311.938 231.956 312.007C232.089 312.075 232.238 312.105 232.388 312.093C232.508 312.104 232.629 312.09 232.744 312.05C232.858 312.011 232.962 311.947 233.05 311.864C233.173 311.721 233.273 311.559 233.347 311.384L235.47 311.955C235.363 312.55 235.094 313.103 234.694 313.554C234.486 313.772 234.233 313.942 233.954 314.052C233.674 314.163 233.373 314.211 233.073 314.194C232.741 314.207 232.411 314.136 232.114 313.988C231.874 313.845 231.677 313.64 231.543 313.395C231.401 313.124 231.308 312.83 231.269 312.527C231.246 312.192 231.246 311.856 231.269 311.522V310.836C231.149 311.768 230.714 312.63 230.036 313.28C229.641 313.61 229.179 313.85 228.683 313.984C228.186 314.118 227.666 314.143 227.159 314.057V314.057Z" fill="#D33A27"/>
<path d="M256.841 297.702C256.89 297.98 256.884 298.264 256.821 298.539C256.758 298.813 256.641 299.073 256.476 299.301C256.27 299.554 256.002 299.751 255.699 299.872C255.274 300.024 254.84 300.146 254.398 300.238H253.941L253.393 300.375C252.986 300.481 252.609 300.681 252.292 300.959C251.975 301.236 251.726 301.584 251.567 301.973C251.108 303.051 250.808 304.19 250.676 305.354L249.58 305.605C249.983 305.065 250.507 304.627 251.11 304.326C251.705 304.025 252.362 303.869 253.028 303.869C253.657 303.833 254.285 303.962 254.849 304.242C255.414 304.523 255.895 304.945 256.247 305.468C256.574 305.964 256.813 306.513 256.955 307.09C257.229 308.262 257.229 309.481 256.955 310.653C256.809 311.229 256.57 311.777 256.247 312.275C255.897 312.769 255.446 313.182 254.923 313.486C254.293 313.826 253.583 313.991 252.868 313.965C252.062 314.001 251.264 313.785 250.585 313.349C249.998 312.923 249.527 312.358 249.215 311.704C248.884 310.982 248.676 310.21 248.598 309.42C248.488 308.579 248.435 307.732 248.439 306.884C248.31 305.29 248.677 303.694 249.489 302.316C250.198 301.273 251.289 300.551 252.526 300.306L253.142 300.146C253.371 300.113 253.59 300.032 253.786 299.911C253.983 299.789 254.152 299.628 254.284 299.438C254.48 299.033 254.575 298.586 254.558 298.136V298.068C254.569 297.954 254.569 297.839 254.558 297.725L256.841 297.702ZM252.845 311.681C253.355 311.716 253.866 311.716 254.375 311.681C254.837 311.621 255.284 311.481 255.699 311.27C256.071 311.072 256.391 310.791 256.635 310.448C256.859 310.034 256.977 309.571 256.977 309.1C256.977 308.629 256.859 308.166 256.635 307.752C256.415 307.411 256.107 307.136 255.745 306.953C255.356 306.738 254.93 306.599 254.489 306.542C253.998 306.469 253.502 306.431 253.005 306.428C252.462 306.426 251.92 306.472 251.384 306.565C250.91 306.641 250.453 306.803 250.037 307.044C249.653 307.246 249.331 307.545 249.101 307.912C248.87 308.307 248.749 308.757 248.749 309.214C248.749 309.672 248.87 310.121 249.101 310.516C249.328 310.86 249.643 311.136 250.014 311.316C250.433 311.511 250.88 311.642 251.338 311.704C251.839 311.761 252.342 311.784 252.845 311.773V311.681Z" fill="#D33A27"/>
<path d="M267.595 314.057C266.863 314.085 266.134 313.936 265.471 313.623C264.936 313.357 264.474 312.965 264.124 312.481C263.784 312.001 263.543 311.457 263.416 310.882C263.299 310.272 263.238 309.653 263.234 309.032C263.238 308.433 263.299 307.837 263.416 307.25C263.541 306.664 263.773 306.106 264.102 305.606C264.405 305.112 264.83 304.703 265.335 304.418C265.923 304.101 266.584 303.944 267.252 303.961C267.928 303.944 268.598 304.076 269.216 304.349C269.731 304.588 270.162 304.978 270.449 305.469C270.781 306.029 270.998 306.65 271.088 307.296C271.214 308.12 271.275 308.952 271.271 309.786H263.394V307.89H270.997C270.894 307.571 270.715 307.283 270.477 307.048C270.238 306.813 269.947 306.64 269.627 306.542C268.897 306.269 268.123 306.13 267.344 306.131C266.941 306.096 266.536 306.096 266.134 306.131C265.756 306.189 265.387 306.296 265.038 306.451C264.708 306.573 264.405 306.759 264.147 306.999C263.893 307.228 263.704 307.519 263.599 307.844V309.603C263.696 309.969 263.867 310.311 264.102 310.608C264.332 310.884 264.611 311.116 264.923 311.293C265.241 311.463 265.579 311.594 265.928 311.681C266.297 311.754 266.671 311.793 267.047 311.796C267.664 311.823 268.278 311.689 268.828 311.407C269.232 311.161 269.582 310.835 269.855 310.448L271.636 311.933L271.202 312.549C270.992 312.804 270.746 313.027 270.472 313.212C270.123 313.439 269.747 313.624 269.353 313.76C268.786 313.951 268.193 314.051 267.595 314.057V314.057Z" fill="#D33A27"/>
<path d="M281.865 314.056C281.123 314.081 280.386 313.924 279.719 313.6C279.179 313.311 278.711 312.905 278.349 312.412C278.001 311.924 277.753 311.373 277.618 310.79C277.484 310.213 277.415 309.623 277.413 309.031C277.411 308.404 277.503 307.781 277.687 307.181C277.842 306.597 278.105 306.047 278.463 305.559C278.817 305.073 279.278 304.674 279.81 304.394C280.418 304.088 281.093 303.939 281.774 303.96C282.373 303.939 282.969 304.064 283.509 304.326C283.955 304.548 284.345 304.868 284.651 305.262C284.946 305.648 285.156 306.092 285.267 306.564C285.382 307.02 285.444 307.488 285.45 307.958C285.45 307.958 285.45 308.095 285.45 308.095C285.45 308.095 285.45 308.095 285.45 307.958C285.459 307.808 285.438 307.657 285.387 307.516C285.336 307.374 285.256 307.245 285.153 307.135C284.925 306.918 284.652 306.754 284.354 306.656C284.009 306.529 283.647 306.452 283.281 306.427H282.07C281.498 306.428 280.926 306.466 280.358 306.542C279.894 306.592 279.445 306.731 279.034 306.953C278.685 307.148 278.394 307.432 278.189 307.775C277.964 308.179 277.853 308.637 277.869 309.1C277.861 309.517 277.947 309.931 278.121 310.31C278.284 310.646 278.527 310.936 278.828 311.156C279.149 311.374 279.504 311.536 279.879 311.635C280.306 311.731 280.742 311.777 281.18 311.772C281.831 311.798 282.48 311.672 283.075 311.407C283.575 311.136 284.005 310.753 284.331 310.288L286.272 311.772C286.148 312.009 286.011 312.237 285.861 312.457C285.629 312.75 285.36 313.011 285.062 313.234C284.681 313.501 284.266 313.717 283.829 313.874C283.19 314.051 282.525 314.113 281.865 314.056V314.056Z" fill="#D33A27"/>
<path d="M302.049 306.382H291.409V304.098H302.049V306.382ZM296.181 313.919H291.409V311.635H296.181V313.919ZM294.034 313.919H293.806V304.098H294.034V313.919ZM302.049 313.919H297.482V311.635H302.049V313.919ZM299.765 313.919H299.537V304.098H299.765V313.919Z" fill="#D33A27"/>
<path d="M313.282 304.098C313.282 304.966 313.282 305.811 313.168 306.656C313.054 307.501 313.168 308.346 312.985 309.214C312.803 310.082 312.826 310.516 312.711 311.11C312.595 311.645 312.403 312.16 312.141 312.64C311.908 313.055 311.579 313.407 311.182 313.668C310.735 313.939 310.219 314.074 309.697 314.057C309.34 314.072 308.984 314.018 308.647 313.897C308.402 313.796 308.183 313.64 308.008 313.44C307.846 313.256 307.728 313.037 307.665 312.8C307.63 312.535 307.63 312.266 307.665 312.001V311.772V311.635C307.665 311.635 307.665 311.635 307.665 311.772V311.978C307.653 312.369 307.748 312.756 307.939 313.097C308.033 313.246 308.165 313.367 308.322 313.448C308.479 313.528 308.654 313.565 308.83 313.554C308.996 313.556 309.161 313.52 309.311 313.449C309.461 313.377 309.594 313.273 309.697 313.143C309.935 312.811 310.113 312.44 310.223 312.046C310.353 311.597 310.452 311.139 310.519 310.676C310.519 310.143 310.565 309.618 310.657 309.1C310.657 308.209 310.793 307.341 310.816 306.519C310.839 305.697 310.816 304.874 310.816 304.12L313.282 304.098ZM318.853 306.382H308.898V304.098H318.876L318.853 306.382ZM318.853 313.919H313.83V311.635H318.853V313.919ZM316.57 313.919H316.342V304.098H316.57V313.919Z" fill="#D33A27"/>
<path d="M327.37 314.057C326.939 314.076 326.51 313.998 326.114 313.829C325.788 313.691 325.499 313.48 325.269 313.212C325.039 312.958 324.874 312.653 324.79 312.321C324.699 311.986 324.653 311.64 324.653 311.293C324.647 310.864 324.724 310.437 324.881 310.037C325.03 309.63 325.291 309.273 325.634 309.009C326.048 308.67 326.531 308.428 327.05 308.301C327.793 308.097 328.563 308.004 329.333 308.027H331.274V309.9H327.804C327.032 309.845 326.257 309.938 325.52 310.174C325.132 310.357 324.927 310.608 324.927 310.905C324.935 311.089 325.001 311.265 325.116 311.409C325.231 311.553 325.389 311.656 325.566 311.704C326.197 311.884 326.852 311.961 327.507 311.933C327.947 311.967 328.39 311.967 328.831 311.933C329.243 311.874 329.644 311.75 330.018 311.567C330.386 311.377 330.69 311.083 330.893 310.721C331.096 310.36 331.188 309.948 331.16 309.534V308.072C331.18 307.731 331.083 307.393 330.886 307.113C330.693 306.876 330.441 306.695 330.155 306.588C329.819 306.459 329.464 306.382 329.105 306.359H327.895C327.272 306.341 326.649 306.41 326.045 306.565C325.852 306.598 325.677 306.699 325.551 306.849C325.425 307 325.358 307.191 325.36 307.387C325.36 307.387 325.36 307.524 325.36 307.524C325.36 307.524 325.246 307.524 325.246 307.387C325.217 306.949 325.275 306.51 325.416 306.095C325.557 305.679 325.779 305.296 326.068 304.966C326.39 304.662 326.771 304.427 327.187 304.278C327.604 304.128 328.047 304.067 328.488 304.098C328.835 304.099 329.181 304.145 329.516 304.235C329.882 304.327 330.219 304.507 330.498 304.76C330.823 305.087 331.065 305.486 331.206 305.925C331.43 306.571 331.531 307.253 331.502 307.935V310.539C331.482 310.938 331.552 311.336 331.708 311.704C331.79 311.833 331.905 311.937 332.042 312.006C332.179 312.074 332.332 312.104 332.484 312.093C332.604 312.104 332.726 312.09 332.84 312.05C332.954 312.011 333.059 311.947 333.146 311.864C333.269 311.721 333.369 311.559 333.443 311.384L335.567 311.955C335.459 312.55 335.191 313.103 334.79 313.554C334.582 313.772 334.33 313.942 334.05 314.052C333.77 314.163 333.469 314.211 333.169 314.194C332.837 314.207 332.507 314.136 332.21 313.988C331.97 313.845 331.773 313.64 331.639 313.395C331.497 313.124 331.404 312.83 331.365 312.527C331.342 312.192 331.342 311.856 331.365 311.522V310.836C331.245 311.768 330.81 312.63 330.132 313.28C329.751 313.594 329.308 313.826 328.833 313.959C328.357 314.093 327.859 314.126 327.37 314.057V314.057Z" fill="#D33A27"/>
<path d="M347.713 308.963H345.064L347.644 306.382H339.082L341.662 308.963H339.014V304.098H347.713V308.963ZM345.863 313.919H340.863V311.635H345.886L345.863 313.919ZM343.58 313.919H343.352V304.098H343.58V313.919Z" fill="#D33A27"/>
<path d="M358.376 306.382H353.513V304.098H358.376V306.382ZM358.376 313.919H353.513V311.635H358.376V313.919ZM356.093 313.919H355.864V304.098H356.093V313.919ZM361.801 309.968H355.978V308.004H361.801V309.968ZM364.312 306.382H359.472V304.098H364.312V306.382ZM364.312 313.919H359.472V311.635H364.312V313.919ZM362.029 313.919H361.801V304.098H362.029V313.919Z" fill="#D33A27"/>
<path d="M374.723 314.057C373.997 314.074 373.277 313.917 372.623 313.6C372.089 313.303 371.628 312.889 371.276 312.389C370.931 311.891 370.684 311.334 370.545 310.744C370.241 309.607 370.241 308.41 370.545 307.273C370.68 306.689 370.928 306.138 371.276 305.651C371.615 305.14 372.079 304.724 372.623 304.44C373.269 304.1 373.993 303.935 374.723 303.961C375.46 303.935 376.192 304.101 376.847 304.44C377.397 304.723 377.868 305.139 378.217 305.651C378.556 306.143 378.803 306.693 378.947 307.273C379.222 308.414 379.222 309.603 378.947 310.744C378.799 311.33 378.552 311.886 378.217 312.389C377.855 312.889 377.388 313.303 376.847 313.6C376.186 313.921 375.457 314.077 374.723 314.057ZM374.723 311.658C375.233 311.693 375.744 311.693 376.253 311.658C376.719 311.599 377.174 311.468 377.6 311.27C377.984 311.082 378.32 310.808 378.582 310.47C378.837 310.06 378.964 309.583 378.947 309.1C378.969 308.624 378.841 308.152 378.582 307.752C378.326 307.408 377.989 307.134 377.6 306.953C377.177 306.746 376.721 306.614 376.253 306.565C375.247 306.412 374.223 306.412 373.217 306.565C372.74 306.611 372.276 306.743 371.846 306.953C371.465 307.134 371.135 307.409 370.888 307.752C370.62 308.15 370.484 308.621 370.499 309.1C370.479 309.586 370.615 310.067 370.888 310.47C371.141 310.808 371.469 311.081 371.846 311.27C372.28 311.47 372.742 311.601 373.217 311.658C373.716 311.73 374.219 311.769 374.723 311.772V311.658Z" fill="#D33A27"/>
<path d="M389.564 314.057C388.832 314.085 388.104 313.936 387.441 313.623C386.906 313.357 386.444 312.965 386.094 312.481C385.753 312.001 385.512 311.457 385.386 310.882C385.269 310.272 385.208 309.653 385.204 309.032C385.208 308.433 385.269 307.837 385.386 307.25C385.513 306.669 385.737 306.112 386.048 305.606C386.367 305.115 386.797 304.708 387.304 304.418C387.893 304.101 388.554 303.944 389.222 303.961C389.897 303.944 390.568 304.076 391.186 304.349C391.701 304.588 392.131 304.978 392.418 305.469C392.751 306.029 392.968 306.65 393.058 307.296C393.184 308.12 393.245 308.952 393.24 309.786H385.363V307.89H392.966C392.863 307.571 392.685 307.283 392.447 307.048C392.208 306.813 391.916 306.64 391.596 306.542C390.866 306.269 390.093 306.13 389.313 306.131C388.911 306.096 388.506 306.096 388.103 306.131C387.725 306.189 387.357 306.296 387.007 306.451C386.677 306.573 386.375 306.759 386.117 306.999C385.863 307.228 385.674 307.519 385.569 307.844V309.603C385.666 309.969 385.837 310.311 386.071 310.608C386.302 310.884 386.58 311.116 386.893 311.293C387.211 311.463 387.548 311.594 387.898 311.681C388.266 311.754 388.641 311.793 389.016 311.796C389.634 311.823 390.247 311.689 390.797 311.407C391.202 311.161 391.551 310.835 391.825 310.448L393.606 311.933L393.172 312.549C392.961 312.804 392.715 313.027 392.441 313.212C392.092 313.439 391.716 313.624 391.322 313.76C390.756 313.951 390.162 314.051 389.564 314.057V314.057Z" fill="#D33A27"/>
<path d="M95.7372 275.362C95.7417 274.322 95.4375 273.304 94.8633 272.437C94.289 271.571 93.4704 270.894 92.5112 270.492C91.552 270.091 90.4955 269.984 89.4753 270.184C88.4551 270.384 87.5173 270.883 86.7806 271.617C86.0439 272.35 85.5415 273.286 85.337 274.306C85.1325 275.326 85.2351 276.383 85.6319 277.345C86.0287 278.306 86.7018 279.128 87.5659 279.706C88.4299 280.284 89.4462 280.593 90.4858 280.593C91.8746 280.593 93.2068 280.043 94.191 279.062C95.1752 278.082 95.7311 276.752 95.7372 275.362Z" fill="#D33A27"/>
<path d="M129.78 275.362C129.784 274.322 129.48 273.304 128.906 272.437C128.331 271.571 127.513 270.894 126.554 270.492C125.594 270.091 124.538 269.984 123.518 270.184C122.498 270.384 121.56 270.883 120.823 271.617C120.086 272.35 119.584 273.286 119.379 274.306C119.175 275.326 119.278 276.383 119.674 277.345C120.071 278.306 120.744 279.128 121.608 279.706C122.472 280.284 123.489 280.593 124.528 280.593C125.917 280.593 127.249 280.043 128.233 279.062C129.218 278.082 129.774 276.752 129.78 275.362V275.362Z" fill="#D33A27"/>
<path d="M163.8 275.362C163.804 274.321 163.499 273.302 162.924 272.435C162.349 271.568 161.529 270.891 160.569 270.49C159.608 270.09 158.55 269.984 157.529 270.186C156.509 270.388 155.571 270.889 154.835 271.625C154.099 272.361 153.599 273.299 153.397 274.32C153.195 275.341 153.301 276.4 153.701 277.36C154.101 278.321 154.778 279.142 155.645 279.717C156.512 280.293 157.531 280.598 158.571 280.593C159.956 280.587 161.282 280.034 162.262 279.054C163.241 278.075 163.794 276.748 163.8 275.362Z" fill="#D33A27"/>
<path d="M197.843 275.362C197.847 274.322 197.543 273.304 196.969 272.437C196.395 271.571 195.576 270.894 194.617 270.492C193.658 270.091 192.601 269.984 191.581 270.184C190.561 270.384 189.623 270.883 188.886 271.617C188.149 272.35 187.647 273.286 187.442 274.306C187.238 275.326 187.341 276.383 187.737 277.345C188.134 278.306 188.807 279.128 189.671 279.706C190.535 280.284 191.552 280.593 192.591 280.593C193.98 280.593 195.312 280.043 196.297 279.062C197.281 278.082 197.837 276.752 197.843 275.362V275.362Z" fill="#D33A27"/>
<path d="M231.863 275.362C231.867 274.321 231.562 273.302 230.987 272.435C230.412 271.568 229.592 270.891 228.632 270.49C227.671 270.09 226.613 269.984 225.592 270.186C224.572 270.388 223.634 270.889 222.898 271.625C222.162 272.361 221.662 273.299 221.46 274.32C221.258 275.341 221.364 276.4 221.764 277.36C222.164 278.321 222.841 279.142 223.708 279.717C224.575 280.293 225.593 280.598 226.634 280.593C228.021 280.593 229.351 280.042 230.331 279.061C231.312 278.08 231.863 276.75 231.863 275.362V275.362Z" fill="#D33A27"/>
<path d="M265.905 275.362C265.91 274.322 265.605 273.304 265.031 272.437C264.457 271.571 263.638 270.894 262.679 270.492C261.72 270.091 260.663 269.984 259.643 270.184C258.623 270.384 257.685 270.883 256.948 271.617C256.212 272.35 255.709 273.286 255.505 274.306C255.3 275.326 255.403 276.383 255.8 277.345C256.197 278.306 256.87 279.128 257.734 279.706C258.598 280.284 259.614 280.593 260.654 280.593C262.042 280.593 263.375 280.043 264.359 279.062C265.343 278.082 265.899 276.752 265.905 275.362Z" fill="#D33A27"/>
<path d="M299.925 275.362C299.93 274.321 299.625 273.302 299.05 272.435C298.474 271.568 297.654 270.891 296.694 270.49C295.734 270.09 294.676 269.984 293.655 270.186C292.634 270.388 291.696 270.889 290.961 271.625C290.225 272.361 289.724 273.299 289.522 274.32C289.32 275.341 289.426 276.4 289.827 277.36C290.227 278.321 290.903 279.142 291.771 279.717C292.638 280.293 293.656 280.598 294.697 280.593C296.083 280.593 297.413 280.042 298.394 279.061C299.374 278.08 299.925 276.75 299.925 275.362V275.362Z" fill="#D33A27"/>
<path d="M334.014 275.362C334.018 274.322 333.714 273.304 333.14 272.437C332.565 271.571 331.747 270.894 330.788 270.492C329.829 270.091 328.772 269.984 327.752 270.184C326.732 270.384 325.794 270.883 325.057 271.617C324.32 272.35 323.818 273.286 323.613 274.306C323.409 275.326 323.511 276.383 323.908 277.345C324.305 278.306 324.978 279.128 325.842 279.706C326.706 280.284 327.722 280.593 328.762 280.593C330.151 280.593 331.483 280.043 332.468 279.062C333.452 278.082 334.008 276.752 334.014 275.362Z" fill="#D33A27"/>
<path d="M368.011 275.362C368.016 274.322 367.711 273.304 367.137 272.437C366.563 271.571 365.744 270.894 364.785 270.492C363.826 270.091 362.769 269.984 361.749 270.184C360.729 270.384 359.791 270.883 359.054 271.617C358.318 272.35 357.815 273.286 357.611 274.306C357.406 275.326 357.509 276.383 357.906 277.345C358.303 278.306 358.976 279.128 359.84 279.706C360.704 280.284 361.72 280.593 362.76 280.593C364.148 280.593 365.481 280.043 366.465 279.062C367.449 278.082 368.005 276.752 368.011 275.362Z" fill="#D33A27"/>
<path d="M402.031 275.362C402.036 274.321 401.731 273.302 401.155 272.435C400.58 271.568 399.76 270.891 398.8 270.49C397.839 270.09 396.781 269.984 395.761 270.186C394.74 270.388 393.802 270.889 393.066 271.625C392.33 272.361 391.83 273.299 391.628 274.32C391.426 275.341 391.532 276.4 391.932 277.36C392.333 278.321 393.009 279.142 393.876 279.717C394.743 280.293 395.762 280.598 396.802 280.593C398.187 280.587 399.514 280.034 400.493 279.054C401.472 278.075 402.025 276.748 402.031 275.362Z" fill="#D33A27"/>
</svg>
