<svg width="750" height="354" viewBox="0 0 750 354" fill="none" xmlns="http://www.w3.org/2000/svg">
<path d="M748.07 346.792C744.988 346.792 742.032 345.567 739.852 343.387C737.673 341.207 736.448 338.249 736.448 335.166C736.448 332.082 737.673 329.125 739.852 326.945C742.032 324.764 744.988 323.54 748.07 323.54H748.458V319.2H748.07C746.502 319.269 744.936 319.02 743.467 318.468C741.998 317.916 740.656 317.071 739.522 315.986C738.387 314.901 737.485 313.597 736.868 312.153C736.252 310.709 735.934 309.155 735.934 307.585C735.934 306.015 736.252 304.461 736.868 303.017C737.485 301.573 738.387 300.269 739.522 299.184C740.656 298.098 741.998 297.254 743.467 296.701C744.936 296.149 746.502 295.9 748.07 295.97H748.458V291.402H748.07C744.988 291.402 742.032 290.177 739.852 287.996C737.673 285.816 736.448 282.859 736.448 279.775C736.448 276.692 737.673 273.735 739.852 271.554C742.032 269.374 744.988 268.149 748.07 268.149H748.458V263.581H748.07C744.988 263.581 742.032 262.356 739.852 260.175C737.673 257.995 736.448 255.038 736.448 251.954C736.448 248.871 737.673 245.914 739.852 243.733C742.032 241.553 744.988 240.328 748.07 240.328H748.458V234.549C737.514 229.42 728.258 221.278 721.773 211.075C715.289 200.873 711.845 189.033 711.845 176.943C711.845 164.853 715.289 153.013 721.773 142.81C728.258 132.608 737.514 124.465 748.458 119.337V114.152H748.07C744.988 114.152 742.032 112.927 739.852 110.746C737.673 108.566 736.448 105.609 736.448 102.525C736.448 99.4419 737.673 96.4847 739.852 94.3043C742.032 92.124 744.988 90.8991 748.07 90.8991H748.458V86.5363H748.07C744.988 86.5363 742.032 85.3114 739.852 83.1311C737.673 80.9507 736.448 77.9935 736.448 74.91C736.448 71.8265 737.673 68.8693 739.852 66.689C742.032 64.5086 744.988 63.2837 748.07 63.2837H748.458V58.7154H748.07C744.988 58.7154 742.032 57.4905 739.852 55.3102C737.673 53.1298 736.448 50.1726 736.448 47.0891C736.448 44.0056 737.673 41.0484 739.852 38.8681C742.032 36.6877 744.988 35.4628 748.07 35.4628H748.458V30.8945H748.07C744.988 30.8945 742.032 29.6696 739.852 27.4892C737.673 25.3089 736.448 22.3517 736.448 19.2682C736.448 16.1847 737.673 13.2275 739.852 11.0471C742.032 8.86677 744.988 7.64185 748.07 7.64185H748.458V2H2.16504V8.19006C5.15518 8.32274 7.97889 9.60445 10.0479 11.7681C12.1169 13.9318 13.2716 16.8107 13.2716 19.805C13.2716 22.7993 12.1169 25.6781 10.0479 27.8418C7.97889 30.0055 5.15518 31.2871 2.16504 31.4198V35.9881C5.15518 36.1208 7.97889 37.4025 10.0479 39.5662C12.1169 41.7299 13.2716 44.6087 13.2716 47.603C13.2716 50.5973 12.1169 53.4762 10.0479 55.6399C7.97889 57.8036 5.15518 59.0852 2.16504 59.2179V63.7862C5.24122 63.7862 8.19141 65.0087 10.3666 67.1848C12.5418 69.3609 13.7638 72.3123 13.7638 75.3897C13.7638 78.4671 12.5418 81.4185 10.3666 83.5946C8.19141 85.7707 5.24122 86.9932 2.16504 86.9932V91.3102C5.15518 91.4429 7.97889 92.7246 10.0479 94.8883C12.1169 97.052 13.2716 99.9308 13.2716 102.925C13.2716 105.919 12.1169 108.798 10.0479 110.962C7.97889 113.126 5.15518 114.407 2.16504 114.54V119.634C13.1268 124.758 22.4002 132.904 28.8971 143.116C35.3941 153.327 38.845 165.181 38.845 177.286C38.845 189.39 35.3941 201.244 28.8971 211.455C22.4002 221.667 13.1268 229.813 2.16504 234.937V240.648C5.15518 240.78 7.97889 242.062 10.0479 244.226C12.1169 246.39 13.2716 249.268 13.2716 252.263C13.2716 255.257 12.1169 258.136 10.0479 260.3C7.97889 262.463 5.15518 263.745 2.16504 263.878V268.446C5.24122 268.446 8.19141 269.668 10.3666 271.844C12.5418 274.021 13.7638 276.972 13.7638 280.049C13.7638 283.127 12.5418 286.078 10.3666 288.254C8.19141 290.43 5.24122 291.653 2.16504 291.653V296.221C5.15518 296.354 7.97889 297.635 10.0479 299.799C12.1169 301.963 13.2716 304.842 13.2716 307.836C13.2716 310.83 12.1169 313.709 10.0479 315.873C7.97889 318.037 5.15518 319.318 2.16504 319.451V323.745C5.15518 323.878 7.97889 325.159 10.0479 327.323C12.1169 329.487 13.2716 332.366 13.2716 335.36C13.2716 338.354 12.1169 341.233 10.0479 343.397C7.97889 345.56 5.15518 346.842 2.16504 346.975V352H748.458V346.952L748.07 346.792Z" stroke="#D33A27" stroke-width="3"/>
<path d="M684.687 25.1157H66.8937C61.3832 25.1157 56.916 29.5847 56.916 35.0974V319.2C56.916 324.712 61.3832 329.181 66.8937 329.181H684.687C690.198 329.181 694.665 324.712 694.665 319.2V35.0974C694.665 29.5847 690.198 25.1157 684.687 25.1157Z" stroke="#1C1C1C" stroke-width="1.5" stroke-miterlimit="10"/>
<path d="M605.391 25.1157V329.159" stroke="#1C1C1C" stroke-width="1.5" stroke-miterlimit="10"/>
<path d="M56.916 116.664H605.391" stroke="#1C1C1C" stroke-width="1.5" stroke-miterlimit="10"/>
<path d="M667.426 270.867C667.487 272.708 666.951 274.519 665.896 276.029C664.828 277.503 663.418 278.694 661.787 279.501C659.879 280.453 657.839 281.115 655.736 281.465C653.341 281.906 650.91 282.12 648.475 282.105C646.033 282.118 643.595 281.904 641.192 281.465C639.097 281.112 637.065 280.45 635.164 279.501C633.529 278.691 632.112 277.5 631.032 276.029C629.996 274.511 629.468 272.704 629.525 270.867C629.471 269.016 629.998 267.195 631.032 265.659C632.109 264.179 633.527 262.981 635.164 262.164C637.062 261.213 639.095 260.558 641.192 260.223C643.597 259.803 646.034 259.596 648.475 259.606C650.909 259.595 653.339 259.802 655.736 260.223C657.841 260.554 659.882 261.209 661.787 262.164C663.424 262.972 664.836 264.172 665.896 265.659C666.947 267.188 667.483 269.012 667.426 270.867V270.867ZM661.764 270.867C661.878 269.332 661.622 267.793 661.018 266.378C660.414 264.963 659.48 263.714 658.293 262.735C655.312 261 651.925 260.086 648.475 260.086C645.026 260.086 641.639 261 638.658 262.735C637.561 263.784 636.689 265.045 636.093 266.44C635.497 267.836 635.19 269.338 635.19 270.855C635.19 272.373 635.497 273.875 636.093 275.27C636.689 276.666 637.561 277.926 638.658 278.975C641.639 280.711 645.026 281.625 648.475 281.625C651.925 281.625 655.312 280.711 658.293 278.975C659.479 278.001 660.414 276.756 661.018 275.345C661.622 273.934 661.878 272.398 661.764 270.867V270.867Z" fill="#1C1C1C"/>
<path d="M630.872 248.391V246.381C630.898 245.738 630.805 245.095 630.598 244.485C630.444 244.075 630.174 243.718 629.822 243.457V241.036H636.444V248.391H630.872ZM630.347 241.539V241.013H667.199V241.539H630.347ZM661.491 248.208V234.321H667.199V248.231L661.491 248.208Z" fill="#1C1C1C"/>
<path d="M663.499 224.796L653.521 216.345C651.718 214.883 650.051 213.467 648.475 212.142C646.9 210.817 645.393 209.629 643.909 208.624C642.637 207.691 641.285 206.873 639.868 206.18C638.705 205.596 637.424 205.283 636.123 205.266C635.285 205.242 634.453 205.413 633.692 205.766C632.931 206.119 632.263 206.644 631.739 207.299C631.204 207.976 630.808 208.753 630.575 209.584C630.315 210.482 630.184 211.412 630.187 212.347C630.156 213.389 630.35 214.426 630.758 215.385C631.109 216.182 631.631 216.892 632.287 217.464C632.953 218.025 633.732 218.438 634.57 218.674C635.384 218.927 636.23 219.058 637.082 219.063C638.116 219.087 639.143 218.893 640.096 218.492C640.842 218.178 641.523 217.729 642.105 217.167L645.576 221.484C644.682 222.492 643.605 223.322 642.402 223.928C641.192 224.541 639.854 224.854 638.498 224.842C637.118 224.875 635.757 224.518 634.57 223.814C633.478 223.135 632.55 222.223 631.854 221.141C631.113 220.006 630.566 218.755 630.233 217.441C629.887 216.082 629.71 214.686 629.707 213.284C629.577 210.876 630.314 208.501 631.785 206.591C632.594 205.737 633.584 205.074 634.682 204.651C635.78 204.228 636.959 204.056 638.132 204.147C639.581 204.168 641.022 204.359 642.425 204.718C644.218 205.163 645.967 205.767 647.653 206.523C649.703 207.418 651.68 208.472 653.567 209.675C655.791 211.064 657.925 212.589 659.96 214.243L666.809 219.816L666.581 220.182V202.48L659.184 209.835V202.343H667.198V220.456L663.499 224.796Z" fill="#1C1C1C"/>
<path d="M667.426 180.209C667.557 181.758 667.378 183.317 666.9 184.795C666.422 186.274 665.653 187.642 664.641 188.82C663.654 189.766 662.485 190.5 661.205 190.98C659.926 191.459 658.562 191.672 657.197 191.607V185.394C659.776 185.624 662.357 184.98 664.526 183.567C665.257 182.973 665.843 182.219 666.238 181.364C666.634 180.509 666.829 179.575 666.809 178.633C666.826 177.429 666.577 176.235 666.079 175.138C665.622 174.15 664.96 173.271 664.138 172.557C663.319 171.871 662.383 171.337 661.375 170.981C660.318 170.58 659.196 170.371 658.065 170.365C656.797 170.331 655.543 170.638 654.435 171.255C653.411 171.864 652.55 172.71 651.923 173.722C651.21 174.889 650.707 176.173 650.439 177.514C650.126 179.101 649.973 180.716 649.982 182.334V184.618H644.366V182.334C644.513 179.569 643.988 176.81 642.836 174.293C642.312 173.357 641.53 172.591 640.582 172.089C639.634 171.586 638.562 171.368 637.493 171.461C636.521 171.455 635.556 171.617 634.639 171.941C633.784 172.23 633.004 172.706 632.356 173.334C631.68 173.975 631.15 174.754 630.803 175.618C630.404 176.549 630.201 177.552 630.21 178.565C630.163 179.428 630.299 180.292 630.61 181.099C630.921 181.906 631.399 182.638 632.013 183.247C633.257 184.383 634.897 184.982 636.58 184.915C637.508 184.941 638.433 184.778 639.297 184.435C639.946 184.154 640.553 183.785 641.1 183.339L643.863 188.181C643.106 188.931 642.205 189.522 641.215 189.917C640.173 190.315 639.064 190.509 637.95 190.488C636.635 190.53 635.332 190.239 634.16 189.643C633.125 189.096 632.233 188.314 631.557 187.359C630.853 186.355 630.335 185.233 630.027 184.047C629.705 182.754 629.544 181.427 629.547 180.095C629.514 178.831 629.668 177.568 630.004 176.349C630.272 175.403 630.722 174.519 631.328 173.745C632.048 172.804 633.011 172.077 634.114 171.644C635.26 171.182 636.486 170.949 637.721 170.958C639.002 170.961 640.274 171.169 641.489 171.575C642.709 171.992 643.84 172.635 644.822 173.471C645.787 174.358 646.563 175.43 647.105 176.623C647.727 177.992 648.039 179.482 648.019 180.986H646.124C646.089 179.28 646.432 177.587 647.128 176.029C647.733 174.677 648.63 173.476 649.754 172.512C650.832 171.568 652.09 170.853 653.453 170.41C654.795 169.939 656.208 169.7 657.631 169.702C659.248 169.698 660.848 170.025 662.334 170.662C663.825 171.33 665.075 172.437 665.919 173.836C666.427 174.643 666.791 175.532 666.992 176.463C667.284 177.69 667.43 178.948 667.426 180.209V180.209Z" fill="#1C1C1C"/>
<path d="M631.237 142.544L654.207 153.051V136.673H659.823V155.518L657.54 160.771L629.913 148.163V141.904H667.198V142.452L631.237 142.544Z" fill="#1C1C1C"/>
<path d="M647.38 124.681L629.822 121.483V106.248L625.256 110.657V106.088H630.233V116.595L630.073 115.796L646.832 118.902L648.522 121.369L647.38 124.681ZM667.427 116.07C667.46 117.789 667.213 119.501 666.696 121.141C666.27 122.451 665.56 123.652 664.619 124.658C663.721 125.581 662.618 126.277 661.399 126.691C660.048 127.155 658.626 127.379 657.198 127.354V121.209C658.683 121.244 660.166 121.075 661.605 120.707C662.668 120.439 663.668 119.966 664.55 119.313C665.279 118.766 665.847 118.032 666.194 117.189C666.541 116.334 666.712 115.417 666.696 114.494C666.712 113.387 666.494 112.29 666.057 111.273C665.645 110.296 665.012 109.428 664.207 108.738C663.311 107.975 662.271 107.4 661.148 107.048C659.794 106.635 658.385 106.435 656.97 106.454C654.691 106.335 652.446 107.04 650.645 108.441C649.804 109.311 649.164 110.355 648.77 111.5C648.375 112.644 648.236 113.861 648.362 115.065C648.317 116.441 648.534 117.813 649.001 119.108C649.302 119.977 649.709 120.805 650.212 121.575L647.426 124.681L644.96 121.895C644.453 121.112 644.111 120.233 643.955 119.313C643.825 118.559 643.756 117.795 643.75 117.029C643.666 115.045 644.132 113.077 645.097 111.342C645.938 109.949 647.096 108.775 648.476 107.916C649.781 107.099 651.231 106.541 652.746 106.271C654.085 106.009 655.445 105.863 656.81 105.837C658.604 105.816 660.385 106.133 662.061 106.773C663.568 107.327 664.873 108.322 665.806 109.629C666.989 111.519 667.555 113.73 667.427 115.956V116.07Z" fill="#1C1C1C"/>
<path d="M667.426 82.425C667.484 84.3641 666.994 86.2802 666.011 87.9526C665.038 89.4867 663.696 90.7513 662.107 91.6301C660.276 92.6266 658.293 93.3135 656.239 93.663C653.852 94.1062 651.428 94.3203 649.001 94.3025C646.419 94.324 643.841 94.0868 641.306 93.5944C639.141 93.1744 637.058 92.4028 635.142 91.3103C633.468 90.4034 632.047 89.0921 631.009 87.4958C629.981 85.8143 629.466 83.8696 629.525 81.8996C629.444 80.5615 629.652 79.2216 630.137 77.9718C630.622 76.722 631.371 75.5918 632.333 74.6589C634.606 72.8301 637.483 71.9248 640.393 72.1235V78.2221C639.678 78.2207 638.965 78.3051 638.27 78.4734C637.537 78.6484 636.846 78.9667 636.238 79.4099C635.602 79.9231 635.087 80.5705 634.731 81.3057C634.304 82.3002 634.102 83.3763 634.137 84.4579C634.145 85.5316 634.33 86.5966 634.685 87.61C635.103 88.7781 635.838 89.8064 636.808 90.5794C638.159 91.6434 639.713 92.4206 641.375 92.8635C643.829 93.5283 646.368 93.8285 648.91 93.7544C650.234 93.7544 651.581 93.7543 652.928 93.5944C654.064 93.5279 655.194 93.3752 656.307 93.1376V92.9777C654.809 92.9975 653.323 92.7018 651.946 92.1098C650.706 91.5812 649.587 90.8038 648.658 89.8256C647.759 88.8573 647.067 87.7145 646.626 86.4679C646.148 85.1821 645.908 83.8197 645.919 82.4478C645.871 80.8092 646.207 79.1821 646.9 77.6968C647.521 76.4514 648.4 75.3533 649.48 74.4761C650.519 73.6411 651.704 73.006 652.974 72.6031C655.415 71.8107 658.044 71.8107 660.486 72.6031C661.756 73.006 662.94 73.6411 663.979 74.4761C665.052 75.3596 665.931 76.4562 666.559 77.6968C667.209 79.1846 667.506 80.803 667.426 82.425ZM661.855 82.5392C661.894 80.8209 661.733 79.1039 661.376 77.4227C661.138 76.3263 660.705 75.2818 660.097 74.3391C659.705 73.6919 659.123 73.1814 658.431 72.8772C657.851 72.6377 657.231 72.5136 656.604 72.5118C655.985 72.5136 655.371 72.6378 654.8 72.8772C654.104 73.186 653.516 73.6949 653.111 74.3391C652.521 75.2886 652.096 76.3312 651.855 77.4227C651.488 79.1027 651.32 80.8199 651.353 82.5392C651.319 84.2736 651.488 86.006 651.855 87.7013C652.096 88.7858 652.52 89.821 653.111 90.7621C653.53 91.3885 654.115 91.8865 654.8 92.2011C655.371 92.4406 655.985 92.5648 656.604 92.5666C657.231 92.5648 657.851 92.4407 658.431 92.2011C659.113 91.8913 659.691 91.3918 660.097 90.7621C660.707 89.8284 661.14 88.7911 661.376 87.7013C661.734 86.0048 661.895 84.2726 661.855 82.5392Z" fill="#1C1C1C"/>
<path d="M84.3143 88.4997C82.2588 88.5603 80.2177 88.1378 78.355 87.2663C76.7959 86.4993 75.4419 85.3718 74.4051 83.9771C73.3507 82.552 72.5759 80.9399 72.1219 79.2261C71.2094 75.5821 71.2094 71.7692 72.1219 68.1251C72.5712 66.4166 73.3465 64.811 74.4051 63.3969C75.4411 61.9957 76.7949 60.8606 78.355 60.0849C80.2121 59.1947 82.256 58.7638 84.3143 58.8286C84.908 58.8286 85.5701 58.8286 86.3007 58.8286C87.0313 58.8286 87.7392 59.0114 88.4698 59.1484C89.1795 59.283 89.8808 59.4584 90.5703 59.6738C91.181 59.8738 91.764 60.1501 92.3056 60.4961V71.2772H86.7801L92.1 65.8866C91.01 65.1543 89.795 64.6279 88.5154 64.3334C86.7232 63.8915 84.8813 63.6842 83.0357 63.7167C81.2435 63.667 79.4549 63.906 77.7386 64.4248C76.4464 64.8236 75.2656 65.5199 74.291 66.4577C73.4288 67.3384 72.7872 68.4107 72.4187 69.587C71.6583 72.1898 71.6583 74.9559 72.4187 77.5586C72.7824 78.7304 73.4249 79.7964 74.291 80.6651C75.2656 81.6029 76.4464 82.2992 77.7386 82.698C79.4494 83.2452 81.2402 83.5 83.0357 83.4517C84.8813 83.4843 86.7232 83.277 88.5154 82.835C89.8033 82.5299 91.0204 81.9793 92.1 81.2133L86.7801 75.8455H92.3056V86.6496C91.758 86.9785 91.1761 87.2465 90.5703 87.449C89.8844 87.6826 89.1824 87.8659 88.4698 87.9972C87.7392 88.1343 87.0313 88.2485 86.3007 88.317C85.5701 88.3855 84.9765 88.4997 84.3143 88.4997Z" fill="#1C1C1C"/>
<path d="M111.919 88.5006C110.607 88.5439 109.305 88.2613 108.129 87.6783C107.149 87.1161 106.313 86.3342 105.686 85.3941C105.069 84.5034 104.627 83.5034 104.384 82.4476C104.123 81.4328 103.993 80.3889 103.996 79.3411C103.993 78.2858 104.123 77.2343 104.384 76.2118C104.627 75.156 105.069 74.156 105.686 73.2653C106.318 72.3596 107.155 71.616 108.129 71.0953C109.315 70.5389 110.609 70.2505 111.919 70.2505C113.229 70.2505 114.523 70.5389 115.709 71.0953C116.702 71.5967 117.551 72.3436 118.175 73.2653C118.808 74.1496 119.258 75.1513 119.499 76.2118C119.76 77.2343 119.891 78.2858 119.887 79.3411C119.891 80.3889 119.76 81.4328 119.499 82.4476C119.258 83.5081 118.808 84.5098 118.175 85.3941C117.555 86.3485 116.708 87.1335 115.709 87.6783C114.534 88.2632 113.231 88.5458 111.919 88.5006V88.5006ZM111.919 84.1835C112.843 84.1917 113.767 84.1306 114.682 84.0008C115.52 83.9035 116.337 83.6722 117.102 83.3155C117.791 82.9885 118.388 82.4937 118.837 81.8765C119.323 81.1572 119.564 80.2998 119.522 79.4325C119.567 78.5648 119.326 77.7063 118.837 76.9884C118.388 76.3713 117.791 75.8765 117.102 75.5494C116.338 75.1849 115.521 74.9458 114.682 74.8413C112.855 74.5978 111.005 74.5978 109.179 74.8413C108.331 74.9426 107.506 75.1818 106.736 75.5494C106.047 75.8765 105.45 76.3713 105.001 76.9884C104.512 77.7063 104.271 78.5648 104.316 79.4325C104.274 80.2998 104.515 81.1572 105.001 81.8765C105.45 82.4937 106.047 82.9885 106.736 83.3155C107.508 83.6753 108.333 83.9067 109.179 84.0008C110.086 84.1299 111.002 84.191 111.919 84.1835V84.1835Z" fill="#1C1C1C"/>
<path d="M129.934 88.2721V84.1606H134.158V88.2721H129.934ZM141.601 70.5928H146.168L134.614 88.2721H130.048L141.601 70.5928ZM130.368 74.7042V70.5928H137.605V74.7042H130.368ZM131.783 70.5928H132.263L138.884 78.6786L138.679 79.1812L131.783 70.5928ZM139.386 79.5009L139.546 79.0213L146.807 88.2721H146.327L139.386 79.5009ZM139.706 88.2721V84.1606H147.263V88.2721H139.706ZM141.989 70.5928H146.396V74.7271H141.989V70.5928Z" fill="#1C1C1C"/>
<path d="M156.236 70.5926H160.803V74.7041H156.236V70.5926ZM156.236 94.1878H165.369V98.2993H156.236V94.1878ZM160.529 70.5926H160.963V77.6049L160.826 77.9476V81.0997L160.963 81.4423V98.2993H160.529V70.5926ZM168.132 88.5003C167.198 88.5157 166.271 88.3286 165.415 87.9521C164.624 87.5999 163.911 87.0954 163.315 86.4674C162.696 85.7986 162.201 85.0252 161.853 84.1833C161.463 83.3403 161.187 82.4493 161.031 81.5337H160.712V77.0796H161.031C161.19 76.1647 161.467 75.2742 161.853 74.43C162.216 73.5956 162.709 72.8245 163.315 72.1458C163.905 71.5112 164.62 71.0057 165.415 70.6612C166.275 70.3029 167.2 70.1241 168.132 70.1358C169.207 70.1173 170.27 70.3521 171.237 70.821C172.117 71.274 172.895 71.9038 173.52 72.6712C174.208 73.525 174.727 74.5016 175.05 75.5492C175.41 76.7415 175.587 77.9814 175.575 79.2267C175.582 80.4642 175.405 81.6958 175.05 82.8813C174.727 83.9289 174.208 84.9056 173.52 85.7594C172.896 86.5336 172.119 87.1711 171.237 87.6324C170.286 88.1647 169.221 88.4623 168.132 88.5003V88.5003ZM168.132 84.1833C168.895 84.1789 169.657 84.1331 170.415 84.0463C171.206 83.9585 171.977 83.7424 172.699 83.4067C173.416 83.0948 174.038 82.5983 174.502 81.9677C175.019 81.2265 175.276 80.335 175.233 79.4323C175.276 78.5225 175.019 77.6237 174.502 76.874C174.038 76.2434 173.416 75.7469 172.699 75.435C171.974 75.1088 171.204 74.8932 170.415 74.7955C168.898 74.6182 167.366 74.6182 165.849 74.7955C165.06 74.8932 164.29 75.1088 163.566 75.435C162.848 75.7469 162.225 76.2434 161.762 76.874C161.251 77.6258 161.002 78.5249 161.054 79.4323C161.002 80.3325 161.251 81.2244 161.762 81.9677C162.225 82.5983 162.848 83.0948 163.566 83.4067C164.287 83.7424 165.058 83.9585 165.849 84.0463C166.607 84.1333 167.369 84.179 168.132 84.1833V84.1833Z" fill="#1C1C1C"/>
<path d="M191.146 88.5006C190.365 88.526 189.587 88.3859 188.863 88.0894C188.278 87.843 187.755 87.4683 187.333 86.993C186.942 86.5257 186.654 85.9808 186.489 85.3941C186.327 84.7906 186.242 84.1689 186.237 83.544C186.234 82.7658 186.365 81.993 186.626 81.2598C186.906 80.5238 187.379 79.8767 187.996 79.3868C188.748 78.7852 189.62 78.3494 190.553 78.1077C191.87 77.7573 193.231 77.5958 194.594 77.628H198.087V81.0086H191.831C190.474 80.9233 189.112 81.0858 187.813 81.4882C187.082 81.8308 186.74 82.2648 186.74 82.813C186.747 83.1454 186.866 83.4657 187.077 83.7225C187.289 83.9792 187.58 84.1577 187.904 84.2292C189.028 84.5699 190.202 84.7167 191.375 84.6632C192.184 84.6676 192.993 84.6142 193.795 84.5033C194.52 84.4006 195.222 84.1766 195.873 83.8409C196.547 83.5121 197.106 82.9872 197.477 82.3351C197.847 81.6829 198.012 80.9339 197.95 80.1863V77.5595C197.989 76.9435 197.82 76.3324 197.471 75.8235C197.12 75.3995 196.663 75.0763 196.146 74.887C195.55 74.6466 194.917 74.5077 194.274 74.4759C193.589 74.4759 192.836 74.4759 191.991 74.4759C190.868 74.4396 189.746 74.5627 188.658 74.8413C188.309 74.9012 187.993 75.0837 187.767 75.3559C187.541 75.6281 187.42 75.9722 187.425 76.3261C187.425 76.486 187.425 76.5773 187.219 76.5773C187.014 76.5773 187.014 76.5773 187.014 76.3261C186.913 74.7259 187.446 73.1504 188.498 71.9405C189.079 71.3977 189.767 70.9814 190.518 70.718C191.268 70.4546 192.066 70.3498 192.859 70.4101C193.482 70.4099 194.104 70.4866 194.708 70.6385C195.364 70.7922 195.964 71.1242 196.443 71.5979C197.046 72.1829 197.5 72.9033 197.768 73.6993C198.147 74.8632 198.317 76.085 198.27 77.3082V81.9907C198.235 82.7044 198.368 83.4164 198.658 84.0693C198.797 84.3113 199.001 84.5087 199.248 84.6382C199.494 84.7677 199.773 84.8239 200.051 84.8002C200.267 84.8197 200.484 84.7931 200.689 84.7222C200.893 84.6514 201.081 84.5378 201.238 84.3891C201.467 84.136 201.645 83.8413 201.763 83.5211L205.599 84.549C205.406 85.6154 204.916 86.6054 204.183 87.4042C203.813 87.797 203.363 88.1047 202.862 88.3058C202.361 88.507 201.823 88.5968 201.284 88.5691C200.68 88.6064 200.079 88.4718 199.549 88.1808C199.12 87.9271 198.765 87.5647 198.521 87.1301C198.266 86.645 198.096 86.1196 198.019 85.5769C197.983 84.9759 197.983 84.3733 198.019 83.7724V82.5389C197.776 84.2172 196.971 85.7633 195.736 86.9245C194.472 88.0328 192.824 88.599 191.146 88.5006V88.5006Z" fill="#1C1C1C"/>
<path d="M221.444 74.7042H212.699V70.5928H221.444V74.7042ZM221.444 88.2721H212.699V84.1606H221.444V88.2721ZM217.426 88.2721H217.015V70.5928H217.426V88.2721ZM227.7 81.1455H217.22V77.6051H227.7V81.1455ZM232.267 74.7042H223.545V70.5928H232.267V74.7042ZM232.267 88.2721H223.545V84.1606H232.267V88.2721ZM227.951 88.2721H227.54V70.5928H227.951V88.2721Z" fill="#1C1C1C"/>
<path d="M251.651 74.7042H242.815V70.5927H251.651V74.7042ZM247.336 88.272H242.77V84.1605H247.336V88.272ZM247.541 88.272H247.085V70.5927H247.496L247.541 88.272ZM257.702 74.5671H257.496L249.3 88.272H247.336V84.1834H247.541L255.715 70.4785H257.702V74.5671ZM262.268 88.272H253.432V84.1605H262.268V88.272ZM257.953 88.272H257.542V70.5927H257.953V88.272ZM262.268 74.7042H257.702V70.5927H262.268V74.7042Z" fill="#1C1C1C"/>
<path d="M288.343 79.341H283.617L288.183 74.7727H272.771L277.338 79.341H272.589V70.5928H288.229L288.343 79.341ZM285.032 88.2721H275.899V84.1606H285.032V88.2721ZM280.717 88.2721H280.306V70.5928H280.717V88.2721Z" fill="#1C1C1C"/>
<path d="M306.837 88.4999C305.514 88.5528 304.199 88.2865 303.001 87.7233C302.089 87.2272 301.306 86.5229 300.718 85.6675C300.094 84.8027 299.666 83.813 299.462 82.7666C299.005 80.613 299.005 78.3876 299.462 76.234C299.686 75.1909 300.087 74.1942 300.649 73.2874C301.254 72.3396 302.098 71.5681 303.096 71.0508C304.095 70.5335 305.211 70.2886 306.334 70.3409C307.551 70.2975 308.761 70.5318 309.873 71.0261C310.821 71.4478 311.618 72.1491 312.157 73.0362C312.749 74.0492 313.144 75.1653 313.321 76.3254C313.548 77.8372 313.655 79.3648 313.641 80.8936H299.462V77.4674H313.161C312.966 76.8974 312.642 76.3802 312.215 75.9562C311.787 75.5322 311.267 75.2129 310.695 75.0234C309.319 74.5299 307.865 74.29 306.403 74.3153C305.639 74.3048 304.875 74.3583 304.12 74.4752C303.439 74.5824 302.773 74.7663 302.133 75.0234C301.548 75.2658 301.007 75.6056 300.535 76.0284C300.083 76.4463 299.744 76.9732 299.553 77.5588V80.7337C299.712 81.394 300.016 82.0104 300.444 82.5382C300.86 83.0202 301.354 83.4293 301.905 83.7488C302.478 84.0687 303.093 84.307 303.732 84.4569C304.393 84.5942 305.066 84.6631 305.741 84.6625C306.851 84.7224 307.956 84.4776 308.937 83.9544C309.668 83.5128 310.305 82.9305 310.81 82.2413L314.006 84.9137C313.823 85.2107 313.549 85.5762 313.23 86.0102C312.854 86.4807 312.408 86.8893 311.905 87.2207C311.284 87.6478 310.598 87.9717 309.873 88.1801C308.887 88.459 307.86 88.5672 306.837 88.4999V88.4999Z" fill="#1C1C1C"/>
<path d="M355.174 79.2953C355.176 80.4246 355.054 81.5507 354.808 82.653C354.582 83.7097 354.164 84.716 353.575 85.6223C352.991 86.4872 352.208 87.1998 351.292 87.7009C350.203 88.2745 348.983 88.5503 347.753 88.5004C346.798 88.5732 345.839 88.4351 344.943 88.0956C344.047 87.7561 343.237 87.2237 342.57 86.536C341.367 85.1184 340.74 83.3006 340.812 81.4424C340.812 81.2825 340.812 81.1911 341.018 81.1911C341.223 81.1911 341.223 81.1911 341.223 81.4424C341.212 81.7253 341.263 82.0071 341.374 82.2678C341.484 82.5284 341.651 82.7613 341.862 82.9499C342.338 83.3462 342.89 83.6415 343.483 83.8179C344.178 84.0499 344.899 84.1956 345.63 84.2519C346.383 84.2519 347.137 84.2519 347.913 84.2519C348.818 84.257 349.721 84.1651 350.607 83.9777C351.404 83.8273 352.174 83.5579 352.89 83.1783C353.483 82.8419 353.997 82.3824 354.397 81.8307C354.796 81.2738 355.033 80.6178 355.082 79.9348V78.61C355.018 77.9054 354.775 77.2291 354.374 76.6456C353.975 76.0871 353.461 75.6199 352.867 75.2751C352.156 74.8887 351.384 74.6261 350.584 74.4985C349.696 74.3304 348.794 74.2463 347.89 74.2473C345.808 74.2436 343.745 74.6471 341.817 75.435L345.15 78.9755H341.566V71.689C343.372 70.7827 345.368 70.3207 347.388 70.3414C348.606 70.3027 349.817 70.545 350.927 71.0495C351.88 71.5 352.716 72.1644 353.37 72.991C354.045 73.8225 354.535 74.788 354.808 75.8233C355.095 76.9573 355.218 78.1264 355.174 79.2953V79.2953ZM354.922 81.0997H347V77.5821H354.922V81.0997Z" fill="#1C1C1C"/>
<path d="M381.475 79.341H376.704L381.27 74.7727H365.858L370.425 79.341H365.812V70.5928H381.475V79.341ZM378.142 88.2721H369.009V84.1606H378.142V88.2721ZM373.827 88.2721H373.416V70.5928H373.827V88.2721Z" fill="#1C1C1C"/>
<path d="M400.061 88.5006C398.749 88.5439 397.447 88.2613 396.271 87.6783C395.291 87.1161 394.455 86.3342 393.828 85.3941C393.211 84.5034 392.769 83.5034 392.526 82.4476C392.258 81.4337 392.12 80.3898 392.115 79.3411C392.12 78.2849 392.258 77.2335 392.526 76.2118C392.769 75.156 393.211 74.156 393.828 73.2653C394.46 72.3596 395.297 71.616 396.271 71.0953C397.457 70.5389 398.751 70.2505 400.061 70.2505C401.371 70.2505 402.665 70.5389 403.851 71.0953C404.837 71.6079 405.683 72.3526 406.317 73.2653C406.941 74.1548 407.39 75.1547 407.641 76.2118C407.89 77.2365 408.021 78.2865 408.029 79.3411C408.021 80.3882 407.891 81.4307 407.641 82.4476C407.39 83.5047 406.941 84.5046 406.317 85.3941C405.687 86.3402 404.842 87.1231 403.851 87.6783C402.675 88.2613 401.373 88.5439 400.061 88.5006V88.5006ZM400.061 84.1835C400.977 84.1924 401.893 84.1313 402.801 84.0008C403.646 83.9036 404.471 83.6723 405.244 83.3155C405.933 82.9885 406.53 82.4937 406.979 81.8765C407.465 81.1572 407.705 80.2998 407.664 79.4325C407.709 78.5648 407.468 77.7063 406.979 76.9884C406.53 76.3713 405.933 75.8765 405.244 75.5494C404.472 75.1848 403.647 74.9458 402.801 74.8413C401.892 74.7221 400.977 74.6611 400.061 74.6586C399.145 74.6626 398.23 74.7236 397.321 74.8413C396.474 74.9426 395.648 75.1818 394.878 75.5494C394.188 75.8765 393.592 76.3713 393.143 76.9884C392.653 77.7063 392.413 78.5648 392.458 79.4325C392.416 80.2998 392.656 81.1572 393.143 81.8765C393.592 82.4937 394.188 82.9885 394.878 83.3155C395.65 83.6753 396.475 83.9067 397.321 84.0008C398.229 84.1299 399.144 84.191 400.061 84.1835Z" fill="#1C1C1C"/>
<path d="M434.31 79.341H429.538L434.104 74.7727H418.693L423.259 79.341H418.51V70.5928H434.31V79.341ZM430.976 88.2721H421.843V84.1606H430.976V88.2721ZM426.661 88.2721H426.25V70.5928H426.661V88.2721Z" fill="#1C1C1C"/>
<path d="M476.618 59.0806C476.706 59.5802 476.692 60.0924 476.578 60.5867C476.465 61.0811 476.253 61.5476 475.956 61.9586C475.577 62.4143 475.091 62.7677 474.54 62.9865C473.796 63.2566 473.033 63.4704 472.257 63.626L471.435 63.8088L470.453 64.0372C469.719 64.2336 469.039 64.595 468.466 65.0937C467.892 65.5924 467.44 66.2153 467.143 66.9152C466.334 68.8639 465.803 70.917 465.567 73.0139L463.604 73.4707C464.318 72.4978 465.258 71.7138 466.344 71.1866C467.415 70.6565 468.596 70.3828 469.791 70.3871C470.995 70.3442 472.191 70.6117 473.262 71.1637C474.178 71.6641 474.961 72.3768 475.545 73.2423C476.153 74.1268 476.587 75.119 476.823 76.166C477.089 77.2343 477.219 78.3316 477.212 79.4323C477.212 80.495 477.082 81.5537 476.823 82.5845C476.583 83.6301 476.149 84.6216 475.545 85.5082C474.886 86.4955 473.982 87.2946 472.921 87.8272C471.86 88.3597 470.68 88.6074 469.494 88.5461C468.004 88.6249 466.527 88.2334 465.27 87.4269C464.21 86.6689 463.367 85.6448 462.827 84.4575C462.238 83.1632 461.86 81.7828 461.709 80.3688C461.525 78.853 461.433 77.3275 461.435 75.8005C461.245 72.9865 461.896 70.1797 463.307 67.7375C464.604 65.8773 466.566 64.5856 468.786 64.1285L469.905 63.8544C470.312 63.7881 470.702 63.6407 471.051 63.421C471.4 63.2012 471.701 62.9137 471.937 62.5753C472.291 61.8671 472.463 61.0823 472.44 60.2912V59.7886C472.451 59.5908 472.451 59.3926 472.44 59.1948L476.618 59.0806ZM469.426 84.2062C470.343 84.2076 471.259 84.1389 472.166 84.0006C472.959 83.8725 473.729 83.6261 474.449 83.2697C475.13 82.9284 475.712 82.4171 476.138 81.785C476.582 81.0573 476.804 80.2159 476.778 79.3638C476.815 78.5136 476.601 77.6713 476.161 76.9426C475.763 76.326 475.213 75.8225 474.563 75.4808C473.845 75.1186 473.075 74.8719 472.28 74.7498C470.435 74.446 468.553 74.446 466.709 74.7498C465.852 74.8882 465.025 75.1741 464.266 75.5949C463.586 75.969 463.006 76.5019 462.576 77.1482C462.127 77.8738 461.905 78.7167 461.937 79.5694C461.904 80.3759 462.119 81.173 462.553 81.8535C462.964 82.4705 463.531 82.9672 464.197 83.2925C464.916 83.6429 465.687 83.8743 466.48 83.9778C467.454 84.1425 468.439 84.2265 469.426 84.229V84.2062Z" fill="#1C1C1C"/>
<path d="M496.802 74.7042H487.966V70.5927H496.802V74.7042ZM492.486 88.272H487.92V84.1605H492.486V88.272ZM492.692 88.272H492.281V70.5927H492.692V88.272ZM502.829 74.5671H502.624L494.45 88.272H492.486V84.1834H492.692L500.866 70.4785H502.829V74.5671ZM507.396 88.272H498.537V84.1605H507.373L507.396 88.272ZM503.058 88.272H502.647V70.5927H503.058V88.272ZM507.396 74.7042H502.829V70.5927H507.396V74.7042Z" fill="#1C1C1C"/>
<path d="M527.42 70.5928L527.214 75.1611C527.214 76.6686 527.009 78.199 526.872 79.7294C526.783 80.8665 526.615 81.9961 526.369 83.1099C526.175 84.0764 525.836 85.0081 525.365 85.8737C524.942 86.626 524.347 87.2677 523.63 87.7467C522.824 88.2294 521.896 88.4675 520.958 88.432C520.313 88.454 519.67 88.3532 519.063 88.135C518.623 87.9529 518.227 87.6806 517.899 87.3355C517.623 86.989 517.413 86.5939 517.282 86.1706C517.163 85.7003 517.101 85.217 517.1 84.7316V84.2977C517.1 84.1149 517.1 84.0464 517.305 84.0464C517.511 84.0464 517.465 84.0464 517.465 84.2977V84.6631C517.438 85.3673 517.612 86.0647 517.967 86.6732C518.131 86.9449 518.368 87.1657 518.65 87.3109C518.932 87.4561 519.249 87.52 519.565 87.4955C519.863 87.5008 520.158 87.4377 520.427 87.311C520.696 87.1842 520.933 86.9973 521.118 86.7645C521.554 86.1649 521.879 85.4918 522.077 84.7773C522.308 83.9616 522.476 83.1292 522.579 82.2876C522.718 81.3563 522.81 80.4186 522.853 79.4781C522.99 77.864 523.082 76.3412 523.127 74.9098C523.127 73.4023 523.127 71.9861 523.264 70.6156L527.42 70.5928ZM537.443 74.7042H519.474V70.5928H537.443V74.7042ZM537.443 88.2721H528.31V84.1606H537.443V88.2721ZM533.128 88.2721H532.717V70.5928H533.128V88.2721Z" fill="#1C1C1C"/>
<path d="M556.05 88.4999C554.728 88.5528 553.412 88.2865 552.214 87.7233C551.261 87.2422 550.438 86.5368 549.817 85.6675C549.194 84.8027 548.765 83.813 548.561 82.7666C548.105 80.613 548.105 78.3876 548.561 76.234C548.785 75.1909 549.187 74.1942 549.749 73.2874C550.354 72.3396 551.198 71.5681 552.196 71.0508C553.194 70.5335 554.311 70.2886 555.434 70.3409C556.65 70.2975 557.86 70.5318 558.973 71.0261C559.921 71.4478 560.717 72.1491 561.256 73.0362C561.848 74.0492 562.243 75.1653 562.42 76.3254C562.648 77.8372 562.755 79.3648 562.74 80.8936H548.47V77.4674H562.169C561.974 76.8974 561.65 76.3802 561.223 75.9562C560.795 75.5322 560.275 75.2129 559.703 75.0234C558.327 74.5299 556.873 74.29 555.411 74.3153C554.647 74.3048 553.883 74.3583 553.128 74.4752C552.447 74.5824 551.781 74.7663 551.141 75.0234C550.556 75.2658 550.015 75.6056 549.543 76.0284C549.09 76.4463 548.753 76.9732 548.561 77.5588V80.7337C548.72 81.394 549.025 82.0104 549.452 82.5382C549.868 83.0202 550.362 83.4293 550.913 83.7488C551.486 84.0687 552.101 84.307 552.739 84.4569C553.4 84.5942 554.074 84.6631 554.749 84.6625C555.859 84.7224 556.964 84.4776 557.945 83.9544C558.676 83.5128 559.313 82.9305 559.817 82.2413L563.014 84.9137C562.831 85.2107 562.557 85.5762 562.238 86.0102C561.863 86.4807 561.416 86.8893 560.913 87.2207C560.292 87.6478 559.606 87.9717 558.881 88.1801C557.961 88.4365 557.005 88.5444 556.05 88.4999V88.4999Z" fill="#1C1C1C"/>
<path d="M589.135 79.341H584.386L588.952 74.7727H573.586L578.152 79.341H573.586V70.5928H589.226L589.135 79.341ZM585.824 88.2721H576.691V84.1606H585.824V88.2721ZM581.509 88.2721H581.098V70.5928H581.509V88.2721Z" fill="#1C1C1C"/>
<path d="M94.612 136.65H119.225V147.066H94.5664L94.612 136.65ZM94.612 191.105H119.225V201.52H94.5664L94.612 191.105ZM106.485 136.65H107.398V201.52H106.485V136.65ZM119.727 173.197H106.85V162.781H115.983L136.806 136.559H150.14L120.458 173.105V172.649L148.77 201.52H147.491L119.727 173.197ZM125.847 191.013H151.327V201.429H125.847V191.013ZM128.678 136.559H150.962V146.975H128.678V136.559Z" fill="#1C1C1C"/>
<path d="M173.246 202.068C171.511 202.123 169.784 201.812 168.177 201.154C166.883 200.591 165.729 199.748 164.798 198.687C163.91 197.658 163.27 196.439 162.926 195.124C162.562 193.784 162.377 192.401 162.378 191.012C162.373 189.3 162.666 187.599 163.246 185.987C163.855 184.354 164.897 182.917 166.259 181.83C167.953 180.512 169.894 179.549 171.967 178.998C174.886 178.227 177.9 177.873 180.918 177.947H188.681V185.439H174.799C171.773 185.244 168.738 185.616 165.849 186.536C164.273 187.266 163.565 188.249 163.565 189.459C163.588 190.199 163.856 190.91 164.327 191.481C164.798 192.052 165.446 192.449 166.168 192.611C168.67 193.356 171.277 193.68 173.885 193.571C175.673 193.577 177.458 193.455 179.228 193.205C180.823 192.982 182.367 192.488 183.795 191.743C185.139 191.032 186.285 189.995 187.128 188.728C188.048 187.186 188.493 185.406 188.407 183.612V177.764C188.491 176.397 188.104 175.043 187.311 173.927C186.541 172.978 185.532 172.253 184.388 171.826C183.057 171.312 181.656 171.004 180.233 170.912C178.68 170.798 177.059 170.729 175.347 170.729C172.854 170.656 170.364 170.933 167.949 171.552C167.175 171.682 166.473 172.086 165.971 172.689C165.468 173.292 165.198 174.056 165.209 174.841C165.209 175.206 165.049 175.389 164.752 175.389C164.456 175.389 164.296 175.206 164.296 174.841C164.067 171.29 165.249 167.794 167.584 165.11C168.874 163.902 170.4 162.974 172.066 162.384C173.732 161.794 175.502 161.556 177.265 161.684C178.65 161.685 180.03 161.854 181.374 162.186C182.831 162.558 184.167 163.297 185.256 164.334C186.568 165.612 187.568 167.175 188.178 168.902C189.025 171.495 189.411 174.216 189.32 176.942V187.358C189.246 188.928 189.543 190.493 190.187 191.926C190.487 192.462 190.936 192.898 191.479 193.182C192.022 193.466 192.637 193.585 193.247 193.525C193.728 193.571 194.214 193.513 194.671 193.356C195.127 193.198 195.545 192.944 195.896 192.611C196.405 192.05 196.808 191.4 197.083 190.693L205.576 192.977C205.152 195.341 204.077 197.54 202.471 199.327C201.643 200.204 200.635 200.892 199.515 201.341C198.396 201.791 197.192 201.992 195.987 201.931C194.654 201.984 193.331 201.685 192.151 201.063C191.196 200.524 190.406 199.734 189.868 198.779C189.3 197.712 188.929 196.551 188.772 195.352C188.586 194.02 188.494 192.677 188.498 191.332V188.637H188.315C187.814 192.344 186.076 195.772 183.384 198.367C180.623 200.887 176.98 202.217 173.246 202.068Z" fill="#1C1C1C"/>
<path d="M210.143 162.232H220.189V171.369H210.143V162.232ZM210.143 192.383H232.336V201.52H210.143V192.383ZM219.732 162.232H220.646V177.765H220.828C221.182 175.699 221.655 173.655 222.244 171.643C222.75 169.835 223.519 168.111 224.527 166.527C225.457 165.119 226.67 163.921 228.089 163.009C229.63 162.083 231.406 161.623 233.203 161.684C234.808 161.629 236.395 162.042 237.77 162.872C239.028 163.718 240.037 164.885 240.692 166.252C241.476 167.894 241.985 169.654 242.199 171.46C242.486 173.672 242.623 175.9 242.61 178.13C242.61 178.495 242.473 178.678 242.153 178.678C241.834 178.678 241.697 178.495 241.697 178.13C241.729 177.18 241.539 176.235 241.143 175.371C240.747 174.506 240.155 173.746 239.414 173.151C237.187 171.689 234.53 171.029 231.879 171.278C230.481 171.281 229.088 171.435 227.724 171.734C226.372 172.028 225.116 172.656 224.07 173.562C222.89 174.653 221.996 176.018 221.468 177.536C220.724 179.741 220.383 182.063 220.463 184.389V201.565H219.549L219.732 162.232Z" fill="#1C1C1C"/>
<path d="M249.871 136.65H259.917V145.787H249.871V136.65ZM249.871 192.384H269.964V201.52H249.871V192.384ZM259.461 136.65H260.374V201.52H259.461V136.65Z" fill="#1C1C1C"/>
<path d="M297.818 202.068C294.903 202.172 292.011 201.527 289.416 200.195C287.251 199.028 285.39 197.37 283.982 195.353C282.611 193.376 281.62 191.16 281.059 188.82C279.902 184.263 279.902 179.49 281.059 174.933C281.62 172.593 282.611 170.377 283.982 168.4C285.39 166.383 287.251 164.725 289.416 163.558C292.011 162.226 294.903 161.581 297.818 161.685C300.747 161.583 303.654 162.228 306.266 163.558C308.448 164.717 310.326 166.377 311.745 168.4C313.116 170.377 314.107 172.593 314.668 174.933C315.825 179.49 315.825 184.263 314.668 188.82C314.107 191.16 313.116 193.376 311.745 195.353C310.326 197.376 308.448 199.036 306.266 200.195C303.654 201.525 300.747 202.17 297.818 202.068ZM297.818 192.475C299.864 192.477 301.909 192.339 303.937 192.064C305.803 191.829 307.621 191.305 309.325 190.511C310.865 189.785 312.2 188.686 313.207 187.313C314.193 185.671 314.714 183.792 314.714 181.876C314.714 179.961 314.193 178.082 313.207 176.44C312.2 175.067 310.865 173.968 309.325 173.242C307.621 172.448 305.803 171.924 303.937 171.689C299.891 171.141 295.79 171.141 291.745 171.689C289.864 171.922 288.03 172.446 286.311 173.242C284.77 173.968 283.436 175.067 282.429 176.44C281.443 178.082 280.922 179.961 280.922 181.876C280.922 183.792 281.443 185.671 282.429 187.313C283.436 188.686 284.77 189.785 286.311 190.511C288.03 191.307 289.864 191.831 291.745 192.064C293.758 192.336 295.786 192.474 297.818 192.475Z" fill="#1C1C1C"/>
<path d="M327.865 162.233H373.347V171.37H327.865V162.233ZM327.865 192.384H347.958V201.52H327.865V192.384ZM337.455 159.858C337.402 156.437 337.724 153.021 338.414 149.67C338.914 147.263 339.792 144.95 341.017 142.818C341.953 141.17 343.308 139.799 344.944 138.843C346.45 138 348.149 137.56 349.876 137.564C351.639 137.523 353.368 138.052 354.807 139.072C356.248 140.126 357.46 141.463 358.369 143.001C359.395 144.706 360.164 146.553 360.652 148.483C361.172 150.506 361.523 152.569 361.702 154.65H361.885C362.114 149.768 363.643 145.036 366.315 140.945C367.22 139.54 368.454 138.377 369.911 137.557C371.367 136.737 373.001 136.285 374.671 136.24C376.419 136.157 378.142 136.673 379.557 137.701C380.796 138.664 381.796 139.899 382.48 141.31C383.181 142.752 383.658 144.293 383.896 145.879C384.127 147.268 384.248 148.673 384.261 150.081C384.261 150.447 384.101 150.63 383.804 150.63C383.507 150.63 383.348 150.447 383.348 150.081C383.276 149.438 383.074 148.817 382.754 148.254C382.352 147.577 381.787 147.012 381.11 146.61C380.192 146.064 379.188 145.678 378.142 145.468C376.639 145.166 375.108 145.028 373.575 145.056C372.334 145.06 371.095 145.182 369.877 145.422C368.522 145.695 367.272 146.344 366.269 147.295C365.001 148.575 364.062 150.142 363.529 151.863C362.699 154.537 362.328 157.333 362.433 160.132V201.795H361.52V161.137C361.606 158.531 361.219 155.93 360.378 153.462C359.792 151.785 358.823 150.267 357.547 149.031C356.484 148.061 355.198 147.371 353.803 147.021C352.534 146.695 351.231 146.526 349.921 146.518C348.627 146.525 347.338 146.694 346.085 147.021C344.706 147.377 343.436 148.067 342.386 149.031C341.111 150.267 340.142 151.785 339.555 153.462C338.715 155.93 338.328 158.531 338.414 161.137V201.795H337.5L337.455 159.858ZM351.885 192.384H371.977V201.52H351.885V192.384Z" fill="#1C1C1C"/>
<path d="M410.428 162.233H431.89V171.369H410.428V162.233ZM410.428 192.383H430.52V201.52H410.428V192.383ZM420.017 159.217C419.961 155.762 420.313 152.312 421.067 148.939C421.629 146.4 422.584 143.964 423.899 141.721C424.905 139.978 426.334 138.516 428.054 137.472C429.576 136.576 431.311 136.103 433.077 136.102C434.838 136.022 436.576 136.537 438.009 137.564C439.267 138.518 440.284 139.754 440.977 141.173C441.668 142.619 442.145 144.158 442.393 145.741C442.612 147.132 442.734 148.536 442.758 149.944C442.758 150.309 442.598 150.492 442.301 150.492C442.005 150.492 441.845 150.309 441.845 149.944C441.799 149.211 441.564 148.502 441.165 147.885C440.765 147.269 440.212 146.767 439.562 146.426C437.239 145.234 434.63 144.712 432.027 144.919C430.816 144.926 429.608 145.048 428.42 145.284C427.053 145.561 425.788 146.209 424.766 147.157C423.475 148.427 422.519 149.996 421.981 151.725C421.15 154.4 420.78 157.196 420.885 159.994V201.657H419.971L420.017 159.217Z" fill="#1C1C1C"/>
<path d="M461.296 202.068C458.381 202.175 455.488 201.53 452.894 200.195C450.729 199.028 448.868 197.37 447.46 195.353C446.089 193.376 445.098 191.161 444.538 188.82C443.381 184.264 443.381 179.49 444.538 174.933C445.098 172.593 446.089 170.377 447.46 168.4C448.868 166.383 450.729 164.725 452.894 163.558C455.488 162.223 458.381 161.578 461.296 161.685C464.225 161.583 467.132 162.228 469.744 163.558C471.927 164.718 473.804 166.377 475.224 168.4C476.595 170.377 477.586 172.593 478.146 174.933C479.303 179.49 479.303 184.264 478.146 188.82C477.586 191.161 476.595 193.376 475.224 195.353C473.804 197.376 471.927 199.036 469.744 200.195C467.132 201.525 464.225 202.17 461.296 202.068ZM461.296 192.475C463.343 192.477 465.387 192.339 467.415 192.064C469.281 191.829 471.099 191.305 472.804 190.511C474.344 189.785 475.678 188.686 476.685 187.313C477.672 185.671 478.193 183.792 478.193 181.877C478.193 179.961 477.672 178.082 476.685 176.44C475.678 175.067 474.344 173.968 472.804 173.243C471.099 172.448 469.281 171.924 467.415 171.689C463.37 171.141 459.269 171.141 455.223 171.689C453.342 171.922 451.509 172.446 449.789 173.243C448.249 173.968 446.914 175.067 445.907 176.44C444.921 178.082 444.4 179.961 444.4 181.877C444.4 183.792 444.921 185.671 445.907 187.313C446.914 188.686 448.249 189.785 449.789 190.511C451.509 191.307 453.342 191.831 455.223 192.064C457.236 192.336 459.265 192.474 461.296 192.475Z" fill="#1C1C1C"/>
<path d="M491.391 162.233H501.437V171.369H491.391V162.233ZM491.391 192.384H511.483V201.52H491.391V192.384ZM500.98 162.233H501.893V177.856H502.076C502.471 175.986 502.974 174.14 503.583 172.329C504.195 170.462 505.072 168.693 506.186 167.075C507.271 165.509 508.671 164.187 510.296 163.192C512.127 162.142 514.214 161.62 516.323 161.685C517.817 161.556 519.318 161.812 520.685 162.428C522.051 163.043 523.238 163.999 524.132 165.202C525.977 168.465 526.819 172.199 526.552 175.938V201.52H525.639V182.151C525.701 180.34 525.39 178.536 524.726 176.851C524.185 175.545 523.32 174.397 522.214 173.517C521.116 172.686 519.856 172.095 518.515 171.781C517.08 171.436 515.608 171.268 514.131 171.278C512.752 171.288 511.376 171.426 510.022 171.689C508.573 171.954 507.21 172.565 506.049 173.471C504.751 174.535 503.732 175.899 503.081 177.445C502.209 179.621 501.805 181.956 501.893 184.298V201.474H500.98V162.233ZM516.05 192.384H536.142V201.52H516.05V192.384Z" fill="#1C1C1C"/>
<path d="M542.58 162.233H563.951V171.37H542.58V162.233ZM560.846 202.068C559.076 202.138 557.317 201.761 555.731 200.972C554.392 200.241 553.285 199.149 552.535 197.82C551.677 196.292 551.104 194.62 550.845 192.886C550.49 190.758 550.321 188.603 550.343 186.445V147.523C550.532 147.456 550.693 147.327 550.8 147.158C550.909 146.984 551.001 146.801 551.074 146.609H551.256V182.882C551.209 184.559 551.394 186.234 551.804 187.861C552.063 188.92 552.563 189.905 553.265 190.739C553.783 191.356 554.463 191.815 555.229 192.064C555.925 192.274 556.648 192.382 557.375 192.384C558.22 192.48 559.075 192.373 559.87 192.071C560.664 191.769 561.375 191.281 561.942 190.648C562.943 189.392 563.716 187.969 564.225 186.445L574.362 190.282C573.966 191.645 573.462 192.974 572.856 194.257C572.205 195.635 571.359 196.912 570.344 198.048C569.271 199.243 567.966 200.207 566.508 200.881C564.711 201.725 562.739 202.132 560.754 202.068H560.846Z" fill="#1C1C1C"/>
<path d="M207.357 228.61H198.681V224.956H206.627L211.673 242.041H211.513L216.696 224.956H224.619V228.61H219.344L213.454 248.117H213.134L207.357 228.61ZM198.681 244.028H210.554V247.66H198.59L198.681 244.028ZM202.837 224.956H206.49V247.66H202.837V224.956ZM216.011 244.028H224.641V247.66H216.011V244.028ZM220.166 224.956H220.486V247.66H220.166V224.956Z" fill="#1C1C1C"/>
<path d="M231.742 255.655C231.183 255.683 230.624 255.597 230.098 255.404C229.724 255.263 229.394 255.027 229.139 254.718C228.913 254.428 228.749 254.093 228.66 253.736C228.626 253.379 228.626 253.02 228.66 252.663V252.069C228.66 252.069 228.66 251.886 228.82 251.886C228.98 251.886 228.979 251.886 228.979 252.069V252.594C228.973 253.122 229.107 253.642 229.368 254.102C229.515 254.331 229.724 254.514 229.97 254.632C230.216 254.749 230.49 254.794 230.76 254.764C231.081 254.771 231.398 254.7 231.685 254.557C231.971 254.414 232.218 254.202 232.404 253.942C232.941 253.174 233.386 252.346 233.729 251.475L236.583 244.919V245.376L231.697 233.955H232.085L236.811 245.056H236.651L241.218 233.955H244.414L236.583 252.229C236.186 253.308 235.489 254.251 234.574 254.947C233.724 255.467 232.736 255.714 231.742 255.655ZM230.738 233.91H235.487V237.107H230.738V233.91ZM237.587 233.91H245.076V237.107H237.587V233.91Z" fill="#1C1C1C"/>
<path d="M259.14 239.3C260.074 239.325 261.008 239.248 261.926 239.072C262.519 238.92 262.816 238.6 262.816 238.113C262.816 237.61 262.451 237.267 261.698 237.062C260.733 236.835 259.743 236.736 258.752 236.765C257.772 236.769 256.794 236.86 255.83 237.039C254.927 237.196 254.041 237.433 253.181 237.747L255.784 240.511H252.998V234.778C253.734 234.455 254.498 234.202 255.282 234.024C256.134 233.817 257.008 233.718 257.884 233.727C258.659 233.711 259.431 233.827 260.168 234.07C260.774 234.244 261.334 234.548 261.812 234.96C262.246 235.307 262.591 235.754 262.816 236.262C263.045 236.764 263.162 237.31 263.159 237.861C263.169 238.304 263.072 238.742 262.878 239.14C262.683 239.537 262.396 239.882 262.04 240.145C261.039 240.838 259.828 241.161 258.615 241.059V240.351C259.918 240.244 261.222 240.531 262.36 241.173C262.716 241.405 263.008 241.724 263.207 242.1C263.407 242.475 263.508 242.895 263.501 243.32C263.493 243.896 263.393 244.467 263.205 245.011C263.001 245.572 262.673 246.079 262.246 246.495C261.792 246.975 261.228 247.336 260.602 247.546C259.868 247.804 259.096 247.936 258.318 247.934C257.532 247.996 256.742 247.896 255.996 247.641C255.25 247.386 254.564 246.98 253.98 246.45C253.489 245.92 253.109 245.298 252.862 244.619C252.615 243.941 252.506 243.219 252.542 242.498C252.542 242.361 252.542 242.293 252.724 242.293C252.742 242.283 252.761 242.277 252.782 242.277C252.802 242.277 252.821 242.283 252.839 242.293C252.849 242.338 252.849 242.384 252.839 242.43C252.833 242.631 252.87 242.831 252.949 243.017C253.028 243.202 253.146 243.368 253.295 243.503C253.646 243.809 254.059 244.035 254.505 244.166C255.056 244.335 255.622 244.449 256.195 244.508C256.834 244.508 257.473 244.508 258.113 244.508C259.378 244.541 260.642 244.426 261.88 244.166C262.816 243.937 263.273 243.549 263.273 242.978C263.273 242.407 262.976 242.178 262.36 242.041C261.354 241.897 260.338 241.836 259.323 241.859H257.474V239.209L259.14 239.3Z" fill="#1C1C1C"/>
<path d="M277.771 247.866C276.739 247.905 275.713 247.693 274.781 247.249C274.041 246.869 273.4 246.321 272.908 245.65C272.433 244.961 272.099 244.185 271.927 243.366C271.561 241.695 271.561 239.965 271.927 238.295C272.101 237.484 272.418 236.711 272.863 236.011C273.305 235.329 273.899 234.758 274.598 234.343C275.421 233.89 276.353 233.669 277.292 233.704C278.233 233.674 279.169 233.854 280.032 234.229C280.756 234.568 281.36 235.117 281.767 235.805C282.237 236.587 282.54 237.458 282.658 238.363C282.844 239.519 282.928 240.688 282.909 241.858H271.881V239.209H282.544C282.384 238.768 282.129 238.367 281.798 238.036C281.467 237.704 281.066 237.449 280.625 237.29C279.556 236.91 278.427 236.725 277.292 236.742C276.726 236.741 276.161 236.787 275.602 236.879C275.07 236.95 274.548 237.089 274.05 237.29C273.592 237.488 273.168 237.758 272.794 238.089C272.446 238.414 272.186 238.823 272.041 239.277V241.721C272.156 242.24 272.391 242.725 272.726 243.137C273.04 243.522 273.428 243.841 273.867 244.074C274.309 244.327 274.786 244.511 275.283 244.622C275.8 244.739 276.328 244.8 276.858 244.805C277.718 244.851 278.572 244.653 279.324 244.234C279.902 243.904 280.401 243.452 280.785 242.909L283.274 244.988C283.093 245.281 282.895 245.563 282.68 245.833C282.389 246.204 282.043 246.527 281.653 246.792C281.169 247.116 280.637 247.363 280.078 247.523C279.332 247.758 278.553 247.874 277.771 247.866V247.866Z" fill="#1C1C1C"/>
<path d="M298.298 237.107H291.449V233.909H298.298V237.107ZM294.942 247.66H291.426V244.462H295.033L294.942 247.66ZM298.96 232.288C298.355 232.334 297.748 232.236 297.188 232.001C296.629 231.767 296.133 231.403 295.741 230.94C294.986 229.808 294.625 228.46 294.713 227.103C294.713 226.988 294.714 226.92 294.828 226.92C294.942 226.92 294.965 226.92 294.965 227.103C294.933 227.523 295.019 227.945 295.213 228.32C295.406 228.695 295.7 229.009 296.061 229.227C296.924 229.684 297.893 229.904 298.869 229.866C299.841 229.906 300.804 229.676 301.655 229.204C302.008 228.985 302.294 228.673 302.483 228.303C302.673 227.932 302.757 227.517 302.728 227.103C302.728 226.965 302.773 226.897 302.865 226.897C302.865 226.897 302.865 226.897 302.865 227.103C302.955 228.454 302.611 229.798 301.883 230.94C301.539 231.382 301.095 231.736 300.586 231.97C300.077 232.205 299.52 232.314 298.96 232.288V232.288ZM295.102 247.66H294.782V233.955H295.102V247.66ZM302.979 237.084H302.819L296.472 247.66H295.033V244.508H295.193L301.54 233.909H303.07L302.979 237.084ZM306.495 247.66H299.645V244.462H306.495V247.66ZM303.139 247.66H302.819V233.955H303.139V247.66ZM306.495 237.107H302.979V233.909H306.449L306.495 237.107Z" fill="#1C1C1C"/>
<path d="M333.848 237.107H327.432V233.91H333.848V237.107ZM348.666 247.66H327.432V244.462H348.666V247.66ZM331.108 247.66H330.788V233.955H331.108V247.66ZM340.948 237.107H335.126V233.91H340.948V237.107ZM338.209 247.66H337.889V233.955H338.209V247.66ZM348.666 237.107H342.227V233.91H348.666V237.107ZM345.309 247.66H344.99V233.955H345.309V247.66Z" fill="#1C1C1C"/>
<path d="M356.154 233.91H359.671V237.107H356.154V233.91ZM356.154 252.183H363.187V255.38H356.154V252.183ZM359.511 233.91H359.83V239.391L359.716 239.643V242.11L359.83 242.361V255.472H359.511V233.91ZM365.424 247.866C364.686 247.87 363.956 247.722 363.278 247.432C362.672 247.145 362.122 246.75 361.657 246.267C361.182 245.773 360.796 245.202 360.515 244.576C360.217 243.921 360.002 243.23 359.876 242.521H359.625V239.072H359.876C360.006 238.356 360.22 237.658 360.515 236.993C360.801 236.371 361.187 235.8 361.657 235.303C362.11 234.806 362.662 234.409 363.278 234.138C363.958 233.855 364.688 233.715 365.424 233.727C366.252 233.722 367.071 233.902 367.822 234.252C368.533 234.605 369.163 235.103 369.671 235.714C370.203 236.396 370.605 237.171 370.858 237.998C371.406 239.862 371.406 241.844 370.858 243.708C370.603 244.535 370.201 245.309 369.671 245.993C369.156 246.597 368.528 247.094 367.822 247.455C367.062 247.766 366.244 247.906 365.424 247.866ZM365.424 244.508C366.025 244.538 366.627 244.538 367.228 244.508C367.859 244.435 368.475 244.266 369.055 244.005C369.608 243.759 370.088 243.374 370.447 242.886C370.821 242.295 371.019 241.61 371.019 240.91C371.019 240.211 370.821 239.526 370.447 238.935C370.088 238.447 369.608 238.061 369.055 237.815C368.479 237.545 367.861 237.375 367.228 237.313C366.629 237.244 366.027 237.206 365.424 237.199C364.821 237.205 364.219 237.243 363.62 237.313C362.986 237.369 362.367 237.539 361.794 237.815C361.23 238.054 360.741 238.441 360.378 238.935C360.02 239.531 359.831 240.214 359.831 240.91C359.831 241.607 360.02 242.289 360.378 242.886C360.741 243.38 361.23 243.767 361.794 244.005C362.371 244.272 362.988 244.441 363.62 244.508C364.221 244.54 364.823 244.54 365.424 244.508Z" fill="#1C1C1C"/>
<path d="M386.522 237.107H379.672V233.91H386.522V237.107ZM383.165 247.66H379.649V244.462H383.165V247.66ZM383.325 247.66H383.006V233.955H383.325V247.66ZM391.202 237.085H391.043L384.695 247.66H383.165V244.508H383.325L389.673 233.91H391.202V237.085ZM394.719 247.66H387.869V244.462H394.719V247.66ZM391.362 247.66H391.043V233.955H391.362V247.66ZM394.719 237.107H391.202V233.91H394.719V237.107Z" fill="#1C1C1C"/>
<path d="M412.938 239.072C412.938 238.501 413.167 237.975 413.304 237.473C413.42 236.988 413.597 236.52 413.829 236.079C414.191 235.406 414.698 234.821 415.313 234.366C415.986 233.914 416.786 233.69 417.596 233.727C418.316 233.716 419.025 233.897 419.651 234.252C420.251 234.618 420.759 235.119 421.135 235.714C421.578 236.412 421.888 237.187 422.048 237.998C422.256 238.928 422.355 239.878 422.345 240.83C422.355 241.775 422.256 242.718 422.048 243.64C421.876 244.444 421.575 245.215 421.158 245.924C420.769 246.523 420.255 247.029 419.651 247.409C418.992 247.788 418.241 247.977 417.482 247.957C416.666 247.99 415.862 247.749 415.199 247.272C414.58 246.811 414.092 246.197 413.783 245.49C413.575 245.052 413.414 244.592 413.304 244.12C413.167 243.617 413.052 243.115 412.938 242.612V255.563H412.619V242.612C412.619 243.115 412.413 243.617 412.299 244.074C412.186 244.539 412.026 244.99 411.819 245.422C411.483 246.131 410.992 246.755 410.381 247.249C409.715 247.722 408.915 247.97 408.098 247.957C407.371 247.968 406.654 247.786 406.02 247.432C405.414 247.074 404.898 246.582 404.513 245.993C404.065 245.294 403.748 244.52 403.577 243.708C403.349 242.782 403.242 241.83 403.257 240.876C403.241 239.907 403.349 238.94 403.577 237.998C403.755 237.185 404.08 236.411 404.536 235.714C404.924 235.114 405.448 234.613 406.066 234.252C406.724 233.895 407.463 233.714 408.212 233.727C409.023 233.68 409.826 233.905 410.495 234.366C411.084 234.817 411.554 235.405 411.865 236.079C412.097 236.52 412.273 236.988 412.39 237.473C412.504 237.975 412.619 238.501 412.733 239.072V224.956H413.052L412.938 239.072ZM403.394 240.853C403.368 241.488 403.51 242.118 403.805 242.681C404.072 243.126 404.439 243.501 404.878 243.777C405.334 244.03 405.827 244.207 406.34 244.302C407.436 244.485 408.554 244.485 409.65 244.302C410.174 244.236 410.678 244.065 411.134 243.8C411.583 243.536 411.954 243.158 412.207 242.703C412.503 242.125 412.644 241.48 412.619 240.83V240.693C412.647 240.056 412.522 239.422 412.253 238.843C412.001 238.395 411.64 238.017 411.203 237.747C410.749 237.495 410.254 237.325 409.742 237.244C409.183 237.152 408.618 237.107 408.052 237.107C407.493 237.116 406.936 237.17 406.385 237.267C405.856 237.365 405.352 237.567 404.901 237.861C404.444 238.132 404.067 238.518 403.805 238.98C403.507 239.558 403.365 240.204 403.394 240.853V240.853ZM412.778 228.153H409.194V224.956H412.71L412.778 228.153ZM416.295 255.563H409.194V252.365H416.226L416.295 255.563ZM422.163 240.876C422.185 240.242 422.044 239.612 421.751 239.049C421.508 238.595 421.155 238.21 420.724 237.93C420.282 237.656 419.795 237.462 419.286 237.358C418.743 237.26 418.193 237.207 417.642 237.199C417.076 237.198 416.51 237.244 415.952 237.336C415.425 237.416 414.915 237.586 414.445 237.838C414.001 238.107 413.632 238.484 413.372 238.935C413.058 239.499 412.908 240.14 412.938 240.785V240.922C412.909 241.574 413.058 242.222 413.372 242.795C413.617 243.248 413.98 243.627 414.422 243.891C414.887 244.156 415.399 244.327 415.929 244.394C416.472 244.485 417.022 244.531 417.573 244.531C418.124 244.532 418.674 244.487 419.217 244.394C419.738 244.291 420.239 244.106 420.701 243.846C421.139 243.566 421.5 243.181 421.751 242.726C422.063 242.129 422.205 241.457 422.163 240.785V240.876Z" fill="#1C1C1C"/>
<path d="M442.963 240.738H439.264L442.871 237.106H430.884L434.492 240.738H430.793V233.886H442.963V240.738ZM440.383 247.591H433.35V244.393H440.383V247.591ZM437.026 247.591H436.707V233.886H437.026V247.591Z" fill="#1C1C1C"/>
<path d="M454.858 247.866C454.249 247.879 453.643 247.77 453.077 247.546C452.625 247.342 452.221 247.047 451.89 246.678C451.584 246.313 451.365 245.883 451.251 245.421C451.112 244.954 451.043 244.47 451.045 243.982C451.047 243.382 451.155 242.786 451.365 242.224C451.579 241.658 451.942 241.161 452.415 240.785C453 240.316 453.677 239.973 454.402 239.78C455.429 239.508 456.49 239.385 457.552 239.414H460.269V242.041H455.406C454.348 241.976 453.288 242.107 452.278 242.429C451.707 242.68 451.433 243.023 451.433 243.457C451.433 243.891 451.73 244.325 452.347 244.554C453.219 244.819 454.13 244.934 455.041 244.896C455.667 244.898 456.293 244.852 456.913 244.759C457.485 244.685 458.041 244.515 458.557 244.257C459.027 243.999 459.426 243.63 459.721 243.183C460.042 242.646 460.193 242.025 460.155 241.401V239.346C460.192 238.871 460.054 238.4 459.767 238.021C459.499 237.691 459.154 237.433 458.762 237.267C458.292 237.094 457.8 236.987 457.301 236.947C456.753 236.947 456.182 236.947 455.589 236.947C454.72 236.924 453.853 237.016 453.009 237.221C452.736 237.27 452.491 237.414 452.315 237.627C452.139 237.841 452.045 238.11 452.05 238.386C452.053 238.409 452.051 238.432 452.045 238.455C452.038 238.477 452.027 238.497 452.012 238.514C451.997 238.532 451.978 238.546 451.957 238.555C451.936 238.564 451.913 238.569 451.89 238.569C451.776 238.569 451.73 238.569 451.73 238.386C451.652 237.139 452.062 235.911 452.872 234.96C453.329 234.542 453.866 234.221 454.451 234.016C455.035 233.812 455.656 233.729 456.274 233.772C456.758 233.78 457.241 233.841 457.712 233.955C458.22 234.083 458.684 234.343 459.059 234.709C459.524 235.161 459.876 235.717 460.087 236.331C460.382 237.236 460.514 238.188 460.475 239.14V242.795C460.445 243.346 460.555 243.896 460.794 244.394C460.897 244.584 461.054 244.74 461.244 244.842C461.435 244.943 461.652 244.986 461.867 244.965C462.034 244.978 462.201 244.957 462.358 244.902C462.516 244.847 462.66 244.759 462.781 244.645C462.97 244.461 463.112 244.234 463.192 243.982L466.183 244.782C466.032 245.629 465.653 246.419 465.087 247.066C464.795 247.374 464.439 247.615 464.045 247.773C463.651 247.93 463.228 248.001 462.804 247.98C462.334 247.999 461.868 247.888 461.457 247.66C461.115 247.47 460.837 247.184 460.658 246.838C460.451 246.463 460.319 246.052 460.269 245.627C460.234 245.163 460.234 244.697 460.269 244.234V243.274C460.085 244.57 459.474 245.768 458.534 246.678C458.033 247.113 457.449 247.443 456.817 247.647C456.185 247.851 455.519 247.925 454.858 247.866V247.866Z" fill="#1C1C1C"/>
<path d="M129.933 303.393H126.988L129.842 300.515H118.631V297.911H130.047L129.933 303.393ZM124.887 304.375C126.424 304.251 127.952 304.698 129.179 305.632C129.662 306.09 130.039 306.648 130.284 307.268C130.528 307.887 130.635 308.553 130.595 309.218C130.606 309.899 130.505 310.578 130.298 311.228C130.094 311.825 129.74 312.359 129.271 312.781C128.731 313.241 128.101 313.583 127.421 313.786C126.491 314.033 125.53 314.149 124.567 314.129H118.631V311.525H124.864C125.64 311.525 126.401 311.525 127.147 311.525C127.743 311.495 128.333 311.395 128.905 311.228C129.343 311.086 129.742 310.843 130.07 310.52C130.359 310.176 130.506 309.735 130.481 309.286C130.504 308.852 130.356 308.426 130.07 308.098C129.771 307.788 129.404 307.553 128.997 307.413C128.504 307.236 127.989 307.128 127.467 307.093C126.904 307.093 126.31 307.093 125.686 307.093C125.069 307.093 124.407 307.093 123.722 307.208C123.037 307.322 122.398 307.345 121.805 307.459V304.878C122.31 304.766 122.82 304.682 123.334 304.627C123.846 304.512 124.365 304.428 124.887 304.375V304.375ZM121.827 314.129H121.599V297.911H121.827V314.129Z" fill="#1C1C1C"/>
<path d="M141.464 306.59H136.555V304.306H141.464V306.59ZM139.18 314.128H136.669V311.844H139.18V314.128ZM139.18 314.128H138.952V304.306H139.18V314.128ZM144.82 306.567L140.253 314.128H139.158V311.844L143.724 304.283H144.82V306.567ZM147.332 314.128H142.423V311.844H147.332V314.128ZM145.048 314.128H144.82V304.306H145.048V314.128ZM147.332 306.59H144.82V304.306H147.332V306.59Z" fill="#1C1C1C"/>
<path d="M158.474 304.307C158.474 305.175 158.474 306.02 158.474 306.865C158.474 307.71 158.474 308.555 158.291 309.423C158.238 310.06 158.147 310.693 158.017 311.319C157.901 311.854 157.709 312.369 157.447 312.849C157.221 313.269 156.89 313.623 156.487 313.877C156.041 314.148 155.525 314.283 155.004 314.265C154.647 314.279 154.29 314.225 153.953 314.106C153.708 314.005 153.489 313.849 153.314 313.649C153.152 313.465 153.034 313.246 152.972 313.009C152.937 312.744 152.937 312.475 152.972 312.21V311.981V311.844C152.972 311.844 152.972 311.844 152.972 311.981V312.187C152.959 312.578 153.054 312.965 153.245 313.306C153.339 313.455 153.472 313.576 153.628 313.657C153.785 313.737 153.96 313.774 154.136 313.763C154.303 313.768 154.469 313.734 154.62 313.662C154.77 313.591 154.902 313.484 155.004 313.352C155.241 313.02 155.419 312.649 155.529 312.255C155.67 311.809 155.769 311.35 155.826 310.885C155.826 310.352 155.871 309.827 155.962 309.309C155.962 308.418 156.1 307.55 156.122 306.728C156.145 305.906 156.122 305.083 156.122 304.329L158.474 304.307ZM164.045 306.591H154.067V304.307H164.045V306.591ZM164.045 314.128H159.022V311.844H164.045V314.128ZM161.648 314.128H161.419V304.307H161.648V314.128Z" fill="#1C1C1C"/>
<path d="M174.388 314.266C173.656 314.294 172.928 314.145 172.265 313.832C171.73 313.566 171.267 313.174 170.918 312.69C170.575 312.214 170.341 311.668 170.233 311.091C170.097 310.484 170.028 309.863 170.027 309.241C170.028 308.641 170.097 308.043 170.233 307.459C170.339 306.872 170.565 306.312 170.895 305.815C171.199 305.321 171.623 304.912 172.128 304.627C172.717 304.31 173.378 304.152 174.046 304.17C174.721 304.153 175.392 304.285 176.009 304.558C176.525 304.797 176.955 305.187 177.242 305.678C177.575 306.238 177.792 306.859 177.881 307.505C178.008 308.329 178.069 309.161 178.064 309.995H170.187V308.099H177.79C177.687 307.78 177.509 307.492 177.27 307.257C177.032 307.022 176.74 306.849 176.42 306.751C175.69 306.478 174.917 306.339 174.137 306.34C173.735 306.305 173.33 306.305 172.927 306.34C172.549 306.398 172.181 306.505 171.831 306.66C171.504 306.787 171.202 306.973 170.941 307.208C170.687 307.437 170.498 307.728 170.393 308.053V309.812C170.49 310.178 170.661 310.52 170.895 310.817C171.126 311.093 171.404 311.325 171.717 311.502C172.035 311.672 172.372 311.803 172.722 311.89C173.09 311.963 173.465 312.002 173.84 312.005C174.458 312.032 175.071 311.898 175.621 311.616C176.025 311.37 176.375 311.044 176.649 310.657L178.43 312.142L177.996 312.758C177.785 313.013 177.539 313.236 177.265 313.421C176.916 313.648 176.54 313.833 176.146 313.969C175.58 314.159 174.986 314.26 174.388 314.266Z" fill="#1C1C1C"/>
<path d="M192.767 309.172H190.119L192.699 306.591H184.137L186.717 309.172H184.068V304.307H192.767V309.172ZM190.918 314.128H185.895V311.844H190.918V314.128ZM188.521 314.128H188.292V304.307H188.521V314.128Z" fill="#1C1C1C"/>
<path d="M212.494 306.591H207.631V304.307H212.494V306.591ZM212.494 314.128H207.631V311.844H212.494V314.128ZM210.211 314.128H209.983V304.307H210.211V314.128ZM215.919 310.177H210.097V308.213H215.919V310.177ZM218.43 306.591H213.59V304.307H218.43V306.591ZM218.43 314.128H213.59V311.844H218.43V314.128ZM216.147 314.128H215.919V304.307H216.147V314.128Z" fill="#1C1C1C"/>
<path d="M226.993 314.266C226.562 314.283 226.134 314.205 225.737 314.037C225.412 313.9 225.122 313.689 224.892 313.421C224.662 313.167 224.497 312.862 224.413 312.53C224.322 312.195 224.276 311.849 224.276 311.502C224.27 311.073 224.347 310.646 224.504 310.246C224.653 309.839 224.914 309.482 225.257 309.218C225.671 308.879 226.155 308.637 226.673 308.51C227.416 308.306 228.186 308.213 228.956 308.236H230.897V310.109H227.427C226.655 310.054 225.88 310.147 225.143 310.383C224.755 310.566 224.55 310.817 224.55 311.114C224.555 311.302 224.624 311.482 224.744 311.627C224.864 311.772 225.028 311.873 225.212 311.913C225.834 312.094 226.482 312.171 227.13 312.142C227.578 312.177 228.028 312.177 228.477 312.142C228.883 312.086 229.276 311.962 229.641 311.776C229.973 311.597 230.256 311.338 230.463 311.022C230.693 310.637 230.804 310.192 230.783 309.743V308.281C230.803 307.94 230.706 307.601 230.509 307.322C230.316 307.085 230.064 306.904 229.778 306.797C229.45 306.668 229.103 306.591 228.751 306.568H227.518C226.895 306.55 226.272 306.619 225.668 306.774C225.475 306.807 225.3 306.908 225.174 307.058C225.048 307.209 224.981 307.4 224.983 307.596C224.983 307.596 224.983 307.733 224.983 307.733C224.983 307.733 224.983 307.733 224.983 307.596C224.954 307.158 225.012 306.719 225.153 306.304C225.294 305.888 225.516 305.505 225.806 305.175C226.127 304.871 226.508 304.636 226.925 304.487C227.341 304.337 227.784 304.276 228.226 304.307C228.573 304.308 228.918 304.354 229.253 304.444C229.622 304.527 229.961 304.708 230.235 304.969C230.56 305.3 230.809 305.698 230.965 306.134C231.17 306.784 231.263 307.464 231.24 308.144V310.748C231.212 311.15 231.291 311.552 231.468 311.913C231.544 312.042 231.656 312.147 231.789 312.216C231.922 312.284 232.072 312.314 232.221 312.302C232.342 312.313 232.463 312.299 232.577 312.259C232.691 312.22 232.796 312.156 232.884 312.073C233.007 311.93 233.107 311.768 233.18 311.593L235.304 312.164C235.196 312.759 234.928 313.312 234.527 313.763C234.32 313.981 234.067 314.151 233.787 314.261C233.507 314.372 233.207 314.42 232.906 314.403C232.575 314.416 232.245 314.345 231.947 314.197C231.708 314.054 231.511 313.849 231.377 313.604C231.234 313.333 231.142 313.039 231.103 312.736C231.079 312.401 231.079 312.065 231.103 311.731V311.045C230.983 311.977 230.547 312.839 229.869 313.489C229.474 313.819 229.013 314.059 228.516 314.193C228.02 314.327 227.5 314.352 226.993 314.266V314.266Z" fill="#1C1C1C"/>
<path d="M256.675 297.911C256.725 298.189 256.718 298.473 256.655 298.748C256.592 299.022 256.475 299.282 256.31 299.51C256.104 299.763 255.837 299.96 255.534 300.081C255.109 300.233 254.674 300.355 254.232 300.447H253.776L253.228 300.584C252.82 300.69 252.443 300.89 252.126 301.168C251.809 301.445 251.561 301.793 251.401 302.182C250.942 303.26 250.642 304.399 250.511 305.563L249.415 305.814C249.817 305.274 250.341 304.835 250.944 304.535C251.539 304.234 252.196 304.078 252.862 304.078C253.492 304.042 254.119 304.171 254.684 304.451C255.248 304.732 255.73 305.154 256.082 305.677C256.408 306.173 256.648 306.722 256.79 307.299C257.064 308.471 257.064 309.69 256.79 310.862C256.643 311.438 256.404 311.986 256.082 312.484C255.732 312.978 255.28 313.391 254.757 313.695C254.127 314.035 253.418 314.2 252.703 314.174C251.896 314.21 251.098 313.994 250.419 313.558C249.833 313.132 249.362 312.567 249.049 311.913C248.719 311.191 248.51 310.419 248.433 309.629C248.323 308.788 248.27 307.941 248.273 307.093C248.145 305.499 248.511 303.903 249.323 302.525C250.032 301.482 251.123 300.76 252.36 300.515L252.976 300.355C253.205 300.322 253.425 300.241 253.621 300.12C253.817 299.998 253.986 299.837 254.118 299.647C254.315 299.242 254.409 298.795 254.392 298.345V298.277C254.403 298.163 254.403 298.048 254.392 297.934L256.675 297.911ZM252.68 311.89C253.189 311.925 253.7 311.925 254.21 311.89C254.671 311.83 255.119 311.69 255.534 311.479C255.905 311.281 256.226 311 256.47 310.657C256.694 310.243 256.811 309.78 256.811 309.309C256.811 308.838 256.694 308.375 256.47 307.961C256.249 307.62 255.942 307.345 255.579 307.162C255.19 306.947 254.764 306.808 254.324 306.751C253.832 306.678 253.336 306.64 252.84 306.637C252.296 306.635 251.754 306.681 251.219 306.774C250.744 306.85 250.287 307.012 249.871 307.253C249.488 307.455 249.165 307.754 248.935 308.121C248.705 308.516 248.583 308.966 248.583 309.423C248.583 309.881 248.705 310.33 248.935 310.725C249.162 311.069 249.478 311.345 249.848 311.525C250.268 311.72 250.714 311.851 251.173 311.913C251.673 311.97 252.176 311.993 252.68 311.981V311.89Z" fill="#1C1C1C"/>
<path d="M267.429 314.266C266.697 314.294 265.969 314.145 265.306 313.832C264.771 313.566 264.308 313.174 263.959 312.69C263.618 312.21 263.377 311.666 263.251 311.091C263.134 310.481 263.073 309.862 263.068 309.241C263.073 308.642 263.134 308.046 263.251 307.459C263.375 306.873 263.607 306.315 263.936 305.815C264.24 305.321 264.664 304.912 265.169 304.627C265.758 304.31 266.419 304.152 267.087 304.17C267.762 304.153 268.433 304.285 269.05 304.558C269.566 304.797 269.996 305.187 270.283 305.678C270.616 306.238 270.833 306.859 270.923 307.505C271.049 308.329 271.11 309.161 271.105 309.995H263.228V308.099H270.831C270.728 307.78 270.55 307.492 270.311 307.257C270.073 307.022 269.781 306.849 269.461 306.751C268.731 306.478 267.958 306.339 267.178 306.34C266.776 306.305 266.371 306.305 265.968 306.34C265.59 306.398 265.222 306.505 264.872 306.66C264.542 306.782 264.24 306.968 263.982 307.208C263.728 307.437 263.539 307.728 263.434 308.053V309.812C263.531 310.178 263.702 310.52 263.936 310.817C264.167 311.093 264.445 311.325 264.758 311.502C265.076 311.672 265.413 311.803 265.763 311.89C266.131 311.963 266.506 312.002 266.881 312.005C267.499 312.032 268.112 311.898 268.662 311.616C269.066 311.37 269.416 311.044 269.69 310.657L271.471 312.142L271.037 312.758C270.826 313.013 270.58 313.236 270.306 313.421C269.957 313.648 269.581 313.833 269.188 313.969C268.621 314.159 268.027 314.26 267.429 314.266V314.266Z" fill="#1C1C1C"/>
<path d="M281.699 314.265C280.957 314.29 280.22 314.133 279.552 313.808C279.013 313.52 278.545 313.114 278.182 312.621C277.835 312.133 277.587 311.582 277.452 310.999C277.317 310.422 277.248 309.832 277.246 309.24C277.244 308.613 277.337 307.99 277.52 307.39C277.675 306.806 277.939 306.256 278.297 305.768C278.651 305.282 279.111 304.883 279.644 304.603C280.252 304.297 280.927 304.148 281.607 304.169C282.207 304.148 282.802 304.273 283.342 304.535C283.789 304.757 284.179 305.077 284.484 305.471C284.779 305.857 284.99 306.301 285.101 306.773C285.216 307.229 285.277 307.697 285.283 308.167C285.283 308.167 285.283 308.304 285.283 308.304C285.283 308.304 285.283 308.304 285.283 308.167C285.293 308.017 285.271 307.866 285.22 307.725C285.169 307.583 285.089 307.454 284.986 307.344C284.759 307.127 284.486 306.963 284.187 306.865C283.842 306.738 283.481 306.661 283.114 306.636H281.904C281.331 306.637 280.759 306.675 280.192 306.75C279.728 306.801 279.278 306.94 278.867 307.162C278.519 307.357 278.227 307.641 278.023 307.984C277.797 308.388 277.687 308.846 277.703 309.309C277.695 309.726 277.781 310.14 277.954 310.519C278.117 310.855 278.36 311.145 278.662 311.365C278.982 311.583 279.337 311.745 279.712 311.844C280.139 311.94 280.576 311.986 281.013 311.981C281.665 312.006 282.313 311.881 282.908 311.616C283.408 311.345 283.838 310.962 284.164 310.497L286.105 311.981C285.982 312.218 285.845 312.446 285.694 312.666C285.462 312.959 285.194 313.22 284.895 313.443C284.515 313.71 284.1 313.926 283.662 314.083C283.024 314.26 282.359 314.322 281.699 314.265V314.265Z" fill="#1C1C1C"/>
<path d="M301.882 306.591H291.242V304.307H301.882V306.591ZM296.014 314.128H291.242V311.844H296.014V314.128ZM293.868 314.128H293.64V304.307H293.868V314.128ZM301.882 314.128H297.316V311.844H301.882V314.128ZM299.599 314.128H299.371V304.307H299.599V314.128Z" fill="#1C1C1C"/>
<path d="M313.116 304.307C313.116 305.175 313.116 306.02 313.001 306.865C312.887 307.71 313.002 308.555 312.819 309.423C312.636 310.291 312.659 310.725 312.545 311.319C312.428 311.854 312.236 312.369 311.974 312.849C311.741 313.264 311.412 313.616 311.015 313.877C310.568 314.148 310.053 314.283 309.531 314.265C309.174 314.281 308.817 314.227 308.481 314.106C308.235 314.005 308.016 313.849 307.841 313.649C307.679 313.465 307.562 313.246 307.499 313.009C307.464 312.744 307.464 312.475 307.499 312.21V311.981V311.844C307.499 311.844 307.499 311.844 307.499 311.981V312.187C307.487 312.578 307.581 312.965 307.773 313.306C307.867 313.455 307.999 313.576 308.156 313.657C308.312 313.737 308.488 313.774 308.663 313.763C308.83 313.765 308.994 313.729 309.145 313.658C309.295 313.586 309.427 313.482 309.531 313.352C309.769 313.02 309.946 312.649 310.056 312.255C310.186 311.806 310.285 311.348 310.353 310.885C310.353 310.352 310.399 309.827 310.49 309.309C310.49 308.418 310.627 307.55 310.65 306.728C310.673 305.906 310.65 305.083 310.65 304.329L313.116 304.307ZM318.687 306.591H308.732V304.307H318.71L318.687 306.591ZM318.687 314.128H313.664V311.844H318.687V314.128ZM316.403 314.128H316.175V304.307H316.403V314.128Z" fill="#1C1C1C"/>
<path d="M327.204 314.266C326.773 314.285 326.344 314.207 325.948 314.037C325.622 313.9 325.333 313.689 325.103 313.421C324.873 313.167 324.708 312.862 324.624 312.53C324.533 312.195 324.487 311.849 324.487 311.502C324.481 311.073 324.558 310.646 324.715 310.246C324.863 309.839 325.125 309.482 325.468 309.218C325.882 308.879 326.365 308.637 326.884 308.51C327.627 308.306 328.397 308.213 329.167 308.236H331.108V310.109H327.638C326.866 310.054 326.091 310.147 325.354 310.383C324.966 310.566 324.761 310.817 324.761 311.114C324.769 311.298 324.835 311.474 324.95 311.618C325.065 311.762 325.222 311.865 325.4 311.913C326.031 312.093 326.686 312.17 327.341 312.142C327.781 312.176 328.224 312.176 328.665 312.142C329.077 312.083 329.478 311.959 329.852 311.776C330.22 311.586 330.524 311.292 330.727 310.93C330.93 310.569 331.022 310.157 330.994 309.743V308.281C331.014 307.94 330.917 307.601 330.72 307.322C330.527 307.085 330.275 306.904 329.989 306.797C329.653 306.668 329.298 306.591 328.939 306.568H327.729C327.106 306.55 326.483 306.619 325.879 306.774C325.686 306.807 325.511 306.908 325.385 307.058C325.259 307.209 325.192 307.4 325.194 307.596C325.194 307.596 325.194 307.733 325.194 307.733C325.194 307.733 325.08 307.733 325.08 307.596C325.051 307.158 325.109 306.719 325.25 306.304C325.391 305.888 325.613 305.505 325.902 305.175C326.224 304.871 326.605 304.636 327.021 304.487C327.438 304.337 327.881 304.276 328.322 304.307C328.669 304.308 329.015 304.354 329.35 304.444C329.716 304.536 330.053 304.716 330.332 304.969C330.657 305.296 330.899 305.695 331.039 306.134C331.264 306.78 331.365 307.462 331.336 308.144V310.748C331.316 311.147 331.386 311.545 331.542 311.913C331.624 312.042 331.739 312.146 331.876 312.215C332.013 312.283 332.166 312.313 332.318 312.302C332.438 312.313 332.56 312.299 332.674 312.259C332.788 312.22 332.893 312.156 332.98 312.073C333.103 311.93 333.203 311.768 333.277 311.593L335.401 312.164C335.293 312.759 335.025 313.312 334.624 313.763C334.416 313.981 334.164 314.151 333.884 314.261C333.604 314.372 333.303 314.42 333.003 314.403C332.671 314.416 332.341 314.345 332.044 314.197C331.804 314.054 331.607 313.849 331.473 313.604C331.331 313.333 331.238 313.039 331.199 312.736C331.176 312.401 331.176 312.065 331.199 311.731V311.045C331.079 311.977 330.644 312.839 329.966 313.489C329.585 313.803 329.142 314.035 328.667 314.168C328.191 314.302 327.693 314.335 327.204 314.266V314.266Z" fill="#1C1C1C"/>
<path d="M347.547 309.172H344.898L347.478 306.591H338.916L341.496 309.172H338.848V304.307H347.547V309.172ZM345.697 314.128H340.697V311.844H345.72L345.697 314.128ZM343.414 314.128H343.186V304.307H343.414V314.128Z" fill="#1C1C1C"/>
<path d="M358.21 306.591H353.347V304.307H358.21V306.591ZM358.21 314.128H353.347V311.844H358.21V314.128ZM355.927 314.128H355.698V304.307H355.927V314.128ZM361.635 310.177H355.812V308.213H361.635V310.177ZM364.146 306.591H359.306V304.307H364.146V306.591ZM364.146 314.128H359.306V311.844H364.146V314.128ZM361.863 314.128H361.635V304.307H361.863V314.128Z" fill="#1C1C1C"/>
<path d="M374.557 314.266C373.83 314.283 373.11 314.126 372.456 313.809C371.922 313.512 371.461 313.098 371.109 312.598C370.765 312.1 370.517 311.543 370.379 310.953C370.074 309.816 370.074 308.619 370.379 307.482C370.514 306.898 370.762 306.347 371.109 305.86C371.449 305.349 371.912 304.932 372.456 304.649C373.103 304.309 373.827 304.144 374.557 304.17C375.294 304.144 376.025 304.31 376.68 304.649C377.231 304.932 377.702 305.348 378.05 305.86C378.389 306.352 378.637 306.902 378.781 307.482C379.055 308.623 379.055 309.812 378.781 310.953C378.632 311.539 378.385 312.095 378.05 312.598C377.689 313.098 377.221 313.512 376.68 313.809C376.019 314.13 375.291 314.286 374.557 314.266ZM374.557 311.867C375.066 311.902 375.577 311.902 376.087 311.867C376.553 311.808 377.007 311.677 377.434 311.479C377.817 311.291 378.153 311.017 378.416 310.679C378.67 310.269 378.797 309.792 378.781 309.309C378.803 308.833 378.675 308.361 378.416 307.961C378.16 307.617 377.822 307.343 377.434 307.162C377.011 306.955 376.555 306.823 376.087 306.774C375.08 306.621 374.057 306.621 373.05 306.774C372.574 306.82 372.11 306.952 371.68 307.162C371.298 307.343 370.968 307.618 370.721 307.961C370.454 308.359 370.318 308.83 370.333 309.309C370.313 309.795 370.449 310.276 370.721 310.679C370.974 311.017 371.303 311.29 371.68 311.479C372.113 311.679 372.576 311.81 373.05 311.867C373.549 311.939 374.052 311.978 374.557 311.981V311.867Z" fill="#1C1C1C"/>
<path d="M389.398 314.266C388.666 314.294 387.937 314.145 387.275 313.832C386.74 313.566 386.277 313.174 385.928 312.69C385.587 312.21 385.346 311.666 385.22 311.091C385.102 310.481 385.041 309.862 385.037 309.241C385.041 308.642 385.102 308.046 385.22 307.459C385.346 306.878 385.57 306.321 385.882 305.815C386.2 305.324 386.631 304.917 387.137 304.627C387.726 304.31 388.387 304.152 389.056 304.17C389.731 304.153 390.401 304.285 391.019 304.558C391.535 304.797 391.965 305.187 392.252 305.678C392.584 306.238 392.801 306.859 392.891 307.505C393.017 308.329 393.078 309.161 393.074 309.995H385.197V308.099H392.8C392.697 307.78 392.519 307.492 392.28 307.257C392.042 307.022 391.75 306.849 391.43 306.751C390.7 306.478 389.926 306.339 389.147 306.34C388.744 306.305 388.339 306.305 387.937 306.34C387.559 306.398 387.19 306.505 386.841 306.66C386.511 306.782 386.208 306.968 385.95 307.208C385.696 307.437 385.507 307.728 385.402 308.053V309.812C385.499 310.178 385.67 310.52 385.905 310.817C386.135 311.093 386.414 311.325 386.727 311.502C387.044 311.672 387.382 311.803 387.731 311.89C388.1 311.963 388.474 312.002 388.85 312.005C389.467 312.032 390.081 311.898 390.631 311.616C391.035 311.37 391.385 311.044 391.658 310.657L393.439 312.142L393.006 312.758C392.795 313.013 392.549 313.236 392.275 313.421C391.926 313.648 391.55 313.833 391.156 313.969C390.589 314.159 389.996 314.26 389.398 314.266V314.266Z" fill="#1C1C1C"/>
<path d="M418.829 306.591H408.189V304.307H418.829V306.591ZM412.961 314.128H408.189V311.844H412.961V314.128ZM410.815 314.128H410.587V304.307H410.815V314.128ZM418.829 314.128H414.057V311.844H418.829V314.128ZM416.546 314.128H416.318V304.307H416.546V314.128Z" fill="#1C1C1C"/>
<path d="M429.195 314.266C428.468 314.283 427.748 314.126 427.094 313.809C426.56 313.512 426.1 313.098 425.747 312.598C425.396 312.102 425.141 311.544 424.994 310.953C424.72 309.812 424.72 308.623 424.994 307.482C425.136 306.897 425.392 306.346 425.747 305.86C426.087 305.349 426.55 304.932 427.094 304.649C427.741 304.309 428.465 304.144 429.195 304.17C429.932 304.144 430.663 304.31 431.318 304.649C431.864 304.939 432.334 305.354 432.688 305.86C433.027 306.352 433.275 306.902 433.419 307.482C433.693 308.623 433.693 309.812 433.419 310.953C433.27 311.539 433.023 312.095 432.688 312.598C432.321 313.093 431.854 313.505 431.318 313.809C430.657 314.13 429.929 314.286 429.195 314.266ZM429.195 311.867C429.704 311.902 430.215 311.902 430.725 311.867C431.191 311.808 431.645 311.677 432.072 311.479C432.452 311.284 432.786 311.012 433.053 310.679C433.308 310.269 433.435 309.792 433.419 309.309C433.441 308.833 433.313 308.361 433.053 307.961C432.792 307.622 432.456 307.349 432.072 307.162C431.649 306.955 431.193 306.823 430.725 306.774C430.218 306.701 429.707 306.662 429.195 306.659C428.683 306.664 428.172 306.702 427.665 306.774C427.197 306.823 426.741 306.955 426.318 307.162C425.936 307.343 425.606 307.618 425.359 307.961C425.076 308.351 424.938 308.828 424.971 309.309C424.939 309.797 425.076 310.281 425.359 310.679C425.612 311.017 425.941 311.29 426.318 311.479C426.744 311.677 427.199 311.808 427.665 311.867C428.172 311.939 428.683 311.977 429.195 311.981V311.867Z" fill="#1C1C1C"/>
<path d="M444.105 314.265C443.317 314.307 442.532 314.15 441.821 313.808C441.284 313.526 440.822 313.118 440.474 312.621C440.117 312.139 439.868 311.586 439.744 310.999C439.609 310.422 439.54 309.832 439.538 309.24C439.536 308.613 439.629 307.99 439.812 307.39C439.967 306.806 440.231 306.256 440.588 305.768C440.942 305.282 441.403 304.883 441.935 304.603C442.544 304.297 443.218 304.148 443.899 304.169C444.498 304.148 445.094 304.273 445.634 304.535C446.08 304.757 446.471 305.077 446.776 305.471C447.071 305.857 447.281 306.301 447.392 306.773C447.508 307.229 447.569 307.697 447.575 308.167C447.575 308.167 447.575 308.304 447.575 308.304C447.575 308.304 447.575 308.304 447.575 308.167C447.58 308.015 447.555 307.864 447.5 307.723C447.445 307.581 447.362 307.453 447.255 307.344C447.04 307.123 446.773 306.958 446.479 306.865C446.127 306.736 445.757 306.659 445.383 306.636C444.988 306.614 444.591 306.614 444.196 306.636C443.623 306.637 443.051 306.675 442.483 306.75C442.019 306.801 441.57 306.94 441.159 307.162C440.81 307.357 440.519 307.641 440.314 307.984C440.089 308.388 439.978 308.846 439.995 309.309C439.987 309.726 440.072 310.14 440.246 310.519C440.403 310.852 440.638 311.142 440.931 311.365C441.256 311.574 441.61 311.736 441.981 311.844C442.416 311.938 442.86 311.984 443.305 311.981C443.949 312.009 444.591 311.884 445.178 311.616C445.689 311.353 446.128 310.969 446.456 310.497L448.397 311.981C448.273 312.222 448.128 312.451 447.963 312.666C447.746 312.964 447.484 313.226 447.187 313.443C446.806 313.71 446.392 313.926 445.954 314.083C445.352 314.247 444.727 314.308 444.105 314.265Z" fill="#1C1C1C"/>
<path d="M458.192 314.266C457.452 314.298 456.715 314.149 456.046 313.832C455.521 313.56 455.068 313.169 454.721 312.69C454.38 312.21 454.14 311.666 454.014 311.091C453.896 310.481 453.835 309.862 453.831 309.241C453.835 308.642 453.896 308.046 454.014 307.459C454.14 306.878 454.364 306.321 454.676 305.815C454.994 305.324 455.424 304.917 455.931 304.627C456.52 304.31 457.181 304.152 457.85 304.17C458.525 304.153 459.195 304.285 459.813 304.558C460.329 304.797 460.759 305.187 461.046 305.678C461.378 306.238 461.595 306.859 461.685 307.505C461.811 308.329 461.872 309.161 461.868 309.995H453.991V308.099H461.708C461.605 307.78 461.427 307.492 461.188 307.257C460.95 307.022 460.658 306.849 460.338 306.751C459.608 306.478 458.835 306.339 458.055 306.34C457.652 306.305 457.247 306.305 456.845 306.34C456.46 306.398 456.084 306.506 455.726 306.66C455.399 306.787 455.097 306.973 454.836 307.208C454.588 307.438 454.407 307.73 454.31 308.053V309.812C454.407 310.178 454.578 310.52 454.813 310.817C455.04 311.087 455.31 311.318 455.612 311.502C455.939 311.669 456.284 311.799 456.639 311.89C457.008 311.963 457.382 312.002 457.758 312.005C458.368 312.032 458.975 311.898 459.516 311.616C459.927 311.37 460.284 311.044 460.566 310.657L462.347 312.142L461.913 312.758C461.703 313.013 461.457 313.236 461.183 313.421C460.828 313.653 460.444 313.837 460.041 313.969C459.447 314.174 458.821 314.275 458.192 314.266V314.266Z" fill="#1C1C1C"/>
<path d="M472.531 306.591H467.964V304.307H472.531V306.591ZM483.102 314.128H467.941V311.844H483.102V314.128ZM470.567 314.128H470.339V304.307H470.567V314.128ZM477.599 306.591H473.444V304.307H477.691L477.599 306.591ZM475.636 314.128H475.408V304.307H475.636V314.128ZM483.102 306.591H478.536V304.307H483.102V306.591ZM483.102 316.732H480.385L482.988 314.128H480.499V311.844H483.102V316.732ZM480.636 314.128H480.408V304.307H480.636V314.128Z" fill="#1C1C1C"/>
<path d="M493.49 314.266C492.75 314.298 492.013 314.149 491.344 313.832C490.819 313.56 490.366 313.169 490.019 312.69C489.679 312.21 489.438 311.666 489.311 311.091C489.194 310.481 489.133 309.862 489.129 309.241C489.133 308.642 489.194 308.046 489.311 307.459C489.438 306.878 489.662 306.321 489.974 305.815C490.292 305.324 490.723 304.917 491.23 304.627C491.818 304.31 492.479 304.152 493.147 304.17C493.823 304.153 494.493 304.285 495.111 304.558C495.626 304.797 496.057 305.187 496.344 305.678C496.676 306.238 496.893 306.859 496.983 307.505C497.109 308.329 497.171 309.161 497.166 309.995H489.289V308.099H496.892C496.789 307.78 496.61 307.492 496.372 307.257C496.133 307.022 495.842 306.849 495.522 306.751C494.792 306.478 494.018 306.339 493.239 306.34C492.836 306.305 492.431 306.305 492.029 306.34C491.644 306.398 491.268 306.506 490.91 306.66C490.583 306.787 490.281 306.973 490.019 307.208C489.772 307.438 489.591 307.73 489.494 308.053V309.812C489.591 310.178 489.762 310.52 489.997 310.817C490.224 311.087 490.494 311.318 490.796 311.502C491.123 311.669 491.467 311.799 491.823 311.89C492.191 311.963 492.566 312.002 492.942 312.005C493.552 312.032 494.158 311.898 494.7 311.616C495.111 311.37 495.468 311.044 495.75 310.657L497.531 312.142L497.097 312.758C496.887 313.013 496.641 313.236 496.367 313.421C496.012 313.653 495.628 313.837 495.225 313.969C494.667 314.162 494.081 314.262 493.49 314.266V314.266Z" fill="#1C1C1C"/>
<path d="M508.104 306.591H503.24V304.307H508.104V306.591ZM508.104 314.128H503.24V311.844H508.104V314.128ZM505.82 314.128H505.592V304.307H505.82V314.128ZM511.528 310.177H505.706V308.213H511.528V310.177ZM514.04 306.591H509.2V304.307H514.04V306.591ZM514.04 314.128H509.2V311.844H514.04V314.128ZM511.757 314.128H511.528V304.307H511.757V314.128Z" fill="#1C1C1C"/>
<path d="M524.886 306.59H519.977V304.306H524.886V306.59ZM522.488 314.128H519.977V311.844H522.488V314.128ZM522.602 314.128H522.374V304.306H522.602V314.128ZM528.242 306.567H528.128L523.561 314.128H522.465V311.844H522.579L527.146 304.283H528.242V306.567ZM530.753 314.128H525.844V311.844H530.753V314.128ZM528.47 314.128H528.242V304.306H528.47V314.128ZM530.753 306.59H528.242V304.306H530.753V306.59Z" fill="#1C1C1C"/>
<path d="M541.095 314.266C540.355 314.297 539.619 314.148 538.949 313.832C538.425 313.559 537.971 313.168 537.625 312.69C537.284 312.209 537.043 311.666 536.917 311.091C536.8 310.481 536.739 309.861 536.734 309.24C536.739 308.642 536.8 308.046 536.917 307.459C537.043 306.877 537.267 306.321 537.579 305.814C537.897 305.324 538.328 304.917 538.835 304.626C539.423 304.308 540.084 304.15 540.753 304.17C541.428 304.152 542.099 304.285 542.716 304.558C543.232 304.797 543.662 305.187 543.949 305.677C544.282 306.238 544.499 306.859 544.589 307.505C544.715 308.328 544.776 309.161 544.771 309.994H536.894V308.098H544.497C544.391 307.782 544.211 307.495 543.973 307.261C543.735 307.027 543.446 306.852 543.128 306.751C542.397 306.479 541.624 306.34 540.844 306.34C540.442 306.305 540.037 306.305 539.634 306.34C539.249 306.398 538.873 306.506 538.515 306.659C538.188 306.787 537.886 306.973 537.625 307.208C537.378 307.437 537.196 307.729 537.1 308.053V309.811C537.187 310.181 537.359 310.525 537.602 310.816C537.83 311.087 538.099 311.318 538.401 311.502C538.728 311.668 539.073 311.799 539.429 311.89C539.797 311.963 540.172 312.001 540.547 312.004C541.157 312.03 541.763 311.896 542.306 311.616C542.712 311.364 543.068 311.038 543.356 310.657L545.137 312.141L544.703 312.758C544.492 313.012 544.246 313.236 543.972 313.42C543.615 313.648 543.232 313.832 542.831 313.969C542.272 314.161 541.686 314.262 541.095 314.266V314.266Z" fill="#1C1C1C"/>
<path d="M95.5712 275.571C95.5757 274.531 95.2715 273.513 94.6973 272.646C94.123 271.779 93.3044 271.103 92.3452 270.701C91.386 270.3 90.3295 270.193 89.3093 270.393C88.2891 270.593 87.3513 271.092 86.6146 271.826C85.8779 272.559 85.3755 273.495 85.171 274.515C84.9665 275.535 85.0691 276.592 85.4658 277.554C85.8626 278.515 86.5358 279.337 87.3998 279.915C88.2639 280.493 89.2802 280.802 90.3198 280.802C91.7086 280.802 93.0408 280.252 94.025 279.271C95.0092 278.291 95.5651 276.961 95.5712 275.571Z" fill="#1C1C1C"/>
<path d="M129.614 275.571C129.619 274.531 129.314 273.513 128.74 272.646C128.166 271.779 127.347 271.103 126.388 270.701C125.429 270.3 124.372 270.193 123.352 270.393C122.332 270.593 121.394 271.092 120.657 271.826C119.921 272.559 119.418 273.495 119.214 274.515C119.009 275.535 119.112 276.592 119.509 277.554C119.906 278.515 120.579 279.337 121.443 279.915C122.307 280.493 123.323 280.802 124.363 280.802C125.752 280.802 127.084 280.252 128.068 279.271C129.052 278.291 129.608 276.961 129.614 275.571V275.571Z" fill="#1C1C1C"/>
<path d="M163.634 275.571C163.638 274.53 163.333 273.511 162.758 272.644C162.183 271.777 161.363 271.1 160.402 270.699C159.442 270.299 158.384 270.193 157.363 270.395C156.343 270.597 155.405 271.098 154.669 271.834C153.933 272.57 153.433 273.508 153.231 274.529C153.029 275.55 153.135 276.609 153.535 277.569C153.935 278.53 154.612 279.351 155.479 279.926C156.346 280.502 157.365 280.806 158.405 280.802C159.79 280.796 161.116 280.243 162.096 279.263C163.075 278.284 163.628 276.957 163.634 275.571Z" fill="#1C1C1C"/>
<path d="M197.677 275.571C197.681 274.531 197.377 273.513 196.803 272.646C196.229 271.779 195.41 271.103 194.451 270.701C193.492 270.3 192.435 270.193 191.415 270.393C190.395 270.593 189.457 271.092 188.72 271.826C187.983 272.559 187.481 273.495 187.276 274.515C187.072 275.535 187.175 276.592 187.571 277.554C187.968 278.515 188.641 279.337 189.505 279.915C190.369 280.493 191.386 280.802 192.425 280.802C193.814 280.802 195.146 280.252 196.131 279.271C197.115 278.291 197.671 276.961 197.677 275.571V275.571Z" fill="#1C1C1C"/>
<path d="M231.696 275.571C231.701 274.53 231.396 273.511 230.821 272.644C230.245 271.777 229.425 271.1 228.465 270.699C227.505 270.299 226.447 270.193 225.426 270.395C224.405 270.597 223.467 271.098 222.731 271.834C221.996 272.57 221.495 273.508 221.293 274.529C221.091 275.55 221.197 276.609 221.598 277.569C221.998 278.53 222.674 279.351 223.542 279.926C224.409 280.502 225.427 280.806 226.467 280.802C227.854 280.802 229.184 280.251 230.165 279.27C231.145 278.289 231.696 276.959 231.696 275.571V275.571Z" fill="#1C1C1C"/>
<path d="M265.739 275.571C265.744 274.531 265.439 273.513 264.865 272.646C264.291 271.779 263.472 271.103 262.513 270.701C261.554 270.3 260.497 270.193 259.477 270.393C258.457 270.593 257.519 271.092 256.782 271.826C256.046 272.559 255.543 273.495 255.339 274.515C255.134 275.535 255.237 276.592 255.634 277.554C256.031 278.515 256.704 279.337 257.568 279.915C258.432 280.493 259.448 280.802 260.488 280.802C261.876 280.802 263.209 280.252 264.193 279.271C265.177 278.291 265.733 276.961 265.739 275.571Z" fill="#1C1C1C"/>
<path d="M299.759 275.571C299.763 274.53 299.458 273.511 298.883 272.644C298.308 271.777 297.488 271.1 296.527 270.699C295.567 270.299 294.509 270.193 293.488 270.395C292.468 270.597 291.53 271.098 290.794 271.834C290.058 272.57 289.558 273.508 289.356 274.529C289.154 275.55 289.26 276.609 289.66 277.569C290.06 278.53 290.737 279.351 291.604 279.926C292.471 280.502 293.49 280.806 294.53 280.802C295.917 280.802 297.247 280.251 298.227 279.27C299.208 278.289 299.759 276.959 299.759 275.571V275.571Z" fill="#1C1C1C"/>
<path d="M333.849 275.571C333.853 274.531 333.549 273.513 332.975 272.646C332.4 271.779 331.582 271.103 330.623 270.701C329.664 270.3 328.607 270.193 327.587 270.393C326.566 270.593 325.629 271.092 324.892 271.826C324.155 272.559 323.653 273.495 323.448 274.515C323.244 275.535 323.346 276.592 323.743 277.554C324.14 278.515 324.813 279.337 325.677 279.915C326.541 280.493 327.557 280.802 328.597 280.802C329.986 280.802 331.318 280.252 332.302 279.271C333.287 278.291 333.842 276.961 333.849 275.571Z" fill="#1C1C1C"/>
<path d="M367.845 275.571C367.849 274.531 367.545 273.513 366.971 272.646C366.396 271.779 365.578 271.103 364.619 270.701C363.66 270.3 362.603 270.193 361.583 270.393C360.563 270.593 359.625 271.092 358.888 271.826C358.151 272.559 357.649 273.495 357.444 274.515C357.24 275.535 357.342 276.592 357.739 277.554C358.136 278.515 358.809 279.337 359.673 279.915C360.537 280.493 361.553 280.802 362.593 280.802C363.982 280.802 365.314 280.252 366.298 279.271C367.282 278.291 367.839 276.961 367.845 275.571Z" fill="#1C1C1C"/>
<path d="M401.865 275.571C401.87 274.53 401.565 273.511 400.989 272.644C400.414 271.777 399.594 271.1 398.634 270.699C397.673 270.299 396.615 270.193 395.595 270.395C394.574 270.597 393.636 271.098 392.9 271.834C392.164 272.57 391.664 273.508 391.462 274.529C391.26 275.55 391.366 276.609 391.766 277.569C392.167 278.53 392.843 279.351 393.71 279.926C394.577 280.502 395.596 280.806 396.636 280.802C398.021 280.796 399.348 280.243 400.327 279.263C401.306 278.284 401.859 276.957 401.865 275.571Z" fill="#1C1C1C"/>
<path d="M435.907 275.571C435.912 274.531 435.608 273.513 435.033 272.646C434.459 271.779 433.64 271.103 432.681 270.701C431.722 270.3 430.665 270.193 429.645 270.393C428.625 270.593 427.687 271.092 426.951 271.826C426.214 272.559 425.711 273.495 425.507 274.515C425.302 275.535 425.405 276.592 425.802 277.554C426.199 278.515 426.872 279.337 427.736 279.915C428.6 280.493 429.616 280.802 430.656 280.802C432.045 280.802 433.377 280.252 434.361 279.271C435.345 278.291 435.901 276.961 435.907 275.571Z" fill="#1C1C1C"/>
<path d="M469.928 275.571C469.932 274.53 469.627 273.511 469.052 272.644C468.477 271.777 467.657 271.1 466.696 270.699C465.736 270.299 464.678 270.193 463.657 270.395C462.637 270.597 461.699 271.098 460.963 271.834C460.227 272.57 459.726 273.508 459.525 274.529C459.323 275.55 459.429 276.609 459.829 277.569C460.229 278.53 460.906 279.351 461.773 279.926C462.64 280.502 463.659 280.806 464.699 280.802C466.086 280.802 467.416 280.251 468.396 279.27C469.377 278.289 469.928 276.959 469.928 275.571V275.571Z" fill="#1C1C1C"/>
<path d="M503.971 275.571C503.975 274.531 503.671 273.513 503.097 272.646C502.522 271.779 501.704 271.103 500.745 270.701C499.786 270.3 498.729 270.193 497.709 270.393C496.689 270.593 495.751 271.092 495.014 271.826C494.277 272.559 493.775 273.495 493.57 274.515C493.366 275.535 493.468 276.592 493.865 277.554C494.262 278.515 494.935 279.337 495.799 279.915C496.663 280.493 497.679 280.802 498.719 280.802C500.108 280.802 501.44 280.252 502.424 279.271C503.408 278.291 503.965 276.961 503.971 275.571V275.571Z" fill="#1C1C1C"/>
<path d="M537.991 275.571C537.996 274.53 537.691 273.511 537.115 272.644C536.54 271.777 535.72 271.1 534.76 270.699C533.799 270.299 532.742 270.193 531.721 270.395C530.7 270.597 529.762 271.098 529.026 271.834C528.29 272.57 527.79 273.508 527.588 274.529C527.386 275.55 527.492 276.609 527.892 277.569C528.293 278.53 528.969 279.351 529.836 279.926C530.703 280.502 531.722 280.806 532.762 280.802C534.149 280.802 535.479 280.251 536.46 279.27C537.44 278.289 537.991 276.959 537.991 275.571V275.571Z" fill="#1C1C1C"/>
<path d="M572.033 275.571C572.038 274.53 571.733 273.511 571.158 272.644C570.582 271.777 569.762 271.1 568.802 270.699C567.841 270.299 566.784 270.193 565.763 270.395C564.742 270.597 563.804 271.098 563.069 271.834C562.333 272.57 561.832 273.508 561.63 274.529C561.428 275.55 561.534 276.609 561.934 277.569C562.335 278.53 563.011 279.351 563.878 279.926C564.746 280.502 565.764 280.806 566.805 280.802C568.19 280.796 569.516 280.243 570.495 279.263C571.474 278.284 572.027 276.957 572.033 275.571V275.571Z" fill="#1C1C1C"/>
</svg>
