<svg width="750" height="354" viewBox="0 0 750 354" fill="none" xmlns="http://www.w3.org/2000/svg">
<path d="M747.905 346.792C744.823 346.792 741.867 345.567 739.687 343.387C737.508 341.207 736.283 338.249 736.283 335.166C736.283 332.082 737.508 329.125 739.687 326.945C741.867 324.764 744.823 323.54 747.905 323.54H748.293V319.2H747.905C746.337 319.269 744.771 319.02 743.302 318.468C741.833 317.916 740.491 317.071 739.357 315.986C738.222 314.901 737.32 313.597 736.703 312.153C736.087 310.709 735.769 309.155 735.769 307.585C735.769 306.015 736.087 304.461 736.703 303.017C737.32 301.573 738.222 300.269 739.357 299.184C740.491 298.098 741.833 297.254 743.302 296.701C744.771 296.149 746.337 295.9 747.905 295.97H748.293V291.402H747.905C744.823 291.402 741.867 290.177 739.687 287.996C737.508 285.816 736.283 282.859 736.283 279.775C736.283 276.692 737.508 273.735 739.687 271.554C741.867 269.374 744.823 268.149 747.905 268.149H748.293V263.581H747.905C744.823 263.581 741.867 262.356 739.687 260.175C737.508 257.995 736.283 255.038 736.283 251.954C736.283 248.871 737.508 245.914 739.687 243.733C741.867 241.553 744.823 240.328 747.905 240.328H748.293V234.549C737.349 229.42 728.093 221.278 721.608 211.075C715.124 200.873 711.68 189.033 711.68 176.943C711.68 164.853 715.124 153.013 721.608 142.81C728.093 132.608 737.349 124.465 748.293 119.337V114.152H747.905C744.823 114.152 741.867 112.927 739.687 110.746C737.508 108.566 736.283 105.609 736.283 102.525C736.283 99.4419 737.508 96.4847 739.687 94.3043C741.867 92.124 744.823 90.8991 747.905 90.8991H748.293V86.5363H747.905C744.823 86.5363 741.867 85.3114 739.687 83.1311C737.508 80.9507 736.283 77.9935 736.283 74.91C736.283 71.8265 737.508 68.8693 739.687 66.689C741.867 64.5086 744.823 63.2837 747.905 63.2837H748.293V58.7154H747.905C744.823 58.7154 741.867 57.4905 739.687 55.3102C737.508 53.1298 736.283 50.1726 736.283 47.0891C736.283 44.0056 737.508 41.0484 739.687 38.8681C741.867 36.6877 744.823 35.4628 747.905 35.4628H748.293V30.8945H747.905C744.823 30.8945 741.867 29.6696 739.687 27.4892C737.508 25.3089 736.283 22.3517 736.283 19.2682C736.283 16.1847 737.508 13.2275 739.687 11.0471C741.867 8.86677 744.823 7.64185 747.905 7.64185H748.293V2H2V8.19006C4.99014 8.32274 7.81385 9.60445 9.88285 11.7681C11.9519 13.9318 13.1066 16.8107 13.1066 19.805C13.1066 22.7993 11.9519 25.6781 9.88285 27.8418C7.81385 30.0055 4.99014 31.2871 2 31.4198V35.9881C4.99014 36.1208 7.81385 37.4025 9.88285 39.5662C11.9519 41.7299 13.1066 44.6087 13.1066 47.603C13.1066 50.5973 11.9519 53.4762 9.88285 55.6399C7.81385 57.8036 4.99014 59.0852 2 59.2179V63.7862C5.07618 63.7862 8.02637 65.0087 10.2016 67.1848C12.3767 69.3609 13.5988 72.3123 13.5988 75.3897C13.5988 78.4671 12.3767 81.4185 10.2016 83.5946C8.02637 85.7707 5.07618 86.9932 2 86.9932V91.3102C4.99014 91.4429 7.81385 92.7246 9.88285 94.8883C11.9519 97.052 13.1066 99.9308 13.1066 102.925C13.1066 105.919 11.9519 108.798 9.88285 110.962C7.81385 113.126 4.99014 114.407 2 114.54V119.634C12.9618 124.758 22.2352 132.904 28.7321 143.116C35.229 153.327 38.6799 165.181 38.6799 177.286C38.6799 189.39 35.229 201.244 28.7321 211.455C22.2352 221.667 12.9618 229.813 2 234.937V240.648C4.99014 240.78 7.81385 242.062 9.88285 244.226C11.9519 246.39 13.1066 249.268 13.1066 252.263C13.1066 255.257 11.9519 258.136 9.88285 260.3C7.81385 262.463 4.99014 263.745 2 263.878V268.446C5.07618 268.446 8.02637 269.668 10.2016 271.844C12.3767 274.021 13.5988 276.972 13.5988 280.049C13.5988 283.127 12.3767 286.078 10.2016 288.254C8.02637 290.43 5.07618 291.653 2 291.653V296.221C4.99014 296.354 7.81385 297.635 9.88285 299.799C11.9519 301.963 13.1066 304.842 13.1066 307.836C13.1066 310.83 11.9519 313.709 9.88285 315.873C7.81385 318.037 4.99014 319.318 2 319.451V323.745C4.99014 323.878 7.81385 325.159 9.88285 327.323C11.9519 329.487 13.1066 332.366 13.1066 335.36C13.1066 338.354 11.9519 341.233 9.88285 343.397C7.81385 345.56 4.99014 346.842 2 346.975V352H748.293V346.952L747.905 346.792Z" stroke="#1C1C1C" stroke-width="3"/>
<path d="M684.523 25.1157H66.7291C61.2186 25.1157 56.7515 29.5847 56.7515 35.0974V319.2C56.7515 324.712 61.2186 329.181 66.7291 329.181H684.523C690.033 329.181 694.5 324.712 694.5 319.2V35.0974C694.5 29.5847 690.033 25.1157 684.523 25.1157Z" stroke="#AAAAAA" stroke-width="1.5" stroke-miterlimit="10"/>
<path d="M605.227 25.1157V329.159" stroke="#AAAAAA" stroke-width="1.5" stroke-miterlimit="10"/>
<path d="M56.7515 116.664H605.227" stroke="#AAAAAA" stroke-width="1.5" stroke-miterlimit="10"/>
<path d="M667.261 270.867C667.322 272.708 666.786 274.519 665.731 276.029C664.663 277.503 663.253 278.694 661.622 279.501C659.714 280.453 657.674 281.115 655.571 281.465C653.176 281.906 650.745 282.12 648.31 282.105C645.868 282.118 643.43 281.904 641.027 281.465C638.932 281.112 636.9 280.45 634.999 279.501C633.364 278.691 631.947 277.5 630.867 276.029C629.831 274.511 629.303 272.704 629.36 270.867C629.306 269.016 629.833 267.195 630.867 265.659C631.944 264.179 633.361 262.981 634.999 262.164C636.897 261.213 638.93 260.558 641.027 260.223C643.432 259.803 645.869 259.596 648.31 259.606C650.744 259.595 653.174 259.802 655.571 260.223C657.676 260.554 659.717 261.209 661.622 262.164C663.259 262.972 664.671 264.172 665.731 265.659C666.782 267.188 667.318 269.012 667.261 270.867V270.867ZM661.599 270.867C661.713 269.332 661.457 267.793 660.853 266.378C660.249 264.963 659.315 263.714 658.128 262.735C655.147 261 651.76 260.086 648.31 260.086C644.861 260.086 641.474 261 638.492 262.735C637.396 263.784 636.524 265.045 635.928 266.44C635.332 267.836 635.025 269.338 635.025 270.855C635.025 272.373 635.332 273.875 635.928 275.27C636.524 276.666 637.396 277.926 638.492 278.975C641.474 280.711 644.861 281.625 648.31 281.625C651.76 281.625 655.147 280.711 658.128 278.975C659.314 278.001 660.249 276.756 660.853 275.345C661.457 273.934 661.713 272.398 661.599 270.867V270.867Z" fill="#AAAAAA"/>
<path d="M630.707 248.391V246.381C630.732 245.737 630.64 245.095 630.433 244.485C630.279 244.075 630.009 243.718 629.657 243.457V241.036H636.279V248.391H630.707ZM630.182 241.538V241.013H667.034V241.538H630.182ZM661.325 248.208V234.32H667.034V248.231L661.325 248.208Z" fill="#AAAAAA"/>
<path d="M663.334 224.796L653.356 216.345C651.552 214.883 649.886 213.467 648.31 212.142C646.735 210.817 645.228 209.629 643.744 208.624C642.472 207.691 641.12 206.873 639.703 206.18C638.54 205.596 637.259 205.283 635.958 205.266C635.12 205.242 634.288 205.413 633.527 205.766C632.766 206.119 632.098 206.644 631.574 207.299C631.039 207.976 630.643 208.753 630.41 209.584C630.15 210.482 630.019 211.412 630.022 212.347C629.991 213.389 630.185 214.426 630.593 215.385C630.944 216.182 631.466 216.892 632.122 217.464C632.788 218.025 633.567 218.438 634.405 218.674C635.219 218.927 636.065 219.058 636.917 219.063C637.951 219.087 638.978 218.893 639.931 218.492C640.677 218.178 641.358 217.729 641.94 217.167L645.411 221.484C644.517 222.492 643.44 223.322 642.237 223.928C641.027 224.541 639.688 224.854 638.333 224.842C636.953 224.875 635.592 224.518 634.405 223.814C633.313 223.135 632.385 222.223 631.688 221.141C630.948 220.006 630.4 218.755 630.067 217.441C629.722 216.082 629.545 214.686 629.542 213.284C629.412 210.876 630.149 208.501 631.62 206.591C632.429 205.737 633.419 205.074 634.517 204.651C635.615 204.228 636.794 204.056 637.967 204.147C639.416 204.168 640.856 204.359 642.26 204.718C644.053 205.163 645.802 205.767 647.488 206.523C649.538 207.418 651.515 208.472 653.402 209.675C655.625 211.064 657.76 212.589 659.795 214.243L666.644 219.816L666.416 220.182V202.48L659.019 209.835V202.343H667.033V220.456L663.334 224.796Z" fill="#AAAAAA"/>
<path d="M667.262 180.209C667.393 181.758 667.214 183.317 666.736 184.795C666.257 186.274 665.489 187.642 664.476 188.82C663.49 189.766 662.321 190.5 661.041 190.98C659.762 191.459 658.398 191.672 657.033 191.607V185.394C659.612 185.624 662.193 184.98 664.362 183.567C665.093 182.973 665.679 182.219 666.074 181.364C666.47 180.509 666.665 179.575 666.645 178.633C666.662 177.429 666.413 176.235 665.915 175.138C665.458 174.15 664.796 173.271 663.974 172.557C663.155 171.871 662.219 171.337 661.211 170.981C660.153 170.58 659.032 170.371 657.901 170.365C656.633 170.331 655.379 170.638 654.271 171.255C653.247 171.864 652.386 172.71 651.759 173.722C651.046 174.889 650.543 176.173 650.275 177.514C649.962 179.101 649.809 180.716 649.818 182.334V184.618H644.201V182.334C644.349 179.569 643.824 176.81 642.672 174.293C642.148 173.357 641.366 172.591 640.418 172.089C639.47 171.586 638.398 171.368 637.329 171.461C636.357 171.455 635.391 171.617 634.475 171.941C633.62 172.23 632.84 172.706 632.192 173.334C631.516 173.975 630.986 174.754 630.639 175.618C630.239 176.549 630.037 177.552 630.046 178.565C629.999 179.428 630.135 180.292 630.446 181.099C630.757 181.906 631.235 182.638 631.849 183.247C633.092 184.383 634.733 184.982 636.416 184.915C637.344 184.941 638.269 184.778 639.133 184.435C639.782 184.154 640.388 183.785 640.936 183.339L643.699 188.181C642.942 188.931 642.041 189.522 641.051 189.917C640.009 190.315 638.9 190.509 637.785 190.488C636.471 190.53 635.168 190.239 633.996 189.643C632.961 189.096 632.069 188.314 631.393 187.359C630.689 186.355 630.171 185.233 629.863 184.047C629.541 182.754 629.38 181.427 629.383 180.095C629.35 178.831 629.504 177.568 629.84 176.349C630.108 175.403 630.558 174.519 631.164 173.745C631.884 172.804 632.847 172.077 633.95 171.644C635.096 171.182 636.322 170.949 637.557 170.958C638.838 170.961 640.11 171.169 641.325 171.575C642.545 171.992 643.676 172.635 644.658 173.471C645.623 174.358 646.399 175.43 646.941 176.623C647.563 177.992 647.875 179.482 647.855 180.986H645.96C645.925 179.28 646.268 177.587 646.964 176.029C647.569 174.677 648.466 173.476 649.59 172.512C650.668 171.568 651.926 170.853 653.289 170.41C654.631 169.939 656.044 169.7 657.467 169.702C659.084 169.698 660.684 170.025 662.17 170.662C663.661 171.33 664.911 172.437 665.755 173.836C666.263 174.643 666.627 175.532 666.828 176.463C667.12 177.69 667.266 178.948 667.262 180.209V180.209Z" fill="#AAAAAA"/>
<path d="M631.072 142.544L654.042 153.051V136.673H659.658V155.518L657.375 160.771L629.748 148.163V141.904H667.033V142.452L631.072 142.544Z" fill="#AAAAAA"/>
<path d="M647.215 124.681L629.657 121.483V106.248L625.091 110.657V106.088H630.068V116.595L629.908 115.796L646.667 118.902L648.357 121.369L647.215 124.681ZM667.262 116.07C667.295 117.789 667.048 119.501 666.531 121.141C666.105 122.451 665.395 123.652 664.454 124.658C663.556 125.581 662.453 126.277 661.234 126.691C659.883 127.155 658.461 127.379 657.033 127.354V121.209C658.518 121.244 660.001 121.075 661.44 120.707C662.503 120.439 663.503 119.966 664.385 119.313C665.114 118.766 665.682 118.032 666.029 117.189C666.376 116.334 666.547 115.417 666.531 114.494C666.547 113.387 666.329 112.29 665.892 111.273C665.48 110.296 664.847 109.428 664.042 108.738C663.146 107.975 662.106 107.4 660.983 107.048C659.629 106.635 658.22 106.435 656.805 106.454C654.526 106.335 652.281 107.04 650.48 108.441C649.639 109.311 648.999 110.355 648.605 111.5C648.21 112.644 648.071 113.861 648.197 115.065C648.152 116.441 648.369 117.813 648.836 119.108C649.137 119.977 649.544 120.805 650.047 121.575L647.261 124.681L644.795 121.895C644.288 121.112 643.946 120.233 643.79 119.313C643.66 118.559 643.591 117.795 643.585 117.029C643.501 115.045 643.967 113.077 644.932 111.342C645.773 109.949 646.931 108.775 648.311 107.916C649.616 107.099 651.066 106.541 652.581 106.271C653.92 106.009 655.28 105.863 656.645 105.837C658.439 105.816 660.22 106.133 661.896 106.773C663.403 107.327 664.708 108.322 665.641 109.629C666.824 111.519 667.39 113.73 667.262 115.956V116.07Z" fill="#AAAAAA"/>
<path d="M667.261 82.425C667.319 84.3641 666.828 86.2802 665.846 87.9526C664.873 89.4867 663.531 90.7513 661.942 91.6301C660.111 92.6266 658.128 93.3135 656.074 93.663C653.687 94.1062 651.263 94.3203 648.836 94.3025C646.254 94.324 643.676 94.0868 641.141 93.5944C638.976 93.1744 636.893 92.4028 634.977 91.3103C633.303 90.4034 631.882 89.0921 630.844 87.4958C629.816 85.8143 629.301 83.8696 629.36 81.8996C629.279 80.5615 629.487 79.2216 629.972 77.9718C630.457 76.722 631.206 75.5918 632.168 74.6589C634.441 72.8301 637.318 71.9248 640.228 72.1235V78.2221C639.513 78.2207 638.8 78.3051 638.105 78.4734C637.372 78.6484 636.681 78.9667 636.072 79.4099C635.437 79.9231 634.922 80.5705 634.566 81.3057C634.139 82.3002 633.937 83.3763 633.972 84.4579C633.98 85.5316 634.165 86.5966 634.52 87.61C634.938 88.7781 635.673 89.8064 636.643 90.5794C637.994 91.6434 639.548 92.4206 641.21 92.8635C643.664 93.5283 646.203 93.8285 648.744 93.7544C650.069 93.7544 651.416 93.7543 652.763 93.5944C653.899 93.5279 655.029 93.3752 656.142 93.1376V92.9777C654.644 92.9975 653.158 92.7018 651.781 92.1098C650.541 91.5812 649.422 90.8038 648.493 89.8256C647.593 88.8573 646.902 87.7145 646.461 86.4679C645.983 85.1821 645.743 83.8197 645.754 82.4478C645.706 80.8092 646.042 79.1821 646.735 77.6968C647.356 76.4514 648.235 75.3533 649.315 74.4761C650.354 73.6411 651.538 73.006 652.809 72.6031C655.25 71.8107 657.879 71.8107 660.321 72.6031C661.591 73.006 662.775 73.6411 663.814 74.4761C664.887 75.3596 665.766 76.4562 666.394 77.6968C667.044 79.1846 667.341 80.803 667.261 82.425ZM661.69 82.5392C661.729 80.8209 661.568 79.1039 661.211 77.4227C660.973 76.3263 660.54 75.2818 659.932 74.3391C659.54 73.6919 658.958 73.1814 658.266 72.8772C657.686 72.6377 657.066 72.5136 656.439 72.5118C655.819 72.5136 655.206 72.6378 654.635 72.8772C653.939 73.186 653.351 73.6949 652.946 74.3391C652.356 75.2886 651.931 76.3312 651.69 77.4227C651.323 79.1027 651.155 80.8199 651.188 82.5392C651.154 84.2736 651.322 86.006 651.69 87.7013C651.931 88.7858 652.355 89.821 652.946 90.7621C653.365 91.3885 653.95 91.8865 654.635 92.2011C655.206 92.4406 655.819 92.5648 656.439 92.5666C657.066 92.5648 657.686 92.4407 658.266 92.2011C658.948 91.8913 659.526 91.3918 659.932 90.7621C660.542 89.8284 660.975 88.7911 661.211 87.7013C661.569 86.0048 661.73 84.2726 661.69 82.5392Z" fill="#AAAAAA"/>
<path d="M84.1503 88.4997C82.0948 88.5603 80.0536 88.1378 78.1909 87.2663C76.6318 86.4993 75.2778 85.3718 74.241 83.9771C73.1866 82.552 72.4118 80.9399 71.9578 79.2261C71.0453 75.5821 71.0453 71.7692 71.9578 68.1251C72.4071 66.4166 73.1824 64.811 74.241 63.3969C75.2771 61.9957 76.6308 60.8606 78.1909 60.0849C80.0481 59.1947 82.0919 58.7638 84.1503 58.8286C84.7439 58.8286 85.406 58.8286 86.1366 58.8286C86.8673 58.8286 87.5751 59.0114 88.3057 59.1484C89.0154 59.283 89.7167 59.4584 90.4063 59.6738C91.0169 59.8738 91.5999 60.1501 92.1415 60.4961V71.2772H86.616L91.936 65.8866C90.8459 65.1543 89.631 64.6279 88.3513 64.3334C86.5591 63.8915 84.7172 63.6842 82.8717 63.7167C81.0794 63.667 79.2909 63.906 77.5746 64.4248C76.2824 64.8236 75.1015 65.5199 74.1269 66.4577C73.2648 67.3384 72.6232 68.4107 72.2546 69.587C71.4942 72.1898 71.4942 74.9559 72.2546 77.5586C72.6183 78.7304 73.2608 79.7964 74.1269 80.6651C75.1015 81.6029 76.2824 82.2992 77.5746 82.698C79.2854 83.2452 81.0762 83.5 82.8717 83.4517C84.7172 83.4843 86.5591 83.277 88.3513 82.835C89.6393 82.5299 90.8564 81.9793 91.936 81.2133L86.616 75.8455H92.1415V86.6496C91.5939 86.9785 91.0121 87.2465 90.4063 87.449C89.7203 87.6826 89.0183 87.8659 88.3057 87.9972C87.5751 88.1343 86.8673 88.2485 86.1366 88.317C85.406 88.3855 84.8124 88.4997 84.1503 88.4997Z" fill="#AAAAAA"/>
<path d="M111.755 88.5006C110.443 88.5439 109.141 88.2613 107.965 87.6783C106.985 87.1161 106.149 86.3342 105.522 85.3941C104.905 84.5034 104.463 83.5034 104.22 82.4476C103.959 81.4328 103.829 80.3889 103.832 79.3411C103.829 78.2858 103.959 77.2343 104.22 76.2118C104.463 75.156 104.905 74.156 105.522 73.2653C106.154 72.3596 106.991 71.616 107.965 71.0953C109.151 70.5389 110.445 70.2505 111.755 70.2505C113.065 70.2505 114.359 70.5389 115.545 71.0953C116.538 71.5967 117.387 72.3436 118.011 73.2653C118.644 74.1496 119.094 75.1513 119.335 76.2118C119.596 77.2343 119.726 78.2858 119.723 79.3411C119.726 80.3889 119.596 81.4328 119.335 82.4476C119.094 83.5081 118.644 84.5098 118.011 85.3941C117.391 86.3485 116.544 87.1335 115.545 87.6783C114.37 88.2632 113.067 88.5458 111.755 88.5006V88.5006ZM111.755 84.1835C112.679 84.1917 113.602 84.1306 114.518 84.0008C115.356 83.9035 116.173 83.6722 116.938 83.3155C117.627 82.9885 118.224 82.4937 118.673 81.8765C119.159 81.1572 119.399 80.2998 119.358 79.4325C119.403 78.5648 119.162 77.7063 118.673 76.9884C118.224 76.3713 117.627 75.8765 116.938 75.5494C116.174 75.1849 115.357 74.9458 114.518 74.8413C112.691 74.5978 110.841 74.5978 109.015 74.8413C108.167 74.9426 107.342 75.1818 106.572 75.5494C105.882 75.8765 105.286 76.3713 104.837 76.9884C104.347 77.7063 104.107 78.5648 104.152 79.4325C104.11 80.2998 104.351 81.1572 104.837 81.8765C105.286 82.4937 105.882 82.9885 106.572 83.3155C107.344 83.6753 108.169 83.9067 109.015 84.0008C109.922 84.1299 110.838 84.191 111.755 84.1835V84.1835Z" fill="#AAAAAA"/>
<path d="M129.769 88.2721V84.1606H133.993V88.2721H129.769ZM141.436 70.5928H146.002L134.449 88.2721H129.883L141.436 70.5928ZM130.203 74.7042V70.5928H137.44V74.7042H130.203ZM131.618 70.5928H132.097L138.719 78.6786L138.513 79.1812L131.618 70.5928ZM139.221 79.5009L139.381 79.0213L146.642 88.2721H146.162L139.221 79.5009ZM139.541 88.2721V84.1606H147.098V88.2721H139.541ZM141.824 70.5928H146.231V74.7271H141.824V70.5928Z" fill="#AAAAAA"/>
<path d="M156.071 70.5926H160.638V74.7041H156.071V70.5926ZM156.071 94.1878H165.204V98.2993H156.071V94.1878ZM160.364 70.5926H160.798V77.6049L160.661 77.9476V81.0997L160.798 81.4423V98.2993H160.364V70.5926ZM167.967 88.5003C167.032 88.5157 166.105 88.3286 165.25 87.9521C164.459 87.5999 163.746 87.0954 163.149 86.4674C162.531 85.7986 162.036 85.0252 161.688 84.1833C161.298 83.3403 161.022 82.4493 160.866 81.5337H160.547V77.0796H160.866C161.025 76.1647 161.302 75.2742 161.688 74.43C162.051 73.5956 162.544 72.8245 163.149 72.1458C163.74 71.5112 164.455 71.0057 165.25 70.6612C166.11 70.3029 167.035 70.1241 167.967 70.1358C169.042 70.1173 170.105 70.3521 171.072 70.821C171.952 71.274 172.73 71.9038 173.355 72.6712C174.043 73.525 174.562 74.5016 174.885 75.5492C175.245 76.7415 175.422 77.9814 175.41 79.2267C175.417 80.4642 175.24 81.6958 174.885 82.8813C174.562 83.9289 174.043 84.9056 173.355 85.7594C172.731 86.5336 171.953 87.1711 171.072 87.6324C170.121 88.1647 169.056 88.4623 167.967 88.5003V88.5003ZM167.967 84.1833C168.73 84.1789 169.492 84.1331 170.25 84.0463C171.041 83.9585 171.812 83.7424 172.533 83.4067C173.251 83.0948 173.873 82.5983 174.337 81.9677C174.854 81.2265 175.111 80.335 175.068 79.4323C175.111 78.5225 174.854 77.6237 174.337 76.874C173.873 76.2434 173.251 75.7469 172.533 75.435C171.809 75.1088 171.039 74.8932 170.25 74.7955C168.733 74.6182 167.201 74.6182 165.684 74.7955C164.895 74.8932 164.125 75.1088 163.401 75.435C162.683 75.7469 162.06 76.2434 161.597 76.874C161.086 77.6258 160.837 78.5249 160.889 79.4323C160.837 80.3325 161.086 81.2244 161.597 81.9677C162.06 82.5983 162.683 83.0948 163.401 83.4067C164.122 83.7424 164.893 83.9585 165.684 84.0463C166.442 84.1333 167.204 84.179 167.967 84.1833V84.1833Z" fill="#AAAAAA"/>
<path d="M190.982 88.5006C190.201 88.526 189.423 88.3859 188.699 88.0894C188.114 87.843 187.591 87.4683 187.169 86.993C186.778 86.5257 186.49 85.9808 186.324 85.3941C186.163 84.7906 186.078 84.1689 186.073 83.544C186.069 82.7658 186.201 81.993 186.462 81.2598C186.742 80.5238 187.215 79.8767 187.831 79.3868C188.584 78.7852 189.456 78.3494 190.389 78.1077C191.706 77.7573 193.067 77.5958 194.43 77.628H197.923V81.0086H191.667C190.31 80.9233 188.948 81.0858 187.649 81.4882C186.918 81.8308 186.576 82.2648 186.576 82.813C186.583 83.1454 186.702 83.4657 186.913 83.7225C187.125 83.9792 187.415 84.1577 187.74 84.2292C188.864 84.5699 190.038 84.7167 191.211 84.6632C192.02 84.6676 192.829 84.6142 193.631 84.5033C194.356 84.4006 195.058 84.1766 195.708 83.8409C196.383 83.5121 196.942 82.9872 197.312 82.3351C197.683 81.6829 197.848 80.9339 197.786 80.1863V77.5595C197.825 76.9435 197.656 76.3324 197.307 75.8235C196.956 75.3995 196.499 75.0763 195.982 74.887C195.386 74.6466 194.753 74.5077 194.11 74.4759C193.425 74.4759 192.672 74.4759 191.827 74.4759C190.704 74.4396 189.582 74.5627 188.494 74.8413C188.145 74.9012 187.829 75.0837 187.603 75.3559C187.377 75.6281 187.256 75.9722 187.261 76.3261C187.261 76.486 187.261 76.5773 187.055 76.5773C186.85 76.5773 186.85 76.5773 186.85 76.3261C186.749 74.7259 187.282 73.1504 188.334 71.9405C188.915 71.3977 189.603 70.9814 190.354 70.718C191.104 70.4546 191.902 70.3498 192.695 70.4101C193.318 70.4099 193.94 70.4866 194.544 70.6385C195.2 70.7922 195.8 71.1242 196.279 71.5979C196.882 72.1829 197.336 72.9033 197.604 73.6993C197.983 74.8632 198.153 76.085 198.106 77.3082V81.9907C198.071 82.7044 198.204 83.4164 198.494 84.0693C198.633 84.3113 198.837 84.5087 199.084 84.6382C199.33 84.7677 199.609 84.8239 199.887 84.8002C200.103 84.8197 200.32 84.7931 200.525 84.7222C200.729 84.6514 200.917 84.5378 201.074 84.3891C201.303 84.136 201.481 83.8413 201.599 83.5211L205.435 84.549C205.242 85.6154 204.752 86.6054 204.019 87.4042C203.649 87.797 203.198 88.1047 202.698 88.3058C202.197 88.507 201.659 88.5968 201.12 88.5691C200.516 88.6064 199.915 88.4718 199.385 88.1808C198.956 87.9271 198.601 87.5647 198.357 87.1301C198.102 86.645 197.932 86.1196 197.855 85.5769C197.819 84.9759 197.819 84.3733 197.855 83.7724V82.5389C197.612 84.2172 196.807 85.7633 195.572 86.9245C194.308 88.0328 192.66 88.599 190.982 88.5006V88.5006Z" fill="#AAAAAA"/>
<path d="M221.28 74.7042H212.535V70.5928H221.28V74.7042ZM221.28 88.2721H212.535V84.1606H221.28V88.2721ZM217.262 88.2721H216.85V70.5928H217.262V88.2721ZM227.536 81.1455H217.056V77.6051H227.536V81.1455ZM232.103 74.7042H223.38V70.5928H232.103V74.7042ZM232.103 88.2721H223.38V84.1606H232.103V88.2721ZM227.787 88.2721H227.376V70.5928H227.787V88.2721Z" fill="#AAAAAA"/>
<path d="M251.487 74.7042H242.651V70.5927H251.487V74.7042ZM247.172 88.272H242.605V84.1605H247.172V88.272ZM247.377 88.272H246.921V70.5927H247.332L247.377 88.272ZM257.538 74.5671H257.332L249.135 88.272H247.172V84.1834H247.377L255.551 70.4785H257.538V74.5671ZM262.104 88.272H253.268V84.1605H262.104V88.272ZM257.789 88.272H257.378V70.5927H257.789V88.272ZM262.104 74.7042H257.538V70.5927H262.104V74.7042Z" fill="#AAAAAA"/>
<path d="M288.178 79.341H283.452L288.018 74.7727H272.606L277.173 79.341H272.424V70.5928H288.064L288.178 79.341ZM284.867 88.2721H275.734V84.1606H284.867V88.2721ZM280.552 88.2721H280.141V70.5928H280.552V88.2721Z" fill="#AAAAAA"/>
<path d="M306.673 88.4999C305.35 88.5528 304.034 88.2865 302.837 87.7233C301.925 87.2272 301.142 86.5229 300.554 85.6675C299.93 84.8027 299.502 83.813 299.298 82.7666C298.841 80.613 298.841 78.3876 299.298 76.234C299.521 75.1909 299.923 74.1942 300.485 73.2874C301.09 72.3396 301.934 71.5681 302.932 71.0508C303.93 70.5335 305.047 70.2886 306.17 70.3409C307.387 70.2975 308.597 70.5318 309.709 71.0261C310.657 71.4478 311.454 72.1491 311.992 73.0362C312.585 74.0492 312.98 75.1653 313.157 76.3254C313.384 77.8372 313.491 79.3648 313.477 80.8936H299.298V77.4674H312.997C312.802 76.8974 312.478 76.3802 312.05 75.9562C311.623 75.5322 311.103 75.2129 310.531 75.0234C309.155 74.5299 307.701 74.29 306.239 74.3153C305.475 74.3048 304.711 74.3583 303.955 74.4752C303.275 74.5824 302.608 74.7663 301.969 75.0234C301.383 75.2658 300.843 75.6056 300.371 76.0284C299.918 76.4463 299.58 76.9732 299.389 77.5588V80.7337C299.548 81.394 299.852 82.0104 300.28 82.5382C300.696 83.0202 301.19 83.4293 301.741 83.7488C302.314 84.0687 302.929 84.307 303.568 84.4569C304.228 84.5942 304.901 84.6631 305.576 84.6625C306.687 84.7224 307.792 84.4776 308.773 83.9544C309.504 83.5128 310.141 82.9305 310.645 82.2413L313.842 84.9137C313.659 85.2107 313.385 85.5762 313.066 86.0102C312.69 86.4807 312.244 86.8893 311.741 87.2207C311.12 87.6478 310.434 87.9717 309.709 88.1801C308.723 88.459 307.696 88.5672 306.673 88.4999V88.4999Z" fill="#AAAAAA"/>
<path d="M355.009 79.2953C355.011 80.4246 354.889 81.5507 354.643 82.653C354.417 83.7097 353.999 84.716 353.41 85.6223C352.826 86.4872 352.043 87.1998 351.127 87.7009C350.038 88.2745 348.817 88.5503 347.588 88.5004C346.633 88.5732 345.674 88.4351 344.778 88.0956C343.882 87.7561 343.072 87.2237 342.405 86.536C341.202 85.1184 340.575 83.3006 340.647 81.4424C340.647 81.2825 340.647 81.1911 340.853 81.1911C341.058 81.1911 341.058 81.1911 341.058 81.4424C341.047 81.7253 341.098 82.0071 341.209 82.2678C341.319 82.5284 341.486 82.7613 341.697 82.9499C342.173 83.3462 342.725 83.6415 343.318 83.8179C344.013 84.0499 344.734 84.1956 345.465 84.2519C346.218 84.2519 346.972 84.2519 347.748 84.2519C348.653 84.257 349.556 84.1651 350.442 83.9777C351.239 83.8273 352.009 83.5579 352.725 83.1783C353.318 82.8419 353.832 82.3824 354.232 81.8307C354.631 81.2738 354.868 80.6178 354.917 79.9348V78.61C354.853 77.9054 354.609 77.2291 354.209 76.6456C353.81 76.0871 353.296 75.6199 352.702 75.2751C351.991 74.8887 351.219 74.6261 350.419 74.4985C349.531 74.3304 348.629 74.2463 347.725 74.2473C345.643 74.2436 343.579 74.6471 341.652 75.435L344.985 78.9755H341.401V71.689C343.206 70.7827 345.203 70.3207 347.223 70.3414C348.441 70.3027 349.652 70.545 350.762 71.0495C351.715 71.5 352.551 72.1644 353.205 72.991C353.88 73.8225 354.37 74.788 354.643 75.8233C354.93 76.9573 355.053 78.1264 355.009 79.2953V79.2953ZM354.757 81.0997H346.835V77.5821H354.757V81.0997Z" fill="#AAAAAA"/>
<path d="M381.311 79.341H376.539L381.106 74.7727H365.694L370.261 79.341H365.648V70.5928H381.311V79.341ZM377.978 88.2721H368.845V84.1606H377.978V88.2721ZM373.663 88.2721H373.251V70.5928H373.663V88.2721Z" fill="#AAAAAA"/>
<path d="M399.897 88.5006C398.585 88.5439 397.283 88.2613 396.107 87.6783C395.127 87.1161 394.29 86.3342 393.664 85.3941C393.047 84.5034 392.605 83.5034 392.362 82.4476C392.094 81.4337 391.956 80.3898 391.951 79.3411C391.956 78.2849 392.094 77.2335 392.362 76.2118C392.605 75.156 393.047 74.156 393.664 73.2653C394.296 72.3596 395.133 71.616 396.107 71.0953C397.293 70.5389 398.587 70.2505 399.897 70.2505C401.207 70.2505 402.501 70.5389 403.687 71.0953C404.673 71.6079 405.519 72.3526 406.153 73.2653C406.777 74.1548 407.226 75.1547 407.477 76.2118C407.726 77.2365 407.857 78.2865 407.865 79.3411C407.857 80.3882 407.727 81.4307 407.477 82.4476C407.226 83.5047 406.777 84.5046 406.153 85.3941C405.523 86.3402 404.678 87.1231 403.687 87.6783C402.511 88.2613 401.209 88.5439 399.897 88.5006V88.5006ZM399.897 84.1835C400.813 84.1924 401.729 84.1313 402.636 84.0008C403.482 83.9036 404.307 83.6723 405.08 83.3155C405.769 82.9885 406.366 82.4937 406.815 81.8765C407.301 81.1572 407.541 80.2998 407.5 79.4325C407.545 78.5648 407.304 77.7063 406.815 76.9884C406.366 76.3713 405.769 75.8765 405.08 75.5494C404.308 75.1848 403.483 74.9458 402.636 74.8413C401.728 74.7221 400.813 74.6611 399.897 74.6586C398.981 74.6626 398.066 74.7236 397.157 74.8413C396.31 74.9426 395.484 75.1818 394.714 75.5494C394.024 75.8765 393.428 76.3713 392.979 76.9884C392.489 77.7063 392.249 78.5648 392.294 79.4325C392.252 80.2998 392.492 81.1572 392.979 81.8765C393.428 82.4937 394.024 82.9885 394.714 83.3155C395.485 83.6753 396.311 83.9067 397.157 84.0008C398.064 84.1299 398.98 84.191 399.897 84.1835Z" fill="#AAAAAA"/>
<path d="M434.145 79.341H429.373L433.939 74.7727H418.528L423.094 79.341H418.345V70.5928H434.145V79.341ZM430.811 88.2721H421.678V84.1606H430.811V88.2721ZM426.496 88.2721H426.085V70.5928H426.496V88.2721Z" fill="#AAAAAA"/>
<path d="M476.453 59.0806C476.541 59.5802 476.527 60.0924 476.413 60.5867C476.3 61.0811 476.088 61.5476 475.791 61.9586C475.412 62.4143 474.926 62.7677 474.375 62.9865C473.631 63.2566 472.868 63.4704 472.092 63.626L471.27 63.8088L470.288 64.0372C469.554 64.2336 468.874 64.595 468.301 65.0937C467.727 65.5924 467.274 66.2153 466.978 66.9152C466.169 68.8639 465.638 70.917 465.402 73.0139L463.438 73.4707C464.153 72.4978 465.093 71.7138 466.178 71.1866C467.25 70.6565 468.431 70.3828 469.626 70.3871C470.83 70.3442 472.026 70.6117 473.097 71.1637C474.013 71.6641 474.796 72.3768 475.38 73.2423C475.988 74.1268 476.422 75.119 476.658 76.166C476.924 77.2343 477.054 78.3316 477.047 79.4323C477.047 80.495 476.917 81.5537 476.658 82.5845C476.418 83.6301 475.984 84.6216 475.38 85.5082C474.721 86.4955 473.817 87.2946 472.756 87.8272C471.695 88.3597 470.515 88.6074 469.329 88.5461C467.839 88.6249 466.361 88.2334 465.105 87.4269C464.045 86.6689 463.202 85.6448 462.662 84.4575C462.073 83.1632 461.695 81.7828 461.543 80.3688C461.36 78.853 461.268 77.3275 461.27 75.8005C461.08 72.9865 461.731 70.1797 463.142 67.7375C464.439 65.8773 466.4 64.5856 468.621 64.1285L469.74 63.8544C470.147 63.7881 470.537 63.6407 470.886 63.421C471.235 63.2012 471.536 62.9137 471.772 62.5753C472.126 61.8671 472.298 61.0823 472.275 60.2912V59.7886C472.285 59.5908 472.285 59.3926 472.275 59.1948L476.453 59.0806ZM469.261 84.2062C470.178 84.2076 471.094 84.1389 472.001 84.0006C472.794 83.8725 473.563 83.6261 474.284 83.2697C474.965 82.9284 475.547 82.4171 475.973 81.785C476.417 81.0573 476.639 80.2159 476.613 79.3638C476.65 78.5136 476.436 77.6713 475.996 76.9426C475.598 76.326 475.048 75.8225 474.398 75.4808C473.68 75.1186 472.91 74.8719 472.115 74.7498C470.27 74.446 468.388 74.446 466.544 74.7498C465.687 74.8882 464.86 75.1741 464.101 75.5949C463.421 75.969 462.841 76.5019 462.411 77.1482C461.962 77.8738 461.74 78.7167 461.772 79.5694C461.739 80.3759 461.954 81.173 462.388 81.8535C462.799 82.4705 463.366 82.9672 464.032 83.2925C464.751 83.6429 465.522 83.8743 466.315 83.9778C467.289 84.1425 468.274 84.2265 469.261 84.229V84.2062Z" fill="#AAAAAA"/>
<path d="M496.637 74.7042H487.801V70.5927H496.637V74.7042ZM492.321 88.272H487.755V84.1605H492.321V88.272ZM492.527 88.272H492.116V70.5927H492.527V88.272ZM502.664 74.5671H502.459L494.285 88.272H492.321V84.1834H492.527L500.701 70.4785H502.664V74.5671ZM507.231 88.272H498.372V84.1605H507.208L507.231 88.272ZM502.893 88.272H502.482V70.5927H502.893V88.272ZM507.231 74.7042H502.664V70.5927H507.231V74.7042Z" fill="#AAAAAA"/>
<path d="M527.255 70.5928L527.049 75.1611C527.049 76.6686 526.844 78.199 526.707 79.7294C526.618 80.8665 526.45 81.9961 526.204 83.1099C526.01 84.0764 525.671 85.0081 525.2 85.8737C524.777 86.626 524.182 87.2677 523.465 87.7467C522.659 88.2294 521.731 88.4675 520.793 88.432C520.148 88.454 519.505 88.3532 518.898 88.135C518.458 87.9529 518.062 87.6806 517.734 87.3355C517.458 86.989 517.248 86.5939 517.117 86.1706C516.997 85.7003 516.936 85.217 516.935 84.7316V84.2977C516.935 84.1149 516.934 84.0464 517.14 84.0464C517.345 84.0464 517.3 84.0464 517.3 84.2977V84.6631C517.273 85.3673 517.447 86.0647 517.802 86.6732C517.966 86.9449 518.203 87.1657 518.485 87.3109C518.767 87.4561 519.084 87.52 519.4 87.4955C519.698 87.5008 519.993 87.4377 520.262 87.311C520.531 87.1842 520.768 86.9973 520.953 86.7645C521.389 86.1649 521.714 85.4918 521.912 84.7773C522.143 83.9616 522.311 83.1292 522.414 82.2876C522.553 81.3563 522.645 80.4186 522.688 79.4781C522.825 77.864 522.917 76.3412 522.962 74.9098C522.962 73.4023 522.962 71.9861 523.099 70.6156L527.255 70.5928ZM537.278 74.7042H519.309V70.5928H537.278V74.7042ZM537.278 88.2721H528.145V84.1606H537.278V88.2721ZM532.963 88.2721H532.552V70.5928H532.963V88.2721Z" fill="#AAAAAA"/>
<path d="M555.886 88.4999C554.564 88.5528 553.248 88.2865 552.05 87.7233C551.097 87.2422 550.274 86.5368 549.653 85.6675C549.03 84.8027 548.601 83.813 548.397 82.7666C547.941 80.613 547.941 78.3876 548.397 76.234C548.621 75.1909 549.023 74.1942 549.585 73.2874C550.19 72.3396 551.034 71.5681 552.032 71.0508C553.03 70.5335 554.147 70.2886 555.27 70.3409C556.486 70.2975 557.696 70.5318 558.809 71.0261C559.757 71.4478 560.553 72.1491 561.092 73.0362C561.684 74.0492 562.079 75.1653 562.256 76.3254C562.484 77.8372 562.59 79.3648 562.576 80.8936H548.306V77.4674H562.005C561.81 76.8974 561.486 76.3802 561.059 75.9562C560.631 75.5322 560.111 75.2129 559.539 75.0234C558.163 74.5299 556.709 74.29 555.247 74.3153C554.483 74.3048 553.719 74.3583 552.964 74.4752C552.283 74.5824 551.617 74.7663 550.977 75.0234C550.392 75.2658 549.851 75.6056 549.379 76.0284C548.926 76.4463 548.589 76.9732 548.397 77.5588V80.7337C548.556 81.394 548.861 82.0104 549.288 82.5382C549.704 83.0202 550.198 83.4293 550.749 83.7488C551.322 84.0687 551.937 84.307 552.575 84.4569C553.236 84.5942 553.91 84.6631 554.585 84.6625C555.695 84.7224 556.8 84.4776 557.781 83.9544C558.512 83.5128 559.149 82.9305 559.653 82.2413L562.85 84.9137C562.667 85.2107 562.393 85.5762 562.074 86.0102C561.699 86.4807 561.251 86.8893 560.749 87.2207C560.128 87.6478 559.442 87.9717 558.717 88.1801C557.797 88.4365 556.841 88.5444 555.886 88.4999V88.4999Z" fill="#AAAAAA"/>
<path d="M588.971 79.341H584.221L588.788 74.7727H573.422L577.988 79.341H573.422V70.5928H589.062L588.971 79.341ZM585.66 88.2721H576.527V84.1606H585.66V88.2721ZM581.345 88.2721H580.934V70.5928H581.345V88.2721Z" fill="#AAAAAA"/>
<path d="M94.4479 136.65H119.061V147.066H94.4023L94.4479 136.65ZM94.4479 191.105H119.061V201.52H94.4023L94.4479 191.105ZM106.321 136.65H107.234V201.52H106.321V136.65ZM119.563 173.197H106.686V162.781H115.819L136.642 136.559H149.976L120.294 173.105V172.649L148.606 201.52H147.327L119.563 173.197ZM125.682 191.013H151.163V201.429H125.682V191.013ZM128.514 136.559H150.798V146.975H128.514V136.559Z" fill="#AAAAAA"/>
<path d="M173.081 202.068C171.346 202.123 169.619 201.812 168.012 201.154C166.718 200.591 165.564 199.748 164.633 198.687C163.745 197.658 163.105 196.439 162.761 195.124C162.397 193.784 162.212 192.401 162.213 191.012C162.208 189.3 162.501 187.599 163.081 185.987C163.69 184.354 164.732 182.917 166.094 181.83C167.788 180.512 169.729 179.549 171.802 178.998C174.721 178.227 177.735 177.873 180.753 177.947H188.516V185.439H174.634C171.608 185.244 168.573 185.616 165.684 186.536C164.108 187.266 163.4 188.249 163.4 189.459C163.423 190.199 163.691 190.91 164.162 191.481C164.633 192.052 165.281 192.449 166.003 192.611C168.505 193.356 171.112 193.68 173.72 193.571C175.508 193.577 177.293 193.455 179.063 193.205C180.658 192.982 182.202 192.488 183.63 191.743C184.974 191.032 186.12 189.995 186.963 188.728C187.883 187.186 188.328 185.406 188.242 183.612V177.764C188.326 176.397 187.939 175.043 187.146 173.927C186.376 172.978 185.367 172.253 184.223 171.826C182.892 171.312 181.491 171.004 180.068 170.912C178.515 170.798 176.894 170.729 175.181 170.729C172.689 170.656 170.199 170.933 167.784 171.552C167.01 171.682 166.308 172.086 165.806 172.689C165.303 173.292 165.033 174.056 165.044 174.841C165.044 175.206 164.884 175.389 164.587 175.389C164.291 175.389 164.131 175.206 164.131 174.841C163.902 171.29 165.084 167.794 167.419 165.11C168.709 163.902 170.235 162.974 171.901 162.384C173.567 161.794 175.337 161.556 177.1 161.684C178.485 161.685 179.865 161.854 181.209 162.186C182.666 162.558 184.002 163.297 185.091 164.334C186.403 165.612 187.403 167.175 188.013 168.902C188.86 171.495 189.246 174.216 189.155 176.942V187.358C189.08 188.928 189.378 190.493 190.022 191.926C190.322 192.462 190.771 192.898 191.314 193.182C191.857 193.466 192.472 193.585 193.082 193.525C193.563 193.571 194.049 193.513 194.506 193.356C194.962 193.198 195.38 192.944 195.73 192.611C196.24 192.05 196.643 191.4 196.918 190.693L205.411 192.977C204.987 195.341 203.912 197.54 202.306 199.327C201.478 200.204 200.47 200.892 199.35 201.341C198.231 201.791 197.027 201.992 195.822 201.931C194.489 201.984 193.166 201.685 191.986 201.063C191.031 200.524 190.241 199.734 189.703 198.779C189.135 197.712 188.764 196.551 188.607 195.352C188.421 194.02 188.329 192.677 188.333 191.332V188.637H188.15C187.649 192.344 185.911 195.772 183.218 198.367C180.458 200.887 176.815 202.217 173.081 202.068Z" fill="#AAAAAA"/>
<path d="M209.979 162.232H220.025V171.369H209.979V162.232ZM209.979 192.383H232.172V201.52H209.979V192.383ZM219.568 162.232H220.482V177.765H220.664C221.018 175.699 221.491 173.655 222.08 171.643C222.586 169.835 223.355 168.111 224.363 166.527C225.293 165.119 226.506 163.921 227.925 163.009C229.466 162.083 231.242 161.623 233.039 161.684C234.644 161.629 236.231 162.042 237.606 162.872C238.864 163.718 239.873 164.885 240.528 166.252C241.312 167.894 241.821 169.654 242.035 171.46C242.322 173.672 242.459 175.9 242.446 178.13C242.446 178.495 242.309 178.678 241.989 178.678C241.67 178.678 241.533 178.495 241.533 178.13C241.565 177.18 241.375 176.235 240.979 175.371C240.583 174.506 239.991 173.746 239.25 173.151C237.023 171.689 234.366 171.029 231.715 171.278C230.317 171.281 228.924 171.435 227.559 171.734C226.208 172.028 224.952 172.656 223.906 173.562C222.726 174.653 221.832 176.018 221.303 177.536C220.56 179.741 220.219 182.063 220.299 184.389V201.565H219.385L219.568 162.232Z" fill="#AAAAAA"/>
<path d="M249.707 136.65H259.753V145.787H249.707V136.65ZM249.707 192.384H269.799V201.52H249.707V192.384ZM259.297 136.65H260.21V201.52H259.297V136.65Z" fill="#AAAAAA"/>
<path d="M297.654 202.068C294.739 202.172 291.847 201.527 289.252 200.195C287.087 199.028 285.226 197.37 283.818 195.353C282.447 193.376 281.456 191.16 280.895 188.82C279.738 184.263 279.738 179.49 280.895 174.933C281.456 172.593 282.447 170.377 283.818 168.4C285.226 166.383 287.087 164.725 289.252 163.558C291.847 162.226 294.739 161.581 297.654 161.685C300.583 161.583 303.49 162.228 306.102 163.558C308.284 164.717 310.162 166.377 311.581 168.4C312.952 170.377 313.943 172.593 314.504 174.933C315.661 179.49 315.661 184.263 314.504 188.82C313.943 191.16 312.952 193.376 311.581 195.353C310.162 197.376 308.284 199.036 306.102 200.195C303.49 201.525 300.583 202.17 297.654 202.068ZM297.654 192.475C299.7 192.477 301.745 192.339 303.773 192.064C305.639 191.829 307.457 191.305 309.161 190.511C310.701 189.785 312.036 188.686 313.043 187.313C314.029 185.671 314.55 183.792 314.55 181.876C314.55 179.961 314.029 178.082 313.043 176.44C312.036 175.067 310.701 173.968 309.161 173.242C307.457 172.448 305.639 171.924 303.773 171.689C299.727 171.141 295.626 171.141 291.581 171.689C289.7 171.922 287.866 172.446 286.146 173.242C284.606 173.968 283.272 175.067 282.265 176.44C281.279 178.082 280.758 179.961 280.758 181.876C280.758 183.792 281.279 185.671 282.265 187.313C283.272 188.686 284.606 189.785 286.146 190.511C287.866 191.307 289.7 191.831 291.581 192.064C293.594 192.336 295.622 192.474 297.654 192.475Z" fill="#AAAAAA"/>
<path d="M327.701 162.233H373.183V171.37H327.701V162.233ZM327.701 192.384H347.794V201.52H327.701V192.384ZM337.291 159.858C337.238 156.437 337.56 153.021 338.25 149.67C338.75 147.263 339.628 144.95 340.853 142.818C341.789 141.17 343.143 139.799 344.78 138.843C346.286 138 347.985 137.56 349.711 137.564C351.475 137.523 353.204 138.052 354.643 139.072C356.084 140.126 357.296 141.463 358.205 143.001C359.23 144.706 360 146.553 360.488 148.483C361.008 150.506 361.359 152.569 361.538 154.65H361.721C361.95 149.768 363.479 145.036 366.151 140.945C367.056 139.54 368.29 138.377 369.746 137.557C371.203 136.737 372.837 136.285 374.507 136.24C376.255 136.157 377.978 136.673 379.393 137.701C380.632 138.664 381.632 139.899 382.316 141.31C383.017 142.752 383.494 144.293 383.731 145.879C383.962 147.268 384.084 148.673 384.097 150.081C384.097 150.447 383.937 150.63 383.64 150.63C383.343 150.63 383.184 150.447 383.184 150.081C383.111 149.438 382.909 148.817 382.59 148.254C382.188 147.577 381.623 147.012 380.946 146.61C380.028 146.064 379.024 145.678 377.978 145.468C376.475 145.166 374.944 145.028 373.411 145.056C372.17 145.06 370.931 145.182 369.712 145.422C368.358 145.695 367.107 146.344 366.105 147.295C364.837 148.575 363.897 150.142 363.365 151.863C362.535 154.537 362.164 157.333 362.269 160.132V201.795H361.356V161.137C361.442 158.531 361.055 155.93 360.214 153.462C359.628 151.785 358.658 150.267 357.383 149.031C356.32 148.061 355.034 147.371 353.639 147.021C352.37 146.695 351.067 146.526 349.757 146.518C348.463 146.525 347.174 146.694 345.921 147.021C344.542 147.377 343.272 148.067 342.222 149.031C340.947 150.267 339.978 151.785 339.391 153.462C338.55 155.93 338.164 158.531 338.25 161.137V201.795H337.336L337.291 159.858ZM351.721 192.384H371.813V201.52H351.721V192.384Z" fill="#AAAAAA"/>
<path d="M410.263 162.233H431.725V171.369H410.263V162.233ZM410.263 192.383H430.355V201.52H410.263V192.383ZM419.852 159.217C419.795 155.762 420.148 152.312 420.902 148.939C421.464 146.4 422.419 143.964 423.733 141.721C424.739 139.978 426.169 138.516 427.889 137.472C429.411 136.576 431.146 136.103 432.912 136.102C434.673 136.022 436.411 136.537 437.844 137.564C439.102 138.518 440.119 139.754 440.812 141.173C441.503 142.619 441.98 144.158 442.228 145.741C442.447 147.132 442.569 148.536 442.593 149.944C442.593 150.309 442.433 150.492 442.136 150.492C441.84 150.492 441.68 150.309 441.68 149.944C441.634 149.211 441.399 148.502 440.999 147.885C440.6 147.269 440.047 146.767 439.397 146.426C437.074 145.234 434.465 144.712 431.862 144.919C430.651 144.926 429.443 145.048 428.254 145.284C426.888 145.561 425.623 146.209 424.601 147.157C423.31 148.427 422.354 149.996 421.816 151.725C420.985 154.4 420.615 157.196 420.72 159.994V201.657H419.806L419.852 159.217Z" fill="#AAAAAA"/>
<path d="M461.132 202.068C458.217 202.175 455.324 201.53 452.73 200.195C450.565 199.028 448.704 197.37 447.296 195.353C445.925 193.376 444.934 191.161 444.373 188.82C443.217 184.264 443.217 179.49 444.373 174.933C444.934 172.593 445.925 170.377 447.296 168.4C448.704 166.383 450.565 164.725 452.73 163.558C455.324 162.223 458.217 161.578 461.132 161.685C464.061 161.583 466.968 162.228 469.58 163.558C471.763 164.718 473.64 166.377 475.06 168.4C476.431 170.377 477.422 172.593 477.982 174.933C479.139 179.49 479.139 184.264 477.982 188.82C477.422 191.161 476.431 193.376 475.06 195.353C473.64 197.376 471.763 199.036 469.58 200.195C466.968 201.525 464.061 202.17 461.132 202.068ZM461.132 192.475C463.179 192.477 465.223 192.339 467.251 192.064C469.117 191.829 470.935 191.305 472.64 190.511C474.18 189.785 475.514 188.686 476.521 187.313C477.508 185.671 478.029 183.792 478.029 181.877C478.029 179.961 477.508 178.082 476.521 176.44C475.514 175.067 474.18 173.968 472.64 173.243C470.935 172.448 469.117 171.924 467.251 171.689C463.206 171.141 459.105 171.141 455.059 171.689C453.178 171.922 451.345 172.446 449.625 173.243C448.085 173.968 446.75 175.067 445.743 176.44C444.757 178.082 444.236 179.961 444.236 181.877C444.236 183.792 444.757 185.671 445.743 187.313C446.75 188.686 448.085 189.785 449.625 190.511C451.345 191.307 453.178 191.831 455.059 192.064C457.072 192.336 459.101 192.474 461.132 192.475Z" fill="#AAAAAA"/>
<path d="M491.226 162.233H501.272V171.369H491.226V162.233ZM491.226 192.384H511.318V201.52H491.226V192.384ZM500.815 162.233H501.728V177.856H501.911C502.306 175.986 502.809 174.14 503.418 172.329C504.03 170.462 504.907 168.693 506.021 167.075C507.106 165.509 508.506 164.187 510.131 163.192C511.962 162.142 514.049 161.62 516.158 161.685C517.652 161.556 519.153 161.812 520.52 162.428C521.886 163.043 523.073 163.999 523.967 165.202C525.812 168.465 526.654 172.199 526.387 175.938V201.52H525.474V182.151C525.536 180.34 525.225 178.536 524.561 176.851C524.02 175.545 523.155 174.397 522.049 173.517C520.951 172.686 519.691 172.095 518.35 171.781C516.915 171.436 515.443 171.268 513.966 171.278C512.587 171.288 511.211 171.426 509.857 171.689C508.408 171.954 507.045 172.565 505.884 173.471C504.586 174.535 503.567 175.899 502.916 177.445C502.044 179.621 501.64 181.956 501.728 184.298V201.474H500.815V162.233ZM515.884 192.384H535.977V201.52H515.884V192.384Z" fill="#AAAAAA"/>
<path d="M542.415 162.233H563.786V171.37H542.415V162.233ZM560.681 202.068C558.911 202.138 557.152 201.761 555.566 200.972C554.227 200.241 553.119 199.149 552.37 197.82C551.512 196.292 550.939 194.62 550.68 192.886C550.325 190.758 550.156 188.603 550.178 186.445V147.523C550.367 147.456 550.528 147.327 550.635 147.158C550.744 146.984 550.836 146.801 550.909 146.609H551.091V182.882C551.044 184.559 551.229 186.234 551.639 187.861C551.898 188.92 552.398 189.905 553.1 190.739C553.618 191.356 554.298 191.815 555.064 192.064C555.76 192.274 556.483 192.382 557.21 192.384C558.055 192.48 558.91 192.373 559.704 192.071C560.499 191.769 561.21 191.281 561.777 190.648C562.778 189.392 563.551 187.969 564.06 186.445L574.197 190.282C573.801 191.645 573.297 192.974 572.691 194.257C572.04 195.635 571.194 196.912 570.179 198.048C569.106 199.243 567.801 200.207 566.343 200.881C564.546 201.725 562.574 202.132 560.589 202.068H560.681Z" fill="#AAAAAA"/>
<path d="M207.193 228.61H198.517V224.956H206.463L211.509 242.041H211.349L216.532 224.956H224.455V228.61H219.18L213.29 248.117H212.97L207.193 228.61ZM198.517 244.028H210.39V247.66H198.426L198.517 244.028ZM202.673 224.956H206.326V247.66H202.673V224.956ZM215.847 244.028H224.477V247.66H215.847V244.028ZM220.002 224.956H220.322V247.66H220.002V224.956Z" fill="#AAAAAA"/>
<path d="M231.578 255.655C231.019 255.683 230.46 255.597 229.934 255.404C229.56 255.263 229.23 255.027 228.975 254.718C228.748 254.428 228.585 254.093 228.496 253.736C228.462 253.379 228.462 253.02 228.496 252.663V252.069C228.496 252.069 228.496 251.886 228.656 251.886C228.816 251.886 228.815 251.886 228.815 252.069V252.594C228.808 253.122 228.943 253.642 229.204 254.102C229.351 254.331 229.56 254.514 229.806 254.632C230.052 254.749 230.326 254.794 230.596 254.764C230.917 254.771 231.234 254.7 231.521 254.557C231.807 254.414 232.054 254.202 232.24 253.942C232.777 253.174 233.222 252.346 233.565 251.475L236.419 244.919V245.376L231.533 233.955H231.921L236.647 245.056H236.487L241.054 233.955H244.25L236.419 252.229C236.022 253.308 235.325 254.251 234.409 254.947C233.56 255.467 232.572 255.714 231.578 255.655ZM230.574 233.91H235.323V237.107H230.574V233.91ZM237.423 233.91H244.912V237.107H237.423V233.91Z" fill="#AAAAAA"/>
<path d="M258.976 239.3C259.91 239.325 260.844 239.248 261.762 239.072C262.355 238.92 262.652 238.6 262.652 238.113C262.652 237.61 262.287 237.267 261.534 237.062C260.569 236.835 259.579 236.736 258.588 236.765C257.608 236.769 256.629 236.86 255.665 237.039C254.763 237.196 253.877 237.433 253.017 237.747L255.62 240.511H252.834V234.778C253.57 234.455 254.334 234.202 255.118 234.024C255.969 233.817 256.844 233.718 257.72 233.727C258.495 233.711 259.267 233.827 260.004 234.07C260.61 234.244 261.17 234.548 261.648 234.96C262.082 235.307 262.427 235.754 262.652 236.262C262.881 236.764 262.998 237.31 262.995 237.861C263.005 238.304 262.908 238.742 262.714 239.14C262.519 239.537 262.232 239.882 261.876 240.145C260.875 240.838 259.664 241.161 258.451 241.059V240.351C259.754 240.244 261.058 240.531 262.195 241.173C262.552 241.405 262.844 241.724 263.043 242.1C263.243 242.475 263.344 242.895 263.337 243.32C263.329 243.896 263.229 244.467 263.041 245.011C262.837 245.572 262.509 246.079 262.081 246.495C261.628 246.975 261.064 247.336 260.438 247.546C259.704 247.804 258.932 247.936 258.154 247.934C257.368 247.996 256.578 247.896 255.832 247.641C255.086 247.386 254.4 246.98 253.816 246.45C253.325 245.92 252.945 245.298 252.698 244.619C252.451 243.941 252.342 243.219 252.378 242.498C252.378 242.361 252.378 242.293 252.56 242.293C252.578 242.283 252.597 242.277 252.617 242.277C252.638 242.277 252.657 242.283 252.675 242.293C252.685 242.338 252.685 242.384 252.675 242.43C252.669 242.631 252.706 242.831 252.785 243.017C252.864 243.202 252.982 243.368 253.131 243.503C253.482 243.809 253.895 244.035 254.341 244.166C254.892 244.335 255.458 244.449 256.031 244.508C256.67 244.508 257.309 244.508 257.949 244.508C259.214 244.541 260.478 244.426 261.716 244.166C262.652 243.937 263.109 243.549 263.109 242.978C263.109 242.407 262.812 242.178 262.195 242.041C261.19 241.897 260.174 241.836 259.159 241.859H257.31V239.209L258.976 239.3Z" fill="#AAAAAA"/>
<path d="M277.607 247.866C276.575 247.905 275.549 247.693 274.616 247.249C273.877 246.869 273.236 246.321 272.744 245.65C272.269 244.961 271.935 244.185 271.762 243.366C271.397 241.695 271.397 239.965 271.762 238.295C271.937 237.484 272.254 236.711 272.699 236.011C273.141 235.329 273.735 234.758 274.434 234.343C275.257 233.89 276.189 233.669 277.128 233.704C278.069 233.674 279.005 233.854 279.868 234.229C280.592 234.568 281.196 235.117 281.603 235.805C282.073 236.587 282.376 237.458 282.493 238.363C282.68 239.519 282.764 240.688 282.745 241.858H271.717V239.209H282.379C282.22 238.768 281.965 238.367 281.634 238.036C281.303 237.704 280.902 237.449 280.461 237.29C279.392 236.91 278.263 236.725 277.128 236.742C276.562 236.741 275.997 236.787 275.438 236.879C274.906 236.95 274.384 237.089 273.886 237.29C273.428 237.488 273.004 237.758 272.63 238.089C272.282 238.414 272.022 238.823 271.877 239.277V241.721C271.992 242.24 272.227 242.725 272.562 243.137C272.876 243.522 273.264 243.841 273.703 244.074C274.145 244.327 274.622 244.511 275.119 244.622C275.636 244.739 276.164 244.8 276.694 244.805C277.554 244.851 278.408 244.653 279.16 244.234C279.738 243.904 280.237 243.452 280.621 242.909L283.11 244.988C282.929 245.281 282.731 245.563 282.516 245.833C282.225 246.204 281.879 246.527 281.489 246.792C281.005 247.116 280.473 247.363 279.913 247.523C279.168 247.758 278.389 247.874 277.607 247.866V247.866Z" fill="#AAAAAA"/>
<path d="M298.134 237.107H291.285V233.909H298.134V237.107ZM294.778 247.66H291.262V244.462H294.869L294.778 247.66ZM298.796 232.288C298.191 232.334 297.584 232.236 297.024 232.001C296.465 231.767 295.969 231.403 295.577 230.94C294.822 229.808 294.461 228.46 294.549 227.103C294.549 226.988 294.55 226.92 294.664 226.92C294.778 226.92 294.801 226.92 294.801 227.103C294.769 227.523 294.855 227.945 295.049 228.32C295.242 228.695 295.535 229.009 295.896 229.227C296.76 229.684 297.729 229.904 298.705 229.866C299.677 229.906 300.64 229.676 301.49 229.204C301.844 228.985 302.13 228.673 302.319 228.303C302.509 227.932 302.593 227.517 302.564 227.103C302.564 226.965 302.609 226.897 302.701 226.897C302.701 226.897 302.701 226.897 302.701 227.103C302.791 228.454 302.447 229.798 301.719 230.94C301.375 231.382 300.931 231.736 300.422 231.97C299.913 232.205 299.356 232.314 298.796 232.288V232.288ZM294.938 247.66H294.618V233.955H294.938V247.66ZM302.815 237.084H302.655L296.308 247.66H294.869V244.508H295.029L301.376 233.909H302.906L302.815 237.084ZM306.331 247.66H299.481V244.462H306.331V247.66ZM302.975 247.66H302.655V233.955H302.975V247.66ZM306.331 237.107H302.815V233.909H306.285L306.331 237.107Z" fill="#AAAAAA"/>
<path d="M333.684 237.107H327.268V233.91H333.684V237.107ZM348.502 247.66H327.268V244.462H348.502V247.66ZM330.944 247.66H330.624V233.955H330.944V247.66ZM340.784 237.107H334.962V233.91H340.784V237.107ZM338.045 247.66H337.725V233.955H338.045V247.66ZM348.502 237.107H342.063V233.91H348.502V237.107ZM345.145 247.66H344.826V233.955H345.145V247.66Z" fill="#AAAAAA"/>
<path d="M355.99 233.91H359.506V237.107H355.99V233.91ZM355.99 252.183H363.022V255.38H355.99V252.183ZM359.347 233.91H359.666V239.391L359.552 239.643V242.11L359.666 242.361V255.472H359.347V233.91ZM365.26 247.866C364.522 247.87 363.792 247.722 363.114 247.432C362.508 247.145 361.958 246.75 361.493 246.267C361.018 245.773 360.632 245.202 360.351 244.576C360.053 243.921 359.838 243.23 359.712 242.521H359.461V239.072H359.712C359.842 238.356 360.056 237.658 360.351 236.993C360.637 236.371 361.023 235.8 361.493 235.303C361.946 234.806 362.498 234.409 363.114 234.138C363.794 233.855 364.524 233.715 365.26 233.727C366.088 233.722 366.907 233.902 367.657 234.252C368.369 234.605 368.999 235.103 369.507 235.714C370.039 236.396 370.441 237.171 370.694 237.998C371.242 239.862 371.242 241.844 370.694 243.708C370.439 244.535 370.037 245.309 369.507 245.993C368.992 246.597 368.364 247.094 367.657 247.455C366.898 247.766 366.08 247.906 365.26 247.866ZM365.26 244.508C365.861 244.538 366.463 244.538 367.064 244.508C367.695 244.435 368.311 244.266 368.89 244.005C369.444 243.759 369.924 243.374 370.283 242.886C370.656 242.295 370.855 241.61 370.855 240.91C370.855 240.211 370.656 239.526 370.283 238.935C369.924 238.447 369.444 238.061 368.89 237.815C368.315 237.545 367.697 237.375 367.064 237.313C366.465 237.244 365.863 237.206 365.26 237.199C364.657 237.205 364.055 237.243 363.456 237.313C362.822 237.369 362.203 237.539 361.63 237.815C361.066 238.054 360.577 238.441 360.214 238.935C359.856 239.531 359.667 240.214 359.667 240.91C359.667 241.607 359.856 242.289 360.214 242.886C360.577 243.38 361.066 243.767 361.63 244.005C362.207 244.272 362.824 244.441 363.456 244.508C364.057 244.54 364.659 244.54 365.26 244.508Z" fill="#AAAAAA"/>
<path d="M386.357 237.107H379.507V233.91H386.357V237.107ZM383 247.66H379.484V244.462H383V247.66ZM383.16 247.66H382.841V233.955H383.16V247.66ZM391.037 237.085H390.878L384.53 247.66H383V244.508H383.16L389.507 233.91H391.037V237.085ZM394.554 247.66H387.704V244.462H394.554V247.66ZM391.197 247.66H390.878V233.955H391.197V247.66ZM394.554 237.107H391.037V233.91H394.554V237.107Z" fill="#AAAAAA"/>
<path d="M412.774 239.072C412.774 238.501 413.003 237.975 413.14 237.473C413.256 236.988 413.433 236.52 413.665 236.079C414.027 235.406 414.534 234.821 415.149 234.366C415.822 233.914 416.622 233.69 417.432 233.727C418.152 233.716 418.861 233.897 419.487 234.252C420.087 234.618 420.595 235.119 420.971 235.714C421.414 236.412 421.724 237.187 421.884 237.998C422.092 238.928 422.191 239.878 422.181 240.83C422.191 241.775 422.092 242.718 421.884 243.64C421.712 244.444 421.411 245.215 420.994 245.924C420.605 246.523 420.091 247.029 419.487 247.409C418.828 247.788 418.077 247.977 417.318 247.957C416.502 247.99 415.698 247.749 415.035 247.272C414.416 246.811 413.928 246.197 413.619 245.49C413.411 245.052 413.25 244.592 413.14 244.12C413.003 243.617 412.888 243.115 412.774 242.612V255.563H412.454V242.612C412.454 243.115 412.249 243.617 412.135 244.074C412.022 244.539 411.862 244.99 411.655 245.422C411.319 246.131 410.827 246.755 410.217 247.249C409.551 247.722 408.751 247.97 407.934 247.957C407.207 247.968 406.49 247.786 405.856 247.432C405.25 247.074 404.734 246.582 404.349 245.993C403.901 245.294 403.584 244.52 403.413 243.708C403.185 242.782 403.078 241.83 403.093 240.876C403.077 239.907 403.185 238.94 403.413 237.998C403.591 237.185 403.916 236.411 404.372 235.714C404.76 235.114 405.284 234.613 405.902 234.252C406.56 233.895 407.299 233.714 408.048 233.727C408.859 233.68 409.662 233.905 410.331 234.366C410.92 234.817 411.39 235.405 411.701 236.079C411.933 236.52 412.109 236.988 412.226 237.473C412.34 237.975 412.455 238.501 412.569 239.072V224.956H412.888L412.774 239.072ZM403.23 240.853C403.204 241.488 403.346 242.118 403.641 242.681C403.908 243.126 404.275 243.501 404.714 243.777C405.17 244.03 405.663 244.207 406.176 244.302C407.272 244.485 408.39 244.485 409.486 244.302C410.009 244.236 410.514 244.065 410.97 243.8C411.419 243.536 411.79 243.158 412.043 242.703C412.339 242.125 412.48 241.48 412.454 240.83V240.693C412.483 240.056 412.357 239.422 412.089 238.843C411.837 238.395 411.476 238.017 411.039 237.747C410.585 237.495 410.09 237.325 409.578 237.244C409.019 237.152 408.454 237.107 407.888 237.107C407.329 237.116 406.772 237.17 406.221 237.267C405.692 237.365 405.188 237.567 404.737 237.861C404.28 238.132 403.903 238.518 403.641 238.98C403.343 239.558 403.201 240.204 403.23 240.853V240.853ZM412.614 228.153H409.03V224.956H412.546L412.614 228.153ZM416.13 255.563H409.03V252.365H416.062L416.13 255.563ZM421.998 240.876C422.021 240.242 421.88 239.612 421.587 239.049C421.344 238.595 420.991 238.21 420.56 237.93C420.118 237.656 419.631 237.462 419.122 237.358C418.579 237.26 418.029 237.207 417.477 237.199C416.911 237.198 416.346 237.244 415.788 237.336C415.261 237.416 414.751 237.586 414.281 237.838C413.837 238.107 413.467 238.484 413.208 238.935C412.894 239.499 412.744 240.14 412.774 240.785V240.922C412.744 241.574 412.894 242.222 413.208 242.795C413.453 243.248 413.816 243.627 414.258 243.891C414.723 244.156 415.235 244.327 415.765 244.394C416.308 244.485 416.858 244.531 417.409 244.531C417.96 244.532 418.51 244.487 419.053 244.394C419.574 244.291 420.075 244.106 420.537 243.846C420.975 243.566 421.336 243.181 421.587 242.726C421.899 242.129 422.041 241.457 421.998 240.785V240.876Z" fill="#AAAAAA"/>
<path d="M442.799 240.738H439.1L442.707 237.106H430.72L434.328 240.738H430.629V233.886H442.799V240.738ZM440.219 247.591H433.186V244.393H440.219V247.591ZM436.862 247.591H436.543V233.886H436.862V247.591Z" fill="#AAAAAA"/>
<path d="M454.694 247.866C454.085 247.879 453.479 247.77 452.913 247.546C452.461 247.342 452.057 247.047 451.726 246.678C451.42 246.313 451.201 245.883 451.087 245.421C450.948 244.954 450.879 244.47 450.881 243.982C450.883 243.382 450.991 242.786 451.201 242.224C451.415 241.658 451.778 241.161 452.251 240.785C452.836 240.316 453.513 239.973 454.237 239.78C455.265 239.508 456.326 239.385 457.388 239.414H460.105V242.041H455.242C454.184 241.976 453.124 242.107 452.114 242.429C451.543 242.68 451.269 243.023 451.269 243.457C451.269 243.891 451.566 244.325 452.183 244.554C453.055 244.819 453.966 244.934 454.877 244.896C455.503 244.898 456.129 244.852 456.749 244.759C457.321 244.685 457.877 244.515 458.393 244.257C458.863 243.999 459.262 243.63 459.557 243.183C459.878 242.646 460.029 242.025 459.991 241.401V239.346C460.028 238.871 459.89 238.4 459.603 238.021C459.335 237.691 458.99 237.433 458.598 237.267C458.128 237.094 457.636 236.987 457.137 236.947C456.589 236.947 456.018 236.947 455.424 236.947C454.556 236.924 453.688 237.016 452.844 237.221C452.572 237.27 452.327 237.414 452.151 237.627C451.975 237.841 451.881 238.11 451.886 238.386C451.889 238.409 451.887 238.432 451.881 238.455C451.874 238.477 451.863 238.497 451.848 238.514C451.833 238.532 451.814 238.546 451.793 238.555C451.772 238.564 451.749 238.569 451.726 238.569C451.612 238.569 451.566 238.569 451.566 238.386C451.488 237.139 451.898 235.911 452.708 234.96C453.164 234.542 453.702 234.221 454.287 234.016C454.871 233.812 455.492 233.729 456.11 233.772C456.594 233.78 457.077 233.841 457.548 233.955C458.056 234.083 458.52 234.343 458.895 234.709C459.36 235.161 459.712 235.717 459.923 236.331C460.218 237.236 460.35 238.188 460.311 239.14V242.795C460.281 243.346 460.391 243.896 460.63 244.394C460.733 244.584 460.889 244.74 461.08 244.842C461.271 244.943 461.488 244.986 461.703 244.965C461.869 244.978 462.037 244.957 462.194 244.902C462.352 244.847 462.495 244.759 462.617 244.645C462.806 244.461 462.948 244.234 463.028 243.982L466.019 244.782C465.868 245.629 465.489 246.419 464.923 247.066C464.63 247.374 464.275 247.615 463.881 247.773C463.487 247.93 463.063 248.001 462.64 247.98C462.17 247.999 461.704 247.888 461.293 247.66C460.951 247.47 460.673 247.184 460.493 246.838C460.287 246.463 460.155 246.052 460.105 245.627C460.07 245.163 460.07 244.697 460.105 244.234V243.274C459.921 244.57 459.31 245.768 458.37 246.678C457.869 247.113 457.285 247.443 456.653 247.647C456.021 247.851 455.355 247.925 454.694 247.866V247.866Z" fill="#AAAAAA"/>
<path d="M129.769 303.393H126.823L129.677 300.515H118.467V297.911H129.883L129.769 303.393ZM124.723 304.375C126.259 304.251 127.788 304.698 129.015 305.632C129.498 306.09 129.875 306.648 130.12 307.268C130.364 307.887 130.47 308.553 130.431 309.218C130.442 309.899 130.341 310.578 130.134 311.228C129.93 311.825 129.576 312.359 129.107 312.781C128.567 313.241 127.937 313.583 127.257 313.786C126.327 314.033 125.366 314.149 124.403 314.129H118.467V311.525H124.7C125.476 311.525 126.237 311.525 126.983 311.525C127.579 311.495 128.169 311.395 128.741 311.228C129.179 311.086 129.578 310.843 129.906 310.52C130.195 310.176 130.342 309.735 130.317 309.286C130.34 308.852 130.192 308.426 129.906 308.098C129.607 307.788 129.24 307.553 128.833 307.413C128.34 307.236 127.825 307.128 127.303 307.093C126.74 307.093 126.146 307.093 125.522 307.093C124.905 307.093 124.243 307.093 123.558 307.208C122.873 307.322 122.234 307.345 121.641 307.459V304.878C122.145 304.766 122.656 304.682 123.17 304.627C123.682 304.512 124.201 304.428 124.723 304.375V304.375ZM121.663 314.129H121.435V297.911H121.663V314.129Z" fill="#AAAAAA"/>
<path d="M141.3 306.59H136.391V304.306H141.3V306.59ZM139.016 314.128H136.505V311.844H139.016V314.128ZM139.016 314.128H138.788V304.306H139.016V314.128ZM144.656 306.567L140.089 314.128H138.994V311.844L143.56 304.283H144.656V306.567ZM147.168 314.128H142.259V311.844H147.168V314.128ZM144.884 314.128H144.656V304.306H144.884V314.128ZM147.168 306.59H144.656V304.306H147.168V306.59Z" fill="#AAAAAA"/>
<path d="M158.309 304.307C158.309 305.175 158.309 306.02 158.309 306.865C158.309 307.71 158.309 308.555 158.126 309.423C158.073 310.06 157.982 310.693 157.852 311.319C157.736 311.854 157.544 312.369 157.281 312.849C157.056 313.269 156.725 313.623 156.322 313.877C155.876 314.148 155.36 314.283 154.839 314.265C154.482 314.279 154.125 314.225 153.788 314.106C153.542 314.005 153.324 313.849 153.149 313.649C152.987 313.465 152.869 313.246 152.806 313.009C152.772 312.744 152.772 312.475 152.806 312.21V311.981V311.844C152.806 311.844 152.806 311.844 152.806 311.981V312.187C152.794 312.578 152.889 312.965 153.08 313.306C153.174 313.455 153.306 313.576 153.463 313.657C153.62 313.737 153.795 313.774 153.971 313.763C154.138 313.768 154.304 313.734 154.455 313.662C154.605 313.591 154.737 313.484 154.839 313.352C155.076 313.02 155.254 312.649 155.364 312.255C155.505 311.809 155.604 311.35 155.661 310.885C155.661 310.352 155.706 309.827 155.797 309.309C155.797 308.418 155.934 307.55 155.957 306.728C155.98 305.906 155.957 305.083 155.957 304.329L158.309 304.307ZM163.88 306.591H153.902V304.307H163.88V306.591ZM163.88 314.128H158.857V311.844H163.88V314.128ZM161.483 314.128H161.254V304.307H161.483V314.128Z" fill="#AAAAAA"/>
<path d="M174.223 314.266C173.491 314.294 172.763 314.145 172.1 313.832C171.565 313.566 171.102 313.174 170.753 312.69C170.41 312.214 170.176 311.668 170.068 311.091C169.932 310.484 169.863 309.863 169.862 309.241C169.863 308.641 169.932 308.043 170.068 307.459C170.174 306.872 170.4 306.312 170.73 305.815C171.034 305.321 171.458 304.912 171.963 304.627C172.552 304.31 173.213 304.152 173.881 304.17C174.556 304.153 175.227 304.285 175.844 304.558C176.36 304.797 176.79 305.187 177.077 305.678C177.41 306.238 177.627 306.859 177.716 307.505C177.843 308.329 177.904 309.161 177.899 309.995H170.022V308.099H177.625C177.522 307.78 177.344 307.492 177.105 307.257C176.867 307.022 176.575 306.849 176.255 306.751C175.525 306.478 174.752 306.339 173.972 306.34C173.57 306.305 173.165 306.305 172.762 306.34C172.384 306.398 172.016 306.505 171.666 306.66C171.339 306.787 171.037 306.973 170.776 307.208C170.522 307.437 170.333 307.728 170.228 308.053V309.812C170.325 310.178 170.495 310.52 170.73 310.817C170.961 311.093 171.239 311.325 171.552 311.502C171.87 311.672 172.207 311.803 172.557 311.89C172.925 311.963 173.3 312.002 173.675 312.005C174.293 312.032 174.906 311.898 175.456 311.616C175.86 311.37 176.21 311.044 176.484 310.657L178.265 312.142L177.831 312.758C177.62 313.013 177.374 313.236 177.1 313.421C176.751 313.648 176.375 313.833 175.981 313.969C175.415 314.159 174.821 314.26 174.223 314.266Z" fill="#AAAAAA"/>
<path d="M192.603 309.172H189.955L192.535 306.591H183.973L186.553 309.172H183.904V304.307H192.603V309.172ZM190.754 314.128H185.731V311.844H190.754V314.128ZM188.356 314.128H188.128V304.307H188.356V314.128Z" fill="#AAAAAA"/>
<path d="M212.33 306.591H207.467V304.307H212.33V306.591ZM212.33 314.128H207.467V311.844H212.33V314.128ZM210.047 314.128H209.819V304.307H210.047V314.128ZM215.755 310.177H209.933V308.213H215.755V310.177ZM218.266 306.591H213.426V304.307H218.266V306.591ZM218.266 314.128H213.426V311.844H218.266V314.128ZM215.983 314.128H215.755V304.307H215.983V314.128Z" fill="#AAAAAA"/>
<path d="M226.829 314.266C226.398 314.283 225.97 314.205 225.573 314.037C225.247 313.9 224.958 313.689 224.728 313.421C224.498 313.167 224.333 312.862 224.249 312.53C224.158 312.195 224.112 311.849 224.112 311.502C224.106 311.073 224.183 310.646 224.34 310.246C224.488 309.839 224.75 309.482 225.093 309.218C225.507 308.879 225.99 308.637 226.509 308.51C227.252 308.306 228.022 308.213 228.792 308.236H230.733V310.109H227.263C226.491 310.054 225.716 310.147 224.979 310.383C224.591 310.566 224.386 310.817 224.386 311.114C224.391 311.302 224.46 311.482 224.58 311.627C224.7 311.772 224.864 311.873 225.048 311.913C225.67 312.094 226.318 312.171 226.966 312.142C227.414 312.177 227.864 312.177 228.313 312.142C228.718 312.086 229.112 311.962 229.477 311.776C229.809 311.597 230.092 311.338 230.299 311.022C230.529 310.637 230.64 310.192 230.619 309.743V308.281C230.639 307.94 230.542 307.601 230.345 307.322C230.152 307.085 229.9 306.904 229.614 306.797C229.286 306.668 228.939 306.591 228.587 306.568H227.354C226.731 306.55 226.108 306.619 225.504 306.774C225.311 306.807 225.136 306.908 225.01 307.058C224.884 307.209 224.817 307.4 224.819 307.596C224.819 307.596 224.819 307.733 224.819 307.733C224.819 307.733 224.819 307.733 224.819 307.596C224.79 307.158 224.848 306.719 224.989 306.304C225.13 305.888 225.352 305.505 225.642 305.175C225.963 304.871 226.344 304.636 226.761 304.487C227.177 304.337 227.62 304.276 228.062 304.307C228.409 304.308 228.754 304.354 229.089 304.444C229.458 304.527 229.797 304.708 230.071 304.969C230.396 305.3 230.645 305.698 230.801 306.134C231.006 306.784 231.099 307.464 231.076 308.144V310.748C231.048 311.15 231.126 311.552 231.304 311.913C231.38 312.042 231.492 312.147 231.625 312.216C231.758 312.284 231.908 312.314 232.057 312.302C232.177 312.313 232.299 312.299 232.413 312.259C232.527 312.22 232.632 312.156 232.719 312.073C232.843 311.93 232.943 311.768 233.016 311.593L235.14 312.164C235.032 312.759 234.764 313.312 234.363 313.763C234.155 313.981 233.903 314.151 233.623 314.261C233.343 314.372 233.043 314.42 232.742 314.403C232.41 314.416 232.081 314.345 231.783 314.197C231.544 314.054 231.347 313.849 231.212 313.604C231.07 313.333 230.978 313.039 230.938 312.736C230.915 312.401 230.915 312.065 230.938 311.731V311.045C230.819 311.977 230.383 312.839 229.705 313.489C229.31 313.819 228.849 314.059 228.352 314.193C227.856 314.327 227.336 314.352 226.829 314.266V314.266Z" fill="#AAAAAA"/>
<path d="M256.51 297.911C256.56 298.189 256.553 298.473 256.49 298.748C256.427 299.022 256.31 299.282 256.145 299.51C255.939 299.763 255.672 299.96 255.369 300.081C254.944 300.233 254.509 300.355 254.067 300.447H253.611L253.063 300.584C252.655 300.69 252.278 300.89 251.961 301.168C251.644 301.445 251.396 301.793 251.236 302.182C250.777 303.26 250.477 304.399 250.346 305.563L249.25 305.814C249.652 305.274 250.176 304.835 250.779 304.535C251.374 304.234 252.031 304.078 252.697 304.078C253.327 304.042 253.954 304.171 254.519 304.451C255.083 304.732 255.565 305.154 255.917 305.677C256.243 306.173 256.483 306.722 256.625 307.299C256.899 308.471 256.899 309.69 256.625 310.862C256.478 311.438 256.239 311.986 255.917 312.484C255.567 312.978 255.115 313.391 254.592 313.695C253.962 314.035 253.253 314.2 252.537 314.174C251.731 314.21 250.933 313.994 250.254 313.558C249.668 313.132 249.197 312.567 248.884 311.913C248.554 311.191 248.345 310.419 248.268 309.629C248.158 308.788 248.105 307.941 248.108 307.093C247.98 305.499 248.346 303.903 249.158 302.525C249.867 301.482 250.958 300.76 252.195 300.515L252.811 300.355C253.04 300.322 253.259 300.241 253.456 300.12C253.652 299.998 253.821 299.837 253.953 299.647C254.15 299.242 254.244 298.795 254.227 298.345V298.277C254.238 298.163 254.238 298.048 254.227 297.934L256.51 297.911ZM252.515 311.89C253.024 311.925 253.535 311.925 254.044 311.89C254.506 311.83 254.954 311.69 255.369 311.479C255.74 311.281 256.061 311 256.305 310.657C256.529 310.243 256.646 309.78 256.646 309.309C256.646 308.838 256.529 308.375 256.305 307.961C256.084 307.62 255.777 307.345 255.414 307.162C255.025 306.947 254.599 306.808 254.159 306.751C253.667 306.678 253.171 306.64 252.675 306.637C252.131 306.635 251.589 306.681 251.054 306.774C250.579 306.85 250.122 307.012 249.706 307.253C249.323 307.455 249 307.754 248.77 308.121C248.54 308.516 248.418 308.966 248.418 309.423C248.418 309.881 248.54 310.33 248.77 310.725C248.997 311.069 249.313 311.345 249.683 311.525C250.103 311.72 250.549 311.851 251.008 311.913C251.508 311.97 252.011 311.993 252.515 311.981V311.89Z" fill="#AAAAAA"/>
<path d="M267.264 314.266C266.532 314.294 265.804 314.145 265.141 313.832C264.606 313.566 264.143 313.174 263.794 312.69C263.453 312.21 263.212 311.666 263.086 311.091C262.969 310.481 262.908 309.862 262.903 309.241C262.908 308.642 262.969 308.046 263.086 307.459C263.21 306.873 263.442 306.315 263.771 305.815C264.075 305.321 264.499 304.912 265.004 304.627C265.593 304.31 266.254 304.152 266.922 304.17C267.597 304.153 268.268 304.285 268.885 304.558C269.401 304.797 269.831 305.187 270.118 305.678C270.451 306.238 270.668 306.859 270.757 307.505C270.884 308.329 270.945 309.161 270.94 309.995H263.063V308.099H270.666C270.563 307.78 270.385 307.492 270.146 307.257C269.908 307.022 269.616 306.849 269.296 306.751C268.566 306.478 267.793 306.339 267.013 306.34C266.611 306.305 266.206 306.305 265.803 306.34C265.425 306.398 265.057 306.505 264.707 306.66C264.377 306.782 264.074 306.968 263.817 307.208C263.563 307.437 263.374 307.728 263.269 308.053V309.812C263.366 310.178 263.536 310.52 263.771 310.817C264.002 311.093 264.28 311.325 264.593 311.502C264.911 311.672 265.248 311.803 265.598 311.89C265.966 311.963 266.341 312.002 266.716 312.005C267.334 312.032 267.947 311.898 268.497 311.616C268.901 311.37 269.251 311.044 269.525 310.657L271.306 312.142L270.872 312.758C270.661 313.013 270.415 313.236 270.141 313.421C269.792 313.648 269.416 313.833 269.022 313.969C268.456 314.159 267.862 314.26 267.264 314.266V314.266Z" fill="#AAAAAA"/>
<path d="M281.535 314.265C280.793 314.29 280.056 314.133 279.388 313.808C278.849 313.52 278.381 313.114 278.018 312.621C277.671 312.133 277.423 311.582 277.288 310.999C277.153 310.422 277.084 309.832 277.082 309.24C277.08 308.613 277.173 307.99 277.356 307.39C277.511 306.806 277.775 306.256 278.133 305.768C278.486 305.282 278.947 304.883 279.48 304.603C280.088 304.297 280.763 304.148 281.443 304.169C282.043 304.148 282.638 304.273 283.178 304.535C283.625 304.757 284.015 305.077 284.32 305.471C284.615 305.857 284.826 306.301 284.936 306.773C285.052 307.229 285.113 307.697 285.119 308.167C285.119 308.167 285.119 308.304 285.119 308.304C285.119 308.304 285.119 308.304 285.119 308.167C285.129 308.017 285.107 307.866 285.056 307.725C285.005 307.583 284.925 307.454 284.822 307.344C284.595 307.127 284.322 306.963 284.023 306.865C283.678 306.738 283.317 306.661 282.95 306.636H281.74C281.167 306.637 280.595 306.675 280.028 306.75C279.564 306.801 279.114 306.94 278.703 307.162C278.355 307.357 278.063 307.641 277.859 307.984C277.633 308.388 277.523 308.846 277.539 309.309C277.531 309.726 277.617 310.14 277.79 310.519C277.953 310.855 278.196 311.145 278.498 311.365C278.818 311.583 279.173 311.745 279.548 311.844C279.975 311.94 280.412 311.986 280.849 311.981C281.501 312.006 282.149 311.881 282.744 311.616C283.244 311.345 283.674 310.962 284 310.497L285.941 311.981C285.818 312.218 285.681 312.446 285.53 312.666C285.298 312.959 285.03 313.22 284.731 313.443C284.35 313.71 283.936 313.926 283.498 314.083C282.86 314.26 282.195 314.322 281.535 314.265V314.265Z" fill="#AAAAAA"/>
<path d="M301.718 306.591H291.078V304.307H301.718V306.591ZM295.85 314.128H291.078V311.844H295.85V314.128ZM293.704 314.128H293.476V304.307H293.704V314.128ZM301.718 314.128H297.152V311.844H301.718V314.128ZM299.435 314.128H299.207V304.307H299.435V314.128Z" fill="#AAAAAA"/>
<path d="M312.952 304.307C312.952 305.175 312.952 306.02 312.837 306.865C312.723 307.71 312.838 308.555 312.655 309.423C312.472 310.291 312.495 310.725 312.381 311.319C312.264 311.854 312.072 312.369 311.81 312.849C311.577 313.264 311.248 313.616 310.851 313.877C310.404 314.148 309.889 314.283 309.367 314.265C309.01 314.281 308.653 314.227 308.317 314.106C308.071 314.005 307.852 313.849 307.677 313.649C307.515 313.465 307.398 313.246 307.335 313.009C307.3 312.744 307.3 312.475 307.335 312.21V311.981V311.844C307.335 311.844 307.335 311.844 307.335 311.981V312.187C307.322 312.578 307.417 312.965 307.609 313.306C307.703 313.455 307.835 313.576 307.991 313.657C308.148 313.737 308.324 313.774 308.499 313.763C308.666 313.765 308.83 313.729 308.981 313.658C309.131 313.586 309.263 313.482 309.367 313.352C309.605 313.02 309.782 312.649 309.892 312.255C310.022 311.806 310.121 311.348 310.189 310.885C310.189 310.352 310.235 309.827 310.326 309.309C310.326 308.418 310.463 307.55 310.486 306.728C310.508 305.906 310.486 305.083 310.486 304.329L312.952 304.307ZM318.523 306.591H308.568V304.307H318.545L318.523 306.591ZM318.523 314.128H313.5V311.844H318.523V314.128ZM316.239 314.128H316.011V304.307H316.239V314.128Z" fill="#AAAAAA"/>
<path d="M327.039 314.266C326.609 314.285 326.18 314.207 325.784 314.037C325.458 313.9 325.169 313.689 324.939 313.421C324.709 313.167 324.544 312.862 324.459 312.53C324.369 312.195 324.323 311.849 324.323 311.502C324.317 311.073 324.394 310.646 324.551 310.246C324.699 309.839 324.961 309.482 325.304 309.218C325.717 308.879 326.201 308.637 326.72 308.51C327.463 308.306 328.233 308.213 329.003 308.236H330.944V310.109H327.473C326.702 310.054 325.927 310.147 325.19 310.383C324.802 310.566 324.597 310.817 324.597 311.114C324.605 311.298 324.671 311.474 324.786 311.618C324.901 311.762 325.058 311.865 325.236 311.913C325.867 312.093 326.522 312.17 327.177 312.142C327.617 312.176 328.06 312.176 328.501 312.142C328.913 312.083 329.314 311.959 329.688 311.776C330.056 311.586 330.36 311.292 330.563 310.93C330.766 310.569 330.858 310.157 330.83 309.743V308.281C330.85 307.94 330.753 307.601 330.556 307.322C330.363 307.085 330.111 306.904 329.825 306.797C329.489 306.668 329.134 306.591 328.775 306.568H327.565C326.942 306.55 326.319 306.619 325.715 306.774C325.522 306.807 325.347 306.908 325.221 307.058C325.095 307.209 325.028 307.4 325.03 307.596C325.03 307.596 325.03 307.733 325.03 307.733C325.03 307.733 324.916 307.733 324.916 307.596C324.887 307.158 324.945 306.719 325.086 306.304C325.227 305.888 325.449 305.505 325.738 305.175C326.06 304.871 326.441 304.636 326.857 304.487C327.274 304.337 327.717 304.276 328.158 304.307C328.505 304.308 328.851 304.354 329.186 304.444C329.551 304.536 329.889 304.716 330.167 304.969C330.493 305.296 330.735 305.695 330.875 306.134C331.1 306.78 331.201 307.462 331.172 308.144V310.748C331.152 311.147 331.222 311.545 331.378 311.913C331.46 312.042 331.575 312.146 331.712 312.215C331.849 312.283 332.001 312.313 332.154 312.302C332.274 312.313 332.396 312.299 332.51 312.259C332.624 312.22 332.728 312.156 332.816 312.073C332.939 311.93 333.039 311.768 333.113 311.593L335.236 312.164C335.129 312.759 334.861 313.312 334.46 313.763C334.252 313.981 334 314.151 333.72 314.261C333.44 314.372 333.139 314.42 332.839 314.403C332.507 314.416 332.177 314.345 331.88 314.197C331.64 314.054 331.443 313.849 331.309 313.604C331.167 313.333 331.074 313.039 331.035 312.736C331.012 312.401 331.012 312.065 331.035 311.731V311.045C330.915 311.977 330.48 312.839 329.802 313.489C329.421 313.803 328.978 314.035 328.502 314.168C328.027 314.302 327.529 314.335 327.039 314.266V314.266Z" fill="#AAAAAA"/>
<path d="M347.383 309.172H344.734L347.314 306.591H338.752L341.332 309.172H338.684V304.307H347.383V309.172ZM345.533 314.128H340.533V311.844H345.556L345.533 314.128ZM343.25 314.128H343.022V304.307H343.25V314.128Z" fill="#AAAAAA"/>
<path d="M358.045 306.591H353.182V304.307H358.045V306.591ZM358.045 314.128H353.182V311.844H358.045V314.128ZM355.762 314.128H355.533V304.307H355.762V314.128ZM361.47 310.177H355.647V308.213H361.47V310.177ZM363.981 306.591H359.141V304.307H363.981V306.591ZM363.981 314.128H359.141V311.844H363.981V314.128ZM361.698 314.128H361.47V304.307H361.698V314.128Z" fill="#AAAAAA"/>
<path d="M374.393 314.266C373.666 314.283 372.946 314.126 372.292 313.809C371.758 313.512 371.297 313.098 370.945 312.598C370.601 312.1 370.353 311.543 370.214 310.953C369.91 309.816 369.91 308.619 370.214 307.482C370.349 306.898 370.598 306.347 370.945 305.86C371.285 305.349 371.748 304.932 372.292 304.649C372.939 304.309 373.663 304.144 374.393 304.17C375.13 304.144 375.861 304.31 376.516 304.649C377.067 304.932 377.538 305.348 377.886 305.86C378.225 306.352 378.473 306.902 378.617 307.482C378.891 308.623 378.891 309.812 378.617 310.953C378.468 311.539 378.221 312.095 377.886 312.598C377.525 313.098 377.057 313.512 376.516 313.809C375.855 314.13 375.127 314.286 374.393 314.266ZM374.393 311.867C374.902 311.902 375.413 311.902 375.923 311.867C376.389 311.808 376.843 311.677 377.27 311.479C377.653 311.291 377.989 311.017 378.251 310.679C378.506 310.269 378.633 309.792 378.617 309.309C378.639 308.833 378.511 308.361 378.251 307.961C377.996 307.617 377.658 307.343 377.27 307.162C376.847 306.955 376.391 306.823 375.923 306.774C374.916 306.621 373.892 306.621 372.886 306.774C372.41 306.82 371.946 306.952 371.516 307.162C371.134 307.343 370.804 307.618 370.557 307.961C370.29 308.359 370.154 308.83 370.169 309.309C370.149 309.795 370.285 310.276 370.557 310.679C370.81 311.017 371.138 311.29 371.516 311.479C371.949 311.679 372.412 311.81 372.886 311.867C373.385 311.939 373.888 311.978 374.393 311.981V311.867Z" fill="#AAAAAA"/>
<path d="M389.234 314.266C388.501 314.294 387.773 314.145 387.111 313.832C386.575 313.566 386.113 313.174 385.764 312.69C385.423 312.21 385.182 311.666 385.056 311.091C384.938 310.481 384.877 309.862 384.873 309.241C384.877 308.642 384.938 308.046 385.056 307.459C385.182 306.878 385.406 306.321 385.718 305.815C386.036 305.324 386.466 304.917 386.973 304.627C387.562 304.31 388.223 304.152 388.892 304.17C389.567 304.153 390.237 304.285 390.855 304.558C391.37 304.797 391.801 305.187 392.088 305.678C392.42 306.238 392.637 306.859 392.727 307.505C392.853 308.329 392.914 309.161 392.91 309.995H385.033V308.099H392.636C392.533 307.78 392.354 307.492 392.116 307.257C391.877 307.022 391.586 306.849 391.266 306.751C390.536 306.478 389.762 306.339 388.983 306.34C388.58 306.305 388.175 306.305 387.773 306.34C387.395 306.398 387.026 306.505 386.677 306.66C386.347 306.782 386.044 306.968 385.786 307.208C385.532 307.437 385.343 307.728 385.238 308.053V309.812C385.335 310.178 385.506 310.52 385.741 310.817C385.971 311.093 386.25 311.325 386.563 311.502C386.88 311.672 387.218 311.803 387.567 311.89C387.936 311.963 388.31 312.002 388.686 312.005C389.303 312.032 389.917 311.898 390.467 311.616C390.871 311.37 391.221 311.044 391.494 310.657L393.275 312.142L392.841 312.758C392.631 313.013 392.384 313.236 392.111 313.421C391.761 313.648 391.386 313.833 390.992 313.969C390.425 314.159 389.832 314.26 389.234 314.266V314.266Z" fill="#AAAAAA"/>
<path d="M418.665 306.591H408.025V304.307H418.665V306.591ZM412.797 314.128H408.025V311.844H412.797V314.128ZM410.651 314.128H410.423V304.307H410.651V314.128ZM418.665 314.128H413.893V311.844H418.665V314.128ZM416.382 314.128H416.154V304.307H416.382V314.128Z" fill="#AAAAAA"/>
<path d="M429.03 314.266C428.303 314.283 427.583 314.126 426.929 313.809C426.395 313.512 425.934 313.098 425.582 312.598C425.231 312.102 424.975 311.544 424.829 310.953C424.554 309.812 424.554 308.623 424.829 307.482C424.971 306.897 425.227 306.346 425.582 305.86C425.922 305.349 426.385 304.932 426.929 304.649C427.576 304.309 428.3 304.144 429.03 304.17C429.767 304.144 430.498 304.31 431.153 304.649C431.699 304.939 432.169 305.354 432.523 305.86C432.862 306.352 433.109 306.902 433.254 307.482C433.528 308.623 433.528 309.812 433.254 310.953C433.105 311.539 432.858 312.095 432.523 312.598C432.156 313.093 431.689 313.505 431.153 313.809C430.492 314.13 429.764 314.286 429.03 314.266ZM429.03 311.867C429.539 311.902 430.05 311.902 430.56 311.867C431.026 311.808 431.48 311.677 431.907 311.479C432.286 311.284 432.621 311.012 432.888 310.679C433.143 310.269 433.27 309.792 433.254 309.309C433.276 308.833 433.148 308.361 432.888 307.961C432.627 307.622 432.291 307.349 431.907 307.162C431.484 306.955 431.028 306.823 430.56 306.774C430.053 306.701 429.542 306.662 429.03 306.659C428.518 306.664 428.007 306.702 427.5 306.774C427.032 306.823 426.576 306.955 426.153 307.162C425.771 307.343 425.441 307.618 425.194 307.961C424.911 308.351 424.773 308.828 424.806 309.309C424.774 309.797 424.911 310.281 425.194 310.679C425.447 311.017 425.776 311.29 426.153 311.479C426.579 311.677 427.034 311.808 427.5 311.867C428.007 311.939 428.518 311.977 429.03 311.981V311.867Z" fill="#AAAAAA"/>
<path d="M443.94 314.265C443.152 314.307 442.367 314.15 441.656 313.808C441.119 313.526 440.657 313.118 440.309 312.621C439.952 312.139 439.703 311.586 439.578 310.999C439.444 310.422 439.375 309.832 439.373 309.24C439.371 308.613 439.464 307.99 439.647 307.39C439.802 306.806 440.066 306.256 440.423 305.768C440.777 305.282 441.238 304.883 441.77 304.603C442.378 304.297 443.053 304.148 443.734 304.169C444.333 304.148 444.929 304.273 445.469 304.535C445.915 304.757 446.305 305.077 446.611 305.471C446.906 305.857 447.116 306.301 447.227 306.773C447.343 307.229 447.404 307.697 447.41 308.167C447.41 308.167 447.41 308.304 447.41 308.304C447.41 308.304 447.41 308.304 447.41 308.167C447.415 308.015 447.389 307.864 447.335 307.723C447.28 307.581 447.197 307.453 447.09 307.344C446.875 307.123 446.608 306.958 446.314 306.865C445.962 306.736 445.592 306.659 445.218 306.636C444.823 306.614 444.426 306.614 444.031 306.636C443.458 306.637 442.886 306.675 442.318 306.75C441.854 306.801 441.405 306.94 440.994 307.162C440.645 307.357 440.354 307.641 440.149 307.984C439.924 308.388 439.813 308.846 439.83 309.309C439.822 309.726 439.907 310.14 440.081 310.519C440.238 310.852 440.473 311.142 440.766 311.365C441.091 311.574 441.445 311.736 441.816 311.844C442.251 311.938 442.695 311.984 443.14 311.981C443.784 312.009 444.426 311.884 445.013 311.616C445.524 311.353 445.963 310.969 446.291 310.497L448.232 311.981C448.108 312.222 447.963 312.451 447.798 312.666C447.581 312.964 447.319 313.226 447.022 313.443C446.641 313.71 446.226 313.926 445.789 314.083C445.187 314.247 444.562 314.308 443.94 314.265Z" fill="#AAAAAA"/>
<path d="M458.027 314.266C457.287 314.298 456.55 314.149 455.881 313.832C455.356 313.56 454.903 313.169 454.556 312.69C454.215 312.21 453.975 311.666 453.849 311.091C453.731 310.481 453.67 309.862 453.666 309.241C453.67 308.642 453.731 308.046 453.849 307.459C453.975 306.878 454.199 306.321 454.511 305.815C454.829 305.324 455.259 304.917 455.766 304.627C456.355 304.31 457.016 304.152 457.685 304.17C458.36 304.153 459.03 304.285 459.648 304.558C460.163 304.797 460.593 305.187 460.881 305.678C461.213 306.238 461.43 306.859 461.52 307.505C461.646 308.329 461.707 309.161 461.703 309.995H453.826V308.099H461.543C461.44 307.78 461.262 307.492 461.023 307.257C460.785 307.022 460.493 306.849 460.173 306.751C459.443 306.478 458.67 306.339 457.89 306.34C457.487 306.305 457.082 306.305 456.68 306.34C456.295 306.398 455.919 306.506 455.561 306.66C455.234 306.787 454.932 306.973 454.67 307.208C454.423 307.438 454.242 307.73 454.145 308.053V309.812C454.242 310.178 454.413 310.52 454.648 310.817C454.875 311.087 455.145 311.318 455.447 311.502C455.774 311.669 456.119 311.799 456.474 311.89C456.843 311.963 457.217 312.002 457.593 312.005C458.203 312.032 458.81 311.898 459.351 311.616C459.762 311.37 460.119 311.044 460.401 310.657L462.182 312.142L461.748 312.758C461.538 313.013 461.292 313.236 461.018 313.421C460.663 313.653 460.279 313.837 459.876 313.969C459.282 314.174 458.656 314.275 458.027 314.266V314.266Z" fill="#AAAAAA"/>
<path d="M472.366 306.591H467.799V304.307H472.366V306.591ZM482.937 314.128H467.776V311.844H482.937V314.128ZM470.402 314.128H470.174V304.307H470.402V314.128ZM477.434 306.591H473.279V304.307H477.526L477.434 306.591ZM475.471 314.128H475.243V304.307H475.471V314.128ZM482.937 306.591H478.371V304.307H482.937V306.591ZM482.937 316.732H480.22L482.823 314.128H480.334V311.844H482.937V316.732ZM480.471 314.128H480.243V304.307H480.471V314.128Z" fill="#AAAAAA"/>
<path d="M493.326 314.266C492.586 314.298 491.849 314.149 491.18 313.832C490.655 313.56 490.202 313.169 489.855 312.69C489.515 312.21 489.274 311.666 489.147 311.091C489.03 310.481 488.969 309.862 488.965 309.241C488.969 308.642 489.03 308.046 489.147 307.459C489.274 306.878 489.498 306.321 489.81 305.815C490.128 305.324 490.559 304.917 491.066 304.627C491.654 304.31 492.315 304.152 492.983 304.17C493.659 304.153 494.329 304.285 494.947 304.558C495.462 304.797 495.893 305.187 496.18 305.678C496.512 306.238 496.729 306.859 496.819 307.505C496.945 308.329 497.006 309.161 497.002 309.995H489.125V308.099H496.728C496.625 307.78 496.446 307.492 496.208 307.257C495.969 307.022 495.678 306.849 495.358 306.751C494.628 306.478 493.854 306.339 493.075 306.34C492.672 306.305 492.267 306.305 491.865 306.34C491.48 306.398 491.104 306.506 490.746 306.66C490.418 306.787 490.117 306.973 489.855 307.208C489.608 307.438 489.427 307.73 489.33 308.053V309.812C489.427 310.178 489.598 310.52 489.832 310.817C490.06 311.087 490.33 311.318 490.632 311.502C490.959 311.669 491.303 311.799 491.659 311.89C492.027 311.963 492.402 312.002 492.778 312.005C493.388 312.032 493.994 311.898 494.536 311.616C494.947 311.37 495.304 311.044 495.586 310.657L497.367 312.142L496.933 312.758C496.722 313.013 496.477 313.236 496.203 313.421C495.848 313.653 495.464 313.837 495.061 313.969C494.503 314.162 493.917 314.262 493.326 314.266V314.266Z" fill="#AAAAAA"/>
<path d="M507.938 306.591H503.075V304.307H507.938V306.591ZM507.938 314.128H503.075V311.844H507.938V314.128ZM505.655 314.128H505.427V304.307H505.655V314.128ZM511.363 310.177H505.541V308.213H511.363V310.177ZM513.875 306.591H509.035V304.307H513.875V306.591ZM513.875 314.128H509.035V311.844H513.875V314.128ZM511.592 314.128H511.363V304.307H511.592V314.128Z" fill="#AAAAAA"/>
<path d="M524.721 306.59H519.812V304.306H524.721V306.59ZM522.323 314.128H519.812V311.844H522.323V314.128ZM522.437 314.128H522.209V304.306H522.437V314.128ZM528.077 306.567H527.962L523.396 314.128H522.3V311.844H522.414L526.981 304.283H528.077V306.567ZM530.588 314.128H525.679V311.844H530.588V314.128ZM528.305 314.128H528.077V304.306H528.305V314.128ZM530.588 306.59H528.077V304.306H530.588V306.59Z" fill="#AAAAAA"/>
<path d="M540.931 314.266C540.191 314.297 539.455 314.148 538.785 313.832C538.261 313.559 537.807 313.168 537.461 312.69C537.12 312.209 536.879 311.666 536.753 311.091C536.636 310.481 536.575 309.861 536.57 309.24C536.575 308.642 536.636 308.046 536.753 307.459C536.879 306.877 537.103 306.321 537.415 305.814C537.733 305.324 538.164 304.917 538.671 304.626C539.259 304.308 539.92 304.15 540.589 304.17C541.264 304.152 541.935 304.285 542.552 304.558C543.068 304.797 543.498 305.187 543.785 305.677C544.118 306.238 544.335 306.859 544.425 307.505C544.551 308.328 544.612 309.161 544.607 309.994H536.73V308.098H544.333C544.227 307.782 544.047 307.495 543.809 307.261C543.571 307.027 543.282 306.852 542.963 306.751C542.233 306.479 541.46 306.34 540.68 306.34C540.278 306.305 539.873 306.305 539.47 306.34C539.085 306.398 538.709 306.506 538.351 306.659C538.024 306.787 537.722 306.973 537.461 307.208C537.214 307.437 537.032 307.729 536.936 308.053V309.811C537.023 310.181 537.195 310.525 537.438 310.816C537.666 311.087 537.935 311.318 538.237 311.502C538.564 311.668 538.909 311.799 539.265 311.89C539.633 311.963 540.008 312.001 540.383 312.004C540.993 312.03 541.599 311.896 542.142 311.616C542.548 311.364 542.904 311.038 543.192 310.657L544.973 312.141L544.539 312.758C544.328 313.012 544.082 313.236 543.808 313.42C543.451 313.648 543.068 313.832 542.667 313.969C542.108 314.161 541.522 314.262 540.931 314.266V314.266Z" fill="#AAAAAA"/>
<path d="M95.4071 275.571C95.4116 274.531 95.1075 273.513 94.5332 272.646C93.9589 271.779 93.1403 271.103 92.1811 270.701C91.222 270.3 90.1654 270.193 89.1452 270.393C88.1251 270.593 87.1872 271.092 86.4505 271.826C85.7138 272.559 85.2114 273.495 85.0069 274.515C84.8024 275.535 84.905 276.592 85.3018 277.554C85.6986 278.515 86.3717 279.337 87.2358 279.915C88.0999 280.493 89.1161 280.802 90.1557 280.802C91.5445 280.802 92.8768 280.252 93.8609 279.271C94.8451 278.291 95.4011 276.961 95.4071 275.571Z" fill="#AAAAAA"/>
<path d="M129.449 275.571C129.454 274.531 129.149 273.513 128.575 272.646C128.001 271.779 127.182 271.103 126.223 270.701C125.264 270.3 124.207 270.193 123.187 270.393C122.167 270.593 121.229 271.092 120.492 271.826C119.756 272.559 119.253 273.495 119.049 274.515C118.844 275.535 118.947 276.592 119.344 277.554C119.741 278.515 120.414 279.337 121.278 279.915C122.142 280.493 123.158 280.802 124.198 280.802C125.586 280.802 126.919 280.252 127.903 279.271C128.887 278.291 129.443 276.961 129.449 275.571V275.571Z" fill="#AAAAAA"/>
<path d="M163.47 275.571C163.474 274.53 163.169 273.511 162.594 272.644C162.019 271.777 161.199 271.1 160.238 270.699C159.278 270.299 158.22 270.193 157.199 270.395C156.179 270.597 155.241 271.098 154.505 271.834C153.769 272.57 153.268 273.508 153.067 274.529C152.865 275.55 152.971 276.609 153.371 277.569C153.771 278.53 154.448 279.351 155.315 279.926C156.182 280.502 157.201 280.806 158.241 280.802C159.626 280.796 160.952 280.243 161.932 279.263C162.911 278.284 163.464 276.957 163.47 275.571Z" fill="#AAAAAA"/>
<path d="M197.513 275.571C197.517 274.531 197.213 273.513 196.639 272.646C196.065 271.779 195.246 271.103 194.287 270.701C193.328 270.3 192.271 270.193 191.251 270.393C190.231 270.593 189.293 271.092 188.556 271.826C187.819 272.559 187.317 273.495 187.112 274.515C186.908 275.535 187.01 276.592 187.407 277.554C187.804 278.515 188.477 279.337 189.341 279.915C190.205 280.493 191.222 280.802 192.261 280.802C193.65 280.802 194.982 280.252 195.967 279.271C196.951 278.291 197.507 276.961 197.513 275.571V275.571Z" fill="#AAAAAA"/>
<path d="M231.532 275.571C231.537 274.53 231.232 273.511 230.657 272.644C230.081 271.777 229.261 271.1 228.301 270.699C227.34 270.299 226.283 270.193 225.262 270.395C224.241 270.597 223.303 271.098 222.567 271.834C221.831 272.57 221.331 273.508 221.129 274.529C220.927 275.55 221.033 276.609 221.433 277.569C221.834 278.53 222.51 279.351 223.377 279.926C224.245 280.502 225.263 280.806 226.303 280.802C227.69 280.802 229.02 280.251 230.001 279.27C230.981 278.289 231.532 276.959 231.532 275.571V275.571Z" fill="#AAAAAA"/>
<path d="M265.575 275.571C265.58 274.531 265.275 273.513 264.701 272.646C264.127 271.779 263.308 271.103 262.349 270.701C261.39 270.3 260.333 270.193 259.313 270.393C258.293 270.593 257.355 271.092 256.618 271.826C255.882 272.559 255.379 273.495 255.175 274.515C254.97 275.535 255.073 276.592 255.47 277.554C255.867 278.515 256.54 279.337 257.404 279.915C258.268 280.493 259.284 280.802 260.324 280.802C261.712 280.802 263.045 280.252 264.029 279.271C265.013 278.291 265.569 276.961 265.575 275.571Z" fill="#AAAAAA"/>
<path d="M299.595 275.571C299.599 274.53 299.294 273.511 298.719 272.644C298.144 271.777 297.324 271.1 296.363 270.699C295.403 270.299 294.345 270.193 293.324 270.395C292.304 270.597 291.366 271.098 290.63 271.834C289.894 272.57 289.393 273.508 289.192 274.529C288.99 275.55 289.096 276.609 289.496 277.569C289.896 278.53 290.573 279.351 291.44 279.926C292.307 280.502 293.326 280.806 294.366 280.802C295.753 280.802 297.083 280.251 298.063 279.27C299.044 278.289 299.595 276.959 299.595 275.571V275.571Z" fill="#AAAAAA"/>
<path d="M333.683 275.571C333.688 274.531 333.384 273.513 332.81 272.646C332.235 271.779 331.417 271.103 330.458 270.701C329.498 270.3 328.442 270.193 327.422 270.393C326.401 270.593 325.464 271.092 324.727 271.826C323.99 272.559 323.488 273.495 323.283 274.515C323.079 275.535 323.181 276.592 323.578 277.554C323.975 278.515 324.648 279.337 325.512 279.915C326.376 280.493 327.392 280.802 328.432 280.802C329.821 280.802 331.153 280.252 332.137 279.271C333.122 278.291 333.677 276.961 333.683 275.571Z" fill="#AAAAAA"/>
<path d="M367.681 275.571C367.685 274.531 367.381 273.513 366.806 272.646C366.232 271.779 365.414 271.103 364.455 270.701C363.496 270.3 362.439 270.193 361.419 270.393C360.399 270.593 359.461 271.092 358.724 271.826C357.987 272.559 357.485 273.495 357.28 274.515C357.076 275.535 357.178 276.592 357.575 277.554C357.972 278.515 358.645 279.337 359.509 279.915C360.373 280.493 361.389 280.802 362.429 280.802C363.818 280.802 365.15 280.252 366.134 279.271C367.118 278.291 367.674 276.961 367.681 275.571Z" fill="#AAAAAA"/>
<path d="M401.7 275.571C401.705 274.53 401.4 273.511 400.824 272.644C400.249 271.777 399.429 271.1 398.469 270.699C397.508 270.299 396.45 270.193 395.43 270.395C394.409 270.597 393.471 271.098 392.735 271.834C391.999 272.57 391.499 273.508 391.297 274.529C391.095 275.55 391.201 276.609 391.601 277.569C392.002 278.53 392.678 279.351 393.545 279.926C394.412 280.502 395.431 280.806 396.471 280.802C397.856 280.796 399.183 280.243 400.162 279.263C401.141 278.284 401.694 276.957 401.7 275.571Z" fill="#AAAAAA"/>
<path d="M435.743 275.571C435.747 274.531 435.443 273.513 434.869 272.646C434.295 271.779 433.476 271.103 432.517 270.701C431.558 270.3 430.501 270.193 429.481 270.393C428.461 270.593 427.523 271.092 426.787 271.826C426.05 272.559 425.547 273.495 425.343 274.515C425.138 275.535 425.241 276.592 425.638 277.554C426.035 278.515 426.708 279.337 427.572 279.915C428.436 280.493 429.452 280.802 430.492 280.802C431.881 280.802 433.213 280.252 434.197 279.271C435.181 278.291 435.737 276.961 435.743 275.571Z" fill="#AAAAAA"/>
<path d="M469.763 275.571C469.767 274.53 469.462 273.511 468.887 272.644C468.312 271.777 467.492 271.1 466.531 270.699C465.571 270.299 464.513 270.193 463.492 270.395C462.472 270.597 461.534 271.098 460.798 271.834C460.062 272.57 459.561 273.508 459.36 274.529C459.158 275.55 459.264 276.609 459.664 277.569C460.064 278.53 460.741 279.351 461.608 279.926C462.475 280.502 463.494 280.806 464.534 280.802C465.921 280.802 467.251 280.251 468.231 279.27C469.212 278.289 469.763 276.959 469.763 275.571V275.571Z" fill="#AAAAAA"/>
<path d="M503.806 275.571C503.81 274.531 503.506 273.513 502.931 272.646C502.357 271.779 501.539 271.103 500.58 270.701C499.621 270.3 498.564 270.193 497.544 270.393C496.524 270.593 495.586 271.092 494.849 271.826C494.112 272.559 493.61 273.495 493.405 274.515C493.201 275.535 493.303 276.592 493.7 277.554C494.097 278.515 494.77 279.337 495.634 279.915C496.498 280.493 497.514 280.802 498.554 280.802C499.943 280.802 501.275 280.252 502.259 279.271C503.243 278.291 503.799 276.961 503.806 275.571V275.571Z" fill="#AAAAAA"/>
<path d="M537.826 275.571C537.831 274.53 537.526 273.511 536.95 272.644C536.375 271.777 535.555 271.1 534.595 270.699C533.634 270.299 532.577 270.193 531.556 270.395C530.535 270.597 529.597 271.098 528.861 271.834C528.125 272.57 527.625 273.508 527.423 274.529C527.221 275.55 527.327 276.609 527.727 277.569C528.128 278.53 528.804 279.351 529.671 279.926C530.538 280.502 531.557 280.806 532.597 280.802C533.984 280.802 535.314 280.251 536.294 279.27C537.275 278.289 537.826 276.959 537.826 275.571V275.571Z" fill="#AAAAAA"/>
<path d="M571.868 275.571C571.873 274.53 571.568 273.511 570.993 272.644C570.417 271.777 569.597 271.1 568.637 270.699C567.676 270.299 566.619 270.193 565.598 270.395C564.577 270.597 563.639 271.098 562.903 271.834C562.168 272.57 561.667 273.508 561.465 274.529C561.263 275.55 561.369 276.609 561.769 277.569C562.17 278.53 562.846 279.351 563.713 279.926C564.58 280.502 565.599 280.806 566.64 280.802C568.024 280.796 569.351 280.243 570.33 279.263C571.309 278.284 571.862 276.957 571.868 275.571V275.571Z" fill="#AAAAAA"/>
</svg>
