<svg width="400" height="550" viewBox="0 0 400 550" fill="none" xmlns="http://www.w3.org/2000/svg">
<path d="M125.9 249.5H150.05L126.6 179.15H52.75L28.25 249.5H52.75V253H0.950012V249.5H24.4L110.5 0.300476H113.65L199.4 249.5H223.2V253H125.9V249.5ZM53.8 175.65H125.55L90.2 70.6505L53.8 175.65Z" fill="#D33A27"/>
<path d="M287.85 252.101C273.15 252.101 262.3 248.834 255.3 242.301C248.3 235.767 244.8 226.667 244.8 215.001C244.8 200.534 250.4 189.684 261.6 182.451C272.8 174.984 290.417 171.251 314.45 171.251H329.15V148.851C329.15 139.751 328.8 132.167 328.1 126.101C327.4 119.801 326.117 114.901 324.25 111.401C322.617 107.667 320.167 104.984 316.9 103.351C313.633 101.717 309.55 100.901 304.65 100.901C298.583 100.901 293.567 102.184 289.6 104.751C285.633 107.084 283.65 111.401 283.65 117.701C283.65 121.667 284.233 124.934 285.4 127.501C286.8 129.834 287.5 132.867 287.5 136.601C287.5 141.267 285.983 145.234 282.95 148.501C280.15 151.767 275.833 153.401 270 153.401C258.8 153.401 253.2 147.334 253.2 135.201C253.2 123.301 258.567 114.084 269.3 107.551C280.033 100.784 294.267 97.4005 312 97.4005C318.533 97.4005 325.3 98.1005 332.3 99.5005C339.3 100.901 345.717 103.817 351.55 108.251C357.383 112.684 362.05 119.101 365.55 127.501C369.283 135.901 371.15 146.984 371.15 160.751V230.751C371.15 241.717 374.533 247.201 381.3 247.201C385.267 247.201 388.417 245.801 390.75 243.001C393.317 240.201 395.3 236.817 396.7 232.851L399.5 233.901C397.633 239.267 394.717 243.701 390.75 247.201C387.017 250.467 380.133 252.101 370.1 252.101C358.667 252.101 349.217 249.417 341.75 244.051C334.517 238.684 330.9 229.117 330.9 215.351V213.601H330.2C327.633 228.067 322.967 238.101 316.2 243.701C309.433 249.301 299.983 252.101 287.85 252.101ZM301.5 245.101C307.333 245.101 312 243.117 315.5 239.151C319.233 235.184 322.033 230.167 323.9 224.101C326 218.034 327.4 211.384 328.1 204.151C328.8 196.684 329.15 189.451 329.15 182.451V174.751H318.65C306.75 174.751 298 178.134 292.4 184.901C286.8 191.667 284 202.051 284 216.051C284 224.684 285.167 231.684 287.5 237.051C290.067 242.417 294.733 245.101 301.5 245.101Z" fill="#D33A27"/>
<path fill-rule="evenodd" clip-rule="evenodd" d="M306 144.174C326.435 144.174 343 127.609 343 107.174C343 86.7398 326.435 70.1743 306 70.1743C285.565 70.1743 269 86.7398 269 107.174C269 127.609 285.565 144.174 306 144.174ZM306 145.174C326.987 145.174 344 128.161 344 107.174C344 86.1875 326.987 69.1743 306 69.1743C285.013 69.1743 268 86.1875 268 107.174C268 128.161 285.013 145.174 306 145.174Z" fill="#1C1C1C"/>
<path d="M285.396 519.828L284.599 520.358L274.57 526.99L272.047 528.648L271.25 529.178C267.066 531.897 262.151 535.014 256.971 537.732C255.111 538.727 253.252 539.656 251.326 540.451L249.001 541.512L248.005 541.977C246.278 542.706 244.552 543.369 242.891 543.9C241.231 544.43 240.102 544.828 238.774 545.16H237.977L235.852 545.624H234.656C233.082 545.981 231.484 546.225 229.874 546.353C225.059 546.762 220.21 546.359 215.529 545.16C214.638 544.962 213.771 544.673 212.939 544.297H211.81L209.685 543.502L205.036 541.446L200.719 539.523H199.856L198.727 539.059L196.535 538.462C195.381 538.173 194.203 537.996 193.015 537.931C190.278 537.795 187.543 538.224 184.979 539.191C182.534 540.075 180.139 541.094 177.807 542.242C176.213 543.037 174.685 543.767 173.158 544.364L171.232 545.093L170.103 545.425H169.571L167.313 545.889H166.849C164.643 546.162 162.413 546.162 160.207 545.889H159.211H158.813H156.887C153.357 545.147 149.875 544.195 146.46 543.038C143.471 542.043 140.416 540.982 137.428 539.854L134.572 538.86L131.251 537.732L125.54 535.942L121.223 534.881H119.961L117.902 534.483V536.539V537.931H119.23C120.227 537.931 121.289 538.396 122.285 538.727C123.282 539.059 124.477 539.258 125.606 539.656H125.938L128.86 540.584H129.657L131.052 541.048H131.583H131.982L134.173 541.844L135.9 542.441L145.065 545.69C148.794 546.964 152.612 547.962 156.488 548.674H157.883H158.281C161.362 549.289 164.511 549.49 167.645 549.271H168.442L169.837 548.939C170.54 548.802 171.229 548.602 171.896 548.343C174.171 547.464 176.389 546.445 178.537 545.292C180.698 544.222 182.915 543.27 185.179 542.441C187.29 541.61 189.552 541.226 191.82 541.313C193.06 541.388 194.286 541.611 195.473 541.977H196.07H196.469H197.266L198.395 542.374L202.778 544.297C204.77 545.226 206.763 546.088 208.822 546.884C209.17 547.085 209.553 547.22 209.951 547.282L211.81 548.011H212.142L213.869 548.475C217.642 549.458 221.526 549.948 225.425 549.934H229.343C230.86 549.796 232.367 549.575 233.859 549.271C234.535 549.203 235.202 549.069 235.852 548.873L239.106 548.144L242.427 547.149C244.818 546.389 247.168 545.503 249.466 544.496L250.197 544.099C252.656 543.097 255.052 541.945 257.369 540.65C261.952 538.197 266.335 535.544 270.121 533.091L286.79 522.282V518.369L285.396 519.828ZM98.8417 375.597V377.255H297.483V375.597H98.8417Z" fill="#471B1B"/>
<path d="M108.737 357.626H107.807V356.698H108.671V355.968V356.631L109.268 356.167L110.597 357.626H108.737Z" fill="#471B1B"/>
<path d="M92.6652 284.748C92.8007 284.905 92.8754 285.105 92.8754 285.312C92.8754 285.519 92.8007 285.719 92.6652 285.875C92.4714 285.941 92.2613 285.941 92.0675 285.875C92.0301 285.634 92.0301 285.388 92.0675 285.146C92.0806 284.646 92.2425 284.161 92.5324 283.753C92.5978 284.082 92.6421 284.414 92.6652 284.748Z" fill="#471B1B"/>
<path d="M92.0009 286.738H91.4697H91.0713V286.34C91.0142 286.011 91.0142 285.674 91.0713 285.345C91.1107 284.676 91.3412 284.031 91.7354 283.488L92.3331 282.56L93.0636 283.422C93.2429 283.672 93.3985 283.939 93.5285 284.218C93.726 284.59 93.7741 285.024 93.6631 285.43C93.5521 285.837 93.2903 286.186 92.9308 286.406L92.0009 286.738Z" fill="#471B1B"/>
<path d="M296.553 285.147C296.562 285.257 296.549 285.367 296.513 285.472C296.477 285.576 296.42 285.672 296.345 285.753C296.27 285.834 296.179 285.898 296.077 285.942C295.976 285.987 295.867 286.009 295.756 286.009H94.1262C93.8972 286.009 93.6777 285.918 93.5158 285.756C93.3538 285.595 93.2628 285.375 93.2628 285.147C93.2624 285.036 93.2852 284.927 93.3293 284.826C93.3734 284.725 93.438 284.634 93.5192 284.559C93.6004 284.484 93.6964 284.427 93.8009 284.391C93.9054 284.355 94.0161 284.342 94.1262 284.351H295.756C295.968 284.351 296.17 284.435 296.32 284.584C296.469 284.733 296.553 284.936 296.553 285.147Z" fill="#471B1B"/>
<path d="M295.756 286.804H94.1262C93.6795 286.805 93.2502 286.632 92.9282 286.323C92.6062 286.014 92.4168 285.592 92.3996 285.147C92.4168 284.701 92.6062 284.279 92.9282 283.97C93.2502 283.661 93.6795 283.488 94.1262 283.489H295.756C296.197 283.489 296.619 283.663 296.93 283.974C297.242 284.285 297.417 284.707 297.417 285.147C297.417 285.586 297.242 286.008 296.93 286.319C296.619 286.63 296.197 286.804 295.756 286.804Z" fill="#471B1B"/>
<path d="M386.343 287.401C384.104 280.03 379.71 273.495 373.725 268.634C371.645 267.002 369.422 265.56 367.084 264.324C359.171 260.178 350.274 258.271 341.355 258.808C332.435 259.346 323.833 262.308 316.477 267.374C314.095 268.972 311.871 270.793 309.836 272.812L308.175 274.47C305.319 277.562 302.885 281.018 300.936 284.748C300.839 284.943 300.819 285.168 300.88 285.377C300.942 285.587 301.081 285.765 301.268 285.876C301.367 285.931 301.477 285.965 301.59 285.974C301.703 285.984 301.816 285.969 301.923 285.932C302.03 285.894 302.127 285.834 302.209 285.756C302.291 285.678 302.355 285.583 302.398 285.478C303.473 283.448 304.694 281.497 306.05 279.642C307.366 277.8 308.832 276.07 310.433 274.47C312.145 272.739 313.988 271.143 315.946 269.695C323.085 264.388 331.585 261.209 340.459 260.529C349.334 259.848 358.22 261.693 366.088 265.849C368.767 267.161 371.266 268.81 373.526 270.756C378.755 275.27 382.581 281.183 384.55 287.799C386.038 292.488 386.57 297.427 386.114 302.325C385.657 307.222 384.223 311.979 381.894 316.313C380.092 319.789 377.613 322.869 374.602 325.375C371.591 327.88 368.109 329.759 364.361 330.902C360.613 332.078 356.668 332.496 352.757 332.132C348.846 331.767 345.046 330.628 341.581 328.78C338.819 327.341 336.369 325.371 334.373 322.983C332.376 320.595 330.871 317.837 329.946 314.867C329.02 311.896 328.691 308.773 328.978 305.675C329.265 302.578 330.163 299.567 331.619 296.817C332.767 294.628 334.336 292.686 336.236 291.104C338.137 289.521 340.332 288.329 342.696 287.596C345.059 286.863 347.544 286.603 350.008 286.831C352.473 287.059 354.867 287.771 357.055 288.926C360.503 290.76 363.091 293.874 364.259 297.596C365.427 301.318 365.082 305.35 363.298 308.82C361.831 311.558 359.342 313.609 356.371 314.528C353.4 315.446 350.186 315.159 347.426 313.727C346.345 313.171 345.388 312.403 344.612 311.468C343.836 310.534 343.257 309.453 342.91 308.29C342.195 305.951 342.434 303.425 343.573 301.26C344.048 300.419 344.687 299.681 345.452 299.091C346.217 298.5 347.092 298.068 348.027 297.821C348.962 297.573 349.937 297.516 350.894 297.651C351.852 297.786 352.772 298.111 353.602 298.608C353.759 298.743 353.959 298.818 354.166 298.818C354.374 298.818 354.574 298.743 354.731 298.608C354.823 298.405 354.833 298.174 354.759 297.964C354.685 297.754 354.532 297.581 354.332 297.481C353.306 296.929 352.179 296.587 351.019 296.476C349.859 296.364 348.687 296.485 347.574 296.831C346.461 297.176 345.428 297.74 344.536 298.49C343.644 299.239 342.91 300.158 342.378 301.194C341.692 302.451 341.268 303.833 341.131 305.257C340.994 306.682 341.147 308.119 341.581 309.483C341.983 310.885 342.659 312.193 343.571 313.331C344.484 314.469 345.613 315.415 346.894 316.114C348.447 316.955 350.152 317.478 351.91 317.653C353.668 317.827 355.443 317.65 357.131 317.131C358.819 316.613 360.387 315.763 361.743 314.632C363.098 313.501 364.214 312.111 365.025 310.544C367.087 306.696 367.545 302.192 366.302 298.008C365.059 293.824 362.214 290.299 358.384 288.197C353.57 285.688 347.96 285.18 342.773 286.782C337.586 288.384 333.243 291.967 330.689 296.751C327.728 302.609 327.145 309.382 329.063 315.658C330.981 321.934 335.251 327.229 340.983 330.438C345.511 332.814 350.546 334.065 355.661 334.085C358.839 334.093 362 333.6 365.025 332.626C368.986 331.41 372.668 329.426 375.859 326.785C379.05 324.145 381.688 320.902 383.621 317.242C386.026 312.694 387.506 307.715 387.973 302.593C388.44 297.472 387.886 292.308 386.343 287.401Z" fill="#471B1B"/>
<path d="M355.661 334.881C350.41 334.87 345.238 333.597 340.585 331.167C334.49 327.861 329.932 322.306 327.884 315.69C325.837 309.073 326.462 301.919 329.627 295.756C332.292 290.785 336.814 287.063 342.21 285.4C347.606 283.736 353.442 284.265 358.45 286.87C360.488 287.944 362.293 289.409 363.761 291.183C365.23 292.956 366.332 295.002 367.005 297.202C367.678 299.403 367.908 301.715 367.682 304.004C367.456 306.294 366.779 308.517 365.689 310.544C363.912 313.87 360.889 316.358 357.279 317.465C353.67 318.571 349.769 318.204 346.429 316.446C343.737 315.058 341.689 312.68 340.718 309.814C340.258 308.34 340.097 306.789 340.246 305.251C340.394 303.714 340.848 302.222 341.581 300.862C342.162 299.723 342.967 298.713 343.949 297.892C344.93 297.072 346.067 296.458 347.293 296.088C348.505 295.694 349.786 295.556 351.055 295.682C352.324 295.807 353.553 296.194 354.665 296.817C355.052 297.028 355.343 297.38 355.479 297.799C355.615 298.219 355.585 298.674 355.395 299.072C355.172 299.447 354.816 299.724 354.397 299.847C353.978 299.97 353.528 299.93 353.137 299.735C351.638 298.973 349.906 298.807 348.289 299.271C346.675 299.789 345.32 300.904 344.503 302.387C343.946 303.39 343.605 304.498 343.502 305.64C343.399 306.782 343.537 307.933 343.906 309.019C344.214 310.085 344.738 311.077 345.446 311.933C346.155 312.789 347.032 313.49 348.023 313.992C350.588 315.326 353.577 315.594 356.339 314.737C359.101 313.88 361.411 311.968 362.767 309.417C363.631 307.791 364.164 306.01 364.335 304.178C364.506 302.345 364.312 300.497 363.763 298.74C362.726 295.213 360.34 292.236 357.122 290.451C355.037 289.35 352.755 288.672 350.407 288.455C348.059 288.239 345.692 288.489 343.441 289.191C341.175 289.89 339.07 291.028 337.246 292.542C335.423 294.056 333.917 295.914 332.815 298.011C331.394 300.663 330.521 303.574 330.247 306.569C329.973 309.565 330.304 312.585 331.221 315.451C332.107 318.299 333.557 320.941 335.485 323.219C337.413 325.497 339.78 327.366 342.445 328.714C345.806 330.514 349.495 331.623 353.294 331.976C357.092 332.329 360.923 331.919 364.56 330.769C368.21 329.662 371.601 327.836 374.532 325.399C377.464 322.961 379.877 319.962 381.628 316.578C383.895 312.342 385.292 307.696 385.737 302.913C386.182 298.131 385.665 293.308 384.218 288.727C382.392 282.071 378.679 276.084 373.526 271.485C371.361 269.543 368.949 267.893 366.353 266.578C358.614 262.518 349.886 260.719 341.169 261.388C332.453 262.056 324.102 265.166 317.075 270.358C315.153 271.775 313.353 273.35 311.695 275.066C310.117 276.622 308.673 278.308 307.378 280.106C306.057 281.948 304.859 283.876 303.792 285.875C303.708 286.07 303.581 286.243 303.419 286.381C303.258 286.518 303.068 286.618 302.862 286.671C302.654 286.767 302.428 286.816 302.198 286.816C301.969 286.816 301.742 286.767 301.534 286.671C301.158 286.449 300.881 286.093 300.758 285.674C300.634 285.256 300.675 284.806 300.87 284.416C302.829 280.62 305.311 277.116 308.242 274.005C308.749 273.366 309.328 272.788 309.968 272.281C311.989 270.225 314.214 268.381 316.61 266.777C324.085 261.611 332.835 258.589 341.909 258.04C350.983 257.49 360.034 259.434 368.08 263.661C370.421 264.917 372.644 266.382 374.721 268.037C380.818 273.014 385.301 279.683 387.605 287.202C389.182 292.218 389.747 297.497 389.268 302.732C388.789 307.968 387.276 313.057 384.816 317.706C382.833 321.457 380.129 324.782 376.858 327.49C373.588 330.198 369.815 332.236 365.755 333.488C362.49 334.504 359.079 334.974 355.661 334.881ZM336.202 326.061C337.761 327.498 339.503 328.724 341.382 329.708C348.585 333.482 356.993 334.245 364.759 331.83C365.691 331.568 366.601 331.236 367.482 330.836C366.624 331.236 365.736 331.568 364.826 331.83C360.969 333.043 356.908 333.474 352.883 333.099C348.857 332.723 344.947 331.548 341.382 329.642C339.524 328.649 337.786 327.448 336.202 326.061ZM344.437 259.748C352.237 259.719 359.924 261.61 366.818 265.252C369.519 266.634 372.021 268.374 374.256 270.424C379.596 275.027 383.513 281.054 385.547 287.798C387.072 292.596 387.617 297.651 387.149 302.663C386.681 307.675 385.21 312.542 382.824 316.976C381.184 320.062 379.054 322.862 376.514 325.265C379.184 322.899 381.43 320.096 383.156 316.976C385.517 312.533 386.969 307.664 387.425 302.654C387.881 297.645 387.333 292.594 385.812 287.798C383.645 280.551 379.368 274.111 373.526 269.297C371.454 267.673 369.23 266.251 366.884 265.053C359.111 260.966 350.365 259.083 341.596 259.609C332.826 260.135 324.368 263.05 317.141 268.037L313.754 270.756C314.496 270.118 315.272 269.52 316.079 268.966C324.291 262.91 334.228 259.634 344.437 259.615V259.748ZM346.894 314.722H347.226C350.182 316.25 353.621 316.558 356.801 315.578C359.982 314.598 362.649 312.409 364.228 309.483C362.649 312.409 359.982 314.598 356.801 315.578C353.621 316.558 350.182 316.25 347.226 314.722H346.894ZM342.644 302.255C341.736 304.353 341.618 306.708 342.312 308.886C342.508 309.532 342.776 310.155 343.109 310.743C342.776 310.155 342.508 309.532 342.312 308.886C341.627 306.662 341.744 304.269 342.644 302.122V302.255ZM350.148 297.082C349.357 296.954 348.549 296.954 347.758 297.082C346.806 297.359 345.923 297.834 345.168 298.475C345.955 297.883 346.829 297.413 347.758 297.082C349.317 296.618 350.979 296.618 352.539 297.082C351.737 297.052 350.934 297.118 350.148 297.281V297.082ZM331.553 295.822L331.088 296.684C330.906 297.003 330.75 297.335 330.623 297.679C330.75 297.335 330.906 297.003 331.088 296.684C331.088 296.684 331.42 296.021 331.553 295.69V295.822ZM357.255 288.263H357.653C358.252 288.577 358.829 288.932 359.38 289.324C358.829 288.932 358.252 288.577 357.653 288.263H357.255ZM304.988 280.371L304.39 281.233L304.988 280.371Z" fill="#471B1B"/>
<path d="M63.5761 296.155C61.0222 291.371 56.6793 287.788 51.4925 286.186C46.3057 284.584 40.6951 285.092 35.882 287.6C32.052 289.703 29.2067 293.228 27.9634 297.412C26.7201 301.595 27.1791 306.1 29.2407 309.948C30.0516 311.515 31.1676 312.904 32.523 314.035C33.8784 315.167 35.4462 316.016 37.1345 316.535C38.8228 317.054 40.5977 317.231 42.3554 317.056C44.1132 316.882 45.8186 316.359 47.3715 315.518C48.6527 314.819 49.7821 313.873 50.6942 312.735C51.6062 311.596 52.2827 310.288 52.6844 308.887C53.1183 307.523 53.2713 306.085 53.1344 304.661C52.9974 303.236 52.5733 301.854 51.8875 300.598C51.3555 299.562 50.6218 298.643 49.7296 297.893C48.8374 297.144 47.8045 296.58 46.6913 296.234C45.5781 295.888 44.407 295.768 43.2466 295.879C42.0862 295.991 40.9597 296.333 39.9331 296.884C39.8279 296.926 39.733 296.99 39.6546 297.072C39.5762 297.154 39.5162 297.251 39.4785 297.358C39.4407 297.465 39.4262 297.578 39.4359 297.691C39.4456 297.803 39.4792 297.913 39.5346 298.011C39.6914 298.147 39.892 298.221 40.0992 298.221C40.3065 298.221 40.5069 298.147 40.6637 298.011C42.3556 297.12 44.3323 296.933 46.1617 297.492C47.9911 298.052 49.5243 299.311 50.4264 300.996C50.9944 302.066 51.3453 303.239 51.4591 304.445C51.5728 305.652 51.4471 306.869 51.0894 308.027C50.7316 309.184 50.1487 310.261 49.3739 311.193C48.5992 312.126 47.6478 312.897 46.5744 313.462C43.8141 314.894 40.6002 315.182 37.629 314.263C34.6578 313.344 32.1689 311.294 30.7017 308.555C28.9179 305.085 28.5728 301.053 29.7409 297.331C30.9089 293.609 33.4964 290.495 36.9446 288.661C39.1637 287.574 41.5756 286.935 44.0425 286.78C46.5094 286.625 48.9828 286.957 51.3208 287.758C53.6589 288.559 55.8158 289.812 57.668 291.447C59.5203 293.081 61.0313 295.064 62.115 297.282C65.0412 302.837 65.6384 309.325 63.7753 315.319C62.8694 318.299 61.3742 321.066 59.3778 323.458C57.3815 325.85 54.9246 327.818 52.153 329.245C48.6878 331.093 44.8886 332.232 40.9772 332.596C37.0659 332.961 33.1211 332.543 29.3734 331.367C25.621 330.215 22.1341 328.333 19.1135 325.829C16.093 323.325 13.5986 320.249 11.774 316.778C9.47692 312.432 8.05996 307.677 7.60414 302.785C7.14832 297.892 7.66262 292.958 9.11752 288.263C11.2205 281.379 15.3092 275.267 20.8726 270.691C21.3962 270.212 21.9508 269.769 22.5329 269.364L24.1932 268.171V266.248C23.6115 266.53 23.0558 266.862 22.5329 267.242L20.8726 268.502C14.5488 273.376 9.90556 280.099 7.58995 287.733C6.04695 292.64 5.49327 297.804 5.96063 302.925C6.428 308.047 7.90718 313.026 10.3129 317.574C12.2457 321.234 14.8833 324.477 18.0744 327.117C21.2655 329.758 24.9473 331.742 28.9085 332.958C31.9339 333.932 35.094 334.425 38.2727 334.417C43.3877 334.397 48.4225 333.146 52.9501 330.77C55.9071 329.212 58.5264 327.086 60.6577 324.514C62.7891 321.942 64.3904 318.975 65.3693 315.783C66.3955 312.557 66.7655 309.159 66.4575 305.788C66.1496 302.417 65.1698 299.142 63.5761 296.155Z" fill="#471B1B"/>
<path d="M28.6434 333.422C31.7567 334.41 35.0064 334.903 38.2732 334.881C43.4909 334.901 48.6376 333.673 53.2826 331.3C59.4163 328.024 64.0184 322.476 66.1003 315.849C68.101 309.229 67.4338 302.091 64.2407 295.955C61.5751 290.984 57.0537 287.262 51.6575 285.599C46.2614 283.935 40.426 284.464 35.4175 287.069C31.3539 289.238 28.313 292.921 26.9572 297.318C25.6013 301.715 26.0403 306.469 28.1785 310.544C29.0974 312.204 30.339 313.664 31.8303 314.839C33.3216 316.014 35.0326 316.88 36.8634 317.387C38.6941 317.893 40.6076 318.03 42.4919 317.788C44.3761 317.547 46.1932 316.933 47.8367 315.982C50.5294 314.594 52.5773 312.216 53.5483 309.35C54.0082 307.876 54.1686 306.324 54.0203 304.787C53.8721 303.25 53.4181 301.758 52.6849 300.398C52.1043 299.259 51.2989 298.249 50.3174 297.428C49.3359 296.608 48.1984 295.994 46.9733 295.623C45.7698 295.244 44.5014 295.112 43.2454 295.238C41.9895 295.363 40.7724 295.743 39.668 296.353C39.458 296.423 39.2689 296.545 39.1181 296.708C38.9673 296.87 38.8595 297.067 38.8046 297.281C38.7091 297.489 38.6597 297.716 38.6597 297.944C38.6597 298.173 38.7091 298.399 38.8046 298.608C38.9089 298.799 39.05 298.969 39.2201 299.106C39.3902 299.244 39.5857 299.346 39.7955 299.408C40.0053 299.469 40.2254 299.489 40.4428 299.465C40.6603 299.442 40.8709 299.376 41.0626 299.271C42.5615 298.509 44.2942 298.343 45.9108 298.807C47.5249 299.325 48.8791 300.44 49.6962 301.923C50.2161 302.897 50.5374 303.965 50.6417 305.064C50.746 306.163 50.6313 307.271 50.3041 308.326C49.9768 309.38 49.4434 310.359 48.7349 311.207C48.0265 312.054 47.1569 312.753 46.1763 313.263C43.6115 314.597 40.6224 314.865 37.8605 314.008C35.0987 313.151 32.7881 311.238 31.4327 308.687C30.5666 307.074 30.0324 305.305 29.8613 303.483C29.6902 301.66 29.8858 299.823 30.4365 298.077C30.9291 296.312 31.7706 294.664 32.9112 293.229C34.0518 291.794 35.4684 290.601 37.0778 289.722C39.1621 288.62 41.4442 287.942 43.7923 287.726C46.1404 287.51 48.508 287.76 50.7589 288.462C53.0246 289.16 55.1299 290.299 56.9535 291.813C58.777 293.326 60.283 295.185 61.385 297.281C62.8532 299.99 63.7518 302.969 64.0259 306.036C64.2999 309.104 63.9437 312.194 62.9788 315.12C62.0957 317.969 60.6469 320.612 58.7186 322.891C56.7902 325.17 54.4218 327.037 51.755 328.382C48.3931 330.182 44.7042 331.292 40.9058 331.645C37.1073 331.998 33.2765 331.587 29.6396 330.438C25.963 329.268 22.5585 327.374 19.627 324.868C16.6955 322.362 14.2964 319.296 12.5714 315.849C8.05665 307.271 7.12557 297.258 9.98139 287.997C12.0487 281.239 16.0687 275.241 21.5372 270.756C22.0122 270.192 22.5465 269.681 23.131 269.231L24.7251 268.037V264.324L23.5295 264.921C22.9277 265.23 22.3506 265.584 21.8029 265.982C21.2046 266.37 20.6281 266.79 20.0761 267.242C13.6747 272.323 9.02946 279.281 6.79349 287.135C5.21693 292.152 4.65176 297.43 5.13053 302.666C5.6093 307.902 7.12261 312.991 9.58292 317.639C11.5661 321.391 14.2701 324.716 17.5406 327.424C20.8111 330.132 24.5839 332.17 28.6434 333.422Z" fill="#471B1B"/>
<path d="M94.5911 284.351C94.481 284.342 94.3701 284.355 94.2656 284.391C94.1611 284.427 94.0653 284.484 93.9841 284.559C93.9029 284.634 93.8383 284.725 93.7942 284.826C93.7501 284.927 93.7273 285.036 93.7277 285.147C93.7277 285.375 93.8188 285.595 93.9807 285.756C94.1426 285.918 94.3622 286.009 94.5911 286.009C94.7064 285.747 94.7658 285.465 94.7658 285.18C94.7658 284.894 94.7064 284.612 94.5911 284.351ZM92.9973 284.749C92.8228 284.403 92.623 284.07 92.3996 283.754C90.5766 280.399 88.346 277.28 85.7583 274.47C85.3239 273.914 84.8344 273.403 84.2972 272.945C83.2214 271.781 82.0434 270.716 80.7773 269.762C75.9204 265.755 70.325 262.737 64.3068 260.876C51.9398 257.079 38.5708 258.318 27.1155 264.324C26.2356 264.791 25.392 265.323 24.5918 265.916C24.01 266.198 23.4544 266.531 22.9314 266.911L21.2711 268.17V270.359C21.7948 269.881 22.3494 269.438 22.9314 269.033L24.5918 267.839C25.6597 267.113 26.7684 266.449 27.9124 265.85C33.3731 262.923 39.3649 261.116 45.5351 260.535C51.7054 259.955 57.9296 260.611 63.8419 262.468C70.3211 264.471 76.2828 267.866 81.3085 272.415C82.0869 273.047 82.8192 273.734 83.5001 274.47C85.1016 276.071 86.5678 277.801 87.8834 279.643C89.2842 281.481 90.5283 283.433 91.6025 285.478C91.6483 285.585 91.7216 285.678 91.8149 285.748C91.9081 285.818 92.0181 285.862 92.1339 285.876C92.3277 285.942 92.5378 285.942 92.7316 285.876C92.8582 285.712 92.9211 285.507 92.9089 285.3C92.8967 285.093 92.8101 284.897 92.6651 284.749H92.9973Z" fill="#471B1B"/>
<path d="M94.5911 286.805H94.0599C93.6272 286.815 93.2043 286.674 92.8643 286.407C92.4995 286.538 92.1002 286.538 91.7354 286.407C91.4916 286.36 91.2645 286.25 91.0777 286.087C90.8909 285.923 90.7512 285.713 90.6728 285.478C89.6084 283.519 88.41 281.636 87.0864 279.842C85.7924 278.043 84.3484 276.357 82.7696 274.802C82.126 274.073 81.4144 273.407 80.6444 272.812C75.7037 268.317 69.8304 264.966 63.4434 262.998C57.6379 261.194 51.5314 260.558 45.478 261.127C39.4245 261.696 33.5444 263.459 28.1781 266.314C26.9827 266.977 25.9202 267.574 24.924 268.237L23.3299 269.431C22.6858 269.806 22.0846 270.251 21.5368 270.757L20.1422 271.95V267.574H20.4742C21.0079 267.08 21.586 266.636 22.201 266.248C22.7487 265.85 23.3258 265.496 23.9276 265.187C24.7298 264.597 25.5732 264.065 26.4513 263.595C38.1144 257.493 51.717 256.23 64.3068 260.08C70.4087 261.998 76.0887 265.058 81.0428 269.099C82.3225 270.086 83.5217 271.172 84.6292 272.348C85.1862 272.831 85.6976 273.364 86.1568 273.94C88.7572 276.788 90.9885 279.952 92.7981 283.356V283.82C93.1223 283.719 93.47 283.719 93.7942 283.82H94.3919L94.7239 284.417C94.8869 284.782 94.9712 285.178 94.9712 285.578C94.9712 285.978 94.8869 286.373 94.7239 286.738L94.5911 286.805ZM83.5001 273.542L84.2972 274.271L83.5001 273.542ZM79.781 270.16L81.3085 271.553L82.3712 272.415C81.3086 271.818 80.7773 271.088 79.9139 270.757L79.781 270.16ZM72.4092 265.187C75.0137 266.582 77.4626 268.249 79.7147 270.16C77.4921 268.349 75.0884 266.771 72.542 265.452L72.4092 265.187ZM21.5368 268.303H21.9353L23.5956 267.11H23.9941L22.9314 267.839L21.5368 268.303ZM39.6012 260.279C35.2097 261.204 30.9646 262.721 26.9827 264.789L25.1895 265.85L26.9827 264.855C31.0176 262.847 35.3073 261.397 39.7339 260.545L39.6012 260.279ZM63.2442 261.34H63.5762H63.2442Z" fill="#471B1B"/>
<path d="M63.5761 296.155C61.0222 291.371 56.6793 287.788 51.4925 286.186C46.3057 284.584 40.6951 285.092 35.882 287.6C32.052 289.703 29.2067 293.228 27.9634 297.412C26.7201 301.595 27.1791 306.1 29.2407 309.948C30.0516 311.515 31.1676 312.904 32.523 314.035C33.8784 315.167 35.4462 316.016 37.1345 316.535C38.8228 317.054 40.5977 317.231 42.3554 317.056C44.1132 316.882 45.8186 316.359 47.3715 315.518C48.6527 314.819 49.7821 313.873 50.6942 312.735C51.6062 311.596 52.2827 310.288 52.6844 308.887C53.1183 307.523 53.2713 306.085 53.1344 304.661C52.9974 303.236 52.5733 301.854 51.8875 300.598C51.3555 299.562 50.6218 298.643 49.7296 297.893C48.8374 297.144 47.8045 296.58 46.6913 296.234C45.5781 295.888 44.407 295.768 43.2466 295.879C42.0862 295.991 40.9597 296.333 39.9331 296.884C39.8279 296.926 39.733 296.99 39.6546 297.072C39.5762 297.154 39.5162 297.251 39.4785 297.358C39.4407 297.465 39.4262 297.578 39.4359 297.691C39.4456 297.803 39.4792 297.913 39.5346 298.011C39.6914 298.147 39.892 298.221 40.0992 298.221C40.3065 298.221 40.5069 298.147 40.6637 298.011C42.3556 297.12 44.3323 296.933 46.1617 297.492C47.9911 298.052 49.5243 299.311 50.4264 300.996C50.9944 302.066 51.3453 303.239 51.4591 304.445C51.5728 305.652 51.4471 306.869 51.0894 308.027C50.7316 309.184 50.1487 310.261 49.3739 311.193C48.5992 312.126 47.6478 312.897 46.5744 313.462C43.8141 314.894 40.6002 315.182 37.629 314.263C34.6578 313.344 32.1689 311.294 30.7017 308.555C28.9179 305.085 28.5728 301.053 29.7409 297.331C30.9089 293.609 33.4964 290.495 36.9446 288.661C39.1637 287.574 41.5756 286.935 44.0425 286.78C46.5094 286.625 48.9828 286.957 51.3208 287.758C53.6589 288.559 55.8158 289.812 57.668 291.447C59.5203 293.081 61.0313 295.064 62.115 297.282C65.0412 302.837 65.6384 309.325 63.7753 315.319C62.8694 318.299 61.3742 321.066 59.3778 323.458C57.3815 325.85 54.9246 327.818 52.153 329.245C48.6878 331.093 44.8886 332.232 40.9772 332.596C37.0659 332.961 33.1211 332.543 29.3734 331.367C25.621 330.215 22.1341 328.333 19.1135 325.829C16.093 323.325 13.5986 320.249 11.774 316.778C9.47692 312.432 8.05996 307.677 7.60414 302.785C7.14832 297.892 7.66262 292.958 9.11752 288.263C11.2205 281.379 15.3092 275.267 20.8726 270.691C21.3962 270.212 21.9508 269.769 22.5329 269.364L24.1932 268.171V266.248C23.6115 266.53 23.0558 266.862 22.5329 267.242L20.8726 268.502C14.5488 273.376 9.90556 280.099 7.58995 287.733C6.04695 292.64 5.49327 297.804 5.96063 302.925C6.428 308.047 7.90718 313.026 10.3129 317.574C12.2457 321.234 14.8833 324.477 18.0744 327.117C21.2655 329.758 24.9473 331.742 28.9085 332.958C31.9339 333.932 35.094 334.425 38.2727 334.417C43.3877 334.397 48.4225 333.146 52.9501 330.77C55.9071 329.212 58.5264 327.086 60.6577 324.514C62.7891 321.942 64.3904 318.975 65.3693 315.783C66.3955 312.557 66.7655 309.159 66.4575 305.788C66.1496 302.417 65.1698 299.142 63.5761 296.155Z" fill="#471B1B"/>
<path d="M28.6434 333.422C31.7567 334.41 35.0064 334.903 38.2732 334.881C43.4909 334.901 48.6376 333.673 53.2826 331.3C59.4163 328.024 64.0184 322.476 66.1003 315.849C68.101 309.229 67.4338 302.091 64.2407 295.955C61.5751 290.984 57.0537 287.262 51.6575 285.599C46.2614 283.935 40.426 284.464 35.4175 287.069C31.3539 289.238 28.313 292.921 26.9572 297.318C25.6013 301.715 26.0403 306.469 28.1785 310.544C29.0974 312.204 30.339 313.664 31.8303 314.839C33.3216 316.014 35.0326 316.88 36.8634 317.387C38.6941 317.893 40.6076 318.03 42.4919 317.788C44.3761 317.547 46.1932 316.933 47.8367 315.982C50.5294 314.594 52.5773 312.216 53.5483 309.35C54.0082 307.876 54.1686 306.324 54.0203 304.787C53.8721 303.25 53.4181 301.758 52.6849 300.398C52.1043 299.259 51.2989 298.249 50.3174 297.428C49.3359 296.608 48.1984 295.994 46.9733 295.623C45.7698 295.244 44.5014 295.112 43.2454 295.238C41.9895 295.363 40.7724 295.743 39.668 296.353C39.458 296.423 39.2689 296.545 39.1181 296.708C38.9673 296.87 38.8595 297.067 38.8046 297.281C38.7091 297.489 38.6597 297.716 38.6597 297.944C38.6597 298.173 38.7091 298.399 38.8046 298.608C38.9089 298.799 39.05 298.969 39.2201 299.106C39.3902 299.244 39.5857 299.346 39.7955 299.408C40.0053 299.469 40.2254 299.489 40.4428 299.465C40.6603 299.442 40.8709 299.376 41.0626 299.271C42.5615 298.509 44.2942 298.343 45.9108 298.807C47.5249 299.325 48.8791 300.44 49.6962 301.923C50.2161 302.897 50.5374 303.965 50.6417 305.064C50.746 306.163 50.6313 307.271 50.3041 308.326C49.9768 309.38 49.4434 310.359 48.7349 311.207C48.0265 312.054 47.1569 312.753 46.1763 313.263C43.6115 314.597 40.6224 314.865 37.8605 314.008C35.0987 313.151 32.7881 311.238 31.4327 308.687C30.5666 307.074 30.0324 305.305 29.8613 303.483C29.6902 301.66 29.8858 299.823 30.4365 298.077C30.9291 296.312 31.7706 294.664 32.9112 293.229C34.0518 291.794 35.4684 290.601 37.0778 289.722C39.1621 288.62 41.4442 287.942 43.7923 287.726C46.1404 287.51 48.508 287.76 50.7589 288.462C53.0246 289.16 55.1299 290.299 56.9535 291.813C58.777 293.326 60.283 295.185 61.385 297.281C62.8532 299.99 63.7518 302.969 64.0259 306.036C64.2999 309.104 63.9437 312.194 62.9788 315.12C62.0957 317.969 60.6469 320.612 58.7186 322.891C56.7902 325.17 54.4218 327.037 51.755 328.382C48.3931 330.182 44.7042 331.292 40.9058 331.645C37.1073 331.998 33.2765 331.587 29.6396 330.438C25.963 329.268 22.5585 327.374 19.627 324.868C16.6955 322.362 14.2964 319.296 12.5714 315.849C8.05665 307.271 7.12557 297.258 9.98139 287.997C12.0487 281.239 16.0687 275.241 21.5372 270.756C22.0122 270.192 22.5465 269.681 23.131 269.231L24.7251 268.037V264.324L23.5295 264.921C22.9277 265.23 22.3506 265.584 21.8029 265.982C21.2046 266.37 20.6281 266.79 20.0761 267.242C13.6747 272.323 9.02946 279.281 6.79349 287.135C5.21693 292.152 4.65176 297.43 5.13053 302.666C5.6093 307.902 7.12261 312.991 9.58292 317.639C11.5661 321.391 14.2701 324.716 17.5406 327.424C20.8111 330.132 24.5839 332.17 28.6434 333.422Z" fill="#471B1B"/>
<path d="M98.8417 375.597V377.255H297.483V375.597H98.8417Z" fill="#471B1B"/>
<path d="M298.346 374.735H98.0446V378.051H298.346V374.735Z" fill="#471B1B"/>
<path d="M365.955 251.725C365.938 251.942 365.84 252.144 365.68 252.292C365.519 252.44 365.309 252.521 365.091 252.521H22.533C22.315 252.521 22.1049 252.44 21.9448 252.292C21.7847 252.144 21.6863 251.942 21.6696 251.725C21.6696 251.496 21.7606 251.277 21.9225 251.115C22.0844 250.954 22.304 250.863 22.533 250.863H365.091C365.32 250.863 365.54 250.954 365.702 251.115C365.864 251.277 365.955 251.496 365.955 251.725Z" fill="#471B1B"/>
<path d="M387.137 253H2.86252C2.36855 253 1.89495 252.842 1.54566 252.561C1.19637 252.28 1 251.898 1 251.5C1 251.103 1.19637 250.721 1.54566 250.44C1.89495 250.159 2.36855 250 2.86252 250H387.137C387.631 250 388.105 250.159 388.454 250.44C388.804 250.721 389 251.103 389 251.5C389 251.898 388.804 252.28 388.454 252.561C388.105 252.842 387.631 253 387.137 253Z" fill="#471B1B"/>
<path d="M92.6652 284.748C92.8007 284.905 92.8754 285.105 92.8754 285.312C92.8754 285.519 92.8007 285.719 92.6652 285.875C92.4714 285.941 92.2613 285.941 92.0675 285.875C92.0301 285.634 92.0301 285.388 92.0675 285.146C92.0806 284.646 92.2425 284.161 92.5324 283.753C92.5978 284.082 92.6421 284.414 92.6652 284.748Z" fill="#471B1B"/>
<path d="M92.0009 286.738H91.4697H91.0713V286.34C91.0142 286.011 91.0142 285.674 91.0713 285.345C91.1107 284.676 91.3412 284.031 91.7354 283.488L92.3331 282.56L93.0636 283.422C93.2429 283.672 93.3985 283.939 93.5285 284.218C93.726 284.59 93.7741 285.024 93.6631 285.43C93.5521 285.837 93.2903 286.186 92.9308 286.406L92.0009 286.738Z" fill="#471B1B"/>
<path d="M296.553 285.147C296.562 285.257 296.549 285.367 296.513 285.472C296.477 285.576 296.42 285.672 296.345 285.753C296.27 285.834 296.179 285.898 296.077 285.942C295.976 285.987 295.867 286.009 295.756 286.009H94.1262C93.8972 286.009 93.6777 285.918 93.5158 285.756C93.3538 285.595 93.2628 285.375 93.2628 285.147C93.2624 285.036 93.2852 284.927 93.3293 284.826C93.3734 284.725 93.438 284.634 93.5192 284.559C93.6004 284.484 93.6964 284.427 93.8009 284.391C93.9054 284.355 94.0161 284.342 94.1262 284.351H295.756C295.968 284.351 296.17 284.435 296.32 284.584C296.469 284.733 296.553 284.936 296.553 285.147Z" fill="#471B1B"/>
<path d="M295.756 286.804H94.1262C93.6795 286.805 93.2502 286.632 92.9282 286.323C92.6062 286.014 92.4168 285.592 92.3996 285.147C92.4168 284.701 92.6062 284.279 92.9282 283.97C93.2502 283.661 93.6795 283.488 94.1262 283.489H295.756C296.197 283.489 296.619 283.663 296.93 283.974C297.242 284.285 297.417 284.707 297.417 285.147C297.417 285.586 297.242 286.008 296.93 286.319C296.619 286.63 296.197 286.804 295.756 286.804Z" fill="#471B1B"/>
<path d="M108.737 357.626H107.874L107.807 356.83V356.698H108.671V355.968V356.631L109.268 356.167L110.597 357.626H108.737Z" fill="#471B1B"/>
<path d="M277.692 354.775C277.393 354.776 277.1 354.696 276.843 354.545C276.585 354.393 276.374 354.175 276.231 353.913C276.153 353.654 276.153 353.377 276.231 353.117C276.329 343.958 276.972 334.813 278.157 325.73C278.177 325.505 278.247 325.287 278.362 325.092C278.477 324.897 278.633 324.73 278.821 324.603C279.009 324.519 279.212 324.475 279.418 324.475C279.624 324.475 279.828 324.519 280.016 324.603C280.433 324.653 280.815 324.858 281.086 325.178C281.357 325.498 281.497 325.908 281.477 326.327C280.347 335.281 279.726 344.292 279.618 353.316C279.715 353.573 279.715 353.856 279.618 354.112C279.446 354.451 279.149 354.71 278.79 354.834C278.43 354.958 278.036 354.937 277.692 354.775ZM279.551 325.929C278.423 334.95 277.802 344.027 277.692 353.117C277.833 344.05 278.454 334.997 279.551 325.995V325.929Z" fill="#471B1B"/>
<path d="M108.737 357.626H107.807V356.698H108.671V355.968V356.631L109.268 356.167L110.597 357.626H108.737Z" fill="#471B1B"/>
<path d="M288.384 361.937C288.384 362.165 288.293 362.385 288.131 362.546C287.97 362.708 287.75 362.799 287.521 362.799H100.037C99.9265 362.799 99.8171 362.777 99.7158 362.733C99.6145 362.688 99.5236 362.624 99.4486 362.543C99.3737 362.462 99.3163 362.366 99.2804 362.262C99.2445 362.157 99.2309 362.047 99.2401 361.937C99.2401 361.726 99.3239 361.523 99.4734 361.374C99.6228 361.225 99.8257 361.141 100.037 361.141H287.521C287.631 361.132 287.742 361.146 287.846 361.181C287.951 361.217 288.047 361.274 288.128 361.349C288.209 361.424 288.274 361.515 288.318 361.616C288.362 361.717 288.385 361.826 288.384 361.937Z" fill="#471B1B"/>
<path d="M287.521 363.594H100.037C99.822 363.595 99.6092 363.551 99.4114 363.467C99.2135 363.383 99.0347 363.26 98.8858 363.105C98.7369 362.95 98.6208 362.767 98.5447 362.566C98.4686 362.365 98.434 362.151 98.443 361.937C98.434 361.722 98.4686 361.508 98.5447 361.307C98.6208 361.106 98.7369 360.923 98.8858 360.768C99.0347 360.613 99.2135 360.49 99.4114 360.406C99.6092 360.322 99.822 360.279 100.037 360.279H287.521C287.967 360.278 288.397 360.451 288.719 360.76C289.041 361.069 289.23 361.491 289.248 361.937C289.23 362.382 289.041 362.804 288.719 363.113C288.397 363.422 287.967 363.595 287.521 363.594Z" fill="#471B1B"/>
<path d="M125.938 384.948C123.73 384.948 121.612 385.819 120.044 387.372C118.477 388.924 117.587 391.032 117.57 393.237V535.545V536.937H118.898L119.43 535.412V537.004C120.426 537.004 121.488 537.468 122.485 537.799L125.805 538.728H126.137L129.059 539.656L131.782 540.584H132.181L134.372 541.314V393.237C134.373 392.137 134.154 391.048 133.728 390.034C133.303 389.02 132.679 388.1 131.894 387.328C131.109 386.557 130.178 385.949 129.156 385.54C128.133 385.132 127.039 384.93 125.938 384.948ZM125.207 535.279L120.891 534.218V393.237C120.908 391.912 121.448 390.647 122.392 389.716C123.337 388.785 124.611 388.263 125.938 388.263C127.259 388.263 128.526 388.787 129.46 389.72C130.394 390.653 130.919 391.918 130.919 393.237V537.07L125.207 535.279Z" fill="#471B1B"/>
<path d="M164.923 384.948C162.715 384.948 160.596 385.819 159.029 387.372C157.462 388.924 156.572 391.032 156.554 393.237V548.674H158.016H158.348C160.008 548.674 161.602 548.674 163.129 548.674C164.663 548.668 166.194 548.557 167.712 548.343H168.509L169.904 548.011C170.606 547.874 171.295 547.674 171.962 547.415C172.361 547.415 172.693 547.415 172.826 543.568C172.826 536.937 172.826 519.364 172.826 469.364V393.237C172.828 391.106 172.008 389.055 170.537 387.512C169.065 385.968 167.054 385.05 164.923 384.948ZM169.837 545.027H169.306L167.048 545.491H166.583C164.376 545.73 162.149 545.73 159.942 545.491V392.972C159.959 391.647 160.499 390.382 161.443 389.451C162.388 388.52 163.662 387.998 164.989 387.998C166.305 388.015 167.562 388.545 168.492 389.474C169.422 390.403 169.953 391.658 169.97 392.972C169.97 442.176 169.97 533.224 169.97 544.696L169.837 545.027Z" fill="#471B1B"/>
<path d="M204.638 383.489C202.43 383.489 200.311 384.36 198.744 385.913C197.176 387.465 196.287 389.573 196.269 391.778V541.712H197.266H198.062L199.192 542.109L203.575 544.033C205.567 544.961 207.56 545.823 209.618 546.619L210.747 547.083L212.607 547.746H212.939V391.513C212.87 389.361 211.965 387.32 210.416 385.822C208.866 384.324 206.794 383.488 204.638 383.489ZM204.969 541.645L200.653 539.722H199.789V391.513C199.807 390.188 200.346 388.923 201.291 387.992C202.236 387.061 203.51 386.539 204.837 386.539C206.158 386.539 207.425 387.063 208.359 387.996C209.293 388.929 209.818 390.194 209.818 391.513V543.436L204.969 541.645Z" fill="#471B1B"/>
<path d="M242.958 384.948C240.756 384.948 238.644 385.821 237.088 387.376C235.531 388.93 234.656 391.038 234.656 393.237V549.271L236.649 548.873L239.903 548.078L243.223 547.083C245.615 546.323 247.965 545.437 250.263 544.43L251.259 543.966V393.237C251.259 391.038 250.385 388.93 248.828 387.376C247.271 385.821 245.159 384.948 242.958 384.948ZM242.958 544.099C241.563 544.563 240.168 545.027 238.84 545.359H238.043V393.237C238.06 391.923 238.591 390.668 239.521 389.739C240.452 388.81 241.709 388.281 243.024 388.263C244.351 388.263 245.625 388.785 246.57 389.716C247.515 390.647 248.054 391.912 248.071 393.237V541.844C246.278 542.64 244.552 543.237 242.891 543.767L242.958 544.099Z" fill="#471B1B"/>
<path d="M279.618 384.947C278.522 384.938 277.435 385.146 276.42 385.559C275.406 385.972 274.482 386.581 273.705 387.351C272.927 388.122 272.309 389.039 271.888 390.049C271.467 391.059 271.25 392.142 271.25 393.236V532.958L287.919 522.149V393.236C287.919 391.038 287.045 388.929 285.488 387.375C283.931 385.82 281.819 384.947 279.618 384.947ZM274.57 526.857V393.236C274.588 391.911 275.127 390.646 276.072 389.715C277.017 388.784 278.29 388.263 279.618 388.263C280.933 388.28 282.19 388.809 283.121 389.738C284.051 390.667 284.581 391.922 284.599 393.236V520.358L274.57 526.857Z" fill="#471B1B"/>
<path d="M305.851 355.969C305.86 356.079 305.846 356.189 305.81 356.294C305.774 356.398 305.717 356.494 305.642 356.575C305.567 356.656 305.476 356.72 305.375 356.764C305.274 356.809 305.164 356.831 305.054 356.831H108.671H103.889C103.784 356.831 103.681 356.81 103.584 356.77C103.487 356.73 103.399 356.672 103.325 356.598C103.251 356.524 103.193 356.436 103.153 356.34C103.113 356.243 103.092 356.139 103.092 356.035C103.083 355.925 103.097 355.814 103.133 355.71C103.168 355.606 103.226 355.51 103.301 355.429C103.375 355.348 103.467 355.283 103.568 355.239C103.669 355.195 103.778 355.173 103.889 355.173H110.065C110.033 354.909 110.033 354.641 110.065 354.377V353.449C107.94 342.109 105.616 330.637 103.424 319.43C101.963 312.136 100.369 304.709 98.7087 297.215H94.6576C94.4286 297.215 94.209 297.125 94.0471 296.963C93.8852 296.801 93.7942 296.582 93.7942 296.353C93.811 296.136 93.9093 295.934 94.0694 295.786C94.2296 295.639 94.4397 295.557 94.6576 295.558H98.3767L97.5133 291.844C97.4836 291.739 97.4757 291.63 97.49 291.522C97.5043 291.414 97.5406 291.311 97.5966 291.218C97.6526 291.124 97.7272 291.044 97.8157 290.98C97.9042 290.917 98.0046 290.872 98.111 290.849C98.3216 290.807 98.5405 290.845 98.7247 290.955C98.9089 291.066 99.0452 291.241 99.1071 291.446C99.1071 292.839 99.705 294.231 100.037 295.624H296.287C296.499 295.624 296.702 295.708 296.851 295.857C297 296.006 297.084 296.209 297.084 296.42C297.094 296.53 297.08 296.64 297.044 296.745C297.008 296.849 296.951 296.945 296.876 297.026C296.801 297.107 296.71 297.171 296.609 297.215C296.507 297.26 296.398 297.282 296.287 297.282H100.369C102.029 304.709 103.557 312.003 105.084 319.165C107.409 330.571 109.8 342.109 111.726 353.581C111.726 354.112 111.726 354.709 112.058 355.239H305.386C305.526 355.303 305.644 355.406 305.726 355.535C305.809 355.665 305.852 355.815 305.851 355.969Z" fill="#471B1B"/>
<path d="M305.054 357.627H103.823C103.611 357.636 103.399 357.601 103.202 357.525C103.004 357.448 102.824 357.331 102.674 357.181C102.525 357.032 102.408 356.852 102.331 356.655C102.254 356.458 102.219 356.247 102.229 356.035C102.22 355.817 102.254 355.6 102.329 355.395C102.405 355.191 102.52 355.003 102.668 354.843C102.816 354.683 102.994 354.553 103.192 354.462C103.39 354.371 103.605 354.319 103.823 354.311H109.003V353.582C106.678 341.181 104.155 328.913 102.362 319.629C101.033 312.998 99.6386 306.367 97.779 298.078H94.3919C93.9339 298.078 93.4948 297.896 93.171 297.573C92.8472 297.249 92.6651 296.811 92.6651 296.353C92.6736 296.136 92.7253 295.922 92.8167 295.724C92.9081 295.526 93.0378 295.348 93.1981 295.2C93.3585 295.052 93.5464 294.938 93.7512 294.862C93.9561 294.787 94.1738 294.753 94.3919 294.762H97.0484V293.9L96.6499 292.043C96.518 291.679 96.518 291.28 96.6499 290.916C96.7631 290.724 96.9169 290.56 97.1005 290.434C97.284 290.308 97.4929 290.223 97.7126 290.186C98.1153 290.116 98.5299 290.191 98.8826 290.397C99.2353 290.604 99.5032 290.928 99.6386 291.314C99.6386 291.844 99.6386 292.574 100.037 293.237C100.436 293.9 100.037 294.231 100.037 294.762H295.623C296.052 294.762 296.465 294.927 296.774 295.224C297.084 295.52 297.266 295.925 297.284 296.353C297.284 296.799 297.111 297.228 296.802 297.55C296.492 297.871 296.07 298.06 295.623 298.078H101.232C102.428 303.582 103.557 309.019 104.752 314.391L106.612 323.409C108.604 333.223 110.663 343.303 112.523 353.383C112.523 353.383 112.523 353.913 112.523 354.178H305.12C305.561 354.178 305.983 354.353 306.294 354.664C306.606 354.975 306.781 355.396 306.781 355.836C306.8 356.07 306.769 356.306 306.69 356.528C306.61 356.749 306.485 356.951 306.322 357.12C306.158 357.29 305.961 357.422 305.742 357.51C305.524 357.597 305.289 357.637 305.054 357.627ZM108.604 356.963V356.3H110.995V355.704V354.775C110.995 354.775 110.995 354.311 110.995 354.046C109.136 344.032 107.077 334.152 105.018 324.006L103.49 316.446L104.088 319.629C106.014 328.913 108.538 341.181 110.729 353.648V354.576C110.692 354.796 110.692 355.02 110.729 355.239V356.3H108.272L108.604 356.963ZM97.8453 292.043V292.773C97.8453 292.773 97.9117 292.043 97.8453 291.778V292.043Z" fill="#471B1B"/>
</svg>
