<svg width="386" height="547" viewBox="0 0 386 547" fill="none" xmlns="http://www.w3.org/2000/svg">
<path d="M114.95 99.5505C144.35 99.5505 166.283 105.967 180.75 118.8C195.217 131.4 202.45 149.717 202.45 173.751C202.45 184.951 200.817 195.217 197.55 204.551C194.517 213.651 189.383 221.584 182.15 228.351C174.917 234.884 165.35 240.017 153.45 243.751C141.783 247.251 127.317 249.001 110.05 249.001H19.05V209.1H114.6C126.5 209.1 137.583 208.751 147.85 208.051C158.35 207.351 167.333 205.834 174.8 203.501C182.5 200.934 188.45 197.317 192.65 192.65C197.083 187.984 199.3 181.684 199.3 173.751C199.3 166.051 197.2 159.984 193 155.55C188.8 150.884 183.317 147.384 176.55 145.05C169.783 142.484 161.967 140.85 153.1 140.15C144.233 139.45 135.133 139.1 125.8 139.1C116.233 139.1 106.2 139.684 95.7 140.85C85.2 141.784 75.4 143.067 66.3 144.701V105.15C73.5333 103.517 81.35 102.234 89.75 101.3C98.15 100.134 106.55 99.5505 114.95 99.5505ZM192.3 84.5005H147.15L190.9 40.4005H19.05V0.500488H192.3V84.5005ZM68.05 249.001H64.55V0.500488H68.05V249.001Z" fill="#D33A27"/>
<path d="M376.65 0.500488C377.817 10.7672 375.95 18.9338 371.05 25.0005C367.783 28.9672 363.7 31.8838 358.8 33.7505C354.133 35.6172 347.6 37.4838 339.2 39.3505C336.867 39.8172 334.533 40.2838 332.2 40.7505C329.867 41.2172 327.067 41.9172 323.8 42.8505C310.967 46.3505 301.517 54.5172 295.45 67.3505C289.617 79.9505 285.183 97.2172 282.15 119.15L265.35 123C271.883 114.367 279.7 107.834 288.8 103.4C297.9 98.7338 307.7 96.4005 318.2 96.4005C329.867 96.4005 339.667 98.6172 347.6 103.05C355.767 107.484 362.3 113.434 367.2 120.9C372.333 128.134 375.95 136.417 378.05 145.75C380.383 154.85 381.55 164.067 381.55 173.401C381.55 182.034 380.383 191.017 378.05 200.35C375.95 209.45 372.333 217.734 367.2 225.201C362.3 232.667 355.65 238.851 347.25 243.751C338.85 248.651 328.35 251.101 315.75 251.101C300.817 251.101 288.8 247.95 279.7 241.65C270.833 235.117 263.95 226.717 259.05 216.451C254.15 205.95 250.883 194.284 249.25 181.451C247.85 168.617 247.15 155.667 247.15 142.6C247.15 112.267 252.4 89.4005 262.9 74.0005C273.633 58.3672 289.267 48.1005 309.8 43.2005L319.25 40.7505C327.883 38.6505 333.6 35.0338 336.4 29.9005C339.433 24.7672 340.95 18.1172 340.95 9.95049C340.95 8.5505 340.95 7.1505 340.95 5.75049C340.95 4.11716 340.833 2.36716 340.6 0.500488H376.65ZM315.4 214.701C323.333 214.701 331.033 214.117 338.5 212.951C346.2 211.784 352.967 209.684 358.8 206.65C364.867 203.617 369.65 199.417 373.15 194.051C376.883 188.684 378.75 181.801 378.75 173.401C378.75 165.001 377 158.117 373.5 152.751C370 147.384 365.45 143.301 359.85 140.501C354.25 137.467 347.717 135.367 340.25 134.201C333.017 133.034 325.55 132.451 317.85 132.451C309.217 132.451 300.933 133.15 293 134.55C285.067 135.95 278.067 138.401 272 141.9C266.167 145.167 261.383 149.6 257.65 155.201C254.15 160.567 252.4 167.334 252.4 175.501C252.4 183.434 254.15 189.967 257.65 195.1C261.15 200.234 265.817 204.317 271.65 207.35C277.483 210.15 284.133 212.134 291.6 213.301C299.3 214.234 307.233 214.701 315.4 214.701Z" fill="#D33A27"/>
<path fill-rule="evenodd" clip-rule="evenodd" d="M315 83.1743C335.435 83.1743 352 66.6089 352 46.1743C352 25.7398 335.435 9.17432 315 9.17432C294.565 9.17432 278 25.7398 278 46.1743C278 66.6089 294.565 83.1743 315 83.1743ZM315 84.1743C335.987 84.1743 353 67.1611 353 46.1743C353 25.1875 335.987 8.17432 315 8.17432C294.013 8.17432 277 25.1875 277 46.1743C277 67.1611 294.013 84.1743 315 84.1743Z" fill="#1C1C1C"/>
<path d="M281.396 516.828L280.599 517.359L270.57 523.99L268.047 525.648L267.25 526.178C263.066 528.897 258.151 532.014 252.971 534.733C251.111 535.727 249.252 536.656 247.326 537.451L245.001 538.512L244.005 538.977C242.278 539.706 240.552 540.369 238.891 540.9C237.231 541.43 236.102 541.828 234.774 542.16H233.977L231.852 542.624H230.656C229.082 542.982 227.484 543.225 225.874 543.353C221.059 543.762 216.21 543.359 211.529 542.16C210.638 541.962 209.771 541.673 208.939 541.298H207.81L205.685 540.502L201.036 538.446L196.719 536.523H195.856L194.727 536.059L192.535 535.462C191.381 535.174 190.203 534.996 189.015 534.932C186.278 534.795 183.542 535.224 180.979 536.191C178.534 537.075 176.139 538.094 173.807 539.242C172.213 540.038 170.685 540.767 169.158 541.364L167.232 542.093L166.103 542.425H165.571L163.313 542.889H162.848C160.643 543.162 158.413 543.162 156.207 542.889H155.211H154.813H152.887C149.357 542.147 145.875 541.195 142.46 540.038C139.471 539.043 136.416 537.982 133.428 536.855L130.572 535.86L127.251 534.733L121.54 532.942L117.223 531.881H115.961L113.902 531.483V533.539V534.932H115.23C116.226 534.932 117.289 535.396 118.285 535.727C119.282 536.059 120.477 536.258 121.606 536.656H121.938L124.86 537.584H125.657L127.052 538.048H127.583H127.982L130.173 538.844L131.9 539.441L141.065 542.69C144.794 543.964 148.612 544.962 152.488 545.674H153.883H154.281C157.362 546.29 160.511 546.49 163.645 546.271H164.442L165.837 545.939C166.54 545.802 167.229 545.602 167.896 545.343C170.171 544.464 172.389 543.446 174.537 542.292C176.698 541.222 178.915 540.27 181.179 539.441C183.29 538.61 185.552 538.226 187.82 538.313C189.06 538.388 190.286 538.611 191.472 538.977H192.07H192.469H193.266L194.395 539.374L198.778 541.298C200.77 542.226 202.763 543.088 204.822 543.884C205.17 544.085 205.553 544.22 205.95 544.282L207.81 545.011H208.142L209.869 545.475C213.642 546.458 217.526 546.948 221.425 546.934H225.343C226.86 546.796 228.367 546.575 229.859 546.271C230.535 546.203 231.202 546.069 231.852 545.873L235.106 545.144L238.427 544.149C240.818 543.389 243.168 542.503 245.466 541.496L246.197 541.099C248.656 540.097 251.052 538.945 253.369 537.65C257.952 535.197 262.335 532.544 266.121 530.091L282.79 519.282V515.369L281.396 516.828ZM94.8416 372.597V374.255H293.483V372.597H94.8416Z" fill="#471B1B"/>
<path d="M104.737 354.626H103.807V353.698H104.671V352.969V353.632L105.268 353.168L106.597 354.626H104.737Z" fill="#471B1B"/>
<path d="M88.6652 281.748C88.8007 281.905 88.8754 282.105 88.8754 282.312C88.8754 282.519 88.8007 282.719 88.6652 282.876C88.4714 282.941 88.2613 282.941 88.0675 282.876C88.0301 282.634 88.0301 282.388 88.0675 282.146C88.0806 281.646 88.2425 281.162 88.5324 280.754C88.5978 281.082 88.6421 281.414 88.6652 281.748Z" fill="#471B1B"/>
<path d="M88.0009 283.738H87.4697H87.0713V283.34C87.0142 283.011 87.0142 282.674 87.0713 282.345C87.1107 281.676 87.3412 281.032 87.7354 280.489L88.3331 279.56L89.0636 280.422C89.2428 280.673 89.3985 280.939 89.5285 281.218C89.726 281.59 89.7741 282.024 89.6631 282.43C89.5521 282.837 89.2903 283.186 88.9308 283.406L88.0009 283.738Z" fill="#471B1B"/>
<path d="M292.553 282.146C292.562 282.256 292.549 282.367 292.513 282.471C292.477 282.576 292.42 282.671 292.345 282.752C292.27 282.834 292.179 282.898 292.077 282.942C291.976 282.986 291.867 283.009 291.756 283.008H90.1262C89.8972 283.008 89.6777 282.918 89.5157 282.756C89.3538 282.594 89.2628 282.375 89.2628 282.146C89.2624 282.036 89.2851 281.927 89.3293 281.826C89.3734 281.725 89.438 281.634 89.5192 281.559C89.6004 281.484 89.6964 281.427 89.8009 281.391C89.9054 281.355 90.0161 281.341 90.1262 281.351H291.756C291.968 281.351 292.17 281.434 292.32 281.584C292.469 281.733 292.553 281.935 292.553 282.146Z" fill="#471B1B"/>
<path d="M291.756 283.804H90.1262C89.6795 283.805 89.2502 283.632 88.9282 283.323C88.6062 283.014 88.4168 282.592 88.3996 282.146C88.4168 281.701 88.6062 281.279 88.9282 280.97C89.2502 280.661 89.6795 280.488 90.1262 280.489H291.756C292.197 280.489 292.619 280.663 292.93 280.974C293.241 281.285 293.417 281.707 293.417 282.146C293.417 282.586 293.241 283.008 292.93 283.319C292.619 283.63 292.197 283.804 291.756 283.804Z" fill="#471B1B"/>
<path d="M382.343 284.401C380.104 277.03 375.71 270.495 369.725 265.634C367.645 264.002 365.422 262.56 363.084 261.324C355.171 257.178 346.274 255.271 337.355 255.808C328.435 256.346 319.833 259.308 312.477 264.375C310.095 265.972 307.871 267.793 305.836 269.812L304.175 271.47C301.319 274.562 298.885 278.019 296.936 281.749C296.839 281.944 296.819 282.168 296.88 282.377C296.942 282.587 297.081 282.765 297.268 282.876C297.367 282.931 297.477 282.965 297.59 282.974C297.703 282.984 297.816 282.97 297.923 282.932C298.03 282.894 298.127 282.834 298.209 282.756C298.291 282.678 298.355 282.583 298.398 282.478C299.473 280.448 300.694 278.497 302.05 276.642C303.366 274.8 304.832 273.07 306.433 271.47C308.145 269.739 309.988 268.143 311.946 266.695C319.085 261.388 327.585 258.21 336.459 257.529C345.334 256.848 354.22 258.693 362.088 262.849C364.767 264.161 367.266 265.81 369.526 267.757C374.755 272.27 378.581 278.184 380.55 284.799C382.038 289.488 382.57 294.427 382.114 299.325C381.657 304.222 380.223 308.979 377.894 313.314C376.092 316.789 373.613 319.869 370.602 322.375C367.591 324.88 364.109 326.759 360.361 327.902C356.613 329.078 352.668 329.496 348.757 329.132C344.846 328.767 341.046 327.628 337.581 325.78C334.819 324.341 332.369 322.371 330.373 319.983C328.376 317.595 326.871 314.837 325.946 311.867C325.02 308.897 324.691 305.773 324.978 302.675C325.265 299.578 326.163 296.568 327.619 293.818C328.767 291.628 330.336 289.686 332.236 288.104C334.137 286.521 336.332 285.329 338.696 284.596C341.059 283.863 343.544 283.603 346.008 283.831C348.473 284.06 350.867 284.771 353.055 285.926C356.503 287.76 359.091 290.874 360.259 294.596C361.427 298.318 361.082 302.35 359.298 305.82C357.831 308.559 355.342 310.609 352.371 311.528C349.4 312.446 346.186 312.159 343.426 310.727C342.345 310.171 341.388 309.403 340.612 308.468C339.836 307.534 339.257 306.453 338.91 305.29C338.195 302.951 338.434 300.425 339.573 298.26C340.048 297.419 340.687 296.681 341.452 296.091C342.217 295.5 343.092 295.068 344.027 294.821C344.962 294.574 345.937 294.516 346.894 294.651C347.852 294.786 348.772 295.112 349.602 295.608C349.759 295.743 349.959 295.818 350.166 295.818C350.374 295.818 350.574 295.743 350.731 295.608C350.823 295.405 350.833 295.174 350.759 294.964C350.685 294.754 350.532 294.581 350.332 294.481C349.306 293.929 348.179 293.588 347.019 293.476C345.859 293.364 344.687 293.485 343.574 293.831C342.461 294.177 341.428 294.741 340.536 295.49C339.644 296.239 338.91 297.158 338.378 298.194C337.692 299.451 337.268 300.833 337.131 302.257C336.994 303.682 337.147 305.119 337.581 306.483C337.983 307.885 338.659 309.193 339.571 310.331C340.484 311.469 341.613 312.416 342.894 313.115C344.447 313.955 346.152 314.478 347.91 314.653C349.668 314.827 351.443 314.65 353.131 314.131C354.819 313.613 356.387 312.763 357.743 311.632C359.098 310.501 360.214 309.111 361.025 307.544C363.087 303.696 363.545 299.192 362.302 295.008C361.059 290.825 358.214 287.299 354.384 285.197C349.57 282.688 343.96 282.18 338.773 283.782C333.586 285.384 329.243 288.967 326.689 293.751C323.728 299.609 323.145 306.382 325.063 312.658C326.981 318.934 331.251 324.229 336.983 327.438C341.511 329.814 346.546 331.066 351.661 331.085C354.839 331.093 358 330.601 361.025 329.627C364.986 328.411 368.668 326.426 371.859 323.786C375.05 321.145 377.688 317.902 379.621 314.242C382.026 309.694 383.506 304.716 383.973 299.594C384.44 294.472 383.886 289.308 382.343 284.401Z" fill="#471B1B"/>
<path d="M351.661 331.881C346.41 331.871 341.238 330.597 336.585 328.168C330.49 324.862 325.932 319.307 323.884 312.69C321.837 306.073 322.462 298.919 325.627 292.756C328.292 287.785 332.814 284.064 338.21 282.4C343.606 280.737 349.442 281.265 354.45 283.871C356.488 284.944 358.293 286.41 359.761 288.183C361.23 289.956 362.332 292.002 363.005 294.203C363.678 296.403 363.908 298.715 363.682 301.005C363.456 303.295 362.779 305.517 361.689 307.544C359.912 310.871 356.889 313.359 353.279 314.465C349.67 315.571 345.769 315.205 342.429 313.446C339.737 312.059 337.689 309.681 336.718 306.815C336.258 305.34 336.097 303.789 336.246 302.252C336.394 300.715 336.848 299.222 337.581 297.863C338.162 296.724 338.967 295.713 339.949 294.893C340.93 294.072 342.067 293.458 343.293 293.088C344.505 292.695 345.786 292.557 347.055 292.682C348.324 292.808 349.553 293.194 350.665 293.818C351.052 294.029 351.343 294.38 351.479 294.8C351.615 295.219 351.585 295.674 351.395 296.072C351.172 296.447 350.816 296.724 350.397 296.847C349.978 296.97 349.528 296.93 349.137 296.735C347.638 295.973 345.906 295.807 344.289 296.271C342.675 296.789 341.32 297.904 340.503 299.388C339.946 300.39 339.605 301.498 339.502 302.64C339.399 303.782 339.537 304.933 339.906 306.019C340.214 307.086 340.738 308.078 341.446 308.933C342.155 309.789 343.032 310.49 344.023 310.993C346.588 312.327 349.577 312.595 352.339 311.738C355.101 310.881 357.411 308.968 358.767 306.417C359.631 304.791 360.164 303.011 360.335 301.178C360.506 299.346 360.312 297.498 359.763 295.741C358.726 292.214 356.34 289.236 353.122 287.451C351.037 286.35 348.755 285.672 346.407 285.456C344.059 285.24 341.692 285.49 339.441 286.192C337.175 286.89 335.07 288.029 333.246 289.543C331.423 291.056 329.917 292.915 328.815 295.011C327.394 297.664 326.521 300.574 326.247 303.57C325.973 306.566 326.304 309.586 327.221 312.451C328.107 315.3 329.557 317.941 331.485 320.219C333.413 322.498 335.78 324.366 338.445 325.714C341.806 327.514 345.495 328.624 349.294 328.977C353.092 329.33 356.923 328.919 360.56 327.77C364.21 326.663 367.601 324.836 370.532 322.399C373.464 319.962 375.877 316.963 377.628 313.579C379.895 309.342 381.292 304.697 381.737 299.914C382.182 295.131 381.665 290.308 380.218 285.727C378.392 279.072 374.679 273.084 369.526 268.486C367.361 266.543 364.949 264.894 362.353 263.579C354.614 259.519 345.886 257.72 337.169 258.388C328.453 259.057 320.102 262.166 313.075 267.359C311.153 268.775 309.353 270.35 307.695 272.067C306.117 273.622 304.673 275.308 303.378 277.107C302.057 278.949 300.859 280.876 299.792 282.876C299.708 283.07 299.581 283.243 299.419 283.381C299.258 283.519 299.068 283.618 298.862 283.672C298.654 283.767 298.428 283.816 298.198 283.816C297.969 283.816 297.742 283.767 297.534 283.672C297.158 283.449 296.881 283.093 296.758 282.675C296.634 282.256 296.675 281.807 296.87 281.417C298.829 277.621 301.311 274.116 304.242 271.006C304.749 270.367 305.328 269.788 305.968 269.282C307.989 267.226 310.214 265.382 312.61 263.778C320.085 258.612 328.835 255.59 337.909 255.04C346.983 254.491 356.034 256.435 364.08 260.661C366.421 261.917 368.644 263.382 370.721 265.038C376.818 270.014 381.301 276.683 383.605 284.202C385.182 289.219 385.747 294.497 385.268 299.733C384.789 304.969 383.276 310.058 380.816 314.706C378.833 318.458 376.129 321.783 372.858 324.491C369.588 327.199 365.815 329.237 361.755 330.489C358.49 331.504 355.079 331.975 351.661 331.881ZM332.202 323.062C333.761 324.498 335.503 325.725 337.382 326.709C344.585 330.482 352.993 331.245 360.759 328.831C361.691 328.569 362.601 328.236 363.482 327.836C362.624 328.236 361.736 328.569 360.826 328.831C356.969 330.044 352.908 330.475 348.883 330.099C344.857 329.723 340.947 328.548 337.382 326.642C335.524 325.649 333.786 324.448 332.202 323.062ZM340.437 256.749C348.237 256.72 355.924 258.61 362.818 262.253C365.519 263.635 368.021 265.375 370.256 267.425C375.596 272.028 379.513 278.054 381.547 284.799C383.072 289.597 383.617 294.652 383.149 299.664C382.681 304.676 381.21 309.543 378.824 313.977C377.184 317.063 375.054 319.862 372.514 322.266C375.184 319.9 377.43 317.096 379.156 313.977C381.517 309.533 382.969 304.664 383.425 299.655C383.881 294.645 383.333 289.595 381.812 284.799C379.645 277.552 375.368 271.112 369.526 266.298C367.454 264.673 365.23 263.252 362.884 262.054C355.111 257.966 346.365 256.083 337.596 256.609C328.826 257.135 320.368 260.05 313.141 265.038L309.754 267.757C310.496 267.118 311.272 266.521 312.079 265.966C320.291 259.91 330.228 256.634 340.437 256.616V256.749ZM342.894 311.722H343.226C346.182 313.251 349.621 313.558 352.801 312.578C355.982 311.598 358.649 309.409 360.228 306.483C358.649 309.409 355.982 311.598 352.801 312.578C349.621 313.558 346.182 313.251 343.226 311.722H342.894ZM338.644 299.255C337.736 301.353 337.618 303.708 338.312 305.886C338.508 306.533 338.776 307.155 339.109 307.743C338.776 307.155 338.508 306.533 338.312 305.886C337.627 303.662 337.744 301.269 338.644 299.123V299.255ZM346.148 294.083C345.357 293.954 344.549 293.954 343.758 294.083C342.806 294.36 341.923 294.834 341.168 295.475C341.955 294.883 342.829 294.414 343.758 294.083C345.317 293.618 346.979 293.618 348.539 294.083C347.737 294.052 346.934 294.119 346.148 294.282V294.083ZM327.553 292.823L327.088 293.685C326.906 294.003 326.75 294.336 326.623 294.68C326.75 294.336 326.906 294.003 327.088 293.685C327.088 293.685 327.42 293.022 327.553 292.69V292.823ZM353.255 285.263H353.653C354.252 285.578 354.829 285.932 355.38 286.324C354.829 285.932 354.252 285.578 353.653 285.263H353.255ZM300.988 277.372L300.39 278.234L300.988 277.372Z" fill="#471B1B"/>
<path d="M59.5761 293.154C57.0222 288.37 52.6793 284.787 47.4925 283.185C42.3057 281.583 36.6951 282.092 31.882 284.6C28.0521 286.702 25.2067 290.228 23.9634 294.411C22.7201 298.595 23.1791 303.1 25.2407 306.947C26.0517 308.514 27.1676 309.904 28.523 311.035C29.8784 312.166 31.4462 313.016 33.1345 313.535C34.8228 314.053 36.5977 314.231 38.3554 314.056C40.1132 313.881 41.8186 313.358 43.3715 312.518C44.6527 311.819 45.7821 310.873 46.6942 309.734C47.6062 308.596 48.2827 307.288 48.6844 305.886C49.1183 304.523 49.2713 303.085 49.1344 301.661C48.9974 300.236 48.5733 298.854 47.8875 297.597C47.3555 296.562 46.6218 295.642 45.7296 294.893C44.8374 294.144 43.8045 293.58 42.6913 293.234C41.5781 292.888 40.407 292.767 39.2466 292.879C38.0862 292.991 36.9597 293.332 35.9331 293.884C35.8279 293.926 35.733 293.99 35.6546 294.072C35.5762 294.153 35.5162 294.251 35.4785 294.357C35.4407 294.464 35.4262 294.578 35.4359 294.69C35.4456 294.803 35.4792 294.912 35.5346 295.011C35.6914 295.146 35.892 295.221 36.0993 295.221C36.3065 295.221 36.5069 295.146 36.6637 295.011C38.3557 294.119 40.3324 293.933 42.1617 294.492C43.9911 295.051 45.5243 296.311 46.4264 297.995C46.9944 299.066 47.3453 300.238 47.4591 301.445C47.5728 302.651 47.4472 303.868 47.0894 305.026C46.7316 306.184 46.1487 307.26 45.3739 308.193C44.5992 309.126 43.6478 309.897 42.5744 310.462C39.8141 311.894 36.6002 312.181 33.629 311.263C30.6578 310.344 28.1689 308.293 26.7018 305.555C24.9179 302.085 24.5728 298.053 25.7409 294.331C26.9089 290.608 29.4964 287.494 32.9446 285.661C35.1637 284.574 37.5756 283.935 40.0425 283.78C42.5094 283.625 44.9828 283.957 47.3208 284.758C49.6589 285.559 51.8158 286.812 53.6681 288.446C55.5203 290.08 57.0313 292.063 58.115 294.282C61.0412 299.837 61.6384 306.324 59.7753 312.319C58.8694 315.298 57.3742 318.066 55.3778 320.458C53.3815 322.85 50.9246 324.818 48.153 326.245C44.6878 328.092 40.8886 329.231 36.9772 329.596C33.0659 329.96 29.1211 329.542 25.3734 328.367C21.621 327.214 18.1341 325.332 15.1135 322.828C12.093 320.325 9.59856 317.249 7.77401 313.778C5.47693 309.432 4.05996 304.677 3.60415 299.784C3.14833 294.892 3.66263 289.957 5.11753 285.263C7.22047 278.379 11.3092 272.267 16.8726 267.69C17.3962 267.212 17.9508 266.769 18.5329 266.364L20.1932 265.17V263.247C19.6115 263.529 19.0558 263.862 18.5329 264.242L16.8726 265.502C10.5488 270.376 5.90557 277.098 3.58996 284.733C2.04696 289.64 1.49327 294.803 1.96064 299.925C2.42801 305.047 3.90719 310.026 6.31292 314.573C8.24575 318.234 10.8833 321.477 14.0744 324.117C17.2655 326.757 20.9473 328.742 24.9085 329.958C27.9339 330.932 31.094 331.424 34.2727 331.417C39.3877 331.397 44.4225 330.146 48.9502 327.77C51.9071 326.212 54.5264 324.086 56.6577 321.514C58.7891 318.942 60.3904 315.975 61.3694 312.783C62.3955 309.557 62.7655 306.159 62.4575 302.788C62.1496 299.417 61.1698 296.142 59.5761 293.154Z" fill="#471B1B"/>
<path d="M24.6434 330.422C27.7566 331.411 31.0063 331.903 34.2731 331.881C39.4908 331.901 44.6375 330.673 49.2825 328.3C55.4163 325.024 60.0184 319.477 62.1002 312.849C64.101 306.229 63.4337 299.091 60.2406 292.955C57.5751 287.984 53.0536 284.263 47.6575 282.599C42.2613 280.936 36.4259 281.464 31.4174 284.069C27.3539 286.238 24.313 289.922 22.9571 294.319C21.6012 298.715 22.0403 303.469 24.1784 307.544C25.0974 309.204 26.3389 310.665 27.8302 311.84C29.3215 313.015 31.0326 313.881 32.8633 314.387C34.694 314.894 36.6076 315.03 38.4918 314.789C40.3761 314.548 42.1931 313.933 43.8366 312.982C46.5293 311.594 48.5772 309.217 49.5482 306.351C50.0081 304.876 50.1685 303.325 50.0203 301.788C49.872 300.25 49.4181 298.758 48.6848 297.398C48.1042 296.259 47.2989 295.249 46.3174 294.429C45.3359 293.608 44.1983 292.994 42.9732 292.624C41.7697 292.244 40.5014 292.113 39.2454 292.238C37.9894 292.363 36.7723 292.743 35.6679 293.353C35.4579 293.424 35.2689 293.546 35.1181 293.708C34.9673 293.87 34.8595 294.067 34.8045 294.282C34.709 294.49 34.6596 294.716 34.6596 294.945C34.6596 295.174 34.709 295.4 34.8045 295.608C34.9088 295.8 35.05 295.969 35.22 296.107C35.3901 296.244 35.5856 296.346 35.7954 296.408C36.0052 296.47 36.2253 296.489 36.4428 296.466C36.6602 296.442 36.8708 296.376 37.0626 296.271C38.5614 295.509 40.2942 295.343 41.9108 295.807C43.5248 296.325 44.879 297.44 45.6962 298.924C46.216 299.898 46.5373 300.965 46.6417 302.064C46.746 303.163 46.6313 304.272 46.304 305.326C45.9767 306.38 45.4433 307.36 44.7349 308.207C44.0264 309.054 43.1568 309.753 42.1763 310.263C39.6114 311.597 36.6223 311.865 33.8605 311.008C31.0986 310.151 28.788 308.239 27.4326 305.688C26.5666 304.075 26.0323 302.305 25.8612 300.483C25.6902 298.661 25.8858 296.823 26.4364 295.077C26.929 293.313 27.7705 291.664 28.9111 290.229C30.0517 288.794 31.4683 287.602 33.0777 286.722C35.162 285.621 37.4441 284.943 39.7922 284.726C42.1403 284.51 44.508 284.76 46.7588 285.462C49.0246 286.161 51.1298 287.299 52.9534 288.813C54.777 290.327 56.283 292.185 57.3849 294.282C58.8531 296.99 59.7517 299.969 60.0258 303.036C60.2999 306.104 59.9436 309.195 58.9788 312.12C58.0956 314.97 56.6468 317.613 54.7185 319.891C52.7902 322.17 50.4218 324.038 47.755 325.382C44.393 327.183 40.7041 328.292 36.9057 328.645C33.1073 328.998 29.2765 328.588 25.6395 327.438C21.9629 326.268 18.5584 324.374 15.6269 321.868C12.6954 319.363 10.2963 316.296 8.57133 312.849C4.05659 304.272 3.12551 294.259 5.98132 284.998C8.04866 278.24 12.0687 272.242 17.5371 267.756C18.0121 267.192 18.5464 266.681 19.131 266.231L20.725 265.038V261.324L19.5294 261.921C18.9276 262.23 18.3505 262.585 17.8028 262.982C17.2046 263.37 16.628 263.791 16.076 264.242C9.67464 269.324 5.0294 276.281 2.79343 284.136C1.21687 289.152 0.651697 294.431 1.13047 299.667C1.60924 304.902 3.12255 309.991 5.58286 314.64C7.56605 318.392 10.2701 321.716 13.5405 324.424C16.811 327.132 20.5838 329.171 24.6434 330.422Z" fill="#471B1B"/>
<path d="M90.5911 281.351C90.481 281.341 90.3701 281.355 90.2656 281.391C90.1611 281.427 90.0653 281.484 89.9841 281.559C89.9029 281.634 89.8383 281.725 89.7942 281.826C89.7501 281.927 89.7273 282.036 89.7277 282.146C89.7277 282.375 89.8187 282.594 89.9807 282.756C90.1426 282.918 90.3621 283.008 90.5911 283.008C90.7064 282.747 90.7658 282.465 90.7658 282.18C90.7658 281.894 90.7064 281.612 90.5911 281.351ZM88.9973 281.748C88.8227 281.403 88.623 281.07 88.3996 280.754C86.5766 277.398 84.3459 274.28 81.7583 271.47C81.3239 270.914 80.8344 270.403 80.2972 269.945C79.2214 268.781 78.0434 267.716 76.7773 266.762C71.9204 262.755 66.325 259.736 60.3068 257.876C47.9398 254.079 34.5708 255.318 23.1155 261.324C22.2356 261.791 21.392 262.323 20.5918 262.916C20.01 263.198 19.4544 263.53 18.9314 263.91L17.2711 265.17V267.359C17.7948 266.881 18.3494 266.437 18.9314 266.032L20.5918 264.839C21.6597 264.113 22.7684 263.449 23.9124 262.849C29.3731 259.923 35.3649 258.116 41.5351 257.535C47.7054 256.954 53.9296 257.611 59.8419 259.467C66.3211 261.471 72.2828 264.866 77.3085 269.414C78.0869 270.047 78.8192 270.734 79.5001 271.47C81.1016 273.07 82.5677 274.8 83.8833 276.642C85.2842 278.48 86.5283 280.432 87.6025 282.478C87.6482 282.585 87.7216 282.678 87.8149 282.748C87.9081 282.818 88.0181 282.862 88.1339 282.876C88.3277 282.941 88.5378 282.941 88.7316 282.876C88.8582 282.711 88.9211 282.507 88.9089 282.3C88.8967 282.093 88.8101 281.897 88.6651 281.748H88.9973Z" fill="#471B1B"/>
<path d="M90.5911 283.804H90.0599C89.6272 283.814 89.2043 283.674 88.8643 283.406C88.4995 283.538 88.1002 283.538 87.7354 283.406C87.4916 283.36 87.2645 283.249 87.0777 283.086C86.8909 282.923 86.7512 282.713 86.6728 282.478C85.6084 280.519 84.41 278.636 83.0864 276.841C81.7924 275.043 80.3484 273.357 78.7696 271.802C78.126 271.073 77.4144 270.406 76.6444 269.812C71.7037 265.317 65.8304 261.966 59.4434 259.998C53.6378 258.194 47.5314 257.558 41.478 258.127C35.4245 258.696 29.5444 260.459 24.1781 263.313C22.9827 263.977 21.9201 264.573 20.9239 265.237L19.3299 266.43C18.6858 266.806 18.0846 267.251 17.5368 267.756L16.1422 268.95V264.573H16.4742C17.0079 264.079 17.586 263.636 18.201 263.247C18.7487 262.85 19.3258 262.495 19.9276 262.186C20.7298 261.596 21.5732 261.064 22.4513 260.595C34.1144 254.493 47.717 253.23 60.3068 257.08C66.4087 258.997 72.0887 262.058 77.0428 266.099C78.3225 267.085 79.5217 268.172 80.6292 269.348C81.1862 269.831 81.6976 270.363 82.1568 270.939C84.7572 273.788 86.9885 276.951 88.7981 280.356V280.82C89.1223 280.718 89.47 280.718 89.7942 280.82H90.3919L90.7239 281.417C90.8869 281.782 90.9712 282.178 90.9712 282.577C90.9712 282.977 90.8869 283.373 90.7239 283.738L90.5911 283.804ZM79.5001 270.542L80.2972 271.271L79.5001 270.542ZM75.781 267.16L77.3085 268.552L78.3712 269.414C77.3086 268.817 76.7773 268.088 75.9139 267.756L75.781 267.16ZM68.4092 262.186C71.0137 263.581 73.4626 265.248 75.7147 267.16C73.4921 265.348 71.0884 263.771 68.542 262.451L68.4092 262.186ZM17.5368 265.303H17.9353L19.5956 264.109H19.9941L18.9314 264.839L17.5368 265.303ZM35.6012 257.279C31.2097 258.204 26.9646 259.721 22.9827 261.788L21.1895 262.849L22.9827 261.855C27.0176 259.847 31.3073 258.397 35.7339 257.544L35.6012 257.279ZM59.2442 258.34H59.5762H59.2442Z" fill="#471B1B"/>
<path d="M59.5761 293.154C57.0222 288.37 52.6793 284.787 47.4925 283.185C42.3057 281.583 36.6951 282.092 31.882 284.6C28.0521 286.702 25.2067 290.228 23.9634 294.411C22.7201 298.595 23.1791 303.1 25.2407 306.947C26.0517 308.514 27.1676 309.904 28.523 311.035C29.8784 312.166 31.4462 313.016 33.1345 313.535C34.8228 314.053 36.5977 314.231 38.3554 314.056C40.1132 313.881 41.8186 313.358 43.3715 312.518C44.6527 311.819 45.7821 310.873 46.6942 309.734C47.6062 308.596 48.2827 307.288 48.6844 305.886C49.1183 304.523 49.2713 303.085 49.1344 301.661C48.9974 300.236 48.5733 298.854 47.8875 297.597C47.3555 296.562 46.6218 295.642 45.7296 294.893C44.8374 294.144 43.8045 293.58 42.6913 293.234C41.5781 292.888 40.407 292.767 39.2466 292.879C38.0862 292.991 36.9597 293.332 35.9331 293.884C35.8279 293.926 35.733 293.99 35.6546 294.072C35.5762 294.153 35.5162 294.251 35.4785 294.357C35.4407 294.464 35.4262 294.578 35.4359 294.69C35.4456 294.803 35.4792 294.912 35.5346 295.011C35.6914 295.146 35.892 295.221 36.0993 295.221C36.3065 295.221 36.5069 295.146 36.6637 295.011C38.3557 294.119 40.3324 293.933 42.1617 294.492C43.9911 295.051 45.5243 296.311 46.4264 297.995C46.9944 299.066 47.3453 300.238 47.4591 301.445C47.5728 302.651 47.4472 303.868 47.0894 305.026C46.7316 306.184 46.1487 307.26 45.3739 308.193C44.5992 309.126 43.6478 309.897 42.5744 310.462C39.8141 311.894 36.6002 312.181 33.629 311.263C30.6578 310.344 28.1689 308.293 26.7018 305.555C24.9179 302.085 24.5728 298.053 25.7409 294.331C26.9089 290.608 29.4964 287.494 32.9446 285.661C35.1637 284.574 37.5756 283.935 40.0425 283.78C42.5094 283.625 44.9828 283.957 47.3208 284.758C49.6589 285.559 51.8158 286.812 53.6681 288.446C55.5203 290.08 57.0313 292.063 58.115 294.282C61.0412 299.837 61.6384 306.324 59.7753 312.319C58.8694 315.298 57.3742 318.066 55.3778 320.458C53.3815 322.85 50.9246 324.818 48.153 326.245C44.6878 328.092 40.8886 329.231 36.9772 329.596C33.0659 329.96 29.1211 329.542 25.3734 328.367C21.621 327.214 18.1341 325.332 15.1135 322.828C12.093 320.325 9.59856 317.249 7.77401 313.778C5.47693 309.432 4.05996 304.677 3.60415 299.784C3.14833 294.892 3.66263 289.957 5.11753 285.263C7.22047 278.379 11.3092 272.267 16.8726 267.69C17.3962 267.212 17.9508 266.769 18.5329 266.364L20.1932 265.17V263.247C19.6115 263.529 19.0558 263.862 18.5329 264.242L16.8726 265.502C10.5488 270.376 5.90557 277.098 3.58996 284.733C2.04696 289.64 1.49327 294.803 1.96064 299.925C2.42801 305.047 3.90719 310.026 6.31292 314.573C8.24575 318.234 10.8833 321.477 14.0744 324.117C17.2655 326.757 20.9473 328.742 24.9085 329.958C27.9339 330.932 31.094 331.424 34.2727 331.417C39.3877 331.397 44.4225 330.146 48.9502 327.77C51.9071 326.212 54.5264 324.086 56.6577 321.514C58.7891 318.942 60.3904 315.975 61.3694 312.783C62.3955 309.557 62.7655 306.159 62.4575 302.788C62.1496 299.417 61.1698 296.142 59.5761 293.154Z" fill="#471B1B"/>
<path d="M24.6434 330.422C27.7566 331.411 31.0063 331.903 34.2731 331.881C39.4908 331.901 44.6375 330.673 49.2825 328.3C55.4163 325.024 60.0184 319.477 62.1002 312.849C64.101 306.229 63.4337 299.091 60.2406 292.955C57.5751 287.984 53.0536 284.263 47.6575 282.599C42.2613 280.936 36.4259 281.464 31.4174 284.069C27.3539 286.238 24.313 289.922 22.9571 294.319C21.6012 298.715 22.0403 303.469 24.1784 307.544C25.0974 309.204 26.3389 310.665 27.8302 311.84C29.3215 313.015 31.0326 313.881 32.8633 314.387C34.694 314.894 36.6076 315.03 38.4918 314.789C40.3761 314.548 42.1931 313.933 43.8366 312.982C46.5293 311.594 48.5772 309.217 49.5482 306.351C50.0081 304.876 50.1685 303.325 50.0203 301.788C49.872 300.25 49.4181 298.758 48.6848 297.398C48.1042 296.259 47.2989 295.249 46.3174 294.429C45.3359 293.608 44.1983 292.994 42.9732 292.624C41.7697 292.244 40.5014 292.113 39.2454 292.238C37.9894 292.363 36.7723 292.743 35.6679 293.353C35.4579 293.424 35.2689 293.546 35.1181 293.708C34.9673 293.87 34.8595 294.067 34.8045 294.282C34.709 294.49 34.6596 294.716 34.6596 294.945C34.6596 295.174 34.709 295.4 34.8045 295.608C34.9088 295.8 35.05 295.969 35.22 296.107C35.3901 296.244 35.5856 296.346 35.7954 296.408C36.0052 296.47 36.2253 296.489 36.4428 296.466C36.6602 296.442 36.8708 296.376 37.0626 296.271C38.5614 295.509 40.2942 295.343 41.9108 295.807C43.5248 296.325 44.879 297.44 45.6962 298.924C46.216 299.898 46.5373 300.965 46.6417 302.064C46.746 303.163 46.6313 304.272 46.304 305.326C45.9767 306.38 45.4433 307.36 44.7349 308.207C44.0264 309.054 43.1568 309.753 42.1763 310.263C39.6114 311.597 36.6223 311.865 33.8605 311.008C31.0986 310.151 28.788 308.239 27.4326 305.688C26.5666 304.075 26.0323 302.305 25.8612 300.483C25.6902 298.661 25.8858 296.823 26.4364 295.077C26.929 293.313 27.7705 291.664 28.9111 290.229C30.0517 288.794 31.4683 287.602 33.0777 286.722C35.162 285.621 37.4441 284.943 39.7922 284.726C42.1403 284.51 44.508 284.76 46.7588 285.462C49.0246 286.161 51.1298 287.299 52.9534 288.813C54.777 290.327 56.283 292.185 57.3849 294.282C58.8531 296.99 59.7517 299.969 60.0258 303.036C60.2999 306.104 59.9436 309.195 58.9788 312.12C58.0956 314.97 56.6468 317.613 54.7185 319.891C52.7902 322.17 50.4218 324.038 47.755 325.382C44.393 327.183 40.7041 328.292 36.9057 328.645C33.1073 328.998 29.2765 328.588 25.6395 327.438C21.9629 326.268 18.5584 324.374 15.6269 321.868C12.6954 319.363 10.2963 316.296 8.57133 312.849C4.05659 304.272 3.12551 294.259 5.98132 284.998C8.04866 278.24 12.0687 272.242 17.5371 267.756C18.0121 267.192 18.5464 266.681 19.131 266.231L20.725 265.038V261.324L19.5294 261.921C18.9276 262.23 18.3505 262.585 17.8028 262.982C17.2046 263.37 16.628 263.791 16.076 264.242C9.67464 269.324 5.0294 276.281 2.79343 284.136C1.21687 289.152 0.651697 294.431 1.13047 299.667C1.60924 304.902 3.12255 309.991 5.58286 314.64C7.56605 318.392 10.2701 321.716 13.5405 324.424C16.811 327.132 20.5838 329.171 24.6434 330.422Z" fill="#471B1B"/>
<path d="M94.8416 372.597V374.255H293.483V372.597H94.8416Z" fill="#471B1B"/>
<path d="M294.346 371.735H94.0446V375.051H294.346V371.735Z" fill="#471B1B"/>
<path d="M361.955 248.725C361.938 248.942 361.84 249.144 361.68 249.292C361.519 249.439 361.309 249.521 361.091 249.52H18.533C18.3151 249.521 18.1049 249.439 17.9448 249.292C17.7847 249.144 17.6863 248.942 17.6696 248.725C17.6696 248.496 17.7606 248.277 17.9225 248.115C18.0844 247.953 18.304 247.863 18.533 247.863H361.091C361.32 247.863 361.54 247.953 361.702 248.115C361.864 248.277 361.955 248.496 361.955 248.725Z" fill="#471B1B"/>
<path d="M361.091 250.382H18.533C18.0926 250.382 17.6704 250.208 17.3591 249.897C17.0477 249.586 16.8727 249.164 16.8727 248.725C16.8727 248.285 17.0477 247.863 17.3591 247.552C17.6704 247.241 18.0926 247.067 18.533 247.067H361.091C361.532 247.067 361.954 247.241 362.265 247.552C362.577 247.863 362.752 248.285 362.752 248.725C362.752 249.164 362.577 249.586 362.265 249.897C361.954 250.208 361.532 250.382 361.091 250.382Z" fill="#471B1B"/>
<path d="M88.6652 281.748C88.8007 281.905 88.8754 282.105 88.8754 282.312C88.8754 282.519 88.8007 282.719 88.6652 282.876C88.4714 282.941 88.2613 282.941 88.0675 282.876C88.0301 282.634 88.0301 282.388 88.0675 282.146C88.0806 281.646 88.2425 281.162 88.5324 280.754C88.5978 281.082 88.6421 281.414 88.6652 281.748Z" fill="#471B1B"/>
<path d="M88.0009 283.738H87.4697H87.0713V283.34C87.0142 283.011 87.0142 282.674 87.0713 282.345C87.1107 281.676 87.3412 281.032 87.7354 280.489L88.3331 279.56L89.0636 280.422C89.2428 280.673 89.3985 280.939 89.5285 281.218C89.726 281.59 89.7741 282.024 89.6631 282.43C89.5521 282.837 89.2903 283.186 88.9308 283.406L88.0009 283.738Z" fill="#471B1B"/>
<path d="M292.553 282.146C292.562 282.256 292.549 282.367 292.513 282.471C292.477 282.576 292.42 282.671 292.345 282.752C292.27 282.834 292.179 282.898 292.077 282.942C291.976 282.986 291.867 283.009 291.756 283.008H90.1262C89.8972 283.008 89.6777 282.918 89.5157 282.756C89.3538 282.594 89.2628 282.375 89.2628 282.146C89.2624 282.036 89.2851 281.927 89.3293 281.826C89.3734 281.725 89.438 281.634 89.5192 281.559C89.6004 281.484 89.6964 281.427 89.8009 281.391C89.9054 281.355 90.0161 281.341 90.1262 281.351H291.756C291.968 281.351 292.17 281.434 292.32 281.584C292.469 281.733 292.553 281.935 292.553 282.146Z" fill="#471B1B"/>
<path d="M291.756 283.804H90.1262C89.6795 283.805 89.2502 283.632 88.9282 283.323C88.6062 283.014 88.4168 282.592 88.3996 282.146C88.4168 281.701 88.6062 281.279 88.9282 280.97C89.2502 280.661 89.6795 280.488 90.1262 280.489H291.756C292.197 280.489 292.619 280.663 292.93 280.974C293.241 281.285 293.417 281.707 293.417 282.146C293.417 282.586 293.241 283.008 292.93 283.319C292.619 283.63 292.197 283.804 291.756 283.804Z" fill="#471B1B"/>
<path d="M104.737 354.626H103.874L103.807 353.831V353.698H104.671V352.969V353.632L105.268 353.168L106.597 354.626H104.737Z" fill="#471B1B"/>
<path d="M273.692 351.775C273.393 351.776 273.1 351.696 272.843 351.545C272.585 351.393 272.374 351.175 272.231 350.913C272.153 350.653 272.153 350.377 272.231 350.117C272.329 340.958 272.972 331.813 274.157 322.73C274.177 322.505 274.247 322.287 274.362 322.092C274.477 321.897 274.633 321.73 274.821 321.603C275.009 321.519 275.212 321.475 275.418 321.475C275.624 321.475 275.828 321.519 276.016 321.603C276.433 321.652 276.815 321.858 277.086 322.178C277.357 322.498 277.497 322.908 277.477 323.327C276.347 332.281 275.726 341.292 275.618 350.316C275.715 350.573 275.715 350.856 275.618 351.112C275.446 351.451 275.149 351.71 274.79 351.834C274.43 351.958 274.036 351.937 273.692 351.775ZM275.551 322.929C274.423 331.95 273.802 341.027 273.692 350.117C273.833 341.05 274.454 331.997 275.551 322.995V322.929Z" fill="#471B1B"/>
<path d="M104.737 354.626H103.807V353.698H104.671V352.969V353.632L105.268 353.168L106.597 354.626H104.737Z" fill="#471B1B"/>
<path d="M284.384 358.937C284.384 359.165 284.293 359.385 284.131 359.546C283.97 359.708 283.75 359.799 283.521 359.799H96.037C95.9265 359.799 95.817 359.777 95.7158 359.733C95.6145 359.689 95.5236 359.624 95.4486 359.543C95.3737 359.462 95.3163 359.366 95.2804 359.262C95.2445 359.157 95.2309 359.047 95.2401 358.937C95.2401 358.726 95.3239 358.523 95.4734 358.374C95.6228 358.225 95.8256 358.141 96.037 358.141H283.521C283.631 358.132 283.742 358.146 283.846 358.181C283.951 358.217 284.047 358.275 284.128 358.349C284.209 358.424 284.274 358.515 284.318 358.616C284.362 358.717 284.385 358.827 284.384 358.937Z" fill="#471B1B"/>
<path d="M283.521 360.595H96.037C95.822 360.595 95.6092 360.552 95.4114 360.468C95.2135 360.383 95.0347 360.26 94.8858 360.105C94.7369 359.95 94.6208 359.767 94.5447 359.566C94.4686 359.365 94.434 359.151 94.443 358.937C94.434 358.722 94.4686 358.508 94.5447 358.307C94.6208 358.107 94.7369 357.923 94.8858 357.768C95.0347 357.614 95.2135 357.49 95.4114 357.406C95.6092 357.322 95.822 357.279 96.037 357.279H283.521C283.967 357.279 284.397 357.451 284.719 357.76C285.041 358.07 285.23 358.491 285.248 358.937C285.23 359.383 285.041 359.804 284.719 360.113C284.397 360.422 283.967 360.595 283.521 360.595Z" fill="#471B1B"/>
<path d="M121.938 381.947C119.73 381.947 117.612 382.819 116.044 384.371C114.477 385.924 113.587 388.032 113.57 390.237V532.544V533.937H114.898L115.43 532.412V534.003C116.426 534.003 117.488 534.467 118.485 534.799L121.805 535.727H122.137L125.059 536.656L127.782 537.584H128.181L130.372 538.313V390.237C130.373 389.137 130.154 388.048 129.728 387.034C129.303 386.019 128.679 385.099 127.894 384.328C127.109 383.556 126.178 382.949 125.156 382.54C124.133 382.131 123.039 381.93 121.938 381.947ZM121.207 532.279L116.891 531.218V390.237C116.908 388.911 117.448 387.647 118.392 386.716C119.337 385.785 120.611 385.263 121.938 385.263C123.259 385.263 124.526 385.787 125.46 386.72C126.394 387.652 126.919 388.918 126.919 390.237V534.069L121.207 532.279Z" fill="#471B1B"/>
<path d="M160.922 381.948C158.715 381.947 156.596 382.819 155.029 384.371C153.461 385.924 152.572 388.032 152.554 390.237V545.674H154.015H154.348C156.008 545.674 157.602 545.674 159.129 545.674C160.663 545.668 162.194 545.557 163.712 545.343H164.509L165.903 545.011C166.606 544.874 167.295 544.674 167.962 544.414C168.361 544.414 168.693 544.414 168.826 540.568C168.826 533.937 168.826 516.364 168.826 466.364V390.237C168.828 388.105 168.008 386.055 166.537 384.512C165.065 382.968 163.054 382.05 160.922 381.948ZM165.837 542.027H165.306L163.048 542.491H162.583C160.375 542.73 158.149 542.73 155.941 542.491V389.971C155.959 388.646 156.498 387.381 157.443 386.451C158.388 385.52 159.662 384.998 160.989 384.998C162.305 385.015 163.562 385.545 164.492 386.474C165.422 387.403 165.953 388.658 165.97 389.971C165.97 439.176 165.97 530.223 165.97 541.695L165.837 542.027Z" fill="#471B1B"/>
<path d="M200.638 380.489C198.43 380.488 196.311 381.36 194.744 382.912C193.176 384.465 192.287 386.573 192.269 388.778V538.711H193.266H194.063L195.192 539.109L199.575 541.032C201.567 541.961 203.56 542.823 205.619 543.618L206.747 544.083L208.607 544.746H208.939V388.512C208.87 386.36 207.965 384.319 206.416 382.822C204.866 381.324 202.794 380.487 200.638 380.489ZM200.97 538.645L196.653 536.722H195.789V388.512C195.807 387.187 196.346 385.922 197.291 384.992C198.236 384.061 199.51 383.539 200.837 383.539C202.158 383.539 203.425 384.063 204.359 384.996C205.293 385.928 205.818 387.193 205.818 388.512V540.435L200.97 538.645Z" fill="#471B1B"/>
<path d="M238.958 381.948C236.756 381.948 234.645 382.821 233.088 384.375C231.531 385.93 230.656 388.038 230.656 390.237V546.271L232.649 545.873L235.903 545.077L239.223 544.083C241.615 543.323 243.965 542.437 246.263 541.43L247.259 540.966V390.237C247.259 388.038 246.385 385.93 244.828 384.375C243.271 382.821 241.159 381.948 238.958 381.948ZM238.958 541.099C237.563 541.563 236.168 542.027 234.84 542.359H234.043V390.237C234.06 388.923 234.591 387.668 235.521 386.739C236.452 385.81 237.709 385.28 239.024 385.263C240.351 385.263 241.625 385.785 242.57 386.716C243.515 387.647 244.054 388.912 244.071 390.237V538.844C242.278 539.64 240.552 540.237 238.891 540.767L238.958 541.099Z" fill="#471B1B"/>
<path d="M275.618 381.948C274.522 381.939 273.435 382.147 272.42 382.559C271.406 382.972 270.483 383.581 269.705 384.352C268.927 385.122 268.309 386.039 267.888 387.049C267.467 388.059 267.25 389.143 267.25 390.237V529.958L283.919 519.149V390.237C283.919 388.038 283.045 385.93 281.488 384.375C279.931 382.821 277.819 381.948 275.618 381.948ZM270.57 523.857V390.237C270.588 388.912 271.127 387.647 272.072 386.716C273.017 385.785 274.29 385.263 275.618 385.263C276.933 385.28 278.19 385.81 279.121 386.739C280.051 387.668 280.581 388.923 280.599 390.237V517.359L270.57 523.857Z" fill="#471B1B"/>
<path d="M301.851 352.969C301.86 353.079 301.846 353.189 301.81 353.294C301.774 353.398 301.717 353.494 301.642 353.575C301.567 353.656 301.476 353.72 301.375 353.764C301.274 353.809 301.164 353.831 301.054 353.831H104.671H99.8889C99.7843 353.831 99.6806 353.81 99.5839 353.77C99.4872 353.73 99.3995 353.672 99.3255 353.598C99.2515 353.524 99.1926 353.436 99.1526 353.34C99.1125 353.243 99.092 353.139 99.092 353.035C99.0828 352.925 99.0966 352.814 99.1325 352.71C99.1684 352.606 99.2256 352.51 99.3005 352.429C99.3755 352.348 99.4666 352.283 99.5679 352.239C99.6692 352.195 99.7784 352.173 99.8889 352.173H106.065C106.033 351.909 106.033 351.641 106.065 351.377V350.449C103.94 339.109 101.616 327.637 99.424 316.43C97.9629 309.136 96.369 301.709 94.7087 294.215H90.6576C90.4286 294.215 90.2091 294.125 90.0471 293.963C89.8852 293.801 89.7942 293.582 89.7942 293.353C89.811 293.136 89.9093 292.934 90.0694 292.786C90.2296 292.639 90.4397 292.557 90.6576 292.558H94.3767L93.5133 288.844C93.4836 288.739 93.4757 288.63 93.49 288.522C93.5043 288.414 93.5406 288.311 93.5966 288.218C93.6526 288.124 93.7272 288.044 93.8157 287.98C93.9042 287.917 94.0046 287.872 94.111 287.849C94.3217 287.807 94.5405 287.845 94.7247 287.955C94.9089 288.066 95.0452 288.241 95.1072 288.446C95.1072 289.839 95.705 291.231 96.037 292.624H292.287C292.499 292.624 292.702 292.708 292.851 292.857C293 293.006 293.084 293.209 293.084 293.42C293.094 293.53 293.08 293.64 293.044 293.745C293.008 293.849 292.951 293.945 292.876 294.026C292.801 294.107 292.71 294.171 292.609 294.215C292.507 294.26 292.398 294.282 292.287 294.282H96.369C98.0294 301.709 99.5568 309.003 101.084 316.165C103.409 327.571 105.8 339.109 107.726 350.581C107.726 351.112 107.726 351.709 108.058 352.239H301.386C301.526 352.303 301.644 352.406 301.726 352.535C301.809 352.665 301.852 352.815 301.851 352.969Z" fill="#471B1B"/>
<path d="M301.054 354.626H99.8226C99.6108 354.636 99.3993 354.601 99.2016 354.525C99.004 354.448 98.8244 354.331 98.6745 354.181C98.5245 354.032 98.4075 353.852 98.3307 353.655C98.254 353.458 98.2192 353.246 98.2286 353.035C98.2197 352.817 98.254 352.6 98.3293 352.395C98.4046 352.191 98.5195 352.003 98.6676 351.843C98.8156 351.683 98.9937 351.553 99.1919 351.462C99.3901 351.371 99.6045 351.319 99.8226 351.311H105.003V350.581C102.678 338.181 100.155 325.913 98.3615 316.629C97.0333 309.998 95.6386 303.367 93.779 295.077H90.3919C89.9339 295.077 89.4948 294.896 89.171 294.572C88.8471 294.249 88.6651 293.811 88.6651 293.353C88.6736 293.136 88.7253 292.922 88.8167 292.724C88.9081 292.526 89.0378 292.348 89.1981 292.2C89.3585 292.052 89.5464 291.937 89.7512 291.862C89.9561 291.787 90.1738 291.753 90.3919 291.762H93.0484V290.9L92.6499 289.043C92.518 288.679 92.518 288.28 92.6499 287.916C92.7631 287.724 92.9169 287.559 93.1005 287.433C93.284 287.307 93.4929 287.223 93.7125 287.186C94.1153 287.116 94.5299 287.191 94.8826 287.397C95.2353 287.604 95.5032 287.928 95.6386 288.313C95.6386 288.844 95.6386 289.573 96.037 290.237C96.4355 290.9 96.037 291.231 96.037 291.762H291.623C292.052 291.761 292.465 291.927 292.774 292.224C293.084 292.52 293.266 292.925 293.284 293.353C293.284 293.799 293.111 294.228 292.802 294.55C292.492 294.871 292.07 295.06 291.623 295.077H97.2324C98.4279 300.581 99.5569 306.019 100.752 311.39L102.612 320.409C104.604 330.223 106.663 340.303 108.523 350.382C108.523 350.382 108.523 350.913 108.523 351.178H301.12C301.561 351.178 301.983 351.353 302.294 351.664C302.606 351.975 302.781 352.396 302.781 352.836C302.8 353.07 302.769 353.306 302.69 353.527C302.61 353.749 302.485 353.951 302.322 354.12C302.158 354.289 301.961 354.422 301.742 354.509C301.524 354.597 301.289 354.637 301.054 354.626ZM104.604 353.963V353.3H106.995V352.703V351.775C106.995 351.775 106.995 351.311 106.995 351.046C105.136 341.032 103.077 331.152 101.018 321.006L99.4904 313.446L100.088 316.629C102.014 325.913 104.538 338.181 106.729 350.648V351.576C106.692 351.796 106.692 352.02 106.729 352.239V353.3H104.272L104.604 353.963ZM93.8453 289.043V289.772C93.8453 289.772 93.9117 289.043 93.8453 288.778V289.043Z" fill="#471B1B"/>
</svg>
