<svg width="504" height="584" viewBox="0 0 504 584" fill="none" xmlns="http://www.w3.org/2000/svg">
<path d="M377 222.148V322H127V222L377 222.148Z" stroke="#1C1C1C" stroke-width="3" stroke-miterlimit="10"/>
<path d="M439.5 322H64.5V442H439.5V322Z" stroke="#1C1C1C" stroke-width="3" stroke-miterlimit="10"/>
<path d="M502 442H2V582H502V442Z" stroke="#1C1C1C" stroke-width="3" stroke-miterlimit="10"/>
<path d="M159.328 376.675H158.978C158.885 375.648 158.675 374.703 158.348 373.84C158.045 372.953 157.578 372.195 156.948 371.565C156.341 370.912 155.571 370.41 154.638 370.06C153.728 369.687 152.62 369.5 151.313 369.5H148.723V379.965C149.05 379.918 149.4 379.883 149.773 379.86C150.17 379.837 150.59 379.825 151.033 379.825C152.433 379.825 153.74 379.953 154.953 380.21C156.166 380.443 157.228 380.84 158.138 381.4C159.048 381.937 159.76 382.637 160.273 383.5C160.786 384.34 161.043 385.367 161.043 386.58C161.043 387.77 160.786 388.832 160.273 389.765C159.783 390.675 159.071 391.445 158.138 392.075C157.228 392.705 156.12 393.183 154.813 393.51C153.506 393.837 152.036 394 150.403 394H141.303V393.65H144.033V369.5H141.303V369.15H159.328V376.675ZM150.403 380.21C149.796 380.21 149.236 380.245 148.723 380.315V393.65H150.053C151.243 393.65 152.223 393.475 152.993 393.125C153.763 392.752 154.37 392.262 154.813 391.655C155.28 391.025 155.595 390.29 155.758 389.45C155.945 388.61 156.038 387.712 156.038 386.755C156.038 385.775 155.945 384.888 155.758 384.095C155.571 383.278 155.256 382.59 154.813 382.03C154.37 381.447 153.786 381.003 153.063 380.7C152.363 380.373 151.476 380.21 150.403 380.21ZM173.125 378.95H177.465V379.3H175.785L167.91 399.145C167.397 400.428 166.837 401.35 166.23 401.91C165.624 402.47 164.807 402.75 163.78 402.75C162.66 402.75 161.785 402.458 161.155 401.875C160.525 401.315 160.21 400.557 160.21 399.6C160.21 398.853 160.409 398.258 160.805 397.815C161.179 397.395 161.657 397.185 162.24 397.185C162.824 397.185 163.267 397.372 163.57 397.745C163.874 398.118 164.025 398.573 164.025 399.11C164.025 399.367 163.99 399.588 163.92 399.775C163.85 399.985 163.78 400.172 163.71 400.335C163.64 400.522 163.57 400.697 163.5 400.86C163.43 401.023 163.395 401.198 163.395 401.385C163.395 401.712 163.489 401.933 163.675 402.05C163.862 402.19 164.095 402.26 164.375 402.26C165.099 402.26 165.729 401.922 166.265 401.245C166.802 400.568 167.234 399.81 167.56 398.97L169.275 394.665L163.185 379.3H161.505V378.95H169.485V379.3H167.455L171.34 389.45L175.365 379.3H173.125V378.95ZM185.885 379.3H183.96V386.3H185.185L191.345 379.3H189.07V378.95H193.97V379.3H191.835L188.02 383.605L194.005 393.65H195.685V394H187.565V393.65H189.245L185.185 386.65H183.96V393.65H185.885V394H177.66V393.65H179.76V379.3H177.66V378.95H185.885V379.3ZM203.267 378.95C205.601 378.95 207.327 379.23 208.447 379.79C209.567 380.327 210.127 381.225 210.127 382.485C210.127 383.512 209.672 384.34 208.762 384.97C207.852 385.577 206.639 385.938 205.122 386.055C205.962 386.102 206.721 386.207 207.397 386.37C208.097 386.533 208.692 386.767 209.182 387.07C209.696 387.373 210.092 387.747 210.372 388.19C210.652 388.61 210.792 389.123 210.792 389.73C210.792 391.06 210.197 392.11 209.007 392.88C207.841 393.627 205.939 394 203.302 394H195.707V393.65H197.807V379.3H195.707V378.95H203.267ZM202.007 386.3V393.65H203.302C204.586 393.65 205.484 393.3 205.997 392.6C206.534 391.877 206.802 390.967 206.802 389.87C206.802 388.843 206.511 387.992 205.927 387.315C205.367 386.638 204.411 386.3 203.057 386.3H202.007ZM202.007 379.3V385.95H203.127C204.201 385.95 204.971 385.635 205.437 385.005C205.927 384.352 206.172 383.535 206.172 382.555C206.172 380.385 205.169 379.3 203.162 379.3H202.007ZM220.855 379.3H218.755V385.18C219.082 385.157 219.409 385.133 219.735 385.11C220.085 385.087 220.424 385.075 220.75 385.075C221.66 385.075 222.489 385.157 223.235 385.32C224.005 385.483 224.67 385.74 225.23 386.09C225.79 386.417 226.222 386.848 226.525 387.385C226.829 387.922 226.98 388.563 226.98 389.31C226.98 390.08 226.805 390.757 226.455 391.34C226.105 391.923 225.604 392.413 224.95 392.81C224.32 393.207 223.562 393.51 222.675 393.72C221.789 393.907 220.809 394 219.735 394H212.455V393.65H214.555V379.3H212.455V378.95H220.855V379.3ZM235.38 394H226.98V393.65H229.08V379.3H226.98V378.95H235.38V379.3H233.28V393.65H235.38V394ZM219.91 385.46C219.724 385.46 219.525 385.472 219.315 385.495C219.129 385.495 218.942 385.507 218.755 385.53V393.65H219.805C220.435 393.65 220.949 393.533 221.345 393.3C221.765 393.043 222.092 392.717 222.325 392.32C222.559 391.923 222.722 391.468 222.815 390.955C222.909 390.442 222.955 389.917 222.955 389.38C222.955 388.19 222.699 387.245 222.185 386.545C221.695 385.822 220.937 385.46 219.91 385.46ZM254.95 392.915C254.507 391.702 253.9 390.628 253.13 389.695C252.383 388.762 251.613 387.91 250.82 387.14C250.703 387.023 250.598 386.93 250.505 386.86C250.435 386.767 250.4 386.638 250.4 386.475C250.4 386.312 250.435 386.195 250.505 386.125C250.598 386.032 250.703 385.927 250.82 385.81C251.613 385.04 252.383 384.188 253.13 383.255C253.9 382.322 254.507 381.248 254.95 380.035L255.16 380.07C255.043 380.607 254.903 381.178 254.74 381.785C254.6 382.392 254.437 382.987 254.25 383.57C254.087 384.13 253.912 384.667 253.725 385.18C253.538 385.693 253.363 386.125 253.2 386.475C253.363 386.825 253.538 387.257 253.725 387.77C253.912 388.283 254.087 388.832 254.25 389.415C254.437 389.975 254.6 390.558 254.74 391.165C254.903 391.772 255.043 392.343 255.16 392.88L254.95 392.915ZM249.63 392.915C249.187 391.702 248.58 390.628 247.81 389.695C247.063 388.762 246.293 387.91 245.5 387.14C245.383 387.023 245.278 386.93 245.185 386.86C245.115 386.767 245.08 386.638 245.08 386.475C245.08 386.312 245.115 386.195 245.185 386.125C245.278 386.032 245.383 385.927 245.5 385.81C246.293 385.04 247.063 384.188 247.81 383.255C248.58 382.322 249.187 381.248 249.63 380.035L249.84 380.07C249.723 380.607 249.583 381.178 249.42 381.785C249.28 382.392 249.117 382.987 248.93 383.57C248.767 384.13 248.592 384.667 248.405 385.18C248.218 385.693 248.043 386.125 247.88 386.475C248.043 386.825 248.218 387.257 248.405 387.77C248.592 388.283 248.767 388.832 248.93 389.415C249.117 389.975 249.28 390.558 249.42 391.165C249.583 391.772 249.723 392.343 249.84 392.88L249.63 392.915ZM266.109 394H257.709V393.65H259.809V379.3H257.709V378.95H270.764V383.57H270.449C270.356 382.987 270.216 382.438 270.029 381.925C269.843 381.412 269.574 380.968 269.224 380.595C268.898 380.198 268.478 379.883 267.964 379.65C267.451 379.417 266.809 379.3 266.039 379.3H264.009V393.65H266.109V394ZM278.681 392.88C278.775 392.343 278.903 391.772 279.066 391.165C279.23 390.558 279.393 389.975 279.556 389.415C279.743 388.832 279.93 388.283 280.116 387.77C280.303 387.257 280.478 386.825 280.641 386.475C280.478 386.125 280.303 385.693 280.116 385.18C279.93 384.667 279.743 384.13 279.556 383.57C279.393 382.987 279.23 382.392 279.066 381.785C278.903 381.178 278.775 380.607 278.681 380.07L278.891 380.035C279.335 381.248 279.93 382.322 280.676 383.255C281.446 384.188 282.228 385.04 283.021 385.81C283.138 385.927 283.231 386.032 283.301 386.125C283.395 386.195 283.441 386.312 283.441 386.475C283.441 386.638 283.395 386.767 283.301 386.86C283.231 386.93 283.138 387.023 283.021 387.14C282.228 387.91 281.446 388.762 280.676 389.695C279.93 390.628 279.335 391.702 278.891 392.915L278.681 392.88ZM273.361 392.88C273.455 392.343 273.583 391.772 273.746 391.165C273.91 390.558 274.073 389.975 274.236 389.415C274.423 388.832 274.61 388.283 274.796 387.77C274.983 387.257 275.158 386.825 275.321 386.475C275.158 386.125 274.983 385.693 274.796 385.18C274.61 384.667 274.423 384.13 274.236 383.57C274.073 382.987 273.91 382.392 273.746 381.785C273.583 381.178 273.455 380.607 273.361 380.07L273.571 380.035C274.015 381.248 274.61 382.322 275.356 383.255C276.126 384.188 276.908 385.04 277.701 385.81C277.818 385.927 277.911 386.032 277.981 386.125C278.075 386.195 278.121 386.312 278.121 386.475C278.121 386.638 278.075 386.767 277.981 386.86C277.911 386.93 277.818 387.023 277.701 387.14C276.908 387.91 276.126 388.762 275.356 389.695C274.61 390.628 274.015 391.702 273.571 392.915L273.361 392.88ZM301.519 379.3H299.419V393.16L304.984 378.95H311.319V379.3H309.219V393.65H311.319V394H302.919V393.65H305.019V379.86L299.454 394H293.119V393.65H295.219V379.3H293.119V378.95H301.519V379.3ZM330.863 392.915C330.42 391.702 329.813 390.628 329.043 389.695C328.296 388.762 327.526 387.91 326.733 387.14C326.616 387.023 326.511 386.93 326.418 386.86C326.348 386.767 326.313 386.638 326.313 386.475C326.313 386.312 326.348 386.195 326.418 386.125C326.511 386.032 326.616 385.927 326.733 385.81C327.526 385.04 328.296 384.188 329.043 383.255C329.813 382.322 330.42 381.248 330.863 380.035L331.073 380.07C330.956 380.607 330.816 381.178 330.653 381.785C330.513 382.392 330.35 382.987 330.163 383.57C330 384.13 329.825 384.667 329.638 385.18C329.451 385.693 329.276 386.125 329.113 386.475C329.276 386.825 329.451 387.257 329.638 387.77C329.825 388.283 330 388.832 330.163 389.415C330.35 389.975 330.513 390.558 330.653 391.165C330.816 391.772 330.956 392.343 331.073 392.88L330.863 392.915ZM325.543 392.915C325.1 391.702 324.493 390.628 323.723 389.695C322.976 388.762 322.206 387.91 321.413 387.14C321.296 387.023 321.191 386.93 321.098 386.86C321.028 386.767 320.993 386.638 320.993 386.475C320.993 386.312 321.028 386.195 321.098 386.125C321.191 386.032 321.296 385.927 321.413 385.81C322.206 385.04 322.976 384.188 323.723 383.255C324.493 382.322 325.1 381.248 325.543 380.035L325.753 380.07C325.636 380.607 325.496 381.178 325.333 381.785C325.193 382.392 325.03 382.987 324.843 383.57C324.68 384.13 324.505 384.667 324.318 385.18C324.131 385.693 323.956 386.125 323.793 386.475C323.956 386.825 324.131 387.257 324.318 387.77C324.505 388.283 324.68 388.832 324.843 389.415C325.03 389.975 325.193 390.558 325.333 391.165C325.496 391.772 325.636 392.343 325.753 392.88L325.543 392.915ZM349.547 368.135C349.524 368.438 349.477 368.893 349.407 369.5C349.361 370.083 349.256 370.62 349.092 371.11C348.742 372.137 348.194 372.953 347.447 373.56C346.724 374.143 345.616 374.54 344.122 374.75L342.407 374.995C341.241 375.158 340.202 375.415 339.292 375.765C338.382 376.092 337.601 376.558 336.947 377.165C336.294 377.772 335.792 378.553 335.442 379.51C335.116 380.443 334.952 381.587 334.952 382.94C334.952 383.407 334.952 383.768 334.952 384.025C334.952 384.258 334.976 384.48 335.022 384.69H335.127C335.687 382.87 336.632 381.423 337.962 380.35C339.292 379.277 340.867 378.74 342.687 378.74C344.041 378.74 345.196 378.985 346.152 379.475C347.109 379.942 347.879 380.548 348.462 381.295C349.069 382.018 349.501 382.847 349.757 383.78C350.037 384.69 350.177 385.577 350.177 386.44C350.177 387.303 350.026 388.202 349.722 389.135C349.442 390.045 348.999 390.873 348.392 391.62C347.786 392.367 346.992 392.985 346.012 393.475C345.056 393.965 343.901 394.21 342.547 394.21C339.864 394.21 337.857 393.288 336.527 391.445C335.197 389.602 334.532 386.907 334.532 383.36C334.532 381.657 334.684 380.105 334.987 378.705C335.314 377.282 335.804 376.033 336.457 374.96C337.134 373.887 337.997 373.012 339.047 372.335C340.097 371.635 341.357 371.157 342.827 370.9L345.382 370.48C346.082 370.363 346.654 370.258 347.097 370.165C347.541 370.048 347.891 369.932 348.147 369.815C348.427 369.675 348.637 369.535 348.777 369.395C348.917 369.232 349.022 369.045 349.092 368.835C349.186 368.578 349.244 368.345 349.267 368.135H349.547ZM342.547 393.93C343.271 393.93 343.854 393.732 344.297 393.335C344.741 392.915 345.079 392.367 345.312 391.69C345.546 390.99 345.697 390.197 345.767 389.31C345.837 388.4 345.872 387.455 345.872 386.475C345.872 385.495 345.837 384.562 345.767 383.675C345.721 382.765 345.592 381.972 345.382 381.295C345.172 380.595 344.857 380.047 344.437 379.65C344.017 379.23 343.434 379.02 342.687 379.02C342.011 379.02 341.439 379.23 340.972 379.65C340.506 380.047 340.132 380.595 339.852 381.295C339.572 381.972 339.374 382.765 339.257 383.675C339.141 384.562 339.082 385.495 339.082 386.475C339.082 387.455 339.117 388.4 339.187 389.31C339.257 390.197 339.409 390.99 339.642 391.69C339.899 392.367 340.249 392.915 340.692 393.335C341.159 393.732 341.777 393.93 342.547 393.93ZM358.628 392.88C358.721 392.343 358.849 391.772 359.013 391.165C359.176 390.558 359.339 389.975 359.503 389.415C359.689 388.832 359.876 388.283 360.063 387.77C360.249 387.257 360.424 386.825 360.588 386.475C360.424 386.125 360.249 385.693 360.063 385.18C359.876 384.667 359.689 384.13 359.503 383.57C359.339 382.987 359.176 382.392 359.013 381.785C358.849 381.178 358.721 380.607 358.628 380.07L358.838 380.035C359.281 381.248 359.876 382.322 360.623 383.255C361.393 384.188 362.174 385.04 362.968 385.81C363.084 385.927 363.178 386.032 363.248 386.125C363.341 386.195 363.388 386.312 363.388 386.475C363.388 386.638 363.341 386.767 363.248 386.86C363.178 386.93 363.084 387.023 362.968 387.14C362.174 387.91 361.393 388.762 360.623 389.695C359.876 390.628 359.281 391.702 358.838 392.915L358.628 392.88ZM353.308 392.88C353.401 392.343 353.529 391.772 353.693 391.165C353.856 390.558 354.019 389.975 354.183 389.415C354.369 388.832 354.556 388.283 354.743 387.77C354.929 387.257 355.104 386.825 355.268 386.475C355.104 386.125 354.929 385.693 354.743 385.18C354.556 384.667 354.369 384.13 354.183 383.57C354.019 382.987 353.856 382.392 353.693 381.785C353.529 381.178 353.401 380.607 353.308 380.07L353.518 380.035C353.961 381.248 354.556 382.322 355.303 383.255C356.073 384.188 356.854 385.04 357.648 385.81C357.764 385.927 357.858 386.032 357.928 386.125C358.021 386.195 358.068 386.312 358.068 386.475C358.068 386.638 358.021 386.767 357.928 386.86C357.858 386.93 357.764 387.023 357.648 387.14C356.854 387.91 356.073 388.762 355.303 389.695C354.556 390.628 353.961 391.702 353.518 392.915L353.308 392.88Z" fill="#1C1C1C"/>
<path d="M81.6672 509.11H81.4472C81.3886 508.465 81.2566 507.871 81.0512 507.328C80.8606 506.771 80.5672 506.294 80.1712 505.898C79.7899 505.487 79.3059 505.172 78.7192 504.952C78.1472 504.717 77.4506 504.6 76.6292 504.6H75.0012V511.178C75.2066 511.149 75.4266 511.127 75.6612 511.112C75.9106 511.097 76.1746 511.09 76.4532 511.09C77.3332 511.09 78.1546 511.171 78.9172 511.332C79.6799 511.479 80.3472 511.728 80.9192 512.08C81.4912 512.417 81.9386 512.857 82.2612 513.4C82.5839 513.928 82.7452 514.573 82.7452 515.336C82.7452 516.084 82.5839 516.751 82.2612 517.338C81.9532 517.91 81.5059 518.394 80.9192 518.79C80.3472 519.186 79.6506 519.487 78.8292 519.692C78.0079 519.897 77.0839 520 76.0572 520H70.3372V519.78H72.0532V504.6H70.3372V504.38H81.6672V509.11ZM76.0572 511.332C75.6759 511.332 75.3239 511.354 75.0012 511.398V519.78H75.8372C76.5852 519.78 77.2012 519.67 77.6852 519.45C78.1692 519.215 78.5506 518.907 78.8292 518.526C79.1226 518.13 79.3206 517.668 79.4232 517.14C79.5406 516.612 79.5992 516.047 79.5992 515.446C79.5992 514.83 79.5406 514.273 79.4232 513.774C79.3059 513.261 79.1079 512.828 78.8292 512.476C78.5506 512.109 78.1839 511.831 77.7292 511.64C77.2892 511.435 76.7319 511.332 76.0572 511.332ZM90.3399 510.54H93.0679V510.76H92.0119L87.0619 523.234C86.7392 524.041 86.3872 524.62 86.0059 524.972C85.6245 525.324 85.1112 525.5 84.4659 525.5C83.7619 525.5 83.2119 525.317 82.8159 524.95C82.4199 524.598 82.2219 524.121 82.2219 523.52C82.2219 523.051 82.3465 522.677 82.5959 522.398C82.8305 522.134 83.1312 522.002 83.4979 522.002C83.8645 522.002 84.1432 522.119 84.3339 522.354C84.5245 522.589 84.6199 522.875 84.6199 523.212C84.6199 523.373 84.5979 523.513 84.5539 523.63C84.5099 523.762 84.4659 523.879 84.4219 523.982C84.3779 524.099 84.3339 524.209 84.2899 524.312C84.2459 524.415 84.2239 524.525 84.2239 524.642C84.2239 524.847 84.2825 524.987 84.3999 525.06C84.5172 525.148 84.6639 525.192 84.8399 525.192C85.2945 525.192 85.6905 524.979 86.0279 524.554C86.3652 524.129 86.6365 523.652 86.8419 523.124L87.9199 520.418L84.0919 510.76H83.0359V510.54H88.0519V510.76H86.7759L89.2179 517.14L91.7479 510.76H90.3399V510.54ZM98.3604 510.76H97.1504V515.16H97.9204L101.792 510.76H100.362V510.54H103.442V510.76H102.1L99.7024 513.466L103.464 519.78H104.52V520H99.4164V519.78H100.472L97.9204 515.38H97.1504V519.78H98.3604V520H93.1904V519.78H94.5104V510.76H93.1904V510.54H98.3604V510.76ZM109.286 510.54C110.753 510.54 111.838 510.716 112.542 511.068C113.246 511.405 113.598 511.97 113.598 512.762C113.598 513.407 113.312 513.928 112.74 514.324C112.168 514.705 111.405 514.933 110.452 515.006C110.98 515.035 111.457 515.101 111.882 515.204C112.322 515.307 112.696 515.453 113.004 515.644C113.327 515.835 113.576 516.069 113.752 516.348C113.928 516.612 114.016 516.935 114.016 517.316C114.016 518.152 113.642 518.812 112.894 519.296C112.161 519.765 110.965 520 109.308 520H104.534V519.78H105.854V510.76H104.534V510.54H109.286ZM108.494 515.16V519.78H109.308C110.115 519.78 110.679 519.56 111.002 519.12C111.339 518.665 111.508 518.093 111.508 517.404C111.508 516.759 111.325 516.223 110.958 515.798C110.606 515.373 110.005 515.16 109.154 515.16H108.494ZM108.494 510.76V514.94H109.198C109.873 514.94 110.357 514.742 110.65 514.346C110.958 513.935 111.112 513.422 111.112 512.806C111.112 511.442 110.481 510.76 109.22 510.76H108.494ZM118.01 520.132C117.086 520.132 116.404 519.927 115.964 519.516C115.524 519.105 115.304 518.533 115.304 517.8C115.304 516.891 115.656 516.209 116.36 515.754C117.064 515.285 118.171 515.05 119.682 515.05H120.606V513.642C120.606 513.07 120.584 512.593 120.54 512.212C120.496 511.816 120.415 511.508 120.298 511.288C120.195 511.053 120.041 510.885 119.836 510.782C119.63 510.679 119.374 510.628 119.066 510.628C118.684 510.628 118.369 510.709 118.12 510.87C117.87 511.017 117.746 511.288 117.746 511.684C117.746 511.933 117.782 512.139 117.856 512.3C117.944 512.447 117.988 512.637 117.988 512.872C117.988 513.165 117.892 513.415 117.702 513.62C117.526 513.825 117.254 513.928 116.888 513.928C116.184 513.928 115.832 513.547 115.832 512.784C115.832 512.036 116.169 511.457 116.844 511.046C117.518 510.621 118.413 510.408 119.528 510.408C119.938 510.408 120.364 510.452 120.804 510.54C121.244 510.628 121.647 510.811 122.014 511.09C122.38 511.369 122.674 511.772 122.894 512.3C123.128 512.828 123.246 513.525 123.246 514.39V518.79C123.246 519.479 123.458 519.824 123.884 519.824C124.133 519.824 124.331 519.736 124.478 519.56C124.639 519.384 124.764 519.171 124.852 518.922L125.028 518.988C124.91 519.325 124.727 519.604 124.478 519.824C124.243 520.029 123.81 520.132 123.18 520.132C122.461 520.132 121.867 519.963 121.398 519.626C120.943 519.289 120.716 518.687 120.716 517.822V517.712H120.672C120.51 518.621 120.217 519.252 119.792 519.604C119.366 519.956 118.772 520.132 118.01 520.132ZM118.868 519.692C119.234 519.692 119.528 519.567 119.748 519.318C119.982 519.069 120.158 518.753 120.276 518.372C120.408 517.991 120.496 517.573 120.54 517.118C120.584 516.649 120.606 516.194 120.606 515.754V515.27H119.946C119.198 515.27 118.648 515.483 118.296 515.908C117.944 516.333 117.768 516.986 117.768 517.866C117.768 518.409 117.841 518.849 117.988 519.186C118.149 519.523 118.442 519.692 118.868 519.692ZM136.702 519.318C136.423 518.555 136.042 517.881 135.558 517.294C135.089 516.707 134.605 516.172 134.106 515.688C134.033 515.615 133.967 515.556 133.908 515.512C133.864 515.453 133.842 515.373 133.842 515.27C133.842 515.167 133.864 515.094 133.908 515.05C133.967 514.991 134.033 514.925 134.106 514.852C134.605 514.368 135.089 513.833 135.558 513.246C136.042 512.659 136.423 511.985 136.702 511.222L136.834 511.244C136.761 511.581 136.673 511.941 136.57 512.322C136.482 512.703 136.379 513.077 136.262 513.444C136.159 513.796 136.049 514.133 135.932 514.456C135.815 514.779 135.705 515.05 135.602 515.27C135.705 515.49 135.815 515.761 135.932 516.084C136.049 516.407 136.159 516.751 136.262 517.118C136.379 517.47 136.482 517.837 136.57 518.218C136.673 518.599 136.761 518.959 136.834 519.296L136.702 519.318ZM133.358 519.318C133.079 518.555 132.698 517.881 132.214 517.294C131.745 516.707 131.261 516.172 130.762 515.688C130.689 515.615 130.623 515.556 130.564 515.512C130.52 515.453 130.498 515.373 130.498 515.27C130.498 515.167 130.52 515.094 130.564 515.05C130.623 514.991 130.689 514.925 130.762 514.852C131.261 514.368 131.745 513.833 132.214 513.246C132.698 512.659 133.079 511.985 133.358 511.222L133.49 511.244C133.417 511.581 133.329 511.941 133.226 512.322C133.138 512.703 133.035 513.077 132.918 513.444C132.815 513.796 132.705 514.133 132.588 514.456C132.471 514.779 132.361 515.05 132.258 515.27C132.361 515.49 132.471 515.761 132.588 516.084C132.705 516.407 132.815 516.751 132.918 517.118C133.035 517.47 133.138 517.837 133.226 518.218C133.329 518.599 133.417 518.959 133.49 519.296L133.358 519.318ZM143.716 520H138.437V519.78H139.757V510.76H138.437V510.54H146.643V513.444H146.445C146.386 513.077 146.298 512.733 146.181 512.41C146.063 512.087 145.895 511.809 145.675 511.574C145.469 511.325 145.205 511.127 144.883 510.98C144.56 510.833 144.157 510.76 143.673 510.76H142.397V519.78H143.716V520ZM151.619 519.296C151.678 518.959 151.758 518.599 151.861 518.218C151.964 517.837 152.066 517.47 152.169 517.118C152.286 516.751 152.404 516.407 152.521 516.084C152.638 515.761 152.748 515.49 152.851 515.27C152.748 515.05 152.638 514.779 152.521 514.456C152.404 514.133 152.286 513.796 152.169 513.444C152.066 513.077 151.964 512.703 151.861 512.322C151.758 511.941 151.678 511.581 151.619 511.244L151.751 511.222C152.03 511.985 152.404 512.659 152.873 513.246C153.357 513.833 153.848 514.368 154.347 514.852C154.42 514.925 154.479 514.991 154.523 515.05C154.582 515.094 154.611 515.167 154.611 515.27C154.611 515.373 154.582 515.453 154.523 515.512C154.479 515.556 154.42 515.615 154.347 515.688C153.848 516.172 153.357 516.707 152.873 517.294C152.404 517.881 152.03 518.555 151.751 519.318L151.619 519.296ZM148.275 519.296C148.334 518.959 148.414 518.599 148.517 518.218C148.62 517.837 148.722 517.47 148.825 517.118C148.942 516.751 149.06 516.407 149.177 516.084C149.294 515.761 149.404 515.49 149.507 515.27C149.404 515.05 149.294 514.779 149.177 514.456C149.06 514.133 148.942 513.796 148.825 513.444C148.722 513.077 148.62 512.703 148.517 512.322C148.414 511.941 148.334 511.581 148.275 511.244L148.407 511.222C148.686 511.985 149.06 512.659 149.529 513.246C150.013 513.833 150.504 514.368 151.003 514.852C151.076 514.925 151.135 514.991 151.179 515.05C151.238 515.094 151.267 515.167 151.267 515.27C151.267 515.373 151.238 515.453 151.179 515.512C151.135 515.556 151.076 515.615 151.003 515.688C150.504 516.172 150.013 516.707 149.529 517.294C149.06 517.881 148.686 518.555 148.407 519.318L148.275 519.296ZM169.142 515.138C169.142 515.813 169.025 516.458 168.79 517.074C168.57 517.675 168.248 518.203 167.822 518.658C167.397 519.113 166.884 519.472 166.282 519.736C165.681 520 165.006 520.132 164.258 520.132C163.276 520.132 162.484 519.941 161.882 519.56C161.296 519.164 161.002 518.592 161.002 517.844C161.002 517.433 161.112 517.111 161.332 516.876C161.552 516.627 161.838 516.502 162.19 516.502C162.513 516.502 162.755 516.597 162.916 516.788C163.078 516.979 163.158 517.228 163.158 517.536C163.158 517.785 163.107 518.02 163.004 518.24C162.916 518.46 162.872 518.68 162.872 518.9C162.872 519.589 163.334 519.934 164.258 519.934C164.684 519.934 165.036 519.802 165.314 519.538C165.593 519.259 165.813 518.9 165.974 518.46C166.136 518.02 166.246 517.529 166.304 516.986C166.363 516.429 166.392 515.871 166.392 515.314V515.27H163.444V515.05H166.392C166.378 514.463 166.334 513.906 166.26 513.378C166.202 512.835 166.084 512.359 165.908 511.948C165.747 511.537 165.534 511.215 165.27 510.98C165.006 510.731 164.669 510.606 164.258 510.606C163.584 510.606 163.012 510.885 162.542 511.442C162.308 511.721 162.102 512.058 161.926 512.454C161.75 512.85 161.611 513.305 161.508 513.818H161.31V510.452H161.486C161.516 510.569 161.56 510.665 161.618 510.738C161.692 510.811 161.794 510.848 161.926 510.848C162.132 510.848 162.454 510.775 162.894 510.628C163.334 510.481 163.811 510.408 164.324 510.408C165.116 510.408 165.806 510.54 166.392 510.804C166.994 511.053 167.5 511.391 167.91 511.816C168.321 512.241 168.629 512.747 168.834 513.334C169.04 513.906 169.142 514.507 169.142 515.138ZM177.801 520H172.521V519.78H173.841V510.76H173.291C172.822 510.76 172.426 510.833 172.103 510.98C171.781 511.127 171.517 511.332 171.311 511.596C171.106 511.845 170.937 512.153 170.805 512.52C170.688 512.872 170.593 513.253 170.519 513.664H170.321V510.54H180.001V513.664H179.803C179.73 513.253 179.627 512.872 179.495 512.52C179.378 512.153 179.217 511.845 179.011 511.596C178.806 511.332 178.542 511.127 178.219 510.98C177.897 510.833 177.501 510.76 177.031 510.76H176.481V519.78H177.801V520ZM186.127 520.132C185.261 520.132 184.513 519.985 183.883 519.692C183.267 519.384 182.753 518.995 182.343 518.526C181.947 518.042 181.653 517.514 181.463 516.942C181.272 516.37 181.177 515.813 181.177 515.27C181.177 514.727 181.272 514.17 181.463 513.598C181.653 513.026 181.947 512.505 182.343 512.036C182.753 511.552 183.267 511.163 183.883 510.87C184.513 510.562 185.261 510.408 186.127 510.408C186.992 510.408 187.733 510.562 188.349 510.87C188.979 511.163 189.493 511.552 189.889 512.036C190.299 512.505 190.6 513.026 190.791 513.598C190.981 514.17 191.077 514.727 191.077 515.27C191.077 515.813 190.981 516.37 190.791 516.942C190.6 517.514 190.299 518.042 189.889 518.526C189.493 518.995 188.979 519.384 188.349 519.692C187.733 519.985 186.992 520.132 186.127 520.132ZM186.127 519.956C186.64 519.956 187.043 519.831 187.337 519.582C187.63 519.318 187.85 518.973 187.997 518.548C188.143 518.108 188.231 517.609 188.261 517.052C188.305 516.48 188.327 515.886 188.327 515.27C188.327 514.654 188.305 514.067 188.261 513.51C188.231 512.938 188.143 512.439 187.997 512.014C187.85 511.574 187.63 511.229 187.337 510.98C187.043 510.716 186.64 510.584 186.127 510.584C185.613 510.584 185.21 510.716 184.917 510.98C184.623 511.229 184.403 511.574 184.257 512.014C184.11 512.439 184.015 512.938 183.971 513.51C183.941 514.067 183.927 514.654 183.927 515.27C183.927 515.886 183.941 516.48 183.971 517.052C184.015 517.609 184.11 518.108 184.257 518.548C184.403 518.973 184.623 519.318 184.917 519.582C185.21 519.831 185.613 519.956 186.127 519.956ZM207.034 503.742C207.02 503.933 206.99 504.219 206.946 504.6C206.917 504.967 206.851 505.304 206.748 505.612C206.528 506.257 206.184 506.771 205.714 507.152C205.26 507.519 204.563 507.768 203.624 507.9L202.546 508.054C201.813 508.157 201.16 508.318 200.588 508.538C200.016 508.743 199.525 509.037 199.114 509.418C198.704 509.799 198.388 510.291 198.168 510.892C197.963 511.479 197.86 512.197 197.86 513.048C197.86 513.341 197.86 513.569 197.86 513.73C197.86 513.877 197.875 514.016 197.904 514.148H197.97C198.322 513.004 198.916 512.095 199.752 511.42C200.588 510.745 201.578 510.408 202.722 510.408C203.573 510.408 204.299 510.562 204.9 510.87C205.502 511.163 205.986 511.545 206.352 512.014C206.734 512.469 207.005 512.989 207.166 513.576C207.342 514.148 207.43 514.705 207.43 515.248C207.43 515.791 207.335 516.355 207.144 516.942C206.968 517.514 206.69 518.035 206.308 518.504C205.927 518.973 205.428 519.362 204.812 519.67C204.211 519.978 203.485 520.132 202.634 520.132C200.948 520.132 199.686 519.553 198.85 518.394C198.014 517.235 197.596 515.541 197.596 513.312C197.596 512.241 197.692 511.266 197.882 510.386C198.088 509.491 198.396 508.707 198.806 508.032C199.232 507.357 199.774 506.807 200.434 506.382C201.094 505.942 201.886 505.641 202.81 505.48L204.416 505.216C204.856 505.143 205.216 505.077 205.494 505.018C205.773 504.945 205.993 504.871 206.154 504.798C206.33 504.71 206.462 504.622 206.55 504.534C206.638 504.431 206.704 504.314 206.748 504.182C206.807 504.021 206.844 503.874 206.858 503.742H207.034ZM202.634 519.956C203.089 519.956 203.456 519.831 203.734 519.582C204.013 519.318 204.226 518.973 204.372 518.548C204.519 518.108 204.614 517.609 204.658 517.052C204.702 516.48 204.724 515.886 204.724 515.27C204.724 514.654 204.702 514.067 204.658 513.51C204.629 512.938 204.548 512.439 204.416 512.014C204.284 511.574 204.086 511.229 203.822 510.98C203.558 510.716 203.192 510.584 202.722 510.584C202.297 510.584 201.938 510.716 201.644 510.98C201.351 511.229 201.116 511.574 200.94 512.014C200.764 512.439 200.64 512.938 200.566 513.51C200.493 514.067 200.456 514.654 200.456 515.27C200.456 515.886 200.478 516.48 200.522 517.052C200.566 517.609 200.662 518.108 200.808 518.548C200.97 518.973 201.19 519.318 201.468 519.582C201.762 519.831 202.15 519.956 202.634 519.956ZM215.25 510.54H217.978V510.76H216.922L211.972 523.234C211.649 524.041 211.297 524.62 210.916 524.972C210.535 525.324 210.021 525.5 209.376 525.5C208.672 525.5 208.122 525.317 207.726 524.95C207.33 524.598 207.132 524.121 207.132 523.52C207.132 523.051 207.257 522.677 207.506 522.398C207.741 522.134 208.041 522.002 208.408 522.002C208.775 522.002 209.053 522.119 209.244 522.354C209.435 522.589 209.53 522.875 209.53 523.212C209.53 523.373 209.508 523.513 209.464 523.63C209.42 523.762 209.376 523.879 209.332 523.982C209.288 524.099 209.244 524.209 209.2 524.312C209.156 524.415 209.134 524.525 209.134 524.642C209.134 524.847 209.193 524.987 209.31 525.06C209.427 525.148 209.574 525.192 209.75 525.192C210.205 525.192 210.601 524.979 210.938 524.554C211.275 524.129 211.547 523.652 211.752 523.124L212.83 520.418L209.002 510.76H207.946V510.54H212.962V510.76H211.686L214.128 517.14L216.658 510.76H215.25V510.54ZM223.271 510.76H222.061V515.16H222.831L226.703 510.76H225.273V510.54H228.353V510.76H227.011L224.613 513.466L228.375 519.78H229.431V520H224.327V519.78H225.383L222.831 515.38H222.061V519.78H223.271V520H218.101V519.78H219.421V510.76H218.101V510.54H223.271V510.76ZM234.196 510.54C235.663 510.54 236.748 510.716 237.452 511.068C238.156 511.405 238.508 511.97 238.508 512.762C238.508 513.407 238.222 513.928 237.65 514.324C237.078 514.705 236.316 514.933 235.362 515.006C235.89 515.035 236.367 515.101 236.792 515.204C237.232 515.307 237.606 515.453 237.914 515.644C238.237 515.835 238.486 516.069 238.662 516.348C238.838 516.612 238.926 516.935 238.926 517.316C238.926 518.152 238.552 518.812 237.804 519.296C237.071 519.765 235.876 520 234.218 520H229.444V519.78H230.764V510.76H229.444V510.54H234.196ZM233.404 515.16V519.78H234.218C235.025 519.78 235.59 519.56 235.912 519.12C236.25 518.665 236.418 518.093 236.418 517.404C236.418 516.759 236.235 516.223 235.868 515.798C235.516 515.373 234.915 515.16 234.064 515.16H233.404ZM233.404 510.76V514.94H234.108C234.783 514.94 235.267 514.742 235.56 514.346C235.868 513.935 236.022 513.422 236.022 512.806C236.022 511.442 235.392 510.76 234.13 510.76H233.404ZM242.92 520.132C241.996 520.132 241.314 519.927 240.874 519.516C240.434 519.105 240.214 518.533 240.214 517.8C240.214 516.891 240.566 516.209 241.27 515.754C241.974 515.285 243.081 515.05 244.592 515.05H245.516V513.642C245.516 513.07 245.494 512.593 245.45 512.212C245.406 511.816 245.325 511.508 245.208 511.288C245.105 511.053 244.951 510.885 244.746 510.782C244.54 510.679 244.284 510.628 243.976 510.628C243.594 510.628 243.279 510.709 243.03 510.87C242.78 511.017 242.656 511.288 242.656 511.684C242.656 511.933 242.692 512.139 242.766 512.3C242.854 512.447 242.898 512.637 242.898 512.872C242.898 513.165 242.802 513.415 242.612 513.62C242.436 513.825 242.164 513.928 241.798 513.928C241.094 513.928 240.742 513.547 240.742 512.784C240.742 512.036 241.079 511.457 241.754 511.046C242.428 510.621 243.323 510.408 244.438 510.408C244.848 510.408 245.274 510.452 245.714 510.54C246.154 510.628 246.557 510.811 246.924 511.09C247.29 511.369 247.584 511.772 247.804 512.3C248.038 512.828 248.156 513.525 248.156 514.39V518.79C248.156 519.479 248.368 519.824 248.794 519.824C249.043 519.824 249.241 519.736 249.388 519.56C249.549 519.384 249.674 519.171 249.762 518.922L249.938 518.988C249.82 519.325 249.637 519.604 249.388 519.824C249.153 520.029 248.72 520.132 248.09 520.132C247.371 520.132 246.777 519.963 246.308 519.626C245.853 519.289 245.626 518.687 245.626 517.822V517.712H245.582C245.42 518.621 245.127 519.252 244.702 519.604C244.276 519.956 243.682 520.132 242.92 520.132ZM243.778 519.692C244.144 519.692 244.438 519.567 244.658 519.318C244.892 519.069 245.068 518.753 245.186 518.372C245.318 517.991 245.406 517.573 245.45 517.118C245.494 516.649 245.516 516.194 245.516 515.754V515.27H244.856C244.108 515.27 243.558 515.483 243.206 515.908C242.854 516.333 242.678 516.986 242.678 517.866C242.678 518.409 242.751 518.849 242.898 519.186C243.059 519.523 243.352 519.692 243.778 519.692ZM261.612 519.318C261.334 518.555 260.952 517.881 260.468 517.294C259.999 516.707 259.515 516.172 259.016 515.688C258.943 515.615 258.877 515.556 258.818 515.512C258.774 515.453 258.752 515.373 258.752 515.27C258.752 515.167 258.774 515.094 258.818 515.05C258.877 514.991 258.943 514.925 259.016 514.852C259.515 514.368 259.999 513.833 260.468 513.246C260.952 512.659 261.334 511.985 261.612 511.222L261.744 511.244C261.671 511.581 261.583 511.941 261.48 512.322C261.392 512.703 261.29 513.077 261.172 513.444C261.07 513.796 260.96 514.133 260.842 514.456C260.725 514.779 260.615 515.05 260.512 515.27C260.615 515.49 260.725 515.761 260.842 516.084C260.96 516.407 261.07 516.751 261.172 517.118C261.29 517.47 261.392 517.837 261.48 518.218C261.583 518.599 261.671 518.959 261.744 519.296L261.612 519.318ZM258.268 519.318C257.99 518.555 257.608 517.881 257.124 517.294C256.655 516.707 256.171 516.172 255.672 515.688C255.599 515.615 255.533 515.556 255.474 515.512C255.43 515.453 255.408 515.373 255.408 515.27C255.408 515.167 255.43 515.094 255.474 515.05C255.533 514.991 255.599 514.925 255.672 514.852C256.171 514.368 256.655 513.833 257.124 513.246C257.608 512.659 257.99 511.985 258.268 511.222L258.4 511.244C258.327 511.581 258.239 511.941 258.136 512.322C258.048 512.703 257.946 513.077 257.828 513.444C257.726 513.796 257.616 514.133 257.498 514.456C257.381 514.779 257.271 515.05 257.168 515.27C257.271 515.49 257.381 515.761 257.498 516.084C257.616 516.407 257.726 516.751 257.828 517.118C257.946 517.47 258.048 517.837 258.136 518.218C258.239 518.599 258.327 518.959 258.4 519.296L258.268 519.318ZM273.357 503.742C273.342 503.933 273.313 504.219 273.269 504.6C273.239 504.967 273.173 505.304 273.071 505.612C272.851 506.257 272.506 506.771 272.037 507.152C271.582 507.519 270.885 507.768 269.947 507.9L268.869 508.054C268.135 508.157 267.483 508.318 266.911 508.538C266.339 508.743 265.847 509.037 265.437 509.418C265.026 509.799 264.711 510.291 264.491 510.892C264.285 511.479 264.183 512.197 264.183 513.048C264.183 513.341 264.183 513.569 264.183 513.73C264.183 513.877 264.197 514.016 264.227 514.148H264.293C264.645 513.004 265.239 512.095 266.075 511.42C266.911 510.745 267.901 510.408 269.045 510.408C269.895 510.408 270.621 510.562 271.223 510.87C271.824 511.163 272.308 511.545 272.675 512.014C273.056 512.469 273.327 512.989 273.489 513.576C273.665 514.148 273.753 514.705 273.753 515.248C273.753 515.791 273.657 516.355 273.467 516.942C273.291 517.514 273.012 518.035 272.631 518.504C272.249 518.973 271.751 519.362 271.135 519.67C270.533 519.978 269.807 520.132 268.957 520.132C267.27 520.132 266.009 519.553 265.173 518.394C264.337 517.235 263.919 515.541 263.919 513.312C263.919 512.241 264.014 511.266 264.205 510.386C264.41 509.491 264.718 508.707 265.129 508.032C265.554 507.357 266.097 506.807 266.757 506.382C267.417 505.942 268.209 505.641 269.133 505.48L270.739 505.216C271.179 505.143 271.538 505.077 271.817 505.018C272.095 504.945 272.315 504.871 272.477 504.798C272.653 504.71 272.785 504.622 272.873 504.534C272.961 504.431 273.027 504.314 273.071 504.182C273.129 504.021 273.166 503.874 273.181 503.742H273.357ZM268.957 519.956C269.411 519.956 269.778 519.831 270.057 519.582C270.335 519.318 270.548 518.973 270.695 518.548C270.841 518.108 270.937 517.609 270.981 517.052C271.025 516.48 271.047 515.886 271.047 515.27C271.047 514.654 271.025 514.067 270.981 513.51C270.951 512.938 270.871 512.439 270.739 512.014C270.607 511.574 270.409 511.229 270.145 510.98C269.881 510.716 269.514 510.584 269.045 510.584C268.619 510.584 268.26 510.716 267.967 510.98C267.673 511.229 267.439 511.574 267.263 512.014C267.087 512.439 266.962 512.938 266.889 513.51C266.815 514.067 266.779 514.654 266.779 515.27C266.779 515.886 266.801 516.48 266.845 517.052C266.889 517.609 266.984 518.108 267.131 518.548C267.292 518.973 267.512 519.318 267.791 519.582C268.084 519.831 268.473 519.956 268.957 519.956ZM279.064 519.296C279.123 518.959 279.204 518.599 279.306 518.218C279.409 517.837 279.512 517.47 279.614 517.118C279.732 516.751 279.849 516.407 279.966 516.084C280.084 515.761 280.194 515.49 280.296 515.27C280.194 515.05 280.084 514.779 279.966 514.456C279.849 514.133 279.732 513.796 279.614 513.444C279.512 513.077 279.409 512.703 279.306 512.322C279.204 511.941 279.123 511.581 279.064 511.244L279.196 511.222C279.475 511.985 279.849 512.659 280.318 513.246C280.802 513.833 281.294 514.368 281.792 514.852C281.866 514.925 281.924 514.991 281.968 515.05C282.027 515.094 282.056 515.167 282.056 515.27C282.056 515.373 282.027 515.453 281.968 515.512C281.924 515.556 281.866 515.615 281.792 515.688C281.294 516.172 280.802 516.707 280.318 517.294C279.849 517.881 279.475 518.555 279.196 519.318L279.064 519.296ZM275.72 519.296C275.779 518.959 275.86 518.599 275.962 518.218C276.065 517.837 276.168 517.47 276.27 517.118C276.388 516.751 276.505 516.407 276.622 516.084C276.74 515.761 276.85 515.49 276.952 515.27C276.85 515.05 276.74 514.779 276.622 514.456C276.505 514.133 276.388 513.796 276.27 513.444C276.168 513.077 276.065 512.703 275.962 512.322C275.86 511.941 275.779 511.581 275.72 511.244L275.852 511.222C276.131 511.985 276.505 512.659 276.974 513.246C277.458 513.833 277.95 514.368 278.448 514.852C278.522 514.925 278.58 514.991 278.624 515.05C278.683 515.094 278.712 515.167 278.712 515.27C278.712 515.373 278.683 515.453 278.624 515.512C278.58 515.556 278.522 515.615 278.448 515.688C277.95 516.172 277.458 516.707 276.974 517.294C276.505 517.881 276.131 518.555 275.852 519.318L275.72 519.296ZM298.15 503.742C298.135 503.933 298.106 504.219 298.062 504.6C298.032 504.967 297.966 505.304 297.864 505.612C297.644 506.257 297.299 506.771 296.83 507.152C296.375 507.519 295.678 507.768 294.74 507.9L293.662 508.054C292.928 508.157 292.276 508.318 291.704 508.538C291.132 508.743 290.64 509.037 290.23 509.418C289.819 509.799 289.504 510.291 289.284 510.892C289.078 511.479 288.976 512.197 288.976 513.048C288.976 513.341 288.976 513.569 288.976 513.73C288.976 513.877 288.99 514.016 289.02 514.148H289.086C289.438 513.004 290.032 512.095 290.868 511.42C291.704 510.745 292.694 510.408 293.838 510.408C294.688 510.408 295.414 510.562 296.016 510.87C296.617 511.163 297.101 511.545 297.468 512.014C297.849 512.469 298.12 512.989 298.282 513.576C298.458 514.148 298.546 514.705 298.546 515.248C298.546 515.791 298.45 516.355 298.26 516.942C298.084 517.514 297.805 518.035 297.424 518.504C297.042 518.973 296.544 519.362 295.928 519.67C295.326 519.978 294.6 520.132 293.75 520.132C292.063 520.132 290.802 519.553 289.966 518.394C289.13 517.235 288.712 515.541 288.712 513.312C288.712 512.241 288.807 511.266 288.998 510.386C289.203 509.491 289.511 508.707 289.922 508.032C290.347 507.357 290.89 506.807 291.55 506.382C292.21 505.942 293.002 505.641 293.926 505.48L295.532 505.216C295.972 505.143 296.331 505.077 296.61 505.018C296.888 504.945 297.108 504.871 297.27 504.798C297.446 504.71 297.578 504.622 297.666 504.534C297.754 504.431 297.82 504.314 297.864 504.182C297.922 504.021 297.959 503.874 297.974 503.742H298.15ZM293.75 519.956C294.204 519.956 294.571 519.831 294.85 519.582C295.128 519.318 295.341 518.973 295.488 518.548C295.634 518.108 295.73 517.609 295.774 517.052C295.818 516.48 295.84 515.886 295.84 515.27C295.84 514.654 295.818 514.067 295.774 513.51C295.744 512.938 295.664 512.439 295.532 512.014C295.4 511.574 295.202 511.229 294.938 510.98C294.674 510.716 294.307 510.584 293.838 510.584C293.412 510.584 293.053 510.716 292.76 510.98C292.466 511.229 292.232 511.574 292.056 512.014C291.88 512.439 291.755 512.938 291.682 513.51C291.608 514.067 291.572 514.654 291.572 515.27C291.572 515.886 291.594 516.48 291.638 517.052C291.682 517.609 291.777 518.108 291.924 518.548C292.085 518.973 292.305 519.318 292.584 519.582C292.877 519.831 293.266 519.956 293.75 519.956ZM305.111 520.132C304.261 520.132 303.513 520 302.867 519.736C302.237 519.472 301.709 519.12 301.283 518.68C300.858 518.24 300.535 517.734 300.315 517.162C300.11 516.575 300.007 515.959 300.007 515.314C300.007 514.727 300.095 514.148 300.271 513.576C300.462 512.989 300.748 512.461 301.129 511.992C301.511 511.523 301.995 511.141 302.581 510.848C303.168 510.555 303.872 510.408 304.693 510.408C305.441 510.408 306.079 510.533 306.607 510.782C307.15 511.017 307.59 511.339 307.927 511.75C308.279 512.161 308.529 512.63 308.675 513.158C308.837 513.686 308.917 514.243 308.917 514.83H302.757V515.292C302.757 515.981 302.787 516.612 302.845 517.184C302.904 517.741 303.021 518.218 303.197 518.614C303.388 519.01 303.652 519.318 303.989 519.538C304.341 519.758 304.811 519.868 305.397 519.868C305.925 519.868 306.373 519.795 306.739 519.648C307.121 519.487 307.436 519.289 307.685 519.054C307.949 518.819 308.155 518.57 308.301 518.306C308.463 518.042 308.58 517.8 308.653 517.58L308.873 517.668C308.756 517.976 308.602 518.277 308.411 518.57C308.235 518.863 307.993 519.127 307.685 519.362C307.392 519.597 307.033 519.787 306.607 519.934C306.182 520.066 305.683 520.132 305.111 520.132ZM304.517 510.584C304.18 510.584 303.894 510.694 303.659 510.914C303.439 511.119 303.263 511.405 303.131 511.772C302.999 512.124 302.904 512.549 302.845 513.048C302.801 513.532 302.772 514.053 302.757 514.61H306.321C306.321 514.214 306.299 513.781 306.255 513.312C306.211 512.843 306.123 512.41 305.991 512.014C305.874 511.603 305.698 511.266 305.463 511.002C305.229 510.723 304.913 510.584 304.517 510.584ZM313.118 514.852C313.822 514.852 314.343 514.639 314.68 514.214C315.017 513.789 315.186 513.29 315.186 512.718C315.186 512.117 315.061 511.611 314.812 511.2C314.563 510.789 314.174 510.584 313.646 510.584C313.265 510.584 312.905 510.679 312.568 510.87C312.245 511.046 311.967 511.288 311.732 511.596C311.307 512.139 310.999 512.879 310.808 513.818H310.61V510.452H310.786C310.815 510.555 310.859 510.643 310.918 510.716C310.977 510.789 311.072 510.826 311.204 510.826C311.497 510.826 311.857 510.76 312.282 510.628C312.707 510.481 313.184 510.408 313.712 510.408C314.284 510.408 314.805 510.459 315.274 510.562C315.758 510.665 316.169 510.811 316.506 511.002C316.858 511.193 317.129 511.435 317.32 511.728C317.511 512.007 317.606 512.329 317.606 512.696C317.606 513.356 317.327 513.877 316.77 514.258C316.227 514.639 315.406 514.867 314.306 514.94C315.435 515.013 316.323 515.241 316.968 515.622C317.628 516.003 317.958 516.583 317.958 517.36C317.958 517.8 317.841 518.196 317.606 518.548C317.371 518.885 317.056 519.171 316.66 519.406C316.264 519.641 315.795 519.824 315.252 519.956C314.709 520.073 314.13 520.132 313.514 520.132C313.015 520.132 312.553 520.088 312.128 520C311.703 519.897 311.329 519.751 311.006 519.56C310.698 519.369 310.449 519.135 310.258 518.856C310.082 518.563 309.994 518.233 309.994 517.866C309.994 517.455 310.097 517.125 310.302 516.876C310.507 516.612 310.801 516.48 311.182 516.48C311.519 516.48 311.769 516.583 311.93 516.788C312.091 516.993 312.172 517.235 312.172 517.514C312.172 517.763 312.121 517.991 312.018 518.196C311.93 518.401 311.886 518.614 311.886 518.834C311.886 519.171 312.018 519.443 312.282 519.648C312.561 519.853 312.971 519.956 313.514 519.956C313.866 519.956 314.167 519.89 314.416 519.758C314.665 519.611 314.871 519.428 315.032 519.208C315.193 518.973 315.311 518.702 315.384 518.394C315.457 518.086 315.494 517.756 315.494 517.404C315.494 516.656 315.289 516.084 314.878 515.688C314.482 515.277 313.888 515.072 313.096 515.072H312.634V514.852H313.118ZM329.17 520.132C328.304 520.132 327.556 519.985 326.926 519.692C326.31 519.384 325.796 518.995 325.386 518.526C324.99 518.042 324.696 517.514 324.506 516.942C324.315 516.37 324.22 515.813 324.22 515.27C324.22 514.727 324.315 514.17 324.506 513.598C324.696 513.026 324.99 512.505 325.386 512.036C325.796 511.552 326.31 511.163 326.926 510.87C327.556 510.562 328.304 510.408 329.17 510.408C330.035 510.408 330.776 510.562 331.392 510.87C332.022 511.163 332.536 511.552 332.932 512.036C333.342 512.505 333.643 513.026 333.834 513.598C334.024 514.17 334.12 514.727 334.12 515.27C334.12 515.813 334.024 516.37 333.834 516.942C333.643 517.514 333.342 518.042 332.932 518.526C332.536 518.995 332.022 519.384 331.392 519.692C330.776 519.985 330.035 520.132 329.17 520.132ZM329.17 519.956C329.683 519.956 330.086 519.831 330.38 519.582C330.673 519.318 330.893 518.973 331.04 518.548C331.186 518.108 331.274 517.609 331.304 517.052C331.348 516.48 331.37 515.886 331.37 515.27C331.37 514.654 331.348 514.067 331.304 513.51C331.274 512.938 331.186 512.439 331.04 512.014C330.893 511.574 330.673 511.229 330.38 510.98C330.086 510.716 329.683 510.584 329.17 510.584C328.656 510.584 328.253 510.716 327.96 510.98C327.666 511.229 327.446 511.574 327.3 512.014C327.153 512.439 327.058 512.938 327.014 513.51C326.984 514.067 326.97 514.654 326.97 515.27C326.97 515.886 326.984 516.48 327.014 517.052C327.058 517.609 327.153 518.108 327.3 518.548C327.446 518.973 327.666 519.318 327.96 519.582C328.253 519.831 328.656 519.956 329.17 519.956ZM340.36 510.76H339.15V515.16H339.92L343.792 510.76H342.362V510.54H345.442V510.76H344.1L341.702 513.466L345.464 519.78H346.52V520H341.416V519.78H342.472L339.92 515.38H339.15V519.78H340.36V520H335.19V519.78H336.51V510.76H335.19V510.54H340.36V510.76ZM346.424 510.54H350.34V513.136H350.384C350.487 512.769 350.611 512.417 350.758 512.08C350.919 511.743 351.117 511.457 351.352 511.222C351.601 510.973 351.895 510.775 352.232 510.628C352.584 510.481 353.009 510.408 353.508 510.408C354.124 510.408 354.689 510.525 355.202 510.76C355.73 510.98 356.177 511.295 356.544 511.706C356.925 512.117 357.219 512.608 357.424 513.18C357.644 513.752 357.754 514.375 357.754 515.05C357.754 515.739 357.644 516.392 357.424 517.008C357.219 517.609 356.925 518.145 356.544 518.614C356.177 519.083 355.723 519.457 355.18 519.736C354.652 520 354.073 520.132 353.442 520.132C352.973 520.132 352.569 520.059 352.232 519.912C351.895 519.765 351.609 519.575 351.374 519.34C351.139 519.105 350.949 518.834 350.802 518.526C350.655 518.218 350.531 517.895 350.428 517.558H350.384V525.148H351.704V525.368H346.424V525.148H347.744V510.76H346.424V510.54ZM352.958 519.802C353.369 519.802 353.706 519.67 353.97 519.406C354.234 519.142 354.439 518.797 354.586 518.372C354.747 517.947 354.857 517.463 354.916 516.92C354.975 516.377 355.004 515.827 355.004 515.27C355.004 514.713 354.975 514.163 354.916 513.62C354.857 513.077 354.747 512.593 354.586 512.168C354.439 511.743 354.234 511.398 353.97 511.134C353.706 510.87 353.369 510.738 352.958 510.738C352.21 510.738 351.594 511.127 351.11 511.904C350.626 512.681 350.384 513.752 350.384 515.116V515.424C350.384 516.788 350.626 517.859 351.11 518.636C351.594 519.413 352.21 519.802 352.958 519.802ZM365.576 510.54H368.304V510.76H367.248L362.298 523.234C361.976 524.041 361.624 524.62 361.242 524.972C360.861 525.324 360.348 525.5 359.702 525.5C358.998 525.5 358.448 525.317 358.052 524.95C357.656 524.598 357.458 524.121 357.458 523.52C357.458 523.051 357.583 522.677 357.832 522.398C358.067 522.134 358.368 522.002 358.734 522.002C359.101 522.002 359.38 522.119 359.57 522.354C359.761 522.589 359.856 522.875 359.856 523.212C359.856 523.373 359.834 523.513 359.79 523.63C359.746 523.762 359.702 523.879 359.658 523.982C359.614 524.099 359.57 524.209 359.526 524.312C359.482 524.415 359.46 524.525 359.46 524.642C359.46 524.847 359.519 524.987 359.636 525.06C359.754 525.148 359.9 525.192 360.076 525.192C360.531 525.192 360.927 524.979 361.264 524.554C361.602 524.129 361.873 523.652 362.078 523.124L363.156 520.418L359.328 510.76H358.272V510.54H363.288V510.76H362.012L364.454 517.14L366.984 510.76H365.576V510.54ZM373.707 520H368.427V519.78H369.747V510.76H368.427V510.54H376.633V513.444H376.435C376.376 513.077 376.288 512.733 376.171 512.41C376.053 512.087 375.885 511.809 375.665 511.574C375.459 511.325 375.195 511.127 374.873 510.98C374.55 510.833 374.147 510.76 373.663 510.76H372.387V519.78H373.707V520ZM387.148 520H381.868V519.78H383.188V510.76H380.372C380.372 511.728 380.364 512.615 380.35 513.422C380.335 514.229 380.291 515.043 380.218 515.864C380.174 516.333 380.115 516.825 380.042 517.338C379.968 517.837 379.851 518.299 379.69 518.724C379.543 519.135 379.33 519.472 379.052 519.736C378.788 520 378.45 520.132 378.04 520.132C377.57 520.132 377.174 519.985 376.852 519.692C376.544 519.384 376.39 518.988 376.39 518.504C376.39 518.064 376.507 517.719 376.742 517.47C376.976 517.221 377.262 517.096 377.6 517.096C377.893 517.096 378.113 517.184 378.26 517.36C378.406 517.521 378.48 517.741 378.48 518.02C378.48 518.181 378.458 518.321 378.414 518.438C378.37 518.555 378.318 518.673 378.26 518.79C378.201 518.907 378.15 519.025 378.106 519.142C378.062 519.259 378.04 519.384 378.04 519.516C378.04 519.633 378.069 519.714 378.128 519.758C378.186 519.787 378.252 519.802 378.326 519.802C378.634 519.802 378.89 519.655 379.096 519.362C379.316 519.054 379.492 518.673 379.624 518.218C379.741 517.851 379.822 517.463 379.866 517.052C379.924 516.641 379.968 516.223 379.998 515.798C380.056 514.991 380.093 514.192 380.108 513.4C380.122 512.608 380.13 511.728 380.13 510.76H378.81V510.54H387.148V510.76H385.828V519.78H387.148V520ZM393.326 520.132C392.475 520.132 391.727 520 391.082 519.736C390.451 519.472 389.923 519.12 389.498 518.68C389.073 518.24 388.75 517.734 388.53 517.162C388.325 516.575 388.222 515.959 388.222 515.314C388.222 514.727 388.31 514.148 388.486 513.576C388.677 512.989 388.963 512.461 389.344 511.992C389.725 511.523 390.209 511.141 390.796 510.848C391.383 510.555 392.087 510.408 392.908 510.408C393.656 510.408 394.294 510.533 394.822 510.782C395.365 511.017 395.805 511.339 396.142 511.75C396.494 512.161 396.743 512.63 396.89 513.158C397.051 513.686 397.132 514.243 397.132 514.83H390.972V515.292C390.972 515.981 391.001 516.612 391.06 517.184C391.119 517.741 391.236 518.218 391.412 518.614C391.603 519.01 391.867 519.318 392.204 519.538C392.556 519.758 393.025 519.868 393.612 519.868C394.14 519.868 394.587 519.795 394.954 519.648C395.335 519.487 395.651 519.289 395.9 519.054C396.164 518.819 396.369 518.57 396.516 518.306C396.677 518.042 396.795 517.8 396.868 517.58L397.088 517.668C396.971 517.976 396.817 518.277 396.626 518.57C396.45 518.863 396.208 519.127 395.9 519.362C395.607 519.597 395.247 519.787 394.822 519.934C394.397 520.066 393.898 520.132 393.326 520.132ZM392.732 510.584C392.395 510.584 392.109 510.694 391.874 510.914C391.654 511.119 391.478 511.405 391.346 511.772C391.214 512.124 391.119 512.549 391.06 513.048C391.016 513.532 390.987 514.053 390.972 514.61H394.536C394.536 514.214 394.514 513.781 394.47 513.312C394.426 512.843 394.338 512.41 394.206 512.014C394.089 511.603 393.913 511.266 393.678 511.002C393.443 510.723 393.128 510.584 392.732 510.584ZM403.247 520H398.011V519.78H399.331V510.76H398.011V510.54H403.291V510.76H401.971V515.116H405.425V510.76H404.105V510.54H409.385V510.76H408.065V519.78H409.385V520H404.149V519.78H405.425V515.336H401.971V519.78H403.247V520ZM415.408 510.76H414.088V519.472L417.586 510.54H421.568V510.76H420.248V519.78H421.568V520H416.288V519.78H417.608V511.112L414.11 520H410.128V519.78H411.448V510.76H410.128V510.54H415.408V510.76ZM432.958 520H427.678V519.78H428.998V515.534H428.404C428.11 515.534 427.861 515.563 427.656 515.622C427.45 515.681 427.274 515.783 427.128 515.93C426.981 516.062 426.856 516.253 426.754 516.502C426.666 516.751 426.585 517.067 426.512 517.448L426.38 518.152C426.262 518.812 426.028 519.311 425.676 519.648C425.338 519.971 424.825 520.132 424.136 520.132C423.754 520.132 423.351 520.059 422.926 519.912C422.5 519.765 422.148 519.479 421.87 519.054L422.024 518.922C422.273 519.318 422.552 519.516 422.86 519.516C423.094 519.516 423.278 519.428 423.41 519.252C423.556 519.061 423.659 518.827 423.718 518.548L423.85 517.91C423.952 517.397 424.106 516.986 424.312 516.678C424.517 516.355 424.766 516.113 425.06 515.952C425.353 515.776 425.69 515.651 426.072 515.578C426.468 515.505 426.908 515.453 427.392 515.424C426.204 515.38 425.287 515.182 424.642 514.83C424.011 514.463 423.696 513.884 423.696 513.092C423.696 512.623 423.806 512.227 424.026 511.904C424.26 511.567 424.576 511.303 424.972 511.112C425.382 510.907 425.859 510.76 426.402 510.672C426.944 510.584 427.531 510.54 428.162 510.54H432.958V510.76H431.638V519.78H432.958V520ZM426.204 513.07C426.204 513.759 426.387 514.309 426.754 514.72C427.12 515.116 427.685 515.314 428.448 515.314H428.998V510.76H428.272C427.626 510.76 427.12 510.943 426.754 511.31C426.387 511.662 426.204 512.249 426.204 513.07Z" fill="#444444"/>
<path d="M306.295 105.588H303.923C303.291 98.6301 301.867 92.2258 299.654 86.3749C297.598 80.366 294.435 75.2267 290.166 70.9572C286.054 66.5295 280.836 63.1297 274.511 60.7578C268.344 58.2277 260.833 56.9626 251.977 56.9626H234.425V127.884C236.638 127.568 239.01 127.331 241.541 127.173C244.229 127.015 247.075 126.936 250.08 126.936C259.567 126.936 268.423 127.805 276.646 129.545C284.868 131.126 292.063 133.814 298.23 137.609C304.398 141.246 309.221 145.99 312.699 151.841C316.178 157.534 317.918 164.492 317.918 172.714C317.918 180.779 316.178 187.974 312.699 194.299C309.379 200.466 304.556 205.685 298.23 209.954C292.063 214.224 284.552 217.465 275.697 219.679C266.841 221.893 256.879 223 245.81 223H184.139V220.628H202.64V56.9626H184.139V54.5906H306.295V105.588ZM245.81 129.545C241.699 129.545 237.904 129.782 234.425 130.256V220.628H243.438C251.503 220.628 258.144 219.442 263.363 217.07C268.581 214.54 272.692 211.219 275.697 207.108C278.859 202.838 280.994 197.857 282.101 192.164C283.366 186.472 283.999 180.384 283.999 173.9C283.999 167.259 283.366 161.25 282.101 155.873C280.836 150.339 278.701 145.674 275.697 141.879C272.692 137.926 268.739 134.921 263.837 132.865C259.093 130.652 253.084 129.545 245.81 129.545Z" fill="black"/>
<path d="M258.783 223H185.252V220.628H203.753V56.9626H185.252V54.5906H302.901V105.588H300.529C299.897 98.6301 298.474 92.2258 296.26 86.3749C294.046 80.366 290.883 75.2267 286.772 70.9572C282.661 66.5295 277.442 63.1297 271.117 60.7578C264.792 58.2277 257.202 56.9626 248.346 56.9626H235.538V220.628H258.783V223Z" fill="#D33A27"/>
</svg>
