<svg width="47" height="47" viewBox="0 0 47 47" fill="none" xmlns="http://www.w3.org/2000/svg">
<path d="M44.8344 23.3297C44.8344 23.815 44.8344 24.3004 44.7796 24.7779C44.411 30.3462 41.8913 35.553 37.7534 39.2973C33.6154 43.0415 28.1834 45.0298 22.606 44.8418C17.0287 44.6537 11.743 42.304 7.86669 38.2894C3.99034 34.2749 1.82716 28.9102 1.8345 23.3297C1.83272 22.1705 1.92697 21.0132 2.1163 19.8696C2.97685 14.5311 5.81782 9.713 10.0728 6.37595C14.3277 3.03891 19.684 1.42809 25.0738 1.86464C30.4636 2.3012 35.4909 4.75307 39.1534 8.73139C42.8158 12.7097 44.8443 17.9222 44.8344 23.3297V23.3297Z" stroke="#444444" stroke-width="3.3" stroke-linecap="round" stroke-linejoin="round"/>
<path d="M38.0395 7.64988C33.6057 12.6009 27.971 16.3261 21.6789 18.4665C15.3868 20.6068 8.64938 21.09 2.11621 19.8696C2.74074 16.0209 4.40066 12.4147 6.91811 9.43733C9.43556 6.45996 12.7157 4.22364 16.407 2.968C20.0982 1.71237 24.0616 1.48473 27.8724 2.30949C31.6832 3.13424 35.1978 4.98031 38.0395 7.64988V7.64988Z" stroke="#444444" stroke-width="3.3" stroke-linecap="round" stroke-linejoin="round"/>
<path d="M31.7771 43.103C28.5069 44.4939 24.9431 45.0534 21.404 44.7314C17.8649 44.4094 14.4607 43.2159 11.4952 41.2576C8.52981 39.2992 6.09551 36.6369 4.40975 33.5085C2.72398 30.38 1.83924 26.8828 1.8345 23.3291C1.83272 22.1699 1.92697 21.0126 2.1163 19.8691C2.70146 16.2874 4.18231 12.9116 6.4213 10.0554C8.66028 7.19923 11.5848 4.95519 14.9231 3.53174C18.5189 7.84061 21.6175 12.5411 24.1603 17.5441C25.2979 19.7757 26.3195 22.0646 27.2211 24.4015C29.5472 30.4105 31.0788 36.6975 31.7771 43.103Z" stroke="#444444" stroke-width="3.3" stroke-linecap="round" stroke-linejoin="round"/>
<path d="M44.7798 24.7779C44.5042 28.8696 43.0636 32.797 40.6279 36.0964C38.1923 39.3958 34.8633 41.9292 31.0342 43.3977C27.2052 44.8661 23.0358 45.2081 19.0186 44.3834C15.0014 43.5586 11.3041 41.6015 8.36328 38.7432C12.5322 31.6809 19.3019 26.5328 27.2213 24.4021C29.8675 23.6852 32.5975 23.3246 35.339 23.3296C38.5414 23.3278 41.7252 23.8162 44.7798 24.7779V24.7779Z" stroke="#444444" stroke-width="3.3" stroke-linecap="round" stroke-linejoin="round"/>
</svg>
