<svg width="1250" height="974" viewBox="0 0 1250 974" fill="none" xmlns="http://www.w3.org/2000/svg">
<path d="M1248.39 114.884H2V198.706H1248.39V114.884Z" fill="white" stroke="#1C1C1C" stroke-width="2.06457"/>
<path d="M18.5824 36.929V28.7553H53.9613V36.929H40.6637V66.3301H50.0574L74.8226 36.929H65.5509V28.7553H94.952V36.929H84.3383L56.8892 68.526L88.1202 107.199H99.2218V115.372H62.623V107.199H77.7505L50.4234 73.7718H40.6637V107.199H53.9613V115.372H18.5824V107.199H31.88V36.929H18.5824Z" fill="#1C1C1C"/>
<path d="M179.145 115.778C174.672 115.778 170.93 114.965 167.921 113.338C164.912 111.63 162.472 109.475 160.601 106.872C158.812 104.188 157.511 101.26 156.697 98.0884C155.966 94.9165 155.6 91.826 155.6 88.8167C155.6 85.8075 155.966 82.7169 156.697 79.545C157.511 76.3731 158.812 73.4859 160.601 70.8833C162.472 68.1994 164.912 66.0441 167.921 64.4175C170.93 62.7096 174.672 61.8556 179.145 61.8556C183.618 61.8556 187.359 62.7096 190.368 64.4175C193.459 66.0441 195.899 68.1994 197.688 70.8833C199.559 73.4859 200.86 76.3731 201.592 79.545C202.405 82.7169 202.812 85.8075 202.812 88.8167C202.812 91.826 202.405 94.9165 201.592 98.0884C200.86 101.26 199.559 104.188 197.688 106.872C195.899 109.475 193.459 111.63 190.368 113.338C187.359 114.965 183.618 115.778 179.145 115.778ZM179.145 102.968C181.91 102.968 184.635 102.806 187.319 102.48C190.002 102.074 192.402 101.382 194.516 100.406C196.631 99.3491 198.339 97.9258 199.64 96.1365C201.023 94.2659 201.714 91.826 201.714 88.8167C201.714 85.8075 201.023 83.4082 199.64 81.619C198.339 79.7484 196.631 78.3251 194.516 77.3491C192.402 76.2918 190.002 75.6005 187.319 75.2752C184.635 74.8685 181.91 74.6652 179.145 74.6652C176.461 74.6652 173.736 74.8685 170.971 75.2752C168.287 75.6005 165.888 76.2918 163.773 77.3491C161.659 78.3251 159.91 79.7484 158.527 81.619C157.226 83.4082 156.576 85.8075 156.576 88.8167C156.576 91.826 157.226 94.2659 158.527 96.1365C159.91 97.9258 161.659 99.3491 163.773 100.406C165.888 101.382 168.287 102.074 170.971 102.48C173.736 102.806 176.461 102.968 179.145 102.968Z" fill="#1C1C1C"/>
<path d="M294.109 96.1365L306.065 62.5876H328.634V63.8075H321.314V113.826H328.634V115.046H299.355V113.826H306.675V64.9055L288.253 115.778H287.033L267.514 65.1495V113.826H274.834V115.046H258.852V113.826H266.172V63.8075H258.852V62.5876H281.544L294.109 96.1365Z" fill="#1C1C1C"/>
<path d="M435.955 115.372V107.199H449.252V36.929H410.457V107.199H423.755V115.372H390.816V107.199H401.674V36.929H390.816V28.7553H468.772V36.929H458.036V107.199H468.894V115.372H435.955Z" fill="#1C1C1C"/>
<path d="M982.944 128.953H968.548L982.456 115.046H925.24V102.846H982.944V128.953ZM950.737 74.7872H925.24V62.5876H950.737V74.7872ZM939.269 115.046H938.049V62.5876H939.269V115.046ZM969.524 115.046H968.304V62.5876H969.524V115.046ZM982.334 74.7872H956.959V62.5876H982.334V74.7872Z" fill="#1C1C1C"/>
<path d="M574.911 115.778C568.893 115.778 563.484 114.639 558.686 112.362C553.887 110.003 549.82 106.831 546.486 102.846C543.151 98.8611 540.589 94.2252 538.8 88.9387C537.011 83.5709 536.116 77.8371 536.116 71.7373C536.116 65.6375 537.011 59.9443 538.8 54.6578C540.589 49.29 543.151 44.6135 546.486 40.6283C549.82 36.6431 553.887 33.5118 558.686 31.2346C563.484 28.876 568.893 27.6967 574.911 27.6967C580.929 27.6967 586.338 28.876 591.136 31.2346C595.935 33.5118 600.002 36.6431 603.336 40.6283C606.671 44.6135 609.233 49.29 611.022 54.6578C612.811 59.9443 613.706 65.6375 613.706 71.7373C613.706 77.8371 612.811 83.5709 611.022 88.9387C609.233 94.2252 606.671 98.8611 603.336 102.846C600.002 106.831 595.935 110.003 591.136 112.362C586.338 114.639 580.929 115.778 574.911 115.778ZM574.911 114.802C579.628 114.802 583.369 113.501 586.135 110.898C588.9 108.214 590.974 104.798 592.356 100.65C593.82 96.4212 594.756 91.7853 595.162 86.7428C595.569 81.619 595.772 76.6171 595.772 71.7373C595.772 66.8574 595.569 61.8963 595.162 56.8537C594.756 51.7299 593.82 47.0941 592.356 42.9462C590.974 38.717 588.9 35.3011 586.135 32.6985C583.369 30.0146 579.628 28.6726 574.911 28.6726C570.194 28.6726 566.453 30.0146 563.687 32.6985C560.922 35.3011 558.808 38.717 557.344 42.9462C555.961 47.0941 555.066 51.7299 554.66 56.8537C554.253 61.8963 554.05 66.8574 554.05 71.7373C554.05 76.6171 554.253 81.619 554.66 86.7428C555.066 91.7853 555.961 96.4212 557.344 100.65C558.808 104.798 560.922 108.214 563.687 110.898C566.453 113.501 570.194 114.802 574.911 114.802Z" fill="#1C1C1C"/>
<path d="M1086.09 74.6652H1085.48L1061.2 115.046H1055.34V102.968H1055.95L1080.23 62.5876H1086.09V74.6652ZM1055.95 115.046H1054.73V62.5876H1055.95V115.046ZM1068.15 74.7872H1041.92V62.5876H1068.15V74.7872ZM1086.7 115.046H1085.48V62.5876H1086.7V115.046ZM1055.34 115.046H1041.92V102.846H1055.34V115.046ZM1099.51 74.7872H1086.09V62.5876H1099.51V74.7872ZM1099.51 115.046H1073.28V102.846H1099.51V115.046Z" fill="#1C1C1C"/>
<path d="M699.165 82.038C704.045 82.038 707.583 81.7533 709.779 81.184C712.056 80.6147 713.195 79.3947 713.195 77.5241C713.195 75.6535 711.772 74.3522 708.925 73.6203C706.16 72.807 702.418 72.4003 697.701 72.4003C694.123 72.4003 690.422 72.7663 686.6 73.4983C682.777 74.1489 679.402 75.0435 676.474 76.1822L686.356 86.6738H675.742V64.8365C678.182 63.6979 680.947 62.7626 684.038 62.0306C687.128 61.2173 690.422 60.8107 693.919 60.8107C697.254 60.8107 700.182 61.258 702.703 62.1526C705.224 62.9659 707.298 64.1046 708.925 65.5685C710.633 66.9511 711.894 68.6184 712.707 70.5704C713.601 72.441 714.049 74.4336 714.049 76.5482C714.049 79.9641 712.625 82.8106 709.779 85.0879C707.014 87.3652 702.662 88.5038 696.725 88.5038V85.8199C703.394 85.8199 708.152 86.8772 710.999 88.9918C713.927 91.025 715.391 93.7496 715.391 97.1655C715.391 99.3614 714.984 101.517 714.171 103.631C713.439 105.746 712.259 107.657 710.633 109.365C709.006 110.992 706.892 112.293 704.289 113.269C701.768 114.245 698.718 114.733 695.139 114.733C687.738 114.733 682.208 112.862 678.548 109.121C674.969 105.38 673.18 100.337 673.18 93.9936C673.18 93.5056 673.383 93.2616 673.79 93.2616C674.034 93.2616 674.197 93.343 674.278 93.5056C674.359 93.6683 674.4 93.831 674.4 93.9936C674.4 95.6202 674.969 97.0028 676.108 98.1415C677.328 99.1988 678.873 100.053 680.744 100.703C682.696 101.273 684.851 101.679 687.21 101.923C689.65 102.167 692.089 102.289 694.529 102.289C700.629 102.289 705.428 101.883 708.925 101.069C712.503 100.175 714.293 98.6295 714.293 96.4335C714.293 94.5629 713.113 93.3836 710.755 92.8956C708.396 92.4077 704.533 92.1637 699.165 92.1637H692.089V82.038H699.165Z" fill="#1C1C1C"/>
<path d="M1234.14 28.6037H1224.63V112.781H1234.14V114.001H1198.77V112.781H1208.28V70.3264H1205.48C1202.39 70.3264 1199.82 70.611 1197.79 71.1803C1195.76 71.7497 1194.05 72.7663 1192.67 74.2302C1191.36 75.6942 1190.27 77.6868 1189.37 80.2081C1188.56 82.648 1187.87 85.7385 1187.3 89.4798L1186.08 97.1655C1185.02 103.753 1183.07 108.348 1180.22 110.951C1177.38 113.472 1173.31 114.733 1168.02 114.733C1164.12 114.733 1161.11 114.123 1159 112.903C1156.96 111.683 1155.42 109.934 1154.36 107.657L1155.34 107.169C1156.23 109.04 1157.29 110.382 1158.51 111.195C1159.73 111.927 1161.03 112.293 1162.41 112.293C1164.28 112.293 1165.62 111.561 1166.44 110.097C1167.25 108.552 1167.86 106.478 1168.27 103.875L1169.97 93.8716C1170.79 88.9918 1172.01 85.0066 1173.63 81.916C1175.34 78.8254 1177.38 76.4262 1179.73 74.7182C1182.09 72.9289 1184.74 71.6683 1187.66 70.9363C1190.67 70.2044 1193.89 69.757 1197.3 69.5944C1193.07 69.3504 1189.17 68.8217 1185.59 68.0084C1182.09 67.1138 1179.04 65.8938 1176.44 64.3486C1173.84 62.7219 1171.8 60.6887 1170.34 58.2487C1168.88 55.7275 1168.14 52.7183 1168.14 49.221C1168.14 45.3985 1169.04 42.1046 1170.83 39.3393C1172.62 36.5741 1175.14 34.3375 1178.39 32.6296C1181.73 30.8403 1185.67 29.539 1190.23 28.7257C1194.86 27.831 1199.99 27.3837 1205.6 27.3837H1234.14V28.6037ZM1185.59 48.1231C1185.59 51.3763 1185.92 54.3042 1186.57 56.9068C1187.3 59.428 1188.44 61.624 1189.98 63.4946C1191.53 65.2839 1193.56 66.6665 1196.08 67.6424C1198.6 68.6184 1201.69 69.1064 1205.35 69.1064H1208.28V28.6037H1206.21C1198.73 28.6037 1193.4 30.271 1190.23 33.6055C1187.14 36.8588 1185.59 41.6979 1185.59 48.1231Z" fill="#1C1C1C"/>
<path d="M775.477 115.372V107.199H788.775V36.929H775.477V28.7553H810.856V36.929H797.558V101.587L839.647 28.7553H862.338V36.929H849.041V107.199H862.338V115.372H826.959V107.199H840.257V41.9308H840.135L798.046 115.372H775.477Z" fill="#1C1C1C"/>
<path d="M1248.39 434.589H2V518.411H1248.39V434.589Z" fill="white" stroke="#1C1C1C" stroke-width="2.06457"/>
<path d="M289.833 419.955C300.783 419.955 309.269 417.423 315.292 412.359C321.451 407.294 324.531 400.382 324.531 391.622C324.531 382.589 321.041 375.403 314.06 370.065C307.079 364.726 296.472 362.057 282.237 362.057H276.693V347.685H282.031C306.806 347.685 319.193 338.994 319.193 321.611C319.193 306.965 309.543 299.642 290.244 299.642C281.484 299.642 272.997 301.011 264.785 303.749V331.671H250.003V292.456C254.656 290.677 261.226 289.103 269.713 287.734C278.199 286.366 285.864 285.681 292.707 285.681C304.616 285.681 314.676 288.692 322.888 294.715C331.101 300.601 335.207 308.608 335.207 318.736C335.207 327.77 332.059 335.777 325.763 342.758C319.466 349.602 311.322 353.503 301.331 354.461C313.102 355.419 322.546 359.525 329.664 366.78C336.918 373.897 340.545 382.657 340.545 393.059C340.545 405.515 335.481 415.439 325.352 422.83C315.36 430.221 303.247 433.917 289.012 433.917C275.051 433.917 263.964 430.289 255.751 423.035C247.539 415.644 243.569 406.336 243.843 395.113L257.394 393.265C257.257 401.888 259.994 408.526 265.606 413.18C271.355 417.697 279.431 419.955 289.833 419.955Z" fill="#1C1C1C"/>
<path d="M612.819 287.752C613.503 293.774 612.408 298.565 609.534 302.123C607.618 304.45 605.222 306.161 602.348 307.256C599.611 308.351 595.778 309.446 590.851 310.541C589.482 310.815 588.113 311.089 586.744 311.363C585.376 311.636 583.733 312.047 581.817 312.594C574.289 314.648 568.745 319.438 565.187 326.966C561.765 334.357 559.164 344.486 557.385 357.352L547.53 359.611C551.362 354.547 555.947 350.714 561.286 348.113C566.624 345.376 572.372 344.007 578.532 344.007C585.376 344.007 591.124 345.307 595.778 347.908C600.569 350.509 604.401 353.999 607.276 358.379C610.287 362.622 612.408 367.481 613.64 372.956C615.009 378.294 615.693 383.701 615.693 389.176C615.693 394.24 615.009 399.51 613.64 404.985C612.408 410.323 610.287 415.182 607.276 419.562C604.401 423.942 600.5 427.569 595.573 430.444C590.645 433.318 584.486 434.755 577.095 434.755C568.335 434.755 561.286 432.907 555.947 429.212C550.746 425.379 546.708 420.452 543.834 414.429C540.96 408.27 539.043 401.426 538.085 393.898C537.264 386.37 536.853 378.773 536.853 371.108C536.853 353.315 539.933 339.901 546.092 330.867C552.389 321.697 561.559 315.674 573.604 312.8L579.148 311.363C584.212 310.131 587.566 308.009 589.208 304.998C590.987 301.987 591.877 298.086 591.877 293.295C591.877 292.474 591.877 291.653 591.877 290.831C591.877 289.873 591.809 288.847 591.672 287.752H612.819ZM576.889 413.403C581.543 413.403 586.06 413.061 590.44 412.376C594.957 411.692 598.926 410.46 602.348 408.681C605.907 406.901 608.713 404.437 610.766 401.289C612.956 398.141 614.051 394.103 614.051 389.176C614.051 384.248 613.024 380.211 610.971 377.062C608.918 373.914 606.249 371.519 602.964 369.877C599.679 368.097 595.846 366.865 591.466 366.181C587.223 365.497 582.843 365.154 578.326 365.154C573.262 365.154 568.403 365.565 563.749 366.386C559.096 367.207 554.989 368.645 551.431 370.698C548.009 372.614 545.203 375.215 543.013 378.5C540.96 381.648 539.933 385.617 539.933 390.408C539.933 395.061 540.96 398.894 543.013 401.905C545.066 404.916 547.803 407.312 551.225 409.091C554.647 410.734 558.548 411.897 562.928 412.581C567.445 413.129 572.099 413.403 576.889 413.403Z" fill="#1C1C1C"/>
<path d="M718.628 484.851C714.248 484.851 710.758 484.304 708.157 483.209C705.42 482.114 703.367 480.608 701.998 478.692C700.492 476.913 699.466 474.86 698.918 472.533C698.371 470.206 698.097 467.879 698.097 465.552V461.856C698.097 461.035 698.439 460.625 699.124 460.625C699.808 460.625 700.15 461.035 700.15 461.856V465.141C700.15 468.837 700.971 472.054 702.614 474.791C704.256 477.665 707.268 479.103 711.648 479.103C716.028 479.103 719.518 477.323 722.118 473.765C724.856 470.206 727.73 464.936 730.742 457.955L749.014 415.866V418.741L717.602 345.239H720.065L750.452 416.482H749.425L778.785 345.239H799.316L749.014 462.472C745.319 470.959 741.007 476.776 736.08 479.924C731.152 483.209 725.335 484.851 718.628 484.851ZM712.263 345.239H742.65V365.77H712.263V345.239ZM755.79 345.239H803.833V365.77H755.79V345.239Z" fill="#1C1C1C"/>
<path d="M987.034 287.752H1019.88V289.805H1006.54L962.807 339.901L1023.79 431.47H1034.26V433.523H975.947V431.47H992.167L944.945 359.406H940.634V431.47H956.648V433.523H897.108V431.47H913.122V289.805H897.108V287.752H956.648V289.805H940.634V357.352H944.74L1003.46 289.805H987.034V287.752Z" fill="#1C1C1C"/>
<path d="M1118.75 344.4H1157.35C1179.93 344.4 1191.22 351.176 1191.22 364.726C1191.22 370.201 1189.51 374.992 1186.09 379.098C1182.67 383.205 1177.47 385.668 1170.49 386.489C1187.19 387.721 1195.54 395.113 1195.54 408.663C1195.54 424.678 1183.9 432.685 1160.63 432.685H1118.75V420.571H1131.07V356.514H1118.75V344.4ZM1158.17 391.828H1144.41V420.571H1156.94C1166.66 420.571 1173.23 419.476 1176.65 417.286C1180.07 415.096 1181.78 411.606 1181.78 406.815C1181.78 401.067 1179.93 397.166 1176.24 395.113C1172.54 392.923 1166.52 391.828 1158.17 391.828ZM1154.88 356.514H1144.41V381.562H1158.37C1165.08 381.562 1169.94 380.672 1172.95 378.893C1175.96 377.114 1177.47 373.692 1177.47 368.627C1177.47 364.11 1175.89 360.962 1172.75 359.183C1169.6 357.404 1163.64 356.514 1154.88 356.514Z" fill="#1C1C1C"/>
<path d="M93.1179 348.324H80.7992V429.628L113.444 346.271H150.605V348.324H138.287V432.502H150.605V434.556H101.33V432.502H113.649V351.609L81.0045 434.556H43.843V432.502H56.1617V348.324H43.843V346.271H93.1179V348.324Z" fill="#1C1C1C"/>
<rect x="474" y="604.001" width="306.429" height="126" fill="white" stroke="#1C1C1C" stroke-width="1.22857"/>
<rect x="481.857" y="613.001" width="3.92857" height="4.5" fill="#D33A27"/>
<rect x="768.643" y="613.001" width="3.92857" height="4.5" fill="#D33A27"/>
<rect x="481.857" y="716.501" width="3.92857" height="4.5" fill="#D33A27"/>
<rect x="768.643" y="716.501" width="3.92857" height="4.5" fill="#D33A27"/>
<path d="M498.764 640.796C498.321 639.583 497.714 638.509 496.944 637.576C496.197 636.643 495.427 635.791 494.634 635.021C494.517 634.904 494.412 634.811 494.319 634.741C494.249 634.648 494.214 634.519 494.214 634.356C494.214 634.193 494.249 634.076 494.319 634.006C494.412 633.913 494.517 633.808 494.634 633.691C495.427 632.921 496.197 632.069 496.944 631.136C497.714 630.203 498.321 629.129 498.764 627.916L498.974 627.951C498.857 628.488 498.717 629.059 498.554 629.666C498.414 630.273 498.251 630.868 498.064 631.451C497.901 632.011 497.726 632.548 497.539 633.061C497.352 633.574 497.177 634.006 497.014 634.356C497.177 634.706 497.352 635.138 497.539 635.651C497.726 636.164 497.901 636.713 498.064 637.296C498.251 637.856 498.414 638.439 498.554 639.046C498.717 639.653 498.857 640.224 498.974 640.761L498.764 640.796ZM493.444 640.796C493.001 639.583 492.394 638.509 491.624 637.576C490.877 636.643 490.107 635.791 489.314 635.021C489.197 634.904 489.092 634.811 488.999 634.741C488.929 634.648 488.894 634.519 488.894 634.356C488.894 634.193 488.929 634.076 488.999 634.006C489.092 633.913 489.197 633.808 489.314 633.691C490.107 632.921 490.877 632.069 491.624 631.136C492.394 630.203 493.001 629.129 493.444 627.916L493.654 627.951C493.537 628.488 493.397 629.059 493.234 629.666C493.094 630.273 492.931 630.868 492.744 631.451C492.581 632.011 492.406 632.548 492.219 633.061C492.032 633.574 491.857 634.006 491.694 634.356C491.857 634.706 492.032 635.138 492.219 635.651C492.406 636.164 492.581 636.713 492.744 637.296C492.931 637.856 493.094 638.439 493.234 639.046C493.397 639.653 493.537 640.224 493.654 640.761L493.444 640.796ZM526.058 641.881H515.908V641.531H518.638V617.381H509.363V641.531H512.093V641.881H501.943V641.531H504.673V617.381H501.943V617.031H526.058V617.381H523.328V641.531H526.058V641.881ZM536.071 642.091C534.694 642.091 533.504 641.858 532.501 641.391C531.521 640.901 530.704 640.283 530.051 639.536C529.421 638.766 528.954 637.926 528.651 637.016C528.347 636.106 528.196 635.219 528.196 634.356C528.196 633.493 528.347 632.606 528.651 631.696C528.954 630.786 529.421 629.958 530.051 629.211C530.704 628.441 531.521 627.823 532.501 627.356C533.504 626.866 534.694 626.621 536.071 626.621C537.447 626.621 538.626 626.866 539.606 627.356C540.609 627.823 541.426 628.441 542.056 629.211C542.709 629.958 543.187 630.786 543.491 631.696C543.794 632.606 543.946 633.493 543.946 634.356C543.946 635.219 543.794 636.106 543.491 637.016C543.187 637.926 542.709 638.766 542.056 639.536C541.426 640.283 540.609 640.901 539.606 641.391C538.626 641.858 537.447 642.091 536.071 642.091ZM536.071 641.811C536.887 641.811 537.529 641.613 537.996 641.216C538.462 640.796 538.812 640.248 539.046 639.571C539.279 638.871 539.419 638.078 539.466 637.191C539.536 636.281 539.571 635.336 539.571 634.356C539.571 633.376 539.536 632.443 539.466 631.556C539.419 630.646 539.279 629.853 539.046 629.176C538.812 628.476 538.462 627.928 537.996 627.531C537.529 627.111 536.887 626.901 536.071 626.901C535.254 626.901 534.612 627.111 534.146 627.531C533.679 627.928 533.329 628.476 533.096 629.176C532.862 629.853 532.711 630.646 532.641 631.556C532.594 632.443 532.571 633.376 532.571 634.356C532.571 635.336 532.594 636.281 532.641 637.191C532.711 638.078 532.862 638.871 533.096 639.571C533.329 640.248 533.679 640.796 534.146 641.216C534.612 641.613 535.254 641.811 536.071 641.811ZM562.239 641.881H553.839V641.531H555.939V627.181H551.459C551.459 628.721 551.448 630.133 551.424 631.416C551.401 632.699 551.331 633.994 551.214 635.301C551.144 636.048 551.051 636.829 550.934 637.646C550.818 638.439 550.631 639.174 550.374 639.851C550.141 640.504 549.803 641.041 549.359 641.461C548.939 641.881 548.403 642.091 547.749 642.091C547.003 642.091 546.373 641.858 545.859 641.391C545.369 640.901 545.124 640.271 545.124 639.501C545.124 638.801 545.311 638.253 545.684 637.856C546.058 637.459 546.513 637.261 547.049 637.261C547.516 637.261 547.866 637.401 548.099 637.681C548.333 637.938 548.449 638.288 548.449 638.731C548.449 638.988 548.414 639.209 548.344 639.396C548.274 639.583 548.193 639.769 548.099 639.956C548.006 640.143 547.924 640.329 547.854 640.516C547.784 640.703 547.749 640.901 547.749 641.111C547.749 641.298 547.796 641.426 547.889 641.496C547.983 641.543 548.088 641.566 548.204 641.566C548.694 641.566 549.103 641.333 549.429 640.866C549.779 640.376 550.059 639.769 550.269 639.046C550.456 638.463 550.584 637.844 550.654 637.191C550.748 636.538 550.818 635.873 550.864 635.196C550.958 633.913 551.016 632.641 551.039 631.381C551.063 630.121 551.074 628.721 551.074 627.181H548.974V626.831H562.239V627.181H560.139V641.531H562.239V641.881ZM571.613 627.181H569.688V634.181H570.913L577.073 627.181H574.798V626.831H579.698V627.181H577.563L573.748 631.486L579.733 641.531H581.413V641.881H573.293V641.531H574.973L570.913 634.531H569.688V641.531H571.613V641.881H563.388V641.531H565.488V627.181H563.388V626.831H571.613V627.181ZM586.125 642.091C584.655 642.091 583.57 641.764 582.87 641.111C582.17 640.458 581.82 639.548 581.82 638.381C581.82 636.934 582.38 635.849 583.5 635.126C584.62 634.379 586.382 634.006 588.785 634.006H590.255V631.766C590.255 630.856 590.22 630.098 590.15 629.491C590.08 628.861 589.952 628.371 589.765 628.021C589.602 627.648 589.357 627.379 589.03 627.216C588.704 627.053 588.295 626.971 587.805 626.971C587.199 626.971 586.697 627.099 586.3 627.356C585.904 627.589 585.705 628.021 585.705 628.651C585.705 629.048 585.764 629.374 585.88 629.631C586.02 629.864 586.09 630.168 586.09 630.541C586.09 631.008 585.939 631.404 585.635 631.731C585.355 632.058 584.924 632.221 584.34 632.221C583.22 632.221 582.66 631.614 582.66 630.401C582.66 629.211 583.197 628.289 584.27 627.636C585.344 626.959 586.767 626.621 588.54 626.621C589.194 626.621 589.87 626.691 590.57 626.831C591.27 626.971 591.912 627.263 592.495 627.706C593.079 628.149 593.545 628.791 593.895 629.631C594.269 630.471 594.455 631.579 594.455 632.956V639.956C594.455 641.053 594.794 641.601 595.47 641.601C595.867 641.601 596.182 641.461 596.415 641.181C596.672 640.901 596.87 640.563 597.01 640.166L597.29 640.271C597.104 640.808 596.812 641.251 596.415 641.601C596.042 641.928 595.354 642.091 594.35 642.091C593.207 642.091 592.262 641.823 591.515 641.286C590.792 640.749 590.43 639.793 590.43 638.416V638.241H590.36C590.104 639.688 589.637 640.691 588.96 641.251C588.284 641.811 587.339 642.091 586.125 642.091ZM587.49 641.391C588.074 641.391 588.54 641.193 588.89 640.796C589.264 640.399 589.544 639.898 589.73 639.291C589.94 638.684 590.08 638.019 590.15 637.296C590.22 636.549 590.255 635.826 590.255 635.126V634.356H589.205C588.015 634.356 587.14 634.694 586.58 635.371C586.02 636.048 585.74 637.086 585.74 638.486C585.74 639.349 585.857 640.049 586.09 640.586C586.347 641.123 586.814 641.391 587.49 641.391ZM613.449 642.091C612.189 642.091 611.08 641.893 610.124 641.496C609.19 641.076 608.397 640.516 607.744 639.816C607.114 639.116 606.635 638.311 606.309 637.401C605.982 636.491 605.819 635.523 605.819 634.496C605.819 633.423 605.994 632.408 606.344 631.451C606.694 630.494 607.195 629.666 607.849 628.966C608.525 628.243 609.33 627.671 610.264 627.251C611.22 626.831 612.294 626.621 613.484 626.621C614.394 626.621 615.199 626.749 615.899 627.006C616.622 627.239 617.217 627.554 617.684 627.951C618.174 628.324 618.547 628.756 618.804 629.246C619.06 629.736 619.189 630.226 619.189 630.716C619.189 631.276 619.025 631.731 618.699 632.081C618.395 632.408 617.917 632.571 617.264 632.571C616.587 632.571 616.109 632.396 615.829 632.046C615.572 631.696 615.444 631.264 615.444 630.751C615.444 630.354 615.49 630.004 615.584 629.701C615.677 629.398 615.724 629.071 615.724 628.721C615.724 628.184 615.549 627.753 615.199 627.426C614.872 627.099 614.37 626.936 613.694 626.936C612.947 626.936 612.34 627.134 611.874 627.531C611.43 627.928 611.08 628.464 610.824 629.141C610.59 629.794 610.427 630.564 610.334 631.451C610.24 632.314 610.194 633.236 610.194 634.216C610.194 635.289 610.252 636.281 610.369 637.191C610.485 638.101 610.684 638.894 610.964 639.571C611.267 640.224 611.664 640.738 612.154 641.111C612.644 641.484 613.274 641.671 614.044 641.671C614.837 641.671 615.525 641.543 616.109 641.286C616.715 641.006 617.229 640.668 617.649 640.271C618.069 639.874 618.407 639.454 618.664 639.011C618.944 638.568 619.142 638.171 619.259 637.821L619.609 637.961C619.422 638.451 619.165 638.941 618.839 639.431C618.535 639.921 618.139 640.364 617.649 640.761C617.159 641.158 616.564 641.484 615.864 641.741C615.164 641.974 614.359 642.091 613.449 642.091ZM644.699 616.016C644.676 616.319 644.629 616.774 644.559 617.381C644.513 617.964 644.408 618.501 644.244 618.991C643.894 620.018 643.346 620.834 642.599 621.441C641.876 622.024 640.768 622.421 639.274 622.631L637.559 622.876C636.393 623.039 635.354 623.296 634.444 623.646C633.534 623.973 632.753 624.439 632.099 625.046C631.446 625.653 630.944 626.434 630.594 627.391C630.268 628.324 630.104 629.468 630.104 630.821C630.104 631.288 630.104 631.649 630.104 631.906C630.104 632.139 630.128 632.361 630.174 632.571H630.279C630.839 630.751 631.784 629.304 633.114 628.231C634.444 627.158 636.019 626.621 637.839 626.621C639.193 626.621 640.348 626.866 641.304 627.356C642.261 627.823 643.031 628.429 643.614 629.176C644.221 629.899 644.653 630.728 644.909 631.661C645.189 632.571 645.329 633.458 645.329 634.321C645.329 635.184 645.178 636.083 644.874 637.016C644.594 637.926 644.151 638.754 643.544 639.501C642.938 640.248 642.144 640.866 641.164 641.356C640.208 641.846 639.053 642.091 637.699 642.091C635.016 642.091 633.009 641.169 631.679 639.326C630.349 637.483 629.684 634.788 629.684 631.241C629.684 629.538 629.836 627.986 630.139 626.586C630.466 625.163 630.956 623.914 631.609 622.841C632.286 621.768 633.149 620.893 634.199 620.216C635.249 619.516 636.509 619.038 637.979 618.781L640.534 618.361C641.234 618.244 641.806 618.139 642.249 618.046C642.693 617.929 643.043 617.813 643.299 617.696C643.579 617.556 643.789 617.416 643.929 617.276C644.069 617.113 644.174 616.926 644.244 616.716C644.338 616.459 644.396 616.226 644.419 616.016H644.699ZM637.699 641.811C638.423 641.811 639.006 641.613 639.449 641.216C639.893 640.796 640.231 640.248 640.464 639.571C640.698 638.871 640.849 638.078 640.919 637.191C640.989 636.281 641.024 635.336 641.024 634.356C641.024 633.376 640.989 632.443 640.919 631.556C640.873 630.646 640.744 629.853 640.534 629.176C640.324 628.476 640.009 627.928 639.589 627.531C639.169 627.111 638.586 626.901 637.839 626.901C637.163 626.901 636.591 627.111 636.124 627.531C635.658 627.928 635.284 628.476 635.004 629.176C634.724 629.853 634.526 630.646 634.409 631.556C634.293 632.443 634.234 633.376 634.234 634.356C634.234 635.336 634.269 636.281 634.339 637.191C634.409 638.078 634.561 638.871 634.794 639.571C635.051 640.248 635.401 640.796 635.844 641.216C636.311 641.613 636.929 641.811 637.699 641.811ZM657.77 626.831H662.11V627.181H660.43L652.555 647.026C652.041 648.309 651.481 649.231 650.875 649.791C650.268 650.351 649.451 650.631 648.425 650.631C647.305 650.631 646.43 650.339 645.8 649.756C645.17 649.196 644.855 648.438 644.855 647.481C644.855 646.734 645.053 646.139 645.45 645.696C645.823 645.276 646.301 645.066 646.885 645.066C647.468 645.066 647.911 645.253 648.215 645.626C648.518 645.999 648.67 646.454 648.67 646.991C648.67 647.248 648.635 647.469 648.565 647.656C648.495 647.866 648.425 648.053 648.355 648.216C648.285 648.403 648.215 648.578 648.145 648.741C648.075 648.904 648.04 649.079 648.04 649.266C648.04 649.593 648.133 649.814 648.32 649.931C648.506 650.071 648.74 650.141 649.02 650.141C649.743 650.141 650.373 649.803 650.91 649.126C651.446 648.449 651.878 647.691 652.205 646.851L653.92 642.546L647.83 627.181H646.15V626.831H654.13V627.181H652.1L655.985 637.331L660.01 627.181H657.77V626.831ZM670.529 627.181H668.604V634.181H669.829L675.989 627.181H673.714V626.831H678.614V627.181H676.479L672.664 631.486L678.649 641.531H680.329V641.881H672.209V641.531H673.889L669.829 634.531H668.604V641.531H670.529V641.881H662.304V641.531H664.404V627.181H662.304V626.831H670.529V627.181ZM687.911 626.831C690.245 626.831 691.971 627.111 693.091 627.671C694.211 628.208 694.771 629.106 694.771 630.366C694.771 631.393 694.316 632.221 693.406 632.851C692.496 633.458 691.283 633.819 689.766 633.936C690.606 633.983 691.365 634.088 692.041 634.251C692.741 634.414 693.336 634.648 693.826 634.951C694.34 635.254 694.736 635.628 695.016 636.071C695.296 636.491 695.436 637.004 695.436 637.611C695.436 638.941 694.841 639.991 693.651 640.761C692.485 641.508 690.583 641.881 687.946 641.881H680.351V641.531H682.451V627.181H680.351V626.831H687.911ZM686.651 634.181V641.531H687.946C689.23 641.531 690.128 641.181 690.641 640.481C691.178 639.758 691.446 638.848 691.446 637.751C691.446 636.724 691.155 635.873 690.571 635.196C690.011 634.519 689.055 634.181 687.701 634.181H686.651ZM686.651 627.181V633.831H687.771C688.845 633.831 689.615 633.516 690.081 632.886C690.571 632.233 690.816 631.416 690.816 630.436C690.816 628.266 689.813 627.181 687.806 627.181H686.651ZM701.789 642.091C700.319 642.091 699.234 641.764 698.534 641.111C697.834 640.458 697.484 639.548 697.484 638.381C697.484 636.934 698.044 635.849 699.164 635.126C700.284 634.379 702.046 634.006 704.449 634.006H705.919V631.766C705.919 630.856 705.884 630.098 705.814 629.491C705.744 628.861 705.616 628.371 705.429 628.021C705.266 627.648 705.021 627.379 704.694 627.216C704.368 627.053 703.959 626.971 703.469 626.971C702.863 626.971 702.361 627.099 701.964 627.356C701.568 627.589 701.369 628.021 701.369 628.651C701.369 629.048 701.428 629.374 701.544 629.631C701.684 629.864 701.754 630.168 701.754 630.541C701.754 631.008 701.603 631.404 701.299 631.731C701.019 632.058 700.588 632.221 700.004 632.221C698.884 632.221 698.324 631.614 698.324 630.401C698.324 629.211 698.861 628.289 699.934 627.636C701.008 626.959 702.431 626.621 704.204 626.621C704.858 626.621 705.534 626.691 706.234 626.831C706.934 626.971 707.576 627.263 708.159 627.706C708.743 628.149 709.209 628.791 709.559 629.631C709.933 630.471 710.119 631.579 710.119 632.956V639.956C710.119 641.053 710.458 641.601 711.134 641.601C711.531 641.601 711.846 641.461 712.079 641.181C712.336 640.901 712.534 640.563 712.674 640.166L712.954 640.271C712.768 640.808 712.476 641.251 712.079 641.601C711.706 641.928 711.018 642.091 710.014 642.091C708.871 642.091 707.926 641.823 707.179 641.286C706.456 640.749 706.094 639.793 706.094 638.416V638.241H706.024C705.768 639.688 705.301 640.691 704.624 641.251C703.948 641.811 703.003 642.091 701.789 642.091ZM703.154 641.391C703.738 641.391 704.204 641.193 704.554 640.796C704.928 640.399 705.208 639.898 705.394 639.291C705.604 638.684 705.744 638.019 705.814 637.296C705.884 636.549 705.919 635.826 705.919 635.126V634.356H704.869C703.679 634.356 702.804 634.694 702.244 635.371C701.684 636.048 701.404 637.086 701.404 638.486C701.404 639.349 701.521 640.049 701.754 640.586C702.011 641.123 702.478 641.391 703.154 641.391ZM723.244 636.456L726.674 626.831H733.149V627.181H731.049V641.531H733.149V641.881H724.749V641.531H726.849V627.496L721.564 642.091H721.214L715.614 627.566V641.531H717.714V641.881H713.129V641.531H715.229V627.181H713.129V626.831H719.639L723.244 636.456ZM742.687 627.181H740.587V641.041L746.152 626.831H752.487V627.181H750.387V641.531H752.487V641.881H744.087V641.531H746.187V627.741L740.622 641.881H734.287V641.531H736.387V627.181H734.287V626.831H742.687V627.181ZM760.352 640.761C760.445 640.224 760.573 639.653 760.737 639.046C760.9 638.439 761.063 637.856 761.227 637.296C761.413 636.713 761.6 636.164 761.787 635.651C761.973 635.138 762.148 634.706 762.312 634.356C762.148 634.006 761.973 633.574 761.787 633.061C761.6 632.548 761.413 632.011 761.227 631.451C761.063 630.868 760.9 630.273 760.737 629.666C760.573 629.059 760.445 628.488 760.352 627.951L760.562 627.916C761.005 629.129 761.6 630.203 762.347 631.136C763.117 632.069 763.898 632.921 764.692 633.691C764.808 633.808 764.902 633.913 764.972 634.006C765.065 634.076 765.112 634.193 765.112 634.356C765.112 634.519 765.065 634.648 764.972 634.741C764.902 634.811 764.808 634.904 764.692 635.021C763.898 635.791 763.117 636.643 762.347 637.576C761.6 638.509 761.005 639.583 760.562 640.796L760.352 640.761ZM755.032 640.761C755.125 640.224 755.253 639.653 755.417 639.046C755.58 638.439 755.743 637.856 755.907 637.296C756.093 636.713 756.28 636.164 756.467 635.651C756.653 635.138 756.828 634.706 756.992 634.356C756.828 634.006 756.653 633.574 756.467 633.061C756.28 632.548 756.093 632.011 755.907 631.451C755.743 630.868 755.58 630.273 755.417 629.666C755.253 629.059 755.125 628.488 755.032 627.951L755.242 627.916C755.685 629.129 756.28 630.203 757.027 631.136C757.797 632.069 758.578 632.921 759.372 633.691C759.488 633.808 759.582 633.913 759.652 634.006C759.745 634.076 759.792 634.193 759.792 634.356C759.792 634.519 759.745 634.648 759.652 634.741C759.582 634.811 759.488 634.904 759.372 635.021C758.578 635.791 757.797 636.643 757.027 637.576C756.28 638.509 755.685 639.583 755.242 640.796L755.032 640.761Z" fill="#D33A27"/>
<path d="M497.864 681.661H500.02V666.481H499.932C499.11 666.481 498.406 666.598 497.82 666.833C497.233 667.053 496.749 667.368 496.368 667.779C495.986 668.175 495.693 668.652 495.488 669.209C495.282 669.752 495.15 670.346 495.092 670.991H494.872V666.261H508.116V670.991H507.896C507.837 670.346 507.705 669.752 507.5 669.209C507.294 668.652 507.001 668.175 506.62 667.779C506.238 667.368 505.754 667.053 505.168 666.833C504.581 666.598 503.877 666.481 503.056 666.481H502.968V681.661H505.124V681.881H497.864V681.661ZM513.736 672.421C515.203 672.421 516.288 672.597 516.992 672.949C517.696 673.286 518.048 673.851 518.048 674.643C518.048 675.288 517.762 675.809 517.19 676.205C516.618 676.586 515.856 676.814 514.902 676.887C515.43 676.916 515.907 676.982 516.332 677.085C516.772 677.188 517.146 677.334 517.454 677.525C517.777 677.716 518.026 677.95 518.202 678.229C518.378 678.493 518.466 678.816 518.466 679.197C518.466 680.033 518.092 680.693 517.344 681.177C516.611 681.646 515.416 681.881 513.758 681.881H508.984V681.661H510.304V672.641H508.984V672.421H513.736ZM512.944 677.041V681.661H513.758C514.565 681.661 515.13 681.441 515.452 681.001C515.79 680.546 515.958 679.974 515.958 679.285C515.958 678.64 515.775 678.104 515.408 677.679C515.056 677.254 514.455 677.041 513.604 677.041H512.944ZM512.944 672.641V676.821H513.648C514.323 676.821 514.807 676.623 515.1 676.227C515.408 675.816 515.562 675.303 515.562 674.687C515.562 673.323 514.932 672.641 513.67 672.641H512.944ZM524.792 682.013C523.926 682.013 523.178 681.866 522.548 681.573C521.932 681.265 521.418 680.876 521.008 680.407C520.612 679.923 520.318 679.395 520.128 678.823C519.937 678.251 519.842 677.694 519.842 677.151C519.842 676.608 519.937 676.051 520.128 675.479C520.318 674.907 520.612 674.386 521.008 673.917C521.418 673.433 521.932 673.044 522.548 672.751C523.178 672.443 523.926 672.289 524.792 672.289C525.657 672.289 526.398 672.443 527.014 672.751C527.644 673.044 528.158 673.433 528.554 673.917C528.964 674.386 529.265 674.907 529.456 675.479C529.646 676.051 529.742 676.608 529.742 677.151C529.742 677.694 529.646 678.251 529.456 678.823C529.265 679.395 528.964 679.923 528.554 680.407C528.158 680.876 527.644 681.265 527.014 681.573C526.398 681.866 525.657 682.013 524.792 682.013ZM524.792 681.837C525.305 681.837 525.708 681.712 526.002 681.463C526.295 681.199 526.515 680.854 526.662 680.429C526.808 679.989 526.896 679.49 526.926 678.933C526.97 678.361 526.992 677.767 526.992 677.151C526.992 676.535 526.97 675.948 526.926 675.391C526.896 674.819 526.808 674.32 526.662 673.895C526.515 673.455 526.295 673.11 526.002 672.861C525.708 672.597 525.305 672.465 524.792 672.465C524.278 672.465 523.875 672.597 523.582 672.861C523.288 673.11 523.068 673.455 522.922 673.895C522.775 674.32 522.68 674.819 522.636 675.391C522.606 675.948 522.592 676.535 522.592 677.151C522.592 677.767 522.606 678.361 522.636 678.933C522.68 679.49 522.775 679.989 522.922 680.429C523.068 680.854 523.288 681.199 523.582 681.463C523.875 681.712 524.278 681.837 524.792 681.837ZM530.702 672.421H534.618V675.017H534.662C534.765 674.65 534.89 674.298 535.036 673.961C535.198 673.624 535.396 673.338 535.63 673.103C535.88 672.854 536.173 672.656 536.51 672.509C536.862 672.362 537.288 672.289 537.786 672.289C538.402 672.289 538.967 672.406 539.48 672.641C540.008 672.861 540.456 673.176 540.822 673.587C541.204 673.998 541.497 674.489 541.702 675.061C541.922 675.633 542.032 676.256 542.032 676.931C542.032 677.62 541.922 678.273 541.702 678.889C541.497 679.49 541.204 680.026 540.822 680.495C540.456 680.964 540.001 681.338 539.458 681.617C538.93 681.881 538.351 682.013 537.72 682.013C537.251 682.013 536.848 681.94 536.51 681.793C536.173 681.646 535.887 681.456 535.652 681.221C535.418 680.986 535.227 680.715 535.08 680.407C534.934 680.099 534.809 679.776 534.706 679.439H534.662V687.029H535.982V687.249H530.702V687.029H532.022V672.641H530.702V672.421ZM537.236 681.683C537.647 681.683 537.984 681.551 538.248 681.287C538.512 681.023 538.718 680.678 538.864 680.253C539.026 679.828 539.136 679.344 539.194 678.801C539.253 678.258 539.282 677.708 539.282 677.151C539.282 676.594 539.253 676.044 539.194 675.501C539.136 674.958 539.026 674.474 538.864 674.049C538.718 673.624 538.512 673.279 538.248 673.015C537.984 672.751 537.647 672.619 537.236 672.619C536.488 672.619 535.872 673.008 535.388 673.785C534.904 674.562 534.662 675.633 534.662 676.997V677.305C534.662 678.669 534.904 679.74 535.388 680.517C535.872 681.294 536.488 681.683 537.236 681.683ZM548.601 682.013C547.75 682.013 547.002 681.881 546.357 681.617C545.726 681.353 545.198 681.001 544.773 680.561C544.347 680.121 544.025 679.615 543.805 679.043C543.599 678.456 543.497 677.84 543.497 677.195C543.497 676.608 543.585 676.029 543.761 675.457C543.951 674.87 544.237 674.342 544.619 673.873C545 673.404 545.484 673.022 546.071 672.729C546.657 672.436 547.361 672.289 548.183 672.289C548.931 672.289 549.569 672.414 550.097 672.663C550.639 672.898 551.079 673.22 551.417 673.631C551.769 674.042 552.018 674.511 552.165 675.039C552.326 675.567 552.407 676.124 552.407 676.711H546.247V677.173C546.247 677.862 546.276 678.493 546.335 679.065C546.393 679.622 546.511 680.099 546.687 680.495C546.877 680.891 547.141 681.199 547.479 681.419C547.831 681.639 548.3 681.749 548.887 681.749C549.415 681.749 549.862 681.676 550.229 681.529C550.61 681.368 550.925 681.17 551.175 680.935C551.439 680.7 551.644 680.451 551.791 680.187C551.952 679.923 552.069 679.681 552.143 679.461L552.363 679.549C552.245 679.857 552.091 680.158 551.901 680.451C551.725 680.744 551.483 681.008 551.175 681.243C550.881 681.478 550.522 681.668 550.097 681.815C549.671 681.947 549.173 682.013 548.601 682.013ZM548.007 672.465C547.669 672.465 547.383 672.575 547.149 672.795C546.929 673 546.753 673.286 546.621 673.653C546.489 674.005 546.393 674.43 546.335 674.929C546.291 675.413 546.261 675.934 546.247 676.491H549.811C549.811 676.095 549.789 675.662 549.745 675.193C549.701 674.724 549.613 674.291 549.481 673.895C549.363 673.484 549.187 673.147 548.953 672.883C548.718 672.604 548.403 672.465 548.007 672.465ZM564.593 672.641H563.273V681.661H564.703V685.005H564.505C564.446 684.594 564.358 684.206 564.241 683.839C564.138 683.472 563.984 683.142 563.779 682.849C563.588 682.57 563.346 682.343 563.053 682.167C562.76 681.991 562.415 681.896 562.019 681.881H553.263V681.661H554.583V672.641H553.263V672.421H558.543V672.641H557.223V681.661H560.633V672.641H559.313V672.421H564.593V672.641ZM567.867 675.457C567.398 675.457 567.016 675.303 566.723 674.995C566.444 674.687 566.305 674.32 566.305 673.895C566.305 673.47 566.444 673.103 566.723 672.795C567.016 672.487 567.398 672.333 567.867 672.333C568.336 672.333 568.71 672.487 568.989 672.795C569.282 673.103 569.429 673.47 569.429 673.895C569.429 674.32 569.282 674.687 568.989 674.995C568.71 675.303 568.336 675.457 567.867 675.457ZM567.867 681.969C567.398 681.969 567.016 681.815 566.723 681.507C566.444 681.199 566.305 680.832 566.305 680.407C566.305 679.982 566.444 679.615 566.723 679.307C567.016 678.999 567.398 678.845 567.867 678.845C568.336 678.845 568.71 678.999 568.989 679.307C569.282 679.615 569.429 679.982 569.429 680.407C569.429 680.832 569.282 681.199 568.989 681.507C568.71 681.815 568.336 681.969 567.867 681.969ZM582.969 682.321L578.129 666.899V681.661H579.845V681.881H576.193V681.661H577.909V666.481H576.193V666.261H580.967L584.487 677.283L587.875 666.261H592.649V666.481H590.933V681.661H592.649V681.881H586.269V681.661H587.985V666.701L583.189 682.321H582.969ZM596.581 682.013C595.657 682.013 594.975 681.808 594.535 681.397C594.095 680.986 593.875 680.414 593.875 679.681C593.875 678.772 594.227 678.09 594.931 677.635C595.635 677.166 596.742 676.931 598.253 676.931H599.177V675.523C599.177 674.951 599.155 674.474 599.111 674.093C599.067 673.697 598.986 673.389 598.869 673.169C598.766 672.934 598.612 672.766 598.407 672.663C598.201 672.56 597.945 672.509 597.637 672.509C597.255 672.509 596.94 672.59 596.691 672.751C596.441 672.898 596.317 673.169 596.317 673.565C596.317 673.814 596.353 674.02 596.427 674.181C596.515 674.328 596.559 674.518 596.559 674.753C596.559 675.046 596.463 675.296 596.273 675.501C596.097 675.706 595.825 675.809 595.459 675.809C594.755 675.809 594.403 675.428 594.403 674.665C594.403 673.917 594.74 673.338 595.415 672.927C596.089 672.502 596.984 672.289 598.099 672.289C598.509 672.289 598.935 672.333 599.375 672.421C599.815 672.509 600.218 672.692 600.585 672.971C600.951 673.25 601.245 673.653 601.465 674.181C601.699 674.709 601.817 675.406 601.817 676.271V680.671C601.817 681.36 602.029 681.705 602.455 681.705C602.704 681.705 602.902 681.617 603.049 681.441C603.21 681.265 603.335 681.052 603.423 680.803L603.599 680.869C603.481 681.206 603.298 681.485 603.049 681.705C602.814 681.91 602.381 682.013 601.751 682.013C601.032 682.013 600.438 681.844 599.969 681.507C599.514 681.17 599.287 680.568 599.287 679.703V679.593H599.243C599.081 680.502 598.788 681.133 598.363 681.485C597.937 681.837 597.343 682.013 596.581 682.013ZM597.439 681.573C597.805 681.573 598.099 681.448 598.319 681.199C598.553 680.95 598.729 680.634 598.847 680.253C598.979 679.872 599.067 679.454 599.111 678.999C599.155 678.53 599.177 678.075 599.177 677.635V677.151H598.517C597.769 677.151 597.219 677.364 596.867 677.789C596.515 678.214 596.339 678.867 596.339 679.747C596.339 680.29 596.412 680.73 596.559 681.067C596.72 681.404 597.013 681.573 597.439 681.573ZM603.62 672.421H607.536V675.017H607.58C607.683 674.65 607.808 674.298 607.954 673.961C608.116 673.624 608.314 673.338 608.548 673.103C608.798 672.854 609.091 672.656 609.428 672.509C609.78 672.362 610.206 672.289 610.704 672.289C611.32 672.289 611.885 672.406 612.398 672.641C612.926 672.861 613.374 673.176 613.74 673.587C614.122 673.998 614.415 674.489 614.62 675.061C614.84 675.633 614.95 676.256 614.95 676.931C614.95 677.62 614.84 678.273 614.62 678.889C614.415 679.49 614.122 680.026 613.74 680.495C613.374 680.964 612.919 681.338 612.376 681.617C611.848 681.881 611.269 682.013 610.638 682.013C610.169 682.013 609.766 681.94 609.428 681.793C609.091 681.646 608.805 681.456 608.57 681.221C608.336 680.986 608.145 680.715 607.998 680.407C607.852 680.099 607.727 679.776 607.624 679.439H607.58V687.029H608.9V687.249H603.62V687.029H604.94V672.641H603.62V672.421ZM610.154 681.683C610.565 681.683 610.902 681.551 611.166 681.287C611.43 681.023 611.636 680.678 611.782 680.253C611.944 679.828 612.054 679.344 612.112 678.801C612.171 678.258 612.2 677.708 612.2 677.151C612.2 676.594 612.171 676.044 612.112 675.501C612.054 674.958 611.944 674.474 611.782 674.049C611.636 673.624 611.43 673.279 611.166 673.015C610.902 672.751 610.565 672.619 610.154 672.619C609.406 672.619 608.79 673.008 608.306 673.785C607.822 674.562 607.58 675.633 607.58 676.997V677.305C607.58 678.669 607.822 679.74 608.306 680.517C608.79 681.294 609.406 681.683 610.154 681.683ZM621.342 672.641H620.022V681.353L623.52 672.421H627.502V672.641H626.182V681.661H627.502V681.881H622.222V681.661H623.542V672.993L620.044 681.881H616.062V681.661H617.382V672.641H616.062V672.421H621.342V672.641ZM633.48 681.881H628.244V681.661H629.564V672.641H628.244V672.421H633.524V672.641H632.204V676.997H635.658V672.641H634.338V672.421H639.618V672.641H638.298V681.661H639.618V681.881H634.382V681.661H635.658V677.217H632.204V681.661H633.48V681.881ZM643.309 682.013C642.385 682.013 641.703 681.808 641.263 681.397C640.823 680.986 640.603 680.414 640.603 679.681C640.603 678.772 640.955 678.09 641.659 677.635C642.363 677.166 643.471 676.931 644.981 676.931H645.905V675.523C645.905 674.951 645.883 674.474 645.839 674.093C645.795 673.697 645.715 673.389 645.597 673.169C645.495 672.934 645.341 672.766 645.135 672.663C644.93 672.56 644.673 672.509 644.365 672.509C643.984 672.509 643.669 672.59 643.419 672.751C643.17 672.898 643.045 673.169 643.045 673.565C643.045 673.814 643.082 674.02 643.155 674.181C643.243 674.328 643.287 674.518 643.287 674.753C643.287 675.046 643.192 675.296 643.001 675.501C642.825 675.706 642.554 675.809 642.187 675.809C641.483 675.809 641.131 675.428 641.131 674.665C641.131 673.917 641.469 673.338 642.143 672.927C642.818 672.502 643.713 672.289 644.827 672.289C645.238 672.289 645.663 672.333 646.103 672.421C646.543 672.509 646.947 672.692 647.313 672.971C647.68 673.25 647.973 673.653 648.193 674.181C648.428 674.709 648.545 675.406 648.545 676.271V680.671C648.545 681.36 648.758 681.705 649.183 681.705C649.433 681.705 649.631 681.617 649.777 681.441C649.939 681.265 650.063 681.052 650.151 680.803L650.327 680.869C650.21 681.206 650.027 681.485 649.777 681.705C649.543 681.91 649.11 682.013 648.479 682.013C647.761 682.013 647.167 681.844 646.697 681.507C646.243 681.17 646.015 680.568 646.015 679.703V679.593H645.971C645.81 680.502 645.517 681.133 645.091 681.485C644.666 681.837 644.072 682.013 643.309 682.013ZM644.167 681.573C644.534 681.573 644.827 681.448 645.047 681.199C645.282 680.95 645.458 680.634 645.575 680.253C645.707 679.872 645.795 679.454 645.839 678.999C645.883 678.53 645.905 678.075 645.905 677.635V677.151H645.245C644.497 677.151 643.947 677.364 643.595 677.789C643.243 678.214 643.067 678.867 643.067 679.747C643.067 680.29 643.141 680.73 643.287 681.067C643.449 681.404 643.742 681.573 644.167 681.573ZM662.332 682.321L657.492 666.899V681.661H659.208V681.881H655.556V681.661H657.272V666.481H655.556V666.261H660.33L663.85 677.283L667.238 666.261H672.012V666.481H670.296V681.661H672.012V681.881H665.632V681.661H667.348V666.701L662.552 682.321H662.332ZM678.276 682.013C677.411 682.013 676.663 681.866 676.032 681.573C675.416 681.265 674.903 680.876 674.492 680.407C674.096 679.923 673.803 679.395 673.612 678.823C673.421 678.251 673.326 677.694 673.326 677.151C673.326 676.608 673.421 676.051 673.612 675.479C673.803 674.907 674.096 674.386 674.492 673.917C674.903 673.433 675.416 673.044 676.032 672.751C676.663 672.443 677.411 672.289 678.276 672.289C679.141 672.289 679.882 672.443 680.498 672.751C681.129 673.044 681.642 673.433 682.038 673.917C682.449 674.386 682.749 674.907 682.94 675.479C683.131 676.051 683.226 676.608 683.226 677.151C683.226 677.694 683.131 678.251 682.94 678.823C682.749 679.395 682.449 679.923 682.038 680.407C681.642 680.876 681.129 681.265 680.498 681.573C679.882 681.866 679.141 682.013 678.276 682.013ZM678.276 681.837C678.789 681.837 679.193 681.712 679.486 681.463C679.779 681.199 679.999 680.854 680.146 680.429C680.293 679.989 680.381 679.49 680.41 678.933C680.454 678.361 680.476 677.767 680.476 677.151C680.476 676.535 680.454 675.948 680.41 675.391C680.381 674.819 680.293 674.32 680.146 673.895C679.999 673.455 679.779 673.11 679.486 672.861C679.193 672.597 678.789 672.465 678.276 672.465C677.763 672.465 677.359 672.597 677.066 672.861C676.773 673.11 676.553 673.455 676.406 673.895C676.259 674.32 676.164 674.819 676.12 675.391C676.091 675.948 676.076 676.535 676.076 677.151C676.076 677.767 676.091 678.361 676.12 678.933C676.164 679.49 676.259 679.989 676.406 680.429C676.553 680.854 676.773 681.199 677.066 681.463C677.359 681.712 677.763 681.837 678.276 681.837ZM694.725 681.881H689.445V681.661H690.765V672.641H687.949C687.949 673.609 687.942 674.496 687.927 675.303C687.912 676.11 687.868 676.924 687.795 677.745C687.751 678.214 687.692 678.706 687.619 679.219C687.546 679.718 687.428 680.18 687.267 680.605C687.12 681.016 686.908 681.353 686.629 681.617C686.365 681.881 686.028 682.013 685.617 682.013C685.148 682.013 684.752 681.866 684.429 681.573C684.121 681.265 683.967 680.869 683.967 680.385C683.967 679.945 684.084 679.6 684.319 679.351C684.554 679.102 684.84 678.977 685.177 678.977C685.47 678.977 685.69 679.065 685.837 679.241C685.984 679.402 686.057 679.622 686.057 679.901C686.057 680.062 686.035 680.202 685.991 680.319C685.947 680.436 685.896 680.554 685.837 680.671C685.778 680.788 685.727 680.906 685.683 681.023C685.639 681.14 685.617 681.265 685.617 681.397C685.617 681.514 685.646 681.595 685.705 681.639C685.764 681.668 685.83 681.683 685.903 681.683C686.211 681.683 686.468 681.536 686.673 681.243C686.893 680.935 687.069 680.554 687.201 680.099C687.318 679.732 687.399 679.344 687.443 678.933C687.502 678.522 687.546 678.104 687.575 677.679C687.634 676.872 687.67 676.073 687.685 675.281C687.7 674.489 687.707 673.609 687.707 672.641H686.387V672.421H694.725V672.641H693.405V681.661H694.725V681.881ZM705.061 672.641H703.741V681.661H705.171V685.005H704.973C704.915 684.594 704.827 684.198 704.709 683.817C704.592 683.436 704.431 683.098 704.225 682.805C704.02 682.526 703.763 682.299 703.455 682.123C703.162 681.962 702.803 681.881 702.377 681.881H698.197C697.772 681.881 697.405 681.962 697.097 682.123C696.789 682.284 696.525 682.504 696.305 682.783C696.085 683.076 695.909 683.406 695.777 683.773C695.66 684.154 695.572 684.565 695.513 685.005H695.315L695.337 681.661H696.085C696.408 681.632 696.679 681.456 696.899 681.133C697.119 680.81 697.295 680.429 697.427 679.989C697.574 679.534 697.684 679.05 697.757 678.537C697.831 678.024 697.882 677.554 697.911 677.129C697.97 676.352 698.007 675.626 698.021 674.951C698.036 674.262 698.043 673.492 698.043 672.641H696.723V672.421H705.061V672.641ZM698.153 677.107C698.124 677.547 698.08 677.994 698.021 678.449C697.963 678.889 697.875 679.314 697.757 679.725C697.655 680.136 697.523 680.51 697.361 680.847C697.215 681.184 697.039 681.456 696.833 681.661H701.101V672.641H698.285C698.285 673.066 698.285 673.462 698.285 673.829C698.285 674.196 698.278 674.555 698.263 674.907C698.249 675.259 698.234 675.618 698.219 675.985C698.205 676.337 698.183 676.711 698.153 677.107ZM711.126 682.013C710.26 682.013 709.512 681.866 708.882 681.573C708.266 681.265 707.752 680.876 707.342 680.407C706.946 679.923 706.652 679.395 706.462 678.823C706.271 678.251 706.176 677.694 706.176 677.151C706.176 676.608 706.271 676.051 706.462 675.479C706.652 674.907 706.946 674.386 707.342 673.917C707.752 673.433 708.266 673.044 708.882 672.751C709.512 672.443 710.26 672.289 711.126 672.289C711.991 672.289 712.732 672.443 713.348 672.751C713.978 673.044 714.492 673.433 714.888 673.917C715.298 674.386 715.599 674.907 715.79 675.479C715.98 676.051 716.076 676.608 716.076 677.151C716.076 677.694 715.98 678.251 715.79 678.823C715.599 679.395 715.298 679.923 714.888 680.407C714.492 680.876 713.978 681.265 713.348 681.573C712.732 681.866 711.991 682.013 711.126 682.013ZM711.126 681.837C711.639 681.837 712.042 681.712 712.336 681.463C712.629 681.199 712.849 680.854 712.996 680.429C713.142 679.989 713.23 679.49 713.26 678.933C713.304 678.361 713.326 677.767 713.326 677.151C713.326 676.535 713.304 675.948 713.26 675.391C713.23 674.819 713.142 674.32 712.996 673.895C712.849 673.455 712.629 673.11 712.336 672.861C712.042 672.597 711.639 672.465 711.126 672.465C710.612 672.465 710.209 672.597 709.916 672.861C709.622 673.11 709.402 673.455 709.256 673.895C709.109 674.32 709.014 674.819 708.97 675.391C708.94 675.948 708.926 676.535 708.926 677.151C708.926 677.767 708.94 678.361 708.97 678.933C709.014 679.49 709.109 679.989 709.256 680.429C709.402 680.854 709.622 681.199 709.916 681.463C710.209 681.712 710.612 681.837 711.126 681.837ZM721.898 672.421C723.365 672.421 724.45 672.597 725.154 672.949C725.858 673.286 726.21 673.851 726.21 674.643C726.21 675.288 725.924 675.809 725.352 676.205C724.78 676.586 724.018 676.814 723.064 676.887C723.592 676.916 724.069 676.982 724.494 677.085C724.934 677.188 725.308 677.334 725.616 677.525C725.939 677.716 726.188 677.95 726.364 678.229C726.54 678.493 726.628 678.816 726.628 679.197C726.628 680.033 726.254 680.693 725.506 681.177C724.773 681.646 723.578 681.881 721.92 681.881H717.146V681.661H718.466V672.641H717.146V672.421H721.898ZM721.106 677.041V681.661H721.92C722.727 681.661 723.292 681.441 723.614 681.001C723.952 680.546 724.12 679.974 724.12 679.285C724.12 678.64 723.937 678.104 723.57 677.679C723.218 677.254 722.617 677.041 721.766 677.041H721.106ZM721.106 672.641V676.821H721.81C722.485 676.821 722.969 676.623 723.262 676.227C723.57 675.816 723.724 675.303 723.724 674.687C723.724 673.323 723.094 672.641 721.832 672.641H721.106ZM730.622 682.013C729.698 682.013 729.016 681.808 728.576 681.397C728.136 680.986 727.916 680.414 727.916 679.681C727.916 678.772 728.268 678.09 728.972 677.635C729.676 677.166 730.783 676.931 732.294 676.931H733.218V675.523C733.218 674.951 733.196 674.474 733.152 674.093C733.108 673.697 733.027 673.389 732.91 673.169C732.807 672.934 732.653 672.766 732.448 672.663C732.242 672.56 731.986 672.509 731.678 672.509C731.296 672.509 730.981 672.59 730.732 672.751C730.482 672.898 730.358 673.169 730.358 673.565C730.358 673.814 730.394 674.02 730.468 674.181C730.556 674.328 730.6 674.518 730.6 674.753C730.6 675.046 730.504 675.296 730.314 675.501C730.138 675.706 729.866 675.809 729.5 675.809C728.796 675.809 728.444 675.428 728.444 674.665C728.444 673.917 728.781 673.338 729.456 672.927C730.13 672.502 731.025 672.289 732.14 672.289C732.55 672.289 732.976 672.333 733.416 672.421C733.856 672.509 734.259 672.692 734.626 672.971C734.992 673.25 735.286 673.653 735.506 674.181C735.74 674.709 735.858 675.406 735.858 676.271V680.671C735.858 681.36 736.07 681.705 736.496 681.705C736.745 681.705 736.943 681.617 737.09 681.441C737.251 681.265 737.376 681.052 737.464 680.803L737.64 680.869C737.522 681.206 737.339 681.485 737.09 681.705C736.855 681.91 736.422 682.013 735.792 682.013C735.073 682.013 734.479 681.844 734.01 681.507C733.555 681.17 733.328 680.568 733.328 679.703V679.593H733.284C733.122 680.502 732.829 681.133 732.404 681.485C731.978 681.837 731.384 682.013 730.622 682.013ZM731.48 681.573C731.846 681.573 732.14 681.448 732.36 681.199C732.594 680.95 732.77 680.634 732.888 680.253C733.02 679.872 733.108 679.454 733.152 678.999C733.196 678.53 733.218 678.075 733.218 677.635V677.151H732.558C731.81 677.151 731.26 677.364 730.908 677.789C730.556 678.214 730.38 678.867 730.38 679.747C730.38 680.29 730.453 680.73 730.6 681.067C730.761 681.404 731.054 681.573 731.48 681.573ZM743.007 681.881H737.771V681.661H739.091V672.641H737.771V672.421H743.051V672.641H741.731V676.997H745.185V672.641H743.865V672.421H749.145V672.641H747.825V681.661H749.145V681.881H743.909V681.661H745.185V677.217H741.731V681.661H743.007V681.881ZM752.837 682.013C751.913 682.013 751.231 681.808 750.791 681.397C750.351 680.986 750.131 680.414 750.131 679.681C750.131 678.772 750.483 678.09 751.187 677.635C751.891 677.166 752.998 676.931 754.509 676.931H755.433V675.523C755.433 674.951 755.411 674.474 755.367 674.093C755.323 673.697 755.242 673.389 755.125 673.169C755.022 672.934 754.868 672.766 754.663 672.663C754.457 672.56 754.201 672.509 753.893 672.509C753.511 672.509 753.196 672.59 752.947 672.751C752.697 672.898 752.573 673.169 752.573 673.565C752.573 673.814 752.609 674.02 752.683 674.181C752.771 674.328 752.815 674.518 752.815 674.753C752.815 675.046 752.719 675.296 752.529 675.501C752.353 675.706 752.081 675.809 751.715 675.809C751.011 675.809 750.659 675.428 750.659 674.665C750.659 673.917 750.996 673.338 751.671 672.927C752.345 672.502 753.24 672.289 754.355 672.289C754.765 672.289 755.191 672.333 755.631 672.421C756.071 672.509 756.474 672.692 756.841 672.971C757.207 673.25 757.501 673.653 757.721 674.181C757.955 674.709 758.073 675.406 758.073 676.271V680.671C758.073 681.36 758.285 681.705 758.711 681.705C758.96 681.705 759.158 681.617 759.305 681.441C759.466 681.265 759.591 681.052 759.679 680.803L759.855 680.869C759.737 681.206 759.554 681.485 759.305 681.705C759.07 681.91 758.637 682.013 758.007 682.013C757.288 682.013 756.694 681.844 756.225 681.507C755.77 681.17 755.543 680.568 755.543 679.703V679.593H755.499C755.337 680.502 755.044 681.133 754.619 681.485C754.193 681.837 753.599 682.013 752.837 682.013ZM753.695 681.573C754.061 681.573 754.355 681.448 754.575 681.199C754.809 680.95 754.985 680.634 755.103 680.253C755.235 679.872 755.323 679.454 755.367 678.999C755.411 678.53 755.433 678.075 755.433 677.635V677.151H754.773C754.025 677.151 753.475 677.364 753.123 677.789C752.771 678.214 752.595 678.867 752.595 679.747C752.595 680.29 752.668 680.73 752.815 681.067C752.976 681.404 753.269 681.573 753.695 681.573ZM579.051 716.013C578.186 716.013 577.409 715.8 576.719 715.375C576.045 714.95 575.473 714.378 575.003 713.659C574.534 712.926 574.175 712.082 573.925 711.129C573.676 710.161 573.551 709.142 573.551 708.071C573.551 707 573.676 705.988 573.925 705.035C574.175 704.067 574.534 703.224 575.003 702.505C575.473 701.772 576.045 701.192 576.719 700.767C577.409 700.342 578.186 700.129 579.051 700.129C579.917 700.129 580.687 700.342 581.361 700.767C582.051 701.192 582.63 701.772 583.099 702.505C583.569 703.224 583.928 704.067 584.177 705.035C584.427 705.988 584.551 707 584.551 708.071C584.551 709.142 584.427 710.161 584.177 711.129C583.928 712.082 583.569 712.926 583.099 713.659C582.63 714.378 582.051 714.95 581.361 715.375C580.687 715.8 579.917 716.013 579.051 716.013ZM579.051 715.859C579.594 715.859 580.027 715.683 580.349 715.331C580.687 714.979 580.951 714.473 581.141 713.813C581.332 713.138 581.457 712.324 581.515 711.371C581.589 710.403 581.625 709.303 581.625 708.071C581.625 706.839 581.589 705.746 581.515 704.793C581.457 703.825 581.332 703.011 581.141 702.351C580.951 701.676 580.687 701.163 580.349 700.811C580.027 700.459 579.594 700.283 579.051 700.283C578.509 700.283 578.069 700.459 577.731 700.811C577.394 701.163 577.13 701.676 576.939 702.351C576.763 703.011 576.639 703.825 576.565 704.793C576.507 705.746 576.477 706.839 576.477 708.071C576.477 709.303 576.507 710.403 576.565 711.371C576.639 712.324 576.763 713.138 576.939 713.813C577.13 714.473 577.394 714.979 577.731 715.331C578.069 715.683 578.509 715.859 579.051 715.859ZM586.479 715.661H588.195V700.811H586.237V700.591H588.327C589.192 700.591 589.793 700.532 590.131 700.415C590.468 700.298 590.695 700.114 590.813 699.865H590.967V715.661H592.683V715.881H586.479V715.661ZM595.844 715.969C595.375 715.969 594.993 715.815 594.7 715.507C594.421 715.199 594.282 714.832 594.282 714.407C594.282 713.982 594.421 713.615 594.7 713.307C594.993 712.999 595.375 712.845 595.844 712.845C596.313 712.845 596.687 712.999 596.966 713.307C597.259 713.615 597.406 713.982 597.406 714.407C597.406 714.832 597.259 715.199 596.966 715.507C596.687 715.815 596.313 715.969 595.844 715.969ZM604.16 715.661H605.876V700.811H603.918V700.591H606.008C606.874 700.591 607.475 700.532 607.812 700.415C608.15 700.298 608.377 700.114 608.494 699.865H608.648V715.661H610.364V715.881H604.16V715.661ZM617.53 716.013C616.664 716.013 615.887 715.8 615.198 715.375C614.523 714.95 613.951 714.378 613.482 713.659C613.012 712.926 612.653 712.082 612.404 711.129C612.154 710.161 612.03 709.142 612.03 708.071C612.03 707 612.154 705.988 612.404 705.035C612.653 704.067 613.012 703.224 613.482 702.505C613.951 701.772 614.523 701.192 615.198 700.767C615.887 700.342 616.664 700.129 617.53 700.129C618.395 700.129 619.165 700.342 619.84 700.767C620.529 701.192 621.108 701.772 621.578 702.505C622.047 703.224 622.406 704.067 622.656 705.035C622.905 705.988 623.03 707 623.03 708.071C623.03 709.142 622.905 710.161 622.656 711.129C622.406 712.082 622.047 712.926 621.578 713.659C621.108 714.378 620.529 714.95 619.84 715.375C619.165 715.8 618.395 716.013 617.53 716.013ZM617.53 715.859C618.072 715.859 618.505 715.683 618.828 715.331C619.165 714.979 619.429 714.473 619.62 713.813C619.81 713.138 619.935 712.324 619.994 711.371C620.067 710.403 620.104 709.303 620.104 708.071C620.104 706.839 620.067 705.746 619.994 704.793C619.935 703.825 619.81 703.011 619.62 702.351C619.429 701.676 619.165 701.163 618.828 700.811C618.505 700.459 618.072 700.283 617.53 700.283C616.987 700.283 616.547 700.459 616.21 700.811C615.872 701.163 615.608 701.676 615.418 702.351C615.242 703.011 615.117 703.825 615.044 704.793C614.985 705.746 614.956 706.839 614.956 708.071C614.956 709.303 614.985 710.403 615.044 711.371C615.117 712.324 615.242 713.138 615.418 713.813C615.608 714.473 615.872 714.979 616.21 715.331C616.547 715.683 616.987 715.859 617.53 715.859ZM626.201 715.969C625.732 715.969 625.351 715.815 625.057 715.507C624.779 715.199 624.639 714.832 624.639 714.407C624.639 713.982 624.779 713.615 625.057 713.307C625.351 712.999 625.732 712.845 626.201 712.845C626.671 712.845 627.045 712.999 627.323 713.307C627.617 713.615 627.763 713.982 627.763 714.407C627.763 714.832 627.617 715.199 627.323 715.507C627.045 715.815 626.671 715.969 626.201 715.969ZM634.254 715.771L637.488 712.295C638.661 711.019 639.497 709.714 639.996 708.379C640.509 707.03 640.766 705.666 640.766 704.287C640.766 703.744 640.722 703.246 640.634 702.791C640.56 702.336 640.421 701.948 640.216 701.625C640.01 701.288 639.739 701.024 639.402 700.833C639.064 700.642 638.632 700.547 638.104 700.547C637.62 700.547 637.18 700.635 636.784 700.811C636.388 700.972 636.05 701.2 635.772 701.493C635.493 701.772 635.28 702.102 635.134 702.483C634.987 702.864 634.914 703.275 634.914 703.715C634.914 704.243 635.009 704.668 635.2 704.991C635.39 705.314 635.603 705.57 635.838 705.761L635.684 705.915C635.376 705.651 635.126 705.343 634.936 704.991C634.76 704.624 634.672 704.184 634.672 703.671C634.672 703.172 634.76 702.71 634.936 702.285C635.126 701.845 635.405 701.471 635.772 701.163C636.138 700.84 636.593 700.591 637.136 700.415C637.678 700.224 638.316 700.129 639.05 700.129C640.487 700.129 641.609 700.474 642.416 701.163C643.237 701.838 643.648 702.732 643.648 703.847C643.648 704.331 643.552 704.822 643.362 705.321C643.186 705.805 642.878 706.355 642.438 706.971C642.012 707.572 641.448 708.276 640.744 709.083C640.04 709.89 639.167 710.85 638.126 711.965L636.498 713.703H641.03C641.587 713.703 642.049 713.666 642.416 713.593C642.797 713.52 643.105 713.402 643.34 713.241C643.589 713.08 643.772 712.874 643.89 712.625C644.022 712.361 644.124 712.038 644.198 711.657L644.396 711.679L643.868 715.881H634.364L634.254 715.771ZM651.84 716.013C650.975 716.013 650.198 715.8 649.508 715.375C648.834 714.95 648.262 714.378 647.792 713.659C647.323 712.926 646.964 712.082 646.714 711.129C646.465 710.161 646.34 709.142 646.34 708.071C646.34 707 646.465 705.988 646.714 705.035C646.964 704.067 647.323 703.224 647.792 702.505C648.262 701.772 648.834 701.192 649.508 700.767C650.198 700.342 650.975 700.129 651.84 700.129C652.706 700.129 653.476 700.342 654.15 700.767C654.84 701.192 655.419 701.772 655.888 702.505C656.358 703.224 656.717 704.067 656.966 705.035C657.216 705.988 657.34 707 657.34 708.071C657.34 709.142 657.216 710.161 656.966 711.129C656.717 712.082 656.358 712.926 655.888 713.659C655.419 714.378 654.84 714.95 654.15 715.375C653.476 715.8 652.706 716.013 651.84 716.013ZM651.84 715.859C652.383 715.859 652.816 715.683 653.138 715.331C653.476 714.979 653.74 714.473 653.93 713.813C654.121 713.138 654.246 712.324 654.304 711.371C654.378 710.403 654.414 709.303 654.414 708.071C654.414 706.839 654.378 705.746 654.304 704.793C654.246 703.825 654.121 703.011 653.93 702.351C653.74 701.676 653.476 701.163 653.138 700.811C652.816 700.459 652.383 700.283 651.84 700.283C651.298 700.283 650.858 700.459 650.52 700.811C650.183 701.163 649.919 701.676 649.728 702.351C649.552 703.011 649.428 703.825 649.354 704.793C649.296 705.746 649.266 706.839 649.266 708.071C649.266 709.303 649.296 710.403 649.354 711.371C649.428 712.324 649.552 713.138 649.728 713.813C649.919 714.473 650.183 714.979 650.52 715.331C650.858 715.683 651.298 715.859 651.84 715.859ZM659.004 715.771L662.238 712.295C663.411 711.019 664.247 709.714 664.746 708.379C665.259 707.03 665.516 705.666 665.516 704.287C665.516 703.744 665.472 703.246 665.384 702.791C665.31 702.336 665.171 701.948 664.966 701.625C664.76 701.288 664.489 701.024 664.152 700.833C663.814 700.642 663.382 700.547 662.854 700.547C662.37 700.547 661.93 700.635 661.534 700.811C661.138 700.972 660.8 701.2 660.522 701.493C660.243 701.772 660.03 702.102 659.884 702.483C659.737 702.864 659.664 703.275 659.664 703.715C659.664 704.243 659.759 704.668 659.95 704.991C660.14 705.314 660.353 705.57 660.588 705.761L660.434 705.915C660.126 705.651 659.876 705.343 659.686 704.991C659.51 704.624 659.422 704.184 659.422 703.671C659.422 703.172 659.51 702.71 659.686 702.285C659.876 701.845 660.155 701.471 660.522 701.163C660.888 700.84 661.343 700.591 661.886 700.415C662.428 700.224 663.066 700.129 663.8 700.129C665.237 700.129 666.359 700.474 667.166 701.163C667.987 701.838 668.398 702.732 668.398 703.847C668.398 704.331 668.302 704.822 668.112 705.321C667.936 705.805 667.628 706.355 667.188 706.971C666.762 707.572 666.198 708.276 665.494 709.083C664.79 709.89 663.917 710.85 662.876 711.965L661.248 713.703H665.78C666.337 713.703 666.799 713.666 667.166 713.593C667.547 713.52 667.855 713.402 668.09 713.241C668.339 713.08 668.522 712.874 668.64 712.625C668.772 712.361 668.874 712.038 668.948 711.657L669.146 711.679L668.618 715.881H659.114L659.004 715.771ZM670.562 715.771L673.796 712.295C674.97 711.019 675.806 709.714 676.304 708.379C676.818 707.03 677.074 705.666 677.074 704.287C677.074 703.744 677.03 703.246 676.942 702.791C676.869 702.336 676.73 701.948 676.524 701.625C676.319 701.288 676.048 701.024 675.71 700.833C675.373 700.642 674.94 700.547 674.412 700.547C673.928 700.547 673.488 700.635 673.092 700.811C672.696 700.972 672.359 701.2 672.08 701.493C671.802 701.772 671.589 702.102 671.442 702.483C671.296 702.864 671.222 703.275 671.222 703.715C671.222 704.243 671.318 704.668 671.508 704.991C671.699 705.314 671.912 705.57 672.146 705.761L671.992 705.915C671.684 705.651 671.435 705.343 671.244 704.991C671.068 704.624 670.98 704.184 670.98 703.671C670.98 703.172 671.068 702.71 671.244 702.285C671.435 701.845 671.714 701.471 672.08 701.163C672.447 700.84 672.902 700.591 673.444 700.415C673.987 700.224 674.625 700.129 675.358 700.129C676.796 700.129 677.918 700.474 678.724 701.163C679.546 701.838 679.956 702.732 679.956 703.847C679.956 704.331 679.861 704.822 679.67 705.321C679.494 705.805 679.186 706.355 678.746 706.971C678.321 707.572 677.756 708.276 677.052 709.083C676.348 709.89 675.476 710.85 674.434 711.965L672.806 713.703H677.338C677.896 713.703 678.358 713.666 678.724 713.593C679.106 713.52 679.414 713.402 679.648 713.241C679.898 713.08 680.081 712.874 680.198 712.625C680.33 712.361 680.433 712.038 680.506 711.657L680.704 711.679L680.176 715.881H670.672L670.562 715.771Z" fill="#1C1C1C"/>
<path d="M318.633 405.965L300.049 382.89C305.861 382.43 311.668 383.833 316.626 386.895C322.792 390.915 327.167 397.153 328.842 404.31C341.453 432.451 347.423 463.105 346.292 493.911C345.914 501.823 345.04 509.705 343.675 517.508L330.761 519.163C328.326 512.809 326.457 506.253 325.177 499.571C319.157 468.746 328.842 452.027 322.385 420.332C321.454 415.465 320.2 410.666 318.633 405.965Z" fill="#E2C4BB"/>
<path d="M187.232 517.682L162.191 507.321C161.066 485.278 162.324 463.178 165.943 441.404C167.6 431.391 169.607 421.987 171.876 413.279C174.662 410.972 178.011 409.443 181.582 408.846C185.153 408.25 188.818 408.608 192.205 409.883C196.644 411.827 200.214 415.328 202.239 419.722C197.295 452.405 192.293 485.058 187.232 517.682Z" fill="#E2C4BB"/>
<path d="M172.748 620.083L162.453 619.561C155.13 589.982 153.414 559.298 157.392 529.089C158.613 520.382 160.184 512.545 162.016 504.969L188.192 507.495C189.056 514.25 189.348 521.066 189.064 527.87C187.494 559.304 174.057 573.15 172.748 605.542C172.484 610.385 172.484 615.24 172.748 620.083Z" fill="#E2C4BB"/>
<path d="M162.714 619.561C159.735 624.587 157.778 630.149 156.956 635.931C155.373 647.03 157.884 658.325 164.023 667.713C168.647 674.418 177.111 681.994 181.473 679.991C182.344 679.511 183.051 678.782 183.502 677.897C183.953 677.012 184.128 676.013 184.004 675.028C183.393 671.109 176.936 671.632 173.184 666.93C168.298 660.66 171.265 648.731 174.057 648.296C175.54 648.296 177.634 650.647 178.245 653.172C179.467 658.048 175.191 661.444 176.762 663.708C177.676 664.534 178.834 665.04 180.062 665.15C181.29 665.26 182.521 664.968 183.567 664.318C189.413 660.486 184.091 642.374 179.99 632.796C178.153 628.326 175.842 624.064 173.097 620.083L162.714 619.561Z" fill="#E2C4BB"/>
<path d="M199.535 502.618H145.526C147.271 481.882 151.459 461.423 158.003 441.665C162.294 428.603 167.634 415.907 173.97 403.7C176.302 401.563 179.067 399.952 182.078 398.975C185.089 397.999 188.275 397.68 191.42 398.041C195.469 398.748 199.224 400.614 202.229 403.412C205.234 406.21 207.36 409.82 208.347 413.801L199.535 502.618Z" fill="white"/>
<path d="M330.238 421.899L171.614 420.941C172.832 414.08 176.084 407.74 180.95 402.743C192.729 391.336 207.562 396.996 219.515 388.027C225.797 383.325 232.516 373.747 233.388 352.761H235.744L250.315 351.804L264.712 352.761H267.155C268.027 373.747 274.658 383.325 281.028 388.027C292.894 396.735 307.203 391.51 319.506 402.743C324.942 407.898 328.684 414.578 330.238 421.899Z" fill="#E2C4BB"/>
<path d="M257.47 278.399C254.567 278.148 251.648 278.148 248.745 278.399C242.079 279.373 235.999 282.741 231.646 287.872C227.292 293.002 224.964 299.541 225.099 306.263V334.737C227.018 344.348 232.308 352.962 240.019 359.031C245.133 362.918 251.125 365.489 257.47 366.519H258.953C265.122 365.435 270.932 362.864 275.88 359.031C283.591 352.962 288.881 344.348 290.8 334.737V306.263C290.823 299.492 288.343 292.951 283.836 287.89C279.328 282.83 273.11 279.605 266.369 278.834C263.423 278.414 260.443 278.268 257.47 278.399Z" fill="#E2C4BB"/>
<path d="M238.711 755.921C238.621 761.32 236.432 766.473 232.606 770.291C228.78 774.109 223.616 776.294 218.206 776.384C214.031 776.273 209.98 774.944 206.553 772.561C203.126 770.178 200.474 766.845 198.924 762.974C198.924 759.926 199.535 756.792 199.884 753.57C200.233 750.348 200.32 747.736 200.494 744.863C202.463 742.021 205.061 739.671 208.088 737.994C211.114 736.318 214.487 735.361 217.945 735.197C223.438 735.243 228.693 737.44 232.578 741.317C236.463 745.194 238.665 750.439 238.711 755.921Z" fill="#E2C4BB"/>
<path d="M236.529 939.912L220.213 935.906C220.213 932.336 220.213 926.763 220.213 919.884C217.159 867.639 194.91 846.741 193.601 805.467C193.188 791.271 195.194 777.109 199.535 763.584L239.06 757.314C239.758 795.627 238.536 825.407 237.14 846.131C236.442 857.625 234.959 876.956 235.308 903.688C235.133 918.926 235.919 931.465 236.529 939.912Z" fill="#E2C4BB"/>
<path d="M241.241 969.952H200.145C198.915 968.336 198.353 966.31 198.575 964.293C199.36 960.461 204.333 958.894 207.3 957.414C210.915 955.045 213.968 951.916 216.243 948.246C218.519 944.575 219.964 940.453 220.475 936.167L236.442 937.735C238.013 943.569 239.409 949.142 240.805 954.627C241.985 958.457 242.429 962.475 242.113 966.47C241.677 967.776 241.415 969.082 241.241 969.952Z" fill="#E2C4BB"/>
<path d="M302.928 559.13C297.665 550.104 291.37 541.717 284.169 534.14C288.095 513.764 291.934 493.388 295.861 473.187C299.659 471.338 302.864 468.467 305.114 464.897C307.365 461.328 308.572 457.202 308.599 452.985C308.578 447.426 306.46 442.079 302.666 438.008C303.713 432.609 304.76 427.211 305.72 421.899C302.025 417.47 297.45 413.852 292.283 411.276C285.366 408.278 277.873 406.833 270.334 407.043C262.796 407.254 255.396 409.115 248.657 412.495C241.902 409.172 234.507 407.343 226.978 407.132C219.449 406.922 211.963 408.335 205.031 411.276C199.88 413.875 195.309 417.489 191.595 421.899C192.642 427.211 193.601 432.609 194.648 438.008C190.855 442.079 188.737 447.426 188.715 452.985C188.759 457.187 189.973 461.295 192.223 464.847C194.473 468.4 197.669 471.257 201.454 473.1L213.233 534.052C206.031 541.65 199.709 550.033 194.387 559.043C184.568 576.347 178.616 595.566 176.936 615.381C191.152 621.219 205.996 625.397 221.173 627.833C229.83 629.271 238.576 630.114 247.349 630.358C247.349 625.743 249.181 625.743 249.53 630.358C258.448 630.134 267.341 629.291 276.142 627.833C291.553 625.478 306.634 621.328 321.076 615.468C319.224 595.591 313.029 576.361 302.928 559.13Z" fill="#E2C4BB"/>
<path d="M330.936 761.146C332.169 766.097 331.568 771.327 329.243 775.871C326.918 780.415 323.026 783.968 318.284 785.875C314.656 787.255 310.727 787.651 306.896 787.024C303.064 786.397 299.468 784.769 296.471 782.305L293.243 771.159C292.632 769.157 289.84 759.404 289.229 757.401C292.709 752.505 297.806 748.991 303.626 747.475C309.066 746.03 314.847 746.622 319.879 749.141C324.91 751.66 328.844 755.93 330.936 761.146Z" fill="#E2C4BB"/>
<path d="M325.788 758.707L289.229 757.401C273.874 728.317 263.02 697.08 257.034 664.753C254.207 649.369 252.515 633.799 251.973 618.167L321.076 615.468C325.311 647.863 327.438 680.498 327.446 713.167C327.184 728.928 326.66 744.166 325.788 758.707Z" fill="#E2C4BB"/>
<path d="M364.179 933.294L351.615 939.302C348.124 932.075 342.889 920.494 334.862 906.649C311.304 863.982 298.478 852.052 293.941 827.41C291.234 811.963 292.19 796.098 296.733 781.086L331.634 764.541C335.386 795.279 340.359 827.932 347.601 862.327C352.662 887.231 358.246 911.002 364.179 933.294Z" fill="#E2C4BB"/>
<path d="M413.651 970.998H341.493C340.288 966.668 340.288 962.092 341.493 957.762C341.97 956.398 342.584 955.085 343.326 953.844C346.508 947.385 348.432 940.382 348.997 933.207L362.783 931.378C380.233 957.936 390.093 963.248 395.938 962.899C400.16 962.252 404.476 963.083 408.154 965.251C410.453 966.66 412.346 968.64 413.651 970.998Z" fill="#E2C4BB"/>
<path d="M243.858 934.513H190.199C176.936 786.485 173.446 675.899 174.755 631.664C174.149 602.963 182.504 574.784 198.662 551.032C203.156 544.866 208.305 539.202 214.018 534.14L260 592.916L243.858 934.513Z" fill="#D33A27"/>
<path d="M367.582 927.373L302.055 931.901C284.198 833.853 266.34 735.777 248.483 637.672L213.582 534.14H284.082C292.064 539.956 299.148 546.909 305.109 554.777C326.922 583.773 334.775 719.349 339.487 764.629L367.582 927.373Z" fill="#D33A27"/>
<path d="M255.812 678.946C255.549 678.947 255.295 678.849 255.101 678.671C254.907 678.494 254.787 678.25 254.765 677.988L249.879 642.635C249.854 642.498 249.857 642.357 249.887 642.221C249.918 642.085 249.976 641.956 250.057 641.842C250.138 641.728 250.242 641.632 250.361 641.559C250.48 641.486 250.613 641.438 250.751 641.417C250.889 641.392 251.03 641.394 251.167 641.425C251.303 641.456 251.433 641.513 251.546 641.594C251.66 641.675 251.757 641.779 251.83 641.898C251.903 642.017 251.952 642.149 251.973 642.287L256.859 677.727C256.884 677.864 256.881 678.005 256.85 678.142C256.82 678.278 256.762 678.407 256.681 678.52C256.599 678.634 256.496 678.73 256.377 678.803C256.258 678.876 256.125 678.925 255.986 678.946H255.812Z" fill="#1C1C1C"/>
<path d="M244.033 970.997H193.165C192.143 969.234 191.506 967.276 191.296 965.25C191.085 963.224 191.306 961.177 191.944 959.242C193.863 955.15 198.4 954.279 203.199 951.928C210.242 948.255 216.13 942.709 220.213 935.906C222.045 942.872 223.529 944.613 224.576 944.613C225.623 944.613 227.368 937.996 230.858 937.212C234.348 936.428 236.617 939.824 238.798 942.698L244.033 970.997Z" fill="#1C1C1C"/>
<path d="M418.362 973.174H338.527C337.509 970.128 337.116 966.908 337.371 963.707C337.626 960.506 338.523 957.388 340.01 954.54C341.493 952.102 342.802 951.231 344.722 948.097C347.3 943.869 348.854 939.098 349.259 934.165C349.989 933.478 350.856 932.953 351.803 932.623C352.75 932.293 353.756 932.166 354.756 932.249C360.776 933.381 361.997 946.529 364.092 946.355C366.186 946.181 366.011 943.482 366.622 933.555L418.973 959.678C419.884 960.541 420.609 961.581 421.104 962.734C421.599 963.887 421.854 965.128 421.852 966.382C421.795 967.698 421.454 968.987 420.851 970.159C420.249 971.331 419.4 972.36 418.362 973.174Z" fill="#1C1C1C"/>
<path d="M334.426 630.184C327.214 637.734 318.814 644.058 309.559 648.905C251.973 678.772 182.957 636.976 174.406 631.49C176.326 566.532 178.187 501.545 179.99 436.528L169.607 426.166C168.902 419.275 169.983 412.318 172.748 405.965C180.775 388.549 202.414 377.665 227.455 378.536C230.236 382.684 234.063 386.028 238.551 388.229C243.04 390.43 248.03 391.412 253.02 391.075C257.009 390.666 260.868 389.433 264.354 387.454C267.839 385.475 270.873 382.794 273.262 379.581C277.363 379.581 314.271 379.581 323.258 400.566C324.119 402.538 324.706 404.618 325.003 406.748L334.426 630.184Z" fill="white"/>
<path d="M359.467 653.085C356.398 661.794 351.247 669.625 344.46 675.899C327.62 690.963 303.19 687.567 282.075 668.236L283.82 518.466C305.633 536.752 326.748 540.409 336.171 527.696C338.533 524.366 340.141 520.563 340.883 516.551C347.223 562.12 353.418 607.631 359.467 653.085Z" fill="#1C1C1C"/>
<path d="M315.143 514.461C318.11 521.514 325.352 538.755 333.204 538.145C336.258 538.145 338.963 535.01 341.93 529.438C352.749 507.93 344.634 483.549 338.352 439.576C336.694 427.908 335.647 418.155 334.949 411.015C332.337 408.442 329.081 406.616 325.52 405.728C321.959 404.84 318.225 404.921 314.707 405.965C310.052 407.382 306.099 410.489 303.626 414.672C300.136 470.313 309.21 500.18 315.143 514.461Z" fill="#E2C4BB"/>
<path d="M299.176 497.829L352.923 502.705C353.064 481.87 350.75 461.091 346.03 440.795C342.872 427.427 338.671 414.325 333.466 401.611C331.339 399.252 328.724 397.384 325.801 396.136C322.878 394.888 319.717 394.29 316.539 394.384C312.437 394.728 308.523 396.252 305.271 398.771C302.019 401.29 299.568 404.696 298.216 408.577C298.565 438.269 298.827 468.049 299.176 497.829Z" fill="white"/>
<path d="M300.921 379.842C287.229 426.74 281.565 475.608 284.169 524.387C284.169 531.44 285.129 538.319 285.827 544.937L312.962 540.322C309.641 528.431 307.134 516.329 305.458 504.099C300.047 464.03 302.387 423.297 312.351 384.108L300.921 379.842Z" fill="#1C1C1C"/>
<path d="M177.024 503.75C176.875 503.75 176.727 503.721 176.589 503.664C176.452 503.607 176.327 503.524 176.222 503.419C176.116 503.314 176.033 503.189 175.976 503.052C175.919 502.914 175.889 502.767 175.889 502.618L177.024 436.789C177.011 436.645 177.03 436.5 177.077 436.363C177.124 436.226 177.199 436.1 177.298 435.993C177.396 435.887 177.516 435.802 177.649 435.744C177.782 435.686 177.925 435.657 178.071 435.657C178.365 435.678 178.642 435.803 178.85 436.012C179.058 436.22 179.184 436.496 179.205 436.789L178.071 502.705C178.071 502.982 177.96 503.248 177.764 503.444C177.568 503.64 177.301 503.75 177.024 503.75Z" fill="#1C1C1C"/>
<path d="M309.908 499.919C309.763 499.931 309.618 499.913 309.481 499.866C309.343 499.819 309.217 499.744 309.111 499.646C309.004 499.547 308.919 499.428 308.861 499.295C308.803 499.162 308.773 499.019 308.774 498.874L307.291 463.173C307.278 463.029 307.297 462.883 307.344 462.746C307.391 462.609 307.466 462.484 307.565 462.377C307.663 462.271 307.783 462.186 307.916 462.128C308.049 462.07 308.192 462.041 308.338 462.041C308.482 462.029 308.628 462.047 308.765 462.094C308.902 462.141 309.028 462.216 309.135 462.315C309.242 462.413 309.327 462.532 309.385 462.665C309.443 462.798 309.472 462.941 309.472 463.086L310.955 498.787C310.967 498.931 310.949 499.076 310.902 499.213C310.855 499.35 310.78 499.476 310.681 499.583C310.583 499.689 310.463 499.774 310.33 499.832C310.197 499.89 310.053 499.919 309.908 499.919Z" fill="#1C1C1C"/>
<path d="M286.176 282.317C303.626 304.783 268.725 367.477 244.644 365.736C240.194 365.736 237.14 362.862 231.032 357.899C224.925 352.936 206.166 337.523 207.474 316.103C208.696 296.249 225.885 281.882 241.241 276.571C254.503 271.781 276.578 270.562 286.176 282.317Z" fill="#1C1C1C"/>
<path d="M225.623 298.078C224.227 300.951 215.24 295.205 207.387 299.036C199.535 302.867 200.756 312.184 192.554 329.948C188.72 338.378 183.949 346.351 178.332 353.719C165.419 371.134 159.748 371.134 154.425 381.932C147.445 396.299 154.862 402.046 151.197 421.29C146.834 443.756 130.78 467.005 119.786 465.35C110.189 463.87 100.765 443.146 102.336 425.992C103.383 416.675 107.658 409.709 103.907 400.566C101.376 394.21 97.7989 393.774 95.1813 389.159C87.3287 375.662 99.8057 347.189 120.135 332.212C136.713 319.934 148.579 328.032 165.768 313.055C173.01 306.698 173.272 303.477 182.171 297.207C187.232 293.724 203.286 282.405 216.112 287.89C222.22 290.067 226.757 295.814 225.623 298.078Z" fill="#1C1C1C"/>
</svg>
