<svg width="557" height="636" viewBox="0 0 557 636" fill="none" xmlns="http://www.w3.org/2000/svg">
<path d="M214.156 576.865L208.573 482.466L151.727 482.326L157.309 576.724L214.156 576.865Z" fill="#E2C4BB"/>
<path d="M157.204 573.667L157.941 599.674L136.628 635.03H218.685L214.051 573.808L157.204 573.667Z" fill="#D33A27"/>
<path d="M158.572 598.24L157.664 601.38L173.618 606.001L174.525 602.861L158.572 598.24Z" fill="#D33A27"/>
<path d="M156.923 563.159L157.309 576.725L214.156 576.865L213.77 563.334L156.923 563.159Z" fill="#1C1C1C"/>
<path d="M227.779 554.197L138.77 553.951L127.534 416.219L216.544 416.5L227.779 554.197Z" fill="#1C1C1C"/>
<path d="M138.539 538.741L138.529 542.009L229.821 542.264L229.83 538.996L138.539 538.741Z" fill="#1C1C1C"/>
<path d="M337.751 576.865L332.168 482.466L275.321 482.326L280.904 576.724L337.751 576.865Z" fill="#E2C4BB"/>
<path d="M280.799 573.667L281.571 599.674L260.258 635.03H342.28L337.645 573.808L280.799 573.667Z" fill="#D33A27"/>
<path d="M282.149 598.231L281.242 601.371L297.195 605.992L298.103 602.853L282.149 598.231Z" fill="#D33A27"/>
<path d="M280.518 563.159L280.904 576.725L337.751 576.865L337.364 563.334L280.518 563.159Z" fill="#1C1C1C"/>
<path d="M351.374 554.197L262.365 553.951L251.129 416.219L340.138 416.5L351.374 554.197Z" fill="#1C1C1C"/>
<path d="M262.127 538.741L262.118 542.01L353.409 542.265L353.419 538.996L262.127 538.741Z" fill="#1C1C1C"/>
<path d="M299.619 83.5743H253.517V115.064H299.619V83.5743Z" fill="#E2C4BB"/>
<path d="M273.179 4.4989C282.492 4.4989 291.423 8.20163 298.008 14.7925C304.592 21.3834 308.292 30.3226 308.292 39.6436V64.2448C308.278 68.2799 307.469 72.2726 305.911 75.9944C304.354 79.7161 302.078 83.0938 299.214 85.9339C296.351 88.7741 292.955 91.021 289.223 92.5459C285.491 94.0708 281.494 94.8438 277.463 94.8207H238.208V39.4678C238.254 30.2017 241.954 21.3287 248.504 14.7798C255.053 8.23082 263.922 4.53585 273.179 4.4989Z" fill="#E2C4BB"/>
<path d="M233.187 39.4327V47.5159L252.955 54.5449L261.452 95.1723H299.619C307.037 79.1697 311.18 61.8427 311.803 44.2125C311.803 21.0522 296.283 0.000488281 272.618 0.000488281C262.166 0.000484134 252.142 4.15379 244.748 11.5478C237.354 18.9418 233.196 28.9714 233.187 39.4327Z" fill="#1C1C1C"/>
<path d="M248.882 45.0558C251.676 45.0558 254.355 46.1665 256.33 48.1438C258.305 50.1211 259.416 52.8029 259.416 55.5992V56.6183C259.416 59.4146 258.305 62.0964 256.33 64.0737C254.355 66.0509 251.676 67.1617 248.882 67.1617" fill="#E2C4BB"/>
<path d="M248.882 68.9542C252.132 68.9542 255.249 67.6619 257.547 65.3616C259.845 63.0614 261.136 59.9417 261.136 56.6887V55.6694C261.127 52.4192 259.833 49.305 257.537 47.0068C255.24 44.7086 252.129 43.4132 248.882 43.4039V46.6724C251.266 46.6724 253.552 47.6203 255.238 49.3076C256.924 50.9948 257.87 53.2832 257.87 55.6694V56.6887C257.87 59.0781 256.925 61.3701 255.24 63.063C253.555 64.7558 251.269 65.7116 248.882 65.7209V68.9542Z" fill="#1C1C1C"/>
<path d="M196.565 360.303L149.866 366.278V245.38H196.565V360.303Z" fill="#E2C4BB"/>
<path d="M359.59 385.994L406.816 354.364L406.29 245.38H359.59V385.994Z" fill="#E2C4BB"/>
<path d="M369.422 431.401H127.885L124.795 392.11C124.125 385.152 125.544 378.153 128.868 372.007C131.902 366.661 136.299 362.218 141.611 359.13C146.922 356.043 152.958 354.422 159.1 354.434H369.422V431.401Z" fill="#1C1C1C"/>
<path d="M369.492 366.278L179.992 354.364H369.492V366.278Z" fill="#1C1C1C"/>
<path d="M235.399 422.791C222.548 422.791 212.506 405.218 212.506 383.007V381.39H258.152V383.007C258.292 405.218 248.25 422.791 235.399 422.791ZM215.771 384.659C216.228 404.023 224.865 419.522 235.399 419.522C245.932 419.522 254.57 404.023 255.027 384.659H215.771Z" fill="#1C1C1C"/>
<path d="M323.776 422.791C310.96 422.791 300.883 405.218 300.883 383.007V381.39H346.529V383.007C346.493 405.218 336.451 422.791 323.776 422.791ZM304.148 384.659C304.64 404.023 313.242 419.522 323.776 419.522C334.31 419.522 342.947 404.023 343.404 384.659H304.148Z" fill="#1C1C1C"/>
<path d="M495.334 446.303H492.069V635.03H495.334V446.303Z" fill="#1C1C1C"/>
<path d="M64.6133 446.303H61.3478V635.03H64.6133V446.303Z" fill="#1C1C1C"/>
<path d="M0.00708008 469.709L556.675 469.709V428.625L0.00708008 428.625V469.709Z" fill="#D33A27"/>
<path d="M377.849 166.902H178.798V354.364H377.849V166.902Z" fill="#D33A27"/>
<path d="M301.515 112.99C290.314 109.933 266.403 110.355 255.167 112.99C224.549 120.019 152.218 163.669 147.934 179.765C143.265 197.338 142.737 251.742 142.737 251.742H413.944C413.944 251.742 413.417 197.302 408.747 179.765C404.534 163.669 331.852 121.249 301.515 112.99Z" fill="#D33A27"/>
<path d="M379.499 166.902H376.234V354.364H379.499V166.902Z" fill="#1C1C1C"/>
<path d="M180.448 166.902H177.183V354.364H180.448V166.902Z" fill="#1C1C1C"/>
</svg>
