<svg width="504" height="586" viewBox="0 0 504 586" fill="none" xmlns="http://www.w3.org/2000/svg">
<path d="M377 224.148V324H127V224L377 224.148Z" stroke="#1C1C1C" stroke-width="3" stroke-miterlimit="10"/>
<path d="M439.5 324H64.5V444H439.5V324Z" stroke="#1C1C1C" stroke-width="3" stroke-miterlimit="10"/>
<path d="M502 444H2V584H502V444Z" stroke="#1C1C1C" stroke-width="3" stroke-miterlimit="10"/>
<path d="M153.295 378.675H152.945C152.852 377.648 152.642 376.703 152.315 375.84C152.012 374.953 151.545 374.195 150.915 373.565C150.309 372.912 149.539 372.41 148.605 372.06C147.695 371.687 146.587 371.5 145.28 371.5H142.69V381.965C143.017 381.918 143.367 381.883 143.74 381.86C144.137 381.837 144.557 381.825 145 381.825C146.4 381.825 147.707 381.953 148.92 382.21C150.134 382.443 151.195 382.84 152.105 383.4C153.015 383.937 153.727 384.637 154.24 385.5C154.754 386.34 155.01 387.367 155.01 388.58C155.01 389.77 154.754 390.832 154.24 391.765C153.75 392.675 153.039 393.445 152.105 394.075C151.195 394.705 150.087 395.183 148.78 395.51C147.474 395.837 146.004 396 144.37 396H135.27V395.65H138V371.5H135.27V371.15H153.295V378.675ZM144.37 382.21C143.764 382.21 143.204 382.245 142.69 382.315V395.65H144.02C145.21 395.65 146.19 395.475 146.96 395.125C147.73 394.752 148.337 394.262 148.78 393.655C149.247 393.025 149.562 392.29 149.725 391.45C149.912 390.61 150.005 389.712 150.005 388.755C150.005 387.775 149.912 386.888 149.725 386.095C149.539 385.278 149.224 384.59 148.78 384.03C148.337 383.447 147.754 383.003 147.03 382.7C146.33 382.373 145.444 382.21 144.37 382.21ZM167.093 380.95H171.433V381.3H169.753L161.878 401.145C161.364 402.428 160.804 403.35 160.198 403.91C159.591 404.47 158.774 404.75 157.748 404.75C156.628 404.75 155.753 404.458 155.123 403.875C154.493 403.315 154.178 402.557 154.178 401.6C154.178 400.853 154.376 400.258 154.773 399.815C155.146 399.395 155.624 399.185 156.208 399.185C156.791 399.185 157.234 399.372 157.538 399.745C157.841 400.118 157.993 400.573 157.993 401.11C157.993 401.367 157.958 401.588 157.888 401.775C157.818 401.985 157.748 402.172 157.678 402.335C157.608 402.522 157.538 402.697 157.468 402.86C157.398 403.023 157.363 403.198 157.363 403.385C157.363 403.712 157.456 403.933 157.643 404.05C157.829 404.19 158.063 404.26 158.343 404.26C159.066 404.26 159.696 403.922 160.233 403.245C160.769 402.568 161.201 401.81 161.528 400.97L163.243 396.665L157.153 381.3H155.473V380.95H163.453V381.3H161.423L165.308 391.45L169.333 381.3H167.093V380.95ZM179.853 381.3H177.928V388.3H179.153L185.313 381.3H183.038V380.95H187.938V381.3H185.803L181.988 385.605L187.973 395.65H189.653V396H181.533V395.65H183.213L179.153 388.65H177.928V395.65H179.853V396H171.628V395.65H173.728V381.3H171.628V380.95H179.853V381.3ZM197.235 380.95C199.568 380.95 201.295 381.23 202.415 381.79C203.535 382.327 204.095 383.225 204.095 384.485C204.095 385.512 203.64 386.34 202.73 386.97C201.82 387.577 200.606 387.938 199.09 388.055C199.93 388.102 200.688 388.207 201.365 388.37C202.065 388.533 202.66 388.767 203.15 389.07C203.663 389.373 204.06 389.747 204.34 390.19C204.62 390.61 204.76 391.123 204.76 391.73C204.76 393.06 204.165 394.11 202.975 394.88C201.808 395.627 199.906 396 197.27 396H189.675V395.65H191.775V381.3H189.675V380.95H197.235ZM195.975 388.3V395.65H197.27C198.553 395.65 199.451 395.3 199.965 394.6C200.501 393.877 200.77 392.967 200.77 391.87C200.77 390.843 200.478 389.992 199.895 389.315C199.335 388.638 198.378 388.3 197.025 388.3H195.975ZM195.975 381.3V387.95H197.095C198.168 387.95 198.938 387.635 199.405 387.005C199.895 386.352 200.14 385.535 200.14 384.555C200.14 382.385 199.136 381.3 197.13 381.3H195.975ZM214.823 381.3H212.723V387.18C213.049 387.157 213.376 387.133 213.703 387.11C214.053 387.087 214.391 387.075 214.718 387.075C215.628 387.075 216.456 387.157 217.203 387.32C217.973 387.483 218.638 387.74 219.198 388.09C219.758 388.417 220.189 388.848 220.493 389.385C220.796 389.922 220.948 390.563 220.948 391.31C220.948 392.08 220.773 392.757 220.423 393.34C220.073 393.923 219.571 394.413 218.918 394.81C218.288 395.207 217.529 395.51 216.643 395.72C215.756 395.907 214.776 396 213.703 396H206.423V395.65H208.523V381.3H206.423V380.95H214.823V381.3ZM229.348 396H220.948V395.65H223.048V381.3H220.948V380.95H229.348V381.3H227.248V395.65H229.348V396ZM213.878 387.46C213.691 387.46 213.493 387.472 213.283 387.495C213.096 387.495 212.909 387.507 212.723 387.53V395.65H213.773C214.403 395.65 214.916 395.533 215.313 395.3C215.733 395.043 216.059 394.717 216.293 394.32C216.526 393.923 216.689 393.468 216.783 392.955C216.876 392.442 216.923 391.917 216.923 391.38C216.923 390.19 216.666 389.245 216.153 388.545C215.663 387.822 214.904 387.46 213.878 387.46ZM248.917 394.915C248.474 393.702 247.867 392.628 247.097 391.695C246.351 390.762 245.581 389.91 244.787 389.14C244.671 389.023 244.566 388.93 244.472 388.86C244.402 388.767 244.367 388.638 244.367 388.475C244.367 388.312 244.402 388.195 244.472 388.125C244.566 388.032 244.671 387.927 244.787 387.81C245.581 387.04 246.351 386.188 247.097 385.255C247.867 384.322 248.474 383.248 248.917 382.035L249.127 382.07C249.011 382.607 248.871 383.178 248.707 383.785C248.567 384.392 248.404 384.987 248.217 385.57C248.054 386.13 247.879 386.667 247.692 387.18C247.506 387.693 247.331 388.125 247.167 388.475C247.331 388.825 247.506 389.257 247.692 389.77C247.879 390.283 248.054 390.832 248.217 391.415C248.404 391.975 248.567 392.558 248.707 393.165C248.871 393.772 249.011 394.343 249.127 394.88L248.917 394.915ZM243.597 394.915C243.154 393.702 242.547 392.628 241.777 391.695C241.031 390.762 240.261 389.91 239.467 389.14C239.351 389.023 239.246 388.93 239.152 388.86C239.082 388.767 239.047 388.638 239.047 388.475C239.047 388.312 239.082 388.195 239.152 388.125C239.246 388.032 239.351 387.927 239.467 387.81C240.261 387.04 241.031 386.188 241.777 385.255C242.547 384.322 243.154 383.248 243.597 382.035L243.807 382.07C243.691 382.607 243.551 383.178 243.387 383.785C243.247 384.392 243.084 384.987 242.897 385.57C242.734 386.13 242.559 386.667 242.372 387.18C242.186 387.693 242.011 388.125 241.847 388.475C242.011 388.825 242.186 389.257 242.372 389.77C242.559 390.283 242.734 390.832 242.897 391.415C243.084 391.975 243.247 392.558 243.387 393.165C243.551 393.772 243.691 394.343 243.807 394.88L243.597 394.915ZM260.077 396.21C258.7 396.21 257.51 395.977 256.507 395.51C255.527 395.02 254.71 394.402 254.057 393.655C253.427 392.885 252.96 392.045 252.657 391.135C252.353 390.225 252.202 389.338 252.202 388.475C252.202 387.612 252.353 386.725 252.657 385.815C252.96 384.905 253.427 384.077 254.057 383.33C254.71 382.56 255.527 381.942 256.507 381.475C257.51 380.985 258.7 380.74 260.077 380.74C261.453 380.74 262.632 380.985 263.612 381.475C264.615 381.942 265.432 382.56 266.062 383.33C266.715 384.077 267.193 384.905 267.497 385.815C267.8 386.725 267.952 387.612 267.952 388.475C267.952 389.338 267.8 390.225 267.497 391.135C267.193 392.045 266.715 392.885 266.062 393.655C265.432 394.402 264.615 395.02 263.612 395.51C262.632 395.977 261.453 396.21 260.077 396.21ZM260.077 395.93C260.893 395.93 261.535 395.732 262.002 395.335C262.468 394.915 262.818 394.367 263.052 393.69C263.285 392.99 263.425 392.197 263.472 391.31C263.542 390.4 263.577 389.455 263.577 388.475C263.577 387.495 263.542 386.562 263.472 385.675C263.425 384.765 263.285 383.972 263.052 383.295C262.818 382.595 262.468 382.047 262.002 381.65C261.535 381.23 260.893 381.02 260.077 381.02C259.26 381.02 258.618 381.23 258.152 381.65C257.685 382.047 257.335 382.595 257.102 383.295C256.868 383.972 256.717 384.765 256.647 385.675C256.6 386.562 256.577 387.495 256.577 388.475C256.577 389.455 256.6 390.4 256.647 391.31C256.717 392.197 256.868 392.99 257.102 393.69C257.335 394.367 257.685 394.915 258.152 395.335C258.618 395.732 259.26 395.93 260.077 395.93ZM276.34 394.88C276.433 394.343 276.562 393.772 276.725 393.165C276.888 392.558 277.052 391.975 277.215 391.415C277.402 390.832 277.588 390.283 277.775 389.77C277.962 389.257 278.137 388.825 278.3 388.475C278.137 388.125 277.962 387.693 277.775 387.18C277.588 386.667 277.402 386.13 277.215 385.57C277.052 384.987 276.888 384.392 276.725 383.785C276.562 383.178 276.433 382.607 276.34 382.07L276.55 382.035C276.993 383.248 277.588 384.322 278.335 385.255C279.105 386.188 279.887 387.04 280.68 387.81C280.797 387.927 280.89 388.032 280.96 388.125C281.053 388.195 281.1 388.312 281.1 388.475C281.1 388.638 281.053 388.767 280.96 388.86C280.89 388.93 280.797 389.023 280.68 389.14C279.887 389.91 279.105 390.762 278.335 391.695C277.588 392.628 276.993 393.702 276.55 394.915L276.34 394.88ZM271.02 394.88C271.113 394.343 271.242 393.772 271.405 393.165C271.568 392.558 271.732 391.975 271.895 391.415C272.082 390.832 272.268 390.283 272.455 389.77C272.642 389.257 272.817 388.825 272.98 388.475C272.817 388.125 272.642 387.693 272.455 387.18C272.268 386.667 272.082 386.13 271.895 385.57C271.732 384.987 271.568 384.392 271.405 383.785C271.242 383.178 271.113 382.607 271.02 382.07L271.23 382.035C271.673 383.248 272.268 384.322 273.015 385.255C273.785 386.188 274.567 387.04 275.36 387.81C275.477 387.927 275.57 388.032 275.64 388.125C275.733 388.195 275.78 388.312 275.78 388.475C275.78 388.638 275.733 388.767 275.64 388.86C275.57 388.93 275.477 389.023 275.36 389.14C274.567 389.91 273.785 390.762 273.015 391.695C272.268 392.628 271.673 393.702 271.23 394.915L271.02 394.88ZM299.178 381.3H297.078V395.16L302.643 380.95H308.978V381.3H306.878V395.65H308.978V396H300.578V395.65H302.678V381.86L297.113 396H290.778V395.65H292.878V381.3H290.778V380.95H299.178V381.3ZM328.522 394.915C328.078 393.702 327.472 392.628 326.702 391.695C325.955 390.762 325.185 389.91 324.392 389.14C324.275 389.023 324.17 388.93 324.077 388.86C324.007 388.767 323.972 388.638 323.972 388.475C323.972 388.312 324.007 388.195 324.077 388.125C324.17 388.032 324.275 387.927 324.392 387.81C325.185 387.04 325.955 386.188 326.702 385.255C327.472 384.322 328.078 383.248 328.522 382.035L328.732 382.07C328.615 382.607 328.475 383.178 328.312 383.785C328.172 384.392 328.008 384.987 327.822 385.57C327.658 386.13 327.483 386.667 327.297 387.18C327.11 387.693 326.935 388.125 326.772 388.475C326.935 388.825 327.11 389.257 327.297 389.77C327.483 390.283 327.658 390.832 327.822 391.415C328.008 391.975 328.172 392.558 328.312 393.165C328.475 393.772 328.615 394.343 328.732 394.88L328.522 394.915ZM323.202 394.915C322.758 393.702 322.152 392.628 321.382 391.695C320.635 390.762 319.865 389.91 319.072 389.14C318.955 389.023 318.85 388.93 318.757 388.86C318.687 388.767 318.652 388.638 318.652 388.475C318.652 388.312 318.687 388.195 318.757 388.125C318.85 388.032 318.955 387.927 319.072 387.81C319.865 387.04 320.635 386.188 321.382 385.255C322.152 384.322 322.758 383.248 323.202 382.035L323.412 382.07C323.295 382.607 323.155 383.178 322.992 383.785C322.852 384.392 322.688 384.987 322.502 385.57C322.338 386.13 322.163 386.667 321.977 387.18C321.79 387.693 321.615 388.125 321.452 388.475C321.615 388.825 321.79 389.257 321.977 389.77C322.163 390.283 322.338 390.832 322.502 391.415C322.688 391.975 322.852 392.558 322.992 393.165C323.155 393.772 323.295 394.343 323.412 394.88L323.202 394.915ZM348.151 404.54H339.926V404.19H342.026V393.27H341.956C341.746 393.83 341.501 394.32 341.221 394.74C340.894 395.207 340.474 395.568 339.961 395.825C339.448 396.082 338.794 396.21 338.001 396.21C337.138 396.21 336.333 396.023 335.586 395.65C334.839 395.277 334.198 394.752 333.661 394.075C333.124 393.398 332.693 392.593 332.366 391.66C332.063 390.727 331.911 389.7 331.911 388.58C331.911 387.39 332.074 386.317 332.401 385.36C332.728 384.403 333.171 383.587 333.731 382.91C334.314 382.21 334.979 381.673 335.726 381.3C336.473 380.927 337.266 380.74 338.106 380.74C338.806 380.74 339.378 380.857 339.821 381.09C340.264 381.323 340.649 381.638 340.976 382.035C341.373 382.548 341.699 383.19 341.956 383.96H342.026V371.5H339.926V371.15H346.051V383.995H346.121C346.284 383.552 346.483 383.143 346.716 382.77C346.949 382.397 347.206 382.07 347.486 381.79C348.256 381.09 349.178 380.74 350.251 380.74C351.044 380.74 351.803 380.927 352.526 381.3C353.249 381.673 353.879 382.198 354.416 382.875C354.953 383.528 355.373 384.322 355.676 385.255C356.003 386.188 356.166 387.227 356.166 388.37C356.166 389.49 356.003 390.528 355.676 391.485C355.349 392.442 354.906 393.27 354.346 393.97C353.786 394.67 353.133 395.218 352.386 395.615C351.663 396.012 350.904 396.21 350.111 396.21C349.458 396.21 348.898 396.117 348.431 395.93C347.988 395.72 347.591 395.428 347.241 395.055C346.844 394.635 346.483 394.075 346.156 393.375H346.051V404.19H348.151V404.54ZM351.791 388.58C351.791 387.623 351.744 386.713 351.651 385.85C351.581 384.987 351.453 384.24 351.266 383.61C351.079 382.957 350.811 382.443 350.461 382.07C350.134 381.697 349.726 381.51 349.236 381.51C348.816 381.51 348.419 381.65 348.046 381.93C347.673 382.187 347.334 382.572 347.031 383.085C346.728 383.575 346.483 384.193 346.296 384.94C346.133 385.687 346.051 386.538 346.051 387.495V390.05C346.051 390.89 346.133 391.648 346.296 392.325C346.459 393.002 346.681 393.585 346.961 394.075C347.264 394.542 347.603 394.915 347.976 395.195C348.349 395.452 348.746 395.58 349.166 395.58C349.656 395.58 350.064 395.405 350.391 395.055C350.741 394.682 351.021 394.18 351.231 393.55C351.441 392.92 351.581 392.185 351.651 391.345C351.744 390.482 351.791 389.56 351.791 388.58ZM336.286 388.37C336.286 389.397 336.333 390.353 336.426 391.24C336.543 392.127 336.718 392.897 336.951 393.55C337.184 394.18 337.464 394.682 337.791 395.055C338.141 395.405 338.561 395.58 339.051 395.58C339.914 395.58 340.626 395.078 341.186 394.075C341.746 393.072 342.026 391.73 342.026 390.05V387.495C342.026 385.558 341.746 384.077 341.186 383.05C340.626 382.023 339.949 381.51 339.156 381.51C338.666 381.51 338.234 381.697 337.861 382.07C337.511 382.443 337.219 382.945 336.986 383.575C336.753 384.205 336.578 384.94 336.461 385.78C336.344 386.597 336.286 387.46 336.286 388.37ZM364.66 394.88C364.754 394.343 364.882 393.772 365.045 393.165C365.209 392.558 365.372 391.975 365.535 391.415C365.722 390.832 365.909 390.283 366.095 389.77C366.282 389.257 366.457 388.825 366.62 388.475C366.457 388.125 366.282 387.693 366.095 387.18C365.909 386.667 365.722 386.13 365.535 385.57C365.372 384.987 365.209 384.392 365.045 383.785C364.882 383.178 364.754 382.607 364.66 382.07L364.87 382.035C365.314 383.248 365.909 384.322 366.655 385.255C367.425 386.188 368.207 387.04 369 387.81C369.117 387.927 369.21 388.032 369.28 388.125C369.374 388.195 369.42 388.312 369.42 388.475C369.42 388.638 369.374 388.767 369.28 388.86C369.21 388.93 369.117 389.023 369 389.14C368.207 389.91 367.425 390.762 366.655 391.695C365.909 392.628 365.314 393.702 364.87 394.915L364.66 394.88ZM359.34 394.88C359.434 394.343 359.562 393.772 359.725 393.165C359.889 392.558 360.052 391.975 360.215 391.415C360.402 390.832 360.589 390.283 360.775 389.77C360.962 389.257 361.137 388.825 361.3 388.475C361.137 388.125 360.962 387.693 360.775 387.18C360.589 386.667 360.402 386.13 360.215 385.57C360.052 384.987 359.889 384.392 359.725 383.785C359.562 383.178 359.434 382.607 359.34 382.07L359.55 382.035C359.994 383.248 360.589 384.322 361.335 385.255C362.105 386.188 362.887 387.04 363.68 387.81C363.797 387.927 363.89 388.032 363.96 388.125C364.054 388.195 364.1 388.312 364.1 388.475C364.1 388.638 364.054 388.767 363.96 388.86C363.89 388.93 363.797 389.023 363.68 389.14C362.887 389.91 362.105 390.762 361.335 391.695C360.589 392.628 359.994 393.702 359.55 394.915L359.34 394.88Z" fill="#1C1C1C"/>
<path d="M122.337 498.11H122.117C122.058 497.465 121.926 496.871 121.721 496.328C121.53 495.771 121.237 495.294 120.841 494.898C120.46 494.487 119.976 494.172 119.389 493.952C118.817 493.717 118.12 493.6 117.299 493.6H115.671V500.178C115.876 500.149 116.096 500.127 116.331 500.112C116.58 500.097 116.844 500.09 117.123 500.09C118.003 500.09 118.824 500.171 119.587 500.332C120.35 500.479 121.017 500.728 121.589 501.08C122.161 501.417 122.608 501.857 122.931 502.4C123.254 502.928 123.415 503.573 123.415 504.336C123.415 505.084 123.254 505.751 122.931 506.338C122.623 506.91 122.176 507.394 121.589 507.79C121.017 508.186 120.32 508.487 119.499 508.692C118.678 508.897 117.754 509 116.727 509H111.007V508.78H112.723V493.6H111.007V493.38H122.337V498.11ZM116.727 500.332C116.346 500.332 115.994 500.354 115.671 500.398V508.78H116.507C117.255 508.78 117.871 508.67 118.355 508.45C118.839 508.215 119.22 507.907 119.499 507.526C119.792 507.13 119.99 506.668 120.093 506.14C120.21 505.612 120.269 505.047 120.269 504.446C120.269 503.83 120.21 503.273 120.093 502.774C119.976 502.261 119.778 501.828 119.499 501.476C119.22 501.109 118.854 500.831 118.399 500.64C117.959 500.435 117.402 500.332 116.727 500.332ZM131.01 499.54H133.738V499.76H132.682L127.732 512.234C127.409 513.041 127.057 513.62 126.676 513.972C126.294 514.324 125.781 514.5 125.136 514.5C124.432 514.5 123.882 514.317 123.486 513.95C123.09 513.598 122.892 513.121 122.892 512.52C122.892 512.051 123.016 511.677 123.266 511.398C123.5 511.134 123.801 511.002 124.168 511.002C124.534 511.002 124.813 511.119 125.004 511.354C125.194 511.589 125.29 511.875 125.29 512.212C125.29 512.373 125.268 512.513 125.224 512.63C125.18 512.762 125.136 512.879 125.092 512.982C125.048 513.099 125.004 513.209 124.96 513.312C124.916 513.415 124.894 513.525 124.894 513.642C124.894 513.847 124.952 513.987 125.07 514.06C125.187 514.148 125.334 514.192 125.51 514.192C125.964 514.192 126.36 513.979 126.698 513.554C127.035 513.129 127.306 512.652 127.512 512.124L128.59 509.418L124.762 499.76H123.706V499.54H128.722V499.76H127.446L129.888 506.14L132.418 499.76H131.01V499.54ZM139.03 499.76H137.82V504.16H138.59L142.462 499.76H141.032V499.54H144.112V499.76H142.77L140.372 502.466L144.134 508.78H145.19V509H140.086V508.78H141.142L138.59 504.38H137.82V508.78H139.03V509H133.86V508.78H135.18V499.76H133.86V499.54H139.03V499.76ZM149.956 499.54C151.423 499.54 152.508 499.716 153.212 500.068C153.916 500.405 154.268 500.97 154.268 501.762C154.268 502.407 153.982 502.928 153.41 503.324C152.838 503.705 152.075 503.933 151.122 504.006C151.65 504.035 152.127 504.101 152.552 504.204C152.992 504.307 153.366 504.453 153.674 504.644C153.997 504.835 154.246 505.069 154.422 505.348C154.598 505.612 154.686 505.935 154.686 506.316C154.686 507.152 154.312 507.812 153.564 508.296C152.831 508.765 151.635 509 149.978 509H145.204V508.78H146.524V499.76H145.204V499.54H149.956ZM149.164 504.16V508.78H149.978C150.785 508.78 151.349 508.56 151.672 508.12C152.009 507.665 152.178 507.093 152.178 506.404C152.178 505.759 151.995 505.223 151.628 504.798C151.276 504.373 150.675 504.16 149.824 504.16H149.164ZM149.164 499.76V503.94H149.868C150.543 503.94 151.027 503.742 151.32 503.346C151.628 502.935 151.782 502.422 151.782 501.806C151.782 500.442 151.151 499.76 149.89 499.76H149.164ZM158.679 509.132C157.755 509.132 157.073 508.927 156.633 508.516C156.193 508.105 155.973 507.533 155.973 506.8C155.973 505.891 156.325 505.209 157.029 504.754C157.733 504.285 158.841 504.05 160.351 504.05H161.275V502.642C161.275 502.07 161.253 501.593 161.209 501.212C161.165 500.816 161.085 500.508 160.967 500.288C160.865 500.053 160.711 499.885 160.505 499.782C160.3 499.679 160.043 499.628 159.735 499.628C159.354 499.628 159.039 499.709 158.789 499.87C158.54 500.017 158.415 500.288 158.415 500.684C158.415 500.933 158.452 501.139 158.525 501.3C158.613 501.447 158.657 501.637 158.657 501.872C158.657 502.165 158.562 502.415 158.371 502.62C158.195 502.825 157.924 502.928 157.557 502.928C156.853 502.928 156.501 502.547 156.501 501.784C156.501 501.036 156.839 500.457 157.513 500.046C158.188 499.621 159.083 499.408 160.197 499.408C160.608 499.408 161.033 499.452 161.473 499.54C161.913 499.628 162.317 499.811 162.683 500.09C163.05 500.369 163.343 500.772 163.563 501.3C163.798 501.828 163.915 502.525 163.915 503.39V507.79C163.915 508.479 164.128 508.824 164.553 508.824C164.803 508.824 165.001 508.736 165.147 508.56C165.309 508.384 165.433 508.171 165.521 507.922L165.697 507.988C165.58 508.325 165.397 508.604 165.147 508.824C164.913 509.029 164.48 509.132 163.849 509.132C163.131 509.132 162.537 508.963 162.067 508.626C161.613 508.289 161.385 507.687 161.385 506.822V506.712H161.341C161.18 507.621 160.887 508.252 160.461 508.604C160.036 508.956 159.442 509.132 158.679 509.132ZM159.537 508.692C159.904 508.692 160.197 508.567 160.417 508.318C160.652 508.069 160.828 507.753 160.945 507.372C161.077 506.991 161.165 506.573 161.209 506.118C161.253 505.649 161.275 505.194 161.275 504.754V504.27H160.615C159.867 504.27 159.317 504.483 158.965 504.908C158.613 505.333 158.437 505.986 158.437 506.866C158.437 507.409 158.511 507.849 158.657 508.186C158.819 508.523 159.112 508.692 159.537 508.692ZM177.372 508.318C177.093 507.555 176.712 506.881 176.228 506.294C175.759 505.707 175.275 505.172 174.776 504.688C174.703 504.615 174.637 504.556 174.578 504.512C174.534 504.453 174.512 504.373 174.512 504.27C174.512 504.167 174.534 504.094 174.578 504.05C174.637 503.991 174.703 503.925 174.776 503.852C175.275 503.368 175.759 502.833 176.228 502.246C176.712 501.659 177.093 500.985 177.372 500.222L177.504 500.244C177.431 500.581 177.343 500.941 177.24 501.322C177.152 501.703 177.049 502.077 176.932 502.444C176.829 502.796 176.719 503.133 176.602 503.456C176.485 503.779 176.375 504.05 176.272 504.27C176.375 504.49 176.485 504.761 176.602 505.084C176.719 505.407 176.829 505.751 176.932 506.118C177.049 506.47 177.152 506.837 177.24 507.218C177.343 507.599 177.431 507.959 177.504 508.296L177.372 508.318ZM174.028 508.318C173.749 507.555 173.368 506.881 172.884 506.294C172.415 505.707 171.931 505.172 171.432 504.688C171.359 504.615 171.293 504.556 171.234 504.512C171.19 504.453 171.168 504.373 171.168 504.27C171.168 504.167 171.19 504.094 171.234 504.05C171.293 503.991 171.359 503.925 171.432 503.852C171.931 503.368 172.415 502.833 172.884 502.246C173.368 501.659 173.749 500.985 174.028 500.222L174.16 500.244C174.087 500.581 173.999 500.941 173.896 501.322C173.808 501.703 173.705 502.077 173.588 502.444C173.485 502.796 173.375 503.133 173.258 503.456C173.141 503.779 173.031 504.05 172.928 504.27C173.031 504.49 173.141 504.761 173.258 505.084C173.375 505.407 173.485 505.751 173.588 506.118C173.705 506.47 173.808 506.837 173.896 507.218C173.999 507.599 174.087 507.959 174.16 508.296L174.028 508.318ZM189.71 514.368H184.54V514.148H185.86V507.284H185.816C185.684 507.636 185.53 507.944 185.354 508.208C185.149 508.501 184.885 508.729 184.562 508.89C184.24 509.051 183.829 509.132 183.33 509.132C182.788 509.132 182.282 509.015 181.812 508.78C181.343 508.545 180.94 508.215 180.602 507.79C180.265 507.365 179.994 506.859 179.788 506.272C179.598 505.685 179.502 505.04 179.502 504.336C179.502 503.588 179.605 502.913 179.81 502.312C180.016 501.711 180.294 501.197 180.646 500.772C181.013 500.332 181.431 499.995 181.9 499.76C182.37 499.525 182.868 499.408 183.396 499.408C183.836 499.408 184.196 499.481 184.474 499.628C184.753 499.775 184.995 499.973 185.2 500.222C185.45 500.545 185.655 500.948 185.816 501.432H185.86V493.6H184.54V493.38H188.39V501.454H188.434C188.537 501.175 188.662 500.919 188.808 500.684C188.955 500.449 189.116 500.244 189.292 500.068C189.776 499.628 190.356 499.408 191.03 499.408C191.529 499.408 192.006 499.525 192.46 499.76C192.915 499.995 193.311 500.325 193.648 500.75C193.986 501.161 194.25 501.659 194.44 502.246C194.646 502.833 194.748 503.485 194.748 504.204C194.748 504.908 194.646 505.561 194.44 506.162C194.235 506.763 193.956 507.284 193.604 507.724C193.252 508.164 192.842 508.509 192.372 508.758C191.918 509.007 191.441 509.132 190.942 509.132C190.532 509.132 190.18 509.073 189.886 508.956C189.608 508.824 189.358 508.641 189.138 508.406C188.889 508.142 188.662 507.79 188.456 507.35H188.39V514.148H189.71V514.368ZM191.998 504.336C191.998 503.735 191.969 503.163 191.91 502.62C191.866 502.077 191.786 501.608 191.668 501.212C191.551 500.801 191.382 500.479 191.162 500.244C190.957 500.009 190.7 499.892 190.392 499.892C190.128 499.892 189.879 499.98 189.644 500.156C189.41 500.317 189.197 500.559 189.006 500.882C188.816 501.19 188.662 501.579 188.544 502.048C188.442 502.517 188.39 503.053 188.39 503.654V505.26C188.39 505.788 188.442 506.265 188.544 506.69C188.647 507.115 188.786 507.482 188.962 507.79C189.153 508.083 189.366 508.318 189.6 508.494C189.835 508.655 190.084 508.736 190.348 508.736C190.656 508.736 190.913 508.626 191.118 508.406C191.338 508.171 191.514 507.856 191.646 507.46C191.778 507.064 191.866 506.602 191.91 506.074C191.969 505.531 191.998 504.952 191.998 504.336ZM182.252 504.204C182.252 504.849 182.282 505.451 182.34 506.008C182.414 506.565 182.524 507.049 182.67 507.46C182.817 507.856 182.993 508.171 183.198 508.406C183.418 508.626 183.682 508.736 183.99 508.736C184.533 508.736 184.98 508.421 185.332 507.79C185.684 507.159 185.86 506.316 185.86 505.26V503.654C185.86 502.437 185.684 501.505 185.332 500.86C184.98 500.215 184.555 499.892 184.056 499.892C183.748 499.892 183.477 500.009 183.242 500.244C183.022 500.479 182.839 500.794 182.692 501.19C182.546 501.586 182.436 502.048 182.362 502.576C182.289 503.089 182.252 503.632 182.252 504.204ZM200.088 508.296C200.146 507.959 200.227 507.599 200.33 507.218C200.432 506.837 200.535 506.47 200.638 506.118C200.755 505.751 200.872 505.407 200.99 505.084C201.107 504.761 201.217 504.49 201.32 504.27C201.217 504.05 201.107 503.779 200.99 503.456C200.872 503.133 200.755 502.796 200.638 502.444C200.535 502.077 200.432 501.703 200.33 501.322C200.227 500.941 200.146 500.581 200.088 500.244L200.22 500.222C200.498 500.985 200.872 501.659 201.342 502.246C201.826 502.833 202.317 503.368 202.816 503.852C202.889 503.925 202.948 503.991 202.992 504.05C203.05 504.094 203.08 504.167 203.08 504.27C203.08 504.373 203.05 504.453 202.992 504.512C202.948 504.556 202.889 504.615 202.816 504.688C202.317 505.172 201.826 505.707 201.342 506.294C200.872 506.881 200.498 507.555 200.22 508.318L200.088 508.296ZM196.744 508.296C196.802 507.959 196.883 507.599 196.986 507.218C197.088 506.837 197.191 506.47 197.294 506.118C197.411 505.751 197.528 505.407 197.646 505.084C197.763 504.761 197.873 504.49 197.976 504.27C197.873 504.05 197.763 503.779 197.646 503.456C197.528 503.133 197.411 502.796 197.294 502.444C197.191 502.077 197.088 501.703 196.986 501.322C196.883 500.941 196.802 500.581 196.744 500.244L196.876 500.222C197.154 500.985 197.528 501.659 197.998 502.246C198.482 502.833 198.973 503.368 199.472 503.852C199.545 503.925 199.604 503.991 199.648 504.05C199.706 504.094 199.736 504.167 199.736 504.27C199.736 504.373 199.706 504.453 199.648 504.512C199.604 504.556 199.545 504.615 199.472 504.688C198.973 505.172 198.482 505.707 197.998 506.294C197.528 506.881 197.154 507.555 196.876 508.318L196.744 508.296ZM214.311 509.132C213.519 509.132 212.822 509.007 212.221 508.758C211.634 508.494 211.136 508.142 210.725 507.702C210.329 507.262 210.028 506.756 209.823 506.184C209.618 505.612 209.515 505.003 209.515 504.358C209.515 503.683 209.625 503.045 209.845 502.444C210.065 501.843 210.38 501.322 210.791 500.882C211.216 500.427 211.722 500.068 212.309 499.804C212.91 499.54 213.585 499.408 214.333 499.408C214.905 499.408 215.411 499.489 215.851 499.65C216.306 499.797 216.68 499.995 216.973 500.244C217.281 500.479 217.516 500.75 217.677 501.058C217.838 501.366 217.919 501.674 217.919 501.982C217.919 502.334 217.816 502.62 217.611 502.84C217.42 503.045 217.12 503.148 216.709 503.148C216.284 503.148 215.983 503.038 215.807 502.818C215.646 502.598 215.565 502.327 215.565 502.004C215.565 501.755 215.594 501.535 215.653 501.344C215.712 501.153 215.741 500.948 215.741 500.728C215.741 500.391 215.631 500.119 215.411 499.914C215.206 499.709 214.89 499.606 214.465 499.606C213.996 499.606 213.614 499.731 213.321 499.98C213.042 500.229 212.822 500.567 212.661 500.992C212.514 501.403 212.412 501.887 212.353 502.444C212.294 502.987 212.265 503.566 212.265 504.182C212.265 504.857 212.302 505.48 212.375 506.052C212.448 506.624 212.573 507.123 212.749 507.548C212.94 507.959 213.189 508.281 213.497 508.516C213.805 508.751 214.201 508.868 214.685 508.868C215.184 508.868 215.616 508.787 215.983 508.626C216.364 508.45 216.687 508.237 216.951 507.988C217.215 507.739 217.428 507.475 217.589 507.196C217.765 506.917 217.89 506.668 217.963 506.448L218.183 506.536C218.066 506.844 217.904 507.152 217.699 507.46C217.508 507.768 217.259 508.047 216.951 508.296C216.643 508.545 216.269 508.751 215.829 508.912C215.389 509.059 214.883 509.132 214.311 509.132ZM224.347 509.132C223.482 509.132 222.734 508.985 222.103 508.692C221.487 508.384 220.974 507.995 220.563 507.526C220.167 507.042 219.874 506.514 219.683 505.942C219.493 505.37 219.397 504.813 219.397 504.27C219.397 503.727 219.493 503.17 219.683 502.598C219.874 502.026 220.167 501.505 220.563 501.036C220.974 500.552 221.487 500.163 222.103 499.87C222.734 499.562 223.482 499.408 224.347 499.408C225.213 499.408 225.953 499.562 226.569 499.87C227.2 500.163 227.713 500.552 228.109 501.036C228.52 501.505 228.821 502.026 229.011 502.598C229.202 503.17 229.297 503.727 229.297 504.27C229.297 504.813 229.202 505.37 229.011 505.942C228.821 506.514 228.52 507.042 228.109 507.526C227.713 507.995 227.2 508.384 226.569 508.692C225.953 508.985 225.213 509.132 224.347 509.132ZM224.347 508.956C224.861 508.956 225.264 508.831 225.557 508.582C225.851 508.318 226.071 507.973 226.217 507.548C226.364 507.108 226.452 506.609 226.481 506.052C226.525 505.48 226.547 504.886 226.547 504.27C226.547 503.654 226.525 503.067 226.481 502.51C226.452 501.938 226.364 501.439 226.217 501.014C226.071 500.574 225.851 500.229 225.557 499.98C225.264 499.716 224.861 499.584 224.347 499.584C223.834 499.584 223.431 499.716 223.137 499.98C222.844 500.229 222.624 500.574 222.477 501.014C222.331 501.439 222.235 501.938 222.191 502.51C222.162 503.067 222.147 503.654 222.147 504.27C222.147 504.886 222.162 505.48 222.191 506.052C222.235 506.609 222.331 507.108 222.477 507.548C222.624 507.973 222.844 508.318 223.137 508.582C223.431 508.831 223.834 508.956 224.347 508.956ZM235.516 509.132C234.724 509.132 234.027 509.007 233.426 508.758C232.839 508.494 232.341 508.142 231.93 507.702C231.534 507.262 231.233 506.756 231.028 506.184C230.823 505.612 230.72 505.003 230.72 504.358C230.72 503.683 230.83 503.045 231.05 502.444C231.27 501.843 231.585 501.322 231.996 500.882C232.421 500.427 232.927 500.068 233.514 499.804C234.115 499.54 234.79 499.408 235.538 499.408C236.11 499.408 236.616 499.489 237.056 499.65C237.511 499.797 237.885 499.995 238.178 500.244C238.486 500.479 238.721 500.75 238.882 501.058C239.043 501.366 239.124 501.674 239.124 501.982C239.124 502.334 239.021 502.62 238.816 502.84C238.625 503.045 238.325 503.148 237.914 503.148C237.489 503.148 237.188 503.038 237.012 502.818C236.851 502.598 236.77 502.327 236.77 502.004C236.77 501.755 236.799 501.535 236.858 501.344C236.917 501.153 236.946 500.948 236.946 500.728C236.946 500.391 236.836 500.119 236.616 499.914C236.411 499.709 236.095 499.606 235.67 499.606C235.201 499.606 234.819 499.731 234.526 499.98C234.247 500.229 234.027 500.567 233.866 500.992C233.719 501.403 233.617 501.887 233.558 502.444C233.499 502.987 233.47 503.566 233.47 504.182C233.47 504.857 233.507 505.48 233.58 506.052C233.653 506.624 233.778 507.123 233.954 507.548C234.145 507.959 234.394 508.281 234.702 508.516C235.01 508.751 235.406 508.868 235.89 508.868C236.389 508.868 236.821 508.787 237.188 508.626C237.569 508.45 237.892 508.237 238.156 507.988C238.42 507.739 238.633 507.475 238.794 507.196C238.97 506.917 239.095 506.668 239.168 506.448L239.388 506.536C239.271 506.844 239.109 507.152 238.904 507.46C238.713 507.768 238.464 508.047 238.156 508.296C237.848 508.545 237.474 508.751 237.034 508.912C236.594 509.059 236.088 509.132 235.516 509.132ZM247.84 509H242.56V508.78H243.88V499.76H243.33C242.861 499.76 242.465 499.833 242.142 499.98C241.82 500.127 241.556 500.332 241.35 500.596C241.145 500.845 240.976 501.153 240.844 501.52C240.727 501.872 240.632 502.253 240.558 502.664H240.36V499.54H250.04V502.664H249.842C249.769 502.253 249.666 501.872 249.534 501.52C249.417 501.153 249.256 500.845 249.05 500.596C248.845 500.332 248.581 500.127 248.258 499.98C247.936 499.833 247.54 499.76 247.07 499.76H246.52V508.78H247.84V509ZM256.166 509.132C255.3 509.132 254.552 508.985 253.922 508.692C253.306 508.384 252.792 507.995 252.382 507.526C251.986 507.042 251.692 506.514 251.502 505.942C251.311 505.37 251.216 504.813 251.216 504.27C251.216 503.727 251.311 503.17 251.502 502.598C251.692 502.026 251.986 501.505 252.382 501.036C252.792 500.552 253.306 500.163 253.922 499.87C254.552 499.562 255.3 499.408 256.166 499.408C257.031 499.408 257.772 499.562 258.388 499.87C259.018 500.163 259.532 500.552 259.928 501.036C260.338 501.505 260.639 502.026 260.83 502.598C261.02 503.17 261.116 503.727 261.116 504.27C261.116 504.813 261.02 505.37 260.83 505.942C260.639 506.514 260.338 507.042 259.928 507.526C259.532 507.995 259.018 508.384 258.388 508.692C257.772 508.985 257.031 509.132 256.166 509.132ZM256.166 508.956C256.679 508.956 257.082 508.831 257.376 508.582C257.669 508.318 257.889 507.973 258.036 507.548C258.182 507.108 258.27 506.609 258.3 506.052C258.344 505.48 258.366 504.886 258.366 504.27C258.366 503.654 258.344 503.067 258.3 502.51C258.27 501.938 258.182 501.439 258.036 501.014C257.889 500.574 257.669 500.229 257.376 499.98C257.082 499.716 256.679 499.584 256.166 499.584C255.652 499.584 255.249 499.716 254.956 499.98C254.662 500.229 254.442 500.574 254.296 501.014C254.149 501.439 254.054 501.938 254.01 502.51C253.98 503.067 253.966 503.654 253.966 504.27C253.966 504.886 253.98 505.48 254.01 506.052C254.054 506.609 254.149 507.108 254.296 507.548C254.442 507.973 254.662 508.318 254.956 508.582C255.249 508.831 255.652 508.956 256.166 508.956ZM267.466 499.76H266.147V508.472L269.645 499.54H273.627V499.76H272.307V508.78H273.627V509H268.347V508.78H269.667V500.112L266.169 509H262.187V508.78H263.507V499.76H262.187V499.54H267.466V499.76ZM281.936 509H276.656V508.78H277.976V499.76H277.426C276.957 499.76 276.561 499.833 276.238 499.98C275.915 500.127 275.651 500.332 275.446 500.596C275.241 500.845 275.072 501.153 274.94 501.52C274.823 501.872 274.727 502.253 274.654 502.664H274.456V499.54H284.136V502.664H283.938C283.865 502.253 283.762 501.872 283.63 501.52C283.513 501.153 283.351 500.845 283.146 500.596C282.941 500.332 282.677 500.127 282.354 499.98C282.031 499.833 281.635 499.76 281.166 499.76H280.616V508.78H281.936V509ZM295.138 499.76H293.818V508.472L297.316 499.54H301.298V499.76H299.978V508.78H301.298V509H296.018V508.78H297.338V500.112L293.84 509H289.858V508.78H291.178V499.76H289.858V499.54H295.138V499.76ZM305.362 503.852C306.066 503.852 306.587 503.639 306.924 503.214C307.261 502.789 307.43 502.29 307.43 501.718C307.43 501.117 307.305 500.611 307.056 500.2C306.807 499.789 306.418 499.584 305.89 499.584C305.509 499.584 305.149 499.679 304.812 499.87C304.489 500.046 304.211 500.288 303.976 500.596C303.551 501.139 303.243 501.879 303.052 502.818H302.854V499.452H303.03C303.059 499.555 303.103 499.643 303.162 499.716C303.221 499.789 303.316 499.826 303.448 499.826C303.741 499.826 304.101 499.76 304.526 499.628C304.951 499.481 305.428 499.408 305.956 499.408C306.528 499.408 307.049 499.459 307.518 499.562C308.002 499.665 308.413 499.811 308.75 500.002C309.102 500.193 309.373 500.435 309.564 500.728C309.755 501.007 309.85 501.329 309.85 501.696C309.85 502.356 309.571 502.877 309.014 503.258C308.471 503.639 307.65 503.867 306.55 503.94C307.679 504.013 308.567 504.241 309.212 504.622C309.872 505.003 310.202 505.583 310.202 506.36C310.202 506.8 310.085 507.196 309.85 507.548C309.615 507.885 309.3 508.171 308.904 508.406C308.508 508.641 308.039 508.824 307.496 508.956C306.953 509.073 306.374 509.132 305.758 509.132C305.259 509.132 304.797 509.088 304.372 509C303.947 508.897 303.573 508.751 303.25 508.56C302.942 508.369 302.693 508.135 302.502 507.856C302.326 507.563 302.238 507.233 302.238 506.866C302.238 506.455 302.341 506.125 302.546 505.876C302.751 505.612 303.045 505.48 303.426 505.48C303.763 505.48 304.013 505.583 304.174 505.788C304.335 505.993 304.416 506.235 304.416 506.514C304.416 506.763 304.365 506.991 304.262 507.196C304.174 507.401 304.13 507.614 304.13 507.834C304.13 508.171 304.262 508.443 304.526 508.648C304.805 508.853 305.215 508.956 305.758 508.956C306.11 508.956 306.411 508.89 306.66 508.758C306.909 508.611 307.115 508.428 307.276 508.208C307.437 507.973 307.555 507.702 307.628 507.394C307.701 507.086 307.738 506.756 307.738 506.404C307.738 505.656 307.533 505.084 307.122 504.688C306.726 504.277 306.132 504.072 305.34 504.072H304.878V503.852H305.362ZM326.562 509H321.282V508.78H322.602V499.76H319.786C319.786 500.728 319.778 501.615 319.764 502.422C319.749 503.229 319.705 504.043 319.632 504.864C319.588 505.333 319.529 505.825 319.456 506.338C319.382 506.837 319.265 507.299 319.104 507.724C318.957 508.135 318.744 508.472 318.466 508.736C318.202 509 317.864 509.132 317.454 509.132C316.984 509.132 316.588 508.985 316.266 508.692C315.958 508.384 315.804 507.988 315.804 507.504C315.804 507.064 315.921 506.719 316.156 506.47C316.39 506.221 316.676 506.096 317.014 506.096C317.307 506.096 317.527 506.184 317.674 506.36C317.82 506.521 317.894 506.741 317.894 507.02C317.894 507.181 317.872 507.321 317.828 507.438C317.784 507.555 317.732 507.673 317.674 507.79C317.615 507.907 317.564 508.025 317.52 508.142C317.476 508.259 317.454 508.384 317.454 508.516C317.454 508.633 317.483 508.714 317.542 508.758C317.6 508.787 317.666 508.802 317.74 508.802C318.048 508.802 318.304 508.655 318.51 508.362C318.73 508.054 318.906 507.673 319.038 507.218C319.155 506.851 319.236 506.463 319.28 506.052C319.338 505.641 319.382 505.223 319.412 504.798C319.47 503.991 319.507 503.192 319.522 502.4C319.536 501.608 319.544 500.728 319.544 499.76H318.224V499.54H326.562V499.76H325.242V508.78H326.562V509ZM332.564 499.76H331.244V508.472L334.742 499.54H338.724V499.76H337.404V508.78H338.724V509H333.444V508.78H334.764V500.112L331.266 509H327.284V508.78H328.604V499.76H327.284V499.54H332.564V499.76ZM344.702 509H339.466V508.78H340.786V499.76H339.466V499.54H344.746V499.76H343.426V504.116H346.88V499.76H345.56V499.54H350.84V499.76H349.52V508.78H350.84V509H345.604V508.78H346.88V504.336H343.426V508.78H344.702V509ZM356.863 499.76H355.543V508.472L359.041 499.54H363.023V499.76H361.703V508.78H363.023V509H357.743V508.78H359.063V500.112L355.565 509H351.583V508.78H352.903V499.76H351.583V499.54H356.863V499.76ZM369.045 499.76H367.725V508.472L371.223 499.54H375.205V499.76H373.885V508.78H375.205V509H369.925V508.78H371.245V500.112L367.747 509H363.765V508.78H365.085V499.76H363.765V499.54H369.045V499.76ZM386.103 499.76H384.783V508.472L388.281 499.54H392.263V499.76H390.943V508.78H392.263V509H386.983V508.78H388.303V500.112L384.805 509H380.823V508.78H382.143V499.76H380.823V499.54H386.103V499.76ZM148.832 525.54H152.748V528.136H152.792C152.895 527.769 153.02 527.417 153.166 527.08C153.328 526.743 153.526 526.457 153.76 526.222C154.01 525.973 154.303 525.775 154.64 525.628C154.992 525.481 155.418 525.408 155.916 525.408C156.532 525.408 157.097 525.525 157.61 525.76C158.138 525.98 158.586 526.295 158.952 526.706C159.334 527.117 159.627 527.608 159.832 528.18C160.052 528.752 160.162 529.375 160.162 530.05C160.162 530.739 160.052 531.392 159.832 532.008C159.627 532.609 159.334 533.145 158.952 533.614C158.586 534.083 158.131 534.457 157.588 534.736C157.06 535 156.481 535.132 155.85 535.132C155.381 535.132 154.978 535.059 154.64 534.912C154.303 534.765 154.017 534.575 153.782 534.34C153.548 534.105 153.357 533.834 153.21 533.526C153.064 533.218 152.939 532.895 152.836 532.558H152.792V540.148H154.112V540.368H148.832V540.148H150.152V525.76H148.832V525.54ZM155.366 534.802C155.777 534.802 156.114 534.67 156.378 534.406C156.642 534.142 156.848 533.797 156.994 533.372C157.156 532.947 157.266 532.463 157.324 531.92C157.383 531.377 157.412 530.827 157.412 530.27C157.412 529.713 157.383 529.163 157.324 528.62C157.266 528.077 157.156 527.593 156.994 527.168C156.848 526.743 156.642 526.398 156.378 526.134C156.114 525.87 155.777 525.738 155.366 525.738C154.618 525.738 154.002 526.127 153.518 526.904C153.034 527.681 152.792 528.752 152.792 530.116V530.424C152.792 531.788 153.034 532.859 153.518 533.636C154.002 534.413 154.618 534.802 155.366 534.802ZM164.222 535.132C163.298 535.132 162.616 534.927 162.176 534.516C161.736 534.105 161.516 533.533 161.516 532.8C161.516 531.891 161.868 531.209 162.572 530.754C163.276 530.285 164.384 530.05 165.894 530.05H166.818V528.642C166.818 528.07 166.796 527.593 166.752 527.212C166.708 526.816 166.628 526.508 166.51 526.288C166.408 526.053 166.254 525.885 166.048 525.782C165.843 525.679 165.586 525.628 165.278 525.628C164.897 525.628 164.582 525.709 164.332 525.87C164.083 526.017 163.958 526.288 163.958 526.684C163.958 526.933 163.995 527.139 164.068 527.3C164.156 527.447 164.2 527.637 164.2 527.872C164.2 528.165 164.105 528.415 163.914 528.62C163.738 528.825 163.467 528.928 163.1 528.928C162.396 528.928 162.044 528.547 162.044 527.784C162.044 527.036 162.382 526.457 163.056 526.046C163.731 525.621 164.626 525.408 165.74 525.408C166.151 525.408 166.576 525.452 167.016 525.54C167.456 525.628 167.86 525.811 168.226 526.09C168.593 526.369 168.886 526.772 169.106 527.3C169.341 527.828 169.458 528.525 169.458 529.39V533.79C169.458 534.479 169.671 534.824 170.096 534.824C170.346 534.824 170.544 534.736 170.69 534.56C170.852 534.384 170.976 534.171 171.064 533.922L171.24 533.988C171.123 534.325 170.94 534.604 170.69 534.824C170.456 535.029 170.023 535.132 169.392 535.132C168.674 535.132 168.08 534.963 167.61 534.626C167.156 534.289 166.928 533.687 166.928 532.822V532.712H166.884C166.723 533.621 166.43 534.252 166.004 534.604C165.579 534.956 164.985 535.132 164.222 535.132ZM165.08 534.692C165.447 534.692 165.74 534.567 165.96 534.318C166.195 534.069 166.371 533.753 166.488 533.372C166.62 532.991 166.708 532.573 166.752 532.118C166.796 531.649 166.818 531.194 166.818 530.754V530.27H166.158C165.41 530.27 164.86 530.483 164.508 530.908C164.156 531.333 163.98 531.986 163.98 532.866C163.98 533.409 164.054 533.849 164.2 534.186C164.362 534.523 164.655 534.692 165.08 534.692ZM176.52 535.132C175.728 535.132 175.031 535.007 174.43 534.758C173.843 534.494 173.345 534.142 172.934 533.702C172.538 533.262 172.237 532.756 172.032 532.184C171.827 531.612 171.724 531.003 171.724 530.358C171.724 529.683 171.834 529.045 172.054 528.444C172.274 527.843 172.589 527.322 173 526.882C173.425 526.427 173.931 526.068 174.518 525.804C175.119 525.54 175.794 525.408 176.542 525.408C177.114 525.408 177.62 525.489 178.06 525.65C178.515 525.797 178.889 525.995 179.182 526.244C179.49 526.479 179.725 526.75 179.886 527.058C180.047 527.366 180.128 527.674 180.128 527.982C180.128 528.334 180.025 528.62 179.82 528.84C179.629 529.045 179.329 529.148 178.918 529.148C178.493 529.148 178.192 529.038 178.016 528.818C177.855 528.598 177.774 528.327 177.774 528.004C177.774 527.755 177.803 527.535 177.862 527.344C177.921 527.153 177.95 526.948 177.95 526.728C177.95 526.391 177.84 526.119 177.62 525.914C177.415 525.709 177.099 525.606 176.674 525.606C176.205 525.606 175.823 525.731 175.53 525.98C175.251 526.229 175.031 526.567 174.87 526.992C174.723 527.403 174.621 527.887 174.562 528.444C174.503 528.987 174.474 529.566 174.474 530.182C174.474 530.857 174.511 531.48 174.584 532.052C174.657 532.624 174.782 533.123 174.958 533.548C175.149 533.959 175.398 534.281 175.706 534.516C176.014 534.751 176.41 534.868 176.894 534.868C177.393 534.868 177.825 534.787 178.192 534.626C178.573 534.45 178.896 534.237 179.16 533.988C179.424 533.739 179.637 533.475 179.798 533.196C179.974 532.917 180.099 532.668 180.172 532.448L180.392 532.536C180.275 532.844 180.113 533.152 179.908 533.46C179.717 533.768 179.468 534.047 179.16 534.296C178.852 534.545 178.478 534.751 178.038 534.912C177.598 535.059 177.092 535.132 176.52 535.132ZM188.844 535H183.564V534.78H184.884V525.76H184.334C183.865 525.76 183.469 525.833 183.146 525.98C182.824 526.127 182.56 526.332 182.354 526.596C182.149 526.845 181.98 527.153 181.848 527.52C181.731 527.872 181.636 528.253 181.562 528.664H181.364V525.54H191.044V528.664H190.846C190.773 528.253 190.67 527.872 190.538 527.52C190.421 527.153 190.26 526.845 190.054 526.596C189.849 526.332 189.585 526.127 189.262 525.98C188.94 525.833 188.544 525.76 188.074 525.76H187.524V534.78H188.844V535ZM202.344 535H197.064V534.78H198.384V530.534H197.79C197.497 530.534 197.248 530.563 197.042 530.622C196.837 530.681 196.661 530.783 196.514 530.93C196.368 531.062 196.243 531.253 196.14 531.502C196.052 531.751 195.972 532.067 195.898 532.448L195.766 533.152C195.649 533.812 195.414 534.311 195.062 534.648C194.725 534.971 194.212 535.132 193.522 535.132C193.141 535.132 192.738 535.059 192.312 534.912C191.887 534.765 191.535 534.479 191.256 534.054L191.41 533.922C191.66 534.318 191.938 534.516 192.246 534.516C192.481 534.516 192.664 534.428 192.796 534.252C192.943 534.061 193.046 533.827 193.104 533.548L193.236 532.91C193.339 532.397 193.493 531.986 193.698 531.678C193.904 531.355 194.153 531.113 194.446 530.952C194.74 530.776 195.077 530.651 195.458 530.578C195.854 530.505 196.294 530.453 196.778 530.424C195.59 530.38 194.674 530.182 194.028 529.83C193.398 529.463 193.082 528.884 193.082 528.092C193.082 527.623 193.192 527.227 193.412 526.904C193.647 526.567 193.962 526.303 194.358 526.112C194.769 525.907 195.246 525.76 195.788 525.672C196.331 525.584 196.918 525.54 197.548 525.54H202.344V525.76H201.024V534.78H202.344V535ZM195.59 528.07C195.59 528.759 195.774 529.309 196.14 529.72C196.507 530.116 197.072 530.314 197.834 530.314H198.384V525.76H197.658C197.013 525.76 196.507 525.943 196.14 526.31C195.774 526.662 195.59 527.249 195.59 528.07ZM208.298 535H203.062V534.78H204.382V525.76H203.062V525.54H208.341V525.76H207.022V530.116H210.476V525.76H209.155V525.54H214.436V525.76H213.116V534.78H214.436V535H209.2V534.78H210.476V530.336H207.022V534.78H208.298V535ZM221.889 525.54H224.617V525.76H223.561L218.611 538.234C218.288 539.041 217.936 539.62 217.555 539.972C217.173 540.324 216.66 540.5 216.015 540.5C215.311 540.5 214.761 540.317 214.365 539.95C213.969 539.598 213.771 539.121 213.771 538.52C213.771 538.051 213.895 537.677 214.145 537.398C214.379 537.134 214.68 537.002 215.047 537.002C215.413 537.002 215.692 537.119 215.883 537.354C216.073 537.589 216.169 537.875 216.169 538.212C216.169 538.373 216.147 538.513 216.103 538.63C216.059 538.762 216.015 538.879 215.971 538.982C215.927 539.099 215.883 539.209 215.839 539.312C215.795 539.415 215.773 539.525 215.773 539.642C215.773 539.847 215.831 539.987 215.949 540.06C216.066 540.148 216.213 540.192 216.389 540.192C216.843 540.192 217.239 539.979 217.577 539.554C217.914 539.129 218.185 538.652 218.391 538.124L219.469 535.418L215.641 525.76H214.585V525.54H219.601V525.76H218.325L220.767 532.14L223.297 525.76H221.889V525.54ZM232.307 535H227.027V534.78H228.347V525.76H227.797C227.328 525.76 226.932 525.833 226.609 525.98C226.287 526.127 226.023 526.332 225.817 526.596C225.612 526.845 225.443 527.153 225.311 527.52C225.194 527.872 225.099 528.253 225.025 528.664H224.827V525.54H234.507V528.664H234.309C234.236 528.253 234.133 527.872 234.001 527.52C233.884 527.153 233.723 526.845 233.517 526.596C233.312 526.332 233.048 526.127 232.725 525.98C232.403 525.833 232.007 525.76 231.537 525.76H230.987V534.78H232.307V535ZM240.633 535.132C239.767 535.132 239.019 534.985 238.389 534.692C237.773 534.384 237.259 533.995 236.849 533.526C236.453 533.042 236.159 532.514 235.969 531.942C235.778 531.37 235.683 530.813 235.683 530.27C235.683 529.727 235.778 529.17 235.969 528.598C236.159 528.026 236.453 527.505 236.849 527.036C237.259 526.552 237.773 526.163 238.389 525.87C239.019 525.562 239.767 525.408 240.633 525.408C241.498 525.408 242.239 525.562 242.855 525.87C243.485 526.163 243.999 526.552 244.395 527.036C244.805 527.505 245.106 528.026 245.297 528.598C245.487 529.17 245.583 529.727 245.583 530.27C245.583 530.813 245.487 531.37 245.297 531.942C245.106 532.514 244.805 533.042 244.395 533.526C243.999 533.995 243.485 534.384 242.855 534.692C242.239 534.985 241.498 535.132 240.633 535.132ZM240.633 534.956C241.146 534.956 241.549 534.831 241.843 534.582C242.136 534.318 242.356 533.973 242.503 533.548C242.649 533.108 242.737 532.609 242.767 532.052C242.811 531.48 242.833 530.886 242.833 530.27C242.833 529.654 242.811 529.067 242.767 528.51C242.737 527.938 242.649 527.439 242.503 527.014C242.356 526.574 242.136 526.229 241.843 525.98C241.549 525.716 241.146 525.584 240.633 525.584C240.119 525.584 239.716 525.716 239.423 525.98C239.129 526.229 238.909 526.574 238.763 527.014C238.616 527.439 238.521 527.938 238.477 528.51C238.447 529.067 238.433 529.654 238.433 530.27C238.433 530.886 238.447 531.48 238.477 532.052C238.521 532.609 238.616 533.108 238.763 533.548C238.909 533.973 239.129 534.318 239.423 534.582C239.716 534.831 240.119 534.956 240.633 534.956ZM252.373 524.242C251.449 524.242 250.679 524.044 250.063 523.648C249.462 523.237 249.161 522.651 249.161 521.888C249.161 521.595 249.249 521.331 249.425 521.096C249.601 520.847 249.865 520.722 250.217 520.722C250.833 520.722 251.141 521.045 251.141 521.69C251.141 521.925 251.105 522.13 251.031 522.306C250.973 522.467 250.943 522.673 250.943 522.922C250.943 523.303 251.068 523.589 251.317 523.78C251.581 523.971 251.933 524.066 252.373 524.066C252.843 524.066 253.173 523.971 253.363 523.78C253.569 523.589 253.671 523.303 253.671 522.922C253.671 522.702 253.649 522.504 253.605 522.328C253.561 522.152 253.539 521.947 253.539 521.712C253.539 521.404 253.62 521.162 253.781 520.986C253.943 520.81 254.177 520.722 254.485 520.722C254.867 520.722 255.138 520.847 255.299 521.096C255.461 521.331 255.541 521.595 255.541 521.888C255.541 522.651 255.241 523.237 254.639 523.648C254.053 524.044 253.297 524.242 252.373 524.242ZM251.933 525.76H250.613V534.472L254.111 525.54H258.093V525.76H256.773V534.78H258.093V535H252.813V534.78H254.133V526.112L250.635 535H246.653V534.78H247.973V525.76H246.653V525.54H251.933V525.76ZM273.722 518.742C273.707 518.933 273.678 519.219 273.634 519.6C273.605 519.967 273.539 520.304 273.436 520.612C273.216 521.257 272.871 521.771 272.402 522.152C271.947 522.519 271.251 522.768 270.312 522.9L269.234 523.054C268.501 523.157 267.848 523.318 267.276 523.538C266.704 523.743 266.213 524.037 265.802 524.418C265.391 524.799 265.076 525.291 264.856 525.892C264.651 526.479 264.548 527.197 264.548 528.048C264.548 528.341 264.548 528.569 264.548 528.73C264.548 528.877 264.563 529.016 264.592 529.148H264.658C265.01 528.004 265.604 527.095 266.44 526.42C267.276 525.745 268.266 525.408 269.41 525.408C270.261 525.408 270.987 525.562 271.588 525.87C272.189 526.163 272.673 526.545 273.04 527.014C273.421 527.469 273.693 527.989 273.854 528.576C274.03 529.148 274.118 529.705 274.118 530.248C274.118 530.791 274.023 531.355 273.832 531.942C273.656 532.514 273.377 533.035 272.996 533.504C272.615 533.973 272.116 534.362 271.5 534.67C270.899 534.978 270.173 535.132 269.322 535.132C267.635 535.132 266.374 534.553 265.538 533.394C264.702 532.235 264.284 530.541 264.284 528.312C264.284 527.241 264.379 526.266 264.57 525.386C264.775 524.491 265.083 523.707 265.494 523.032C265.919 522.357 266.462 521.807 267.122 521.382C267.782 520.942 268.574 520.641 269.498 520.48L271.104 520.216C271.544 520.143 271.903 520.077 272.182 520.018C272.461 519.945 272.681 519.871 272.842 519.798C273.018 519.71 273.15 519.622 273.238 519.534C273.326 519.431 273.392 519.314 273.436 519.182C273.495 519.021 273.531 518.874 273.546 518.742H273.722ZM269.322 534.956C269.777 534.956 270.143 534.831 270.422 534.582C270.701 534.318 270.913 533.973 271.06 533.548C271.207 533.108 271.302 532.609 271.346 532.052C271.39 531.48 271.412 530.886 271.412 530.27C271.412 529.654 271.39 529.067 271.346 528.51C271.317 527.938 271.236 527.439 271.104 527.014C270.972 526.574 270.774 526.229 270.51 525.98C270.246 525.716 269.879 525.584 269.41 525.584C268.985 525.584 268.625 525.716 268.332 525.98C268.039 526.229 267.804 526.574 267.628 527.014C267.452 527.439 267.327 527.938 267.254 528.51C267.181 529.067 267.144 529.654 267.144 530.27C267.144 530.886 267.166 531.48 267.21 532.052C267.254 532.609 267.349 533.108 267.496 533.548C267.657 533.973 267.877 534.318 268.156 534.582C268.449 534.831 268.838 534.956 269.322 534.956ZM281.938 525.54H284.666V525.76H283.61L278.66 538.234C278.337 539.041 277.985 539.62 277.604 539.972C277.222 540.324 276.709 540.5 276.064 540.5C275.36 540.5 274.81 540.317 274.414 539.95C274.018 539.598 273.82 539.121 273.82 538.52C273.82 538.051 273.944 537.677 274.194 537.398C274.428 537.134 274.729 537.002 275.096 537.002C275.462 537.002 275.741 537.119 275.932 537.354C276.122 537.589 276.218 537.875 276.218 538.212C276.218 538.373 276.196 538.513 276.152 538.63C276.108 538.762 276.064 538.879 276.02 538.982C275.976 539.099 275.932 539.209 275.888 539.312C275.844 539.415 275.822 539.525 275.822 539.642C275.822 539.847 275.88 539.987 275.998 540.06C276.115 540.148 276.262 540.192 276.438 540.192C276.892 540.192 277.288 539.979 277.626 539.554C277.963 539.129 278.234 538.652 278.44 538.124L279.518 535.418L275.69 525.76H274.634V525.54H279.65V525.76H278.374L280.816 532.14L283.346 525.76H281.938V525.54ZM289.958 525.76H288.748V530.16H289.518L293.39 525.76H291.96V525.54H295.04V525.76H293.698L291.3 528.466L295.062 534.78H296.118V535H291.014V534.78H292.07L289.518 530.38H288.748V534.78H289.958V535H284.788V534.78H286.108V525.76H284.788V525.54H289.958V525.76ZM300.884 525.54C302.35 525.54 303.436 525.716 304.14 526.068C304.844 526.405 305.196 526.97 305.196 527.762C305.196 528.407 304.91 528.928 304.338 529.324C303.766 529.705 303.003 529.933 302.05 530.006C302.578 530.035 303.054 530.101 303.48 530.204C303.92 530.307 304.294 530.453 304.602 530.644C304.924 530.835 305.174 531.069 305.35 531.348C305.526 531.612 305.614 531.935 305.614 532.316C305.614 533.152 305.24 533.812 304.492 534.296C303.758 534.765 302.563 535 300.906 535H296.132V534.78H297.452V525.76H296.132V525.54H300.884ZM300.092 530.16V534.78H300.906C301.712 534.78 302.277 534.56 302.6 534.12C302.937 533.665 303.106 533.093 303.106 532.404C303.106 531.759 302.922 531.223 302.556 530.798C302.204 530.373 301.602 530.16 300.752 530.16H300.092ZM300.092 525.76V529.94H300.796C301.47 529.94 301.954 529.742 302.248 529.346C302.556 528.935 302.71 528.422 302.71 527.806C302.71 526.442 302.079 525.76 300.818 525.76H300.092ZM311.939 525.76H310.619V529.456C310.824 529.441 311.03 529.427 311.235 529.412C311.455 529.397 311.668 529.39 311.873 529.39C312.445 529.39 312.966 529.441 313.435 529.544C313.919 529.647 314.337 529.808 314.689 530.028C315.041 530.233 315.312 530.505 315.503 530.842C315.694 531.179 315.789 531.583 315.789 532.052C315.789 532.536 315.679 532.961 315.459 533.328C315.239 533.695 314.924 534.003 314.513 534.252C314.117 534.501 313.64 534.692 313.083 534.824C312.526 534.941 311.91 535 311.235 535H306.659V534.78H307.979V525.76H306.659V525.54H311.939V525.76ZM321.069 535H315.789V534.78H317.109V525.76H315.789V525.54H321.069V525.76H319.749V534.78H321.069V535ZM311.345 529.632C311.228 529.632 311.103 529.639 310.971 529.654C310.854 529.654 310.736 529.661 310.619 529.676V534.78H311.279C311.675 534.78 311.998 534.707 312.247 534.56C312.511 534.399 312.716 534.193 312.863 533.944C313.01 533.695 313.112 533.409 313.171 533.086C313.23 532.763 313.259 532.433 313.259 532.096C313.259 531.348 313.098 530.754 312.775 530.314C312.467 529.859 311.99 529.632 311.345 529.632ZM333.37 534.318C333.091 533.555 332.71 532.881 332.226 532.294C331.757 531.707 331.273 531.172 330.774 530.688C330.701 530.615 330.635 530.556 330.576 530.512C330.532 530.453 330.51 530.373 330.51 530.27C330.51 530.167 330.532 530.094 330.576 530.05C330.635 529.991 330.701 529.925 330.774 529.852C331.273 529.368 331.757 528.833 332.226 528.246C332.71 527.659 333.091 526.985 333.37 526.222L333.502 526.244C333.429 526.581 333.341 526.941 333.238 527.322C333.15 527.703 333.047 528.077 332.93 528.444C332.827 528.796 332.717 529.133 332.6 529.456C332.483 529.779 332.373 530.05 332.27 530.27C332.373 530.49 332.483 530.761 332.6 531.084C332.717 531.407 332.827 531.751 332.93 532.118C333.047 532.47 333.15 532.837 333.238 533.218C333.341 533.599 333.429 533.959 333.502 534.296L333.37 534.318ZM330.026 534.318C329.747 533.555 329.366 532.881 328.882 532.294C328.413 531.707 327.929 531.172 327.43 530.688C327.357 530.615 327.291 530.556 327.232 530.512C327.188 530.453 327.166 530.373 327.166 530.27C327.166 530.167 327.188 530.094 327.232 530.05C327.291 529.991 327.357 529.925 327.43 529.852C327.929 529.368 328.413 528.833 328.882 528.246C329.366 527.659 329.747 526.985 330.026 526.222L330.158 526.244C330.085 526.581 329.997 526.941 329.894 527.322C329.806 527.703 329.703 528.077 329.586 528.444C329.483 528.796 329.373 529.133 329.256 529.456C329.139 529.779 329.029 530.05 328.926 530.27C329.029 530.49 329.139 530.761 329.256 531.084C329.373 531.407 329.483 531.751 329.586 532.118C329.703 532.47 329.806 532.837 329.894 533.218C329.997 533.599 330.085 533.959 330.158 534.296L330.026 534.318ZM340.384 535.132C339.519 535.132 338.771 534.985 338.14 534.692C337.524 534.384 337.011 533.995 336.6 533.526C336.204 533.042 335.911 532.514 335.72 531.942C335.53 531.37 335.434 530.813 335.434 530.27C335.434 529.727 335.53 529.17 335.72 528.598C335.911 528.026 336.204 527.505 336.6 527.036C337.011 526.552 337.524 526.163 338.14 525.87C338.771 525.562 339.519 525.408 340.384 525.408C341.25 525.408 341.99 525.562 342.606 525.87C343.237 526.163 343.75 526.552 344.146 527.036C344.557 527.505 344.858 528.026 345.048 528.598C345.239 529.17 345.334 529.727 345.334 530.27C345.334 530.813 345.239 531.37 345.048 531.942C344.858 532.514 344.557 533.042 344.146 533.526C343.75 533.995 343.237 534.384 342.606 534.692C341.99 534.985 341.25 535.132 340.384 535.132ZM340.384 534.956C340.898 534.956 341.301 534.831 341.594 534.582C341.888 534.318 342.108 533.973 342.254 533.548C342.401 533.108 342.489 532.609 342.518 532.052C342.562 531.48 342.584 530.886 342.584 530.27C342.584 529.654 342.562 529.067 342.518 528.51C342.489 527.938 342.401 527.439 342.254 527.014C342.108 526.574 341.888 526.229 341.594 525.98C341.301 525.716 340.898 525.584 340.384 525.584C339.871 525.584 339.468 525.716 339.174 525.98C338.881 526.229 338.661 526.574 338.514 527.014C338.368 527.439 338.272 527.938 338.228 528.51C338.199 529.067 338.184 529.654 338.184 530.27C338.184 530.886 338.199 531.48 338.228 532.052C338.272 532.609 338.368 533.108 338.514 533.548C338.661 533.973 338.881 534.318 339.174 534.582C339.468 534.831 339.871 534.956 340.384 534.956ZM350.607 534.296C350.666 533.959 350.747 533.599 350.849 533.218C350.952 532.837 351.055 532.47 351.157 532.118C351.275 531.751 351.392 531.407 351.509 531.084C351.627 530.761 351.737 530.49 351.839 530.27C351.737 530.05 351.627 529.779 351.509 529.456C351.392 529.133 351.275 528.796 351.157 528.444C351.055 528.077 350.952 527.703 350.849 527.322C350.747 526.941 350.666 526.581 350.607 526.244L350.739 526.222C351.018 526.985 351.392 527.659 351.861 528.246C352.345 528.833 352.837 529.368 353.335 529.852C353.409 529.925 353.467 529.991 353.511 530.05C353.57 530.094 353.599 530.167 353.599 530.27C353.599 530.373 353.57 530.453 353.511 530.512C353.467 530.556 353.409 530.615 353.335 530.688C352.837 531.172 352.345 531.707 351.861 532.294C351.392 532.881 351.018 533.555 350.739 534.318L350.607 534.296ZM347.263 534.296C347.322 533.959 347.403 533.599 347.505 533.218C347.608 532.837 347.711 532.47 347.813 532.118C347.931 531.751 348.048 531.407 348.165 531.084C348.283 530.761 348.393 530.49 348.495 530.27C348.393 530.05 348.283 529.779 348.165 529.456C348.048 529.133 347.931 528.796 347.813 528.444C347.711 528.077 347.608 527.703 347.505 527.322C347.403 526.941 347.322 526.581 347.263 526.244L347.395 526.222C347.674 526.985 348.048 527.659 348.517 528.246C349.001 528.833 349.493 529.368 349.991 529.852C350.065 529.925 350.123 529.991 350.167 530.05C350.226 530.094 350.255 530.167 350.255 530.27C350.255 530.373 350.226 530.453 350.167 530.512C350.123 530.556 350.065 530.615 349.991 530.688C349.493 531.172 349.001 531.707 348.517 532.294C348.048 532.881 347.674 533.555 347.395 534.318L347.263 534.296Z" fill="#444444"/>
<path d="M347.628 137.609C347.628 148.362 345.414 157.613 340.986 165.361C336.716 173.11 330.866 179.514 323.433 184.574C316.001 189.634 307.383 193.509 297.579 196.197C287.775 198.727 277.417 200.229 266.506 200.704V223H285.008V225.372H217.644V223H236.145V200.704C225.234 200.229 214.877 198.648 205.073 195.96C195.268 193.271 186.65 189.397 179.218 184.337C171.786 179.277 165.856 172.873 161.428 165.124C157.159 157.376 155.024 148.204 155.024 137.609C155.024 126.54 157.159 117.131 161.428 109.383C165.856 101.476 171.786 95.0721 179.218 90.1701C186.65 85.1099 195.268 81.3938 205.073 79.0219C214.877 76.6499 225.234 75.2267 236.145 74.7523V54.5906H217.644V52.2187H285.008V54.5906H266.506V74.7523C277.417 75.0686 287.775 76.4127 297.579 78.7847C307.541 81.1566 316.159 84.8727 323.433 89.9329C330.866 94.8349 336.716 101.239 340.986 109.146C345.414 116.894 347.628 126.382 347.628 137.609ZM316.318 137.609C316.318 128.754 315.132 120.768 312.76 113.653C310.388 106.378 307.067 100.132 302.797 94.914C298.528 89.6957 293.31 85.5843 287.142 82.5798C280.975 79.4172 274.097 77.4406 266.506 76.6499V198.569C275.045 197.936 282.399 195.96 288.566 192.639C294.891 189.318 300.109 184.97 304.221 179.593C308.332 174.217 311.336 167.97 313.234 160.855C315.29 153.739 316.318 145.99 316.318 137.609ZM186.334 137.609C186.334 145.99 187.441 153.739 189.655 160.855C191.869 167.812 195.11 173.979 199.38 179.356C203.649 184.574 208.868 188.844 215.035 192.164C221.202 195.485 228.239 197.541 236.145 198.332V76.8871C228.555 77.6778 221.676 79.6544 215.509 82.817C209.5 85.8215 204.282 89.9329 199.854 95.1512C195.585 100.37 192.264 106.616 189.892 113.89C187.52 121.006 186.334 128.912 186.334 137.609Z" fill="black"/>
<path d="M249.889 202C234.608 202 220.876 200.319 208.692 196.958C196.509 193.477 186.184 188.796 177.717 182.914C169.251 177.032 162.746 170.19 158.203 162.388C153.66 154.465 151.389 146.003 151.389 137C151.389 127.997 153.66 119.595 158.203 111.792C162.746 103.87 169.251 96.9677 177.717 91.0859C186.184 85.2041 196.509 80.5826 208.692 77.2216C220.876 73.7405 234.608 72 249.889 72C265.17 72 278.902 73.7405 291.085 77.2216C303.269 80.5826 313.594 85.2041 322.06 91.0859C330.527 96.9677 337.031 103.87 341.574 111.792C346.117 119.595 348.389 127.997 348.389 137C348.389 146.003 346.117 154.465 341.574 162.388C337.031 170.19 330.527 177.032 322.06 182.914C313.594 188.796 303.269 193.477 291.085 196.958C278.902 200.319 265.17 202 249.889 202ZM249.889 200.56C261.866 200.56 271.365 198.639 278.386 194.798C285.406 190.837 290.672 185.795 294.183 179.673C297.9 173.431 300.274 166.589 301.307 159.147C302.339 151.584 302.856 144.202 302.856 137C302.856 129.798 302.339 122.476 301.307 115.033C300.274 107.471 297.9 100.629 294.183 94.5069C290.672 88.265 285.406 83.2235 278.386 79.3823C271.365 75.4211 261.866 73.4404 249.889 73.4404C237.912 73.4404 228.413 75.4211 221.392 79.3823C214.371 83.2235 209.002 88.265 205.285 94.5069C201.774 100.629 199.503 107.471 198.47 115.033C197.438 122.476 196.922 129.798 196.922 137C196.922 144.202 197.438 151.584 198.47 159.147C199.503 166.589 201.774 173.431 205.285 179.673C209.002 185.795 214.371 190.837 221.392 194.798C228.413 198.639 237.912 200.56 249.889 200.56Z" fill="#D33A27"/>
</svg>
