<svg width="342" height="485" viewBox="0 0 342 485" fill="none" xmlns="http://www.w3.org/2000/svg">
<path d="M171.308 9.17325L208.03 43.3168H134.585L171.308 9.17325Z" stroke="#AAAAAA" stroke-width="1.69615"/>
<circle cx="171.308" cy="9.17315" r="8.48077" fill="#D33A27"/>
<rect x="1.69238" y="43.096" width="339.231" height="441" stroke="#1C1C1C" stroke-width="1.69615"/>
<path d="M327.736 85.7829V440.643C326.796 440.643 325.856 440.496 324.887 440.496C321.109 440.496 317.367 441.266 313.877 442.762C310.386 444.258 307.214 446.45 304.542 449.214C301.871 451.978 299.751 455.26 298.305 458.871C296.859 462.482 296.115 466.353 296.115 470.262V470.527H44.2337V470.262C44.2337 466.353 43.4895 462.482 42.0436 458.871C40.5977 455.26 38.4784 451.978 35.8067 449.214C33.135 446.45 29.9631 444.258 26.4724 442.762C22.9816 441.266 19.2403 440.496 15.4619 440.496V85.9302C23.0095 85.9313 30.2553 82.8641 35.6373 77.3898C41.0194 71.9156 44.1067 64.4727 44.2337 56.6655H296.115C296.242 64.4727 299.33 71.9156 304.712 77.3898C310.094 82.8641 317.339 85.9313 324.887 85.9302C325.856 85.9302 326.796 85.8713 327.736 85.7829Z" stroke="#1C1C1C" stroke-width="1.69615" stroke-miterlimit="10"/>
</svg>
