<svg width="330" height="701" viewBox="0 0 330 701" fill="none" xmlns="http://www.w3.org/2000/svg">
<path d="M226.633 133.06L208.049 109.986C213.861 109.526 219.669 110.929 224.627 113.991C230.792 118.011 235.167 124.249 236.842 131.406C249.453 159.547 255.423 190.201 254.292 221.007C253.914 228.919 253.04 236.801 251.675 244.604L238.761 246.259C236.326 239.905 234.458 233.349 233.177 226.667C227.157 195.842 236.842 179.123 230.385 147.428C229.454 142.561 228.2 137.762 226.633 133.06Z" fill="#E2C4BB"/>
<path d="M95.2324 244.778L70.1912 234.417C69.0661 212.374 70.324 190.274 73.943 168.5C75.6008 158.487 77.6075 149.082 79.8761 140.375C82.6626 138.068 86.0115 136.539 89.5823 135.942C93.1531 135.346 96.8184 135.704 100.206 136.979C104.644 138.923 108.214 142.424 110.24 146.818C105.295 179.501 100.293 212.154 95.2324 244.778Z" fill="#E2C4BB"/>
<path d="M80.7486 347.179L70.4529 346.657C63.1305 317.078 61.4142 286.394 65.3923 256.185C66.6138 247.478 68.1844 239.641 70.0167 232.065L96.1922 234.591C97.0565 241.346 97.3484 248.162 97.0647 254.966C95.4942 286.4 82.0574 300.246 80.7486 332.638C80.4846 337.481 80.4846 342.335 80.7486 347.179Z" fill="#E2C4BB"/>
<path d="M70.7142 346.657C67.7348 351.682 65.778 357.245 64.9556 363.027C63.3726 374.126 65.8842 385.421 72.023 394.809C76.6473 401.514 85.1107 409.09 89.4733 407.087C90.3441 406.607 91.0506 405.878 91.5017 404.993C91.9528 404.108 92.1276 403.109 92.0036 402.124C91.3929 398.205 84.9362 398.728 81.1844 394.026C76.2983 387.756 79.2649 375.827 82.0569 375.391C83.5402 375.391 85.6343 377.743 86.245 380.268C87.4665 385.144 83.1912 388.54 84.7617 390.804C85.6755 391.63 86.8342 392.136 88.0623 392.246C89.2903 392.356 90.5208 392.064 91.5674 391.414C97.4133 387.582 92.0909 369.47 87.9901 359.892C86.1527 355.421 83.842 351.16 81.0972 347.179L70.7142 346.657Z" fill="#E2C4BB"/>
<path d="M107.535 229.714H53.5259C55.2714 208.978 59.4593 188.519 66.0029 168.761C70.2942 155.699 75.6339 143.002 81.97 130.796C84.3019 128.659 87.0671 127.048 90.078 126.071C93.0889 125.095 96.2751 124.776 99.4204 125.136C103.469 125.844 107.224 127.71 110.229 130.508C113.235 133.306 115.36 136.915 116.347 140.897L107.535 229.714Z" fill="white"/>
<path d="M238.238 148.995L79.6143 148.037C80.832 141.176 84.0841 134.836 88.9502 129.839C100.729 118.432 115.562 124.092 127.516 115.123C133.798 110.421 140.516 100.843 141.389 79.8574H143.744L158.315 78.8995L172.712 79.8574H175.155C176.028 100.843 182.659 110.421 189.028 115.123C200.894 123.83 215.204 118.606 227.506 129.839C232.942 134.994 236.684 141.674 238.238 148.995Z" fill="#E2C4BB"/>
<path d="M165.47 5.49478C162.567 5.24409 159.648 5.24409 156.745 5.49478C150.079 6.46898 143.999 9.83734 139.646 14.9676C135.292 20.0979 132.964 26.6373 133.099 33.3588V61.8326C135.018 71.4443 140.308 80.058 148.019 86.1265C153.133 90.0135 159.125 92.5854 165.47 93.6151H166.953C173.122 92.5312 178.932 89.9604 183.88 86.1265C191.591 80.058 196.881 71.4443 198.8 61.8326V33.3588C198.823 26.5881 196.343 20.0468 191.836 14.9862C187.328 9.92572 181.11 6.70136 174.369 5.93005C171.423 5.50979 168.443 5.36414 165.47 5.49478Z" fill="#E2C4BB"/>
<path d="M146.711 483.017C146.621 488.416 144.432 493.569 140.606 497.387C136.78 501.205 131.617 503.39 126.206 503.48C122.031 503.369 117.98 502.04 114.553 499.657C111.126 497.274 108.474 493.941 106.924 490.07C106.924 487.022 107.535 483.888 107.884 480.666C108.233 477.444 108.32 474.832 108.494 471.958C110.463 469.117 113.061 466.767 116.088 465.09C119.114 463.414 122.487 462.457 125.945 462.293C131.438 462.338 136.694 464.536 140.578 468.413C144.463 472.29 146.665 477.535 146.711 483.017Z" fill="#E2C4BB"/>
<path d="M144.53 667.008L128.214 663.002C128.214 659.432 128.214 653.859 128.214 646.98C125.16 594.735 102.911 573.837 101.602 532.563C101.189 518.367 103.195 504.205 107.535 490.68L147.06 484.41C147.758 522.723 146.537 552.503 145.14 573.227C144.442 584.721 142.959 604.052 143.308 630.784C143.134 646.022 143.919 658.561 144.53 667.008Z" fill="#E2C4BB"/>
<path d="M149.241 697.048H108.145C106.915 695.432 106.353 693.406 106.575 691.389C107.36 687.557 112.334 685.99 115.3 684.51C118.915 682.141 121.968 679.012 124.244 675.341C126.519 671.671 127.964 667.549 128.475 663.263L144.442 664.831C146.013 670.665 147.409 676.238 148.805 681.723C149.985 685.553 150.429 689.571 150.114 693.565C149.677 694.872 149.416 696.178 149.241 697.048Z" fill="#E2C4BB"/>
<path d="M210.928 286.226C205.665 277.2 199.37 268.813 192.169 261.236C196.095 240.86 199.934 220.484 203.861 200.283C207.659 198.434 210.864 195.563 213.115 191.993C215.365 188.424 216.572 184.298 216.6 180.081C216.578 174.522 214.46 169.175 210.666 165.104C211.713 159.705 212.76 154.307 213.72 148.995C210.025 144.566 205.45 140.948 200.283 138.372C193.366 135.374 185.873 133.929 178.335 134.139C170.796 134.35 163.396 136.211 156.658 139.591C149.902 136.268 142.507 134.439 134.978 134.228C127.449 134.018 119.963 135.431 113.032 138.372C107.88 140.971 103.309 144.585 99.5948 148.995C100.642 154.307 101.602 159.705 102.649 165.104C98.8552 169.175 96.7369 174.522 96.7155 180.081C96.759 184.283 97.9736 188.391 100.223 191.943C102.473 195.496 105.669 198.353 109.454 200.196L121.233 261.148C114.031 268.746 107.709 277.129 102.387 286.139C92.5686 303.443 86.6158 322.662 84.9365 342.477C99.152 348.315 113.996 352.493 129.173 354.929C137.83 356.367 146.576 357.21 155.349 357.454C155.349 352.839 157.181 352.839 157.53 357.454C166.449 357.23 175.341 356.387 184.142 354.929C199.553 352.574 214.634 348.424 229.077 342.564C227.224 322.687 221.029 303.457 210.928 286.226Z" fill="#E2C4BB"/>
<path d="M238.936 488.242C240.169 493.193 239.568 498.423 237.243 502.967C234.918 507.511 231.026 511.064 226.284 512.971C222.656 514.351 218.727 514.747 214.896 514.12C211.064 513.493 207.468 511.865 204.471 509.401L201.243 498.255C200.632 496.253 197.84 486.5 197.229 484.497C200.709 479.601 205.807 476.086 211.626 474.571C217.066 473.126 222.847 473.718 227.879 476.237C232.911 478.756 236.844 483.026 238.936 488.242Z" fill="#E2C4BB"/>
<path d="M233.788 485.803L197.23 484.497C181.875 455.413 171.02 424.176 165.034 391.849C162.207 376.465 160.515 360.895 159.973 345.263L229.077 342.564C233.311 374.959 235.439 407.594 235.446 440.263C235.184 456.024 234.661 471.262 233.788 485.803Z" fill="#E2C4BB"/>
<path d="M272.179 660.39L259.615 666.398C256.125 659.171 250.89 647.59 242.862 633.745C219.304 591.078 206.478 579.148 201.941 554.506C199.234 539.059 200.19 523.193 204.733 508.182L239.634 491.637C243.386 522.375 248.359 555.028 255.601 589.423C260.662 614.327 266.246 638.098 272.179 660.39Z" fill="#E2C4BB"/>
<path d="M321.651 698.094H249.494C248.289 693.764 248.289 689.188 249.494 684.858C249.97 683.493 250.584 682.181 251.326 680.94C254.508 674.481 256.433 667.478 256.997 660.303L270.783 658.474C288.233 685.032 298.093 690.344 303.939 689.995C308.16 689.348 312.476 690.179 316.154 692.347C318.453 693.756 320.347 695.736 321.651 698.094Z" fill="#E2C4BB"/>
<path d="M151.859 661.609H98.1989C84.9366 513.581 81.4465 402.995 82.7553 358.76C82.1495 330.059 90.5045 301.88 106.662 278.128C111.157 271.962 116.305 266.298 122.019 261.236L168 320.012L151.859 661.609Z" fill="#D33A27"/>
<path d="M275.582 654.469L210.055 658.996C192.198 560.949 174.34 462.873 156.483 364.768L121.582 261.236H192.082C200.064 267.052 207.148 274.005 213.109 281.872C234.922 310.869 242.775 446.445 247.486 491.724L275.582 654.469Z" fill="#D33A27"/>
<path d="M163.812 406.042C163.549 406.043 163.295 405.945 163.101 405.767C162.907 405.59 162.787 405.346 162.765 405.084L157.879 369.731C157.854 369.594 157.857 369.453 157.888 369.317C157.918 369.181 157.976 369.052 158.057 368.938C158.139 368.824 158.242 368.728 158.361 368.655C158.48 368.582 158.613 368.534 158.752 368.512C158.889 368.488 159.031 368.49 159.167 368.521C159.304 368.552 159.433 368.609 159.547 368.69C159.66 368.771 159.757 368.875 159.83 368.994C159.903 369.113 159.952 369.245 159.973 369.383L164.859 404.823C164.884 404.96 164.881 405.101 164.851 405.238C164.82 405.374 164.762 405.503 164.681 405.616C164.6 405.73 164.496 405.826 164.377 405.899C164.258 405.972 164.125 406.021 163.987 406.042H163.812Z" fill="#1C1C1C"/>
<path d="M152.033 698.093H101.165C100.143 696.33 99.506 694.372 99.2955 692.346C99.085 690.32 99.3059 688.273 99.9436 686.338C101.863 682.245 106.4 681.375 111.199 679.024C118.242 675.35 124.13 669.805 128.213 663.002C130.045 669.968 131.529 671.709 132.576 671.709C133.623 671.709 135.368 665.092 138.858 664.308C142.348 663.524 144.617 666.92 146.798 669.794L152.033 698.093Z" fill="#1C1C1C"/>
<path d="M326.362 700.27H246.527C245.509 697.224 245.116 694.004 245.371 690.803C245.626 687.602 246.523 684.484 248.01 681.636C249.493 679.198 250.802 678.327 252.722 675.193C255.301 670.964 256.854 666.194 257.259 661.26C257.989 660.574 258.856 660.049 259.803 659.719C260.75 659.389 261.756 659.262 262.756 659.345C268.776 660.477 269.998 673.625 272.092 673.451C274.186 673.277 274.011 670.577 274.622 660.651L326.973 686.774C327.884 687.637 328.61 688.677 329.105 689.83C329.6 690.983 329.854 692.224 329.852 693.478C329.795 694.794 329.454 696.083 328.851 697.255C328.249 698.427 327.4 699.456 326.362 700.27Z" fill="#1C1C1C"/>
<path d="M242.426 357.28C235.214 364.83 226.814 371.154 217.559 376.001C159.973 405.868 90.9567 364.072 82.406 358.586C84.3256 293.628 86.1869 228.64 87.9901 163.624L77.6072 153.262C76.9016 146.371 77.9833 139.414 80.7482 133.061C88.7754 115.645 110.414 104.761 135.455 105.632C138.236 109.78 142.063 113.124 146.551 115.325C151.04 117.526 156.03 118.508 161.02 118.171C165.009 117.762 168.868 116.529 172.354 114.55C175.839 112.571 178.873 109.89 181.262 106.677C185.363 106.677 222.271 106.677 231.258 127.662C232.119 129.634 232.706 131.714 233.003 133.844L242.426 357.28Z" fill="white"/>
<path d="M267.468 380.181C264.398 388.89 259.247 396.721 252.46 402.995C235.621 418.059 211.19 414.663 190.075 395.332L191.82 245.562C213.633 263.848 234.748 267.505 244.171 254.792C246.533 251.462 248.141 247.659 248.883 243.646C255.223 289.216 261.418 334.727 267.468 380.181Z" fill="#1C1C1C"/>
<path d="M223.143 241.557C226.11 248.61 233.352 265.851 241.204 265.241C244.258 265.241 246.963 262.106 249.93 256.534C260.749 235.026 252.634 210.645 246.352 166.672C244.694 155.003 243.647 145.251 242.949 138.111C240.337 135.538 237.081 133.712 233.52 132.824C229.959 131.936 226.225 132.017 222.707 133.061C218.052 134.478 214.098 137.585 211.626 141.768C208.136 197.409 217.21 227.276 223.143 241.557Z" fill="#E2C4BB"/>
<path d="M207.177 224.925L260.924 229.801C261.064 208.966 258.751 188.187 254.031 167.891C250.872 154.523 246.671 141.421 241.467 128.707C239.34 126.348 236.724 124.48 233.801 123.232C230.878 121.984 227.718 121.386 224.54 121.48C220.437 121.824 216.523 123.348 213.271 125.867C210.019 128.386 207.569 131.792 206.217 135.673C206.566 165.365 206.828 195.145 207.177 224.925Z" fill="white"/>
<path d="M208.922 106.938C195.229 153.836 189.565 202.704 192.169 251.483C192.169 258.536 193.129 265.415 193.827 272.033L220.962 267.418C217.641 255.527 215.134 243.425 213.459 231.194C208.048 191.126 210.388 150.393 220.352 111.204L208.922 106.938Z" fill="#1C1C1C"/>
<path d="M85.0239 230.846C84.875 230.846 84.7275 230.817 84.5899 230.76C84.4522 230.703 84.3272 230.62 84.2219 230.515C84.1165 230.41 84.033 230.285 83.976 230.147C83.919 230.01 83.8896 229.863 83.8896 229.714L85.0239 163.885C85.0118 163.741 85.0299 163.595 85.0771 163.458C85.1243 163.321 85.1995 163.196 85.298 163.089C85.3964 162.983 85.516 162.898 85.649 162.84C85.7821 162.782 85.9258 162.753 86.0709 162.753C86.3651 162.774 86.6419 162.899 86.8504 163.107C87.0588 163.316 87.1849 163.592 87.2052 163.885L86.0709 229.801C86.0709 230.078 85.9606 230.344 85.7643 230.54C85.5679 230.736 85.3016 230.846 85.0239 230.846Z" fill="#1C1C1C"/>
<path d="M217.908 227.015C217.764 227.027 217.618 227.009 217.481 226.962C217.344 226.915 217.218 226.84 217.111 226.741C217.004 226.643 216.919 226.524 216.861 226.391C216.803 226.258 216.774 226.115 216.774 225.97L215.291 190.269C215.279 190.125 215.297 189.979 215.344 189.842C215.391 189.705 215.466 189.58 215.565 189.473C215.663 189.367 215.783 189.282 215.916 189.224C216.049 189.166 216.193 189.137 216.338 189.137C216.482 189.125 216.628 189.143 216.765 189.19C216.903 189.237 217.029 189.312 217.135 189.41C217.242 189.509 217.327 189.628 217.385 189.761C217.443 189.894 217.473 190.037 217.472 190.182L218.955 225.883C218.967 226.027 218.949 226.172 218.902 226.309C218.855 226.446 218.78 226.572 218.681 226.679C218.583 226.785 218.463 226.87 218.33 226.928C218.197 226.986 218.053 227.015 217.908 227.015Z" fill="#1C1C1C"/>
<path d="M194.176 9.41329C211.626 31.8788 176.725 94.5733 152.644 92.8318C148.194 92.8318 145.14 89.9583 139.032 84.995C132.925 80.0317 114.166 64.6192 115.474 43.1986C116.696 23.3454 133.885 8.97815 149.241 3.66654C162.503 -1.12261 184.578 -2.3419 194.176 9.41329Z" fill="#1C1C1C"/>
<path d="M133.623 25.1739C132.227 28.0474 123.24 22.3006 115.387 26.1319C107.535 29.9632 108.756 39.2802 100.555 57.0436C96.7199 65.4735 91.9494 73.4474 86.3325 80.8153C73.4192 98.2304 67.7479 98.2303 62.4255 109.028C55.4454 123.395 62.8618 129.142 59.1972 148.386C54.8346 170.851 38.7803 194.101 27.7865 192.446C18.1888 190.966 8.76562 170.242 10.3362 153.088C11.3832 143.771 15.6585 136.805 11.9067 127.662C9.37639 121.305 5.79906 120.87 3.18151 116.255C-4.67116 102.758 7.80585 74.2846 28.1355 59.3076C44.7134 47.03 56.5796 55.1279 73.7682 40.1509C81.0101 33.7944 81.2719 30.5728 90.1716 24.3034C95.2322 20.8204 111.287 9.50048 124.113 14.9862C130.22 17.1631 134.757 22.91 133.623 25.1739Z" fill="#1C1C1C"/>
</svg>
