<svg width="415" height="501" viewBox="0 0 415 501" fill="none" xmlns="http://www.w3.org/2000/svg">
<line x1="-48" y1="482.509" x2="452" y2="482.509" stroke="#444444"/>
<line x1="-46" y1="495.596" x2="454" y2="495.596" stroke="#444444"/>
<line x1="-48" y1="341.532" x2="452" y2="341.532" stroke="#444444"/>
<line x1="-48" y1="456.876" x2="452" y2="456.876" stroke="#444444"/>
<line x1="-48" y1="290.269" x2="452" y2="290.269" stroke="#444444"/>
<line x1="-48" y1="405.612" x2="452" y2="405.612" stroke="#444444"/>
<line x1="-48" y1="187.74" x2="452" y2="187.74" stroke="#444444"/>
<line x1="-48" y1="367.164" x2="452" y2="367.164" stroke="#444444"/>
<line x1="-48" y1="110.844" x2="452" y2="110.844" stroke="#444444"/>
<line x1="-48" y1="264.636" x2="452" y2="264.636" stroke="#444444"/>
<line x1="-48" y1="59.5803" x2="452" y2="59.5803" stroke="#444444"/>
<line x1="-48" y1="469.692" x2="452" y2="469.692" stroke="#444444"/>
<line x1="-48" y1="315.9" x2="452" y2="315.9" stroke="#444444"/>
<line x1="-48" y1="431.244" x2="452" y2="431.244" stroke="#444444"/>
<line x1="-48" y1="239.004" x2="452" y2="239.004" stroke="#444444"/>
<line x1="-48" y1="379.98" x2="452" y2="379.98" stroke="#444444"/>
<line x1="-48" y1="136.477" x2="452" y2="136.477" stroke="#444444"/>
<line x1="-48" y1="303.084" x2="452" y2="303.084" stroke="#444444"/>
<line x1="-48" y1="72.3965" x2="452" y2="72.3965" stroke="#444444"/>
<line x1="-48" y1="200.556" x2="452" y2="200.556" stroke="#444444"/>
<line x1="-48" y1="21.1323" x2="452" y2="21.1323" stroke="#444444"/>
<line x1="-48" y1="444.06" x2="452" y2="444.06" stroke="#444444"/>
<line x1="-48" y1="277.452" x2="452" y2="277.452" stroke="#444444"/>
<line x1="-48" y1="392.796" x2="452" y2="392.796" stroke="#444444"/>
<line x1="-48" y1="162.108" x2="452" y2="162.108" stroke="#444444"/>
<line x1="-48" y1="328.716" x2="452" y2="328.716" stroke="#444444"/>
<line x1="-48" y1="85.2124" x2="452" y2="85.2124" stroke="#444444"/>
<line x1="-48" y1="213.373" x2="452" y2="213.373" stroke="#444444"/>
<line x1="-48" y1="33.9485" x2="452" y2="33.9485" stroke="#444444"/>
<line x1="-48" y1="149.292" x2="452" y2="149.292" stroke="#444444"/>
<line x1="-48" y1="418.428" x2="452" y2="418.428" stroke="#444444"/>
<line x1="-48" y1="226.188" x2="452" y2="226.188" stroke="#444444"/>
<line x1="-48" y1="354.348" x2="452" y2="354.348" stroke="#444444"/>
<line x1="-48" y1="98.0283" x2="452" y2="98.0283" stroke="#444444"/>
<line x1="-48" y1="251.82" x2="452" y2="251.82" stroke="#444444"/>
<line x1="-48" y1="46.7644" x2="452" y2="46.7644" stroke="#444444"/>
<line x1="-48" y1="174.924" x2="452" y2="174.924" stroke="#444444"/>
<line x1="-48" y1="8.31641" x2="452" y2="8.31641" stroke="#444444"/>
<line x1="-48" y1="123.66" x2="452" y2="123.66" stroke="#444444"/>
<line x1="100.5" y1="-33.9036" x2="100.5" y2="500.096" stroke="#444444"/>
<line x1="148.5" y1="-33.9036" x2="148.5" y2="500.096" stroke="#444444"/>
<line x1="40.5" y1="-33.9036" x2="40.5" y2="500.096" stroke="#444444"/>
<line x1="244.5" y1="-33.9036" x2="244.5" y2="500.096" stroke="#444444"/>
<line x1="76.5" y1="-33.9036" x2="76.5" y2="500.096" stroke="#444444"/>
<line x1="316.5" y1="-33.9036" x2="316.5" y2="500.096" stroke="#444444"/>
<line x1="172.5" y1="-33.9036" x2="172.5" y2="500.096" stroke="#444444"/>
<line x1="364.5" y1="-33.9036" x2="364.5" y2="500.096" stroke="#444444"/>
<line x1="124.5" y1="-33.9036" x2="124.5" y2="500.096" stroke="#444444"/>
<line x1="16.5" y1="-33.9036" x2="16.5" y2="500.096" stroke="#444444"/>
<line x1="196.5" y1="-33.9036" x2="196.5" y2="500.096" stroke="#444444"/>
<line x1="64.5" y1="-33.9036" x2="64.5" y2="500.096" stroke="#444444"/>
<line x1="292.5" y1="-33.9036" x2="292.5" y2="500.096" stroke="#444444"/>
<line x1="136.5" y1="-33.9036" x2="136.5" y2="500.096" stroke="#444444"/>
<line x1="352.5" y1="-33.9036" x2="352.5" y2="500.096" stroke="#444444"/>
<line x1="232.5" y1="-33.9036" x2="232.5" y2="500.096" stroke="#444444"/>
<line x1="400.5" y1="-33.9036" x2="400.5" y2="500.096" stroke="#444444"/>
<line x1="4.5" y1="-33.9036" x2="4.49998" y2="500.096" stroke="#444444"/>
<line x1="160.5" y1="-33.9036" x2="160.5" y2="500.096" stroke="#444444"/>
<line x1="52.5" y1="-33.9036" x2="52.5" y2="500.096" stroke="#444444"/>
<line x1="268.5" y1="-33.9036" x2="268.5" y2="500.096" stroke="#444444"/>
<line x1="112.5" y1="-33.9036" x2="112.5" y2="500.096" stroke="#444444"/>
<line x1="340.5" y1="-33.9036" x2="340.5" y2="500.096" stroke="#444444"/>
<line x1="220.5" y1="-33.9036" x2="220.5" y2="500.096" stroke="#444444"/>
<line x1="388.5" y1="-33.9036" x2="388.5" y2="500.096" stroke="#444444"/>
<line x1="280.5" y1="-33.9036" x2="280.5" y2="500.096" stroke="#444444"/>
<line x1="28.5" y1="-33.9036" x2="28.5" y2="500.096" stroke="#444444"/>
<line x1="208.5" y1="-33.9036" x2="208.5" y2="500.096" stroke="#444444"/>
<line x1="88.5" y1="-33.9036" x2="88.5" y2="500.096" stroke="#444444"/>
<line x1="328.5" y1="-33.9036" x2="328.5" y2="500.096" stroke="#444444"/>
<line x1="184.5" y1="-33.9036" x2="184.5" y2="500.096" stroke="#444444"/>
<line x1="376.5" y1="-33.9036" x2="376.5" y2="500.096" stroke="#444444"/>
<line x1="256.5" y1="-33.9036" x2="256.5" y2="500.096" stroke="#444444"/>
<line x1="412.5" y1="-33.9036" x2="412.5" y2="500.096" stroke="#444444"/>
<line x1="304.5" y1="-33.9036" x2="304.5" y2="500.096" stroke="#444444"/>
</svg>
