<svg width="47" height="47" viewBox="0 0 47 47" fill="none" xmlns="http://www.w3.org/2000/svg">
<path d="M36.1081 9.46631C35.6123 9.46631 35.1276 9.61435 34.7153 9.8917C34.303 10.169 33.9817 10.5633 33.7919 11.0245C33.6022 11.4857 33.5525 11.9932 33.6492 12.4828C33.746 12.9724 33.9848 13.4222 34.3354 13.7752C34.686 14.1282 35.1327 14.3686 35.619 14.466C36.1053 14.5634 36.6094 14.5134 37.0675 14.3223C37.5256 14.1313 37.9172 13.8078 38.1927 13.3927C38.4681 12.9776 38.6152 12.4896 38.6152 11.9904C38.6152 11.321 38.351 10.679 37.8809 10.2056C37.4107 9.73224 36.773 9.46631 36.1081 9.46631V9.46631Z" stroke="#444444" stroke-width="2.6" stroke-miterlimit="10" stroke-linejoin="round"/>
<path d="M23.9783 13.7939C22.1001 13.7939 20.2641 14.3547 18.7024 15.4053C17.1408 16.4558 15.9236 17.949 15.2048 19.6961C14.486 21.4431 14.298 23.3655 14.6644 25.2201C15.0308 27.0748 15.9353 28.7784 17.2634 30.1155C18.5915 31.4526 20.2836 32.3632 22.1257 32.7321C23.9678 33.101 25.8772 32.9117 27.6125 32.188C29.3477 31.4644 30.8308 30.2389 31.8743 28.6666C32.9178 27.0944 33.4748 25.2458 33.4748 23.3549C33.4748 20.8192 32.4742 18.3873 30.6933 16.5943C28.9124 14.8013 26.497 13.7939 23.9783 13.7939Z" stroke="#444444" stroke-width="3.3" stroke-miterlimit="10" stroke-linejoin="round"/>
<path d="M32.4209 44.8377H15.3274C11.9387 44.815 8.69639 43.4444 6.30731 41.0248C3.91822 38.6052 2.57616 35.3327 2.57373 31.9209V14.7113C2.57625 11.2863 3.92875 8.00231 6.33423 5.58048C8.73971 3.15866 12.0015 1.79697 15.4034 1.79443H32.4969C35.8988 1.79697 39.1606 3.15866 41.5661 5.58048C43.9716 8.00231 45.3241 11.2863 45.3266 14.7113V31.9209C45.3253 33.6233 44.9901 35.3086 44.3402 36.8802C43.6903 38.4518 42.7384 39.8786 41.5392 41.0788C40.3401 42.279 38.9173 43.2289 37.3525 43.874C35.7877 44.519 34.1118 44.8466 32.4209 44.8377V44.8377Z" stroke="#444444" stroke-width="3.3" stroke-miterlimit="10" stroke-linejoin="round"/>
</svg>
