<svg width="1440" height="911" viewBox="0 0 1440 911" fill="none" xmlns="http://www.w3.org/2000/svg">
<rect x="-4" y="0.793457" width="1444" height="910" fill="#444444"/>
<path d="M1716.42 146.793H-25V149.896H1716.42V146.793Z" fill="#1C1C1C"/>
<g clip-path="url(#clip0_124_10)">
<path d="M733.574 305.682L731.501 286.473C726.738 283.718 721.201 282.667 715.779 283.491C712.911 283.955 710.155 284.967 707.658 286.473L705.499 306.559C705.031 310.432 703.786 314.167 701.839 317.531C699.893 320.896 697.287 323.819 694.182 326.119C689.008 330.129 684.846 335.329 682.038 341.291C679.23 347.253 677.855 353.807 678.028 360.414C678.291 371.356 682.69 381.777 690.312 389.516C697.935 397.256 708.198 401.722 718.975 401.989C724.486 402.07 729.959 401.04 735.075 398.957C740.191 396.874 744.849 393.781 748.778 389.856C752.708 385.932 755.831 381.254 757.966 376.095C760.102 370.935 761.207 365.396 761.218 359.8C761.178 353.147 759.593 346.598 756.591 340.684C753.589 334.771 749.254 329.66 743.94 325.768C740.924 323.344 738.442 320.303 736.656 316.843C734.87 313.383 733.82 309.581 733.574 305.682V305.682Z" fill="white"/>
<path d="M710.509 287.526C713.115 301.158 714.13 315.054 713.533 328.926C713.14 335.633 712.187 342.294 710.682 348.836C710.164 351.029 705.326 369.449 703.08 368.484L703.685 369.975C704.462 366.993 713.965 366.905 715.952 367.168C717.28 367.335 718.546 367.833 719.639 368.618C720.732 369.402 721.617 370.448 722.215 371.663C722.814 372.878 723.107 374.225 723.069 375.583C723.031 376.941 722.664 378.269 721.999 379.448L723.813 379.009C717.075 375.764 723.813 367.256 727.7 364.712C731.587 362.169 740.658 358.309 742.04 365.94C742.904 366.905 742.818 367.344 742.04 367.256C741.85 367.428 741.604 367.524 741.349 367.524C741.094 367.524 740.848 367.428 740.658 367.256C739.548 366.613 738.555 365.782 737.721 364.8C736.279 363.108 735.033 361.254 734.006 359.274C731.676 354.82 729.85 350.112 728.564 345.24C724.291 325.94 723.153 306.06 725.195 286.386C725.195 284.72 722.69 284.72 722.603 286.386C721.217 302.903 721.652 319.524 723.899 335.943C725.107 343.815 727.435 351.467 730.81 358.66C732.797 362.87 736.684 369.887 741.781 370.589C746.878 371.291 745.582 366.466 744.113 363.66C741.522 358.397 738.239 357.871 732.797 359.625C730.032 360.473 727.466 361.882 725.254 363.766C723.041 365.651 721.228 367.972 719.925 370.589C719.365 371.493 718.996 372.505 718.841 373.561C718.686 374.617 718.748 375.695 719.024 376.725C719.3 377.756 719.784 378.717 720.445 379.548C721.105 380.379 721.929 381.062 722.863 381.553C723.161 381.71 723.509 381.743 723.831 381.645C724.154 381.547 724.426 381.325 724.59 381.027C725.324 379.679 725.778 378.192 725.922 376.659C726.066 375.126 725.898 373.579 725.428 372.114C724.958 370.65 724.196 369.299 723.19 368.147C722.184 366.994 720.955 366.064 719.58 365.414C715.932 364.403 712.084 364.403 708.436 365.414C705.672 365.94 702.303 366.379 701.525 369.536C701.441 369.808 701.446 370.101 701.539 370.37C701.633 370.639 701.81 370.869 702.044 371.027C707.054 373.132 708.609 365.589 709.905 362.256C712.646 354.631 714.53 346.716 715.52 338.662C717.438 321.519 716.71 304.178 713.36 287.263C713.36 285.597 710.509 286.298 710.855 287.965L710.509 287.526Z" fill="#1C1C1C"/>
<path d="M733.747 282.176H705.499C703.4 282.176 701.698 283.904 701.698 286.035V286.649C701.698 288.78 703.4 290.508 705.499 290.508H733.747C735.846 290.508 737.548 288.78 737.548 286.649V286.035C737.548 283.904 735.846 282.176 733.747 282.176Z" fill="#1C1C1C"/>
<path d="M733.747 275.51H705.499C703.4 275.51 701.698 277.238 701.698 279.369V279.983C701.698 282.114 703.4 283.842 705.499 283.842H733.747C735.846 283.842 737.548 282.114 737.548 279.983V279.369C737.548 277.238 735.846 275.51 733.747 275.51Z" fill="#1C1C1C"/>
<path d="M733.747 268.054H705.499C703.4 268.054 701.698 269.782 701.698 271.913V272.527C701.698 274.659 703.4 276.387 705.499 276.387H733.747C735.846 276.387 737.548 274.659 737.548 272.527V271.913C737.548 269.782 735.846 268.054 733.747 268.054Z" fill="#1C1C1C"/>
<path d="M733.747 261.388H705.499C703.4 261.388 701.698 263.116 701.698 265.247V265.861C701.698 267.993 703.4 269.721 705.499 269.721H733.747C735.846 269.721 737.548 267.993 737.548 265.861V265.247C737.548 263.116 735.846 261.388 733.747 261.388Z" fill="#1C1C1C"/>
<path d="M666.194 372.167L657.555 377.255C656.829 377.725 656.308 378.46 656.1 379.308C655.891 380.156 656.01 381.054 656.432 381.816C656.646 382.186 656.93 382.51 657.268 382.768C657.606 383.026 657.991 383.214 658.4 383.32C658.81 383.426 659.237 383.448 659.655 383.386C660.073 383.323 660.475 383.177 660.838 382.956L669.476 377.869C669.841 377.651 670.16 377.363 670.414 377.02C670.669 376.677 670.853 376.286 670.958 375.87C671.062 375.454 671.084 375.021 671.023 374.596C670.961 374.171 670.817 373.763 670.599 373.395C670.151 372.666 669.449 372.135 668.633 371.907C667.816 371.68 666.946 371.773 666.194 372.167V372.167Z" fill="white"/>
<path d="M677.683 396.639C674.745 399.972 671.895 403.392 669.044 406.813C668.451 407.421 668.11 408.238 668.094 409.094C668.106 409.976 668.445 410.822 669.044 411.462C669.667 412.048 670.484 412.373 671.333 412.373C672.182 412.373 673 412.048 673.622 411.462C676.387 408.041 679.237 404.62 682.261 401.287C682.857 400.665 683.191 399.831 683.191 398.963C683.191 398.095 682.857 397.261 682.261 396.639C681.638 396.053 680.821 395.728 679.972 395.728C679.123 395.728 678.305 396.053 677.683 396.639V396.639Z" fill="white"/>
<path d="M711.46 413.041C711.675 415.316 711.675 417.607 711.46 419.882C711.502 420.144 711.502 420.41 711.46 420.672C711.46 421.461 711.46 420.146 711.46 420.672V422.426L710.682 425.759C710.442 426.608 710.544 427.519 710.965 428.292C711.386 429.065 712.092 429.637 712.928 429.882C713.764 430.096 714.65 429.967 715.393 429.524C716.137 429.081 716.679 428.359 716.902 427.513C718.194 422.748 718.719 417.801 718.457 412.866C718.434 411.997 718.079 411.171 717.465 410.565C716.852 409.959 716.03 409.62 715.174 409.62C714.327 409.62 713.514 409.962 712.914 410.571C712.315 411.18 711.978 412.005 711.978 412.866L711.46 413.041Z" fill="white"/>
<path d="M746.273 407.252L751.888 415.234C752.368 415.941 753.068 416.466 753.875 416.725C754.25 416.917 754.664 417.018 755.084 417.018C755.504 417.018 755.919 416.917 756.294 416.725C756.668 416.527 756.999 416.254 757.267 415.922C757.534 415.59 757.732 415.207 757.849 414.795C758.017 414.393 758.104 413.96 758.104 413.523C758.104 413.086 758.017 412.653 757.849 412.251L752.234 404.357C751.758 403.626 751.06 403.072 750.247 402.778C749.47 402.466 748.605 402.466 747.828 402.778C747.45 402.994 747.119 403.283 746.852 403.629C746.585 403.976 746.388 404.372 746.273 404.796C746.106 405.183 746.021 405.601 746.021 406.024C746.021 406.447 746.106 406.864 746.273 407.252V407.252Z" fill="white"/>
<path d="M763.291 381.114C767.61 382.956 771.929 384.973 776.162 386.903C776.971 387.205 777.859 387.205 778.667 386.903C779.07 386.804 779.447 386.621 779.775 386.364C780.102 386.107 780.372 385.782 780.568 385.412C781.012 384.655 781.144 383.751 780.933 382.896C780.723 382.041 780.188 381.306 779.445 380.851L766.487 375.062C765.709 374.758 764.847 374.758 764.068 375.062C763.248 375.293 762.54 375.824 762.081 376.553C761.667 377.325 761.561 378.23 761.786 379.079C762.011 379.929 762.55 380.657 763.291 381.114V381.114Z" fill="white"/>
</g>
<line y1="-1" x2="127.83" y2="-1" transform="matrix(0.0078229 -0.999969 0.999968 0.00805126 719 277.619)" stroke="#1C1C1C" stroke-width="2"/>
<defs>
<clipPath id="clip0_124_10">
<rect width="125" height="168.406" fill="white" transform="translate(656 261.388)"/>
</clipPath>
</defs>
</svg>
