<svg width="661" height="671" viewBox="0 0 661 671" fill="none" xmlns="http://www.w3.org/2000/svg">
<path d="M646.958 635.626H593.266V643.819H646.958V635.626Z" fill="white" stroke="#1C1C1C" stroke-width="3" stroke-miterlimit="10"/>
<path d="M659.414 643.819H580.81V664.436H659.414V643.819Z" fill="white" stroke="#1C1C1C" stroke-width="3" stroke-miterlimit="10"/>
<path opacity="0.3" d="M625.239 601.59L624.103 600.015L603.346 614.457L210.701 221.089C209.786 209.942 203.508 117.161 256.326 66.4928C311.818 12.7885 411.389 25.4097 481.819 112.205C529.603 275.205 577.41 438.334 625.239 601.59Z" fill="#D33A27" fill-opacity="0.4"/>
<path d="M630.111 635.05C632.431 632.101 633.864 628.523 634.233 624.752C634.602 620.98 633.892 617.179 632.19 613.81L626.543 602.382L625.628 600.599L603.146 612.405L600.762 613.63L611.831 635.688" stroke="#1C1C1C" stroke-width="3" stroke-miterlimit="10"/>
<path d="M68.2136 635.082H14.5215V643.275H68.2136V635.082Z" fill="white" stroke="#1C1C1C" stroke-width="3" stroke-miterlimit="10"/>
<path d="M80.6698 643.275H2V663.892H80.6698V643.275Z" fill="white" stroke="#1C1C1C" stroke-width="3" stroke-miterlimit="10"/>
<path opacity="0.3" d="M450.007 221.503L58.6509 614.514L37.8793 600.149L36.8105 601.734L36.488 601.677C84.2233 438.646 131.955 275.636 179.683 112.647C249.778 26.5236 349.372 13.7518 404.52 67.2679C457.106 118.297 450.934 210.308 450.007 221.503Z" fill="#D33A27" fill-opacity="0.4"/>
<path d="M49.5135 635.292L60.5827 613.234L58.264 612.011L35.7146 600.27L34.8651 602.055L29.1527 613.48C27.4564 616.839 26.7498 620.63 27.1194 624.389C27.489 628.149 28.9186 631.715 31.234 634.653" stroke="#1C1C1C" stroke-width="3" stroke-miterlimit="10"/>
</svg>
