<svg width="504" height="584" viewBox="0 0 504 584" fill="none" xmlns="http://www.w3.org/2000/svg">
<path d="M377 222.148V322H127V222L377 222.148Z" stroke="#1C1C1C" stroke-width="3" stroke-miterlimit="10"/>
<path d="M439.5 322H64.5V442H439.5V322Z" stroke="#1C1C1C" stroke-width="3" stroke-miterlimit="10"/>
<path d="M502 442H2V582H502V442Z" stroke="#1C1C1C" stroke-width="3" stroke-miterlimit="10"/>
<path d="M156.406 376.675H156.056C155.962 375.648 155.752 374.703 155.426 373.84C155.122 372.953 154.656 372.195 154.026 371.565C153.419 370.912 152.649 370.41 151.716 370.06C150.806 369.687 149.697 369.5 148.391 369.5H145.801V379.965C146.127 379.918 146.477 379.883 146.851 379.86C147.247 379.837 147.667 379.825 148.111 379.825C149.511 379.825 150.817 379.953 152.031 380.21C153.244 380.443 154.306 380.84 155.216 381.4C156.126 381.937 156.837 382.637 157.351 383.5C157.864 384.34 158.121 385.367 158.121 386.58C158.121 387.77 157.864 388.832 157.351 389.765C156.861 390.675 156.149 391.445 155.216 392.075C154.306 392.705 153.197 393.183 151.891 393.51C150.584 393.837 149.114 394 147.481 394H138.381V393.65H141.111V369.5H138.381V369.15H156.406V376.675ZM147.481 380.21C146.874 380.21 146.314 380.245 145.801 380.315V393.65H147.131C148.321 393.65 149.301 393.475 150.071 393.125C150.841 392.752 151.447 392.262 151.891 391.655C152.357 391.025 152.672 390.29 152.836 389.45C153.022 388.61 153.116 387.712 153.116 386.755C153.116 385.775 153.022 384.888 152.836 384.095C152.649 383.278 152.334 382.59 151.891 382.03C151.447 381.447 150.864 381.003 150.141 380.7C149.441 380.373 148.554 380.21 147.481 380.21ZM170.203 378.95H174.543V379.3H172.863L164.988 399.145C164.475 400.428 163.915 401.35 163.308 401.91C162.701 402.47 161.885 402.75 160.858 402.75C159.738 402.75 158.863 402.458 158.233 401.875C157.603 401.315 157.288 400.557 157.288 399.6C157.288 398.853 157.486 398.258 157.883 397.815C158.256 397.395 158.735 397.185 159.318 397.185C159.901 397.185 160.345 397.372 160.648 397.745C160.951 398.118 161.103 398.573 161.103 399.11C161.103 399.367 161.068 399.588 160.998 399.775C160.928 399.985 160.858 400.172 160.788 400.335C160.718 400.522 160.648 400.697 160.578 400.86C160.508 401.023 160.473 401.198 160.473 401.385C160.473 401.712 160.566 401.933 160.753 402.05C160.94 402.19 161.173 402.26 161.453 402.26C162.176 402.26 162.806 401.922 163.343 401.245C163.88 400.568 164.311 399.81 164.638 398.97L166.353 394.665L160.263 379.3H158.583V378.95H166.563V379.3H164.533L168.418 389.45L172.443 379.3H170.203V378.95ZM182.963 379.3H181.038V386.3H182.263L188.423 379.3H186.148V378.95H191.048V379.3H188.913L185.098 383.605L191.083 393.65H192.763V394H184.643V393.65H186.323L182.263 386.65H181.038V393.65H182.963V394H174.738V393.65H176.838V379.3H174.738V378.95H182.963V379.3ZM200.345 378.95C202.678 378.95 204.405 379.23 205.525 379.79C206.645 380.327 207.205 381.225 207.205 382.485C207.205 383.512 206.75 384.34 205.84 384.97C204.93 385.577 203.717 385.938 202.2 386.055C203.04 386.102 203.798 386.207 204.475 386.37C205.175 386.533 205.77 386.767 206.26 387.07C206.773 387.373 207.17 387.747 207.45 388.19C207.73 388.61 207.87 389.123 207.87 389.73C207.87 391.06 207.275 392.11 206.085 392.88C204.918 393.627 203.017 394 200.38 394H192.785V393.65H194.885V379.3H192.785V378.95H200.345ZM199.085 386.3V393.65H200.38C201.663 393.65 202.562 393.3 203.075 392.6C203.612 391.877 203.88 390.967 203.88 389.87C203.88 388.843 203.588 387.992 203.005 387.315C202.445 386.638 201.488 386.3 200.135 386.3H199.085ZM199.085 379.3V385.95H200.205C201.278 385.95 202.048 385.635 202.515 385.005C203.005 384.352 203.25 383.535 203.25 382.555C203.25 380.385 202.247 379.3 200.24 379.3H199.085ZM217.933 379.3H215.833V385.18C216.16 385.157 216.486 385.133 216.813 385.11C217.163 385.087 217.501 385.075 217.828 385.075C218.738 385.075 219.566 385.157 220.313 385.32C221.083 385.483 221.748 385.74 222.308 386.09C222.868 386.417 223.3 386.848 223.603 387.385C223.906 387.922 224.058 388.563 224.058 389.31C224.058 390.08 223.883 390.757 223.533 391.34C223.183 391.923 222.681 392.413 222.028 392.81C221.398 393.207 220.64 393.51 219.753 393.72C218.866 393.907 217.886 394 216.813 394H209.533V393.65H211.633V379.3H209.533V378.95H217.933V379.3ZM232.458 394H224.058V393.65H226.158V379.3H224.058V378.95H232.458V379.3H230.358V393.65H232.458V394ZM216.988 385.46C216.801 385.46 216.603 385.472 216.393 385.495C216.206 385.495 216.02 385.507 215.833 385.53V393.65H216.883C217.513 393.65 218.026 393.533 218.423 393.3C218.843 393.043 219.17 392.717 219.403 392.32C219.636 391.923 219.8 391.468 219.893 390.955C219.986 390.442 220.033 389.917 220.033 389.38C220.033 388.19 219.776 387.245 219.263 386.545C218.773 385.822 218.015 385.46 216.988 385.46ZM252.028 392.915C251.584 391.702 250.978 390.628 250.208 389.695C249.461 388.762 248.691 387.91 247.898 387.14C247.781 387.023 247.676 386.93 247.583 386.86C247.513 386.767 247.478 386.638 247.478 386.475C247.478 386.312 247.513 386.195 247.583 386.125C247.676 386.032 247.781 385.927 247.898 385.81C248.691 385.04 249.461 384.188 250.208 383.255C250.978 382.322 251.584 381.248 252.028 380.035L252.238 380.07C252.121 380.607 251.981 381.178 251.818 381.785C251.678 382.392 251.514 382.987 251.328 383.57C251.164 384.13 250.989 384.667 250.803 385.18C250.616 385.693 250.441 386.125 250.278 386.475C250.441 386.825 250.616 387.257 250.803 387.77C250.989 388.283 251.164 388.832 251.328 389.415C251.514 389.975 251.678 390.558 251.818 391.165C251.981 391.772 252.121 392.343 252.238 392.88L252.028 392.915ZM246.708 392.915C246.264 391.702 245.658 390.628 244.888 389.695C244.141 388.762 243.371 387.91 242.578 387.14C242.461 387.023 242.356 386.93 242.263 386.86C242.193 386.767 242.158 386.638 242.158 386.475C242.158 386.312 242.193 386.195 242.263 386.125C242.356 386.032 242.461 385.927 242.578 385.81C243.371 385.04 244.141 384.188 244.888 383.255C245.658 382.322 246.264 381.248 246.708 380.035L246.918 380.07C246.801 380.607 246.661 381.178 246.498 381.785C246.358 382.392 246.194 382.987 246.008 383.57C245.844 384.13 245.669 384.667 245.483 385.18C245.296 385.693 245.121 386.125 244.958 386.475C245.121 386.825 245.296 387.257 245.483 387.77C245.669 388.283 245.844 388.832 246.008 389.415C246.194 389.975 246.358 390.558 246.498 391.165C246.661 391.772 246.801 392.343 246.918 392.88L246.708 392.915ZM263.117 394H254.787V393.65H256.887V379.3H254.787V378.95H263.187V379.3H261.087V386.23H266.582V379.3H264.482V378.95H272.882V379.3H270.782V393.65H272.882V394H264.552V393.65H266.582V386.58H261.087V393.65H263.117V394ZM280.749 392.88C280.843 392.343 280.971 391.772 281.134 391.165C281.298 390.558 281.461 389.975 281.624 389.415C281.811 388.832 281.998 388.283 282.184 387.77C282.371 387.257 282.546 386.825 282.709 386.475C282.546 386.125 282.371 385.693 282.184 385.18C281.998 384.667 281.811 384.13 281.624 383.57C281.461 382.987 281.298 382.392 281.134 381.785C280.971 381.178 280.843 380.607 280.749 380.07L280.959 380.035C281.403 381.248 281.998 382.322 282.744 383.255C283.514 384.188 284.296 385.04 285.089 385.81C285.206 385.927 285.299 386.032 285.369 386.125C285.463 386.195 285.509 386.312 285.509 386.475C285.509 386.638 285.463 386.767 285.369 386.86C285.299 386.93 285.206 387.023 285.089 387.14C284.296 387.91 283.514 388.762 282.744 389.695C281.998 390.628 281.403 391.702 280.959 392.915L280.749 392.88ZM275.429 392.88C275.523 392.343 275.651 391.772 275.814 391.165C275.978 390.558 276.141 389.975 276.304 389.415C276.491 388.832 276.678 388.283 276.864 387.77C277.051 387.257 277.226 386.825 277.389 386.475C277.226 386.125 277.051 385.693 276.864 385.18C276.678 384.667 276.491 384.13 276.304 383.57C276.141 382.987 275.978 382.392 275.814 381.785C275.651 381.178 275.523 380.607 275.429 380.07L275.639 380.035C276.083 381.248 276.678 382.322 277.424 383.255C278.194 384.188 278.976 385.04 279.769 385.81C279.886 385.927 279.979 386.032 280.049 386.125C280.143 386.195 280.189 386.312 280.189 386.475C280.189 386.638 280.143 386.767 280.049 386.86C279.979 386.93 279.886 387.023 279.769 387.14C278.976 387.91 278.194 388.762 277.424 389.695C276.678 390.628 276.083 391.702 275.639 392.915L275.429 392.88ZM303.587 379.3H301.487V393.16L307.052 378.95H313.387V379.3H311.287V393.65H313.387V394H304.987V393.65H307.087V379.86L301.522 394H295.187V393.65H297.287V379.3H295.187V378.95H303.587V379.3ZM332.931 392.915C332.488 391.702 331.881 390.628 331.111 389.695C330.364 388.762 329.594 387.91 328.801 387.14C328.684 387.023 328.579 386.93 328.486 386.86C328.416 386.767 328.381 386.638 328.381 386.475C328.381 386.312 328.416 386.195 328.486 386.125C328.579 386.032 328.684 385.927 328.801 385.81C329.594 385.04 330.364 384.188 331.111 383.255C331.881 382.322 332.488 381.248 332.931 380.035L333.141 380.07C333.024 380.607 332.884 381.178 332.721 381.785C332.581 382.392 332.418 382.987 332.231 383.57C332.068 384.13 331.893 384.667 331.706 385.18C331.519 385.693 331.344 386.125 331.181 386.475C331.344 386.825 331.519 387.257 331.706 387.77C331.893 388.283 332.068 388.832 332.231 389.415C332.418 389.975 332.581 390.558 332.721 391.165C332.884 391.772 333.024 392.343 333.141 392.88L332.931 392.915ZM327.611 392.915C327.168 391.702 326.561 390.628 325.791 389.695C325.044 388.762 324.274 387.91 323.481 387.14C323.364 387.023 323.259 386.93 323.166 386.86C323.096 386.767 323.061 386.638 323.061 386.475C323.061 386.312 323.096 386.195 323.166 386.125C323.259 386.032 323.364 385.927 323.481 385.81C324.274 385.04 325.044 384.188 325.791 383.255C326.561 382.322 327.168 381.248 327.611 380.035L327.821 380.07C327.704 380.607 327.564 381.178 327.401 381.785C327.261 382.392 327.098 382.987 326.911 383.57C326.748 384.13 326.573 384.667 326.386 385.18C326.199 385.693 326.024 386.125 325.861 386.475C326.024 386.825 326.199 387.257 326.386 387.77C326.573 388.283 326.748 388.832 326.911 389.415C327.098 389.975 327.261 390.558 327.401 391.165C327.564 391.772 327.704 392.343 327.821 392.88L327.611 392.915ZM344.09 394H335.69V393.65H337.79V379.3H335.69V378.95H353.68V379.3H351.58V393.65H353.68V394H345.28V393.65H347.38V379.3H341.99V393.65H344.09V394ZM361.55 392.88C361.643 392.343 361.772 391.772 361.935 391.165C362.098 390.558 362.262 389.975 362.425 389.415C362.612 388.832 362.798 388.283 362.985 387.77C363.172 387.257 363.347 386.825 363.51 386.475C363.347 386.125 363.172 385.693 362.985 385.18C362.798 384.667 362.612 384.13 362.425 383.57C362.262 382.987 362.098 382.392 361.935 381.785C361.772 381.178 361.643 380.607 361.55 380.07L361.76 380.035C362.203 381.248 362.798 382.322 363.545 383.255C364.315 384.188 365.097 385.04 365.89 385.81C366.007 385.927 366.1 386.032 366.17 386.125C366.263 386.195 366.31 386.312 366.31 386.475C366.31 386.638 366.263 386.767 366.17 386.86C366.1 386.93 366.007 387.023 365.89 387.14C365.097 387.91 364.315 388.762 363.545 389.695C362.798 390.628 362.203 391.702 361.76 392.915L361.55 392.88ZM356.23 392.88C356.323 392.343 356.452 391.772 356.615 391.165C356.778 390.558 356.942 389.975 357.105 389.415C357.292 388.832 357.478 388.283 357.665 387.77C357.852 387.257 358.027 386.825 358.19 386.475C358.027 386.125 357.852 385.693 357.665 385.18C357.478 384.667 357.292 384.13 357.105 383.57C356.942 382.987 356.778 382.392 356.615 381.785C356.452 381.178 356.323 380.607 356.23 380.07L356.44 380.035C356.883 381.248 357.478 382.322 358.225 383.255C358.995 384.188 359.777 385.04 360.57 385.81C360.687 385.927 360.78 386.032 360.85 386.125C360.943 386.195 360.99 386.312 360.99 386.475C360.99 386.638 360.943 386.767 360.85 386.86C360.78 386.93 360.687 387.023 360.57 387.14C359.777 387.91 358.995 388.762 358.225 389.695C357.478 390.628 356.883 391.702 356.44 392.915L356.23 392.88Z" fill="#1C1C1C"/>
<path d="M96.1047 483.11H95.8847C95.8261 482.465 95.6941 481.871 95.4887 481.328C95.2981 480.771 95.0047 480.294 94.6087 479.898C94.2274 479.487 93.7434 479.172 93.1567 478.952C92.5847 478.717 91.8881 478.6 91.0667 478.6H89.4387V485.178C89.6441 485.149 89.8641 485.127 90.0987 485.112C90.3481 485.097 90.6121 485.09 90.8907 485.09C91.7707 485.09 92.5921 485.171 93.3547 485.332C94.1174 485.479 94.7847 485.728 95.3567 486.08C95.9287 486.417 96.3761 486.857 96.6987 487.4C97.0214 487.928 97.1827 488.573 97.1827 489.336C97.1827 490.084 97.0214 490.751 96.6987 491.338C96.3907 491.91 95.9434 492.394 95.3567 492.79C94.7847 493.186 94.0881 493.487 93.2667 493.692C92.4454 493.897 91.5214 494 90.4947 494H84.7747V493.78H86.4907V478.6H84.7747V478.38H96.1047V483.11ZM90.4947 485.332C90.1134 485.332 89.7614 485.354 89.4387 485.398V493.78H90.2747C91.0227 493.78 91.6387 493.67 92.1227 493.45C92.6067 493.215 92.9881 492.907 93.2667 492.526C93.5601 492.13 93.7581 491.668 93.8607 491.14C93.9781 490.612 94.0367 490.047 94.0367 489.446C94.0367 488.83 93.9781 488.273 93.8607 487.774C93.7434 487.261 93.5454 486.828 93.2667 486.476C92.9881 486.109 92.6214 485.831 92.1667 485.64C91.7267 485.435 91.1694 485.332 90.4947 485.332ZM104.777 484.54H107.505V484.76H106.449L101.499 497.234C101.177 498.041 100.825 498.62 100.443 498.972C100.062 499.324 99.5487 499.5 98.9034 499.5C98.1994 499.5 97.6494 499.317 97.2534 498.95C96.8574 498.598 96.6594 498.121 96.6594 497.52C96.6594 497.051 96.784 496.677 97.0334 496.398C97.268 496.134 97.5687 496.002 97.9354 496.002C98.302 496.002 98.5807 496.119 98.7714 496.354C98.962 496.589 99.0574 496.875 99.0574 497.212C99.0574 497.373 99.0354 497.513 98.9914 497.63C98.9474 497.762 98.9034 497.879 98.8594 497.982C98.8154 498.099 98.7714 498.209 98.7274 498.312C98.6834 498.415 98.6614 498.525 98.6614 498.642C98.6614 498.847 98.72 498.987 98.8374 499.06C98.9547 499.148 99.1014 499.192 99.2774 499.192C99.732 499.192 100.128 498.979 100.465 498.554C100.803 498.129 101.074 497.652 101.279 497.124L102.357 494.418L98.5294 484.76H97.4734V484.54H102.489V484.76H101.213L103.655 491.14L106.185 484.76H104.777V484.54ZM112.798 484.76H111.588V489.16H112.358L116.23 484.76H114.8V484.54H117.88V484.76H116.538L114.14 487.466L117.902 493.78H118.958V494H113.854V493.78H114.91L112.358 489.38H111.588V493.78H112.798V494H107.628V493.78H108.948V484.76H107.628V484.54H112.798V484.76ZM123.724 484.54C125.19 484.54 126.276 484.716 126.98 485.068C127.684 485.405 128.036 485.97 128.036 486.762C128.036 487.407 127.75 487.928 127.178 488.324C126.606 488.705 125.843 488.933 124.89 489.006C125.418 489.035 125.894 489.101 126.32 489.204C126.76 489.307 127.134 489.453 127.442 489.644C127.764 489.835 128.014 490.069 128.19 490.348C128.366 490.612 128.454 490.935 128.454 491.316C128.454 492.152 128.08 492.812 127.332 493.296C126.598 493.765 125.403 494 123.746 494H118.972V493.78H120.292V484.76H118.972V484.54H123.724ZM122.932 489.16V493.78H123.746C124.552 493.78 125.117 493.56 125.44 493.12C125.777 492.665 125.946 492.093 125.946 491.404C125.946 490.759 125.762 490.223 125.396 489.798C125.044 489.373 124.442 489.16 123.592 489.16H122.932ZM122.932 484.76V488.94H123.636C124.31 488.94 124.794 488.742 125.088 488.346C125.396 487.935 125.55 487.422 125.55 486.806C125.55 485.442 124.919 484.76 123.658 484.76H122.932ZM134.779 484.76H133.459V488.456C133.664 488.441 133.87 488.427 134.075 488.412C134.295 488.397 134.508 488.39 134.713 488.39C135.285 488.39 135.806 488.441 136.275 488.544C136.759 488.647 137.177 488.808 137.529 489.028C137.881 489.233 138.152 489.505 138.343 489.842C138.534 490.179 138.629 490.583 138.629 491.052C138.629 491.536 138.519 491.961 138.299 492.328C138.079 492.695 137.764 493.003 137.353 493.252C136.957 493.501 136.48 493.692 135.923 493.824C135.366 493.941 134.75 494 134.075 494H129.499V493.78H130.819V484.76H129.499V484.54H134.779V484.76ZM143.909 494H138.629V493.78H139.949V484.76H138.629V484.54H143.909V484.76H142.589V493.78H143.909V494ZM134.185 488.632C134.068 488.632 133.943 488.639 133.811 488.654C133.694 488.654 133.576 488.661 133.459 488.676V493.78H134.119C134.515 493.78 134.838 493.707 135.087 493.56C135.351 493.399 135.556 493.193 135.703 492.944C135.85 492.695 135.952 492.409 136.011 492.086C136.07 491.763 136.099 491.433 136.099 491.096C136.099 490.348 135.938 489.754 135.615 489.314C135.307 488.859 134.83 488.632 134.185 488.632ZM156.21 493.318C155.931 492.555 155.55 491.881 155.066 491.294C154.597 490.707 154.113 490.172 153.614 489.688C153.541 489.615 153.475 489.556 153.416 489.512C153.372 489.453 153.35 489.373 153.35 489.27C153.35 489.167 153.372 489.094 153.416 489.05C153.475 488.991 153.541 488.925 153.614 488.852C154.113 488.368 154.597 487.833 155.066 487.246C155.55 486.659 155.931 485.985 156.21 485.222L156.342 485.244C156.269 485.581 156.181 485.941 156.078 486.322C155.99 486.703 155.887 487.077 155.77 487.444C155.667 487.796 155.557 488.133 155.44 488.456C155.323 488.779 155.213 489.05 155.11 489.27C155.213 489.49 155.323 489.761 155.44 490.084C155.557 490.407 155.667 490.751 155.77 491.118C155.887 491.47 155.99 491.837 156.078 492.218C156.181 492.599 156.269 492.959 156.342 493.296L156.21 493.318ZM152.866 493.318C152.587 492.555 152.206 491.881 151.722 491.294C151.253 490.707 150.769 490.172 150.27 489.688C150.197 489.615 150.131 489.556 150.072 489.512C150.028 489.453 150.006 489.373 150.006 489.27C150.006 489.167 150.028 489.094 150.072 489.05C150.131 488.991 150.197 488.925 150.27 488.852C150.769 488.368 151.253 487.833 151.722 487.246C152.206 486.659 152.587 485.985 152.866 485.222L152.998 485.244C152.925 485.581 152.837 485.941 152.734 486.322C152.646 486.703 152.543 487.077 152.426 487.444C152.323 487.796 152.213 488.133 152.096 488.456C151.979 488.779 151.869 489.05 151.766 489.27C151.869 489.49 151.979 489.761 152.096 490.084C152.213 490.407 152.323 490.751 152.426 491.118C152.543 491.47 152.646 491.837 152.734 492.218C152.837 492.599 152.925 492.959 152.998 493.296L152.866 493.318ZM163.18 494H157.944V493.78H159.264V484.76H157.944V484.54H163.224V484.76H161.904V489.116H165.358V484.76H164.038V484.54H169.318V484.76H167.998V493.78H169.318V494H164.082V493.78H165.358V489.336H161.904V493.78H163.18V494ZM174.264 493.296C174.322 492.959 174.403 492.599 174.506 492.218C174.608 491.837 174.711 491.47 174.814 491.118C174.931 490.751 175.048 490.407 175.166 490.084C175.283 489.761 175.393 489.49 175.495 489.27C175.393 489.05 175.283 488.779 175.166 488.456C175.048 488.133 174.931 487.796 174.814 487.444C174.711 487.077 174.608 486.703 174.506 486.322C174.403 485.941 174.322 485.581 174.264 485.244L174.396 485.222C174.674 485.985 175.048 486.659 175.518 487.246C176.002 487.833 176.493 488.368 176.992 488.852C177.065 488.925 177.124 488.991 177.168 489.05C177.226 489.094 177.256 489.167 177.256 489.27C177.256 489.373 177.226 489.453 177.168 489.512C177.124 489.556 177.065 489.615 176.992 489.688C176.493 490.172 176.002 490.707 175.518 491.294C175.048 491.881 174.674 492.555 174.396 493.318L174.264 493.296ZM170.92 493.296C170.978 492.959 171.059 492.599 171.162 492.218C171.264 491.837 171.367 491.47 171.47 491.118C171.587 490.751 171.704 490.407 171.822 490.084C171.939 489.761 172.049 489.49 172.152 489.27C172.049 489.05 171.939 488.779 171.822 488.456C171.704 488.133 171.587 487.796 171.47 487.444C171.367 487.077 171.264 486.703 171.162 486.322C171.059 485.941 170.978 485.581 170.92 485.244L171.052 485.222C171.33 485.985 171.704 486.659 172.174 487.246C172.658 487.833 173.149 488.368 173.648 488.852C173.721 488.925 173.78 488.991 173.824 489.05C173.882 489.094 173.912 489.167 173.912 489.27C173.912 489.373 173.882 489.453 173.824 489.512C173.78 489.556 173.721 489.615 173.648 489.688C173.149 490.172 172.658 490.707 172.174 491.294C171.704 491.881 171.33 492.555 171.052 493.318L170.92 493.296ZM188.619 484.76H187.299V493.472L190.797 484.54H194.779V484.76H193.459V493.78H194.779V494H189.499V493.78H190.819V485.112L187.321 494H183.339V493.78H184.659V484.76H183.339V484.54H188.619V484.76ZM207.063 493.318C206.785 492.555 206.403 491.881 205.919 491.294C205.45 490.707 204.966 490.172 204.467 489.688C204.394 489.615 204.328 489.556 204.269 489.512C204.225 489.453 204.203 489.373 204.203 489.27C204.203 489.167 204.225 489.094 204.269 489.05C204.328 488.991 204.394 488.925 204.467 488.852C204.966 488.368 205.45 487.833 205.919 487.246C206.403 486.659 206.785 485.985 207.063 485.222L207.195 485.244C207.122 485.581 207.034 485.941 206.931 486.322C206.843 486.703 206.741 487.077 206.623 487.444C206.521 487.796 206.411 488.133 206.293 488.456C206.176 488.779 206.066 489.05 205.963 489.27C206.066 489.49 206.176 489.761 206.293 490.084C206.411 490.407 206.521 490.751 206.623 491.118C206.741 491.47 206.843 491.837 206.931 492.218C207.034 492.599 207.122 492.959 207.195 493.296L207.063 493.318ZM203.719 493.318C203.441 492.555 203.059 491.881 202.575 491.294C202.106 490.707 201.622 490.172 201.123 489.688C201.05 489.615 200.984 489.556 200.925 489.512C200.881 489.453 200.859 489.373 200.859 489.27C200.859 489.167 200.881 489.094 200.925 489.05C200.984 488.991 201.05 488.925 201.123 488.852C201.622 488.368 202.106 487.833 202.575 487.246C203.059 486.659 203.441 485.985 203.719 485.222L203.851 485.244C203.778 485.581 203.69 485.941 203.587 486.322C203.499 486.703 203.397 487.077 203.279 487.444C203.177 487.796 203.067 488.133 202.949 488.456C202.832 488.779 202.722 489.05 202.619 489.27C202.722 489.49 202.832 489.761 202.949 490.084C203.067 490.407 203.177 490.751 203.279 491.118C203.397 491.47 203.499 491.837 203.587 492.218C203.69 492.599 203.778 492.959 203.851 493.296L203.719 493.318ZM214.078 494H208.798V493.78H210.118V484.76H208.798V484.54H220.106V484.76H218.786V493.78H220.106V494H214.826V493.78H216.146V484.76H212.758V493.78H214.078V494ZM225.053 493.296C225.111 492.959 225.192 492.599 225.295 492.218C225.397 491.837 225.5 491.47 225.603 491.118C225.72 490.751 225.837 490.407 225.955 490.084C226.072 489.761 226.182 489.49 226.285 489.27C226.182 489.05 226.072 488.779 225.955 488.456C225.837 488.133 225.72 487.796 225.603 487.444C225.5 487.077 225.397 486.703 225.295 486.322C225.192 485.941 225.111 485.581 225.053 485.244L225.185 485.222C225.463 485.985 225.837 486.659 226.307 487.246C226.791 487.833 227.282 488.368 227.781 488.852C227.854 488.925 227.913 488.991 227.957 489.05C228.015 489.094 228.045 489.167 228.045 489.27C228.045 489.373 228.015 489.453 227.957 489.512C227.913 489.556 227.854 489.615 227.781 489.688C227.282 490.172 226.791 490.707 226.307 491.294C225.837 491.881 225.463 492.555 225.185 493.318L225.053 493.296ZM221.709 493.296C221.767 492.959 221.848 492.599 221.951 492.218C222.053 491.837 222.156 491.47 222.259 491.118C222.376 490.751 222.493 490.407 222.611 490.084C222.728 489.761 222.838 489.49 222.941 489.27C222.838 489.05 222.728 488.779 222.611 488.456C222.493 488.133 222.376 487.796 222.259 487.444C222.156 487.077 222.053 486.703 221.951 486.322C221.848 485.941 221.767 485.581 221.709 485.244L221.841 485.222C222.119 485.985 222.493 486.659 222.963 487.246C223.447 487.833 223.938 488.368 224.437 488.852C224.51 488.925 224.569 488.991 224.613 489.05C224.671 489.094 224.701 489.167 224.701 489.27C224.701 489.373 224.671 489.453 224.613 489.512C224.569 489.556 224.51 489.615 224.437 489.688C223.938 490.172 223.447 490.707 222.963 491.294C222.493 491.881 222.119 492.555 221.841 493.318L221.709 493.296ZM239.408 494.132C238.543 494.132 237.795 493.985 237.164 493.692C236.548 493.384 236.035 492.995 235.624 492.526C235.228 492.042 234.935 491.514 234.744 490.942C234.553 490.37 234.458 489.813 234.458 489.27C234.458 488.727 234.553 488.17 234.744 487.598C234.935 487.026 235.228 486.505 235.624 486.036C236.035 485.552 236.548 485.163 237.164 484.87C237.795 484.562 238.543 484.408 239.408 484.408C240.273 484.408 241.014 484.562 241.63 484.87C242.261 485.163 242.774 485.552 243.17 486.036C243.581 486.505 243.881 487.026 244.072 487.598C244.263 488.17 244.358 488.727 244.358 489.27C244.358 489.813 244.263 490.37 244.072 490.942C243.881 491.514 243.581 492.042 243.17 492.526C242.774 492.995 242.261 493.384 241.63 493.692C241.014 493.985 240.273 494.132 239.408 494.132ZM239.408 493.956C239.921 493.956 240.325 493.831 240.618 493.582C240.911 493.318 241.131 492.973 241.278 492.548C241.425 492.108 241.513 491.609 241.542 491.052C241.586 490.48 241.608 489.886 241.608 489.27C241.608 488.654 241.586 488.067 241.542 487.51C241.513 486.938 241.425 486.439 241.278 486.014C241.131 485.574 240.911 485.229 240.618 484.98C240.325 484.716 239.921 484.584 239.408 484.584C238.895 484.584 238.491 484.716 238.198 484.98C237.905 485.229 237.685 485.574 237.538 486.014C237.391 486.439 237.296 486.938 237.252 487.51C237.223 488.067 237.208 488.654 237.208 489.27C237.208 489.886 237.223 490.48 237.252 491.052C237.296 491.609 237.391 492.108 237.538 492.548C237.685 492.973 237.905 493.318 238.198 493.582C238.491 493.831 238.895 493.956 239.408 493.956ZM252.997 494H247.717V493.78H249.037V484.76H248.487C248.017 484.76 247.621 484.833 247.299 484.98C246.976 485.127 246.712 485.332 246.507 485.596C246.301 485.845 246.133 486.153 246.001 486.52C245.883 486.872 245.788 487.253 245.715 487.664H245.517V484.54H255.197V487.664H254.999C254.925 487.253 254.823 486.872 254.691 486.52C254.573 486.153 254.412 485.845 254.207 485.596C254.001 485.332 253.737 485.127 253.415 484.98C253.092 484.833 252.696 484.76 252.227 484.76H251.677V493.78H252.997V494ZM265.89 494H260.61V493.78H261.93V484.76H259.114C259.114 485.728 259.107 486.615 259.092 487.422C259.077 488.229 259.033 489.043 258.96 489.864C258.916 490.333 258.857 490.825 258.784 491.338C258.711 491.837 258.593 492.299 258.432 492.724C258.285 493.135 258.073 493.472 257.794 493.736C257.53 494 257.193 494.132 256.782 494.132C256.313 494.132 255.917 493.985 255.594 493.692C255.286 493.384 255.132 492.988 255.132 492.504C255.132 492.064 255.249 491.719 255.484 491.47C255.719 491.221 256.005 491.096 256.342 491.096C256.635 491.096 256.855 491.184 257.002 491.36C257.149 491.521 257.222 491.741 257.222 492.02C257.222 492.181 257.2 492.321 257.156 492.438C257.112 492.555 257.061 492.673 257.002 492.79C256.943 492.907 256.892 493.025 256.848 493.142C256.804 493.259 256.782 493.384 256.782 493.516C256.782 493.633 256.811 493.714 256.87 493.758C256.929 493.787 256.995 493.802 257.068 493.802C257.376 493.802 257.633 493.655 257.838 493.362C258.058 493.054 258.234 492.673 258.366 492.218C258.483 491.851 258.564 491.463 258.608 491.052C258.667 490.641 258.711 490.223 258.74 489.798C258.799 488.991 258.835 488.192 258.85 487.4C258.865 486.608 258.872 485.728 258.872 484.76H257.552V484.54H265.89V484.76H264.57V493.78H265.89V494ZM271.892 484.76H270.572V493.472L274.07 484.54H278.052V484.76H276.732V493.78H278.052V494H272.772V493.78H274.092V485.112L270.594 494H266.612V493.78H267.932V484.76H266.612V484.54H271.892V484.76ZM284.492 493.78H285.812V489.864C285.563 489.967 285.277 490.055 284.954 490.128C284.631 490.187 284.279 490.216 283.898 490.216C283.399 490.216 282.915 490.179 282.446 490.106C281.991 490.033 281.581 489.886 281.214 489.666C280.862 489.446 280.576 489.138 280.356 488.742C280.151 488.331 280.048 487.803 280.048 487.158V484.76H278.728V484.54H283.854V484.76H282.688V487.092C282.688 488.031 282.82 488.727 283.084 489.182C283.363 489.622 283.869 489.842 284.602 489.842C285.101 489.842 285.504 489.769 285.812 489.622V484.76H284.646V484.54H289.772V484.76H288.452V493.78H289.772V494H284.492V493.78ZM293.472 494.132C292.548 494.132 291.866 493.927 291.426 493.516C290.986 493.105 290.766 492.533 290.766 491.8C290.766 490.891 291.118 490.209 291.822 489.754C292.526 489.285 293.634 489.05 295.144 489.05H296.068V487.642C296.068 487.07 296.046 486.593 296.002 486.212C295.958 485.816 295.878 485.508 295.76 485.288C295.658 485.053 295.504 484.885 295.298 484.782C295.093 484.679 294.836 484.628 294.528 484.628C294.147 484.628 293.832 484.709 293.582 484.87C293.333 485.017 293.208 485.288 293.208 485.684C293.208 485.933 293.245 486.139 293.318 486.3C293.406 486.447 293.45 486.637 293.45 486.872C293.45 487.165 293.355 487.415 293.164 487.62C292.988 487.825 292.717 487.928 292.35 487.928C291.646 487.928 291.294 487.547 291.294 486.784C291.294 486.036 291.632 485.457 292.306 485.046C292.981 484.621 293.876 484.408 294.99 484.408C295.401 484.408 295.826 484.452 296.266 484.54C296.706 484.628 297.11 484.811 297.476 485.09C297.843 485.369 298.136 485.772 298.356 486.3C298.591 486.828 298.708 487.525 298.708 488.39V492.79C298.708 493.479 298.921 493.824 299.346 493.824C299.596 493.824 299.794 493.736 299.94 493.56C300.102 493.384 300.226 493.171 300.314 492.922L300.49 492.988C300.373 493.325 300.19 493.604 299.94 493.824C299.706 494.029 299.273 494.132 298.642 494.132C297.924 494.132 297.33 493.963 296.86 493.626C296.406 493.289 296.178 492.687 296.178 491.822V491.712H296.134C295.973 492.621 295.68 493.252 295.254 493.604C294.829 493.956 294.235 494.132 293.472 494.132ZM294.33 493.692C294.697 493.692 294.99 493.567 295.21 493.318C295.445 493.069 295.621 492.753 295.738 492.372C295.87 491.991 295.958 491.573 296.002 491.118C296.046 490.649 296.068 490.194 296.068 489.754V489.27H295.408C294.66 489.27 294.11 489.483 293.758 489.908C293.406 490.333 293.23 490.986 293.23 491.866C293.23 492.409 293.304 492.849 293.45 493.186C293.612 493.523 293.905 493.692 294.33 493.692ZM305.858 494H300.578V493.78H301.898V484.76H300.578V484.54H305.858V484.76H304.538V489.116H306.386C306.401 488.588 306.503 488.045 306.694 487.488C306.899 486.931 307.2 486.425 307.596 485.97C308.007 485.515 308.52 485.141 309.136 484.848C309.752 484.555 310.485 484.408 311.336 484.408C312.201 484.408 312.942 484.562 313.558 484.87C314.189 485.163 314.702 485.552 315.098 486.036C315.509 486.505 315.809 487.026 316 487.598C316.191 488.17 316.286 488.727 316.286 489.27C316.286 489.813 316.191 490.37 316 490.942C315.809 491.514 315.509 492.042 315.098 492.526C314.702 492.995 314.189 493.384 313.558 493.692C312.942 493.985 312.201 494.132 311.336 494.132C310.471 494.132 309.723 493.985 309.092 493.692C308.476 493.399 307.97 493.025 307.574 492.57C307.178 492.101 306.877 491.58 306.672 491.008C306.481 490.436 306.386 489.879 306.386 489.336H304.538V493.78H305.858V494ZM311.336 493.956C311.849 493.956 312.253 493.831 312.546 493.582C312.839 493.318 313.059 492.973 313.206 492.548C313.353 492.108 313.441 491.609 313.47 491.052C313.514 490.48 313.536 489.886 313.536 489.27C313.536 488.654 313.514 488.067 313.47 487.51C313.441 486.938 313.353 486.439 313.206 486.014C313.059 485.574 312.839 485.229 312.546 484.98C312.253 484.716 311.849 484.584 311.336 484.584C310.823 484.584 310.419 484.716 310.126 484.98C309.833 485.229 309.613 485.574 309.466 486.014C309.319 486.439 309.224 486.938 309.18 487.51C309.151 488.067 309.136 488.654 309.136 489.27C309.136 489.886 309.151 490.48 309.18 491.052C309.224 491.609 309.319 492.108 309.466 492.548C309.613 492.973 309.833 493.318 310.126 493.582C310.419 493.831 310.823 493.956 311.336 493.956ZM324.926 494H319.646V493.78H320.966V484.76H320.416C319.947 484.76 319.551 484.833 319.228 484.98C318.906 485.127 318.642 485.332 318.436 485.596C318.231 485.845 318.062 486.153 317.93 486.52C317.813 486.872 317.718 487.253 317.644 487.664H317.446V484.54H327.126V487.664H326.928C326.855 487.253 326.752 486.872 326.62 486.52C326.503 486.153 326.342 485.845 326.136 485.596C325.931 485.332 325.667 485.127 325.344 484.98C325.022 484.833 324.626 484.76 324.156 484.76H323.606V493.78H324.926V494ZM333.12 494.132C332.328 494.132 331.631 494.007 331.03 493.758C330.443 493.494 329.944 493.142 329.534 492.702C329.138 492.262 328.837 491.756 328.632 491.184C328.426 490.612 328.324 490.003 328.324 489.358C328.324 488.683 328.434 488.045 328.654 487.444C328.874 486.843 329.189 486.322 329.6 485.882C330.025 485.427 330.531 485.068 331.118 484.804C331.719 484.54 332.394 484.408 333.142 484.408C333.714 484.408 334.22 484.489 334.66 484.65C335.114 484.797 335.488 484.995 335.782 485.244C336.09 485.479 336.324 485.75 336.486 486.058C336.647 486.366 336.728 486.674 336.728 486.982C336.728 487.334 336.625 487.62 336.42 487.84C336.229 488.045 335.928 488.148 335.518 488.148C335.092 488.148 334.792 488.038 334.616 487.818C334.454 487.598 334.374 487.327 334.374 487.004C334.374 486.755 334.403 486.535 334.462 486.344C334.52 486.153 334.55 485.948 334.55 485.728C334.55 485.391 334.44 485.119 334.22 484.914C334.014 484.709 333.699 484.606 333.274 484.606C332.804 484.606 332.423 484.731 332.13 484.98C331.851 485.229 331.631 485.567 331.47 485.992C331.323 486.403 331.22 486.887 331.162 487.444C331.103 487.987 331.074 488.566 331.074 489.182C331.074 489.857 331.11 490.48 331.184 491.052C331.257 491.624 331.382 492.123 331.558 492.548C331.748 492.959 331.998 493.281 332.306 493.516C332.614 493.751 333.01 493.868 333.494 493.868C333.992 493.868 334.425 493.787 334.792 493.626C335.173 493.45 335.496 493.237 335.76 492.988C336.024 492.739 336.236 492.475 336.398 492.196C336.574 491.917 336.698 491.668 336.772 491.448L336.992 491.536C336.874 491.844 336.713 492.152 336.508 492.46C336.317 492.768 336.068 493.047 335.76 493.296C335.452 493.545 335.078 493.751 334.638 493.912C334.198 494.059 333.692 494.132 333.12 494.132ZM348.524 494H343.244V493.78H344.564V489.534H343.97C343.677 489.534 343.427 489.563 343.222 489.622C343.017 489.681 342.841 489.783 342.694 489.93C342.547 490.062 342.423 490.253 342.32 490.502C342.232 490.751 342.151 491.067 342.078 491.448L341.946 492.152C341.829 492.812 341.594 493.311 341.242 493.648C340.905 493.971 340.391 494.132 339.702 494.132C339.321 494.132 338.917 494.059 338.492 493.912C338.067 493.765 337.715 493.479 337.436 493.054L337.59 492.922C337.839 493.318 338.118 493.516 338.426 493.516C338.661 493.516 338.844 493.428 338.976 493.252C339.123 493.061 339.225 492.827 339.284 492.548L339.416 491.91C339.519 491.397 339.673 490.986 339.878 490.678C340.083 490.355 340.333 490.113 340.626 489.952C340.919 489.776 341.257 489.651 341.638 489.578C342.034 489.505 342.474 489.453 342.958 489.424C341.77 489.38 340.853 489.182 340.208 488.83C339.577 488.463 339.262 487.884 339.262 487.092C339.262 486.623 339.372 486.227 339.592 485.904C339.827 485.567 340.142 485.303 340.538 485.112C340.949 484.907 341.425 484.76 341.968 484.672C342.511 484.584 343.097 484.54 343.728 484.54H348.524V484.76H347.204V493.78H348.524V494ZM341.77 487.07C341.77 487.759 341.953 488.309 342.32 488.72C342.687 489.116 343.251 489.314 344.014 489.314H344.564V484.76H343.838C343.193 484.76 342.687 484.943 342.32 485.31C341.953 485.662 341.77 486.249 341.77 487.07ZM361.686 494H356.406V493.78H357.726V484.76H357.176C356.707 484.76 356.311 484.833 355.988 484.98C355.665 485.127 355.401 485.332 355.196 485.596C354.991 485.845 354.822 486.153 354.69 486.52C354.573 486.872 354.477 487.253 354.404 487.664H354.206V484.54H363.886V487.664H363.688C363.615 487.253 363.512 486.872 363.38 486.52C363.263 486.153 363.101 485.845 362.896 485.596C362.691 485.332 362.427 485.127 362.104 484.98C361.781 484.833 361.385 484.76 360.916 484.76H360.366V493.78H361.686V494ZM370.011 494.132C369.146 494.132 368.398 493.985 367.767 493.692C367.151 493.384 366.638 492.995 366.227 492.526C365.831 492.042 365.538 491.514 365.347 490.942C365.157 490.37 365.061 489.813 365.061 489.27C365.061 488.727 365.157 488.17 365.347 487.598C365.538 487.026 365.831 486.505 366.227 486.036C366.638 485.552 367.151 485.163 367.767 484.87C368.398 484.562 369.146 484.408 370.011 484.408C370.877 484.408 371.617 484.562 372.233 484.87C372.864 485.163 373.377 485.552 373.773 486.036C374.184 486.505 374.485 487.026 374.675 487.598C374.866 488.17 374.961 488.727 374.961 489.27C374.961 489.813 374.866 490.37 374.675 490.942C374.485 491.514 374.184 492.042 373.773 492.526C373.377 492.995 372.864 493.384 372.233 493.692C371.617 493.985 370.877 494.132 370.011 494.132ZM370.011 493.956C370.525 493.956 370.928 493.831 371.221 493.582C371.515 493.318 371.735 492.973 371.881 492.548C372.028 492.108 372.116 491.609 372.145 491.052C372.189 490.48 372.211 489.886 372.211 489.27C372.211 488.654 372.189 488.067 372.145 487.51C372.116 486.938 372.028 486.439 371.881 486.014C371.735 485.574 371.515 485.229 371.221 484.98C370.928 484.716 370.525 484.584 370.011 484.584C369.498 484.584 369.095 484.716 368.801 484.98C368.508 485.229 368.288 485.574 368.141 486.014C367.995 486.439 367.899 486.938 367.855 487.51C367.826 488.067 367.811 488.654 367.811 489.27C367.811 489.886 367.826 490.48 367.855 491.052C367.899 491.609 367.995 492.108 368.141 492.548C368.288 492.973 368.508 493.318 368.801 493.582C369.095 493.831 369.498 493.956 370.011 493.956ZM386.46 494H381.18V493.78H382.5V484.76H379.684C379.684 485.728 379.677 486.615 379.662 487.422C379.648 488.229 379.604 489.043 379.53 489.864C379.486 490.333 379.428 490.825 379.354 491.338C379.281 491.837 379.164 492.299 379.002 492.724C378.856 493.135 378.643 493.472 378.364 493.736C378.1 494 377.763 494.132 377.352 494.132C376.883 494.132 376.487 493.985 376.164 493.692C375.856 493.384 375.702 492.988 375.702 492.504C375.702 492.064 375.82 491.719 376.054 491.47C376.289 491.221 376.575 491.096 376.912 491.096C377.206 491.096 377.426 491.184 377.572 491.36C377.719 491.521 377.792 491.741 377.792 492.02C377.792 492.181 377.77 492.321 377.726 492.438C377.682 492.555 377.631 492.673 377.572 492.79C377.514 492.907 377.462 493.025 377.418 493.142C377.374 493.259 377.352 493.384 377.352 493.516C377.352 493.633 377.382 493.714 377.44 493.758C377.499 493.787 377.565 493.802 377.638 493.802C377.946 493.802 378.203 493.655 378.408 493.362C378.628 493.054 378.804 492.673 378.936 492.218C379.054 491.851 379.134 491.463 379.178 491.052C379.237 490.641 379.281 490.223 379.31 489.798C379.369 488.991 379.406 488.192 379.42 487.4C379.435 486.608 379.442 485.728 379.442 484.76H378.122V484.54H386.46V484.76H385.14V493.78H386.46V494ZM392.463 484.76H391.143V488.456C391.348 488.441 391.553 488.427 391.759 488.412C391.979 488.397 392.191 488.39 392.397 488.39C392.969 488.39 393.489 488.441 393.959 488.544C394.443 488.647 394.861 488.808 395.213 489.028C395.565 489.233 395.836 489.505 396.027 489.842C396.217 490.179 396.313 490.583 396.313 491.052C396.313 491.536 396.203 491.961 395.983 492.328C395.763 492.695 395.447 493.003 395.037 493.252C394.641 493.501 394.164 493.692 393.607 493.824C393.049 493.941 392.433 494 391.759 494H387.183V493.78H388.503V484.76H387.183V484.54H392.463V484.76ZM391.869 488.632C391.751 488.632 391.627 488.639 391.495 488.654C391.377 488.654 391.26 488.661 391.143 488.676V493.78H391.803C392.199 493.78 392.521 493.707 392.771 493.56C393.035 493.399 393.24 493.193 393.387 492.944C393.533 492.695 393.636 492.409 393.695 492.086C393.753 491.763 393.783 491.433 393.783 491.096C393.783 490.348 393.621 489.754 393.299 489.314C392.991 488.859 392.514 488.632 391.869 488.632ZM402.257 484.76H401.047V489.16H401.817L405.689 484.76H404.259V484.54H407.339V484.76H405.997L403.599 487.466L407.361 493.78H408.417V494H403.313V493.78H404.369L401.817 489.38H401.047V493.78H402.257V494H397.087V493.78H398.407V484.76H397.087V484.54H402.257V484.76ZM413.216 494.132C412.351 494.132 411.603 493.985 410.973 493.692C410.357 493.384 409.843 492.995 409.433 492.526C409.037 492.042 408.743 491.514 408.553 490.942C408.362 490.37 408.267 489.813 408.267 489.27C408.267 488.727 408.362 488.17 408.553 487.598C408.743 487.026 409.037 486.505 409.433 486.036C409.843 485.552 410.357 485.163 410.973 484.87C411.603 484.562 412.351 484.408 413.216 484.408C414.082 484.408 414.823 484.562 415.439 484.87C416.069 485.163 416.583 485.552 416.979 486.036C417.389 486.505 417.69 487.026 417.881 487.598C418.071 488.17 418.167 488.727 418.167 489.27C418.167 489.813 418.071 490.37 417.881 490.942C417.69 491.514 417.389 492.042 416.979 492.526C416.583 492.995 416.069 493.384 415.439 493.692C414.823 493.985 414.082 494.132 413.216 494.132ZM413.216 493.956C413.73 493.956 414.133 493.831 414.427 493.582C414.72 493.318 414.94 492.973 415.087 492.548C415.233 492.108 415.321 491.609 415.351 491.052C415.395 490.48 415.417 489.886 415.417 489.27C415.417 488.654 415.395 488.067 415.351 487.51C415.321 486.938 415.233 486.439 415.087 486.014C414.94 485.574 414.72 485.229 414.427 484.98C414.133 484.716 413.73 484.584 413.216 484.584C412.703 484.584 412.3 484.716 412.007 484.98C411.713 485.229 411.493 485.574 411.347 486.014C411.2 486.439 411.105 486.938 411.061 487.51C411.031 488.067 411.017 488.654 411.017 489.27C411.017 489.886 411.031 490.48 411.061 491.052C411.105 491.609 411.2 492.108 411.347 492.548C411.493 492.973 411.713 493.318 412.007 493.582C412.3 493.831 412.703 493.956 413.216 493.956ZM131.191 520.132C130.326 520.132 129.578 519.985 128.947 519.692C128.331 519.384 127.818 518.995 127.407 518.526C127.011 518.042 126.718 517.514 126.527 516.942C126.336 516.37 126.241 515.813 126.241 515.27C126.241 514.727 126.336 514.17 126.527 513.598C126.718 513.026 127.011 512.505 127.407 512.036C127.818 511.552 128.331 511.163 128.947 510.87C129.578 510.562 130.326 510.408 131.191 510.408C132.056 510.408 132.797 510.562 133.413 510.87C134.044 511.163 134.557 511.552 134.953 512.036C135.364 512.505 135.664 513.026 135.855 513.598C136.046 514.17 136.141 514.727 136.141 515.27C136.141 515.813 136.046 516.37 135.855 516.942C135.664 517.514 135.364 518.042 134.953 518.526C134.557 518.995 134.044 519.384 133.413 519.692C132.797 519.985 132.056 520.132 131.191 520.132ZM131.191 519.956C131.704 519.956 132.108 519.831 132.401 519.582C132.694 519.318 132.914 518.973 133.061 518.548C133.208 518.108 133.296 517.609 133.325 517.052C133.369 516.48 133.391 515.886 133.391 515.27C133.391 514.654 133.369 514.067 133.325 513.51C133.296 512.938 133.208 512.439 133.061 512.014C132.914 511.574 132.694 511.229 132.401 510.98C132.108 510.716 131.704 510.584 131.191 510.584C130.678 510.584 130.274 510.716 129.981 510.98C129.688 511.229 129.468 511.574 129.321 512.014C129.174 512.439 129.079 512.938 129.035 513.51C129.006 514.067 128.991 514.654 128.991 515.27C128.991 515.886 129.006 516.48 129.035 517.052C129.079 517.609 129.174 518.108 129.321 518.548C129.468 518.973 129.688 519.318 129.981 519.582C130.274 519.831 130.678 519.956 131.191 519.956ZM146.289 510.76H144.969V519.78H146.399V523.124H146.201C146.142 522.713 146.054 522.317 145.937 521.936C145.819 521.555 145.658 521.217 145.453 520.924C145.247 520.645 144.991 520.418 144.683 520.242C144.389 520.081 144.03 520 143.605 520H139.425C138.999 520 138.633 520.081 138.325 520.242C138.017 520.403 137.753 520.623 137.533 520.902C137.313 521.195 137.137 521.525 137.005 521.892C136.887 522.273 136.799 522.684 136.741 523.124H136.543L136.565 519.78H137.313C137.635 519.751 137.907 519.575 138.127 519.252C138.347 518.929 138.523 518.548 138.655 518.108C138.801 517.653 138.911 517.169 138.985 516.656C139.058 516.143 139.109 515.673 139.139 515.248C139.197 514.471 139.234 513.745 139.249 513.07C139.263 512.381 139.271 511.611 139.271 510.76H137.951V510.54H146.289V510.76ZM139.381 515.226C139.351 515.666 139.307 516.113 139.249 516.568C139.19 517.008 139.102 517.433 138.985 517.844C138.882 518.255 138.75 518.629 138.589 518.966C138.442 519.303 138.266 519.575 138.061 519.78H142.329V510.76H139.513C139.513 511.185 139.513 511.581 139.513 511.948C139.513 512.315 139.505 512.674 139.491 513.026C139.476 513.378 139.461 513.737 139.447 514.104C139.432 514.456 139.41 514.83 139.381 515.226ZM152.309 520H147.073V519.78H148.393V510.76H147.073V510.54H152.353V510.76H151.033V515.116H154.487V510.76H153.167V510.54H158.447V510.76H157.127V519.78H158.447V520H153.211V519.78H154.487V515.336H151.033V519.78H152.309V520ZM164.47 520.132C163.605 520.132 162.857 519.985 162.226 519.692C161.61 519.384 161.097 518.995 160.686 518.526C160.29 518.042 159.997 517.514 159.806 516.942C159.616 516.37 159.52 515.813 159.52 515.27C159.52 514.727 159.616 514.17 159.806 513.598C159.997 513.026 160.29 512.505 160.686 512.036C161.097 511.552 161.61 511.163 162.226 510.87C162.857 510.562 163.605 510.408 164.47 510.408C165.336 510.408 166.076 510.562 166.692 510.87C167.323 511.163 167.836 511.552 168.232 512.036C168.643 512.505 168.944 513.026 169.134 513.598C169.325 514.17 169.42 514.727 169.42 515.27C169.42 515.813 169.325 516.37 169.134 516.942C168.944 517.514 168.643 518.042 168.232 518.526C167.836 518.995 167.323 519.384 166.692 519.692C166.076 519.985 165.336 520.132 164.47 520.132ZM164.47 519.956C164.984 519.956 165.387 519.831 165.68 519.582C165.974 519.318 166.194 518.973 166.34 518.548C166.487 518.108 166.575 517.609 166.604 517.052C166.648 516.48 166.67 515.886 166.67 515.27C166.67 514.654 166.648 514.067 166.604 513.51C166.575 512.938 166.487 512.439 166.34 512.014C166.194 511.574 165.974 511.229 165.68 510.98C165.387 510.716 164.984 510.584 164.47 510.584C163.957 510.584 163.554 510.716 163.26 510.98C162.967 511.229 162.747 511.574 162.6 512.014C162.454 512.439 162.358 512.938 162.314 513.51C162.285 514.067 162.27 514.654 162.27 515.27C162.27 515.886 162.285 516.48 162.314 517.052C162.358 517.609 162.454 518.108 162.6 518.548C162.747 518.973 162.967 519.318 163.26 519.582C163.554 519.831 163.957 519.956 164.47 519.956ZM176.211 509.242C175.287 509.242 174.517 509.044 173.901 508.648C173.3 508.237 172.999 507.651 172.999 506.888C172.999 506.595 173.087 506.331 173.263 506.096C173.439 505.847 173.703 505.722 174.055 505.722C174.671 505.722 174.979 506.045 174.979 506.69C174.979 506.925 174.943 507.13 174.869 507.306C174.811 507.467 174.781 507.673 174.781 507.922C174.781 508.303 174.906 508.589 175.155 508.78C175.419 508.971 175.771 509.066 176.211 509.066C176.681 509.066 177.011 508.971 177.201 508.78C177.407 508.589 177.509 508.303 177.509 507.922C177.509 507.702 177.487 507.504 177.443 507.328C177.399 507.152 177.377 506.947 177.377 506.712C177.377 506.404 177.458 506.162 177.619 505.986C177.781 505.81 178.015 505.722 178.323 505.722C178.705 505.722 178.976 505.847 179.137 506.096C179.299 506.331 179.379 506.595 179.379 506.888C179.379 507.651 179.079 508.237 178.477 508.648C177.891 509.044 177.135 509.242 176.211 509.242ZM175.771 510.76H174.451V519.472L177.949 510.54H181.931V510.76H180.611V519.78H181.931V520H176.651V519.78H177.971V511.112L174.473 520H170.491V519.78H171.811V510.76H170.491V510.54H175.771V510.76ZM193.248 519.78H194.568V515.864C194.318 515.967 194.032 516.055 193.71 516.128C193.387 516.187 193.035 516.216 192.654 516.216C192.155 516.216 191.671 516.179 191.202 516.106C190.747 516.033 190.336 515.886 189.97 515.666C189.618 515.446 189.332 515.138 189.112 514.742C188.906 514.331 188.804 513.803 188.804 513.158V510.76H187.484V510.54H192.61V510.76H191.444V513.092C191.444 514.031 191.576 514.727 191.84 515.182C192.118 515.622 192.624 515.842 193.358 515.842C193.856 515.842 194.26 515.769 194.568 515.622V510.76H193.402V510.54H198.528V510.76H197.208V519.78H198.528V520H193.248V519.78ZM204.736 520.132C203.886 520.132 203.138 520 202.492 519.736C201.862 519.472 201.334 519.12 200.908 518.68C200.483 518.24 200.16 517.734 199.94 517.162C199.735 516.575 199.632 515.959 199.632 515.314C199.632 514.727 199.72 514.148 199.896 513.576C200.087 512.989 200.373 512.461 200.754 511.992C201.136 511.523 201.62 511.141 202.206 510.848C202.793 510.555 203.497 510.408 204.318 510.408C205.066 510.408 205.704 510.533 206.232 510.782C206.775 511.017 207.215 511.339 207.552 511.75C207.904 512.161 208.154 512.63 208.3 513.158C208.462 513.686 208.542 514.243 208.542 514.83H202.382V515.292C202.382 515.981 202.412 516.612 202.47 517.184C202.529 517.741 202.646 518.218 202.822 518.614C203.013 519.01 203.277 519.318 203.614 519.538C203.966 519.758 204.436 519.868 205.022 519.868C205.55 519.868 205.998 519.795 206.364 519.648C206.746 519.487 207.061 519.289 207.31 519.054C207.574 518.819 207.78 518.57 207.926 518.306C208.088 518.042 208.205 517.8 208.278 517.58L208.498 517.668C208.381 517.976 208.227 518.277 208.036 518.57C207.86 518.863 207.618 519.127 207.31 519.362C207.017 519.597 206.658 519.787 206.232 519.934C205.807 520.066 205.308 520.132 204.736 520.132ZM204.142 510.584C203.805 510.584 203.519 510.694 203.284 510.914C203.064 511.119 202.888 511.405 202.756 511.772C202.624 512.124 202.529 512.549 202.47 513.048C202.426 513.532 202.397 514.053 202.382 514.61H205.946C205.946 514.214 205.924 513.781 205.88 513.312C205.836 512.843 205.748 512.41 205.616 512.014C205.499 511.603 205.323 511.266 205.088 511.002C204.854 510.723 204.538 510.584 204.142 510.584ZM209.311 510.54H213.227V513.136H213.271C213.374 512.769 213.498 512.417 213.645 512.08C213.806 511.743 214.004 511.457 214.239 511.222C214.488 510.973 214.782 510.775 215.119 510.628C215.471 510.481 215.896 510.408 216.395 510.408C217.011 510.408 217.576 510.525 218.089 510.76C218.617 510.98 219.064 511.295 219.431 511.706C219.812 512.117 220.106 512.608 220.311 513.18C220.531 513.752 220.641 514.375 220.641 515.05C220.641 515.739 220.531 516.392 220.311 517.008C220.106 517.609 219.812 518.145 219.431 518.614C219.064 519.083 218.61 519.457 218.067 519.736C217.539 520 216.96 520.132 216.329 520.132C215.86 520.132 215.456 520.059 215.119 519.912C214.782 519.765 214.496 519.575 214.261 519.34C214.026 519.105 213.836 518.834 213.689 518.526C213.542 518.218 213.418 517.895 213.315 517.558H213.271V525.148H214.591V525.368H209.311V525.148H210.631V510.76H209.311V510.54ZM215.845 519.802C216.256 519.802 216.593 519.67 216.857 519.406C217.121 519.142 217.326 518.797 217.473 518.372C217.634 517.947 217.744 517.463 217.803 516.92C217.862 516.377 217.891 515.827 217.891 515.27C217.891 514.713 217.862 514.163 217.803 513.62C217.744 513.077 217.634 512.593 217.473 512.168C217.326 511.743 217.121 511.398 216.857 511.134C216.593 510.87 216.256 510.738 215.845 510.738C215.097 510.738 214.481 511.127 213.997 511.904C213.513 512.681 213.271 513.752 213.271 515.116V515.424C213.271 516.788 213.513 517.859 213.997 518.636C214.481 519.413 215.097 519.802 215.845 519.802ZM229.321 520H224.041V519.78H225.361V510.76H224.811C224.342 510.76 223.946 510.833 223.623 510.98C223.3 511.127 223.036 511.332 222.831 511.596C222.626 511.845 222.457 512.153 222.325 512.52C222.208 512.872 222.112 513.253 222.039 513.664H221.841V510.54H231.521V513.664H231.323C231.25 513.253 231.147 512.872 231.015 512.52C230.898 512.153 230.736 511.845 230.531 511.596C230.326 511.332 230.062 511.127 229.739 510.98C229.416 510.833 229.02 510.76 228.551 510.76H228.001V519.78H229.321V520ZM237.646 520.132C236.781 520.132 236.033 519.985 235.402 519.692C234.786 519.384 234.273 518.995 233.862 518.526C233.466 518.042 233.173 517.514 232.982 516.942C232.792 516.37 232.696 515.813 232.696 515.27C232.696 514.727 232.792 514.17 232.982 513.598C233.173 513.026 233.466 512.505 233.862 512.036C234.273 511.552 234.786 511.163 235.402 510.87C236.033 510.562 236.781 510.408 237.646 510.408C238.512 510.408 239.252 510.562 239.868 510.87C240.499 511.163 241.012 511.552 241.408 512.036C241.819 512.505 242.12 513.026 242.31 513.598C242.501 514.17 242.596 514.727 242.596 515.27C242.596 515.813 242.501 516.37 242.31 516.942C242.12 517.514 241.819 518.042 241.408 518.526C241.012 518.995 240.499 519.384 239.868 519.692C239.252 519.985 238.512 520.132 237.646 520.132ZM237.646 519.956C238.16 519.956 238.563 519.831 238.856 519.582C239.15 519.318 239.37 518.973 239.516 518.548C239.663 518.108 239.751 517.609 239.78 517.052C239.824 516.48 239.846 515.886 239.846 515.27C239.846 514.654 239.824 514.067 239.78 513.51C239.751 512.938 239.663 512.439 239.516 512.014C239.37 511.574 239.15 511.229 238.856 510.98C238.563 510.716 238.16 510.584 237.646 510.584C237.133 510.584 236.73 510.716 236.436 510.98C236.143 511.229 235.923 511.574 235.776 512.014C235.63 512.439 235.534 512.938 235.49 513.51C235.461 514.067 235.446 514.654 235.446 515.27C235.446 515.886 235.461 516.48 235.49 517.052C235.534 517.609 235.63 518.108 235.776 518.548C235.923 518.973 236.143 519.318 236.436 519.582C236.73 519.831 237.133 519.956 237.646 519.956ZM249.086 519.78H250.406V515.864C250.156 515.967 249.87 516.055 249.548 516.128C249.225 516.187 248.873 516.216 248.492 516.216C247.993 516.216 247.509 516.179 247.04 516.106C246.585 516.033 246.174 515.886 245.808 515.666C245.456 515.446 245.17 515.138 244.95 514.742C244.744 514.331 244.642 513.803 244.642 513.158V510.76H243.322V510.54H248.448V510.76H247.282V513.092C247.282 514.031 247.414 514.727 247.678 515.182C247.956 515.622 248.462 515.842 249.196 515.842C249.694 515.842 250.098 515.769 250.406 515.622V510.76H249.24V510.54H254.366V510.76H253.046V519.78H254.366V520H249.086V519.78ZM260.288 510.76H259.078V515.16H259.848L263.72 510.76H262.29V510.54H265.37V510.76H264.028L261.63 513.466L265.392 519.78H266.448V520H261.344V519.78H262.4L259.848 515.38H259.078V519.78H260.288V520H255.118V519.78H256.438V510.76H255.118V510.54H260.288V510.76ZM271.248 520.132C270.382 520.132 269.634 519.985 269.004 519.692C268.388 519.384 267.874 518.995 267.464 518.526C267.068 518.042 266.774 517.514 266.584 516.942C266.393 516.37 266.298 515.813 266.298 515.27C266.298 514.727 266.393 514.17 266.584 513.598C266.774 513.026 267.068 512.505 267.464 512.036C267.874 511.552 268.388 511.163 269.004 510.87C269.634 510.562 270.382 510.408 271.248 510.408C272.113 510.408 272.854 510.562 273.47 510.87C274.1 511.163 274.614 511.552 275.01 512.036C275.42 512.505 275.721 513.026 275.912 513.598C276.102 514.17 276.198 514.727 276.198 515.27C276.198 515.813 276.102 516.37 275.912 516.942C275.721 517.514 275.42 518.042 275.01 518.526C274.614 518.995 274.1 519.384 273.47 519.692C272.854 519.985 272.113 520.132 271.248 520.132ZM271.248 519.956C271.761 519.956 272.164 519.831 272.458 519.582C272.751 519.318 272.971 518.973 273.118 518.548C273.264 518.108 273.352 517.609 273.382 517.052C273.426 516.48 273.448 515.886 273.448 515.27C273.448 514.654 273.426 514.067 273.382 513.51C273.352 512.938 273.264 512.439 273.118 512.014C272.971 511.574 272.751 511.229 272.458 510.98C272.164 510.716 271.761 510.584 271.248 510.584C270.734 510.584 270.331 510.716 270.038 510.98C269.744 511.229 269.524 511.574 269.378 512.014C269.231 512.439 269.136 512.938 269.092 513.51C269.062 514.067 269.048 514.654 269.048 515.27C269.048 515.886 269.062 516.48 269.092 517.052C269.136 517.609 269.231 518.108 269.378 518.548C269.524 518.973 269.744 519.318 270.038 519.582C270.331 519.831 270.734 519.956 271.248 519.956ZM282.989 509.242C282.065 509.242 281.295 509.044 280.679 508.648C280.077 508.237 279.777 507.651 279.777 506.888C279.777 506.595 279.865 506.331 280.041 506.096C280.217 505.847 280.481 505.722 280.833 505.722C281.449 505.722 281.757 506.045 281.757 506.69C281.757 506.925 281.72 507.13 281.647 507.306C281.588 507.467 281.559 507.673 281.559 507.922C281.559 508.303 281.683 508.589 281.933 508.78C282.197 508.971 282.549 509.066 282.989 509.066C283.458 509.066 283.788 508.971 283.979 508.78C284.184 508.589 284.287 508.303 284.287 507.922C284.287 507.702 284.265 507.504 284.221 507.328C284.177 507.152 284.155 506.947 284.155 506.712C284.155 506.404 284.235 506.162 284.397 505.986C284.558 505.81 284.793 505.722 285.101 505.722C285.482 505.722 285.753 505.847 285.915 506.096C286.076 506.331 286.157 506.595 286.157 506.888C286.157 507.651 285.856 508.237 285.255 508.648C284.668 509.044 283.913 509.242 282.989 509.242ZM282.549 510.76H281.229V519.472L284.727 510.54H288.709V510.76H287.389V519.78H288.709V520H283.429V519.78H284.749V511.112L281.251 520H277.269V519.78H278.589V510.76H277.269V510.54H282.549V510.76ZM291.078 523.542C291.474 523.439 291.819 523.256 292.112 522.992C292.406 522.743 292.648 522.449 292.838 522.112C293.044 521.789 293.19 521.459 293.278 521.122C293.381 520.785 293.432 520.484 293.432 520.22C293.432 520 293.396 519.802 293.322 519.626C293.264 519.45 293.176 519.362 293.058 519.362C292.97 519.362 292.89 519.413 292.816 519.516C292.758 519.604 292.655 519.707 292.508 519.824C292.362 519.941 292.215 520.015 292.068 520.044C291.936 520.073 291.812 520.088 291.694 520.088C291.225 520.088 290.844 519.941 290.55 519.648C290.257 519.34 290.11 518.966 290.11 518.526C290.11 518.057 290.264 517.683 290.572 517.404C290.895 517.111 291.291 516.964 291.76 516.964C292.406 516.964 292.897 517.228 293.234 517.756C293.586 518.284 293.762 518.922 293.762 519.67C293.762 520.051 293.711 520.455 293.608 520.88C293.506 521.32 293.352 521.731 293.146 522.112C292.941 522.493 292.67 522.831 292.332 523.124C291.995 523.417 291.599 523.623 291.144 523.74L291.078 523.542ZM305.148 510.76H303.938V515.16H304.708L308.58 510.76H307.15V510.54H310.23V510.76H308.888L306.49 513.466L310.252 519.78H311.308V520H306.204V519.78H307.26L304.708 515.38H303.938V519.78H305.148V520H299.978V519.78H301.298V510.76H299.978V510.54H305.148V510.76ZM316.107 520.132C315.242 520.132 314.494 519.985 313.863 519.692C313.247 519.384 312.734 518.995 312.323 518.526C311.927 518.042 311.634 517.514 311.443 516.942C311.252 516.37 311.157 515.813 311.157 515.27C311.157 514.727 311.252 514.17 311.443 513.598C311.634 513.026 311.927 512.505 312.323 512.036C312.734 511.552 313.247 511.163 313.863 510.87C314.494 510.562 315.242 510.408 316.107 510.408C316.972 510.408 317.713 510.562 318.329 510.87C318.96 511.163 319.473 511.552 319.869 512.036C320.28 512.505 320.58 513.026 320.771 513.598C320.962 514.17 321.057 514.727 321.057 515.27C321.057 515.813 320.962 516.37 320.771 516.942C320.58 517.514 320.28 518.042 319.869 518.526C319.473 518.995 318.96 519.384 318.329 519.692C317.713 519.985 316.972 520.132 316.107 520.132ZM316.107 519.956C316.62 519.956 317.024 519.831 317.317 519.582C317.61 519.318 317.83 518.973 317.977 518.548C318.124 518.108 318.212 517.609 318.241 517.052C318.285 516.48 318.307 515.886 318.307 515.27C318.307 514.654 318.285 514.067 318.241 513.51C318.212 512.938 318.124 512.439 317.977 512.014C317.83 511.574 317.61 511.229 317.317 510.98C317.024 510.716 316.62 510.584 316.107 510.584C315.594 510.584 315.19 510.716 314.897 510.98C314.604 511.229 314.384 511.574 314.237 512.014C314.09 512.439 313.995 512.938 313.951 513.51C313.922 514.067 313.907 514.654 313.907 515.27C313.907 515.886 313.922 516.48 313.951 517.052C313.995 517.609 314.09 518.108 314.237 518.548C314.384 518.973 314.604 519.318 314.897 519.582C315.19 519.831 315.594 519.956 316.107 519.956ZM329.696 520H324.416V519.78H325.736V510.76H325.186C324.717 510.76 324.321 510.833 323.998 510.98C323.675 511.127 323.411 511.332 323.206 511.596C323.001 511.845 322.832 512.153 322.7 512.52C322.583 512.872 322.487 513.253 322.414 513.664H322.216V510.54H331.896V513.664H331.698C331.625 513.253 331.522 512.872 331.39 512.52C331.273 512.153 331.111 511.845 330.906 511.596C330.701 511.332 330.437 511.127 330.114 510.98C329.791 510.833 329.395 510.76 328.926 510.76H328.376V519.78H329.696V520ZM338.021 520.132C337.156 520.132 336.408 519.985 335.777 519.692C335.161 519.384 334.648 518.995 334.237 518.526C333.841 518.042 333.548 517.514 333.357 516.942C333.167 516.37 333.071 515.813 333.071 515.27C333.071 514.727 333.167 514.17 333.357 513.598C333.548 513.026 333.841 512.505 334.237 512.036C334.648 511.552 335.161 511.163 335.777 510.87C336.408 510.562 337.156 510.408 338.021 510.408C338.887 510.408 339.627 510.562 340.243 510.87C340.874 511.163 341.387 511.552 341.783 512.036C342.194 512.505 342.495 513.026 342.685 513.598C342.876 514.17 342.971 514.727 342.971 515.27C342.971 515.813 342.876 516.37 342.685 516.942C342.495 517.514 342.194 518.042 341.783 518.526C341.387 518.995 340.874 519.384 340.243 519.692C339.627 519.985 338.887 520.132 338.021 520.132ZM338.021 519.956C338.535 519.956 338.938 519.831 339.231 519.582C339.525 519.318 339.745 518.973 339.891 518.548C340.038 518.108 340.126 517.609 340.155 517.052C340.199 516.48 340.221 515.886 340.221 515.27C340.221 514.654 340.199 514.067 340.155 513.51C340.126 512.938 340.038 512.439 339.891 512.014C339.745 511.574 339.525 511.229 339.231 510.98C338.938 510.716 338.535 510.584 338.021 510.584C337.508 510.584 337.105 510.716 336.811 510.98C336.518 511.229 336.298 511.574 336.151 512.014C336.005 512.439 335.909 512.938 335.865 513.51C335.836 514.067 335.821 514.654 335.821 515.27C335.821 515.886 335.836 516.48 335.865 517.052C335.909 517.609 336.005 518.108 336.151 518.548C336.298 518.973 336.518 519.318 336.811 519.582C337.105 519.831 337.508 519.956 338.021 519.956ZM343.932 510.54H347.848V513.136H347.892C347.995 512.769 348.119 512.417 348.266 512.08C348.427 511.743 348.625 511.457 348.86 511.222C349.109 510.973 349.403 510.775 349.74 510.628C350.092 510.481 350.517 510.408 351.016 510.408C351.632 510.408 352.197 510.525 352.71 510.76C353.238 510.98 353.685 511.295 354.052 511.706C354.433 512.117 354.727 512.608 354.932 513.18C355.152 513.752 355.262 514.375 355.262 515.05C355.262 515.739 355.152 516.392 354.932 517.008C354.727 517.609 354.433 518.145 354.052 518.614C353.685 519.083 353.231 519.457 352.688 519.736C352.16 520 351.581 520.132 350.95 520.132C350.481 520.132 350.077 520.059 349.74 519.912C349.403 519.765 349.117 519.575 348.882 519.34C348.647 519.105 348.457 518.834 348.31 518.526C348.163 518.218 348.039 517.895 347.936 517.558H347.892V525.148H349.212V525.368H343.932V525.148H345.252V510.76H343.932V510.54ZM350.466 519.802C350.877 519.802 351.214 519.67 351.478 519.406C351.742 519.142 351.947 518.797 352.094 518.372C352.255 517.947 352.365 517.463 352.424 516.92C352.483 516.377 352.512 515.827 352.512 515.27C352.512 514.713 352.483 514.163 352.424 513.62C352.365 513.077 352.255 512.593 352.094 512.168C351.947 511.743 351.742 511.398 351.478 511.134C351.214 510.87 350.877 510.738 350.466 510.738C349.718 510.738 349.102 511.127 348.618 511.904C348.134 512.681 347.892 513.752 347.892 515.116V515.424C347.892 516.788 348.134 517.859 348.618 518.636C349.102 519.413 349.718 519.802 350.466 519.802ZM359.322 520.132C358.398 520.132 357.716 519.927 357.276 519.516C356.836 519.105 356.616 518.533 356.616 517.8C356.616 516.891 356.968 516.209 357.672 515.754C358.376 515.285 359.483 515.05 360.994 515.05H361.918V513.642C361.918 513.07 361.896 512.593 361.852 512.212C361.808 511.816 361.727 511.508 361.61 511.288C361.507 511.053 361.353 510.885 361.148 510.782C360.943 510.679 360.686 510.628 360.378 510.628C359.997 510.628 359.681 510.709 359.432 510.87C359.183 511.017 359.058 511.288 359.058 511.684C359.058 511.933 359.095 512.139 359.168 512.3C359.256 512.447 359.3 512.637 359.3 512.872C359.3 513.165 359.205 513.415 359.014 513.62C358.838 513.825 358.567 513.928 358.2 513.928C357.496 513.928 357.144 513.547 357.144 512.784C357.144 512.036 357.481 511.457 358.156 511.046C358.831 510.621 359.725 510.408 360.84 510.408C361.251 510.408 361.676 510.452 362.116 510.54C362.556 510.628 362.959 510.811 363.326 511.09C363.693 511.369 363.986 511.772 364.206 512.3C364.441 512.828 364.558 513.525 364.558 514.39V518.79C364.558 519.479 364.771 519.824 365.196 519.824C365.445 519.824 365.643 519.736 365.79 519.56C365.951 519.384 366.076 519.171 366.164 518.922L366.34 518.988C366.223 519.325 366.039 519.604 365.79 519.824C365.555 520.029 365.123 520.132 364.492 520.132C363.773 520.132 363.179 519.963 362.71 519.626C362.255 519.289 362.028 518.687 362.028 517.822V517.712H361.984C361.823 518.621 361.529 519.252 361.104 519.604C360.679 519.956 360.085 520.132 359.322 520.132ZM360.18 519.692C360.547 519.692 360.84 519.567 361.06 519.318C361.295 519.069 361.471 518.753 361.588 518.372C361.72 517.991 361.808 517.573 361.852 517.118C361.896 516.649 361.918 516.194 361.918 515.754V515.27H361.258C360.51 515.27 359.96 515.483 359.608 515.908C359.256 516.333 359.08 516.986 359.08 517.866C359.08 518.409 359.153 518.849 359.3 519.186C359.461 519.523 359.755 519.692 360.18 519.692ZM377.12 520H371.84V519.78H373.16V515.534H372.566C372.272 515.534 372.023 515.563 371.818 515.622C371.612 515.681 371.436 515.783 371.29 515.93C371.143 516.062 371.018 516.253 370.916 516.502C370.828 516.751 370.747 517.067 370.674 517.448L370.542 518.152C370.424 518.812 370.19 519.311 369.838 519.648C369.5 519.971 368.987 520.132 368.298 520.132C367.916 520.132 367.513 520.059 367.088 519.912C366.662 519.765 366.31 519.479 366.032 519.054L366.186 518.922C366.435 519.318 366.714 519.516 367.022 519.516C367.256 519.516 367.44 519.428 367.572 519.252C367.718 519.061 367.821 518.827 367.88 518.548L368.012 517.91C368.114 517.397 368.268 516.986 368.474 516.678C368.679 516.355 368.928 516.113 369.222 515.952C369.515 515.776 369.852 515.651 370.234 515.578C370.63 515.505 371.07 515.453 371.554 515.424C370.366 515.38 369.449 515.182 368.804 514.83C368.173 514.463 367.858 513.884 367.858 513.092C367.858 512.623 367.968 512.227 368.188 511.904C368.422 511.567 368.738 511.303 369.134 511.112C369.544 510.907 370.021 510.76 370.564 510.672C371.106 510.584 371.693 510.54 372.324 510.54H377.12V510.76H375.8V519.78H377.12V520ZM370.366 513.07C370.366 513.759 370.549 514.309 370.916 514.72C371.282 515.116 371.847 515.314 372.61 515.314H373.16V510.76H372.434C371.788 510.76 371.282 510.943 370.916 511.31C370.549 511.662 370.366 512.249 370.366 513.07ZM96.8913 546H91.6113V545.78H92.9313V536.76H91.6113V536.54H102.919V536.76H101.599V545.78H102.919V546H97.6393V545.78H98.9593V536.76H95.5713V545.78H96.8913V546ZM109.12 546.132C108.269 546.132 107.521 546 106.876 545.736C106.245 545.472 105.717 545.12 105.292 544.68C104.867 544.24 104.544 543.734 104.324 543.162C104.119 542.575 104.016 541.959 104.016 541.314C104.016 540.727 104.104 540.148 104.28 539.576C104.471 538.989 104.757 538.461 105.138 537.992C105.519 537.523 106.003 537.141 106.59 536.848C107.177 536.555 107.881 536.408 108.702 536.408C109.45 536.408 110.088 536.533 110.616 536.782C111.159 537.017 111.599 537.339 111.936 537.75C112.288 538.161 112.537 538.63 112.684 539.158C112.845 539.686 112.926 540.243 112.926 540.83H106.766V541.292C106.766 541.981 106.795 542.612 106.854 543.184C106.913 543.741 107.03 544.218 107.206 544.614C107.397 545.01 107.661 545.318 107.998 545.538C108.35 545.758 108.819 545.868 109.406 545.868C109.934 545.868 110.381 545.795 110.748 545.648C111.129 545.487 111.445 545.289 111.694 545.054C111.958 544.819 112.163 544.57 112.31 544.306C112.471 544.042 112.589 543.8 112.662 543.58L112.882 543.668C112.765 543.976 112.611 544.277 112.42 544.57C112.244 544.863 112.002 545.127 111.694 545.362C111.401 545.597 111.041 545.787 110.616 545.934C110.191 546.066 109.692 546.132 109.12 546.132ZM108.526 536.584C108.189 536.584 107.903 536.694 107.668 536.914C107.448 537.119 107.272 537.405 107.14 537.772C107.008 538.124 106.913 538.549 106.854 539.048C106.81 539.532 106.781 540.053 106.766 540.61H110.33C110.33 540.214 110.308 539.781 110.264 539.312C110.22 538.843 110.132 538.41 110 538.014C109.883 537.603 109.707 537.266 109.472 537.002C109.237 536.723 108.922 536.584 108.526 536.584ZM113.695 536.54H117.611V539.136H117.655C117.757 538.769 117.882 538.417 118.029 538.08C118.19 537.743 118.388 537.457 118.623 537.222C118.872 536.973 119.165 536.775 119.503 536.628C119.855 536.481 120.28 536.408 120.779 536.408C121.395 536.408 121.959 536.525 122.473 536.76C123.001 536.98 123.448 537.295 123.815 537.706C124.196 538.117 124.489 538.608 124.695 539.18C124.915 539.752 125.025 540.375 125.025 541.05C125.025 541.739 124.915 542.392 124.695 543.008C124.489 543.609 124.196 544.145 123.815 544.614C123.448 545.083 122.993 545.457 122.451 545.736C121.923 546 121.343 546.132 120.713 546.132C120.243 546.132 119.84 546.059 119.503 545.912C119.165 545.765 118.879 545.575 118.645 545.34C118.41 545.105 118.219 544.834 118.073 544.526C117.926 544.218 117.801 543.895 117.699 543.558H117.655V551.148H118.975V551.368H113.695V551.148H115.015V536.76H113.695V536.54ZM120.229 545.802C120.639 545.802 120.977 545.67 121.241 545.406C121.505 545.142 121.71 544.797 121.857 544.372C122.018 543.947 122.128 543.463 122.187 542.92C122.245 542.377 122.275 541.827 122.275 541.27C122.275 540.713 122.245 540.163 122.187 539.62C122.128 539.077 122.018 538.593 121.857 538.168C121.71 537.743 121.505 537.398 121.241 537.134C120.977 536.87 120.639 536.738 120.229 536.738C119.481 536.738 118.865 537.127 118.381 537.904C117.897 538.681 117.655 539.752 117.655 541.116V541.424C117.655 542.788 117.897 543.859 118.381 544.636C118.865 545.413 119.481 545.802 120.229 545.802ZM131.593 546.132C130.742 546.132 129.994 546 129.349 545.736C128.718 545.472 128.19 545.12 127.765 544.68C127.339 544.24 127.017 543.734 126.797 543.162C126.591 542.575 126.489 541.959 126.489 541.314C126.489 540.727 126.577 540.148 126.753 539.576C126.943 538.989 127.229 538.461 127.611 537.992C127.992 537.523 128.476 537.141 129.063 536.848C129.649 536.555 130.353 536.408 131.175 536.408C131.923 536.408 132.561 536.533 133.089 536.782C133.631 537.017 134.071 537.339 134.409 537.75C134.761 538.161 135.01 538.63 135.157 539.158C135.318 539.686 135.399 540.243 135.399 540.83H129.239V541.292C129.239 541.981 129.268 542.612 129.327 543.184C129.385 543.741 129.503 544.218 129.679 544.614C129.869 545.01 130.133 545.318 130.471 545.538C130.823 545.758 131.292 545.868 131.879 545.868C132.407 545.868 132.854 545.795 133.221 545.648C133.602 545.487 133.917 545.289 134.167 545.054C134.431 544.819 134.636 544.57 134.783 544.306C134.944 544.042 135.061 543.8 135.135 543.58L135.355 543.668C135.237 543.976 135.083 544.277 134.893 544.57C134.717 544.863 134.475 545.127 134.167 545.362C133.873 545.597 133.514 545.787 133.089 545.934C132.663 546.066 132.165 546.132 131.593 546.132ZM130.999 536.584C130.661 536.584 130.375 536.694 130.141 536.914C129.921 537.119 129.745 537.405 129.613 537.772C129.481 538.124 129.385 538.549 129.327 539.048C129.283 539.532 129.253 540.053 129.239 540.61H132.803C132.803 540.214 132.781 539.781 132.737 539.312C132.693 538.843 132.605 538.41 132.473 538.014C132.355 537.603 132.179 537.266 131.945 537.002C131.71 536.723 131.395 536.584 130.999 536.584ZM142.613 542.59L144.769 536.54H148.839V536.76H147.519V545.78H148.839V546H143.559V545.78H144.879V536.958L141.557 546.132H141.337L137.817 537.002V545.78H139.137V546H136.255V545.78H137.575V536.76H136.255V536.54H140.347L142.613 542.59ZM155.011 546.132C154.16 546.132 153.412 546 152.767 545.736C152.136 545.472 151.608 545.12 151.183 544.68C150.757 544.24 150.435 543.734 150.215 543.162C150.009 542.575 149.907 541.959 149.907 541.314C149.907 540.727 149.995 540.148 150.171 539.576C150.361 538.989 150.647 538.461 151.029 537.992C151.41 537.523 151.894 537.141 152.481 536.848C153.067 536.555 153.771 536.408 154.593 536.408C155.341 536.408 155.979 536.533 156.507 536.782C157.049 537.017 157.489 537.339 157.827 537.75C158.179 538.161 158.428 538.63 158.575 539.158C158.736 539.686 158.817 540.243 158.817 540.83H152.657V541.292C152.657 541.981 152.686 542.612 152.745 543.184C152.803 543.741 152.921 544.218 153.097 544.614C153.287 545.01 153.551 545.318 153.889 545.538C154.241 545.758 154.71 545.868 155.297 545.868C155.825 545.868 156.272 545.795 156.639 545.648C157.02 545.487 157.335 545.289 157.585 545.054C157.849 544.819 158.054 544.57 158.201 544.306C158.362 544.042 158.479 543.8 158.553 543.58L158.773 543.668C158.655 543.976 158.501 544.277 158.311 544.57C158.135 544.863 157.893 545.127 157.585 545.362C157.291 545.597 156.932 545.787 156.507 545.934C156.081 546.066 155.583 546.132 155.011 546.132ZM154.417 536.584C154.079 536.584 153.793 536.694 153.559 536.914C153.339 537.119 153.163 537.405 153.031 537.772C152.899 538.124 152.803 538.549 152.745 539.048C152.701 539.532 152.671 540.053 152.657 540.61H156.221C156.221 540.214 156.199 539.781 156.155 539.312C156.111 538.843 156.023 538.41 155.891 538.014C155.773 537.603 155.597 537.266 155.363 537.002C155.128 536.723 154.813 536.584 154.417 536.584ZM176.437 536.76H175.117V545.78H176.657V549.124H176.459C176.401 548.713 176.313 548.325 176.195 547.958C176.093 547.591 175.939 547.261 175.733 546.968C175.543 546.689 175.301 546.462 175.007 546.286C174.714 546.11 174.369 546.015 173.973 546H159.673V545.78H160.993V536.76H159.673V536.54H164.777V536.76H163.633V545.78H166.735V536.76H165.591V536.54H170.519V536.76H169.375V545.78H172.477V536.76H171.333V536.54H176.437V536.76ZM180.196 546.132C179.272 546.132 178.59 545.927 178.15 545.516C177.71 545.105 177.49 544.533 177.49 543.8C177.49 542.891 177.842 542.209 178.546 541.754C179.25 541.285 180.357 541.05 181.868 541.05H182.792V539.642C182.792 539.07 182.77 538.593 182.726 538.212C182.682 537.816 182.601 537.508 182.484 537.288C182.381 537.053 182.227 536.885 182.022 536.782C181.817 536.679 181.56 536.628 181.252 536.628C180.871 536.628 180.555 536.709 180.306 536.87C180.057 537.017 179.932 537.288 179.932 537.684C179.932 537.933 179.969 538.139 180.042 538.3C180.13 538.447 180.174 538.637 180.174 538.872C180.174 539.165 180.079 539.415 179.888 539.62C179.712 539.825 179.441 539.928 179.074 539.928C178.37 539.928 178.018 539.547 178.018 538.784C178.018 538.036 178.355 537.457 179.03 537.046C179.705 536.621 180.599 536.408 181.714 536.408C182.125 536.408 182.55 536.452 182.99 536.54C183.43 536.628 183.833 536.811 184.2 537.09C184.567 537.369 184.86 537.772 185.08 538.3C185.315 538.828 185.432 539.525 185.432 540.39V544.79C185.432 545.479 185.645 545.824 186.07 545.824C186.319 545.824 186.517 545.736 186.664 545.56C186.825 545.384 186.95 545.171 187.038 544.922L187.214 544.988C187.097 545.325 186.913 545.604 186.664 545.824C186.429 546.029 185.997 546.132 185.366 546.132C184.647 546.132 184.053 545.963 183.584 545.626C183.129 545.289 182.902 544.687 182.902 543.822V543.712H182.858C182.697 544.621 182.403 545.252 181.978 545.604C181.553 545.956 180.959 546.132 180.196 546.132ZM181.054 545.692C181.421 545.692 181.714 545.567 181.934 545.318C182.169 545.069 182.345 544.753 182.462 544.372C182.594 543.991 182.682 543.573 182.726 543.118C182.77 542.649 182.792 542.194 182.792 541.754V541.27H182.132C181.384 541.27 180.834 541.483 180.482 541.908C180.13 542.333 179.954 542.986 179.954 543.866C179.954 544.409 180.027 544.849 180.174 545.186C180.335 545.523 180.629 545.692 181.054 545.692ZM192.802 546.132C191.951 546.132 191.203 546 190.558 545.736C189.927 545.472 189.399 545.12 188.974 544.68C188.548 544.24 188.226 543.734 188.006 543.162C187.8 542.575 187.698 541.959 187.698 541.314C187.698 540.727 187.786 540.148 187.962 539.576C188.152 538.989 188.438 538.461 188.82 537.992C189.201 537.523 189.685 537.141 190.272 536.848C190.858 536.555 191.562 536.408 192.384 536.408C193.132 536.408 193.77 536.533 194.298 536.782C194.84 537.017 195.28 537.339 195.618 537.75C195.97 538.161 196.219 538.63 196.366 539.158C196.527 539.686 196.608 540.243 196.608 540.83H190.448V541.292C190.448 541.981 190.477 542.612 190.536 543.184C190.594 543.741 190.712 544.218 190.888 544.614C191.078 545.01 191.342 545.318 191.68 545.538C192.032 545.758 192.501 545.868 193.088 545.868C193.616 545.868 194.063 545.795 194.43 545.648C194.811 545.487 195.126 545.289 195.376 545.054C195.64 544.819 195.845 544.57 195.992 544.306C196.153 544.042 196.27 543.8 196.344 543.58L196.564 543.668C196.446 543.976 196.292 544.277 196.102 544.57C195.926 544.863 195.684 545.127 195.376 545.362C195.082 545.597 194.723 545.787 194.298 545.934C193.872 546.066 193.374 546.132 192.802 546.132ZM192.208 536.584C191.87 536.584 191.584 536.694 191.35 536.914C191.13 537.119 190.954 537.405 190.822 537.772C190.69 538.124 190.594 538.549 190.536 539.048C190.492 539.532 190.462 540.053 190.448 540.61H194.012C194.012 540.214 193.99 539.781 193.946 539.312C193.902 538.843 193.814 538.41 193.682 538.014C193.564 537.603 193.388 537.266 193.154 537.002C192.919 536.723 192.604 536.584 192.208 536.584ZM205.054 546H199.774V545.78H201.094V536.76H200.544C200.075 536.76 199.679 536.833 199.356 536.98C199.034 537.127 198.77 537.332 198.564 537.596C198.359 537.845 198.19 538.153 198.058 538.52C197.941 538.872 197.846 539.253 197.772 539.664H197.574V536.54H207.254V539.664H207.056C206.983 539.253 206.88 538.872 206.748 538.52C206.631 538.153 206.47 537.845 206.264 537.596C206.059 537.332 205.795 537.127 205.472 536.98C205.15 536.833 204.754 536.76 204.284 536.76H203.734V545.78H205.054V546ZM213.248 546.132C212.456 546.132 211.759 546.007 211.158 545.758C210.571 545.494 210.072 545.142 209.662 544.702C209.266 544.262 208.965 543.756 208.76 543.184C208.554 542.612 208.452 542.003 208.452 541.358C208.452 540.683 208.562 540.045 208.782 539.444C209.002 538.843 209.317 538.322 209.728 537.882C210.153 537.427 210.659 537.068 211.246 536.804C211.847 536.54 212.522 536.408 213.27 536.408C213.842 536.408 214.348 536.489 214.788 536.65C215.242 536.797 215.616 536.995 215.91 537.244C216.218 537.479 216.452 537.75 216.614 538.058C216.775 538.366 216.856 538.674 216.856 538.982C216.856 539.334 216.753 539.62 216.548 539.84C216.357 540.045 216.056 540.148 215.646 540.148C215.22 540.148 214.92 540.038 214.744 539.818C214.582 539.598 214.502 539.327 214.502 539.004C214.502 538.755 214.531 538.535 214.59 538.344C214.648 538.153 214.678 537.948 214.678 537.728C214.678 537.391 214.568 537.119 214.348 536.914C214.142 536.709 213.827 536.606 213.402 536.606C212.932 536.606 212.551 536.731 212.258 536.98C211.979 537.229 211.759 537.567 211.598 537.992C211.451 538.403 211.348 538.887 211.29 539.444C211.231 539.987 211.202 540.566 211.202 541.182C211.202 541.857 211.238 542.48 211.312 543.052C211.385 543.624 211.51 544.123 211.686 544.548C211.876 544.959 212.126 545.281 212.434 545.516C212.742 545.751 213.138 545.868 213.622 545.868C214.12 545.868 214.553 545.787 214.92 545.626C215.301 545.45 215.624 545.237 215.888 544.988C216.152 544.739 216.364 544.475 216.526 544.196C216.702 543.917 216.826 543.668 216.9 543.448L217.12 543.536C217.002 543.844 216.841 544.152 216.636 544.46C216.445 544.768 216.196 545.047 215.888 545.296C215.58 545.545 215.206 545.751 214.766 545.912C214.326 546.059 213.82 546.132 213.248 546.132ZM228.652 546H223.372V545.78H224.692V541.534H224.098C223.805 541.534 223.555 541.563 223.35 541.622C223.145 541.681 222.969 541.783 222.822 541.93C222.675 542.062 222.551 542.253 222.448 542.502C222.36 542.751 222.279 543.067 222.206 543.448L222.074 544.152C221.957 544.812 221.722 545.311 221.37 545.648C221.033 545.971 220.519 546.132 219.83 546.132C219.449 546.132 219.045 546.059 218.62 545.912C218.195 545.765 217.843 545.479 217.564 545.054L217.718 544.922C217.967 545.318 218.246 545.516 218.554 545.516C218.789 545.516 218.972 545.428 219.104 545.252C219.251 545.061 219.353 544.827 219.412 544.548L219.544 543.91C219.647 543.397 219.801 542.986 220.006 542.678C220.211 542.355 220.461 542.113 220.754 541.952C221.047 541.776 221.385 541.651 221.766 541.578C222.162 541.505 222.602 541.453 223.086 541.424C221.898 541.38 220.981 541.182 220.336 540.83C219.705 540.463 219.39 539.884 219.39 539.092C219.39 538.623 219.5 538.227 219.72 537.904C219.955 537.567 220.27 537.303 220.666 537.112C221.077 536.907 221.553 536.76 222.096 536.672C222.639 536.584 223.225 536.54 223.856 536.54H228.652V536.76H227.332V545.78H228.652V546ZM221.898 539.07C221.898 539.759 222.081 540.309 222.448 540.72C222.815 541.116 223.379 541.314 224.142 541.314H224.692V536.76H223.966C223.321 536.76 222.815 536.943 222.448 537.31C222.081 537.662 221.898 538.249 221.898 539.07ZM239.394 546.132C238.602 546.132 237.905 546.007 237.304 545.758C236.717 545.494 236.219 545.142 235.808 544.702C235.412 544.262 235.111 543.756 234.906 543.184C234.701 542.612 234.598 542.003 234.598 541.358C234.598 540.683 234.708 540.045 234.928 539.444C235.148 538.843 235.463 538.322 235.874 537.882C236.299 537.427 236.805 537.068 237.392 536.804C237.993 536.54 238.668 536.408 239.416 536.408C239.988 536.408 240.494 536.489 240.934 536.65C241.389 536.797 241.763 536.995 242.056 537.244C242.364 537.479 242.599 537.75 242.76 538.058C242.921 538.366 243.002 538.674 243.002 538.982C243.002 539.334 242.899 539.62 242.694 539.84C242.503 540.045 242.203 540.148 241.792 540.148C241.367 540.148 241.066 540.038 240.89 539.818C240.729 539.598 240.648 539.327 240.648 539.004C240.648 538.755 240.677 538.535 240.736 538.344C240.795 538.153 240.824 537.948 240.824 537.728C240.824 537.391 240.714 537.119 240.494 536.914C240.289 536.709 239.973 536.606 239.548 536.606C239.079 536.606 238.697 536.731 238.404 536.98C238.125 537.229 237.905 537.567 237.744 537.992C237.597 538.403 237.495 538.887 237.436 539.444C237.377 539.987 237.348 540.566 237.348 541.182C237.348 541.857 237.385 542.48 237.458 543.052C237.531 543.624 237.656 544.123 237.832 544.548C238.023 544.959 238.272 545.281 238.58 545.516C238.888 545.751 239.284 545.868 239.768 545.868C240.267 545.868 240.699 545.787 241.066 545.626C241.447 545.45 241.77 545.237 242.034 544.988C242.298 544.739 242.511 544.475 242.672 544.196C242.848 543.917 242.973 543.668 243.046 543.448L243.266 543.536C243.149 543.844 242.987 544.152 242.782 544.46C242.591 544.768 242.342 545.047 242.034 545.296C241.726 545.545 241.352 545.751 240.912 545.912C240.472 546.059 239.966 546.132 239.394 546.132ZM254.175 546.132C253.383 546.132 252.687 546.007 252.085 545.758C251.499 545.494 251 545.142 250.589 544.702C250.193 544.262 249.893 543.756 249.687 543.184C249.482 542.612 249.379 542.003 249.379 541.358C249.379 540.683 249.489 540.045 249.709 539.444C249.929 538.843 250.245 538.322 250.655 537.882C251.081 537.427 251.587 537.068 252.173 536.804C252.775 536.54 253.449 536.408 254.197 536.408C254.769 536.408 255.275 536.489 255.715 536.65C256.17 536.797 256.544 536.995 256.837 537.244C257.145 537.479 257.38 537.75 257.541 538.058C257.703 538.366 257.783 538.674 257.783 538.982C257.783 539.334 257.681 539.62 257.475 539.84C257.285 540.045 256.984 540.148 256.573 540.148C256.148 540.148 255.847 540.038 255.671 539.818C255.51 539.598 255.429 539.327 255.429 539.004C255.429 538.755 255.459 538.535 255.517 538.344C255.576 538.153 255.605 537.948 255.605 537.728C255.605 537.391 255.495 537.119 255.275 536.914C255.07 536.709 254.755 536.606 254.329 536.606C253.86 536.606 253.479 536.731 253.185 536.98C252.907 537.229 252.687 537.567 252.525 537.992C252.379 538.403 252.276 538.887 252.217 539.444C252.159 539.987 252.129 540.566 252.129 541.182C252.129 541.857 252.166 542.48 252.239 543.052C252.313 543.624 252.437 544.123 252.613 544.548C252.804 544.959 253.053 545.281 253.361 545.516C253.669 545.751 254.065 545.868 254.549 545.868C255.048 545.868 255.481 545.787 255.847 545.626C256.229 545.45 256.551 545.237 256.815 544.988C257.079 544.739 257.292 544.475 257.453 544.196C257.629 543.917 257.754 543.668 257.827 543.448L258.047 543.536C257.93 543.844 257.769 544.152 257.563 544.46C257.373 544.768 257.123 545.047 256.815 545.296C256.507 545.545 256.133 545.751 255.693 545.912C255.253 546.059 254.747 546.132 254.175 546.132ZM264.388 546.132C263.537 546.132 262.789 546 262.144 545.736C261.513 545.472 260.985 545.12 260.56 544.68C260.134 544.24 259.812 543.734 259.592 543.162C259.386 542.575 259.284 541.959 259.284 541.314C259.284 540.727 259.372 540.148 259.548 539.576C259.738 538.989 260.024 538.461 260.406 537.992C260.787 537.523 261.271 537.141 261.858 536.848C262.444 536.555 263.148 536.408 263.97 536.408C264.718 536.408 265.356 536.533 265.884 536.782C266.426 537.017 266.866 537.339 267.204 537.75C267.556 538.161 267.805 538.63 267.952 539.158C268.113 539.686 268.194 540.243 268.194 540.83H262.034V541.292C262.034 541.981 262.063 542.612 262.122 543.184C262.18 543.741 262.298 544.218 262.474 544.614C262.664 545.01 262.928 545.318 263.266 545.538C263.618 545.758 264.087 545.868 264.674 545.868C265.202 545.868 265.649 545.795 266.016 545.648C266.397 545.487 266.712 545.289 266.962 545.054C267.226 544.819 267.431 544.57 267.578 544.306C267.739 544.042 267.856 543.8 267.93 543.58L268.15 543.668C268.032 543.976 267.878 544.277 267.688 544.57C267.512 544.863 267.27 545.127 266.962 545.362C266.668 545.597 266.309 545.787 265.884 545.934C265.458 546.066 264.96 546.132 264.388 546.132ZM263.794 536.584C263.456 536.584 263.17 536.694 262.936 536.914C262.716 537.119 262.54 537.405 262.408 537.772C262.276 538.124 262.18 538.549 262.122 539.048C262.078 539.532 262.048 540.053 262.034 540.61H265.598C265.598 540.214 265.576 539.781 265.532 539.312C265.488 538.843 265.4 538.41 265.268 538.014C265.15 537.603 264.974 537.266 264.74 537.002C264.505 536.723 264.19 536.584 263.794 536.584ZM268.962 536.54H272.878V539.136H272.922C273.025 538.769 273.15 538.417 273.296 538.08C273.458 537.743 273.656 537.457 273.89 537.222C274.14 536.973 274.433 536.775 274.77 536.628C275.122 536.481 275.548 536.408 276.046 536.408C276.662 536.408 277.227 536.525 277.74 536.76C278.268 536.98 278.716 537.295 279.082 537.706C279.464 538.117 279.757 538.608 279.962 539.18C280.182 539.752 280.292 540.375 280.292 541.05C280.292 541.739 280.182 542.392 279.962 543.008C279.757 543.609 279.464 544.145 279.082 544.614C278.716 545.083 278.261 545.457 277.718 545.736C277.19 546 276.611 546.132 275.98 546.132C275.511 546.132 275.108 546.059 274.77 545.912C274.433 545.765 274.147 545.575 273.912 545.34C273.678 545.105 273.487 544.834 273.34 544.526C273.194 544.218 273.069 543.895 272.966 543.558H272.922V551.148H274.242V551.368H268.962V551.148H270.282V536.76H268.962V536.54ZM275.496 545.802C275.907 545.802 276.244 545.67 276.508 545.406C276.772 545.142 276.978 544.797 277.124 544.372C277.286 543.947 277.396 543.463 277.454 542.92C277.513 542.377 277.542 541.827 277.542 541.27C277.542 540.713 277.513 540.163 277.454 539.62C277.396 539.077 277.286 538.593 277.124 538.168C276.978 537.743 276.772 537.398 276.508 537.134C276.244 536.87 275.907 536.738 275.496 536.738C274.748 536.738 274.132 537.127 273.648 537.904C273.164 538.681 272.922 539.752 272.922 541.116V541.424C272.922 542.788 273.164 543.859 273.648 544.636C274.132 545.413 274.748 545.802 275.496 545.802ZM286.86 546.132C286.01 546.132 285.262 546 284.616 545.736C283.986 545.472 283.458 545.12 283.032 544.68C282.607 544.24 282.284 543.734 282.064 543.162C281.859 542.575 281.756 541.959 281.756 541.314C281.756 540.727 281.844 540.148 282.02 539.576C282.211 538.989 282.497 538.461 282.878 537.992C283.26 537.523 283.744 537.141 284.33 536.848C284.917 536.555 285.621 536.408 286.442 536.408C287.19 536.408 287.828 536.533 288.356 536.782C288.899 537.017 289.339 537.339 289.676 537.75C290.028 538.161 290.278 538.63 290.424 539.158C290.586 539.686 290.666 540.243 290.666 540.83H284.506V541.292C284.506 541.981 284.536 542.612 284.594 543.184C284.653 543.741 284.77 544.218 284.946 544.614C285.137 545.01 285.401 545.318 285.738 545.538C286.09 545.758 286.56 545.868 287.146 545.868C287.674 545.868 288.122 545.795 288.488 545.648C288.87 545.487 289.185 545.289 289.434 545.054C289.698 544.819 289.904 544.57 290.05 544.306C290.212 544.042 290.329 543.8 290.402 543.58L290.622 543.668C290.505 543.976 290.351 544.277 290.16 544.57C289.984 544.863 289.742 545.127 289.434 545.362C289.141 545.597 288.782 545.787 288.356 545.934C287.931 546.066 287.432 546.132 286.86 546.132ZM286.266 536.584C285.929 536.584 285.643 536.694 285.408 536.914C285.188 537.119 285.012 537.405 284.88 537.772C284.748 538.124 284.653 538.549 284.594 539.048C284.55 539.532 284.521 540.053 284.506 540.61H288.07C288.07 540.214 288.048 539.781 288.004 539.312C287.96 538.843 287.872 538.41 287.74 538.014C287.623 537.603 287.447 537.266 287.212 537.002C286.978 536.723 286.662 536.584 286.266 536.584ZM300.944 536.76H299.624V545.78H301.054V549.124H300.856C300.797 548.713 300.709 548.317 300.592 547.936C300.475 547.555 300.313 547.217 300.108 546.924C299.903 546.645 299.646 546.418 299.338 546.242C299.045 546.081 298.685 546 298.26 546H294.08C293.655 546 293.288 546.081 292.98 546.242C292.672 546.403 292.408 546.623 292.188 546.902C291.968 547.195 291.792 547.525 291.66 547.892C291.543 548.273 291.455 548.684 291.396 549.124H291.198L291.22 545.78H291.968C292.291 545.751 292.562 545.575 292.782 545.252C293.002 544.929 293.178 544.548 293.31 544.108C293.457 543.653 293.567 543.169 293.64 542.656C293.713 542.143 293.765 541.673 293.794 541.248C293.853 540.471 293.889 539.745 293.904 539.07C293.919 538.381 293.926 537.611 293.926 536.76H292.606V536.54H300.944V536.76ZM294.036 541.226C294.007 541.666 293.963 542.113 293.904 542.568C293.845 543.008 293.757 543.433 293.64 543.844C293.537 544.255 293.405 544.629 293.244 544.966C293.097 545.303 292.921 545.575 292.716 545.78H296.984V536.76H294.168C294.168 537.185 294.168 537.581 294.168 537.948C294.168 538.315 294.161 538.674 294.146 539.026C294.131 539.378 294.117 539.737 294.102 540.104C294.087 540.456 294.065 540.83 294.036 541.226ZM307.008 536.76H305.688V545.472L309.186 536.54H313.168V536.76H311.848V545.78H313.168V546H307.888V545.78H309.208V537.112L305.71 546H301.728V545.78H303.048V536.76H301.728V536.54H307.008V536.76ZM319.146 546H313.91V545.78H315.23V536.76H313.91V536.54H319.19V536.76H317.87V541.116H321.324V536.76H320.004V536.54H325.284V536.76H323.964V545.78H325.284V546H320.048V545.78H321.324V541.336H317.87V545.78H319.146V546ZM331.307 536.76H329.987V540.456C330.193 540.441 330.398 540.427 330.603 540.412C330.823 540.397 331.036 540.39 331.241 540.39C331.813 540.39 332.334 540.441 332.803 540.544C333.287 540.647 333.705 540.808 334.057 541.028C334.409 541.233 334.681 541.505 334.871 541.842C335.062 542.179 335.157 542.583 335.157 543.052C335.157 543.536 335.047 543.961 334.827 544.328C334.607 544.695 334.292 545.003 333.881 545.252C333.485 545.501 333.009 545.692 332.451 545.824C331.894 545.941 331.278 546 330.603 546H326.027V545.78H327.347V536.76H326.027V536.54H331.307V536.76ZM340.437 546H335.157V545.78H336.477V536.76H335.157V536.54H340.437V536.76H339.117V545.78H340.437V546ZM330.713 540.632C330.596 540.632 330.471 540.639 330.339 540.654C330.222 540.654 330.105 540.661 329.987 540.676V545.78H330.647C331.043 545.78 331.366 545.707 331.615 545.56C331.879 545.399 332.085 545.193 332.231 544.944C332.378 544.695 332.481 544.409 332.539 544.086C332.598 543.763 332.627 543.433 332.627 543.096C332.627 542.348 332.466 541.754 332.143 541.314C331.835 540.859 331.359 540.632 330.713 540.632ZM351.308 546H346.072V545.78H347.392V536.76H346.072V536.54H351.352V536.76H350.032V541.116H353.486V536.76H352.166V536.54H357.446V536.76H356.126V545.78H357.446V546H352.21V545.78H353.486V541.336H350.032V545.78H351.308V546ZM361.137 546.132C360.213 546.132 359.531 545.927 359.091 545.516C358.651 545.105 358.431 544.533 358.431 543.8C358.431 542.891 358.783 542.209 359.487 541.754C360.191 541.285 361.299 541.05 362.809 541.05H363.733V539.642C363.733 539.07 363.711 538.593 363.667 538.212C363.623 537.816 363.543 537.508 363.425 537.288C363.323 537.053 363.169 536.885 362.963 536.782C362.758 536.679 362.501 536.628 362.193 536.628C361.812 536.628 361.497 536.709 361.247 536.87C360.998 537.017 360.873 537.288 360.873 537.684C360.873 537.933 360.91 538.139 360.983 538.3C361.071 538.447 361.115 538.637 361.115 538.872C361.115 539.165 361.02 539.415 360.829 539.62C360.653 539.825 360.382 539.928 360.015 539.928C359.311 539.928 358.959 539.547 358.959 538.784C358.959 538.036 359.297 537.457 359.971 537.046C360.646 536.621 361.541 536.408 362.655 536.408C363.066 536.408 363.491 536.452 363.931 536.54C364.371 536.628 364.775 536.811 365.141 537.09C365.508 537.369 365.801 537.772 366.021 538.3C366.256 538.828 366.373 539.525 366.373 540.39V544.79C366.373 545.479 366.586 545.824 367.011 545.824C367.261 545.824 367.459 545.736 367.605 545.56C367.767 545.384 367.891 545.171 367.979 544.922L368.155 544.988C368.038 545.325 367.855 545.604 367.605 545.824C367.371 546.029 366.938 546.132 366.307 546.132C365.589 546.132 364.995 545.963 364.525 545.626C364.071 545.289 363.843 544.687 363.843 543.822V543.712H363.799C363.638 544.621 363.345 545.252 362.919 545.604C362.494 545.956 361.9 546.132 361.137 546.132ZM361.995 545.692C362.362 545.692 362.655 545.567 362.875 545.318C363.11 545.069 363.286 544.753 363.403 544.372C363.535 543.991 363.623 543.573 363.667 543.118C363.711 542.649 363.733 542.194 363.733 541.754V541.27H363.073C362.325 541.27 361.775 541.483 361.423 541.908C361.071 542.333 360.895 542.986 360.895 543.866C360.895 544.409 360.969 544.849 361.115 545.186C361.277 545.523 361.57 545.692 361.995 545.692ZM373.039 536.54C374.506 536.54 375.591 536.716 376.295 537.068C376.999 537.405 377.351 537.97 377.351 538.762C377.351 539.407 377.065 539.928 376.493 540.324C375.921 540.705 375.158 540.933 374.205 541.006C374.733 541.035 375.21 541.101 375.635 541.204C376.075 541.307 376.449 541.453 376.757 541.644C377.08 541.835 377.329 542.069 377.505 542.348C377.681 542.612 377.769 542.935 377.769 543.316C377.769 544.152 377.395 544.812 376.647 545.296C375.914 545.765 374.718 546 373.061 546H368.287V545.78H369.607V536.76H368.287V536.54H373.039ZM372.247 541.16V545.78H373.061C373.868 545.78 374.432 545.56 374.755 545.12C375.092 544.665 375.261 544.093 375.261 543.404C375.261 542.759 375.078 542.223 374.711 541.798C374.359 541.373 373.758 541.16 372.907 541.16H372.247ZM372.247 536.76V540.94H372.951C373.626 540.94 374.11 540.742 374.403 540.346C374.711 539.935 374.865 539.422 374.865 538.806C374.865 537.442 374.234 536.76 372.973 536.76H372.247ZM384.27 546.132C383.42 546.132 382.672 546 382.026 545.736C381.396 545.472 380.868 545.12 380.442 544.68C380.017 544.24 379.694 543.734 379.474 543.162C379.269 542.575 379.166 541.959 379.166 541.314C379.166 540.727 379.254 540.148 379.43 539.576C379.621 538.989 379.907 538.461 380.288 537.992C380.67 537.523 381.154 537.141 381.74 536.848C382.327 536.555 383.031 536.408 383.852 536.408C384.6 536.408 385.238 536.533 385.766 536.782C386.309 537.017 386.749 537.339 387.086 537.75C387.438 538.161 387.688 538.63 387.834 539.158C387.996 539.686 388.076 540.243 388.076 540.83H381.916V541.292C381.916 541.981 381.946 542.612 382.004 543.184C382.063 543.741 382.18 544.218 382.356 544.614C382.547 545.01 382.811 545.318 383.148 545.538C383.5 545.758 383.97 545.868 384.556 545.868C385.084 545.868 385.532 545.795 385.898 545.648C386.28 545.487 386.595 545.289 386.844 545.054C387.108 544.819 387.314 544.57 387.46 544.306C387.622 544.042 387.739 543.8 387.812 543.58L388.032 543.668C387.915 543.976 387.761 544.277 387.57 544.57C387.394 544.863 387.152 545.127 386.844 545.362C386.551 545.597 386.192 545.787 385.766 545.934C385.341 546.066 384.842 546.132 384.27 546.132ZM383.676 536.584C383.339 536.584 383.053 536.694 382.818 536.914C382.598 537.119 382.422 537.405 382.29 537.772C382.158 538.124 382.063 538.549 382.004 539.048C381.96 539.532 381.931 540.053 381.916 540.61H385.48C385.48 540.214 385.458 539.781 385.414 539.312C385.37 538.843 385.282 538.41 385.15 538.014C385.033 537.603 384.857 537.266 384.622 537.002C384.388 536.723 384.072 536.584 383.676 536.584ZM388.845 536.54H392.761V539.136H392.805C392.908 538.769 393.032 538.417 393.179 538.08C393.34 537.743 393.538 537.457 393.773 537.222C394.022 536.973 394.316 536.775 394.653 536.628C395.005 536.481 395.43 536.408 395.929 536.408C396.545 536.408 397.11 536.525 397.623 536.76C398.151 536.98 398.598 537.295 398.965 537.706C399.346 538.117 399.64 538.608 399.845 539.18C400.065 539.752 400.175 540.375 400.175 541.05C400.175 541.739 400.065 542.392 399.845 543.008C399.64 543.609 399.346 544.145 398.965 544.614C398.598 545.083 398.144 545.457 397.601 545.736C397.073 546 396.494 546.132 395.863 546.132C395.394 546.132 394.99 546.059 394.653 545.912C394.316 545.765 394.03 545.575 393.795 545.34C393.56 545.105 393.37 544.834 393.223 544.526C393.076 544.218 392.952 543.895 392.849 543.558H392.805V551.148H394.125V551.368H388.845V551.148H390.165V536.76H388.845V536.54ZM395.379 545.802C395.79 545.802 396.127 545.67 396.391 545.406C396.655 545.142 396.86 544.797 397.007 544.372C397.168 543.947 397.278 543.463 397.337 542.92C397.396 542.377 397.425 541.827 397.425 541.27C397.425 540.713 397.396 540.163 397.337 539.62C397.278 539.077 397.168 538.593 397.007 538.168C396.86 537.743 396.655 537.398 396.391 537.134C396.127 536.87 395.79 536.738 395.379 536.738C394.631 536.738 394.015 537.127 393.531 537.904C393.047 538.681 392.805 539.752 392.805 541.116V541.424C392.805 542.788 393.047 543.859 393.531 544.636C394.015 545.413 394.631 545.802 395.379 545.802ZM406.567 545.78H407.887L405.467 541.886L402.431 545.78H403.861V546H400.781V545.78H402.145L405.335 541.666L402.321 536.76H401.089V536.54H406.633V536.76H405.313L407.205 539.862L409.515 536.76H408.085V536.54H411.165V536.76H409.801L407.359 540.082L410.879 545.78H412.111V546H406.567V545.78Z" fill="#444444"/>
<path d="M333.706 223H264.919V220.628H283.42V56.9626H220.563V220.628H239.064V223H170.278V220.628H188.779V56.9626H170.278V54.5906H333.706V56.9626H315.204V220.628H333.706V223Z" fill="black"/>
<path d="M263.826 220.628H282.328V137.372H221.606V220.628H240.107V223H171.32V220.628H189.821V56.9626H171.32V54.5906H240.107V56.9626H221.606V135H282.328V56.9626H263.826V54.5906H332.613V56.9626H314.112V220.628H332.613V223H263.826V220.628Z" fill="#D33A27"/>
</svg>
