<svg width="504" height="586" viewBox="0 0 504 586" fill="none" xmlns="http://www.w3.org/2000/svg">
<path d="M377 224.148V324H127V224L377 224.148Z" stroke="#1C1C1C" stroke-width="3" stroke-miterlimit="10"/>
<path d="M439.5 324H64.5V444H439.5V324Z" stroke="#1C1C1C" stroke-width="3" stroke-miterlimit="10"/>
<path d="M502 444H2V584H502V444Z" stroke="#1C1C1C" stroke-width="3" stroke-miterlimit="10"/>
<path d="M347.628 137.609C347.628 148.362 345.414 157.613 340.986 165.361C336.716 173.11 330.866 179.514 323.433 184.574C316.001 189.634 307.383 193.509 297.579 196.197C287.775 198.727 277.417 200.229 266.506 200.704V223H285.008V225.372H217.644V223H236.145V200.704C225.234 200.229 214.877 198.648 205.073 195.96C195.268 193.271 186.65 189.397 179.218 184.337C171.786 179.277 165.856 172.873 161.428 165.124C157.159 157.376 155.024 148.204 155.024 137.609C155.024 126.54 157.159 117.131 161.428 109.383C165.856 101.476 171.786 95.0721 179.218 90.1701C186.65 85.1099 195.268 81.3938 205.073 79.0219C214.877 76.6499 225.234 75.2267 236.145 74.7523V54.5906H217.644V52.2187H285.008V54.5906H266.506V74.7523C277.417 75.0686 287.775 76.4127 297.579 78.7847C307.541 81.1566 316.159 84.8727 323.433 89.9329C330.866 94.8349 336.716 101.239 340.986 109.146C345.414 116.894 347.628 126.382 347.628 137.609ZM316.318 137.609C316.318 128.754 315.132 120.768 312.76 113.653C310.388 106.378 307.067 100.132 302.797 94.914C298.528 89.6957 293.31 85.5843 287.142 82.5798C280.975 79.4172 274.097 77.4406 266.506 76.6499V198.569C275.045 197.936 282.399 195.96 288.566 192.639C294.891 189.318 300.109 184.97 304.221 179.593C308.332 174.217 311.336 167.97 313.234 160.855C315.29 153.739 316.318 145.99 316.318 137.609ZM186.334 137.609C186.334 145.99 187.441 153.739 189.655 160.855C191.869 167.812 195.11 173.979 199.38 179.356C203.649 184.574 208.868 188.844 215.035 192.164C221.202 195.485 228.239 197.541 236.145 198.332V76.8871C228.555 77.6778 221.676 79.6544 215.509 82.817C209.5 85.8215 204.282 89.9329 199.854 95.1512C195.585 100.37 192.264 106.616 189.892 113.89C187.52 121.006 186.334 128.912 186.334 137.609Z" fill="black"/>
<path d="M249.889 202C234.608 202 220.876 200.319 208.692 196.958C196.509 193.477 186.184 188.796 177.717 182.914C169.251 177.032 162.746 170.19 158.203 162.388C153.66 154.465 151.389 146.003 151.389 137C151.389 127.997 153.66 119.595 158.203 111.792C162.746 103.87 169.251 96.9677 177.717 91.0859C186.184 85.2041 196.509 80.5826 208.692 77.2216C220.876 73.7405 234.608 72 249.889 72C265.17 72 278.902 73.7405 291.085 77.2216C303.269 80.5826 313.594 85.2041 322.06 91.0859C330.527 96.9677 337.031 103.87 341.574 111.792C346.117 119.595 348.389 127.997 348.389 137C348.389 146.003 346.117 154.465 341.574 162.388C337.031 170.19 330.527 177.032 322.06 182.914C313.594 188.796 303.269 193.477 291.085 196.958C278.902 200.319 265.17 202 249.889 202ZM249.889 200.56C261.866 200.56 271.365 198.639 278.386 194.798C285.406 190.837 290.672 185.795 294.183 179.673C297.9 173.431 300.274 166.589 301.307 159.147C302.339 151.584 302.856 144.202 302.856 137C302.856 129.798 302.339 122.476 301.307 115.033C300.274 107.471 297.9 100.629 294.183 94.5069C290.672 88.265 285.406 83.2235 278.386 79.3823C271.365 75.4211 261.866 73.4404 249.889 73.4404C237.912 73.4404 228.413 75.4211 221.392 79.3823C214.371 83.2235 209.002 88.265 205.285 94.5069C201.774 100.629 199.503 107.471 198.47 115.033C197.438 122.476 196.922 129.798 196.922 137C196.922 144.202 197.438 151.584 198.47 159.147C199.503 166.589 201.774 173.431 205.285 179.673C209.002 185.795 214.371 190.837 221.392 194.798C228.413 198.639 237.912 200.56 249.889 200.56Z" fill="#D33A27"/>
</svg>
