<svg width="50" height="44" viewBox="0 0 50 44" fill="none" xmlns="http://www.w3.org/2000/svg">
<path d="M49.5412 3.263C49.2136 1.30828 47.3863 0.338815 45.3709 1.00252C31.1714 5.68363 16.9691 10.3595 2.76402 15.0301C1.38807 15.4815 0.364006 16.1694 0 17.6303V18.601C0.309405 19.915 1.1903 20.6406 2.40365 21.149C5.67 22.5274 8.90479 23.981 12.1566 25.3958C12.4478 25.5171 12.6116 25.6797 12.6795 26.0024C13.4553 29.6603 14.2403 33.3153 15.0347 36.9675C15.3161 38.2755 15.5843 39.5871 15.9083 40.8842C16.1194 41.7336 16.7576 42.1873 17.5002 42.0296C17.8884 41.9284 18.2512 41.7474 18.5655 41.4982C21.1459 39.5883 23.7166 37.6644 26.2776 35.7262C26.5748 35.5018 26.7411 35.5321 27.0056 35.7542C29.9322 38.1663 32.8665 40.5691 35.8085 42.9627C37.8105 44.5886 40.2869 43.7222 40.8754 41.2155C43.7365 29.0407 46.596 16.8667 49.4538 4.69354C49.575 4.22679 49.6046 3.74101 49.5412 3.263ZM19.2074 28.7434C18.6759 30.4676 18.2051 32.2099 17.7101 33.9438C17.6628 34.1076 17.6021 34.2666 17.5475 34.4292L17.4553 34.4049C16.8037 31.3837 16.1534 28.3624 15.4945 25.3048L29.0003 17.805L29.0683 17.8912C28.947 18.0259 28.8183 18.1617 28.6909 18.2952C25.768 21.3504 22.8377 24.3984 19.9354 27.4718C19.6035 27.8369 19.3562 28.2707 19.211 28.7422L19.2074 28.7434ZM20.0094 36.7879L19.9487 36.7042C20.4608 34.9145 20.974 33.1248 21.5042 31.2732L24.3156 33.5701L20.0094 36.7879ZM37.9379 40.9522L22.8717 28.6196C22.993 28.4813 23.1059 28.3503 23.2236 28.2277C28.0543 23.1761 32.8843 18.1241 37.7134 13.0717C37.9073 12.8781 38.0843 12.6682 38.2424 12.4444C38.4062 12.2023 38.4909 11.9153 38.4848 11.6231C38.4787 11.3308 38.3822 11.0476 38.2085 10.8125C38.0297 10.5705 37.7792 10.3909 37.4926 10.2992C37.206 10.2075 36.8978 10.2084 36.6117 10.3017C36.3844 10.3827 36.165 10.4847 35.9565 10.6062C28.7225 14.6224 21.4933 18.6422 14.269 22.6657C14.1177 22.7639 13.9429 22.8199 13.7626 22.828C13.5824 22.8361 13.4033 22.796 13.2437 22.7118C9.96769 21.2619 6.69164 19.835 3.41559 18.4008C3.25664 18.3316 3.10254 18.2528 2.94602 18.1787C2.94602 18.1375 2.95573 18.0962 2.96179 18.0574L46.7189 3.62943C43.7911 16.1039 40.8791 28.4801 37.9415 40.9522H37.9379Z" fill="#444444"/>
</svg>
