<svg width="386" height="574" viewBox="0 0 386 574" fill="none" xmlns="http://www.w3.org/2000/svg">
<path d="M16.95 275.567V252.117H55.1V50.5169H16.95V27.0669H111.1C142.833 27.0669 166.283 32.0836 181.45 42.1169C196.617 51.9169 204.2 66.8502 204.2 86.9169C204.2 116.55 188.1 135.217 155.9 142.917C176.433 146.184 191.6 152.95 201.4 163.217C211.2 173.484 216.1 187.834 216.1 206.267C216.1 228.667 208.283 245.817 192.65 257.717C177.25 269.617 152.167 275.567 117.4 275.567H16.95ZM113.55 156.917H80.3V252.117H120.55C145.517 252.117 163.25 248.617 173.75 241.617C184.483 234.384 189.85 222.484 189.85 205.917C189.85 188.184 183.9 175.584 172 168.117C160.1 160.65 140.617 156.917 113.55 156.917ZM112.5 50.5169H80.3V133.467H105.85C131.517 133.467 149.95 130.084 161.15 123.317C172.35 116.317 177.95 105 177.95 89.3669C177.95 75.3669 173.05 65.4502 163.25 59.6169C153.683 53.5502 136.767 50.5169 112.5 50.5169Z" fill="#D33A27"/>
<path d="M240.5 125.067H306.3C344.8 125.067 364.05 136.617 364.05 159.717C364.05 169.05 361.133 177.217 355.3 184.217C349.467 191.217 340.6 195.417 328.7 196.817C357.167 198.917 371.4 211.517 371.4 234.617C371.4 261.917 351.567 275.567 311.9 275.567H240.5V254.917H261.5V145.717H240.5V125.067ZM307.7 205.917H284.25V254.917H305.6C322.167 254.917 333.367 253.05 339.2 249.317C345.033 245.584 347.95 239.634 347.95 231.467C347.95 221.667 344.8 215.017 338.5 211.517C332.2 207.784 321.933 205.917 307.7 205.917ZM302.1 145.717H284.25V188.417H308.05C319.483 188.417 327.767 186.9 332.9 183.867C338.033 180.834 340.6 175 340.6 166.367C340.6 158.667 337.917 153.3 332.55 150.267C327.183 147.234 317.033 145.717 302.1 145.717Z" fill="#D33A27"/>
<path fill-rule="evenodd" clip-rule="evenodd" d="M38 75.1743C58.4345 75.1743 75 58.6089 75 38.1743C75 17.7398 58.4345 1.17432 38 1.17432C17.5655 1.17432 1 17.7398 1 38.1743C1 58.6089 17.5655 75.1743 38 75.1743ZM38 76.1743C58.9868 76.1743 76 59.1611 76 38.1743C76 17.1875 58.9868 0.174316 38 0.174316C17.0132 0.174316 0 17.1875 0 38.1743C0 59.1611 17.0132 76.1743 38 76.1743Z" fill="#1C1C1C"/>
<path d="M281.396 543.394L280.599 543.924L270.57 550.556L268.047 552.213L267.25 552.744C263.066 555.463 258.151 558.58 252.971 561.298C251.111 562.293 249.252 563.221 247.326 564.017L245.001 565.078L244.005 565.542C242.278 566.272 240.552 566.935 238.891 567.465C237.231 567.996 236.102 568.394 234.774 568.725H233.977L231.852 569.19H230.656C229.082 569.547 227.484 569.791 225.874 569.919C221.059 570.328 216.21 569.925 211.529 568.725C210.638 568.528 209.771 568.239 208.939 567.863H207.81L205.685 567.068L201.036 565.012L196.719 563.089H195.856L194.727 562.625L192.535 562.028C191.381 561.739 190.203 561.562 189.015 561.497C186.278 561.361 183.543 561.79 180.979 562.757C178.534 563.641 176.139 564.66 173.807 565.808C172.213 566.603 170.685 567.333 169.158 567.93L167.232 568.659L166.103 568.991H165.571L163.313 569.455H162.849C160.643 569.727 158.413 569.727 156.207 569.455H155.211H154.813H152.887C149.357 568.713 145.875 567.76 142.46 566.603C139.471 565.609 136.416 564.548 133.428 563.42L130.572 562.426L127.251 561.298L121.54 559.508L117.223 558.447H115.961L113.902 558.049V560.105V561.497H115.23C116.227 561.497 117.289 561.962 118.285 562.293C119.282 562.625 120.477 562.824 121.606 563.221H121.938L124.86 564.15H125.657L127.052 564.614H127.583H127.982L130.173 565.41L131.9 566.007L141.065 569.256C144.794 570.53 148.612 571.528 152.488 572.24H153.883H154.281C157.362 572.855 160.511 573.056 163.645 572.837H164.442L165.837 572.505C166.54 572.368 167.229 572.168 167.896 571.908C170.171 571.03 172.389 570.011 174.537 568.858C176.698 567.788 178.915 566.836 181.179 566.007C183.29 565.176 185.552 564.792 187.82 564.879C189.06 564.954 190.286 565.176 191.473 565.542H192.07H192.469H193.266L194.395 565.94L198.778 567.863C200.77 568.792 202.763 569.654 204.822 570.45C205.17 570.651 205.553 570.786 205.951 570.847L207.81 571.577H208.142L209.869 572.041C213.642 573.023 217.526 573.514 221.425 573.5H225.343C226.86 573.362 228.367 573.141 229.859 572.837C230.535 572.768 231.202 572.635 231.852 572.439L235.106 571.71L238.427 570.715C240.818 569.955 243.168 569.069 245.466 568.062L246.197 567.664C248.656 566.663 251.052 565.511 253.369 564.216C257.952 561.763 262.335 559.11 266.121 556.656L282.79 545.847V541.935L281.396 543.394ZM94.8417 399.163V400.821H293.483V399.163H94.8417Z" fill="#471B1B"/>
<path d="M104.737 381.192H103.807V380.264H104.671V379.535V380.198L105.268 379.734L106.597 381.192H104.737Z" fill="#471B1B"/>
<path d="M88.6652 308.315C88.8007 308.471 88.8754 308.671 88.8754 308.878C88.8754 309.085 88.8007 309.285 88.6652 309.442C88.4714 309.508 88.2613 309.508 88.0675 309.442C88.0301 309.2 88.0301 308.954 88.0675 308.712C88.0806 308.212 88.2425 307.728 88.5324 307.32C88.5978 307.648 88.6421 307.98 88.6652 308.315Z" fill="#471B1B"/>
<path d="M88.0009 310.304H87.4697H87.0713V309.906C87.0142 309.577 87.0142 309.24 87.0713 308.911C87.1107 308.242 87.3412 307.597 87.7354 307.054L88.3331 306.126L89.0636 306.988C89.2429 307.238 89.3985 307.505 89.5285 307.784C89.726 308.156 89.7741 308.59 89.6631 308.996C89.5521 309.402 89.2903 309.752 88.9308 309.972L88.0009 310.304Z" fill="#471B1B"/>
<path d="M292.553 308.712C292.562 308.822 292.549 308.933 292.513 309.037C292.477 309.142 292.42 309.237 292.345 309.318C292.27 309.399 292.179 309.464 292.077 309.508C291.976 309.552 291.867 309.575 291.756 309.574H90.1262C89.8972 309.574 89.6777 309.484 89.5158 309.322C89.3538 309.16 89.2628 308.941 89.2628 308.712C89.2624 308.602 89.2852 308.493 89.3293 308.392C89.3734 308.291 89.438 308.2 89.5192 308.125C89.6004 308.05 89.6964 307.993 89.8009 307.957C89.9054 307.921 90.0161 307.907 90.1262 307.917H291.756C291.968 307.917 292.17 308 292.32 308.15C292.469 308.299 292.553 308.501 292.553 308.712Z" fill="#471B1B"/>
<path d="M291.756 310.37H90.1262C89.6795 310.37 89.2502 310.198 88.9282 309.889C88.6062 309.58 88.4168 309.158 88.3996 308.712C88.4168 308.267 88.6062 307.845 88.9282 307.536C89.2502 307.227 89.6795 307.054 90.1262 307.054H291.756C292.197 307.054 292.619 307.229 292.93 307.54C293.242 307.851 293.417 308.273 293.417 308.712C293.417 309.152 293.242 309.574 292.93 309.885C292.619 310.195 292.197 310.37 291.756 310.37Z" fill="#471B1B"/>
<path d="M382.343 310.967C380.104 303.596 375.71 297.061 369.725 292.2C367.645 290.568 365.422 289.125 363.084 287.89C355.171 283.744 346.274 281.836 337.355 282.374C328.435 282.912 319.833 285.874 312.477 290.94C310.095 292.538 307.872 294.359 305.836 296.378L304.175 298.036C301.319 301.128 298.885 304.584 296.936 308.314C296.839 308.509 296.819 308.734 296.88 308.943C296.942 309.152 297.081 309.331 297.268 309.442C297.367 309.497 297.477 309.531 297.59 309.54C297.703 309.55 297.816 309.535 297.923 309.498C298.03 309.46 298.127 309.4 298.209 309.322C298.291 309.244 298.355 309.149 298.398 309.044C299.473 307.014 300.694 305.063 302.05 303.208C303.366 301.366 304.832 299.636 306.433 298.036C308.145 296.305 309.988 294.709 311.946 293.261C319.085 287.954 327.585 284.775 336.459 284.095C345.334 283.414 354.22 285.259 362.088 289.415C364.767 290.727 367.266 292.376 369.526 294.322C374.755 298.836 378.581 304.749 380.55 311.365C382.038 316.054 382.57 320.993 382.114 325.891C381.657 330.788 380.223 335.545 377.894 339.879C376.092 343.355 373.613 346.435 370.602 348.94C367.591 351.446 364.109 353.325 360.361 354.468C356.613 355.644 352.668 356.062 348.757 355.697C344.846 355.333 341.046 354.194 337.581 352.346C334.819 350.907 332.369 348.937 330.373 346.549C328.376 344.161 326.871 341.403 325.946 338.433C325.02 335.462 324.691 332.339 324.978 329.241C325.265 326.144 326.163 323.133 327.619 320.383C328.767 318.194 330.336 316.252 332.236 314.67C334.137 313.087 336.332 311.895 338.696 311.162C341.059 310.429 343.544 310.169 346.008 310.397C348.473 310.625 350.867 311.337 353.055 312.492C356.504 314.325 359.091 317.44 360.259 321.162C361.427 324.884 361.082 328.916 359.298 332.386C357.831 335.124 355.342 337.175 352.371 338.094C349.4 339.012 346.186 338.725 343.426 337.293C342.345 336.737 341.388 335.969 340.612 335.034C339.836 334.1 339.257 333.019 338.91 331.855C338.195 329.517 338.434 326.991 339.574 324.826C340.048 323.985 340.687 323.247 341.452 322.656C342.217 322.066 343.092 321.634 344.027 321.387C344.962 321.139 345.937 321.082 346.894 321.217C347.852 321.352 348.772 321.677 349.602 322.174C349.759 322.309 349.959 322.384 350.166 322.384C350.374 322.384 350.574 322.309 350.731 322.174C350.823 321.971 350.834 321.74 350.759 321.53C350.685 321.32 350.532 321.146 350.332 321.046C349.306 320.495 348.179 320.153 347.019 320.042C345.859 319.93 344.688 320.051 343.574 320.397C342.461 320.742 341.428 321.306 340.536 322.056C339.644 322.805 338.91 323.724 338.378 324.76C337.692 326.017 337.268 327.399 337.131 328.823C336.994 330.248 337.147 331.685 337.581 333.049C337.983 334.451 338.659 335.759 339.571 336.897C340.484 338.035 341.613 338.981 342.894 339.68C344.447 340.521 346.152 341.044 347.91 341.219C349.668 341.393 351.443 341.216 353.131 340.697C354.819 340.179 356.387 339.329 357.743 338.198C359.098 337.067 360.214 335.677 361.025 334.11C363.087 330.262 363.545 325.758 362.302 321.574C361.059 317.39 358.214 313.865 354.384 311.763C349.571 309.254 343.96 308.746 338.773 310.348C333.586 311.95 329.243 315.533 326.689 320.317C323.728 326.175 323.145 332.948 325.063 339.224C326.981 345.5 331.251 350.795 336.984 354.004C341.511 356.38 346.546 357.631 351.661 357.651C354.839 357.659 358 357.166 361.025 356.192C364.986 354.976 368.668 352.991 371.859 350.351C375.05 347.711 377.688 344.468 379.621 340.808C382.026 336.26 383.506 331.281 383.973 326.159C384.44 321.037 383.886 315.874 382.343 310.967Z" fill="#471B1B"/>
<path d="M351.661 358.447C346.41 358.437 341.238 357.163 336.585 354.734C330.49 351.428 325.932 345.873 323.884 339.256C321.837 332.639 322.462 325.485 325.627 319.322C328.292 314.351 332.814 310.63 338.21 308.966C343.606 307.303 349.442 307.831 354.45 310.436C356.488 311.51 358.293 312.976 359.761 314.749C361.23 316.522 362.332 318.568 363.005 320.769C363.678 322.969 363.908 325.281 363.682 327.571C363.456 329.86 362.779 332.083 361.689 334.11C359.912 337.437 356.889 339.925 353.279 341.031C349.67 342.137 345.769 341.771 342.429 340.012C339.737 338.624 337.689 336.247 336.718 333.381C336.258 331.906 336.097 330.355 336.246 328.818C336.394 327.281 336.848 325.788 337.581 324.429C338.162 323.289 338.967 322.279 339.949 321.459C340.93 320.638 342.067 320.024 343.293 319.654C344.505 319.261 345.786 319.122 347.055 319.248C348.324 319.374 349.553 319.76 350.665 320.383C351.052 320.595 351.343 320.946 351.479 321.366C351.615 321.785 351.585 322.24 351.395 322.638C351.172 323.013 350.816 323.29 350.397 323.413C349.978 323.536 349.528 323.496 349.137 323.301C347.638 322.539 345.906 322.373 344.289 322.837C342.675 323.355 341.321 324.47 340.503 325.954C339.946 326.956 339.605 328.064 339.502 329.206C339.399 330.348 339.537 331.499 339.906 332.585C340.214 333.652 340.738 334.644 341.446 335.499C342.155 336.355 343.032 337.056 344.023 337.558C346.588 338.893 349.577 339.161 352.339 338.304C355.101 337.446 357.412 335.534 358.767 332.983C359.631 331.357 360.164 329.577 360.335 327.744C360.506 325.912 360.312 324.064 359.763 322.307C358.726 318.78 356.34 315.802 353.122 314.017C351.038 312.916 348.755 312.238 346.407 312.022C344.059 311.805 341.692 312.056 339.441 312.757C337.175 313.456 335.07 314.595 333.246 316.108C331.423 317.622 329.917 319.48 328.815 321.577C327.394 324.23 326.521 327.14 326.247 330.136C325.973 333.132 326.304 336.152 327.221 339.017C328.107 341.866 329.558 344.507 331.485 346.785C333.413 349.063 335.78 350.932 338.445 352.28C341.806 354.08 345.495 355.19 349.294 355.543C353.092 355.896 356.923 355.485 360.56 354.336C364.21 353.228 367.601 351.402 370.533 348.965C373.464 346.528 375.877 343.529 377.628 340.145C379.895 335.908 381.292 331.262 381.737 326.48C382.182 321.697 381.665 316.874 380.218 312.293C378.392 305.637 374.679 299.65 369.526 295.052C367.361 293.109 364.949 291.459 362.353 290.145C354.614 286.085 345.886 284.286 337.169 284.954C328.453 285.623 320.102 288.732 313.075 293.925C311.153 295.341 309.353 296.916 307.695 298.633C306.117 300.188 304.673 301.874 303.379 303.673C302.057 305.515 300.859 307.442 299.792 309.442C299.708 309.636 299.581 309.809 299.419 309.947C299.258 310.085 299.068 310.184 298.862 310.238C298.654 310.333 298.428 310.382 298.198 310.382C297.969 310.382 297.743 310.333 297.534 310.238C297.158 310.015 296.881 309.659 296.758 309.241C296.634 308.822 296.675 308.373 296.87 307.983C298.829 304.186 301.311 300.682 304.242 297.572C304.749 296.933 305.328 296.354 305.969 295.848C307.989 293.792 310.214 291.947 312.61 290.344C320.085 285.178 328.835 282.156 337.909 281.606C346.983 281.057 356.034 283.001 364.08 287.227C366.421 288.483 368.644 289.948 370.721 291.604C376.818 296.58 381.302 303.249 383.605 310.768C385.182 315.784 385.747 321.063 385.268 326.299C384.79 331.535 383.276 336.624 380.816 341.272C378.833 345.024 376.129 348.349 372.858 351.057C369.588 353.765 365.815 355.803 361.755 357.055C358.49 358.07 355.079 358.541 351.661 358.447ZM332.202 349.627C333.761 351.064 335.503 352.291 337.382 353.275C344.585 357.048 352.993 357.811 360.759 355.397C361.691 355.135 362.601 354.802 363.482 354.402C362.624 354.802 361.736 355.135 360.826 355.397C356.969 356.61 352.909 357.041 348.883 356.665C344.857 356.289 340.947 355.114 337.382 353.208C335.524 352.215 333.786 351.014 332.202 349.627ZM340.437 283.314C348.237 283.286 355.924 285.176 362.818 288.818C365.519 290.201 368.021 291.94 370.256 293.991C375.596 298.593 379.513 304.62 381.547 311.365C383.072 316.163 383.617 321.217 383.149 326.229C382.681 331.242 381.21 336.109 378.824 340.543C377.184 343.629 375.054 346.428 372.514 348.832C375.184 346.465 377.43 343.662 379.156 340.543C381.517 336.099 382.969 331.23 383.425 326.221C383.881 321.211 383.333 316.161 381.812 311.365C379.645 304.118 375.368 297.677 369.526 292.864C367.454 291.239 365.23 289.818 362.885 288.62C355.111 284.532 346.365 282.649 337.596 283.175C328.826 283.701 320.368 286.616 313.141 291.604L309.754 294.322C310.496 293.684 311.272 293.087 312.079 292.532C320.291 286.476 330.228 283.2 340.437 283.182V283.314ZM342.894 338.288H343.226C346.182 339.817 349.621 340.124 352.801 339.144C355.982 338.164 358.649 335.975 360.228 333.049C358.649 335.975 355.982 338.164 352.801 339.144C349.621 340.124 346.182 339.817 343.226 338.288H342.894ZM338.644 325.821C337.736 327.919 337.618 330.274 338.312 332.452C338.508 333.099 338.776 333.721 339.109 334.309C338.776 333.721 338.508 333.099 338.312 332.452C337.627 330.228 337.744 327.835 338.644 325.688V325.821ZM346.149 320.649C345.357 320.52 344.549 320.52 343.758 320.649C342.806 320.926 341.923 321.4 341.168 322.041C341.956 321.449 342.829 320.98 343.758 320.649C345.318 320.184 346.979 320.184 348.539 320.649C347.737 320.618 346.934 320.685 346.149 320.848V320.649ZM327.553 319.389L327.088 320.251C326.906 320.569 326.75 320.902 326.623 321.245C326.75 320.902 326.906 320.569 327.088 320.251C327.088 320.251 327.42 319.588 327.553 319.256V319.389ZM353.255 311.829H353.653C354.252 312.143 354.829 312.498 355.38 312.89C354.829 312.498 354.252 312.143 353.653 311.829H353.255ZM300.988 303.938L300.39 304.8L300.988 303.938Z" fill="#471B1B"/>
<path d="M59.5761 319.72C57.0222 314.936 52.6793 311.353 47.4925 309.751C42.3057 308.149 36.6951 308.657 31.882 311.166C28.052 313.268 25.2067 316.794 23.9634 320.977C22.7201 325.161 23.1791 329.665 25.2407 333.513C26.0516 335.08 27.1676 336.47 28.523 337.601C29.8784 338.732 31.4462 339.582 33.1345 340.1C34.8228 340.619 36.5977 340.796 38.3554 340.622C40.1132 340.447 41.8186 339.924 43.3715 339.084C44.6527 338.385 45.7821 337.438 46.6942 336.3C47.6062 335.162 48.2827 333.854 48.6844 332.452C49.1183 331.088 49.2713 329.651 49.1344 328.226C48.9974 326.802 48.5733 325.42 47.8875 324.163C47.3555 323.127 46.6218 322.208 45.7296 321.459C44.8374 320.71 43.8045 320.145 42.6913 319.8C41.5781 319.454 40.407 319.333 39.2466 319.445C38.0862 319.556 36.9597 319.898 35.9331 320.45C35.8279 320.492 35.733 320.556 35.6546 320.637C35.5762 320.719 35.5162 320.817 35.4785 320.923C35.4407 321.03 35.4262 321.143 35.4359 321.256C35.4456 321.369 35.4792 321.478 35.5346 321.577C35.6914 321.712 35.892 321.787 36.0992 321.787C36.3065 321.787 36.5069 321.712 36.6637 321.577C38.3556 320.685 40.3323 320.499 42.1617 321.058C43.9911 321.617 45.5243 322.876 46.4264 324.561C46.9944 325.632 47.3453 326.804 47.4591 328.011C47.5728 329.217 47.4471 330.434 47.0894 331.592C46.7316 332.75 46.1487 333.826 45.3739 334.759C44.5992 335.692 43.6478 336.463 42.5744 337.028C39.8141 338.459 36.6002 338.747 33.629 337.828C30.6578 336.91 28.1689 334.859 26.7017 332.121C24.9179 328.65 24.5728 324.619 25.7409 320.896C26.9089 317.174 29.4964 314.06 32.9446 312.227C35.1637 311.14 37.5756 310.5 40.0425 310.345C42.5094 310.19 44.9828 310.523 47.3208 311.324C49.6589 312.124 51.8158 313.378 53.668 315.012C55.5203 316.646 57.0313 318.629 58.115 320.847C61.0412 326.402 61.6384 332.89 59.7753 338.885C58.8694 341.864 57.3742 344.632 55.3778 347.024C53.3815 349.416 50.9246 351.383 48.153 352.81C44.6878 354.658 40.8886 355.797 36.9772 356.162C33.0659 356.526 29.1211 356.108 25.3734 354.932C21.621 353.78 18.1341 351.898 15.1135 349.394C12.093 346.89 9.59855 343.814 7.774 340.344C5.47692 335.998 4.05996 331.243 3.60414 326.35C3.14832 321.457 3.66262 316.523 5.11752 311.829C7.22046 304.945 11.3092 298.832 16.8726 294.256C17.3962 293.778 17.9508 293.335 18.5329 292.93L20.1932 291.736V289.813C19.6115 290.095 19.0558 290.428 18.5329 290.808L16.8726 292.068C10.5488 296.942 5.90556 303.664 3.58995 311.298C2.04695 316.205 1.49327 321.369 1.96063 326.491C2.428 331.613 3.90718 336.592 6.31291 341.139C8.24574 344.8 10.8833 348.043 14.0744 350.683C17.2655 353.323 20.9473 355.308 24.9085 356.524C27.9339 357.498 31.094 357.99 34.2727 357.983C39.3877 357.963 44.4225 356.712 48.9501 354.336C51.9071 352.778 54.5264 350.652 56.6577 348.08C58.7891 345.508 60.3904 342.541 61.3693 339.349C62.3955 336.123 62.7655 332.725 62.4575 329.354C62.1496 325.983 61.1698 322.708 59.5761 319.72Z" fill="#471B1B"/>
<path d="M24.6434 356.988C27.7566 357.977 31.0063 358.469 34.2731 358.447C39.4908 358.467 44.6375 357.239 49.2825 354.866C55.4163 351.59 60.0184 346.043 62.1002 339.415C64.101 332.796 63.4337 325.657 60.2406 319.521C57.5751 314.55 53.0536 310.829 47.6575 309.165C42.2613 307.502 36.4259 308.03 31.4174 310.635C27.3539 312.804 24.313 316.488 22.9571 320.885C21.6012 325.281 22.0403 330.035 24.1784 334.11C25.0974 335.77 26.3389 337.231 27.8302 338.406C29.3215 339.581 31.0326 340.447 32.8633 340.953C34.694 341.46 36.6076 341.596 38.4918 341.355C40.3761 341.114 42.1931 340.499 43.8366 339.548C46.5293 338.16 48.5772 335.783 49.5482 332.917C50.0081 331.442 50.1685 329.891 50.0203 328.354C49.872 326.816 49.4181 325.324 48.6848 323.964C48.1042 322.825 47.2989 321.815 46.3174 320.995C45.3359 320.174 44.1983 319.56 42.9732 319.19C41.7697 318.81 40.5014 318.679 39.2454 318.804C37.9894 318.93 36.7723 319.309 35.6679 319.919C35.4579 319.99 35.2689 320.112 35.1181 320.274C34.9673 320.436 34.8595 320.633 34.8045 320.848C34.709 321.056 34.6596 321.282 34.6596 321.511C34.6596 321.74 34.709 321.966 34.8045 322.174C34.9088 322.366 35.05 322.535 35.22 322.673C35.3901 322.81 35.5856 322.912 35.7954 322.974C36.0052 323.036 36.2253 323.055 36.4428 323.032C36.6602 323.008 36.8708 322.942 37.0626 322.837C38.5614 322.075 40.2942 321.909 41.9108 322.373C43.5248 322.891 44.879 324.006 45.6962 325.49C46.216 326.464 46.5373 327.531 46.6417 328.63C46.746 329.729 46.6313 330.838 46.304 331.892C45.9767 332.946 45.4433 333.926 44.7349 334.773C44.0264 335.62 43.1568 336.319 42.1763 336.829C39.6114 338.164 36.6223 338.431 33.8605 337.574C31.0986 336.717 28.788 334.805 27.4326 332.254C26.5666 330.641 26.0323 328.871 25.8612 327.049C25.6902 325.227 25.8858 323.389 26.4364 321.643C26.929 319.879 27.7705 318.23 28.9111 316.795C30.0517 315.36 31.4683 314.168 33.0777 313.288C35.162 312.187 37.4441 311.509 39.7922 311.292C42.1403 311.076 44.508 311.326 46.7588 312.028C49.0246 312.727 51.1298 313.866 52.9534 315.379C54.777 316.893 56.283 318.751 57.3849 320.848C58.8531 323.556 59.7517 326.535 60.0258 329.603C60.2999 332.67 59.9436 335.761 58.9788 338.686C58.0956 341.536 56.6468 344.179 54.7185 346.457C52.7902 348.736 50.4218 350.604 47.755 351.949C44.393 353.749 40.7041 354.858 36.9057 355.211C33.1073 355.564 29.2765 355.154 25.6395 354.004C21.9629 352.834 18.5584 350.94 15.6269 348.434C12.6954 345.929 10.2963 342.862 8.57133 339.415C4.05659 330.838 3.12551 320.825 5.98132 311.564C8.04866 304.806 12.0687 298.808 17.5371 294.323C18.0121 293.759 18.5464 293.247 19.131 292.797L20.725 291.604V287.89L19.5294 288.487C18.9276 288.796 18.3505 289.151 17.8028 289.548C17.2046 289.936 16.628 290.357 16.076 290.808C9.67464 295.89 5.0294 302.847 2.79343 310.702C1.21687 315.718 0.651697 320.997 1.13047 326.233C1.60924 331.468 3.12255 336.557 5.58286 341.206C7.56605 344.958 10.2701 348.282 13.5405 350.99C16.811 353.699 20.5838 355.737 24.6434 356.988Z" fill="#471B1B"/>
<path d="M90.5911 307.917C90.481 307.907 90.3701 307.921 90.2656 307.957C90.1611 307.993 90.0653 308.05 89.9841 308.125C89.9029 308.2 89.8383 308.29 89.7942 308.392C89.7501 308.493 89.7273 308.602 89.7277 308.712C89.7277 308.941 89.8188 309.16 89.9807 309.322C90.1426 309.484 90.3622 309.574 90.5911 309.574C90.7064 309.313 90.7658 309.031 90.7658 308.745C90.7658 308.46 90.7064 308.178 90.5911 307.917ZM88.9973 308.314C88.8228 307.969 88.623 307.636 88.3996 307.32C86.5766 303.964 84.346 300.846 81.7583 298.036C81.3239 297.48 80.8344 296.969 80.2972 296.511C79.2214 295.347 78.0434 294.282 76.7773 293.328C71.9204 289.321 66.325 286.302 60.3068 284.442C47.9398 280.645 34.5708 281.884 23.1155 287.89C22.2356 288.357 21.392 288.889 20.5918 289.481C20.01 289.763 19.4544 290.096 18.9314 290.476L17.2711 291.736V293.924C17.7948 293.446 18.3494 293.003 18.9314 292.598L20.5918 291.405C21.6597 290.679 22.7684 290.014 23.9124 289.415C29.3731 286.489 35.3649 284.682 41.5351 284.101C47.7054 283.52 53.9296 284.177 59.8419 286.033C66.3211 288.037 72.2828 291.432 77.3085 295.98C78.0869 296.613 78.8192 297.3 79.5001 298.036C81.1016 299.636 82.5678 301.366 83.8834 303.208C85.2842 305.046 86.5283 306.998 87.6025 309.044C87.6483 309.151 87.7216 309.244 87.8149 309.314C87.9081 309.384 88.0181 309.428 88.1339 309.442C88.3277 309.507 88.5378 309.507 88.7316 309.442C88.8582 309.277 88.9211 309.073 88.9089 308.866C88.8967 308.659 88.8101 308.463 88.6651 308.314H88.9973Z" fill="#471B1B"/>
<path d="M90.5911 310.37H90.0599C89.6272 310.38 89.2043 310.24 88.8643 309.972C88.4995 310.104 88.1002 310.104 87.7354 309.972C87.4916 309.926 87.2645 309.815 87.0777 309.652C86.8909 309.489 86.7512 309.279 86.6728 309.044C85.6084 307.085 84.41 305.202 83.0864 303.407C81.7924 301.609 80.3484 299.923 78.7696 298.367C78.126 297.638 77.4144 296.972 76.6444 296.378C71.7037 291.883 65.8304 288.532 59.4434 286.564C53.6379 284.76 47.5314 284.124 41.478 284.693C35.4245 285.262 29.5444 287.025 24.1781 289.879C22.9827 290.542 21.9202 291.139 20.924 291.802L19.3299 292.996C18.6858 293.372 18.0846 293.817 17.5368 294.322L16.1422 295.516V291.139H16.4742C17.0079 290.645 17.586 290.201 18.201 289.813C18.7487 289.416 19.3258 289.061 19.9276 288.752C20.7298 288.162 21.5732 287.63 22.4513 287.16C34.1144 281.059 47.717 279.796 60.3068 283.646C66.4087 285.563 72.0887 288.624 77.0428 292.664C78.3225 293.651 79.5217 294.738 80.6292 295.914C81.1862 296.396 81.6976 296.929 82.1568 297.505C84.7572 300.354 86.9885 303.517 88.7981 306.922V307.386C89.1223 307.284 89.47 307.284 89.7942 307.386H90.3919L90.7239 307.983C90.8869 308.348 90.9712 308.743 90.9712 309.143C90.9712 309.543 90.8869 309.938 90.7239 310.304L90.5911 310.37ZM79.5001 297.107L80.2972 297.837L79.5001 297.107ZM75.781 293.725L77.3085 295.118L78.3712 295.98C77.3086 295.383 76.7773 294.654 75.9139 294.322L75.781 293.725ZM68.4092 288.752C71.0137 290.147 73.4626 291.814 75.7147 293.725C73.4921 291.914 71.0884 290.336 68.542 289.017L68.4092 288.752ZM17.5368 291.869H17.9353L19.5956 290.675H19.9941L18.9314 291.404L17.5368 291.869ZM35.6012 283.845C31.2097 284.769 26.9646 286.286 22.9827 288.354L21.1895 289.415L22.9827 288.42C27.0176 286.413 31.3073 284.962 35.7339 284.11L35.6012 283.845ZM59.2442 284.906H59.5762H59.2442Z" fill="#471B1B"/>
<path d="M59.5761 319.72C57.0222 314.936 52.6793 311.353 47.4925 309.751C42.3057 308.149 36.6951 308.657 31.882 311.166C28.052 313.268 25.2067 316.794 23.9634 320.977C22.7201 325.161 23.1791 329.665 25.2407 333.513C26.0516 335.08 27.1676 336.47 28.523 337.601C29.8784 338.732 31.4462 339.582 33.1345 340.1C34.8228 340.619 36.5977 340.796 38.3554 340.622C40.1132 340.447 41.8186 339.924 43.3715 339.084C44.6527 338.385 45.7821 337.438 46.6942 336.3C47.6062 335.162 48.2827 333.854 48.6844 332.452C49.1183 331.088 49.2713 329.651 49.1344 328.226C48.9974 326.802 48.5733 325.42 47.8875 324.163C47.3555 323.127 46.6218 322.208 45.7296 321.459C44.8374 320.71 43.8045 320.145 42.6913 319.8C41.5781 319.454 40.407 319.333 39.2466 319.445C38.0862 319.556 36.9597 319.898 35.9331 320.45C35.8279 320.492 35.733 320.556 35.6546 320.637C35.5762 320.719 35.5162 320.817 35.4785 320.923C35.4407 321.03 35.4262 321.143 35.4359 321.256C35.4456 321.369 35.4792 321.478 35.5346 321.577C35.6914 321.712 35.892 321.787 36.0992 321.787C36.3065 321.787 36.5069 321.712 36.6637 321.577C38.3556 320.685 40.3323 320.499 42.1617 321.058C43.9911 321.617 45.5243 322.876 46.4264 324.561C46.9944 325.632 47.3453 326.804 47.4591 328.011C47.5728 329.217 47.4471 330.434 47.0894 331.592C46.7316 332.75 46.1487 333.826 45.3739 334.759C44.5992 335.692 43.6478 336.463 42.5744 337.028C39.8141 338.459 36.6002 338.747 33.629 337.828C30.6578 336.91 28.1689 334.859 26.7017 332.121C24.9179 328.65 24.5728 324.619 25.7409 320.896C26.9089 317.174 29.4964 314.06 32.9446 312.227C35.1637 311.14 37.5756 310.5 40.0425 310.345C42.5094 310.19 44.9828 310.523 47.3208 311.324C49.6589 312.124 51.8158 313.378 53.668 315.012C55.5203 316.646 57.0313 318.629 58.115 320.847C61.0412 326.402 61.6384 332.89 59.7753 338.885C58.8694 341.864 57.3742 344.632 55.3778 347.024C53.3815 349.416 50.9246 351.383 48.153 352.81C44.6878 354.658 40.8886 355.797 36.9772 356.162C33.0659 356.526 29.1211 356.108 25.3734 354.932C21.621 353.78 18.1341 351.898 15.1135 349.394C12.093 346.89 9.59855 343.814 7.774 340.344C5.47692 335.998 4.05996 331.243 3.60414 326.35C3.14832 321.457 3.66262 316.523 5.11752 311.829C7.22046 304.945 11.3092 298.832 16.8726 294.256C17.3962 293.778 17.9508 293.335 18.5329 292.93L20.1932 291.736V289.813C19.6115 290.095 19.0558 290.428 18.5329 290.808L16.8726 292.068C10.5488 296.942 5.90556 303.664 3.58995 311.298C2.04695 316.205 1.49327 321.369 1.96063 326.491C2.428 331.613 3.90718 336.592 6.31291 341.139C8.24574 344.8 10.8833 348.043 14.0744 350.683C17.2655 353.323 20.9473 355.308 24.9085 356.524C27.9339 357.498 31.094 357.99 34.2727 357.983C39.3877 357.963 44.4225 356.712 48.9501 354.336C51.9071 352.778 54.5264 350.652 56.6577 348.08C58.7891 345.508 60.3904 342.541 61.3693 339.349C62.3955 336.123 62.7655 332.725 62.4575 329.354C62.1496 325.983 61.1698 322.708 59.5761 319.72Z" fill="#471B1B"/>
<path d="M24.6434 356.988C27.7566 357.977 31.0063 358.469 34.2731 358.447C39.4908 358.467 44.6375 357.239 49.2825 354.866C55.4163 351.59 60.0184 346.043 62.1002 339.415C64.101 332.796 63.4337 325.657 60.2406 319.521C57.5751 314.55 53.0536 310.829 47.6575 309.165C42.2613 307.502 36.4259 308.03 31.4174 310.635C27.3539 312.804 24.313 316.488 22.9571 320.885C21.6012 325.281 22.0403 330.035 24.1784 334.11C25.0974 335.77 26.3389 337.231 27.8302 338.406C29.3215 339.581 31.0326 340.447 32.8633 340.953C34.694 341.46 36.6076 341.596 38.4918 341.355C40.3761 341.114 42.1931 340.499 43.8366 339.548C46.5293 338.16 48.5772 335.783 49.5482 332.917C50.0081 331.442 50.1685 329.891 50.0203 328.354C49.872 326.816 49.4181 325.324 48.6848 323.964C48.1042 322.825 47.2989 321.815 46.3174 320.995C45.3359 320.174 44.1983 319.56 42.9732 319.19C41.7697 318.81 40.5014 318.679 39.2454 318.804C37.9894 318.93 36.7723 319.309 35.6679 319.919C35.4579 319.99 35.2689 320.112 35.1181 320.274C34.9673 320.436 34.8595 320.633 34.8045 320.848C34.709 321.056 34.6596 321.282 34.6596 321.511C34.6596 321.74 34.709 321.966 34.8045 322.174C34.9088 322.366 35.05 322.535 35.22 322.673C35.3901 322.81 35.5856 322.912 35.7954 322.974C36.0052 323.036 36.2253 323.055 36.4428 323.032C36.6602 323.008 36.8708 322.942 37.0626 322.837C38.5614 322.075 40.2942 321.909 41.9108 322.373C43.5248 322.891 44.879 324.006 45.6962 325.49C46.216 326.464 46.5373 327.531 46.6417 328.63C46.746 329.729 46.6313 330.838 46.304 331.892C45.9767 332.946 45.4433 333.926 44.7349 334.773C44.0264 335.62 43.1568 336.319 42.1763 336.829C39.6114 338.164 36.6223 338.431 33.8605 337.574C31.0986 336.717 28.788 334.805 27.4326 332.254C26.5666 330.641 26.0323 328.871 25.8612 327.049C25.6902 325.227 25.8858 323.389 26.4364 321.643C26.929 319.879 27.7705 318.23 28.9111 316.795C30.0517 315.36 31.4683 314.168 33.0777 313.288C35.162 312.187 37.4441 311.509 39.7922 311.292C42.1403 311.076 44.508 311.326 46.7588 312.028C49.0246 312.727 51.1298 313.866 52.9534 315.379C54.777 316.893 56.283 318.751 57.3849 320.848C58.8531 323.556 59.7517 326.535 60.0258 329.603C60.2999 332.67 59.9436 335.761 58.9788 338.686C58.0956 341.536 56.6468 344.179 54.7185 346.457C52.7902 348.736 50.4218 350.604 47.755 351.949C44.393 353.749 40.7041 354.858 36.9057 355.211C33.1073 355.564 29.2765 355.154 25.6395 354.004C21.9629 352.834 18.5584 350.94 15.6269 348.434C12.6954 345.929 10.2963 342.862 8.57133 339.415C4.05659 330.838 3.12551 320.825 5.98132 311.564C8.04866 304.806 12.0687 298.808 17.5371 294.323C18.0121 293.759 18.5464 293.247 19.131 292.797L20.725 291.604V287.89L19.5294 288.487C18.9276 288.796 18.3505 289.151 17.8028 289.548C17.2046 289.936 16.628 290.357 16.076 290.808C9.67464 295.89 5.0294 302.847 2.79343 310.702C1.21687 315.718 0.651697 320.997 1.13047 326.233C1.60924 331.468 3.12255 336.557 5.58286 341.206C7.56605 344.958 10.2701 348.282 13.5405 350.99C16.811 353.699 20.5838 355.737 24.6434 356.988Z" fill="#471B1B"/>
<path d="M94.8417 399.163V400.821H293.483V399.163H94.8417Z" fill="#471B1B"/>
<path d="M294.346 398.301H94.0446V401.617H294.346V398.301Z" fill="#471B1B"/>
<path d="M361.955 275.291C361.938 275.507 361.84 275.71 361.68 275.858C361.519 276.005 361.309 276.087 361.091 276.086H18.533C18.3151 276.087 18.105 276.005 17.9449 275.858C17.7847 275.71 17.6864 275.507 17.6696 275.291C17.6696 275.062 17.7606 274.843 17.9226 274.681C18.0845 274.519 18.304 274.428 18.533 274.428H361.091C361.32 274.428 361.54 274.519 361.702 274.681C361.864 274.843 361.955 275.062 361.955 275.291Z" fill="#471B1B"/>
<path d="M361.091 276.948H18.533C18.0927 276.948 17.6705 276.774 17.3591 276.463C17.0477 276.152 16.8727 275.73 16.8727 275.291C16.8727 274.851 17.0477 274.429 17.3591 274.118C17.6705 273.807 18.0927 273.633 18.533 273.633H361.091C361.532 273.633 361.954 273.807 362.265 274.118C362.577 274.429 362.752 274.851 362.752 275.291C362.752 275.73 362.577 276.152 362.265 276.463C361.954 276.774 361.532 276.948 361.091 276.948Z" fill="#471B1B"/>
<path d="M88.6652 308.315C88.8007 308.471 88.8754 308.671 88.8754 308.878C88.8754 309.085 88.8007 309.285 88.6652 309.442C88.4714 309.508 88.2613 309.508 88.0675 309.442C88.0301 309.2 88.0301 308.954 88.0675 308.712C88.0806 308.212 88.2425 307.728 88.5324 307.32C88.5978 307.648 88.6421 307.98 88.6652 308.315Z" fill="#471B1B"/>
<path d="M88.0009 310.304H87.4697H87.0713V309.906C87.0142 309.577 87.0142 309.24 87.0713 308.911C87.1107 308.242 87.3412 307.597 87.7354 307.054L88.3331 306.126L89.0636 306.988C89.2429 307.238 89.3985 307.505 89.5285 307.784C89.726 308.156 89.7741 308.59 89.6631 308.996C89.5521 309.402 89.2903 309.752 88.9308 309.972L88.0009 310.304Z" fill="#471B1B"/>
<path d="M292.553 308.712C292.562 308.822 292.549 308.933 292.513 309.037C292.477 309.142 292.42 309.237 292.345 309.318C292.27 309.399 292.179 309.464 292.077 309.508C291.976 309.552 291.867 309.575 291.756 309.574H90.1262C89.8972 309.574 89.6777 309.484 89.5158 309.322C89.3538 309.16 89.2628 308.941 89.2628 308.712C89.2624 308.602 89.2852 308.493 89.3293 308.392C89.3734 308.291 89.438 308.2 89.5192 308.125C89.6004 308.05 89.6964 307.993 89.8009 307.957C89.9054 307.921 90.0161 307.907 90.1262 307.917H291.756C291.968 307.917 292.17 308 292.32 308.15C292.469 308.299 292.553 308.501 292.553 308.712Z" fill="#471B1B"/>
<path d="M291.756 310.37H90.1262C89.6795 310.37 89.2502 310.198 88.9282 309.889C88.6062 309.58 88.4168 309.158 88.3996 308.712C88.4168 308.267 88.6062 307.845 88.9282 307.536C89.2502 307.227 89.6795 307.054 90.1262 307.054H291.756C292.197 307.054 292.619 307.229 292.93 307.54C293.242 307.851 293.417 308.273 293.417 308.712C293.417 309.152 293.242 309.574 292.93 309.885C292.619 310.195 292.197 310.37 291.756 310.37Z" fill="#471B1B"/>
<path d="M104.737 381.192H103.874L103.807 380.397V380.264H104.671V379.535V380.198L105.268 379.734L106.597 381.192H104.737Z" fill="#471B1B"/>
<path d="M273.692 378.341C273.393 378.342 273.1 378.262 272.843 378.11C272.585 377.959 272.374 377.74 272.231 377.479C272.153 377.219 272.153 376.943 272.231 376.683C272.329 367.524 272.972 358.379 274.157 349.296C274.177 349.07 274.247 348.852 274.362 348.657C274.477 348.462 274.633 348.295 274.821 348.168C275.009 348.084 275.212 348.041 275.418 348.041C275.624 348.041 275.828 348.084 276.016 348.168C276.433 348.218 276.815 348.424 277.086 348.744C277.357 349.064 277.497 349.474 277.477 349.893C276.347 358.847 275.726 367.858 275.618 376.882C275.715 377.138 275.715 377.421 275.618 377.678C275.446 378.017 275.149 378.276 274.79 378.4C274.43 378.524 274.036 378.502 273.692 378.341ZM275.551 349.495C274.423 358.516 273.802 367.593 273.692 376.683C273.833 367.616 274.454 358.563 275.551 349.561V349.495Z" fill="#471B1B"/>
<path d="M104.737 381.192H103.807V380.264H104.671V379.535V380.198L105.268 379.734L106.597 381.192H104.737Z" fill="#471B1B"/>
<path d="M284.384 385.503C284.384 385.731 284.293 385.951 284.131 386.112C283.97 386.274 283.75 386.365 283.521 386.365H96.037C95.9265 386.365 95.8171 386.343 95.7158 386.298C95.6145 386.254 95.5236 386.19 95.4486 386.109C95.3737 386.028 95.3163 385.932 95.2804 385.828C95.2445 385.723 95.2309 385.613 95.2401 385.503C95.2401 385.292 95.3239 385.089 95.4734 384.94C95.6228 384.791 95.8257 384.707 96.037 384.707H283.521C283.631 384.698 283.742 384.711 283.846 384.747C283.951 384.783 284.047 384.84 284.128 384.915C284.209 384.99 284.274 385.081 284.318 385.182C284.362 385.283 284.385 385.392 284.384 385.503Z" fill="#471B1B"/>
<path d="M283.521 387.161H96.037C95.822 387.161 95.6092 387.118 95.4114 387.033C95.2135 386.949 95.0347 386.826 94.8858 386.671C94.7369 386.516 94.6208 386.333 94.5447 386.132C94.4686 385.931 94.434 385.717 94.443 385.503C94.434 385.288 94.4686 385.074 94.5447 384.873C94.6208 384.673 94.7369 384.489 94.8858 384.334C95.0347 384.179 95.2135 384.056 95.4114 383.972C95.6092 383.888 95.822 383.845 96.037 383.845H283.521C283.967 383.845 284.397 384.017 284.719 384.326C285.041 384.635 285.23 385.057 285.248 385.503C285.23 385.948 285.041 386.37 284.719 386.679C284.397 386.988 283.967 387.161 283.521 387.161Z" fill="#471B1B"/>
<path d="M121.938 408.513C119.73 408.513 117.612 409.384 116.044 410.937C114.477 412.49 113.587 414.598 113.57 416.802V559.11V560.503H114.898L115.43 558.977V560.569C116.426 560.569 117.488 561.033 118.485 561.365L121.805 562.293H122.137L125.059 563.221L127.782 564.15H128.181L130.372 564.879V416.802C130.373 415.703 130.154 414.614 129.728 413.599C129.303 412.585 128.679 411.665 127.894 410.894C127.109 410.122 126.178 409.514 125.156 409.106C124.133 408.697 123.039 408.496 121.938 408.513ZM121.207 558.845L116.891 557.784V416.802C116.908 415.477 117.448 414.212 118.392 413.281C119.337 412.351 120.611 411.829 121.938 411.829C123.259 411.829 124.526 412.353 125.46 413.286C126.394 414.218 126.919 415.483 126.919 416.802V560.635L121.207 558.845Z" fill="#471B1B"/>
<path d="M160.922 408.513C158.715 408.513 156.596 409.385 155.029 410.937C153.461 412.49 152.572 414.598 152.554 416.803V572.24H154.015H154.348C156.008 572.24 157.602 572.24 159.129 572.24C160.663 572.234 162.194 572.123 163.712 571.909H164.509L165.903 571.577C166.606 571.44 167.295 571.24 167.962 570.98C168.361 570.98 168.693 570.98 168.826 567.134C168.826 560.503 168.826 542.93 168.826 492.93V416.803C168.828 414.671 168.008 412.621 166.537 411.078C165.065 409.534 163.054 408.616 160.922 408.513ZM165.837 568.593H165.306L163.048 569.057H162.583C160.375 569.296 158.149 569.296 155.942 569.057V416.537C155.959 415.212 156.498 413.947 157.443 413.016C158.388 412.086 159.662 411.564 160.989 411.564C162.305 411.581 163.562 412.11 164.492 413.04C165.422 413.969 165.953 415.224 165.97 416.537C165.97 465.742 165.97 556.789 165.97 568.261L165.837 568.593Z" fill="#471B1B"/>
<path d="M200.638 407.054C198.43 407.054 196.311 407.926 194.744 409.478C193.176 411.031 192.287 413.139 192.269 415.344V565.277H193.266H194.063L195.192 565.675L199.575 567.598C201.567 568.527 203.56 569.389 205.619 570.184L206.747 570.649L208.607 571.312H208.939V415.078C208.87 412.926 207.965 410.885 206.416 409.388C204.866 407.89 202.794 407.053 200.638 407.054ZM200.97 565.211L196.653 563.288H195.789V415.078C195.807 413.753 196.346 412.488 197.291 411.557C198.236 410.627 199.51 410.105 200.837 410.105C202.158 410.105 203.425 410.629 204.359 411.562C205.293 412.494 205.818 413.759 205.818 415.078V567.001L200.97 565.211Z" fill="#471B1B"/>
<path d="M238.958 408.513C236.756 408.513 234.645 409.387 233.088 410.941C231.531 412.496 230.656 414.604 230.656 416.803V572.837L232.649 572.439L235.903 571.643L239.223 570.649C241.615 569.888 243.965 569.003 246.263 567.996L247.259 567.532V416.803C247.259 414.604 246.385 412.496 244.828 410.941C243.271 409.387 241.16 408.513 238.958 408.513ZM238.958 567.665C237.563 568.129 236.168 568.593 234.84 568.925H234.043V416.803C234.06 415.489 234.591 414.234 235.521 413.305C236.452 412.376 237.709 411.846 239.024 411.829C240.351 411.829 241.625 412.351 242.57 413.282C243.515 414.212 244.054 415.477 244.072 416.803V565.41C242.278 566.206 240.552 566.803 238.891 567.333L238.958 567.665Z" fill="#471B1B"/>
<path d="M275.618 408.513C274.522 408.505 273.435 408.713 272.42 409.125C271.406 409.538 270.483 410.147 269.705 410.918C268.927 411.688 268.309 412.605 267.888 413.615C267.467 414.625 267.25 415.708 267.25 416.803V556.524L283.919 545.715V416.803C283.919 414.604 283.045 412.496 281.488 410.941C279.931 409.387 277.819 408.513 275.618 408.513ZM270.57 550.423V416.803C270.588 415.477 271.127 414.213 272.072 413.282C273.017 412.351 274.29 411.829 275.618 411.829C276.933 411.846 278.19 412.376 279.121 413.305C280.051 414.234 280.581 415.489 280.599 416.803V543.925L270.57 550.423Z" fill="#471B1B"/>
<path d="M301.851 379.535C301.86 379.645 301.846 379.755 301.81 379.86C301.774 379.964 301.717 380.06 301.642 380.141C301.567 380.222 301.476 380.286 301.375 380.33C301.274 380.374 301.164 380.397 301.054 380.397H104.671H99.8889C99.7842 380.397 99.6806 380.376 99.5839 380.336C99.4872 380.296 99.3995 380.237 99.3255 380.164C99.2514 380.09 99.1926 380.002 99.1526 379.905C99.1125 379.809 99.092 379.705 99.092 379.601C99.0828 379.491 99.0966 379.38 99.1325 379.276C99.1684 379.172 99.2256 379.076 99.3005 378.995C99.3755 378.914 99.4666 378.849 99.5679 378.805C99.6691 378.761 99.7784 378.738 99.8889 378.739H106.065C106.033 378.475 106.033 378.207 106.065 377.943V377.015C103.94 365.675 101.616 354.203 99.424 342.996C97.9629 335.702 96.369 328.275 94.7087 320.781H90.6576C90.4286 320.781 90.209 320.69 90.0471 320.529C89.8852 320.367 89.7942 320.148 89.7942 319.919C89.811 319.702 89.9093 319.5 90.0694 319.352C90.2296 319.204 90.4397 319.123 90.6576 319.123H94.3767L93.5133 315.41C93.4836 315.305 93.4757 315.196 93.49 315.088C93.5043 314.98 93.5406 314.877 93.5966 314.783C93.6526 314.69 93.7272 314.609 93.8157 314.546C93.9042 314.483 94.0046 314.438 94.111 314.415C94.3216 314.373 94.5405 314.411 94.7247 314.521C94.9089 314.632 95.0452 314.807 95.1071 315.012C95.1071 316.405 95.705 317.797 96.037 319.19H292.287C292.499 319.19 292.702 319.274 292.851 319.423C293 319.572 293.084 319.774 293.084 319.986C293.094 320.095 293.08 320.206 293.044 320.31C293.008 320.415 292.951 320.511 292.876 320.592C292.801 320.673 292.71 320.737 292.609 320.781C292.507 320.825 292.398 320.848 292.287 320.848H96.369C98.0293 328.275 99.5568 335.569 101.084 342.731C103.409 354.137 105.8 365.675 107.726 377.147C107.726 377.678 107.726 378.275 108.058 378.805H301.386C301.526 378.869 301.644 378.972 301.726 379.101C301.809 379.231 301.852 379.381 301.851 379.535Z" fill="#471B1B"/>
<path d="M301.054 381.193H99.8226C99.6108 381.202 99.3993 381.167 99.2016 381.091C99.004 381.014 98.8244 380.897 98.6745 380.747C98.5245 380.598 98.4075 380.418 98.3307 380.221C98.254 380.024 98.2192 379.813 98.2286 379.601C98.2197 379.383 98.254 379.166 98.3293 378.961C98.4046 378.757 98.5195 378.569 98.6676 378.409C98.8156 378.249 98.9937 378.119 99.1919 378.028C99.3901 377.937 99.6045 377.885 99.8226 377.877H105.003V377.147C102.678 364.747 100.155 352.479 98.3615 343.195C97.0333 336.564 95.6386 329.933 93.779 321.643H90.3919C89.9339 321.643 89.4948 321.462 89.171 321.138C88.8472 320.815 88.6651 320.377 88.6651 319.919C88.6736 319.702 88.7253 319.488 88.8167 319.29C88.9081 319.092 89.0378 318.914 89.1981 318.766C89.3585 318.618 89.5464 318.503 89.7512 318.428C89.9561 318.353 90.1738 318.319 90.3919 318.328H93.0484V317.466L92.6499 315.609C92.518 315.245 92.518 314.846 92.6499 314.482C92.7631 314.29 92.9169 314.125 93.1005 313.999C93.284 313.873 93.4929 313.789 93.7126 313.752C94.1153 313.682 94.5299 313.757 94.8826 313.963C95.2353 314.17 95.5032 314.494 95.6386 314.88C95.6386 315.41 95.6386 316.139 96.037 316.803C96.4355 317.466 96.037 317.797 96.037 318.328H291.623C292.052 318.327 292.465 318.493 292.774 318.79C293.084 319.086 293.266 319.491 293.284 319.919C293.284 320.365 293.111 320.794 292.802 321.116C292.492 321.437 292.07 321.626 291.623 321.643H97.2324C98.4279 327.147 99.5569 332.585 100.752 337.956L102.612 346.975C104.604 356.789 106.663 366.869 108.523 376.949C108.523 376.949 108.523 377.479 108.523 377.744H301.12C301.561 377.744 301.983 377.919 302.294 378.23C302.606 378.541 302.781 378.962 302.781 379.402C302.8 379.636 302.769 379.872 302.69 380.093C302.61 380.315 302.485 380.517 302.322 380.686C302.158 380.856 301.961 380.988 301.742 381.076C301.524 381.163 301.289 381.203 301.054 381.193ZM104.604 380.529V379.866H106.995V379.269V378.341C106.995 378.341 106.995 377.877 106.995 377.612C105.136 367.598 103.077 357.718 101.018 347.572L99.4905 340.012L100.088 343.195C102.014 352.479 104.538 364.747 106.729 377.214V378.142C106.692 378.362 106.692 378.586 106.729 378.805V379.866H104.272L104.604 380.529ZM93.8453 315.609V316.338C93.8453 316.338 93.9117 315.609 93.8453 315.344V315.609Z" fill="#471B1B"/>
</svg>
