<svg width="504" height="584" viewBox="0 0 504 584" fill="none" xmlns="http://www.w3.org/2000/svg">
<path d="M377 222.148V322H127V222L377 222.148Z" stroke="#1C1C1C" stroke-width="3" stroke-miterlimit="10"/>
<path d="M439.5 322H64.5V442H439.5V322Z" stroke="#1C1C1C" stroke-width="3" stroke-miterlimit="10"/>
<path d="M502 442H2V582H502V442Z" stroke="#1C1C1C" stroke-width="3" stroke-miterlimit="10"/>
<path d="M153.479 376.675H153.129C153.036 375.648 152.826 374.703 152.499 373.84C152.196 372.953 151.729 372.195 151.099 371.565C150.492 370.912 149.722 370.41 148.789 370.06C147.879 369.687 146.771 369.5 145.464 369.5H142.874V379.965C143.201 379.918 143.551 379.883 143.924 379.86C144.321 379.837 144.741 379.825 145.184 379.825C146.584 379.825 147.891 379.953 149.104 380.21C150.317 380.443 151.379 380.84 152.289 381.4C153.199 381.937 153.911 382.637 154.424 383.5C154.937 384.34 155.194 385.367 155.194 386.58C155.194 387.77 154.937 388.832 154.424 389.765C153.934 390.675 153.222 391.445 152.289 392.075C151.379 392.705 150.271 393.183 148.964 393.51C147.657 393.837 146.187 394 144.554 394H135.454V393.65H138.184V369.5H135.454V369.15H153.479V376.675ZM144.554 380.21C143.947 380.21 143.387 380.245 142.874 380.315V393.65H144.204C145.394 393.65 146.374 393.475 147.144 393.125C147.914 392.752 148.521 392.262 148.964 391.655C149.431 391.025 149.746 390.29 149.909 389.45C150.096 388.61 150.189 387.712 150.189 386.755C150.189 385.775 150.096 384.888 149.909 384.095C149.722 383.278 149.407 382.59 148.964 382.03C148.521 381.447 147.937 381.003 147.214 380.7C146.514 380.373 145.627 380.21 144.554 380.21ZM167.276 378.95H171.616V379.3H169.936L162.061 399.145C161.548 400.428 160.988 401.35 160.381 401.91C159.775 402.47 158.958 402.75 157.931 402.75C156.811 402.75 155.936 402.458 155.306 401.875C154.676 401.315 154.361 400.557 154.361 399.6C154.361 398.853 154.56 398.258 154.956 397.815C155.33 397.395 155.808 397.185 156.391 397.185C156.975 397.185 157.418 397.372 157.721 397.745C158.025 398.118 158.176 398.573 158.176 399.11C158.176 399.367 158.141 399.588 158.071 399.775C158.001 399.985 157.931 400.172 157.861 400.335C157.791 400.522 157.721 400.697 157.651 400.86C157.581 401.023 157.546 401.198 157.546 401.385C157.546 401.712 157.64 401.933 157.826 402.05C158.013 402.19 158.246 402.26 158.526 402.26C159.25 402.26 159.88 401.922 160.416 401.245C160.953 400.568 161.385 399.81 161.711 398.97L163.426 394.665L157.336 379.3H155.656V378.95H163.636V379.3H161.606L165.491 389.45L169.516 379.3H167.276V378.95ZM180.036 379.3H178.111V386.3H179.336L185.496 379.3H183.221V378.95H188.121V379.3H185.986L182.171 383.605L188.156 393.65H189.836V394H181.716V393.65H183.396L179.336 386.65H178.111V393.65H180.036V394H171.811V393.65H173.911V379.3H171.811V378.95H180.036V379.3ZM197.418 378.95C199.752 378.95 201.478 379.23 202.598 379.79C203.718 380.327 204.278 381.225 204.278 382.485C204.278 383.512 203.823 384.34 202.913 384.97C202.003 385.577 200.79 385.938 199.273 386.055C200.113 386.102 200.872 386.207 201.548 386.37C202.248 386.533 202.843 386.767 203.333 387.07C203.847 387.373 204.243 387.747 204.523 388.19C204.803 388.61 204.943 389.123 204.943 389.73C204.943 391.06 204.348 392.11 203.158 392.88C201.992 393.627 200.09 394 197.453 394H189.858V393.65H191.958V379.3H189.858V378.95H197.418ZM196.158 386.3V393.65H197.453C198.737 393.65 199.635 393.3 200.148 392.6C200.685 391.877 200.953 390.967 200.953 389.87C200.953 388.843 200.662 387.992 200.078 387.315C199.518 386.638 198.562 386.3 197.208 386.3H196.158ZM196.158 379.3V385.95H197.278C198.352 385.95 199.122 385.635 199.588 385.005C200.078 384.352 200.323 383.535 200.323 382.555C200.323 380.385 199.32 379.3 197.313 379.3H196.158ZM215.006 379.3H212.906V385.18C213.233 385.157 213.56 385.133 213.886 385.11C214.236 385.087 214.575 385.075 214.901 385.075C215.811 385.075 216.64 385.157 217.386 385.32C218.156 385.483 218.821 385.74 219.381 386.09C219.941 386.417 220.373 386.848 220.676 387.385C220.98 387.922 221.131 388.563 221.131 389.31C221.131 390.08 220.956 390.757 220.606 391.34C220.256 391.923 219.755 392.413 219.101 392.81C218.471 393.207 217.713 393.51 216.826 393.72C215.94 393.907 214.96 394 213.886 394H206.606V393.65H208.706V379.3H206.606V378.95H215.006V379.3ZM229.531 394H221.131V393.65H223.231V379.3H221.131V378.95H229.531V379.3H227.431V393.65H229.531V394ZM214.061 385.46C213.875 385.46 213.676 385.472 213.466 385.495C213.28 385.495 213.093 385.507 212.906 385.53V393.65H213.956C214.586 393.65 215.1 393.533 215.496 393.3C215.916 393.043 216.243 392.717 216.476 392.32C216.71 391.923 216.873 391.468 216.966 390.955C217.06 390.442 217.106 389.917 217.106 389.38C217.106 388.19 216.85 387.245 216.336 386.545C215.846 385.822 215.088 385.46 214.061 385.46ZM249.101 392.915C248.658 391.702 248.051 390.628 247.281 389.695C246.534 388.762 245.764 387.91 244.971 387.14C244.854 387.023 244.749 386.93 244.656 386.86C244.586 386.767 244.551 386.638 244.551 386.475C244.551 386.312 244.586 386.195 244.656 386.125C244.749 386.032 244.854 385.927 244.971 385.81C245.764 385.04 246.534 384.188 247.281 383.255C248.051 382.322 248.658 381.248 249.101 380.035L249.311 380.07C249.194 380.607 249.054 381.178 248.891 381.785C248.751 382.392 248.588 382.987 248.401 383.57C248.238 384.13 248.063 384.667 247.876 385.18C247.689 385.693 247.514 386.125 247.351 386.475C247.514 386.825 247.689 387.257 247.876 387.77C248.063 388.283 248.238 388.832 248.401 389.415C248.588 389.975 248.751 390.558 248.891 391.165C249.054 391.772 249.194 392.343 249.311 392.88L249.101 392.915ZM243.781 392.915C243.338 391.702 242.731 390.628 241.961 389.695C241.214 388.762 240.444 387.91 239.651 387.14C239.534 387.023 239.429 386.93 239.336 386.86C239.266 386.767 239.231 386.638 239.231 386.475C239.231 386.312 239.266 386.195 239.336 386.125C239.429 386.032 239.534 385.927 239.651 385.81C240.444 385.04 241.214 384.188 241.961 383.255C242.731 382.322 243.338 381.248 243.781 380.035L243.991 380.07C243.874 380.607 243.734 381.178 243.571 381.785C243.431 382.392 243.268 382.987 243.081 383.57C242.918 384.13 242.743 384.667 242.556 385.18C242.369 385.693 242.194 386.125 242.031 386.475C242.194 386.825 242.369 387.257 242.556 387.77C242.743 388.283 242.918 388.832 243.081 389.415C243.268 389.975 243.431 390.558 243.571 391.165C243.734 391.772 243.874 392.343 243.991 392.88L243.781 392.915ZM260.085 379.3H258.16V386.3H259.385L265.545 379.3H263.27V378.95H268.17V379.3H266.035L262.22 383.605L268.205 393.65H269.885V394H261.765V393.65H263.445L259.385 386.65H258.16V393.65H260.085V394H251.86V393.65H253.96V379.3H251.86V378.95H260.085V379.3ZM276.592 392.88C276.685 392.343 276.814 391.772 276.977 391.165C277.14 390.558 277.304 389.975 277.467 389.415C277.654 388.832 277.84 388.283 278.027 387.77C278.214 387.257 278.389 386.825 278.552 386.475C278.389 386.125 278.214 385.693 278.027 385.18C277.84 384.667 277.654 384.13 277.467 383.57C277.304 382.987 277.14 382.392 276.977 381.785C276.814 381.178 276.685 380.607 276.592 380.07L276.802 380.035C277.245 381.248 277.84 382.322 278.587 383.255C279.357 384.188 280.139 385.04 280.932 385.81C281.049 385.927 281.142 386.032 281.212 386.125C281.305 386.195 281.352 386.312 281.352 386.475C281.352 386.638 281.305 386.767 281.212 386.86C281.142 386.93 281.049 387.023 280.932 387.14C280.139 387.91 279.357 388.762 278.587 389.695C277.84 390.628 277.245 391.702 276.802 392.915L276.592 392.88ZM271.272 392.88C271.365 392.343 271.494 391.772 271.657 391.165C271.82 390.558 271.984 389.975 272.147 389.415C272.334 388.832 272.52 388.283 272.707 387.77C272.894 387.257 273.069 386.825 273.232 386.475C273.069 386.125 272.894 385.693 272.707 385.18C272.52 384.667 272.334 384.13 272.147 383.57C271.984 382.987 271.82 382.392 271.657 381.785C271.494 381.178 271.365 380.607 271.272 380.07L271.482 380.035C271.925 381.248 272.52 382.322 273.267 383.255C274.037 384.188 274.819 385.04 275.612 385.81C275.729 385.927 275.822 386.032 275.892 386.125C275.985 386.195 276.032 386.312 276.032 386.475C276.032 386.638 275.985 386.767 275.892 386.86C275.822 386.93 275.729 387.023 275.612 387.14C274.819 387.91 274.037 388.762 273.267 389.695C272.52 390.628 271.925 391.702 271.482 392.915L271.272 392.88ZM299.43 379.3H297.33V393.16L302.895 378.95H309.23V379.3H307.13V393.65H309.23V394H300.83V393.65H302.93V379.86L297.365 394H291.03V393.65H293.13V379.3H291.03V378.95H299.43V379.3ZM328.774 392.915C328.33 391.702 327.724 390.628 326.954 389.695C326.207 388.762 325.437 387.91 324.644 387.14C324.527 387.023 324.422 386.93 324.329 386.86C324.259 386.767 324.224 386.638 324.224 386.475C324.224 386.312 324.259 386.195 324.329 386.125C324.422 386.032 324.527 385.927 324.644 385.81C325.437 385.04 326.207 384.188 326.954 383.255C327.724 382.322 328.33 381.248 328.774 380.035L328.984 380.07C328.867 380.607 328.727 381.178 328.564 381.785C328.424 382.392 328.26 382.987 328.074 383.57C327.91 384.13 327.735 384.667 327.549 385.18C327.362 385.693 327.187 386.125 327.024 386.475C327.187 386.825 327.362 387.257 327.549 387.77C327.735 388.283 327.91 388.832 328.074 389.415C328.26 389.975 328.424 390.558 328.564 391.165C328.727 391.772 328.867 392.343 328.984 392.88L328.774 392.915ZM323.454 392.915C323.01 391.702 322.404 390.628 321.634 389.695C320.887 388.762 320.117 387.91 319.324 387.14C319.207 387.023 319.102 386.93 319.009 386.86C318.939 386.767 318.904 386.638 318.904 386.475C318.904 386.312 318.939 386.195 319.009 386.125C319.102 386.032 319.207 385.927 319.324 385.81C320.117 385.04 320.887 384.188 321.634 383.255C322.404 382.322 323.01 381.248 323.454 380.035L323.664 380.07C323.547 380.607 323.407 381.178 323.244 381.785C323.104 382.392 322.94 382.987 322.754 383.57C322.59 384.13 322.415 384.667 322.229 385.18C322.042 385.693 321.867 386.125 321.704 386.475C321.867 386.825 322.042 387.257 322.229 387.77C322.415 388.283 322.59 388.832 322.754 389.415C322.94 389.975 323.104 390.558 323.244 391.165C323.407 391.772 323.547 392.343 323.664 392.88L323.454 392.915ZM347.633 394H339.443V393.65H341.543V386.65H340.318L336.573 393.65H338.393V394H330.413V393.65H332.058L337.658 383.675L334.088 379.3H332.023V378.95H336.888V379.3H334.578L340.388 386.3H341.543V379.3H339.443V378.95H347.633V379.3H345.533V386.3H346.723L352.463 379.3H350.188V378.95H355.053V379.3H352.953L349.488 383.535L355.088 393.65H356.768V394H348.683V393.65H350.468L346.758 386.65H345.533V393.65H347.633V394ZM363.477 392.88C363.57 392.343 363.698 391.772 363.862 391.165C364.025 390.558 364.188 389.975 364.352 389.415C364.538 388.832 364.725 388.283 364.912 387.77C365.098 387.257 365.273 386.825 365.437 386.475C365.273 386.125 365.098 385.693 364.912 385.18C364.725 384.667 364.538 384.13 364.352 383.57C364.188 382.987 364.025 382.392 363.862 381.785C363.698 381.178 363.57 380.607 363.477 380.07L363.687 380.035C364.13 381.248 364.725 382.322 365.472 383.255C366.242 384.188 367.023 385.04 367.817 385.81C367.933 385.927 368.027 386.032 368.097 386.125C368.19 386.195 368.237 386.312 368.237 386.475C368.237 386.638 368.19 386.767 368.097 386.86C368.027 386.93 367.933 387.023 367.817 387.14C367.023 387.91 366.242 388.762 365.472 389.695C364.725 390.628 364.13 391.702 363.687 392.915L363.477 392.88ZM358.157 392.88C358.25 392.343 358.378 391.772 358.542 391.165C358.705 390.558 358.868 389.975 359.032 389.415C359.218 388.832 359.405 388.283 359.592 387.77C359.778 387.257 359.953 386.825 360.117 386.475C359.953 386.125 359.778 385.693 359.592 385.18C359.405 384.667 359.218 384.13 359.032 383.57C358.868 382.987 358.705 382.392 358.542 381.785C358.378 381.178 358.25 380.607 358.157 380.07L358.367 380.035C358.81 381.248 359.405 382.322 360.152 383.255C360.922 384.188 361.703 385.04 362.497 385.81C362.613 385.927 362.707 386.032 362.777 386.125C362.87 386.195 362.917 386.312 362.917 386.475C362.917 386.638 362.87 386.767 362.777 386.86C362.707 386.93 362.613 387.023 362.497 387.14C361.703 387.91 360.922 388.762 360.152 389.695C359.405 390.628 358.81 391.702 358.367 392.915L358.157 392.88Z" fill="#1C1C1C"/>
<path d="M89.2405 496.11H89.0205C88.9618 495.465 88.8298 494.871 88.6245 494.328C88.4338 493.771 88.1405 493.294 87.7445 492.898C87.3631 492.487 86.8791 492.172 86.2925 491.952C85.7205 491.717 85.0238 491.6 84.2025 491.6H82.5745V498.178C82.7798 498.149 82.9998 498.127 83.2345 498.112C83.4838 498.097 83.7478 498.09 84.0265 498.09C84.9065 498.09 85.7278 498.171 86.4905 498.332C87.2531 498.479 87.9205 498.728 88.4925 499.08C89.0645 499.417 89.5118 499.857 89.8345 500.4C90.1571 500.928 90.3185 501.573 90.3185 502.336C90.3185 503.084 90.1571 503.751 89.8345 504.338C89.5265 504.91 89.0791 505.394 88.4925 505.79C87.9205 506.186 87.2238 506.487 86.4025 506.692C85.5811 506.897 84.6571 507 83.6305 507H77.9105V506.78H79.6265V491.6H77.9105V491.38H89.2405V496.11ZM83.6305 498.332C83.2491 498.332 82.8971 498.354 82.5745 498.398V506.78H83.4105C84.1585 506.78 84.7745 506.67 85.2585 506.45C85.7425 506.215 86.1238 505.907 86.4025 505.526C86.6958 505.13 86.8938 504.668 86.9965 504.14C87.1138 503.612 87.1725 503.047 87.1725 502.446C87.1725 501.83 87.1138 501.273 86.9965 500.774C86.8791 500.261 86.6811 499.828 86.4025 499.476C86.1238 499.109 85.7571 498.831 85.3025 498.64C84.8625 498.435 84.3051 498.332 83.6305 498.332ZM97.9131 497.54H100.641V497.76H99.5851L94.6351 510.234C94.3124 511.041 93.9604 511.62 93.5791 511.972C93.1978 512.324 92.6844 512.5 92.0391 512.5C91.3351 512.5 90.7851 512.317 90.3891 511.95C89.9931 511.598 89.7951 511.121 89.7951 510.52C89.7951 510.051 89.9198 509.677 90.1691 509.398C90.4038 509.134 90.7044 509.002 91.0711 509.002C91.4378 509.002 91.7164 509.119 91.9071 509.354C92.0978 509.589 92.1931 509.875 92.1931 510.212C92.1931 510.373 92.1711 510.513 92.1271 510.63C92.0831 510.762 92.0391 510.879 91.9951 510.982C91.9511 511.099 91.9071 511.209 91.8631 511.312C91.8191 511.415 91.7971 511.525 91.7971 511.642C91.7971 511.847 91.8558 511.987 91.9731 512.06C92.0904 512.148 92.2371 512.192 92.4131 512.192C92.8678 512.192 93.2638 511.979 93.6011 511.554C93.9384 511.129 94.2098 510.652 94.4151 510.124L95.4931 507.418L91.6651 497.76H90.6091V497.54H95.6251V497.76H94.3491L96.7911 504.14L99.3211 497.76H97.9131V497.54ZM105.934 497.76H104.724V502.16H105.494L109.366 497.76H107.936V497.54H111.016V497.76H109.674L107.276 500.466L111.038 506.78H112.094V507H106.99V506.78H108.046L105.494 502.38H104.724V506.78H105.934V507H100.764V506.78H102.084V497.76H100.764V497.54H105.934V497.76ZM116.859 497.54C118.326 497.54 119.411 497.716 120.115 498.068C120.819 498.405 121.171 498.97 121.171 499.762C121.171 500.407 120.885 500.928 120.313 501.324C119.741 501.705 118.979 501.933 118.025 502.006C118.553 502.035 119.03 502.101 119.455 502.204C119.895 502.307 120.269 502.453 120.577 502.644C120.9 502.835 121.149 503.069 121.325 503.348C121.501 503.612 121.589 503.935 121.589 504.316C121.589 505.152 121.215 505.812 120.467 506.296C119.734 506.765 118.539 507 116.881 507H112.107V506.78H113.427V497.76H112.107V497.54H116.859ZM116.067 502.16V506.78H116.881C117.688 506.78 118.253 506.56 118.575 506.12C118.913 505.665 119.081 505.093 119.081 504.404C119.081 503.759 118.898 503.223 118.531 502.798C118.179 502.373 117.578 502.16 116.727 502.16H116.067ZM116.067 497.76V501.94H116.771C117.446 501.94 117.93 501.742 118.223 501.346C118.531 500.935 118.685 500.422 118.685 499.806C118.685 498.442 118.055 497.76 116.793 497.76H116.067ZM125.583 507.132C124.659 507.132 123.977 506.927 123.537 506.516C123.097 506.105 122.877 505.533 122.877 504.8C122.877 503.891 123.229 503.209 123.933 502.754C124.637 502.285 125.744 502.05 127.255 502.05H128.179V500.642C128.179 500.07 128.157 499.593 128.113 499.212C128.069 498.816 127.988 498.508 127.871 498.288C127.768 498.053 127.614 497.885 127.409 497.782C127.203 497.679 126.947 497.628 126.639 497.628C126.257 497.628 125.942 497.709 125.693 497.87C125.443 498.017 125.319 498.288 125.319 498.684C125.319 498.933 125.355 499.139 125.429 499.3C125.517 499.447 125.561 499.637 125.561 499.872C125.561 500.165 125.465 500.415 125.275 500.62C125.099 500.825 124.827 500.928 124.461 500.928C123.757 500.928 123.405 500.547 123.405 499.784C123.405 499.036 123.742 498.457 124.417 498.046C125.091 497.621 125.986 497.408 127.101 497.408C127.511 497.408 127.937 497.452 128.377 497.54C128.817 497.628 129.22 497.811 129.587 498.09C129.953 498.369 130.247 498.772 130.467 499.3C130.701 499.828 130.819 500.525 130.819 501.39V505.79C130.819 506.479 131.031 506.824 131.457 506.824C131.706 506.824 131.904 506.736 132.051 506.56C132.212 506.384 132.337 506.171 132.425 505.922L132.601 505.988C132.483 506.325 132.3 506.604 132.051 506.824C131.816 507.029 131.383 507.132 130.753 507.132C130.034 507.132 129.44 506.963 128.971 506.626C128.516 506.289 128.289 505.687 128.289 504.822V504.712H128.245C128.083 505.621 127.79 506.252 127.365 506.604C126.939 506.956 126.345 507.132 125.583 507.132ZM126.441 506.692C126.807 506.692 127.101 506.567 127.321 506.318C127.555 506.069 127.731 505.753 127.849 505.372C127.981 504.991 128.069 504.573 128.113 504.118C128.157 503.649 128.179 503.194 128.179 502.754V502.27H127.519C126.771 502.27 126.221 502.483 125.869 502.908C125.517 503.333 125.341 503.986 125.341 504.866C125.341 505.409 125.414 505.849 125.561 506.186C125.722 506.523 126.015 506.692 126.441 506.692ZM144.275 506.318C143.997 505.555 143.615 504.881 143.131 504.294C142.662 503.707 142.178 503.172 141.679 502.688C141.606 502.615 141.54 502.556 141.481 502.512C141.437 502.453 141.415 502.373 141.415 502.27C141.415 502.167 141.437 502.094 141.481 502.05C141.54 501.991 141.606 501.925 141.679 501.852C142.178 501.368 142.662 500.833 143.131 500.246C143.615 499.659 143.997 498.985 144.275 498.222L144.407 498.244C144.334 498.581 144.246 498.941 144.143 499.322C144.055 499.703 143.953 500.077 143.835 500.444C143.733 500.796 143.623 501.133 143.505 501.456C143.388 501.779 143.278 502.05 143.175 502.27C143.278 502.49 143.388 502.761 143.505 503.084C143.623 503.407 143.733 503.751 143.835 504.118C143.953 504.47 144.055 504.837 144.143 505.218C144.246 505.599 144.334 505.959 144.407 506.296L144.275 506.318ZM140.931 506.318C140.653 505.555 140.271 504.881 139.787 504.294C139.318 503.707 138.834 503.172 138.335 502.688C138.262 502.615 138.196 502.556 138.137 502.512C138.093 502.453 138.071 502.373 138.071 502.27C138.071 502.167 138.093 502.094 138.137 502.05C138.196 501.991 138.262 501.925 138.335 501.852C138.834 501.368 139.318 500.833 139.787 500.246C140.271 499.659 140.653 498.985 140.931 498.222L141.063 498.244C140.99 498.581 140.902 498.941 140.799 499.322C140.711 499.703 140.609 500.077 140.491 500.444C140.389 500.796 140.279 501.133 140.161 501.456C140.044 501.779 139.934 502.05 139.831 502.27C139.934 502.49 140.044 502.761 140.161 503.084C140.279 503.407 140.389 503.751 140.491 504.118C140.609 504.47 140.711 504.837 140.799 505.218C140.902 505.599 140.99 505.959 141.063 506.296L140.931 506.318ZM156.13 507H150.982V506.78H152.302V502.38H151.532L149.178 506.78H150.322V507H145.306V506.78H146.34L149.86 500.51L147.616 497.76H146.318V497.54H149.376V497.76H147.924L151.576 502.16H152.302V497.76H150.982V497.54H156.13V497.76H154.81V502.16H155.558L159.166 497.76H157.736V497.54H160.794V497.76H159.474L157.296 500.422L160.816 506.78H161.872V507H156.79V506.78H157.912L155.58 502.38H154.81V506.78H156.13V507ZM166.089 506.296C166.147 505.959 166.228 505.599 166.331 505.218C166.433 504.837 166.536 504.47 166.639 504.118C166.756 503.751 166.873 503.407 166.991 503.084C167.108 502.761 167.218 502.49 167.321 502.27C167.218 502.05 167.108 501.779 166.991 501.456C166.873 501.133 166.756 500.796 166.639 500.444C166.536 500.077 166.433 499.703 166.331 499.322C166.228 498.941 166.147 498.581 166.089 498.244L166.221 498.222C166.499 498.985 166.873 499.659 167.343 500.246C167.827 500.833 168.318 501.368 168.817 501.852C168.89 501.925 168.949 501.991 168.993 502.05C169.051 502.094 169.081 502.167 169.081 502.27C169.081 502.373 169.051 502.453 168.993 502.512C168.949 502.556 168.89 502.615 168.817 502.688C168.318 503.172 167.827 503.707 167.343 504.294C166.873 504.881 166.499 505.555 166.221 506.318L166.089 506.296ZM162.745 506.296C162.803 505.959 162.884 505.599 162.987 505.218C163.089 504.837 163.192 504.47 163.295 504.118C163.412 503.751 163.529 503.407 163.647 503.084C163.764 502.761 163.874 502.49 163.977 502.27C163.874 502.05 163.764 501.779 163.647 501.456C163.529 501.133 163.412 500.796 163.295 500.444C163.192 500.077 163.089 499.703 162.987 499.322C162.884 498.941 162.803 498.581 162.745 498.244L162.877 498.222C163.155 498.985 163.529 499.659 163.999 500.246C164.483 500.833 164.974 501.368 165.473 501.852C165.546 501.925 165.605 501.991 165.649 502.05C165.707 502.094 165.737 502.167 165.737 502.27C165.737 502.373 165.707 502.453 165.649 502.512C165.605 502.556 165.546 502.615 165.473 502.688C164.974 503.172 164.483 503.707 163.999 504.294C163.529 504.881 163.155 505.555 162.877 506.318L162.745 506.296ZM180.312 507.132C179.52 507.132 178.823 507.007 178.222 506.758C177.635 506.494 177.137 506.142 176.726 505.702C176.33 505.262 176.029 504.756 175.824 504.184C175.619 503.612 175.516 503.003 175.516 502.358C175.516 501.683 175.626 501.045 175.846 500.444C176.066 499.843 176.381 499.322 176.792 498.882C177.217 498.427 177.723 498.068 178.31 497.804C178.911 497.54 179.586 497.408 180.334 497.408C180.906 497.408 181.412 497.489 181.852 497.65C182.307 497.797 182.681 497.995 182.974 498.244C183.282 498.479 183.517 498.75 183.678 499.058C183.839 499.366 183.92 499.674 183.92 499.982C183.92 500.334 183.817 500.62 183.612 500.84C183.421 501.045 183.121 501.148 182.71 501.148C182.285 501.148 181.984 501.038 181.808 500.818C181.647 500.598 181.566 500.327 181.566 500.004C181.566 499.755 181.595 499.535 181.654 499.344C181.713 499.153 181.742 498.948 181.742 498.728C181.742 498.391 181.632 498.119 181.412 497.914C181.207 497.709 180.891 497.606 180.466 497.606C179.997 497.606 179.615 497.731 179.322 497.98C179.043 498.229 178.823 498.567 178.662 498.992C178.515 499.403 178.413 499.887 178.354 500.444C178.295 500.987 178.266 501.566 178.266 502.182C178.266 502.857 178.303 503.48 178.376 504.052C178.449 504.624 178.574 505.123 178.75 505.548C178.941 505.959 179.19 506.281 179.498 506.516C179.806 506.751 180.202 506.868 180.686 506.868C181.185 506.868 181.617 506.787 181.984 506.626C182.365 506.45 182.688 506.237 182.952 505.988C183.216 505.739 183.429 505.475 183.59 505.196C183.766 504.917 183.891 504.668 183.964 504.448L184.184 504.536C184.067 504.844 183.905 505.152 183.7 505.46C183.509 505.768 183.26 506.047 182.952 506.296C182.644 506.545 182.27 506.751 181.83 506.912C181.39 507.059 180.884 507.132 180.312 507.132ZM190.348 507.132C189.483 507.132 188.735 506.985 188.104 506.692C187.488 506.384 186.975 505.995 186.564 505.526C186.168 505.042 185.875 504.514 185.684 503.942C185.494 503.37 185.398 502.813 185.398 502.27C185.398 501.727 185.494 501.17 185.684 500.598C185.875 500.026 186.168 499.505 186.564 499.036C186.975 498.552 187.488 498.163 188.104 497.87C188.735 497.562 189.483 497.408 190.348 497.408C191.214 497.408 191.954 497.562 192.57 497.87C193.201 498.163 193.714 498.552 194.11 499.036C194.521 499.505 194.822 500.026 195.012 500.598C195.203 501.17 195.298 501.727 195.298 502.27C195.298 502.813 195.203 503.37 195.012 503.942C194.822 504.514 194.521 505.042 194.11 505.526C193.714 505.995 193.201 506.384 192.57 506.692C191.954 506.985 191.214 507.132 190.348 507.132ZM190.348 506.956C190.862 506.956 191.265 506.831 191.558 506.582C191.852 506.318 192.072 505.973 192.218 505.548C192.365 505.108 192.453 504.609 192.482 504.052C192.526 503.48 192.548 502.886 192.548 502.27C192.548 501.654 192.526 501.067 192.482 500.51C192.453 499.938 192.365 499.439 192.218 499.014C192.072 498.574 191.852 498.229 191.558 497.98C191.265 497.716 190.862 497.584 190.348 497.584C189.835 497.584 189.432 497.716 189.138 497.98C188.845 498.229 188.625 498.574 188.478 499.014C188.332 499.439 188.236 499.938 188.192 500.51C188.163 501.067 188.148 501.654 188.148 502.27C188.148 502.886 188.163 503.48 188.192 504.052C188.236 504.609 188.332 505.108 188.478 505.548C188.625 505.973 188.845 506.318 189.138 506.582C189.432 506.831 189.835 506.956 190.348 506.956ZM201.517 507.132C200.725 507.132 200.028 507.007 199.427 506.758C198.84 506.494 198.342 506.142 197.931 505.702C197.535 505.262 197.234 504.756 197.029 504.184C196.824 503.612 196.721 503.003 196.721 502.358C196.721 501.683 196.831 501.045 197.051 500.444C197.271 499.843 197.586 499.322 197.997 498.882C198.422 498.427 198.928 498.068 199.515 497.804C200.116 497.54 200.791 497.408 201.539 497.408C202.111 497.408 202.617 497.489 203.057 497.65C203.512 497.797 203.886 497.995 204.179 498.244C204.487 498.479 204.722 498.75 204.883 499.058C205.044 499.366 205.125 499.674 205.125 499.982C205.125 500.334 205.022 500.62 204.817 500.84C204.626 501.045 204.326 501.148 203.915 501.148C203.49 501.148 203.189 501.038 203.013 500.818C202.852 500.598 202.771 500.327 202.771 500.004C202.771 499.755 202.8 499.535 202.859 499.344C202.918 499.153 202.947 498.948 202.947 498.728C202.947 498.391 202.837 498.119 202.617 497.914C202.412 497.709 202.096 497.606 201.671 497.606C201.202 497.606 200.82 497.731 200.527 497.98C200.248 498.229 200.028 498.567 199.867 498.992C199.72 499.403 199.618 499.887 199.559 500.444C199.5 500.987 199.471 501.566 199.471 502.182C199.471 502.857 199.508 503.48 199.581 504.052C199.654 504.624 199.779 505.123 199.955 505.548C200.146 505.959 200.395 506.281 200.703 506.516C201.011 506.751 201.407 506.868 201.891 506.868C202.39 506.868 202.822 506.787 203.189 506.626C203.57 506.45 203.893 506.237 204.157 505.988C204.421 505.739 204.634 505.475 204.795 505.196C204.971 504.917 205.096 504.668 205.169 504.448L205.389 504.536C205.272 504.844 205.11 505.152 204.905 505.46C204.714 505.768 204.465 506.047 204.157 506.296C203.849 506.545 203.475 506.751 203.035 506.912C202.595 507.059 202.089 507.132 201.517 507.132ZM213.841 507H208.561V506.78H209.881V497.76H209.331C208.862 497.76 208.466 497.833 208.143 497.98C207.821 498.127 207.557 498.332 207.351 498.596C207.146 498.845 206.977 499.153 206.845 499.52C206.728 499.872 206.633 500.253 206.559 500.664H206.361V497.54H216.041V500.664H215.843C215.77 500.253 215.667 499.872 215.535 499.52C215.418 499.153 215.257 498.845 215.051 498.596C214.846 498.332 214.582 498.127 214.259 497.98C213.937 497.833 213.541 497.76 213.071 497.76H212.521V506.78H213.841V507ZM222.167 507.132C221.301 507.132 220.553 506.985 219.923 506.692C219.307 506.384 218.793 505.995 218.383 505.526C217.987 505.042 217.693 504.514 217.503 503.942C217.312 503.37 217.217 502.813 217.217 502.27C217.217 501.727 217.312 501.17 217.503 500.598C217.693 500.026 217.987 499.505 218.383 499.036C218.793 498.552 219.307 498.163 219.923 497.87C220.553 497.562 221.301 497.408 222.167 497.408C223.032 497.408 223.773 497.562 224.389 497.87C225.019 498.163 225.533 498.552 225.929 499.036C226.339 499.505 226.64 500.026 226.831 500.598C227.021 501.17 227.117 501.727 227.117 502.27C227.117 502.813 227.021 503.37 226.831 503.942C226.64 504.514 226.339 505.042 225.929 505.526C225.533 505.995 225.019 506.384 224.389 506.692C223.773 506.985 223.032 507.132 222.167 507.132ZM222.167 506.956C222.68 506.956 223.083 506.831 223.377 506.582C223.67 506.318 223.89 505.973 224.037 505.548C224.183 505.108 224.271 504.609 224.301 504.052C224.345 503.48 224.367 502.886 224.367 502.27C224.367 501.654 224.345 501.067 224.301 500.51C224.271 499.938 224.183 499.439 224.037 499.014C223.89 498.574 223.67 498.229 223.377 497.98C223.083 497.716 222.68 497.584 222.167 497.584C221.653 497.584 221.25 497.716 220.957 497.98C220.663 498.229 220.443 498.574 220.297 499.014C220.15 499.439 220.055 499.938 220.011 500.51C219.981 501.067 219.967 501.654 219.967 502.27C219.967 502.886 219.981 503.48 220.011 504.052C220.055 504.609 220.15 505.108 220.297 505.548C220.443 505.973 220.663 506.318 220.957 506.582C221.25 506.831 221.653 506.956 222.167 506.956ZM233.467 497.76H232.147V506.472L235.645 497.54H239.627V497.76H238.307V506.78H239.627V507H234.347V506.78H235.667V498.112L232.169 507H228.187V506.78H229.507V497.76H228.187V497.54H233.467V497.76ZM247.937 507H242.657V506.78H243.977V497.76H243.427C242.958 497.76 242.562 497.833 242.239 497.98C241.916 498.127 241.652 498.332 241.447 498.596C241.242 498.845 241.073 499.153 240.941 499.52C240.824 499.872 240.728 500.253 240.655 500.664H240.457V497.54H250.137V500.664H249.939C249.866 500.253 249.763 499.872 249.631 499.52C249.514 499.153 249.352 498.845 249.147 498.596C248.942 498.332 248.678 498.127 248.355 497.98C248.032 497.833 247.636 497.76 247.167 497.76H246.617V506.78H247.937V507ZM261.139 497.76H259.819V506.472L263.317 497.54H267.299V497.76H265.979V506.78H267.299V507H262.019V506.78H263.339V498.112L259.841 507H255.859V506.78H257.179V497.76H255.859V497.54H261.139V497.76ZM271.363 501.852C272.067 501.852 272.588 501.639 272.925 501.214C273.262 500.789 273.431 500.29 273.431 499.718C273.431 499.117 273.306 498.611 273.057 498.2C272.808 497.789 272.419 497.584 271.891 497.584C271.51 497.584 271.15 497.679 270.813 497.87C270.49 498.046 270.212 498.288 269.977 498.596C269.552 499.139 269.244 499.879 269.053 500.818H268.855V497.452H269.031C269.06 497.555 269.104 497.643 269.163 497.716C269.222 497.789 269.317 497.826 269.449 497.826C269.742 497.826 270.102 497.76 270.527 497.628C270.952 497.481 271.429 497.408 271.957 497.408C272.529 497.408 273.05 497.459 273.519 497.562C274.003 497.665 274.414 497.811 274.751 498.002C275.103 498.193 275.374 498.435 275.565 498.728C275.756 499.007 275.851 499.329 275.851 499.696C275.851 500.356 275.572 500.877 275.015 501.258C274.472 501.639 273.651 501.867 272.551 501.94C273.68 502.013 274.568 502.241 275.213 502.622C275.873 503.003 276.203 503.583 276.203 504.36C276.203 504.8 276.086 505.196 275.851 505.548C275.616 505.885 275.301 506.171 274.905 506.406C274.509 506.641 274.04 506.824 273.497 506.956C272.954 507.073 272.375 507.132 271.759 507.132C271.26 507.132 270.798 507.088 270.373 507C269.948 506.897 269.574 506.751 269.251 506.56C268.943 506.369 268.694 506.135 268.503 505.856C268.327 505.563 268.239 505.233 268.239 504.866C268.239 504.455 268.342 504.125 268.547 503.876C268.752 503.612 269.046 503.48 269.427 503.48C269.764 503.48 270.014 503.583 270.175 503.788C270.336 503.993 270.417 504.235 270.417 504.514C270.417 504.763 270.366 504.991 270.263 505.196C270.175 505.401 270.131 505.614 270.131 505.834C270.131 506.171 270.263 506.443 270.527 506.648C270.806 506.853 271.216 506.956 271.759 506.956C272.111 506.956 272.412 506.89 272.661 506.758C272.91 506.611 273.116 506.428 273.277 506.208C273.438 505.973 273.556 505.702 273.629 505.394C273.702 505.086 273.739 504.756 273.739 504.404C273.739 503.656 273.534 503.084 273.123 502.688C272.727 502.277 272.133 502.072 271.341 502.072H270.879V501.852H271.363ZM291.749 497.76H290.429V506.78H291.859V510.124H291.661C291.602 509.713 291.514 509.317 291.397 508.936C291.279 508.555 291.118 508.217 290.913 507.924C290.707 507.645 290.451 507.418 290.143 507.242C289.849 507.081 289.49 507 289.065 507H284.885C284.459 507 284.093 507.081 283.785 507.242C283.477 507.403 283.213 507.623 282.993 507.902C282.773 508.195 282.597 508.525 282.465 508.892C282.347 509.273 282.259 509.684 282.201 510.124H282.003L282.025 506.78H282.773C283.095 506.751 283.367 506.575 283.587 506.252C283.807 505.929 283.983 505.548 284.115 505.108C284.261 504.653 284.371 504.169 284.445 503.656C284.518 503.143 284.569 502.673 284.599 502.248C284.657 501.471 284.694 500.745 284.709 500.07C284.723 499.381 284.731 498.611 284.731 497.76H283.411V497.54H291.749V497.76ZM284.841 502.226C284.811 502.666 284.767 503.113 284.709 503.568C284.65 504.008 284.562 504.433 284.445 504.844C284.342 505.255 284.21 505.629 284.049 505.966C283.902 506.303 283.726 506.575 283.521 506.78H287.789V497.76H284.973C284.973 498.185 284.973 498.581 284.973 498.948C284.973 499.315 284.965 499.674 284.951 500.026C284.936 500.378 284.921 500.737 284.907 501.104C284.892 501.456 284.87 501.83 284.841 502.226ZM297.285 497.54C298.752 497.54 299.837 497.716 300.541 498.068C301.245 498.405 301.597 498.97 301.597 499.762C301.597 500.407 301.311 500.928 300.739 501.324C300.167 501.705 299.405 501.933 298.451 502.006C298.979 502.035 299.456 502.101 299.881 502.204C300.321 502.307 300.695 502.453 301.003 502.644C301.326 502.835 301.575 503.069 301.751 503.348C301.927 503.612 302.015 503.935 302.015 504.316C302.015 505.152 301.641 505.812 300.893 506.296C300.16 506.765 298.965 507 297.307 507H292.533V506.78H293.853V497.76H292.533V497.54H297.285ZM296.493 502.16V506.78H297.307C298.114 506.78 298.679 506.56 299.001 506.12C299.339 505.665 299.507 505.093 299.507 504.404C299.507 503.759 299.324 503.223 298.957 502.798C298.605 502.373 298.004 502.16 297.153 502.16H296.493ZM296.493 497.76V501.94H297.197C297.872 501.94 298.356 501.742 298.649 501.346C298.957 500.935 299.111 500.422 299.111 499.806C299.111 498.442 298.481 497.76 297.219 497.76H296.493ZM309.556 497.54H312.284V497.76H311.228L306.278 510.234C305.955 511.041 305.603 511.62 305.222 511.972C304.84 512.324 304.327 512.5 303.682 512.5C302.978 512.5 302.428 512.317 302.032 511.95C301.636 511.598 301.438 511.121 301.438 510.52C301.438 510.051 301.562 509.677 301.812 509.398C302.046 509.134 302.347 509.002 302.714 509.002C303.08 509.002 303.359 509.119 303.55 509.354C303.74 509.589 303.836 509.875 303.836 510.212C303.836 510.373 303.814 510.513 303.77 510.63C303.726 510.762 303.682 510.879 303.638 510.982C303.594 511.099 303.55 511.209 303.506 511.312C303.462 511.415 303.44 511.525 303.44 511.642C303.44 511.847 303.498 511.987 303.616 512.06C303.733 512.148 303.88 512.192 304.056 512.192C304.51 512.192 304.906 511.979 305.244 511.554C305.581 511.129 305.852 510.652 306.058 510.124L307.136 507.418L303.308 497.76H302.252V497.54H307.268V497.76H305.992L308.434 504.14L310.964 497.76H309.556V497.54ZM317.686 506.78H319.006L316.586 502.886L313.55 506.78H314.98V507H311.9V506.78H313.264L316.454 502.666L313.44 497.76H312.208V497.54H317.752V497.76H316.432L318.324 500.862L320.634 497.76H319.204V497.54H322.284V497.76H320.92L318.478 501.082L321.998 506.78H323.23V507H317.686V506.78ZM331.455 501.852C332.159 501.852 332.679 501.639 333.017 501.214C333.354 500.789 333.523 500.29 333.523 499.718C333.523 499.117 333.398 498.611 333.149 498.2C332.899 497.789 332.511 497.584 331.983 497.584C331.601 497.584 331.242 497.679 330.905 497.87C330.582 498.046 330.303 498.288 330.069 498.596C329.643 499.139 329.335 499.879 329.145 500.818H328.947V497.452H329.123C329.152 497.555 329.196 497.643 329.255 497.716C329.313 497.789 329.409 497.826 329.541 497.826C329.834 497.826 330.193 497.76 330.619 497.628C331.044 497.481 331.521 497.408 332.049 497.408C332.621 497.408 333.141 497.459 333.611 497.562C334.095 497.665 334.505 497.811 334.843 498.002C335.195 498.193 335.466 498.435 335.657 498.728C335.847 499.007 335.943 499.329 335.943 499.696C335.943 500.356 335.664 500.877 335.107 501.258C334.564 501.639 333.743 501.867 332.643 501.94C333.772 502.013 334.659 502.241 335.305 502.622C335.965 503.003 336.295 503.583 336.295 504.36C336.295 504.8 336.177 505.196 335.943 505.548C335.708 505.885 335.393 506.171 334.997 506.406C334.601 506.641 334.131 506.824 333.589 506.956C333.046 507.073 332.467 507.132 331.851 507.132C331.352 507.132 330.89 507.088 330.465 507C330.039 506.897 329.665 506.751 329.343 506.56C329.035 506.369 328.785 506.135 328.595 505.856C328.419 505.563 328.331 505.233 328.331 504.866C328.331 504.455 328.433 504.125 328.639 503.876C328.844 503.612 329.137 503.48 329.519 503.48C329.856 503.48 330.105 503.583 330.267 503.788C330.428 503.993 330.509 504.235 330.509 504.514C330.509 504.763 330.457 504.991 330.355 505.196C330.267 505.401 330.223 505.614 330.223 505.834C330.223 506.171 330.355 506.443 330.619 506.648C330.897 506.853 331.308 506.956 331.851 506.956C332.203 506.956 332.503 506.89 332.753 506.758C333.002 506.611 333.207 506.428 333.369 506.208C333.53 505.973 333.647 505.702 333.721 505.394C333.794 505.086 333.831 504.756 333.831 504.404C333.831 503.656 333.625 503.084 333.215 502.688C332.819 502.277 332.225 502.072 331.433 502.072H330.971V501.852H331.455ZM342.806 507.132C341.955 507.132 341.207 507 340.562 506.736C339.931 506.472 339.403 506.12 338.978 505.68C338.552 505.24 338.23 504.734 338.01 504.162C337.804 503.575 337.702 502.959 337.702 502.314C337.702 501.727 337.79 501.148 337.966 500.576C338.156 499.989 338.442 499.461 338.824 498.992C339.205 498.523 339.689 498.141 340.276 497.848C340.862 497.555 341.566 497.408 342.388 497.408C343.136 497.408 343.774 497.533 344.302 497.782C344.844 498.017 345.284 498.339 345.622 498.75C345.974 499.161 346.223 499.63 346.37 500.158C346.531 500.686 346.612 501.243 346.612 501.83H340.452V502.292C340.452 502.981 340.481 503.612 340.54 504.184C340.598 504.741 340.716 505.218 340.892 505.614C341.082 506.01 341.346 506.318 341.684 506.538C342.036 506.758 342.505 506.868 343.092 506.868C343.62 506.868 344.067 506.795 344.434 506.648C344.815 506.487 345.13 506.289 345.38 506.054C345.644 505.819 345.849 505.57 345.996 505.306C346.157 505.042 346.274 504.8 346.348 504.58L346.568 504.668C346.45 504.976 346.296 505.277 346.106 505.57C345.93 505.863 345.688 506.127 345.38 506.362C345.086 506.597 344.727 506.787 344.302 506.934C343.876 507.066 343.378 507.132 342.806 507.132ZM342.212 497.584C341.874 497.584 341.588 497.694 341.354 497.914C341.134 498.119 340.958 498.405 340.826 498.772C340.694 499.124 340.598 499.549 340.54 500.048C340.496 500.532 340.466 501.053 340.452 501.61H344.016C344.016 501.214 343.994 500.781 343.95 500.312C343.906 499.843 343.818 499.41 343.686 499.014C343.568 498.603 343.392 498.266 343.158 498.002C342.923 497.723 342.608 497.584 342.212 497.584ZM347.38 497.54H351.296V500.136H351.34C351.443 499.769 351.568 499.417 351.714 499.08C351.876 498.743 352.074 498.457 352.308 498.222C352.558 497.973 352.851 497.775 353.188 497.628C353.54 497.481 353.966 497.408 354.464 497.408C355.08 497.408 355.645 497.525 356.158 497.76C356.686 497.98 357.134 498.295 357.5 498.706C357.882 499.117 358.175 499.608 358.38 500.18C358.6 500.752 358.71 501.375 358.71 502.05C358.71 502.739 358.6 503.392 358.38 504.008C358.175 504.609 357.882 505.145 357.5 505.614C357.134 506.083 356.679 506.457 356.136 506.736C355.608 507 355.029 507.132 354.398 507.132C353.929 507.132 353.526 507.059 353.188 506.912C352.851 506.765 352.565 506.575 352.33 506.34C352.096 506.105 351.905 505.834 351.758 505.526C351.612 505.218 351.487 504.895 351.384 504.558H351.34V512.148H352.66V512.368H347.38V512.148H348.7V497.76H347.38V497.54ZM353.914 506.802C354.325 506.802 354.662 506.67 354.926 506.406C355.19 506.142 355.396 505.797 355.542 505.372C355.704 504.947 355.814 504.463 355.872 503.92C355.931 503.377 355.96 502.827 355.96 502.27C355.96 501.713 355.931 501.163 355.872 500.62C355.814 500.077 355.704 499.593 355.542 499.168C355.396 498.743 355.19 498.398 354.926 498.134C354.662 497.87 354.325 497.738 353.914 497.738C353.166 497.738 352.55 498.127 352.066 498.904C351.582 499.681 351.34 500.752 351.34 502.116V502.424C351.34 503.788 351.582 504.859 352.066 505.636C352.55 506.413 353.166 506.802 353.914 506.802ZM364.992 497.76H363.782V502.16H364.552L368.424 497.76H366.994V497.54H370.074V497.76H368.732L366.334 500.466L370.096 506.78H371.152V507H366.048V506.78H367.104L364.552 502.38H363.782V506.78H364.992V507H359.822V506.78H361.142V497.76H359.822V497.54H364.992V497.76ZM374.114 507.132C373.19 507.132 372.508 506.927 372.068 506.516C371.628 506.105 371.408 505.533 371.408 504.8C371.408 503.891 371.76 503.209 372.464 502.754C373.168 502.285 374.275 502.05 375.786 502.05H376.71V500.642C376.71 500.07 376.688 499.593 376.644 499.212C376.6 498.816 376.519 498.508 376.402 498.288C376.299 498.053 376.145 497.885 375.94 497.782C375.735 497.679 375.478 497.628 375.17 497.628C374.789 497.628 374.473 497.709 374.224 497.87C373.975 498.017 373.85 498.288 373.85 498.684C373.85 498.933 373.887 499.139 373.96 499.3C374.048 499.447 374.092 499.637 374.092 499.872C374.092 500.165 373.997 500.415 373.806 500.62C373.63 500.825 373.359 500.928 372.992 500.928C372.288 500.928 371.936 500.547 371.936 499.784C371.936 499.036 372.273 498.457 372.948 498.046C373.623 497.621 374.517 497.408 375.632 497.408C376.043 497.408 376.468 497.452 376.908 497.54C377.348 497.628 377.751 497.811 378.118 498.09C378.485 498.369 378.778 498.772 378.998 499.3C379.233 499.828 379.35 500.525 379.35 501.39V505.79C379.35 506.479 379.563 506.824 379.988 506.824C380.237 506.824 380.435 506.736 380.582 506.56C380.743 506.384 380.868 506.171 380.956 505.922L381.132 505.988C381.015 506.325 380.831 506.604 380.582 506.824C380.347 507.029 379.915 507.132 379.284 507.132C378.565 507.132 377.971 506.963 377.502 506.626C377.047 506.289 376.82 505.687 376.82 504.822V504.712H376.776C376.615 505.621 376.321 506.252 375.896 506.604C375.471 506.956 374.877 507.132 374.114 507.132ZM374.972 506.692C375.339 506.692 375.632 506.567 375.852 506.318C376.087 506.069 376.263 505.753 376.38 505.372C376.512 504.991 376.6 504.573 376.644 504.118C376.688 503.649 376.71 503.194 376.71 502.754V502.27H376.05C375.302 502.27 374.752 502.483 374.4 502.908C374.048 503.333 373.872 503.986 373.872 504.866C373.872 505.409 373.945 505.849 374.092 506.186C374.253 506.523 374.547 506.692 374.972 506.692ZM392.057 507H386.777V506.78H388.097V497.76H385.281C385.281 498.728 385.274 499.615 385.259 500.422C385.244 501.229 385.2 502.043 385.127 502.864C385.083 503.333 385.024 503.825 384.951 504.338C384.878 504.837 384.76 505.299 384.599 505.724C384.452 506.135 384.24 506.472 383.961 506.736C383.697 507 383.36 507.132 382.949 507.132C382.48 507.132 382.084 506.985 381.761 506.692C381.453 506.384 381.299 505.988 381.299 505.504C381.299 505.064 381.416 504.719 381.651 504.47C381.886 504.221 382.172 504.096 382.509 504.096C382.802 504.096 383.022 504.184 383.169 504.36C383.316 504.521 383.389 504.741 383.389 505.02C383.389 505.181 383.367 505.321 383.323 505.438C383.279 505.555 383.228 505.673 383.169 505.79C383.11 505.907 383.059 506.025 383.015 506.142C382.971 506.259 382.949 506.384 382.949 506.516C382.949 506.633 382.978 506.714 383.037 506.758C383.096 506.787 383.162 506.802 383.235 506.802C383.543 506.802 383.8 506.655 384.005 506.362C384.225 506.054 384.401 505.673 384.533 505.218C384.65 504.851 384.731 504.463 384.775 504.052C384.834 503.641 384.878 503.223 384.907 502.798C384.966 501.991 385.002 501.192 385.017 500.4C385.032 499.608 385.039 498.728 385.039 497.76H383.719V497.54H392.057V497.76H390.737V506.78H392.057V507ZM398.059 497.76H396.739V501.456C396.945 501.441 397.15 501.427 397.355 501.412C397.575 501.397 397.788 501.39 397.993 501.39C398.565 501.39 399.086 501.441 399.555 501.544C400.039 501.647 400.457 501.808 400.809 502.028C401.161 502.233 401.433 502.505 401.623 502.842C401.814 503.179 401.909 503.583 401.909 504.052C401.909 504.536 401.799 504.961 401.579 505.328C401.359 505.695 401.044 506.003 400.633 506.252C400.237 506.501 399.761 506.692 399.203 506.824C398.646 506.941 398.03 507 397.355 507H392.779V506.78H394.099V497.76H392.779V497.54H398.059V497.76ZM397.465 501.632C397.348 501.632 397.223 501.639 397.091 501.654C396.974 501.654 396.857 501.661 396.739 501.676V506.78H397.399C397.795 506.78 398.118 506.707 398.367 506.56C398.631 506.399 398.837 506.193 398.983 505.944C399.13 505.695 399.233 505.409 399.291 505.086C399.35 504.763 399.379 504.433 399.379 504.096C399.379 503.348 399.218 502.754 398.895 502.314C398.587 501.859 398.111 501.632 397.465 501.632ZM407.92 507H402.684V506.78H404.004V497.76H402.684V497.54H407.964V497.76H406.644V502.116H410.098V497.76H408.778V497.54H414.058V497.76H412.738V506.78H414.058V507H408.822V506.78H410.098V502.336H406.644V506.78H407.92V507ZM420.081 507.132C419.215 507.132 418.467 506.985 417.837 506.692C417.221 506.384 416.707 505.995 416.297 505.526C415.901 505.042 415.607 504.514 415.417 503.942C415.226 503.37 415.131 502.813 415.131 502.27C415.131 501.727 415.226 501.17 415.417 500.598C415.607 500.026 415.901 499.505 416.297 499.036C416.707 498.552 417.221 498.163 417.837 497.87C418.467 497.562 419.215 497.408 420.081 497.408C420.946 497.408 421.687 497.562 422.303 497.87C422.933 498.163 423.447 498.552 423.843 499.036C424.253 499.505 424.554 500.026 424.745 500.598C424.935 501.17 425.031 501.727 425.031 502.27C425.031 502.813 424.935 503.37 424.745 503.942C424.554 504.514 424.253 505.042 423.843 505.526C423.447 505.995 422.933 506.384 422.303 506.692C421.687 506.985 420.946 507.132 420.081 507.132ZM420.081 506.956C420.594 506.956 420.997 506.831 421.291 506.582C421.584 506.318 421.804 505.973 421.951 505.548C422.097 505.108 422.185 504.609 422.215 504.052C422.259 503.48 422.281 502.886 422.281 502.27C422.281 501.654 422.259 501.067 422.215 500.51C422.185 499.938 422.097 499.439 421.951 499.014C421.804 498.574 421.584 498.229 421.291 497.98C420.997 497.716 420.594 497.584 420.081 497.584C419.567 497.584 419.164 497.716 418.871 497.98C418.577 498.229 418.357 498.574 418.211 499.014C418.064 499.439 417.969 499.938 417.925 500.51C417.895 501.067 417.881 501.654 417.881 502.27C417.881 502.886 417.895 503.48 417.925 504.052C417.969 504.609 418.064 505.108 418.211 505.548C418.357 505.973 418.577 506.318 418.871 506.582C419.164 506.831 419.567 506.956 420.081 506.956ZM156.425 533.132C155.559 533.132 154.811 532.985 154.181 532.692C153.565 532.384 153.051 531.995 152.641 531.526C152.245 531.042 151.951 530.514 151.761 529.942C151.57 529.37 151.475 528.813 151.475 528.27C151.475 527.727 151.57 527.17 151.761 526.598C151.951 526.026 152.245 525.505 152.641 525.036C153.051 524.552 153.565 524.163 154.181 523.87C154.811 523.562 155.559 523.408 156.425 523.408C157.29 523.408 158.031 523.562 158.647 523.87C159.277 524.163 159.791 524.552 160.187 525.036C160.597 525.505 160.898 526.026 161.089 526.598C161.279 527.17 161.375 527.727 161.375 528.27C161.375 528.813 161.279 529.37 161.089 529.942C160.898 530.514 160.597 531.042 160.187 531.526C159.791 531.995 159.277 532.384 158.647 532.692C158.031 532.985 157.29 533.132 156.425 533.132ZM156.425 532.956C156.938 532.956 157.341 532.831 157.635 532.582C157.928 532.318 158.148 531.973 158.295 531.548C158.441 531.108 158.529 530.609 158.559 530.052C158.603 529.48 158.625 528.886 158.625 528.27C158.625 527.654 158.603 527.067 158.559 526.51C158.529 525.938 158.441 525.439 158.295 525.014C158.148 524.574 157.928 524.229 157.635 523.98C157.341 523.716 156.938 523.584 156.425 523.584C155.911 523.584 155.508 523.716 155.215 523.98C154.921 524.229 154.701 524.574 154.555 525.014C154.408 525.439 154.313 525.938 154.269 526.51C154.239 527.067 154.225 527.654 154.225 528.27C154.225 528.886 154.239 529.48 154.269 530.052C154.313 530.609 154.408 531.108 154.555 531.548C154.701 531.973 154.921 532.318 155.215 532.582C155.508 532.831 155.911 532.956 156.425 532.956ZM170.013 533H164.733V532.78H166.053V523.76H165.503C165.034 523.76 164.638 523.833 164.315 523.98C163.993 524.127 163.729 524.332 163.523 524.596C163.318 524.845 163.149 525.153 163.017 525.52C162.9 525.872 162.805 526.253 162.731 526.664H162.533V523.54H172.213V526.664H172.015C171.942 526.253 171.839 525.872 171.707 525.52C171.59 525.153 171.429 524.845 171.223 524.596C171.018 524.332 170.754 524.127 170.431 523.98C170.109 523.833 169.713 523.76 169.243 523.76H168.693V532.78H170.013V533ZM172.949 523.54H176.865V526.136H176.909C177.011 525.769 177.136 525.417 177.283 525.08C177.444 524.743 177.642 524.457 177.877 524.222C178.126 523.973 178.419 523.775 178.757 523.628C179.109 523.481 179.534 523.408 180.033 523.408C180.649 523.408 181.213 523.525 181.727 523.76C182.255 523.98 182.702 524.295 183.069 524.706C183.45 525.117 183.743 525.608 183.949 526.18C184.169 526.752 184.279 527.375 184.279 528.05C184.279 528.739 184.169 529.392 183.949 530.008C183.743 530.609 183.45 531.145 183.069 531.614C182.702 532.083 182.247 532.457 181.705 532.736C181.177 533 180.597 533.132 179.967 533.132C179.497 533.132 179.094 533.059 178.757 532.912C178.419 532.765 178.133 532.575 177.899 532.34C177.664 532.105 177.473 531.834 177.327 531.526C177.18 531.218 177.055 530.895 176.953 530.558H176.909V538.148H178.229V538.368H172.949V538.148H174.269V523.76H172.949V523.54ZM179.483 532.802C179.893 532.802 180.231 532.67 180.495 532.406C180.759 532.142 180.964 531.797 181.111 531.372C181.272 530.947 181.382 530.463 181.441 529.92C181.499 529.377 181.529 528.827 181.529 528.27C181.529 527.713 181.499 527.163 181.441 526.62C181.382 526.077 181.272 525.593 181.111 525.168C180.964 524.743 180.759 524.398 180.495 524.134C180.231 523.87 179.893 523.738 179.483 523.738C178.735 523.738 178.119 524.127 177.635 524.904C177.151 525.681 176.909 526.752 176.909 528.116V528.424C176.909 529.788 177.151 530.859 177.635 531.636C178.119 532.413 178.735 532.802 179.483 532.802ZM188.339 533.132C187.415 533.132 186.733 532.927 186.293 532.516C185.853 532.105 185.633 531.533 185.633 530.8C185.633 529.891 185.985 529.209 186.689 528.754C187.393 528.285 188.5 528.05 190.011 528.05H190.935V526.642C190.935 526.07 190.913 525.593 190.869 525.212C190.825 524.816 190.744 524.508 190.627 524.288C190.524 524.053 190.37 523.885 190.165 523.782C189.959 523.679 189.703 523.628 189.395 523.628C189.013 523.628 188.698 523.709 188.449 523.87C188.199 524.017 188.075 524.288 188.075 524.684C188.075 524.933 188.111 525.139 188.185 525.3C188.273 525.447 188.317 525.637 188.317 525.872C188.317 526.165 188.221 526.415 188.031 526.62C187.855 526.825 187.583 526.928 187.217 526.928C186.513 526.928 186.161 526.547 186.161 525.784C186.161 525.036 186.498 524.457 187.173 524.046C187.847 523.621 188.742 523.408 189.857 523.408C190.267 523.408 190.693 523.452 191.133 523.54C191.573 523.628 191.976 523.811 192.343 524.09C192.709 524.369 193.003 524.772 193.223 525.3C193.457 525.828 193.575 526.525 193.575 527.39V531.79C193.575 532.479 193.787 532.824 194.213 532.824C194.462 532.824 194.66 532.736 194.807 532.56C194.968 532.384 195.093 532.171 195.181 531.922L195.357 531.988C195.239 532.325 195.056 532.604 194.807 532.824C194.572 533.029 194.139 533.132 193.509 533.132C192.79 533.132 192.196 532.963 191.727 532.626C191.272 532.289 191.045 531.687 191.045 530.822V530.712H191.001C190.839 531.621 190.546 532.252 190.121 532.604C189.695 532.956 189.101 533.132 188.339 533.132ZM189.197 532.692C189.563 532.692 189.857 532.567 190.077 532.318C190.311 532.069 190.487 531.753 190.605 531.372C190.737 530.991 190.825 530.573 190.869 530.118C190.913 529.649 190.935 529.194 190.935 528.754V528.27H190.275C189.527 528.27 188.977 528.483 188.625 528.908C188.273 529.333 188.097 529.986 188.097 530.866C188.097 531.409 188.17 531.849 188.317 532.186C188.478 532.523 188.771 532.692 189.197 532.692ZM205.608 533H200.46V532.78H201.78V528.38H201.01L198.656 532.78H199.8V533H194.784V532.78H195.818L199.338 526.51L197.094 523.76H195.796V523.54H198.854V523.76H197.402L201.054 528.16H201.78V523.76H200.46V523.54H205.608V523.76H204.288V528.16H205.036L208.644 523.76H207.214V523.54H210.272V523.76H208.952L206.774 526.422L210.294 532.78H211.35V533H206.268V532.78H207.39L205.058 528.38H204.288V532.78H205.608V533ZM216.821 533.132C215.971 533.132 215.223 533 214.577 532.736C213.947 532.472 213.419 532.12 212.993 531.68C212.568 531.24 212.245 530.734 212.025 530.162C211.82 529.575 211.717 528.959 211.717 528.314C211.717 527.727 211.805 527.148 211.981 526.576C212.172 525.989 212.458 525.461 212.839 524.992C213.221 524.523 213.705 524.141 214.291 523.848C214.878 523.555 215.582 523.408 216.403 523.408C217.151 523.408 217.789 523.533 218.317 523.782C218.86 524.017 219.3 524.339 219.637 524.75C219.989 525.161 220.239 525.63 220.385 526.158C220.547 526.686 220.627 527.243 220.627 527.83H214.467V528.292C214.467 528.981 214.497 529.612 214.555 530.184C214.614 530.741 214.731 531.218 214.907 531.614C215.098 532.01 215.362 532.318 215.699 532.538C216.051 532.758 216.521 532.868 217.107 532.868C217.635 532.868 218.083 532.795 218.449 532.648C218.831 532.487 219.146 532.289 219.395 532.054C219.659 531.819 219.865 531.57 220.011 531.306C220.173 531.042 220.29 530.8 220.363 530.58L220.583 530.668C220.466 530.976 220.312 531.277 220.121 531.57C219.945 531.863 219.703 532.127 219.395 532.362C219.102 532.597 218.743 532.787 218.317 532.934C217.892 533.066 217.393 533.132 216.821 533.132ZM216.227 523.584C215.89 523.584 215.604 523.694 215.369 523.914C215.149 524.119 214.973 524.405 214.841 524.772C214.709 525.124 214.614 525.549 214.555 526.048C214.511 526.532 214.482 527.053 214.467 527.61H218.031C218.031 527.214 218.009 526.781 217.965 526.312C217.921 525.843 217.833 525.41 217.701 525.014C217.584 524.603 217.408 524.266 217.173 524.002C216.939 523.723 216.623 523.584 216.227 523.584ZM226.742 533H221.506V532.78H222.826V523.76H221.506V523.54H226.786V523.76H225.466V528.116H228.92V523.76H227.6V523.54H232.88V523.76H231.56V532.78H232.88V533H227.644V532.78H228.92V528.336H225.466V532.78H226.742V533ZM238.859 533H233.623V532.78H234.943V523.76H233.623V523.54H238.903V523.76H237.583V528.116H241.037V523.76H239.717V523.54H244.997V523.76H243.677V532.78H244.997V533H239.761V532.78H241.037V528.336H237.583V532.78H238.859V533ZM251.02 523.76H249.7V527.456C249.906 527.441 250.111 527.427 250.316 527.412C250.536 527.397 250.749 527.39 250.954 527.39C251.526 527.39 252.047 527.441 252.516 527.544C253 527.647 253.418 527.808 253.77 528.028C254.122 528.233 254.394 528.505 254.584 528.842C254.775 529.179 254.87 529.583 254.87 530.052C254.87 530.536 254.76 530.961 254.54 531.328C254.32 531.695 254.005 532.003 253.594 532.252C253.198 532.501 252.722 532.692 252.164 532.824C251.607 532.941 250.991 533 250.316 533H245.74V532.78H247.06V523.76H245.74V523.54H251.02V523.76ZM260.15 533H254.87V532.78H256.19V523.76H254.87V523.54H260.15V523.76H258.83V532.78H260.15V533ZM250.426 527.632C250.309 527.632 250.184 527.639 250.052 527.654C249.935 527.654 249.818 527.661 249.7 527.676V532.78H250.36C250.756 532.78 251.079 532.707 251.328 532.56C251.592 532.399 251.798 532.193 251.944 531.944C252.091 531.695 252.194 531.409 252.252 531.086C252.311 530.763 252.34 530.433 252.34 530.096C252.34 529.348 252.179 528.754 251.856 528.314C251.548 527.859 251.072 527.632 250.426 527.632ZM266.188 532.78H267.508L265.088 528.886L262.052 532.78H263.482V533H260.402V532.78H261.766L264.956 528.666L261.942 523.76H260.71V523.54H266.254V523.76H264.934L266.826 526.862L269.136 523.76H267.706V523.54H270.786V523.76H269.422L266.98 527.082L270.5 532.78H271.732V533H266.188V532.78ZM286.645 516.742C286.63 516.933 286.601 517.219 286.557 517.6C286.527 517.967 286.461 518.304 286.359 518.612C286.139 519.257 285.794 519.771 285.325 520.152C284.87 520.519 284.173 520.768 283.235 520.9L282.157 521.054C281.423 521.157 280.771 521.318 280.199 521.538C279.627 521.743 279.135 522.037 278.725 522.418C278.314 522.799 277.999 523.291 277.779 523.892C277.573 524.479 277.471 525.197 277.471 526.048C277.471 526.341 277.471 526.569 277.471 526.73C277.471 526.877 277.485 527.016 277.515 527.148H277.581C277.933 526.004 278.527 525.095 279.363 524.42C280.199 523.745 281.189 523.408 282.333 523.408C283.183 523.408 283.909 523.562 284.511 523.87C285.112 524.163 285.596 524.545 285.963 525.014C286.344 525.469 286.615 525.989 286.777 526.576C286.953 527.148 287.041 527.705 287.041 528.248C287.041 528.791 286.945 529.355 286.755 529.942C286.579 530.514 286.3 531.035 285.919 531.504C285.537 531.973 285.039 532.362 284.423 532.67C283.821 532.978 283.095 533.132 282.245 533.132C280.558 533.132 279.297 532.553 278.461 531.394C277.625 530.235 277.207 528.541 277.207 526.312C277.207 525.241 277.302 524.266 277.493 523.386C277.698 522.491 278.006 521.707 278.417 521.032C278.842 520.357 279.385 519.807 280.045 519.382C280.705 518.942 281.497 518.641 282.421 518.48L284.027 518.216C284.467 518.143 284.826 518.077 285.105 518.018C285.383 517.945 285.603 517.871 285.765 517.798C285.941 517.71 286.073 517.622 286.161 517.534C286.249 517.431 286.315 517.314 286.359 517.182C286.417 517.021 286.454 516.874 286.469 516.742H286.645ZM282.245 532.956C282.699 532.956 283.066 532.831 283.345 532.582C283.623 532.318 283.836 531.973 283.983 531.548C284.129 531.108 284.225 530.609 284.269 530.052C284.313 529.48 284.335 528.886 284.335 528.27C284.335 527.654 284.313 527.067 284.269 526.51C284.239 525.938 284.159 525.439 284.027 525.014C283.895 524.574 283.697 524.229 283.433 523.98C283.169 523.716 282.802 523.584 282.333 523.584C281.907 523.584 281.548 523.716 281.255 523.98C280.961 524.229 280.727 524.574 280.551 525.014C280.375 525.439 280.25 525.938 280.177 526.51C280.103 527.067 280.067 527.654 280.067 528.27C280.067 528.886 280.089 529.48 280.133 530.052C280.177 530.609 280.272 531.108 280.419 531.548C280.58 531.973 280.8 532.318 281.079 532.582C281.372 532.831 281.761 532.956 282.245 532.956ZM294.86 523.54H297.588V523.76H296.532L291.582 536.234C291.26 537.041 290.908 537.62 290.526 537.972C290.145 538.324 289.632 538.5 288.986 538.5C288.282 538.5 287.732 538.317 287.336 537.95C286.94 537.598 286.742 537.121 286.742 536.52C286.742 536.051 286.867 535.677 287.116 535.398C287.351 535.134 287.652 535.002 288.018 535.002C288.385 535.002 288.664 535.119 288.854 535.354C289.045 535.589 289.14 535.875 289.14 536.212C289.14 536.373 289.118 536.513 289.074 536.63C289.03 536.762 288.986 536.879 288.942 536.982C288.898 537.099 288.854 537.209 288.81 537.312C288.766 537.415 288.744 537.525 288.744 537.642C288.744 537.847 288.803 537.987 288.92 538.06C289.038 538.148 289.184 538.192 289.36 538.192C289.815 538.192 290.211 537.979 290.548 537.554C290.886 537.129 291.157 536.652 291.362 536.124L292.44 533.418L288.612 523.76H287.556V523.54H292.572V523.76H291.296L293.738 530.14L296.268 523.76H294.86V523.54ZM302.881 523.76H301.671V528.16H302.441L306.313 523.76H304.883V523.54H307.963V523.76H306.621L304.223 526.466L307.985 532.78H309.041V533H303.937V532.78H304.993L302.441 528.38H301.671V532.78H302.881V533H297.711V532.78H299.031V523.76H297.711V523.54H302.881V523.76ZM313.807 523.54C315.273 523.54 316.359 523.716 317.063 524.068C317.767 524.405 318.119 524.97 318.119 525.762C318.119 526.407 317.833 526.928 317.261 527.324C316.689 527.705 315.926 527.933 314.973 528.006C315.501 528.035 315.977 528.101 316.403 528.204C316.843 528.307 317.217 528.453 317.525 528.644C317.847 528.835 318.097 529.069 318.273 529.348C318.449 529.612 318.537 529.935 318.537 530.316C318.537 531.152 318.163 531.812 317.415 532.296C316.681 532.765 315.486 533 313.829 533H309.055V532.78H310.375V523.76H309.055V523.54H313.807ZM313.015 528.16V532.78H313.829C314.635 532.78 315.2 532.56 315.523 532.12C315.86 531.665 316.029 531.093 316.029 530.404C316.029 529.759 315.845 529.223 315.479 528.798C315.127 528.373 314.525 528.16 313.675 528.16H313.015ZM313.015 523.76V527.94H313.719C314.393 527.94 314.877 527.742 315.171 527.346C315.479 526.935 315.633 526.422 315.633 525.806C315.633 524.442 315.002 523.76 313.741 523.76H313.015ZM331.125 532.318C330.846 531.555 330.465 530.881 329.981 530.294C329.512 529.707 329.028 529.172 328.529 528.688C328.456 528.615 328.39 528.556 328.331 528.512C328.287 528.453 328.265 528.373 328.265 528.27C328.265 528.167 328.287 528.094 328.331 528.05C328.39 527.991 328.456 527.925 328.529 527.852C329.028 527.368 329.512 526.833 329.981 526.246C330.465 525.659 330.846 524.985 331.125 524.222L331.257 524.244C331.184 524.581 331.096 524.941 330.993 525.322C330.905 525.703 330.802 526.077 330.685 526.444C330.582 526.796 330.472 527.133 330.355 527.456C330.238 527.779 330.128 528.05 330.025 528.27C330.128 528.49 330.238 528.761 330.355 529.084C330.472 529.407 330.582 529.751 330.685 530.118C330.802 530.47 330.905 530.837 330.993 531.218C331.096 531.599 331.184 531.959 331.257 532.296L331.125 532.318ZM327.781 532.318C327.502 531.555 327.121 530.881 326.637 530.294C326.168 529.707 325.684 529.172 325.185 528.688C325.112 528.615 325.046 528.556 324.987 528.512C324.943 528.453 324.921 528.373 324.921 528.27C324.921 528.167 324.943 528.094 324.987 528.05C325.046 527.991 325.112 527.925 325.185 527.852C325.684 527.368 326.168 526.833 326.637 526.246C327.121 525.659 327.502 524.985 327.781 524.222L327.913 524.244C327.84 524.581 327.752 524.941 327.649 525.322C327.561 525.703 327.458 526.077 327.341 526.444C327.238 526.796 327.128 527.133 327.011 527.456C326.894 527.779 326.784 528.05 326.681 528.27C326.784 528.49 326.894 528.761 327.011 529.084C327.128 529.407 327.238 529.751 327.341 530.118C327.458 530.47 327.561 530.837 327.649 531.218C327.752 531.599 327.84 531.959 327.913 532.296L327.781 532.318ZM338.029 523.76H336.819V528.16H337.589L341.461 523.76H340.031V523.54H343.111V523.76H341.769L339.371 526.466L343.133 532.78H344.189V533H339.085V532.78H340.141L337.589 528.38H336.819V532.78H338.029V533H332.859V532.78H334.179V523.76H332.859V523.54H338.029V523.76ZM348.405 532.296C348.464 531.959 348.544 531.599 348.647 531.218C348.75 530.837 348.852 530.47 348.955 530.118C349.072 529.751 349.19 529.407 349.307 529.084C349.424 528.761 349.534 528.49 349.637 528.27C349.534 528.05 349.424 527.779 349.307 527.456C349.19 527.133 349.072 526.796 348.955 526.444C348.852 526.077 348.75 525.703 348.647 525.322C348.544 524.941 348.464 524.581 348.405 524.244L348.537 524.222C348.816 524.985 349.19 525.659 349.659 526.246C350.143 526.833 350.634 527.368 351.133 527.852C351.206 527.925 351.265 527.991 351.309 528.05C351.368 528.094 351.397 528.167 351.397 528.27C351.397 528.373 351.368 528.453 351.309 528.512C351.265 528.556 351.206 528.615 351.133 528.688C350.634 529.172 350.143 529.707 349.659 530.294C349.19 530.881 348.816 531.555 348.537 532.318L348.405 532.296ZM345.061 532.296C345.12 531.959 345.2 531.599 345.303 531.218C345.406 530.837 345.508 530.47 345.611 530.118C345.728 529.751 345.846 529.407 345.963 529.084C346.08 528.761 346.19 528.49 346.293 528.27C346.19 528.05 346.08 527.779 345.963 527.456C345.846 527.133 345.728 526.796 345.611 526.444C345.508 526.077 345.406 525.703 345.303 525.322C345.2 524.941 345.12 524.581 345.061 524.244L345.193 524.222C345.472 524.985 345.846 525.659 346.315 526.246C346.799 526.833 347.29 527.368 347.789 527.852C347.862 527.925 347.921 527.991 347.965 528.05C348.024 528.094 348.053 528.167 348.053 528.27C348.053 528.373 348.024 528.453 347.965 528.512C347.921 528.556 347.862 528.615 347.789 528.688C347.29 529.172 346.799 529.707 346.315 530.294C345.846 530.881 345.472 531.555 345.193 532.318L345.061 532.296Z" fill="#444444"/>
<path d="M185.918 56.9626H166.705L230.748 137.372H235.492V56.9626H216.991V54.5906H285.066V56.9626H266.565V137.372H271.309L335.115 56.9626H316.139V54.5906H354.091V56.9626H338.436L291.471 116.024L355.751 220.628H367.611V223H300.247V220.628H319.223L271.546 139.744H266.565V220.628H285.066V223H216.991V220.628H235.492V139.744H230.511L182.835 220.628H201.811V223H134.447V220.628H146.307L210.35 116.024L163.385 56.9626H147.967V54.5906H185.918V56.9626Z" fill="black"/>
<path d="M318.053 55H354.461V57.3662H339.67L291.203 115.101L358.784 220.634H370.389V223H305.766V220.634H323.742L271.407 137.58H266.628V220.634H284.377V223H218.389V220.634H236.137V57.3662H218.389V55H284.377V57.3662H266.628V135.214H271.179L336.257 57.3662H318.053V55Z" fill="#D33A27"/>
</svg>
